<svg preserveAspectRatio="none" width="100%" height="100%" overflow="visible" style="display: block;" viewBox="0 0 49 49" fill="none" xmlns="http://www.w3.org/2000/svg">
<g id="Group">
<path id="Vector" d="M24.5 1C37.4787 1 48 11.5213 48 24.5C48 37.4787 37.4787 48 24.5 48C11.5213 48 1 37.4787 1 24.5C1 11.5213 11.5213 1 24.5 1Z" fill="var(--fill-0, #FF845F)" fill-opacity="0.4" stroke="var(--stroke-0, #FF845F)" stroke-width="2"/>
<path id="Vector_2" d="M23.7564 14.6283L23.2769 14.3353C22.87 14.0873 22.6042 13.6455 22.6041 13.1439C22.6041 12.3708 23.2275 11.7465 24.0005 11.7464C24.7729 11.7464 25.398 12.3727 25.398 13.1439C25.3979 13.6474 25.1324 14.0869 24.7251 14.3353L24.2447 14.6283V22.0111L24.9195 22.2435C25.0402 22.2851 25.15 22.3314 25.2515 22.3822L25.896 22.7044L31.1216 17.4789L30.9898 16.9339C30.8783 16.4722 31.003 15.9695 31.357 15.6156L31.358 15.6146C31.9005 15.0709 32.783 15.0694 33.3296 15.6156L33.3316 15.6175C33.8754 16.1603 33.8762 17.0426 33.3296 17.5892C32.9741 17.9448 32.4754 18.0695 32.0152 17.9574L31.4683 17.8236L26.2417 23.0501L26.564 23.6947C26.6148 23.7962 26.6611 23.906 26.7027 24.0267L26.9351 24.7005H34.3179L34.6099 24.221C34.8579 23.8141 35.3006 23.5483 35.8023 23.5482C36.5754 23.5482 37.1998 24.1725 37.1998 24.9457C37.1996 25.7179 36.5734 26.3421 35.8023 26.3421C35.2986 26.342 34.8582 26.0768 34.6099 25.6693L34.3179 25.1898H26.9351L26.7027 25.8636C26.6611 25.9844 26.6148 26.0951 26.564 26.1966L26.2417 26.8412L26.7515 27.3509L31.0708 31.6693L31.4673 32.0658L32.0123 31.9349C32.4739 31.8235 32.9757 31.9474 33.3296 32.3011L33.3316 32.3021C33.8757 32.8448 33.8763 33.7281 33.3296 34.2748L33.3287 34.2757C32.786 34.8197 31.9037 34.8212 31.357 34.2748C31.0013 33.9191 30.8765 33.4197 30.9888 32.9593L31.1226 32.4134L30.7251 32.015L26.4058 27.6966L25.896 27.1869L25.2515 27.5091C25.1501 27.5598 25.0401 27.6052 24.9195 27.6468L24.2447 27.8792V35.3919C24.2447 35.528 24.1366 35.6371 24.0005 35.6371C23.866 35.637 23.7564 35.5267 23.7564 35.3919V27.8773L23.0796 27.6458C21.9535 27.2611 21.1461 26.1959 21.146 24.9457C21.146 24.4942 21.2513 24.0701 21.439 23.6908L21.7574 23.0482L16.4419 17.7328C16.3467 17.6375 16.3468 17.4824 16.4419 17.3871C16.5373 17.2917 16.6923 17.2918 16.7876 17.3871L22.105 22.7044L22.7496 22.3822C22.8511 22.3314 22.9618 22.2851 23.0826 22.2435L23.7564 22.0111V14.6283Z" fill="var(--fill-0, #FF845F)" stroke="var(--stroke-0, #FF845F)" stroke-width="2"/>
</g>
</svg>
