<svg preserveAspectRatio="none" width="100%" height="100%" overflow="visible" style="display: block;" viewBox="0 0 49 49" fill="none" xmlns="http://www.w3.org/2000/svg">
<g id="Group">
<path id="Vector" d="M24.5 1C37.4787 1 48 11.5213 48 24.5C48 37.4787 37.4787 48 24.5 48C11.5213 48 1 37.4787 1 24.5C1 11.5213 11.5213 1 24.5 1Z" fill="var(--fill-0, #FF845F)" fill-opacity="0.4" stroke="var(--stroke-0, #FF845F)" stroke-width="2"/>
<path id="Vector_2" d="M24.5001 34.6607C21.1528 32.3203 12.9249 25.9281 13.0329 21.609C13.0761 19.857 13.7618 18.1861 14.9063 16.885C16.6474 14.9063 19.4764 14.3016 21.8384 15.484C23.0343 16.0832 23.9062 17.1063 24.5001 18.3238C25.0939 17.1063 25.9659 16.0832 27.1617 15.484C29.5237 14.3043 32.3527 14.909 34.0938 16.885C35.2384 18.1861 35.9214 19.857 35.9672 21.609C36.0752 25.9254 27.8474 32.3203 24.5001 34.6607Z" fill="var(--fill-0, #FF845F)"/>
</g>
</svg>
