<svg preserveAspectRatio="none" width="100%" height="100%" overflow="visible" style="display: block;" viewBox="0 0 48.9973 49" fill="none" xmlns="http://www.w3.org/2000/svg">
<g id="Group">
<path id="Vector" d="M24.499 1C36.8875 1.00019 47.0393 10.5915 47.9336 22.7549L47.9688 23.3359C47.9869 23.7237 47.9971 24.1119 47.9971 24.501C47.9971 24.8903 47.9869 25.279 47.9688 25.667C47.3603 38.1017 37.0866 47.9998 24.499 48C11.9112 48 1.63673 38.1018 1.02832 25.667C1.01012 25.279 1 24.8902 1 24.501C1.00001 24.1119 1.01014 23.7237 1.02832 23.3359C1.63673 10.8984 11.9139 1 24.499 1Z" fill="var(--fill-0, #FF845F)" fill-opacity="0.4" stroke="var(--stroke-0, #FF845F)" stroke-width="2"/>
<path id="Vector_2" d="M48.9973 24.5013C48.9973 24.9089 48.9865 25.3138 48.9676 25.716H33.0257L28.7338 35.5657C28.5395 36.0083 28.1022 36.2945 27.6217 36.2945C27.5947 36.2945 27.5704 36.2945 27.5461 36.2918C27.036 36.2594 26.6014 35.9139 26.4556 35.4226L21.1569 17.467L17.8827 24.9845C17.6884 25.4272 17.2511 25.716 16.7679 25.716H0.0296963C0.0108014 25.3138 0 24.9089 0 24.5013C0 24.0937 0.0108014 23.6888 0.0296963 23.2866H15.9716L20.2635 13.4343C20.4686 12.9673 20.941 12.6758 21.4539 12.7082C21.964 12.7406 22.3986 13.0861 22.5444 13.5773L27.8404 31.5329L31.1173 24.0154C31.3089 23.5728 31.7462 23.2866 32.2294 23.2866H48.9676C48.9865 23.6888 48.9973 24.0937 48.9973 24.5013Z" fill="var(--fill-0, #FF845F)"/>
</g>
</svg>
