<svg preserveAspectRatio="none" width="100%" height="100%" overflow="visible" style="display: block;" viewBox="0 0 182.804 38.9086" fill="none" xmlns="http://www.w3.org/2000/svg">
<g id="Group">
<path id="Vector" d="M44.1448 5.50428C43.7256 5.17138 43.3887 5.31222 43.0978 5.02588C42.9989 4.94324 42.9129 4.84081 42.8199 4.74071C42.0802 3.88285 41.1474 2.1462 40.7211 1.35003C40.5373 0.978724 40.3477 0.575987 39.9414 0.38393C38.766 -0.087482 37.3939 0.388586 36.1643 0.276844C33.8005 0.189545 31.4261 0.133674 29.0706 0.227957C28.5594 0.289648 28.2921 0.793651 28.3404 1.25808C28.3404 1.66547 28.6313 2.15667 28.6195 2.5629C28.3981 3.10997 27.1591 1.91573 27.0884 1.61309C26.854 0.893753 26.4877 0.0498677 25.6256 0.0521956C25.2829 0.0487037 25.0144 0.211661 24.6763 0.244252C22.7 0.481704 19.8004 0.544559 17.744 0.403718C17.0939 0.237268 16.1175 -0.0560545 15.5439 0.365306C15.0669 0.806455 15.4367 1.53627 15.7076 2.0135C16.1199 2.88183 15.8984 3.9655 15.4791 4.78494L15.445 4.80705C14.6135 4.76399 13.2426 2.44999 13.0176 1.81563C12.9528 1.61076 12.9587 1.37913 12.9434 1.1638C12.9246 0.762223 12.5017 0.336207 12.1154 0.193037C11.2969 -0.00251144 9.84706 0.344355 8.85185 0.208169C7.74946 0.00912834 6.28078 0.0556876 4.78384 0.0370639C3.36934 -0.0770062 1.99724 0.0964269 0.611006 0.230285C0.272987 0.355994 -0.136877 0.75524 0.0444995 1.14284C0.210565 1.55024 0.635739 2.53497 0.801804 2.94934C0.947847 3.33462 0.858337 3.67567 0.916048 4.09703C1.04678 5.05149 1.48373 5.8849 1.53909 6.84053C1.83 9.73651 2.01491 12.5091 2.5343 15.3108C2.7887 16.6703 3.01836 18.0648 3.08667 19.4476C3.16087 19.8515 3.56367 20.0389 3.55778 20.4824C3.89462 23.0222 4.55182 25.4025 5.01704 27.9062C5.3739 29.2029 5.28086 30.481 5.23963 31.8859C5.28674 32.568 5.73194 33.1593 6.26076 33.5667C7.41968 34.4397 9.0344 35.5047 9.62093 36.8933C9.71515 37.1471 9.9083 37.3124 10.105 37.4835C10.3323 37.6732 10.3441 37.9339 10.5255 38.183C10.8493 38.5927 11.3546 39.1468 11.9117 38.7988C12.2379 38.6125 12.3934 38.2424 12.6395 37.977C12.9387 37.6534 13.5759 37.7337 14.0034 37.8932C14.4027 38.0724 15.0128 38.0212 15.4674 38.1644C15.6911 38.2447 15.8937 38.4391 16.1399 38.4694C16.4732 38.5113 16.6946 38.2063 17.0044 38.1446C17.6757 38.0189 18.8323 38.2587 19.6049 38.1865C20.2515 38.0678 20.9039 37.6744 21.2526 37.1133C21.5906 36.0925 21.9734 34.939 22.3691 33.8844C22.4621 33.5061 22.4021 33.0871 22.7095 32.7961C23.1323 32.355 23.7836 32.7728 24.2005 33.0475C24.5256 33.292 24.6422 33.6353 24.8836 33.9648C25.7399 35.0624 26.7775 35.94 27.6443 37.0074C28.0919 37.4939 28.4676 38.2203 29.2296 38.1632C29.7596 38.1923 30.1341 37.9083 30.703 37.9654C31.0539 37.9712 31.4179 38.0189 31.763 37.9572C32.1328 37.8687 32.4414 37.9141 32.8442 37.9595C32.9384 37.963 33.0467 37.9665 33.141 37.9758C33.6227 37.991 33.8771 38.4705 34.3576 38.5194C34.7109 38.5462 34.9771 38.261 35.2857 38.1504C35.8687 37.991 37.0676 38.0538 37.8155 37.9688C38.0946 37.92 38.3302 37.8105 38.614 37.7838C39.7223 37.7908 40.1357 37.9397 40.2158 36.7408C40.4207 35.7433 40.4561 34.6166 40.7293 33.6214C40.9024 33.2 41.2452 32.9067 41.277 32.433C41.4513 28.9014 42.1191 25.4235 42.3228 21.8303C42.3947 20.2915 42.5878 18.819 42.8375 17.2896C42.8917 16.583 42.8198 15.8323 42.8846 15.2689C42.94 14.7882 43.3946 14.5042 43.4346 13.9967C43.6514 12.7361 43.4582 11.2741 43.7385 10.0438C43.8999 9.34192 44.517 8.5993 44.6689 7.93932C44.7184 7.64018 44.7172 7.284 44.8009 7.02327C44.9092 6.51578 44.6301 5.79993 44.1448 5.50428ZM38.5398 8.56787C38.5622 8.47359 38.5245 8.27106 38.5693 8.2117C38.8249 8.13487 39.1193 8.17794 39.3443 8.30598C39.4856 8.39561 39.7011 8.56555 39.7235 8.7448C39.7188 8.80998 39.7211 8.87866 39.7624 8.94035C40.058 9.40478 40.4148 9.93788 40.3171 10.5082L40.2853 10.5373C39.9696 10.6095 39.8377 10.2941 39.6234 10.1544C39.5362 10.123 39.4408 10.1695 39.3749 10.0997C39.2465 9.98677 39.0298 9.79587 38.9462 9.65387C38.9203 9.57937 38.9638 9.47461 38.8896 9.40943C38.8614 9.38266 38.8048 9.33028 38.7766 9.30351C38.4739 9.11844 38.5069 8.88331 38.5398 8.56904V8.56787ZM38.1724 11.1321C38.521 11.0285 38.9579 11.2625 39.2218 11.4918C39.3395 11.5977 39.3348 11.5989 39.3619 11.7386C39.4067 11.9364 39.4844 12.2833 39.5256 12.4672L39.4997 12.4777C38.7283 12.6721 38.0499 11.8433 38.1724 11.1321ZM11.8764 3.93174C12.1319 3.57556 12.636 3.67101 12.8975 3.91777C13.0541 4.08189 13.3321 4.43807 13.3662 4.63479C13.3215 4.70812 13.1507 4.98747 13.1059 5.05964C13.0824 5.11667 13.0376 5.07244 12.8657 5.05149C12.6725 5.0189 12.1414 4.92112 11.9965 4.89668L11.9882 4.87224C11.967 4.57426 11.6573 4.21924 11.8752 3.93058L11.8764 3.93174ZM18.0985 35.1066L18.0761 35.138C17.8111 35.1962 17.4861 34.7435 17.2058 34.6538C16.6463 34.4874 16.187 33.7296 15.5286 33.8565C15.3896 33.8949 15.3425 34.0288 15.3366 34.1568C15.4038 35.0147 16.545 35.3778 16.8406 36.1821C17.5591 36.9422 16.6852 37.161 16.0798 36.8002C15.2671 36.0774 15.0493 34.9262 13.9716 34.5456C13.5064 34.4245 13.1978 33.9357 13.1743 33.4922C13.1719 33.1779 13.5523 33.0685 13.815 33.0475C14.352 33.0056 15.3755 32.987 16.015 33.0371C16.2082 33.0452 16.3566 33.1337 16.5804 33.2862C16.8501 33.5015 17.1104 33.4247 17.3565 33.6051C17.4825 33.7331 17.5497 33.8938 17.6356 34.0497C17.837 34.3337 18.2045 34.7423 18.1009 35.1055L18.0985 35.1066ZM21.8214 30.7394C21.7861 30.7359 21.0571 30.6032 20.785 30.5543C20.6413 30.4868 19.7179 29.6301 19.2657 29.2495C19.1514 29.1377 19.0878 29.1249 19.0784 29.0469C19.0596 28.3695 18.9559 27.507 19.566 27.06C19.7674 26.9879 20.2362 27.3696 20.2585 27.5931C20.2044 28.0529 20.5388 28.43 20.7638 28.8456C20.9452 29.2018 21.3197 29.4718 21.4858 29.7954C21.5835 30.0654 21.8273 30.7196 21.8273 30.7335L21.8202 30.7405L21.8214 30.7394ZM21.9557 27.2346C21.8497 27.3324 21.6424 27.564 21.5706 27.6048C21.2997 27.4628 21.0606 27.1171 20.7579 26.8982C20.5282 26.691 20.3009 26.4862 20.1761 26.2208C20.0748 25.9903 19.8522 25.683 19.8428 25.4316C19.818 25.2012 19.9146 24.7856 20.1325 24.7006L20.1796 24.6855C20.7391 24.6064 21.3197 25.4945 21.6554 25.8309C21.7508 26.1649 21.9298 26.7911 22.0052 27.0507C22.0322 27.1473 22.0452 27.1473 21.9569 27.2346H21.9557ZM31.4414 36.3556C31.4108 36.3858 31.3036 36.38 31.1953 36.38C30.7383 36.3695 30.6735 35.8201 30.3661 35.5629C29.4675 34.7784 28.464 34.4501 27.6149 33.448C27.4311 33.2489 27.258 33.0766 27.3098 32.7868C27.3263 32.7077 27.3758 32.6762 27.4724 32.6914C27.8033 32.7868 28.3309 32.7379 28.5653 33.0231C29.1307 33.6249 29.8196 34.1161 30.2837 34.7923C30.4804 35.1299 30.8196 35.585 31.2283 35.6048L31.2648 35.6234C31.3095 35.6444 31.5015 36.366 31.4403 36.3556H31.4414ZM34.2257 33.846C33.8665 33.6388 33.1998 33.2454 32.7982 33.0115C32.5768 32.8857 32.5686 32.831 32.4284 32.9719C32.0645 33.2908 32.4013 34.0183 32.1893 34.3768C32.1634 34.421 32.141 34.4315 32.1116 34.4141C31.8171 34.1976 30.9468 33.5655 30.7371 33.4119C30.6323 33.3397 30.6629 33.3316 30.5923 33.1092C30.5534 32.9544 30.4804 32.767 30.491 32.7135C30.5028 32.6576 30.6641 32.6844 30.7619 32.6262C30.862 32.5785 30.9562 32.5063 31.0799 32.4877C31.1988 32.4912 31.3366 32.4981 31.4367 32.568C31.7983 32.8334 32.419 32.632 32.8807 32.6553C33.1386 32.6704 33.32 32.5843 33.4495 32.8124C33.6521 33.0801 34.0361 33.59 34.2269 33.8437V33.8472L34.2257 33.846ZM34.082 23.1374C33.6427 25.5038 33.5944 27.9691 32.9596 30.2633C32.2835 31.6019 30.6806 30.9954 29.4699 31.1596C28.2214 31.2783 27.1049 31.0792 25.754 30.9349C25.1239 30.9873 24.3748 30.8465 24.2382 30.1399C24.2629 29.225 23.9579 28.3998 23.6941 27.5C23.4844 26.5688 23.6093 25.3734 23.4785 24.3887C23.4679 24.0348 23.1417 23.8405 23.0428 23.4889C22.9874 23.2049 23.0463 22.8406 22.9945 22.5217C22.5458 19.5058 21.6577 16.4771 21.4351 13.4333C21.1489 12.5254 20.1855 12.338 19.9617 13.4252C19.6638 14.7474 20.0972 16.1466 19.7615 17.4968C19.0148 21.0958 18.029 24.7041 17.1009 28.2997C16.9254 29.0609 16.9655 29.9711 16.2741 30.5077C15.9196 30.8406 15.6087 31.2492 15.1388 31.4052C14.3026 31.6426 13.3827 31.4482 12.5206 31.5006C11.1261 31.858 9.65037 31.6822 8.21703 31.688C7.87194 31.6705 7.57986 31.4378 7.43381 31.1503C6.89675 30.41 6.86613 29.5114 6.72362 28.6372C6.29845 26.8563 6.04758 25.0021 5.66127 23.2049C5.0453 20.6651 4.90044 18.0997 4.55653 15.5017C4.13018 12.9433 4.08424 10.3104 3.62491 7.75309C3.49065 6.55768 2.75572 5.50079 2.86408 4.31935C2.88056 3.92243 2.91354 3.59186 2.76161 3.25663C2.32937 2.44767 2.29404 1.8715 3.25627 1.78536C4.91221 1.77489 8.53738 1.797 9.42071 1.78536C9.55968 1.74462 9.6598 2.07752 9.71986 2.25561C9.86355 2.6339 9.67628 3.20542 9.85413 3.5744C10.039 3.95619 10.3735 4.58357 10.4124 5.09805C10.7869 7.95096 10.7952 10.9866 10.9506 13.928C11.344 15.2794 11.251 16.9078 11.2309 18.2708C11.2262 18.3581 11.2192 18.4629 11.2121 18.5502C11.2062 18.8738 11.0036 19.067 11.0708 19.3545C11.172 19.6979 11.437 20.0133 11.536 20.3602C11.6231 20.6535 11.6161 21.0446 11.8245 21.346C12.1708 21.878 13.3179 22.3424 13.497 21.4613C13.603 21.1784 13.504 20.7303 13.5511 20.3834C13.5912 20.1215 13.7101 19.8992 13.7655 19.6362C13.8515 19.0809 13.8656 18.5036 14.0046 17.967C14.0858 17.5864 14.4545 17.5259 14.564 17.2023C15.061 14.6823 15.6193 12.1506 16.1163 9.57588C16.2282 9.0614 16.1505 8.46312 16.5403 8.05805C16.7806 7.79848 16.7876 7.53426 16.9137 7.06634C17.1598 6.05717 17.5214 4.4695 17.6439 3.62212C17.7204 3.25896 17.6698 3.12045 17.5579 2.80617C17.5249 2.53031 17.7864 2.31381 17.9654 2.06239C18.135 1.85171 18.1927 1.79002 18.2905 1.79002C18.9017 1.78653 23.2465 1.79002 23.972 1.78885C24.2877 1.78885 24.5809 2.00419 24.6104 2.36386C24.8283 3.01802 24.8212 3.66868 24.6728 4.33681C24.6068 4.67669 24.6186 4.83732 24.6916 5.17487C24.9237 6.31208 24.853 7.56452 25.2052 8.69126C26.1262 11.5558 26.4265 14.2784 26.7563 17.3757C26.8187 18.407 27.311 19.365 27.3946 20.3823C27.4347 20.7873 27.8999 21.0388 28.3145 20.9619C29.3909 20.5569 28.8421 19.1752 28.9622 18.3011C29.0447 17.6842 29.3674 17.023 29.4204 16.3817C29.8797 13.3425 30.5828 10.4326 31.0587 7.40157C31.0975 7.15015 31.1011 6.89756 31.0669 6.64847C30.8478 5.48449 30.9326 4.16105 30.7689 2.96913C30.6582 2.5792 30.3956 1.99721 30.9008 1.79351C31.5086 1.82377 36.8297 1.72018 37.3974 1.82261L37.4339 1.84007C37.5458 1.89012 37.6589 1.98557 37.6789 2.11244C37.6977 2.2463 37.4716 2.3301 37.262 2.36852C36.9711 2.40227 36.838 2.62226 36.8603 2.88532C36.8203 3.3579 37.2855 3.69545 37.2867 4.15872C37.2997 4.56495 37.3244 5.03869 37.2408 5.43328C37.0747 5.86511 36.9675 6.32023 36.8945 6.78815C36.2915 9.8145 35.8757 12.9642 35.5189 16.036C35.0725 18.3884 34.6037 20.7792 34.0855 23.1397L34.082 23.1374ZM35.5836 24.5319C35.5907 24.405 35.5636 24.3433 35.6154 24.3154L35.6555 24.3014C36.3881 24.1338 36.6813 24.7798 37.0994 25.3234C37.461 26.0951 37.8756 26.8214 38.395 27.4744C38.6482 27.8771 40.038 29.5346 39.21 29.7512C38.7648 29.2972 36.2891 26.8889 35.5872 26.1545C35.5766 25.7412 35.5872 25.0068 35.5836 24.533V24.5319ZM38.5398 25.0952C38.2042 24.8135 37.6012 24.2257 37.216 23.88C37.0983 23.7764 37.1089 23.7555 36.964 23.7101C36.1937 23.4785 35.8828 23.1363 36.0123 22.2633C36.0477 22.0444 36.1784 21.8186 36.3833 21.7814C36.5753 21.7406 36.8062 21.8442 37.0005 22.0584C37.4092 22.4611 37.2337 22.9419 37.421 23.3877C37.739 23.9278 38.5328 24.3724 38.5422 25.0731L38.5398 25.0952ZM35.7132 35.8993C35.5224 35.5897 35.2656 35.436 35.1302 35.1741C35.0218 34.9367 34.791 34.4315 34.7887 34.4257L34.811 34.428C35.3116 34.5537 35.6543 35.0205 36.0277 35.3452C36.149 35.4442 36.2938 35.3452 36.401 35.4942C36.6813 35.7817 37.1336 36.1763 37.3444 36.4743C36.7414 37.1808 36.0936 36.4731 35.7132 35.8993ZM37.9227 34.8203C37.3067 34.9006 36.9393 34.2558 36.5341 33.9007C36.4151 33.8193 36.2797 33.8612 36.1961 33.7704C35.7803 33.4002 35.2527 32.9253 34.884 32.5005C34.7675 32.3678 34.7498 32.1443 34.6403 31.9674C34.5719 31.7753 34.6544 31.5088 34.7863 31.383C35.0525 31.1689 35.4294 31.4762 35.6449 31.6519C36.4469 32.3387 37.0559 33.15 37.7095 33.8786C37.8249 34.0195 37.9545 34.7772 37.951 34.8075L37.9227 34.8203ZM39.5162 33.0068L39.4844 33.0406C39.3183 33.0848 38.7884 33.1116 38.6317 33.0557C38.2525 32.7891 37.8497 32.2793 37.4728 31.9115C36.9027 31.2119 35.9959 30.9338 35.3104 30.3844C34.8204 29.8489 34.8758 28.9131 35.1514 28.2857C35.2079 27.8993 35.5754 27.9528 35.8204 28.1553C36.2632 28.458 36.4976 28.9352 36.825 29.3333C37.5458 30.1807 38.3644 30.9838 38.985 31.8626C39.2312 32.1711 39.6446 32.5913 39.5162 33.008V33.0068ZM40.7081 23.9173C40.5727 24.483 39.9614 24.4469 39.6976 23.9953C38.7059 22.5869 37.4304 21.2669 36.3798 19.919C36.3669 19.8515 36.3398 19.7176 36.3268 19.6501C36.3139 19.3952 36.454 19.1066 36.5989 18.9715C36.8497 18.7818 36.7096 18.2778 37.0217 18.1207L37.0735 18.1055C37.4775 18.1055 37.832 18.6631 37.9992 19.0297C38.2937 19.7223 38.6458 20.416 39.2842 20.9352C39.4738 21.2704 39.7376 21.6242 40.0015 21.9245C40.2547 22.2644 40.4278 22.7335 40.6198 23.1851C40.7058 23.3912 40.7705 23.6263 40.7069 23.9173H40.7081ZM41.4501 17.5259C41.3771 17.6481 41.178 17.917 41.0803 18.0357C40.7694 18.3057 40.469 17.96 40.1993 17.7365C39.9084 17.4584 39.5845 17.1871 39.4561 16.7995C38.9073 16.1524 38.1535 15.5913 37.6023 14.9465C37.461 14.2784 37.3797 13.3425 38.0416 12.8793C38.2713 12.7594 38.4221 13.0643 38.6046 13.1726C38.6988 13.2273 38.8037 13.2319 38.8602 13.2622L38.8979 13.2901C39.1699 14.3168 40.0203 14.9709 40.6857 15.8544C41.0508 16.3421 41.3088 16.4794 41.33 16.8007C41.3347 16.9078 41.3194 17.0358 41.337 17.1452C41.3547 17.314 41.5172 17.4025 41.4489 17.527L41.4501 17.5259ZM42.1662 11.9981C42.0779 12.1576 41.9412 12.4009 41.8564 12.5545C41.8105 12.622 41.807 12.6814 41.774 12.6581C41.7457 12.6406 41.6762 12.5603 41.6244 12.5126C41.125 12.0307 40.4419 11.5023 40.5091 10.741C40.5173 10.6933 40.5468 10.7236 40.608 10.7154C40.9967 10.7154 41.7304 10.7154 42.0814 10.7154L42.079 10.7399C41.966 11.1926 42.5337 11.5663 42.1685 11.9993L42.1662 11.9981ZM42.8599 7.41088L42.8151 7.43067C42.072 7.54008 41.6798 6.56234 41.2369 6.1014C40.7175 5.47518 39.932 5.00028 39.5091 4.29374C39.3843 3.80603 39.5857 3.28573 39.8613 3.14605C40.1251 2.99125 40.4007 3.26594 40.542 3.48477C40.9967 4.14824 41.6091 4.8024 41.8977 5.552C42.2215 5.96638 42.6938 6.55768 42.8634 7.05819C42.9141 7.22348 42.9412 7.3585 42.8587 7.40971L42.8599 7.41088Z" fill="var(--fill-0, white)"/>
<path id="Vector_2" d="M158.944 2.95632C159.087 3.04711 159.24 3.09484 159.394 3.14256C160.046 3.37419 160.354 3.96666 160.241 4.66621C160.601 10.8446 160.134 17.1092 160.207 23.2783C160.22 24.6273 159.957 25.9461 160.039 27.2928C160.078 28.061 160.03 28.998 160.018 29.8163C159.819 30.4158 159.611 31.042 159.23 31.5774C159.083 31.7718 158.888 31.9464 158.725 32.1117C158.436 32.3759 158.379 32.9486 158.533 33.3222C158.668 33.5865 158.976 33.725 159.233 33.8623C161.515 34.6911 162.923 36.7001 164.648 38.2785C164.889 38.46 165.169 38.5206 165.475 38.5206C166.322 38.5322 167.228 38.4414 168.069 38.4566C169.794 38.687 171.52 38.2761 173.253 38.2878C175.9 38.5089 178.641 37.9025 181.297 38.055C181.59 38.0503 181.784 38.1667 181.995 38.1737C182.445 38.1912 182.799 37.6627 182.705 37.2169C182.614 35.3813 183.021 33.4212 182.634 31.674C182.539 31.3854 182.538 31.0606 182.616 30.765C182.717 30.3378 182.618 29.9455 182.452 29.6371C182.006 28.8979 181.051 28.5639 180.467 28.0145C180.205 27.6897 178.879 26.8493 179.749 26.5677C180.24 26.4897 181.065 26.1707 181.296 25.7622C181.706 24.1256 180.828 22.3727 180.739 20.7408C180.726 20.3276 180.693 19.8166 180.77 19.4755C180.833 19.1589 181.145 18.8691 181.273 18.5886C181.452 18.1451 181.103 17.7319 180.787 17.4036C180.325 16.9404 179.884 16.824 179.471 16.3596C179.16 15.9941 177.952 15.1851 178.564 14.7765C178.825 14.7242 179.543 14.6706 180.266 14.588C181.121 14.446 181.837 14.5449 182.119 14.297L182.141 14.2632C182.455 13.7383 182.378 12.9014 182.33 12.2821C182.173 10.6025 181.875 8.08948 182.245 6.34467C182.313 5.94077 182.603 5.57993 182.47 5.16672C182.266 4.78843 181.863 4.46484 181.535 4.18549C181.18 3.92243 180.668 3.8328 180.278 3.57672C179.347 2.99706 178.487 1.89128 177.569 0.986869C177.137 0.544557 176.967 0.330384 176.351 0.396731C175.774 0.493342 175.137 0.95195 174.468 0.759893C172.952 0.457258 171.355 0.456094 169.857 0.504981C167.413 0.805288 164.785 0.699366 162.267 0.741269C161.537 0.782009 160.839 0.79714 160.162 0.962426C159.78 1.09628 159.433 1.21617 159.004 1.17893C158.632 1.1475 158.267 1.44781 158.177 1.8133C158.038 2.26725 158.545 2.68512 158.948 2.95516L158.944 2.95632ZM165.482 36.5302C164.819 36.0238 164.196 35.1252 163.566 34.6352C163.378 34.5107 163.185 34.5502 163.034 34.3C163.013 34.2453 163.084 33.6156 163.132 33.6458C163.298 33.8018 163.617 34.0474 163.766 34.2464C163.829 34.3384 163.801 34.5095 163.813 34.563L163.835 34.5852C163.909 34.5945 164.117 34.57 164.178 34.6434C164.725 35.1066 165.205 35.6886 165.711 36.2043C165.88 36.4161 165.759 36.6792 165.482 36.5302ZM169.173 34.7132C169.139 34.8692 169.155 34.9669 169.088 34.9809C169.002 34.9891 168.897 34.9937 168.811 34.996C168.716 35.003 168.602 35.0042 168.506 34.9984C168.071 34.9565 167.7 34.3908 167.227 34.6434C167.052 34.7504 167.032 34.8098 166.847 34.9669C166.74 35.0112 166.539 35.0007 166.415 34.9553C165.996 34.6899 164.642 33.9066 165.868 33.6423C166.125 33.6156 166.502 33.5492 166.707 33.6796C166.799 33.7669 166.888 33.8518 167.022 33.8356C167.513 33.8658 168.498 33.3211 169.059 33.8006C169.133 33.8309 169.221 33.8321 169.27 33.8321L169.306 33.8356C169.311 34.0497 169.201 34.4711 169.173 34.7132ZM172.057 35.1834C171.556 35.1427 171.198 34.5561 170.67 34.5945C170.595 34.5991 170.571 34.5968 170.545 34.5537C170.414 34.4071 169.976 33.9182 169.907 33.8402C170.222 33.8134 170.597 33.7622 170.88 33.9182C171.253 34.1417 171.742 34.7702 172.069 35.1718L172.057 35.1834ZM177.176 36.8724L177.146 36.9061C176.888 36.955 176.528 36.9795 176.268 36.9154C175.951 36.7932 175.389 36.1856 174.981 35.805C174.81 35.5967 174.628 35.6071 174.407 35.4721C173.943 35.0787 173.489 34.5048 172.898 34.4222C172.71 34.3954 172.646 34.2511 172.548 34.0905C172.144 33.5364 173.658 33.59 173.876 33.6249C174.131 33.6516 174.473 34.0462 174.732 34.2104C175.075 34.4222 175.607 34.5526 175.859 34.9215C175.944 35.0438 175.984 35.2056 176.091 35.3161C176.614 35.7119 177.295 36.1658 177.176 36.8724ZM177.78 17.6027C177.744 17.9181 177.556 18.1754 177.228 18.1032C177.006 18.0578 176.884 17.8564 176.697 17.7587C176.463 17.7144 176.205 17.5072 176.096 17.2872C175.97 17.0731 175.911 16.8356 175.834 16.5865C175.778 16.4329 175.784 16.4236 175.883 16.2781C175.969 16.1372 176.076 15.965 176.082 15.9545L176.111 15.9452C176.939 15.8393 177.742 16.2688 177.959 17.1301C177.972 17.2838 177.791 17.3897 177.778 17.6015L177.78 17.6027ZM174.838 24.4853C174.738 24.1617 174.273 23.901 174.23 23.546L174.236 23.5215C174.614 23.3912 175.681 24.4236 176.088 24.7286C176.755 25.1755 176.877 25.7913 175.91 25.8588C174.332 25.9845 175.01 25.2931 174.837 24.4853H174.838ZM180.299 29.6289C180.376 29.9735 180.309 30.7394 180.326 31.1095L180.318 31.1142C180.037 31.0013 179.689 30.6032 179.376 30.5264C179.296 30.517 179.195 30.5427 179.113 30.5287C179.007 30.5194 178.943 30.3948 178.841 30.3553C178.748 30.325 178.606 30.3192 178.508 30.2028C178.299 29.9886 178.403 29.7674 178.363 29.5277C178.323 29.3857 178.184 29.3147 178.153 29.1657C178.113 28.934 178.201 28.735 178.275 28.5278C178.323 28.4265 178.321 28.2717 178.395 28.2193C179.216 28.217 179.749 29.1529 180.3 29.6289H180.299ZM178.626 18.265C178.866 18.2813 179.08 18.5071 179.321 18.4768L179.345 18.4803C179.345 18.6386 179.345 19.0344 179.345 19.2264C179.335 19.3929 179.372 19.4604 179.31 19.4499H178.838C178.61 19.4464 178.679 19.4813 178.56 19.3207C178.49 19.2253 178.391 19.0879 178.31 18.975C178.203 18.8121 178.149 18.7993 178.158 18.6968C178.192 18.4838 178.368 18.2405 178.627 18.265H178.626ZM180.117 9.35123C179.497 8.87982 178.454 8.15233 177.725 7.52145C177.523 7.33172 177.398 7.22464 177.36 7.08612C177.321 6.93714 177.318 6.72296 177.229 6.5763C177.166 6.50064 177.089 6.41451 177.017 6.347C176.953 6.27599 177.057 6.18637 177.136 6.02923C177.249 5.84649 177.325 5.67771 177.368 5.65327L177.408 5.6393C177.593 5.59157 177.754 5.74056 177.883 5.85929C178.13 6.05484 178.752 6.6345 179.344 7.213C179.799 7.69489 180.249 8.0336 180.56 8.53295C180.766 8.98225 180.754 9.46996 180.117 9.35123ZM176.986 3.92592C176.989 3.81883 176.973 3.73619 177.059 3.7164C177.143 3.69196 177.305 3.72688 177.344 3.67799C177.407 3.62678 177.333 3.3998 177.426 3.33694C177.508 3.27176 177.704 3.28224 177.817 3.29737C178.284 3.37536 178.494 3.81534 178.844 4.08771C179.441 4.56262 180.312 4.85128 180.649 5.66956C180.745 5.88141 180.795 6.15378 180.604 6.31906C180.489 6.40752 180.313 6.37493 180.134 6.34118C179.654 6.26435 179.561 6.24573 179.147 5.88141C178.759 5.5939 178.475 5.21794 177.979 5.25402C177.819 5.25053 177.543 5.30407 177.415 5.25751L177.394 5.22143C177.38 5.17603 177.391 5.09455 177.36 5.01773C177.289 4.82335 176.99 4.70462 176.973 4.51955C176.945 4.35543 176.982 4.12962 176.987 3.92708L176.986 3.92592ZM176.684 12.2623C176.765 12.3299 176.813 12.3659 176.834 12.4276C176.894 12.6325 177.184 13.502 177.197 13.6032C177.077 13.6254 176.804 13.3623 176.707 13.2575C176.517 13.0678 176.546 12.9165 176.313 12.7745C175.323 12.2169 174.323 11.4895 173.658 10.5967C174.09 9.96814 174.988 10.4652 175.566 10.5164L175.586 10.5559C175.566 10.7399 175.593 10.9971 175.766 11.1251C176.136 11.4464 176.288 11.9527 176.684 12.2635V12.2623ZM162.042 11.0018C162.224 9.48043 162.481 7.01629 162.078 5.35529C161.983 5.04101 161.701 4.87573 161.647 4.56029C161.579 3.99343 161.578 3.39631 161.986 2.96564C162.168 2.63856 162.789 2.80151 162.861 2.38481C162.879 2.34058 162.902 2.30682 162.937 2.29285C163.409 2.17296 165.607 2.28005 167.518 2.33476C168.899 2.33359 169.695 2.5175 170.785 2.16715C170.941 2.16133 171.102 2.15201 171.256 2.1846C172.016 2.33825 172.756 2.18693 173.338 2.29984C173.661 2.37899 173.878 2.7084 174.233 2.71189C174.736 2.6921 175.229 2.76194 175.591 3.11346C175.72 3.2415 175.77 3.34276 175.803 3.48593C175.77 4.06676 175.89 7.41437 175.758 8.07551C175.367 8.5283 174.558 8.29783 173.997 8.3665C171.879 8.33275 169.593 7.86716 167.482 7.99054C166.963 8.079 166.549 8.60395 166.55 9.10214C166.548 9.62477 167.254 9.93671 167.289 10.4605C167.312 10.5804 167.32 10.7119 167.326 10.833C167.316 11.2706 167.557 11.5931 167.562 12.04C167.571 12.6011 167.442 13.1947 167.251 13.7068C167.162 13.9641 167.175 14.2248 167.297 14.4727C167.542 14.9721 168.076 15.2142 168.617 15.1909C169.266 15.2363 169.803 14.9244 170.436 14.7917C171.399 14.6345 172.294 14.9907 173.214 14.9698C173.873 14.8906 174.414 15.3667 174.448 16.008C174.589 16.4876 174.659 16.6028 174.626 17.1674C174.585 18.0066 174.707 19.138 174.577 19.9528L174.553 19.9865C173.951 20.4789 172.992 20.0889 172.202 20.2577C171.208 20.3858 170.138 20.3136 169.068 20.2077C167.548 20.0307 167.895 21.4031 167.969 22.3936C168.098 23.7066 168.188 24.774 167.981 26.1032C167.946 26.4303 167.863 26.8168 167.995 27.1147C168.158 27.3708 168.482 27.5629 168.744 27.6246C169.156 27.6269 170.966 27.6246 172.634 27.6246C173.612 27.6222 174.337 27.6269 175.16 27.6246C175.693 27.6246 175.658 27.585 176.122 27.9004C176.215 27.9679 176.274 28.0413 176.329 28.1379C176.671 28.7967 176.647 29.5416 176.634 30.325C176.623 30.9931 176.675 31.2713 176.152 31.6158C175.406 32.1687 174.471 31.9115 173.499 31.9359C170.472 31.7322 167.188 31.567 164.021 31.8754C163.521 31.9161 163 31.9452 162.507 31.8684C162.144 31.7544 161.707 31.4319 161.635 31.0455C161.596 30.5974 161.599 29.2436 161.629 28.735C161.623 28.4324 161.958 28.2496 162.038 28.061C162.044 26.9681 162.032 15.3678 162.04 10.9983L162.042 11.0018ZM171.477 12.8024L171.434 12.8455C170.832 13.0469 170.478 12.5138 170.063 12.1285C169.633 12.0144 169.265 11.6163 169.055 11.2869C168.914 11.032 168.793 10.613 168.955 10.3499C169.214 10.1905 169.429 10.5455 169.608 10.6945C170.212 11.2194 170.923 11.7071 171.385 12.2938C171.498 12.4265 171.537 12.636 171.475 12.8013L171.477 12.8024ZM173.832 25.6074L173.793 25.6423C173.121 25.7017 172.724 24.8659 172.179 24.6017C172.04 24.5121 171.83 24.5365 171.724 24.4422C171.556 24.0884 171.375 23.8323 170.964 23.6915C170.42 23.4808 169.615 23.149 169.71 22.4635C169.807 22.3168 169.979 22.3645 170.15 22.3447C170.279 22.3389 170.407 22.3273 170.512 22.3541C171.481 22.872 172.712 23.9138 173.512 24.8485C173.712 25.0685 173.961 25.3141 173.832 25.6085V25.6074Z" fill="var(--fill-0, white)"/>
<path id="Vector_3" d="M48.4861 2.95632C48.6286 3.04711 48.7817 3.09484 48.936 3.14256C49.5885 3.37419 49.8959 3.96666 49.7828 4.66621C50.1432 10.8446 49.6756 17.1092 49.7487 23.2783C49.7616 24.6273 49.499 25.9461 49.5814 27.2928C49.6203 28.061 49.572 28.998 49.5602 29.8163C49.3612 30.4158 49.1527 31.042 48.7723 31.5774C48.6251 31.7718 48.4296 31.9464 48.267 32.1117C47.9785 32.3759 47.9208 32.9486 48.075 33.3222C48.2105 33.5865 48.5179 33.725 48.7746 33.8623C51.0572 34.6911 52.4646 36.7001 54.19 38.2785C54.4315 38.46 54.7106 38.5206 55.0168 38.5206C55.8636 38.5322 56.7705 38.4414 57.6114 38.4566C59.3357 38.687 61.0623 38.2761 62.7948 38.2878C65.4424 38.5089 68.1831 37.9025 70.8389 38.055C71.1322 38.0503 71.3265 38.1667 71.5374 38.1737C71.9873 38.1912 72.3406 37.6627 72.2475 37.2169C72.1557 35.3813 72.5632 33.4212 72.1757 31.674C72.0815 31.3854 72.0803 31.0606 72.158 30.765C72.2593 30.3378 72.1604 29.9455 71.9943 29.6371C71.548 28.8979 70.5928 28.5639 70.0086 28.0145C69.7471 27.6897 68.421 26.8493 69.2914 26.5677C69.7825 26.4897 70.6069 26.1707 70.8378 25.7622C71.2476 24.1256 70.3702 22.3727 70.2807 20.7408C70.2677 20.3276 70.2347 19.8166 70.3125 19.4755C70.3749 19.1589 70.687 18.8691 70.8154 18.5886C70.9944 18.1451 70.6446 17.7319 70.329 17.4036C69.8673 16.9404 69.4256 16.824 69.0134 16.3596C68.7025 15.9941 67.4941 15.1851 68.1065 14.7765C68.3668 14.7242 69.0852 14.6706 69.8084 14.588C70.6634 14.446 71.3795 14.5449 71.661 14.297L71.6834 14.2632C71.9967 13.7383 71.9201 12.9014 71.8718 12.2821C71.7152 10.6025 71.4172 8.08948 71.787 6.34467C71.8554 5.94077 72.1451 5.57993 72.012 5.16672C71.8082 4.78843 71.4054 4.46484 71.0768 4.18549C70.7223 3.92243 70.21 3.8328 69.8202 3.57672C68.8886 2.99706 68.0288 1.89128 67.1113 0.986869C66.6791 0.544557 66.5095 0.330384 65.8935 0.396731C65.3164 0.493342 64.6792 0.95195 64.0102 0.759893C62.4945 0.457258 60.8974 0.456094 59.3993 0.504981C56.9554 0.805288 54.3266 0.699366 51.8086 0.741269C51.0795 0.782009 50.3811 0.79714 49.7039 0.962426C49.3223 1.09628 48.9749 1.21617 48.5462 1.17893C48.174 1.1475 47.8089 1.44781 47.7194 1.8133C47.5804 2.26725 48.0868 2.68512 48.4896 2.95516L48.4861 2.95632ZM55.0239 36.5302C54.3608 36.0238 53.7378 35.1252 53.1076 34.6352C52.9204 34.5107 52.7272 34.5502 52.5765 34.3C52.5553 34.2453 52.6259 33.6156 52.6742 33.6458C52.8403 33.8018 53.1595 34.0474 53.3079 34.2464C53.3715 34.3384 53.3432 34.5095 53.355 34.563L53.3774 34.5852C53.4516 34.5945 53.6588 34.57 53.7201 34.6434C54.2666 35.1066 54.7471 35.6886 55.2535 36.2043C55.422 36.4161 55.3007 36.6792 55.0239 36.5302ZM58.715 34.7132C58.6808 34.8692 58.6973 34.9669 58.6302 34.9809C58.5442 34.9891 58.4394 34.9937 58.3534 34.996C58.258 35.003 58.1438 35.0042 58.0484 34.9984C57.6126 34.9565 57.2416 34.3908 56.7693 34.6434C56.5938 34.7504 56.5738 34.8098 56.3889 34.9669C56.2817 35.0112 56.0815 35.0007 55.9567 34.9553C55.5386 34.6899 54.1841 33.9066 55.4102 33.6423C55.6669 33.6156 56.0438 33.5492 56.2488 33.6796C56.3406 33.7669 56.4301 33.8518 56.5644 33.8356C57.0555 33.8658 58.0401 33.3211 58.6008 33.8006C58.675 33.8309 58.7633 33.8321 58.8116 33.8321L58.8481 33.8356C58.8528 34.0497 58.7433 34.4711 58.715 34.7132ZM61.6005 35.1834C61.0988 35.1427 60.7408 34.5561 60.2131 34.5945C60.1377 34.5991 60.1142 34.5968 60.0883 34.5537C59.9575 34.4071 59.5194 33.9182 59.4499 33.8402C59.7656 33.8134 60.1401 33.7622 60.4228 33.9182C60.7961 34.1417 61.2849 34.7702 61.6123 35.1718L61.6005 35.1834ZM66.7179 36.8724L66.6885 36.9061C66.4306 36.955 66.0702 36.9795 65.8099 36.9154C65.4931 36.7932 64.9313 36.1856 64.5226 35.805C64.3518 35.5967 64.1704 35.6071 63.949 35.4721C63.485 35.0787 63.0315 34.5048 62.4403 34.4222C62.2518 34.3954 62.1882 34.2511 62.0905 34.0905C61.6865 33.5364 63.1999 33.59 63.4178 33.6249C63.6734 33.6516 64.015 34.0462 64.2741 34.2104C64.6168 34.4222 65.1491 34.5526 65.4012 34.9215C65.486 35.0438 65.526 35.2056 65.6332 35.3161C66.1561 35.7119 66.8369 36.1658 66.7179 36.8724ZM67.3221 17.6027C67.2856 17.9181 67.0983 18.1754 66.7697 18.1032C66.5483 18.0578 66.4258 17.8564 66.2386 17.7587C66.0054 17.7144 65.7474 17.5072 65.6379 17.2872C65.5119 17.0731 65.453 16.8356 65.3765 16.5865C65.3199 16.4329 65.3258 16.4236 65.4247 16.2781C65.5107 16.1372 65.6179 15.965 65.6238 15.9545L65.6532 15.9452C66.4812 15.8393 67.2844 16.2688 67.5011 17.1301C67.5141 17.2838 67.3327 17.3897 67.3198 17.6015L67.3221 17.6027ZM64.3801 24.4853C64.28 24.1617 63.8147 23.901 63.7723 23.546L63.7782 23.5215C64.1563 23.3912 65.2233 24.4236 65.6297 24.7286C66.2975 25.1755 66.4188 25.7913 65.4518 25.8588C63.8736 25.9845 64.552 25.2931 64.3789 24.4853H64.3801ZM69.8414 29.6289C69.9179 29.9735 69.8508 30.7394 69.8685 31.1095L69.8602 31.1142C69.5787 31.0013 69.2313 30.6032 68.918 30.5264C68.8379 30.517 68.7366 30.5427 68.6554 30.5287C68.5494 30.5194 68.4846 30.3948 68.3833 30.3553C68.2902 30.325 68.1477 30.3192 68.05 30.2028C67.8415 29.9886 67.9452 29.7674 67.9051 29.5277C67.8651 29.3857 67.7261 29.3147 67.6955 29.1657C67.6554 28.934 67.7426 28.735 67.8168 28.5278C67.8651 28.4265 67.8627 28.2717 67.9369 28.2193C68.7578 28.217 69.2914 29.1529 69.8425 29.6289H69.8414ZM68.1678 18.265C68.408 18.2813 68.6224 18.5071 68.8626 18.4768L68.8874 18.4803C68.8874 18.6386 68.8874 19.0344 68.8874 19.2264C68.8768 19.3929 68.9145 19.4604 68.852 19.4499H68.3798C68.1525 19.4464 68.2208 19.4813 68.1018 19.3207C68.0323 19.2253 67.9334 19.0879 67.8521 18.975C67.7449 18.8121 67.6908 18.7993 67.7002 18.6968C67.7343 18.4838 67.9098 18.2405 68.1689 18.265H68.1678ZM69.6588 9.35123C69.0393 8.87982 67.9958 8.15233 67.2668 7.52145C67.0654 7.33172 66.9405 7.22464 66.9017 7.08612C66.8628 6.93714 66.8604 6.72296 66.7709 6.5763C66.7085 6.50064 66.6308 6.41451 66.5589 6.347C66.4953 6.27599 66.599 6.18637 66.6779 6.02923C66.791 5.84649 66.8675 5.67771 66.9099 5.65327L66.95 5.6393C67.1349 5.59157 67.2962 5.74056 67.4246 5.85929C67.6719 6.05484 68.2938 6.6345 68.8862 7.213C69.3408 7.69489 69.7907 8.0336 70.1017 8.53295C70.3078 8.98225 70.296 9.46996 69.6588 9.35123ZM66.5283 3.92592C66.5307 3.81883 66.5154 3.73619 66.6013 3.7164C66.685 3.69196 66.8475 3.72688 66.8863 3.67799C66.9488 3.62678 66.8746 3.3998 66.9676 3.33694C67.0501 3.27176 67.2456 3.28224 67.3586 3.29737C67.8262 3.37536 68.0359 3.81534 68.3857 4.08771C68.9828 4.56262 69.8543 4.85128 70.1912 5.66956C70.2866 5.88141 70.3372 6.15378 70.1464 6.31906C70.031 6.40752 69.8555 6.37493 69.6765 6.34118C69.196 6.26435 69.1029 6.24573 68.6895 5.88141C68.3008 5.5939 68.017 5.21794 67.5212 5.25402C67.361 5.25053 67.0854 5.30407 66.957 5.25751L66.9358 5.22143C66.9217 5.17603 66.9335 5.09455 66.9017 5.01773C66.831 4.82335 66.5318 4.70462 66.5154 4.51955C66.4871 4.35543 66.5236 4.12962 66.5295 3.92708L66.5283 3.92592ZM66.2268 12.2623C66.3081 12.3299 66.3564 12.3659 66.3776 12.4276C66.4376 12.6325 66.7274 13.502 66.7403 13.6032C66.6202 13.6254 66.3469 13.3623 66.2504 13.2575C66.0607 13.0678 66.089 12.9165 65.8558 12.7745C64.8665 12.2169 63.8666 11.4895 63.2011 10.5967C63.6334 9.96814 64.5308 10.4652 65.1091 10.5164L65.1291 10.5559C65.1091 10.7399 65.1362 10.9971 65.3093 11.1251C65.6791 11.4464 65.8311 11.9527 66.2268 12.2635V12.2623ZM51.5836 11.0018C51.7662 9.48043 52.0229 7.01629 51.6201 5.35529C51.5247 5.04101 51.2432 4.87573 51.1891 4.56029C51.1208 3.99343 51.1196 3.39631 51.5283 2.96564C51.7096 2.63856 52.3315 2.80151 52.4033 2.38481C52.421 2.34058 52.4446 2.30682 52.4787 2.29285C52.951 2.17296 55.1487 2.28005 57.0602 2.33476C58.4406 2.33359 59.2367 2.5175 60.3274 2.16715C60.4828 2.16133 60.6442 2.15201 60.7985 2.1846C61.5581 2.33825 62.2978 2.18693 62.8796 2.29984C63.2035 2.37899 63.4202 2.7084 63.7747 2.71189C64.2776 2.6921 64.7711 2.76194 65.1327 3.11346C65.2622 3.2415 65.3117 3.34276 65.3447 3.48593C65.3117 4.06676 65.4318 7.41437 65.2999 8.07551C64.9089 8.5283 64.0998 8.29783 63.5391 8.3665C61.4215 8.33275 59.1355 7.86716 57.0237 7.99054C56.5055 8.079 56.0909 8.60395 56.0921 9.10214C56.0898 9.62477 56.7964 9.93671 56.8306 10.4605C56.8541 10.5804 56.8624 10.7119 56.8683 10.833C56.8577 11.2706 57.0991 11.5931 57.1038 12.04C57.1132 12.6011 56.9837 13.1947 56.7929 13.7068C56.7045 13.9641 56.7175 14.2248 56.8388 14.4727C57.0838 14.9721 57.6185 15.2142 58.1591 15.1909C58.808 15.2363 59.3451 14.9244 59.9776 14.7917C60.941 14.6345 61.8361 14.9907 62.7559 14.9698C63.4155 14.8906 63.9561 15.3667 63.9902 16.008C64.1316 16.4876 64.201 16.6028 64.1681 17.1674C64.1268 18.0066 64.2493 19.138 64.1186 19.9528L64.095 19.9865C63.4932 20.4789 62.5345 20.0889 61.7442 20.2577C60.7502 20.3858 59.6796 20.3136 58.6102 20.2077C57.0897 20.0307 57.4371 21.4031 57.5113 22.3936C57.6397 23.7066 57.7304 24.774 57.5231 26.1032C57.4878 26.4303 57.4053 26.8168 57.5372 27.1147C57.6998 27.3708 58.0237 27.5629 58.2863 27.6246C58.6985 27.6269 60.5076 27.6246 62.1765 27.6246C63.154 27.6222 63.8795 27.6269 64.7016 27.6246C65.2351 27.6246 65.1998 27.585 65.6638 27.9004C65.7569 27.9679 65.8158 28.0413 65.8711 28.1379C66.2127 28.7967 66.1891 29.5416 66.1762 30.325C66.1656 30.9931 66.2174 31.2713 65.6944 31.6158C64.9477 32.1687 64.0126 31.9115 63.0409 31.9359C60.0141 31.7322 56.7305 31.567 53.5634 31.8754C53.0629 31.9161 52.5423 31.9452 52.0488 31.8684C51.6861 31.7544 51.2491 31.4319 51.1773 31.0455C51.1384 30.5974 51.1408 29.2436 51.1714 28.735C51.1655 28.4324 51.5 28.2496 51.5801 28.061C51.586 26.9681 51.5742 15.3678 51.5824 10.9983L51.5836 11.0018ZM61.0187 12.8024L60.9763 12.8455C60.3745 13.0469 60.02 12.5138 59.6054 12.1285C59.1755 12.0144 58.8069 11.6163 58.5972 11.2869C58.4559 11.032 58.3346 10.613 58.4971 10.3499C58.7562 10.1905 58.9706 10.5455 59.1496 10.6945C59.7538 11.2194 60.4652 11.7071 60.9268 12.2938C61.0399 12.4265 61.0788 12.636 61.0175 12.8013L61.0187 12.8024ZM63.3743 25.6074L63.3354 25.6423C62.6629 25.7017 62.266 24.8659 61.7207 24.6017C61.5817 24.5121 61.372 24.5365 61.266 24.4422C61.0976 24.0884 60.9174 23.8323 60.5064 23.6915C59.9623 23.4808 59.1567 23.149 59.2521 22.4635C59.3486 22.3168 59.5206 22.3645 59.6925 22.3447C59.8209 22.3389 59.9493 22.3273 60.0541 22.3541C61.0234 22.872 62.2542 23.9138 63.0539 24.8485C63.2541 25.0685 63.5026 25.3141 63.3743 25.6085V25.6074Z" fill="var(--fill-0, white)"/>
<path id="Vector_4" d="M80.2705 34.7365C81.2163 35.9575 82.2727 37.0016 83.2585 38.0899C83.4493 38.3157 83.4375 38.566 83.6578 38.644C83.8568 38.708 84.2844 38.7138 84.5223 38.6183C84.7437 38.5322 84.812 38.2587 84.9733 38.1376C85.2407 37.9374 85.6435 37.9246 85.9462 38.0527C86.4397 38.2517 87.3642 37.9293 87.9107 38.1597C88.0049 38.2098 88.0885 38.2668 88.1698 38.3343C88.3983 38.5427 88.5761 38.5287 88.9719 38.5578C89.7068 38.6055 90.9164 38.6428 91.7172 38.6661C94.2589 38.7743 96.7616 38.6498 99.3091 38.6789C99.5789 38.6835 99.8745 38.6114 100.043 38.4042C100.505 37.849 100.112 36.9376 100.351 36.2694C100.538 35.8225 100.435 35.2742 100.142 34.8901C99.9875 34.6585 99.8874 34.5072 99.858 34.3198C99.7532 33.4235 100.023 32.3713 99.6801 31.4703C99.5847 30.254 99.7944 28.9177 99.6448 27.7235L99.6189 27.6921C99.3845 27.5629 98.9723 27.7328 98.6955 27.734C97.8216 27.9342 97.38 27.0519 96.7534 26.6573C96.2352 26.3419 95.6863 25.9158 95.0998 25.7831C94.6416 25.5783 94.6204 24.966 94.5427 24.5109C94.5121 21.7022 94.6051 18.8784 94.5356 16.0709C94.4532 13.5276 93.9574 10.1195 94.472 7.6204C94.5368 7.22581 94.7076 6.94529 94.7276 6.52858C94.6193 5.91167 94.4944 5.25402 94.0127 4.81404C93.4651 4.3275 92.6371 4.65807 92.1542 4.13428C91.2532 3.41494 90.1284 2.05075 89.3464 1.18475C89.0543 0.920527 88.7057 0.366473 88.2334 0.37462C87.7953 0.407212 87.2653 0.137169 86.8048 0.215155C84.3868 0.666779 81.9524 0.326897 79.5168 0.378112C79.121 0.431655 78.571 0.435147 78.5557 0.85418C78.5604 1.26274 78.5121 1.84822 78.5781 2.16831C78.6629 2.38016 78.8607 2.51867 79.1116 2.77708C79.4473 3.08786 79.5486 3.27177 79.5309 3.66286C79.7853 10.7364 78.8996 18.8062 79.3095 25.6097C79.4602 26.5258 79.1422 27.4348 79.1387 28.2741C79.2117 28.82 79.0621 29.3088 78.9008 29.821C78.8513 30.325 78.551 30.6986 78.1517 31.0164C77.1553 31.7986 77.6406 32.3992 78.4603 33.0103C79.1399 33.5259 79.7558 34.087 80.2682 34.7353L80.2705 34.7365ZM84.3067 36.7024L84.2867 36.742C84.2149 36.7897 83.8757 36.9387 83.8121 36.9131C83.6625 36.8014 83.4693 36.5825 83.2927 36.4464C82.9912 36.1856 82.8699 36.0948 82.924 35.7817C82.8145 35.1823 82.0961 34.747 81.9488 34.1533C81.9465 33.9857 82.2244 33.7133 82.4235 33.8274C82.5589 33.8879 82.6779 34.016 82.7756 34.13C83.1996 34.6736 83.5612 35.3138 83.9923 35.8132C84.2007 36.0413 84.3727 36.4021 84.3079 36.7013L84.3067 36.7024ZM90.7727 36.9387C90.6561 36.9771 90.2615 37.118 90.1449 37.0935C89.8693 36.9888 89.5867 36.8968 89.3888 36.6582C88.5396 35.6688 87.3972 34.9949 86.5198 33.9636C86.3608 33.7168 86.5045 33.6528 86.7424 33.4852C86.9284 33.3606 87.0486 33.2477 87.1581 33.2256C87.2983 33.1826 87.5197 33.2349 87.6528 33.3234C87.8153 33.4328 88.0273 33.363 88.158 33.4491C88.2899 33.5376 88.4348 33.7401 88.5915 33.8484C89.3782 34.4059 89.8634 35.1264 90.5218 35.7887C90.6867 35.9912 90.7373 36.6896 90.7856 36.9201L90.7703 36.9399L90.7727 36.9387ZM95.1457 27.5955C95.631 27.4767 96.0196 27.7491 96.3906 27.9772C96.5697 28.1041 96.7393 28.1158 96.8582 28.2613C97.2822 28.728 97.8982 29.4054 98.3481 29.899C98.4458 30.0247 98.4812 29.9851 98.4376 30.1166C98.3881 30.2819 98.2786 30.6742 98.268 30.6928L98.2539 30.7021C98.0666 30.6684 97.7286 30.588 97.5295 30.5461C96.6391 30.2179 96.3471 28.8107 95.3789 28.5813C95.2093 28.5127 95.26 28.2473 95.1858 28.0215C95.1552 27.798 95.0668 27.6269 95.1469 27.5931L95.1457 27.5955ZM94.0857 33.2722C94.24 33.3932 94.6216 33.7669 94.9196 34.066C95.1033 34.2581 95.2447 34.3884 95.2871 34.4769C95.3389 34.5549 95.2918 34.8273 95.3177 34.925L95.3342 34.9541C95.8347 35.1311 96.5956 35.8504 96.8676 36.2322C96.9242 36.3509 96.89 36.6512 96.8747 36.8852C96.6721 37.4986 96.0938 36.8351 95.8524 36.5907C94.8372 35.7899 93.6629 34.9669 92.6489 34.1976C91.6489 33.4829 92.272 32.7915 93.5192 33.0138C93.7595 33.1116 93.7937 33.1826 94.0857 33.271V33.2722ZM89.8399 10.9203C89.9188 10.8376 90.079 10.8935 90.1638 10.9564C90.6207 11.3917 91.0306 11.7467 91.57 12.267C92.0541 12.8234 92.9256 13.3483 92.7407 14.1561L92.7019 14.1946C92.4899 14.2749 92.239 14.1759 92.0859 14.013C91.6654 13.694 91.4417 13.2354 91.1248 12.8746C90.6596 12.3054 89.5384 11.7688 89.8422 10.9203H89.8399ZM89.6432 13.6405L89.675 13.6161C90.2144 14.0025 92.0635 15.8032 92.8067 16.4771C93.4957 17.2989 93.0599 18.5397 92.0941 17.5468C91.0977 16.7181 90.4088 16.1186 89.7527 14.9965C89.4606 14.5891 89.1745 14.0176 89.6432 13.6417V13.6405ZM89.9435 18.2813C89.7539 18.0822 89.3605 17.6178 89.6279 17.3129C89.8046 17.385 90.2262 17.5992 90.3946 17.7866C91.0235 18.4664 91.7149 19.0681 92.4027 19.5919C92.9633 19.9272 93.0458 20.579 92.9398 21.1586L92.9033 21.1971C92.769 21.2052 92.5382 21.2669 92.431 21.1819C92.3744 21.0993 92.4015 21.0108 92.3532 20.913C91.9881 20.2822 90.1897 19.1822 90.0071 18.7748C89.9565 18.6398 90.0413 18.3767 89.9435 18.2813ZM89.7021 20.3893C90.0012 20.4963 90.344 20.7594 90.5395 21.0038C90.6596 21.1051 90.5253 21.3798 90.6137 21.5241C90.7833 21.7569 91.4888 21.8582 91.3804 22.3238L91.3722 22.3517C91.0389 22.2505 90.4947 22.0852 90.1485 21.9804C90.0224 21.9315 89.9153 21.8012 89.8081 21.6883C89.5466 21.5032 89.0378 20.139 89.7009 20.3893H89.7021ZM80.7864 29.1436C81.0031 27.287 80.7193 25.3094 80.9454 23.4307C81.2422 20.9957 81.1786 17.8238 81.1433 15.2352C81.1586 11.7095 81.1138 6.12934 81.1574 2.64438C81.314 2.47328 81.5354 2.14736 81.7946 2.14503C82.5695 2.18345 86.3572 2.06705 86.7671 2.19159L86.7954 2.21836C86.9108 2.35106 87.2029 2.71538 87.2111 2.99474C87.2146 3.29854 87.038 3.59652 87.0403 3.9492C87.0297 4.25417 87.0592 4.57892 87.0462 4.88388C86.753 8.26291 87.5374 11.7467 87.0651 15.17C87.0203 15.5436 87.0203 15.9405 87.0651 16.3142C87.3996 18.7178 87.0863 21.2844 87.2358 23.6507C87.3454 24.6518 86.7459 26.1347 88.2228 26.3023C88.4054 26.3232 88.6091 26.265 88.88 26.2255C89.3429 26.1894 89.7963 26.3186 90.2415 26.3872C91.0671 26.5781 92.6866 26.0602 92.9763 27.1671C93.0116 27.8003 93.0104 29.6487 92.9728 30.2098C92.9633 30.4507 92.756 30.6183 92.5935 30.7871C92.0918 31.2061 91.4923 31.3249 90.861 31.2899C90.0931 31.276 89.1568 31.3248 88.3759 31.2632C86.3502 31.475 83.9569 31.6729 81.8782 31.3516C81.5614 31.2969 81.2057 31.2073 81.0161 30.9466C80.7204 30.4263 80.7193 29.7314 80.7864 29.1401V29.1436Z" fill="var(--fill-0, white)"/>
<path id="Vector_5" d="M106.419 34.7365C107.365 35.9575 108.421 37.0016 109.407 38.0899C109.598 38.3157 109.586 38.566 109.806 38.644C110.005 38.708 110.433 38.7138 110.671 38.6183C110.892 38.5322 110.961 38.2587 111.122 38.1376C111.389 37.9374 111.792 37.9246 112.095 38.0527C112.588 38.2517 113.513 37.9293 114.059 38.1597C114.153 38.2098 114.237 38.2668 114.318 38.3343C114.547 38.5427 114.725 38.5287 115.12 38.5578C115.855 38.6055 117.065 38.6428 117.866 38.6661C120.407 38.7743 122.91 38.6498 125.458 38.6789C125.727 38.6835 126.023 38.6114 126.191 38.4042C126.653 37.849 126.261 36.9376 126.5 36.2694C126.686 35.8225 126.584 35.2742 126.29 34.8901C126.136 34.6585 126.036 34.5072 126.007 34.3198C125.902 33.4235 126.171 32.3713 125.829 31.4703C125.733 30.254 125.943 28.9177 125.793 27.7235L125.767 27.6921C125.533 27.5629 125.121 27.7328 124.844 27.734C123.97 27.9342 123.529 27.0519 122.902 26.6573C122.384 26.3419 121.835 25.9158 121.248 25.7831C120.79 25.5783 120.769 24.966 120.691 24.5109C120.661 21.7022 120.754 18.8784 120.684 16.0709C120.602 13.5276 120.106 10.1195 120.621 7.6204C120.685 7.22581 120.856 6.94529 120.876 6.52858C120.768 5.91167 120.643 5.25402 120.161 4.81404C119.614 4.3275 118.786 4.65807 118.303 4.13428C117.402 3.41494 116.277 2.05075 115.495 1.18475C115.203 0.920527 114.854 0.366473 114.382 0.37462C113.944 0.407212 113.414 0.137169 112.953 0.215155C110.535 0.666779 108.101 0.326897 105.665 0.378112C105.27 0.431655 104.72 0.435147 104.704 0.85418C104.709 1.26274 104.661 1.84822 104.727 2.16831C104.811 2.38016 105.009 2.51867 105.26 2.77708C105.596 3.08786 105.697 3.27177 105.679 3.66286C105.934 10.7364 105.048 18.8062 105.458 25.6097C105.609 26.5258 105.291 27.4348 105.287 28.2741C105.36 28.82 105.211 29.3088 105.049 29.821C105 30.325 104.7 30.6986 104.3 31.0164C103.304 31.7986 103.789 32.3992 104.609 33.0103C105.288 33.5259 105.904 34.087 106.417 34.7353L106.419 34.7365ZM110.455 36.7024L110.435 36.742C110.363 36.7897 110.024 36.9387 109.961 36.9131C109.811 36.8014 109.618 36.5825 109.441 36.4464C109.14 36.1856 109.018 36.0948 109.073 35.7817C108.963 35.1823 108.245 34.747 108.097 34.1533C108.095 33.9857 108.373 33.7133 108.572 33.8274C108.707 33.8879 108.826 34.016 108.924 34.13C109.348 34.6736 109.71 35.3138 110.141 35.8132C110.349 36.0413 110.521 36.4021 110.456 36.7013L110.455 36.7024ZM116.921 36.9387C116.805 36.9771 116.41 37.118 116.293 37.0935C116.018 36.9888 115.735 36.8968 115.537 36.6582C114.688 35.6688 113.546 34.9949 112.668 33.9636C112.509 33.7168 112.653 33.6528 112.891 33.4852C113.077 33.3606 113.197 33.2477 113.307 33.2256C113.447 33.1826 113.668 33.2349 113.801 33.3234C113.964 33.4328 114.176 33.363 114.307 33.4491C114.439 33.5376 114.583 33.7401 114.74 33.8484C115.527 34.4059 116.012 35.1264 116.67 35.7887C116.835 35.9912 116.886 36.6896 116.934 36.9201L116.919 36.9399L116.921 36.9387ZM121.294 27.5955C121.78 27.4767 122.168 27.7491 122.539 27.9772C122.718 28.1041 122.888 28.1158 123.007 28.2613C123.431 28.728 124.047 29.4054 124.497 29.899C124.594 30.0247 124.63 29.9851 124.586 30.1166C124.537 30.2819 124.427 30.6742 124.417 30.6928L124.402 30.7021C124.215 30.6684 123.877 30.588 123.678 30.5461C122.788 30.2179 122.496 28.8107 121.527 28.5813C121.358 28.5127 121.409 28.2473 121.334 28.0215C121.304 27.798 121.215 27.6269 121.295 27.5931L121.294 27.5955ZM120.234 33.2722C120.389 33.3932 120.77 33.7669 121.068 34.066C121.252 34.2581 121.393 34.3884 121.436 34.4769C121.487 34.5549 121.44 34.8273 121.466 34.925L121.483 34.9541C121.983 35.1311 122.744 35.8504 123.016 36.2322C123.073 36.3509 123.039 36.6512 123.023 36.8852C122.821 37.4986 122.242 36.8351 122.001 36.5907C120.986 35.7899 119.811 34.9669 118.797 34.1976C117.797 33.4829 118.421 32.7915 119.668 33.0138C119.908 33.1116 119.942 33.1826 120.234 33.271V33.2722ZM115.988 10.9203C116.067 10.8376 116.228 10.8935 116.312 10.9564C116.769 11.3917 117.179 11.7467 117.719 12.267C118.203 12.8234 119.074 13.3483 118.889 14.1561L118.85 14.1946C118.638 14.2749 118.388 14.1759 118.234 14.013C117.814 13.694 117.59 13.2354 117.273 12.8746C116.808 12.3054 115.687 11.7688 115.991 10.9203H115.988ZM115.792 13.6405L115.824 13.6161C116.363 14.0025 118.212 15.8032 118.955 16.4771C119.644 17.2989 119.208 18.5397 118.243 17.5468C117.246 16.7181 116.557 16.1186 115.901 14.9965C115.609 14.5891 115.323 14.0176 115.792 13.6417V13.6405ZM116.092 18.2813C115.902 18.0822 115.509 17.6178 115.776 17.3129C115.953 17.385 116.375 17.5992 116.543 17.7866C117.172 18.4664 117.863 19.0681 118.551 19.5919C119.112 19.9272 119.194 20.579 119.088 21.1586L119.052 21.1971C118.918 21.2052 118.687 21.2669 118.58 21.1819C118.523 21.0993 118.55 21.0108 118.502 20.913C118.137 20.2822 116.338 19.1822 116.156 18.7748C116.105 18.6398 116.19 18.3767 116.092 18.2813ZM115.851 20.3893C116.15 20.4963 116.493 20.7594 116.688 21.0038C116.808 21.1051 116.674 21.3798 116.762 21.5241C116.932 21.7569 117.637 21.8582 117.529 22.3238L117.521 22.3517C117.187 22.2505 116.643 22.0852 116.297 21.9804C116.171 21.9315 116.064 21.8012 115.957 21.6883C115.695 21.5032 115.186 20.139 115.849 20.3893H115.851ZM106.935 29.1436C107.152 27.287 106.868 25.3094 107.094 23.4307C107.391 20.9957 107.327 17.8238 107.292 15.2352C107.307 11.7095 107.262 6.12934 107.306 2.64438C107.463 2.47328 107.684 2.14736 107.943 2.14503C108.718 2.18345 112.506 2.06705 112.916 2.19159L112.944 2.21836C113.059 2.35106 113.351 2.71538 113.36 2.99474C113.363 3.29854 113.187 3.59652 113.189 3.9492C113.178 4.25417 113.208 4.57892 113.195 4.88388C112.902 8.26291 113.686 11.7467 113.214 15.17C113.169 15.5436 113.169 15.9405 113.214 16.3142C113.548 18.7178 113.235 21.2844 113.384 23.6507C113.494 24.6518 112.894 26.1347 114.371 26.3023C114.554 26.3232 114.758 26.265 115.029 26.2255C115.491 26.1894 115.945 26.3186 116.39 26.3872C117.216 26.5781 118.835 26.0602 119.125 27.1671C119.16 27.8003 119.159 29.6487 119.121 30.2098C119.112 30.4507 118.905 30.6183 118.742 30.7871C118.24 31.2061 117.641 31.3249 117.01 31.2899C116.242 31.276 115.305 31.3248 114.524 31.2632C112.499 31.475 110.105 31.6729 108.027 31.3516C107.71 31.2969 107.354 31.2073 107.165 30.9466C106.869 30.4263 106.868 29.7314 106.935 29.1401V29.1436Z" fill="var(--fill-0, white)"/>
<g id="Group_2">
<path id="Vector_6" d="M129.876 17.3453C129.839 17.7259 129.662 18.0134 129.649 18.3987C129.513 22.5366 129.773 26.763 129.675 30.9114C129.68 31.3281 129.45 31.6867 129.27 32.051C129.006 32.6085 128.945 33.3651 129.53 33.7469C130.374 34.2637 131.025 34.8143 131.726 35.5941C132.402 36.2378 133.169 36.8326 133.613 37.3727C133.796 37.6264 134.046 37.8173 134.349 37.9081C134.591 37.9896 134.763 38.2061 135.013 38.2794C135.504 38.3702 136.174 38.2969 136.705 38.248C140.14 37.9407 143.87 38.1013 147.27 37.7079C148.066 37.5799 148.792 37.1911 149.527 36.899C151.049 36.3426 152.065 35.9457 153.356 34.9481C153.821 34.571 154.275 34.0344 154.758 33.7527L154.792 33.7097C154.863 33.6212 154.892 33.4699 154.922 33.3546C155.16 32.2221 156.094 31.306 156.306 30.156C156.511 29.7638 156.709 29.4704 156.685 29.006C156.692 27.6302 156.691 25.9226 156.258 24.7924C156.203 24.4758 156.261 24.1883 156.107 23.9031C155.455 22.5692 154.712 21.148 153.564 20.1679C153.085 19.8245 152.9 19.0179 153.222 18.5511C153.386 18.3253 153.751 17.9773 153.916 17.7073C154.022 17.535 154.057 17.3674 154.089 17.1765C154.196 16.3256 154.827 15.441 154.852 14.5994C154.852 14.3864 154.771 14.2072 154.713 14.0105C154.599 13.6601 154.689 13.248 154.678 12.8884C154.715 12.4402 154.294 12.2249 154.224 11.8187C154.147 11.3717 154.156 10.7781 154.001 10.3823C153.803 9.88182 153.414 9.20322 153.141 8.69223C152.729 7.6528 151.735 7.05102 151.072 6.15243C150.274 5.19563 149.305 5.10601 148.389 4.40762C147.146 3.53929 146.323 2.46494 144.767 1.94929C143.998 1.69089 143.233 1.59544 142.42 1.45344C141.011 1.12985 139.42 1.3254 137.95 1.30678C136.717 1.25091 135.461 1.03557 134.181 1.067C133.842 1.07165 133.544 1.22995 133.24 1.28466C132.649 1.32889 131.576 1.36614 131.204 1.2672C130.683 1.01229 130.136 0.123009 129.602 0.899384C128.632 2.24494 129.214 2.9573 129.575 4.32381C130.331 8.6189 129.983 12.9955 129.876 17.3441V17.3453ZM148.356 35.6058C147.663 34.9237 147.077 33.7027 146.051 33.4361L146.023 33.4536C145.951 33.7609 145.954 34.1543 146.053 34.4604C146.144 34.7968 146.292 35.0308 146.475 35.3299C146.566 35.4789 146.607 35.6896 146.388 35.6954C146.108 35.643 145.914 35.309 145.666 35.1565C145.243 34.8096 143.529 33.7841 144.515 33.3034C144.797 33.0986 145.13 33.1742 145.468 33.1894C145.971 33.279 146.176 32.8634 146.555 32.6667C147.374 32.42 147.726 33.5525 148.392 33.7772C148.609 33.8656 148.701 34.0728 148.789 34.2719C148.92 34.4977 149.273 34.8084 149.342 35.1507C149.482 35.6966 148.79 35.9096 148.357 35.6069L148.356 35.6058ZM152.674 33.2871C152.581 33.6014 151.879 33.6736 151.716 33.5316C151.44 33.3279 151.04 32.4933 150.71 32.2745C150.588 32.1674 150.378 32.2593 150.223 32.2C150.111 32.1348 150.029 32.0009 149.875 32.0149C149.714 32.0149 149.472 32.0312 149.366 32.03L149.329 32.0417C149.291 32.0615 149.235 32.1569 149.154 32.2558C148.938 32.5992 148.885 32.1488 148.926 31.9916C149.041 31.6541 149.512 31.4341 149.743 31.1477C149.869 30.9743 150.234 31.0802 150.426 31.0535C150.966 31.0744 151.224 31.9788 151.787 32.0475C152.094 32.2535 152.796 32.8565 152.672 33.2895L152.674 33.2871ZM153.291 31.4201C152.876 31.5284 152.788 31.2886 152.453 31.0185C152.039 30.7054 151.643 30.0245 151.105 30.0769L151.078 30.0652C151.054 30.0396 151.035 29.9244 150.995 29.7754C150.965 29.5927 150.859 29.425 150.923 29.3668C151.012 29.3052 151.299 29.105 151.398 29.1166C151.486 29.1282 151.614 29.2179 151.711 29.2877C151.933 29.4483 152.112 29.666 152.328 29.8278C152.447 29.8999 152.595 29.8662 152.717 29.9931C153.07 30.3097 153.265 30.6333 153.491 31.0185C153.732 31.4096 153.719 31.3619 153.29 31.4201H153.291ZM151.323 22.3143C151.42 22.2898 151.611 22.298 151.755 22.3178C152.265 22.3795 152.835 22.7147 152.874 23.2583L152.854 23.2804C152.546 23.2478 152.111 23.3374 151.806 23.2804C151.729 23.2641 151.692 23.1617 151.571 23.1023C151.489 23.0429 151.303 23.1023 151.3 23.0546V22.4831C151.307 22.3841 151.283 22.3283 151.323 22.3143ZM153.414 25.7399L153.39 25.7632C152.9 25.7888 152.141 25.7934 152.148 26.4534C152.285 26.7933 152.669 27.0959 153.006 27.2228C153.431 27.5254 153.841 27.9642 154.261 28.3553C154.642 28.7301 155.142 29.1888 154.961 29.7347C154.79 30.0024 154.371 29.9337 154.181 29.7149C153.287 28.8174 151.735 28.2227 151.316 26.9877C151.342 26.7758 151.609 26.2194 151.635 25.9296C151.544 25.6607 151.402 25.379 151.472 24.9914C151.664 23.6191 153.324 25.0799 153.414 25.7387V25.7399ZM150.509 11.2448C150.549 11.2251 151.134 11.3787 151.372 11.4229C151.482 11.5288 153.141 12.3588 152.888 12.7848L152.853 12.8011C152.427 12.9082 152.088 12.5345 151.733 12.382C151.584 12.3285 151.359 12.2819 151.206 12.2098C151.078 12.1295 150.637 11.7046 150.512 11.4299C150.472 11.3496 150.479 11.2681 150.509 11.246V11.2448ZM149.278 14.859C149.419 14.6984 149.611 14.6716 149.799 14.7554C150.232 15.0383 150.79 15.6005 151.092 16.0626L151.073 16.0812C150.678 16.0672 150.212 16.0381 149.903 16.3803C149.817 16.4734 149.752 16.5223 149.754 16.6271C149.856 16.8296 150.476 17.9179 150.504 18.0262C150.485 18.032 150.449 18.0436 150.431 18.0483C149.927 18.0774 149.594 17.5827 149.178 17.3662C149.055 17.2836 148.864 17.294 148.768 17.2265C148.686 17.109 148.531 16.6073 148.515 16.4397C148.471 16.1173 148.746 15.9217 148.895 15.6552C148.962 15.5551 148.922 15.4165 148.928 15.2885C148.954 15.1127 149.151 15.001 149.278 14.859ZM131.444 3.3903C131.557 3.26576 131.86 3.05624 132.134 2.93751L132.197 2.91889C134.252 2.89095 136.373 2.82344 138.427 2.87C138.794 2.90143 139.112 3.08068 139.551 3.1028C141.705 3.19359 143.467 3.30533 145.382 4.15736C146.595 4.79639 147.845 5.97783 148.401 7.12784C148.544 7.49449 148.606 7.81808 148.723 8.18474C148.795 8.48504 148.693 8.85635 148.805 9.16364C149.074 9.7305 148.951 10.4103 148.759 10.976C148.765 12.5962 147.73 14.2351 146.746 15.4794C146.566 15.6866 146.371 15.7075 146.053 15.7064C145.456 15.6563 145.154 16.3535 145.069 16.8366C145.071 17.1881 145.49 17.67 145.744 17.89C145.999 18.0751 146.317 18.032 146.645 18.1961C148.422 19.0074 149.22 21.077 149.781 22.8567C149.969 23.8007 150.051 25.3569 149.912 26.2788C149.842 26.6443 149.655 27.0482 149.563 27.3986C149.452 27.8292 149.441 28.3076 149.23 28.701C149.035 29.1015 148.84 29.531 148.508 29.8464C148.098 30.2794 147.489 30.4051 147.089 30.8463C146.523 31.3957 145.615 31.2967 144.905 31.448C142.084 32.0836 139.321 32.4619 136.33 31.9858C135.291 31.9369 133.933 32.2256 132.858 31.8415C132.318 31.8228 131.716 31.8205 131.442 31.3153C131.433 30.809 131.449 9.18576 131.442 3.38797L131.444 3.3903Z" fill="var(--fill-0, white)"/>
<path id="Vector_7" d="M137.49 25.094C137.398 25.449 137.184 25.6411 137.152 25.9902C137.122 26.3162 137.265 26.762 137.585 26.9121C137.928 26.9901 138.191 27.1531 138.582 27.1891C138.929 27.2136 139.18 27.0111 139.503 26.9226C140.164 26.7771 140.892 26.7247 141.405 26.2347C141.512 26.1695 141.636 26.1206 141.753 26.0729C142.237 25.9064 142.482 25.4583 142.765 25.0847C143.006 24.7855 143.082 24.7192 143.024 24.2862C142.982 23.7147 142.922 22.8545 142.877 22.2609C142.869 22.0839 142.811 21.9582 142.72 21.8057C142.4 21.2889 142.208 20.5789 141.59 20.324C141.082 20.0365 140.651 19.4929 140.018 19.4231C139.735 19.3358 139.573 19.1879 139.294 19.174C138.883 19.1554 138.009 19.1274 137.652 19.2124L137.602 19.231C137.401 19.3206 137.155 19.4778 137.035 19.6617C136.92 19.8444 136.947 20.0633 136.935 20.2716C136.92 21.5927 137.376 23.0535 137.525 24.363C137.545 24.5993 137.551 24.8682 137.489 25.094H137.49Z" fill="var(--fill-0, white)"/>
<path id="Vector_8" d="M137.704 12.3786C137.796 12.9734 137.599 13.6904 137.782 14.2468C137.916 14.4237 138.202 14.5203 138.405 14.6402C138.73 14.8078 138.918 14.9277 139.039 14.9405C139.445 14.9405 140.395 14.8276 140.886 14.7904C141.036 14.7764 141.146 14.7764 141.255 14.6903C141.455 14.4947 142.196 13.8091 142.368 13.5717C142.484 13.3028 142.585 12.8477 142.685 12.5765C142.745 12.0981 142.733 11.4428 142.713 10.9434C142.713 10.6047 142.505 10.3626 142.378 10.0495C142.107 9.44072 141.885 8.7982 141.647 8.2069L141.611 8.16849C141.33 8.01135 140.959 7.73549 140.744 7.45031C140.274 6.8951 139.513 6.91256 138.841 6.93933C138.562 6.93933 138.295 6.7333 137.994 6.75775C137.768 6.80314 137.564 6.93584 137.44 7.13022C137.346 7.27805 137.325 7.47359 137.4 7.63422C137.873 8.99492 137.556 10.9492 137.705 12.3809L137.704 12.3786Z" fill="var(--fill-0, white)"/>
</g>
</g>
</svg>
