<svg preserveAspectRatio="none" width="100%" height="100%" overflow="visible" style="display: block;" viewBox="0 0 212.201 80.7342" fill="none" xmlns="http://www.w3.org/2000/svg">
<g id="Group">
<path id="Vector" d="M212.123 43.5696C211.975 40.9075 211.626 38.2332 211.5 35.5784C211.244 30.4587 212.084 23.8959 211.539 19.2287C211.129 17.394 212.252 14.8682 210.418 13.6904C209.836 13.3376 209.253 13.2743 208.803 12.8095C207.545 11.5783 204.227 7.59 203.491 6.40496C203.007 5.59952 203.557 4.35364 203.148 3.57254C202.617 2.76223 201.338 1.80836 200.234 1.79619C195.503 1.70372 190.628 2.05899 185.982 1.74996C184.717 1.70616 183.331 1.66722 182.103 1.58936C180.478 1.49932 177.124 0.720649 177.145 3.23917C177.238 4.16141 178.498 4.68702 178.766 5.6117C178.924 6.07403 179.08 6.5753 179.131 7.0644C179.221 8.27621 177.871 8.57794 177.143 7.74574C176.246 6.9184 174.595 6.0424 174.017 4.71622C173.652 3.84508 173.983 2.37533 172.833 1.94706C171.883 1.78159 171.116 1.35089 170.253 1.62099C169.474 1.80106 168.533 1.84486 167.736 1.72562C164.231 1.28032 160.362 0.567351 156.632 1.08322L156.503 1.12216C155.577 1.63316 154.091 1.13432 153.163 1.56016C152.271 2.09549 151.759 2.91553 152.402 3.90834C152.656 4.52155 153.119 4.87926 153.372 5.42919C153.694 6.58747 153.328 8.1594 153.438 9.34201C153.63 12.2645 154.015 15.8853 154.174 19.0511C154.481 27.142 153.757 36.031 154.751 43.37C154.773 46.1319 154.31 48.8232 155.08 51.3758C155.825 54.235 155.333 56.7389 156.61 59.4691C158.842 62.7103 160.091 66.1803 163.39 68.5528C164.65 69.5334 166.499 70.2756 167.975 71.1686C168.458 71.4314 168.757 71.8695 169.101 72.3245C170.677 74.4707 172.258 75.1934 174.794 75.9526C175.269 76.0986 175.686 76.2592 176.091 76.5464C179.085 78.7899 183.329 78.8045 186.912 79.4104C187.543 79.5515 188.209 79.8849 188.896 79.8387C189.717 79.756 190.345 79.4591 191.147 79.3253C194.667 78.6804 197.225 77.8287 200.1 76.0646C201.484 75.264 203.194 74.6775 204.429 73.8307C205.94 72.7065 207.545 71.2027 208.615 69.7378C209.039 69.1782 208.949 68.5942 209.263 67.9031C209.541 67.3264 210.052 66.628 210.347 66.0562C211.826 62.0606 212.269 56.3422 211.539 51.8941C211.441 51.5047 211.548 50.7139 211.716 50.271C212.36 48.244 212.206 45.7669 212.123 43.5744V43.5696ZM207.779 37.5567C207.957 37.6468 208.396 37.5348 208.466 37.7368C208.522 37.9582 208.537 38.8756 208.454 39.0898C208.391 39.2139 208.23 39.2212 208.013 39.2309C207.623 39.2382 207.263 39.3039 206.956 39.1652C206.181 38.7053 203.979 36.0602 202.934 35.0261C202.497 34.5443 202.081 34.2839 201.935 34.0576C201.762 33.6634 201.633 33.1791 201.457 32.6876C201.304 32.0549 200.977 31.8165 201.352 31.4417C201.762 31.0378 202.468 30.9186 202.98 31.1035C203.182 31.1984 203.423 31.4685 203.813 31.8384C205.411 33.4006 207.192 35.2329 207.706 37.4959L207.777 37.5519L207.779 37.5567ZM201.131 16.6737C200.916 16.3793 200.617 16.2917 200.721 15.8123C200.804 15.3062 201.143 14.6273 201.698 14.8974C202.166 15.131 202.856 15.8074 203.17 16.2698C203.216 16.4182 203.136 16.6421 203.282 16.7856C204.084 17.7468 205.134 18.7567 205.221 20.0828L205.165 20.1485C204.427 20.37 204.227 19.3991 203.667 19.3066C203.457 19.2969 203.167 19.365 203.012 19.3163C202.527 19.0049 201.918 18.2919 201.44 17.8223C201.391 17.7687 201.292 17.6592 201.243 17.6032C201.014 17.4159 201.245 16.917 201.133 16.6713L201.131 16.6737ZM200.407 9.67538C201.189 6.76753 203.971 11.2473 204.58 12.2766C205.626 13.8242 207.913 15.44 207.677 17.613L207.67 17.6738C205.838 15.8707 202.524 12.3934 200.514 10.3543C200.222 10.1183 200.393 9.98685 200.41 9.67538H200.407ZM173.252 8.75558L173.347 8.72395C174.166 8.55848 174.953 9.37121 175.623 9.75082C175.91 9.91872 176.125 9.93332 176.227 10.0428C176.817 10.6341 177.638 11.4542 178.234 12.0528C178.405 12.1817 178.393 12.3205 178.466 12.6855C178.729 13.6126 179.187 15.0701 178.191 15.6517C176.929 14.4131 174.573 11.7656 173.247 10.3762C172.928 10.0234 172.726 9.83843 172.68 9.74839C172.565 9.50993 173.048 8.79695 173.252 8.75558ZM175.564 42.0584C175.818 42.0901 176.159 41.949 176.259 42.2312C176.351 42.4502 176.746 42.8955 176.731 43.1121C176.7 43.207 176.546 43.3846 176.439 43.4503C175.579 44.1998 172.884 41.2603 173.528 40.4841C174.005 40.2797 174.819 40.3721 175.218 40.6958C175.567 40.9732 175.591 41.6034 175.542 41.9927L175.564 42.0584ZM175.338 38.8197C174.456 38.3622 172.032 35.722 173.666 34.7706C174.456 35.4689 175.769 36.3206 175.547 37.5421L175.601 37.5884C176.205 37.4618 176.602 37.968 176.829 38.479C176.98 38.8124 177.311 38.9778 176.929 39.2771C176.302 39.4986 175.974 38.715 175.34 38.8197H175.338ZM173.53 20.6279C173.598 20.623 173.737 20.6133 173.805 20.6084C174.88 21.8081 176.558 22.8447 176.753 24.5772L176.702 24.6356C175.754 24.806 174.882 24.4969 174.341 23.6015C174.271 23.4165 174.368 23.2146 174.222 23.0613C173.676 22.3483 172.573 21.482 173.532 20.6303L173.53 20.6279ZM176.605 69.6502C175.058 69.5237 173.588 69.1855 172.151 68.5844C170.453 68.0686 168.467 67.543 166.923 66.7132C163.926 64.9636 161.692 62.6154 160.079 59.5153C159.512 58.7026 159.609 57.8777 159.485 56.9189C157.882 52.8528 158.6 48.3633 158.281 44.0295C158.225 41.73 158.203 38.9486 158.013 36.817C157.994 36.379 157.74 36.0383 157.448 35.6733C157.143 35.3035 157.039 34.8995 157.046 34.206C157.027 33.0769 157.007 31.7167 157.078 30.6193C157.109 29.9257 157.755 29.5875 157.923 28.9816C158.074 27.4145 158.023 23.7256 157.986 21.5794C158.108 20.2897 157.492 20.1072 157.039 19.0584C156.191 15.6712 157.236 10.875 156.78 7.25906C156.705 6.73833 156.447 6.31005 156.43 5.79662C156.43 5.16881 156.737 4.64078 157.336 4.67485C159.18 4.76731 166.418 4.50208 167.585 4.75515L167.656 4.78435C168.007 4.90602 168.584 5.42918 168.55 6.14946C168.538 6.38549 168.487 6.62153 168.426 6.84054C166.879 12.2523 167.771 20.5476 168.212 25.6844C168.652 29.2663 169.444 33.2327 169.471 36.8389C169.037 39.8879 169.52 43.1802 169.783 46.2292C169.783 47.9374 169.435 49.6894 170.519 51.1519C172.726 56.4274 178.563 56.0478 182.106 52.3661C183.538 50.4876 183.412 48.1199 183.29 45.8885C183.37 42.64 183.833 39.2674 183.726 35.795C183.692 33.3543 182.939 30.3443 182.91 28.0083C183.251 25.0104 183.09 21.0392 182.82 17.8247C182.588 14.2866 183.706 9.72649 182.603 6.15433C182.634 5.52652 183.212 4.73568 183.789 4.68945C185.244 4.72595 194.258 5.01308 196.151 5.06905C197.069 5.04228 197.274 6.29546 197.152 7.08387C196.628 9.76786 196.926 12.3691 197.152 15.0507C197.484 22.8228 197.581 30.4368 197.91 38.1894C196.994 45.3848 197.766 52.955 195.284 59.6735C195.079 60.1091 194.721 60.4011 194.446 60.6249C194.007 60.9315 193.8 61.4693 193.503 61.9754C192.969 62.8174 191.953 63.8905 191.269 64.5378C190.857 64.9417 190.516 65.1753 190.019 65.3894C188.472 65.988 186.601 67.2728 185.007 67.9591C182.418 69.0249 179.358 69.4945 176.597 69.6551L176.605 69.6502ZM191.001 76.1692L190.945 76.2057C190.362 76.0621 189.139 76.5001 188.589 76.0913C187.948 75.5097 187.134 74.6556 186.489 73.9621C185.85 73.3489 185.468 72.5484 185.728 71.7429C186.735 72.2077 187.88 73.2784 188.881 73.7334C189.171 73.8794 189.558 74.0132 189.948 74.1373C190.53 74.3247 191.186 75.4732 191.001 76.1692ZM194.256 74.13L194.178 74.1592C193.756 74.259 193.135 74.2614 192.782 74.0059C192.289 73.7553 191.919 72.8647 191.2 72.9109C190.769 72.6238 189.39 71.3 189.351 70.772C189.558 70.1223 190.572 69.8814 191.154 70.0712C192.172 70.7087 193.196 72.0836 193.888 73.0521C194.231 73.5606 194.375 74.0035 194.256 74.13ZM199.949 70.4143L199.888 70.4459C199.33 70.1539 198.436 70.1345 197.993 69.6235C197.62 69.2901 197.289 68.7012 196.87 68.5139C196.438 68.4409 195.873 68.4603 195.42 68.4165C194.565 68.2949 194.333 69.0492 193.654 69.3047C193.149 69.5164 192.721 68.818 192.623 68.3143C192.813 67.7863 193.951 66.6524 194.343 66.0805C194.421 65.9832 194.45 65.9759 194.645 65.9759H195.849C195.997 65.9807 196.088 66.0197 196.185 66.1121C197.04 67.0198 198.066 67.9031 198.923 68.8375C199.308 69.3339 200.093 69.7524 199.947 70.4119L199.949 70.4143ZM204.81 69.0297C204.697 69.2901 204.305 69.4872 204.037 69.621C203.808 69.7111 203.655 69.5724 203.433 69.4702C203.126 69.3339 202.826 69.4191 202.541 69.3047C202.018 69.0273 200.868 67.6671 200.695 66.9298L200.634 66.8884C200.339 66.8349 199.874 66.9224 199.693 66.8178C199.14 66.4309 198.441 65.6376 197.886 65.0877C196.575 63.9854 196.833 62.9731 198.005 61.9243C198.677 61.153 199.074 61.5958 199.606 62.1531C199.82 62.355 200.1 62.3526 200.422 62.596C200.488 62.6811 200.622 62.849 200.69 62.9342C200.941 63.9392 201.918 64.4988 202.656 65.2215C203.443 65.9661 204.349 66.5282 204.524 67.6038C204.727 68.0199 205.029 68.5601 204.814 69.0346L204.81 69.0297ZM206.213 64.7957C205.723 64.3845 201.974 60.8415 200.446 59.4253C200.31 59.345 200.322 59.1162 200.307 58.9654C200.244 57.773 200.3 56.2814 201.296 55.493L201.401 55.4468C201.686 55.3738 202.047 55.6706 202.256 55.8848C203.794 57.4543 205.024 59.3425 205.908 61.3257C206.347 61.9925 207.248 62.5546 207.287 63.3406C207.351 63.8516 206.505 64.6984 206.213 64.7933V64.7957ZM208.481 57.0187C208.466 57.4737 208.52 57.8022 208.432 57.8704L208.369 57.902C207.974 57.9604 207.129 57.9555 206.724 57.6173C206.091 57.1379 204.274 55.3008 203.316 54.2593C202.887 53.8602 202.846 53.6461 202.646 53.1326C202.439 52.8285 202.03 52.6119 201.976 52.2737C201.913 51.9306 201.564 51.6751 201.523 51.2857C201.438 50.3708 201.927 49.4583 201.993 48.5336C202.015 48.2173 201.957 47.8571 202.171 47.7598C204.695 47.5797 206.62 53.6485 208.281 55.42C208.625 55.8994 208.43 56.3179 208.479 57.0187H208.481ZM206.846 48.8353C206.352 48.4168 206.525 47.935 206.052 47.5578C204.673 46.1149 202.683 44.8738 202.144 43.2654C201.754 42.8469 202.025 42.0901 201.949 41.601C201.835 41.0778 201.35 40.8831 201.596 40.2188C201.81 39.9025 202.027 39.6105 201.976 39.192C201.927 38.7783 202.134 38.2527 202.451 38.041L202.524 37.9996C202.885 38.1286 203.679 39.1287 204.676 40.0607C205.518 40.9586 206.296 41.5231 206.846 42.4332C207.309 43.1291 208.089 44.2996 208.598 45.0612C208.89 45.4797 208.912 45.5187 208.917 45.9591C209.085 47.2245 208.734 50.7017 206.849 48.8329L206.846 48.8353Z" fill="var(--fill-0, white)"/>
<path id="Vector_2" d="M58.615 8.40761C57.677 7.66057 56.1738 6.14459 55.4332 5.29778C55.192 5.00821 55.0799 4.75029 55.0458 4.42422C55.1018 3.30001 54.5269 2.54567 53.7984 1.60883C52.6704 0.518685 50.6093 0.180445 49.1768 0.805816C47.5615 1.43605 45.7903 1.68426 44.0873 1.81809C40.4183 2.02979 36.4155 1.58693 32.6952 1.7086C30.7511 1.6794 29.6597 3.20754 30.3053 5.02039C30.5489 5.7139 31.0727 6.4293 31.2481 7.11551C31.7305 9.11815 29.8935 9.17168 28.8021 7.94527C27.2282 6.06186 24.8796 5.01795 22.8551 3.62607C21.749 2.65273 20.794 0.77905 19.052 1.20975C15.3026 2.75737 11.1463 0.973717 7.61123 0.280211C5.65001 -0.00935772 3.37695 -0.128586 1.45472 0.18775L1.34019 0.231549C0.57032 0.521118 -0.204403 1.33872 0.0489713 2.22689C0.3194 3.12237 0.923602 3.65285 1.02593 4.66999C1.22814 6.42687 3.05536 7.0717 3.94948 8.74098C5.02388 10.7388 5.45752 12.739 6.58065 14.7416C7.40168 16.1481 7.8524 17.7541 8.29093 19.3261C9.40676 23.4311 11.5775 27.2199 13.1538 31.2617C13.9261 33.094 14.1916 34.9652 14.8714 36.7805C15.7923 38.7077 16.7132 40.7444 17.2784 42.7836C17.4197 43.2191 17.4855 43.6377 17.4733 44.1073C17.2443 50.9645 18.2408 58.4933 16.8984 64.8419C16.4891 66.0172 15.936 67.3556 16.433 68.5723C16.7814 69.2852 17.7779 69.5626 18.4113 69.952C21.0059 71.6577 23.5226 74.4658 25.591 76.9235C26.8506 78.4663 28.612 79.9263 30.7486 79.734C31.4211 79.6781 31.9351 79.8338 32.4175 80.1574C33.7721 81.2087 35.3532 79.8387 36.6567 79.773C37.3534 79.7632 37.831 80.374 38.4449 80.5736C40.1552 80.9191 43.5684 80.6903 44.9742 80.0479C45.4834 79.8289 46.0583 79.6902 46.6065 79.8703C47.2034 80.0577 47.6127 80.3935 48.117 80.2134C48.938 79.7024 50.6288 79.2571 50.4558 78.0331C50.3292 76.9454 49.1329 76.0548 48.9063 75.1764C48.7041 74.3515 48.9453 72.7625 48.8771 71.6504C48.7967 70.8888 48.4922 70.3997 48.4557 69.7135C48.2169 65.0415 48.0244 56.8581 48.5019 51.6191C48.5166 48.5531 49.8857 46.8205 51.1039 44.1122C51.5522 42.8055 51.7495 41.4623 52.1856 40.1702C53.4914 36.25 54.6049 32.1182 55.7743 28.1275C56.3517 26.5093 57.2214 24.9885 57.9231 23.4165C59.2021 20.6887 59.4336 17.7736 60.5616 15.0117C60.9343 13.9678 62.0331 12.9677 62.2914 12.0503C62.4375 11.2157 62.4984 10.0647 61.9064 9.29821C61.0001 8.27377 59.475 9.04272 58.6223 8.40518L58.615 8.40761ZM23.0403 7.04251C24.1902 6.6629 24.5239 9.55372 23.4471 9.88466C22.6529 10.1304 22.4604 8.81155 22.0243 8.46358C21.9269 8.03531 22.8185 7.11551 23.0403 7.04251ZM35.2388 39.939C35.0536 40.5254 34.6809 41.0267 34.1376 41.3333C33.7502 41.5791 33.4992 41.8224 33.4408 42.2263C33.3165 42.915 33.5382 43.5282 33.9816 43.993C34.4469 44.5551 34.8636 45.5771 35.0463 46.3387C34.9635 51.5339 35.2266 60.2842 34.9537 65.4162L34.9001 65.4795C33.9402 66.7983 31.9351 66.3847 30.5611 65.9442C26.5192 65.6936 20.9474 67.7254 21.6077 61.5399C21.4566 60.6371 21.0669 59.8244 21.118 58.8851C20.9061 53.7385 21.4347 48.2976 21.2422 43.1364C21.2203 42.6084 21.0669 42.1022 20.7891 41.6472C18.6086 38.3476 17.9898 34.4907 16.7156 30.7969C15.4926 27.743 14.1965 24.7184 13.1538 21.4966C11.0975 16.9049 9.14364 12.3715 7.77932 7.4732C7.57954 6.90623 7.20435 6.45606 7.04355 5.95723C6.83403 5.24669 6.85839 4.22468 7.76956 4.18817C10.2765 4.01541 12.859 5.11529 15.3123 5.36592C16.589 5.37566 18.1506 5.20775 18.2651 6.91353C18.4113 11.5247 20.0656 15.7417 21.654 19.9514C22.6285 22.5697 23.5007 25.8864 24.8967 28.383C25.3839 28.9816 26.049 29.4123 26.8481 29.3612C28.0492 29.2906 28.4415 27.5873 28.7753 26.6456C29.7717 23.054 31.4722 19.4258 32.7148 15.6882C32.9681 14.71 34.1717 14.4715 34.4153 13.5444C34.5712 13.0748 34.6004 12.5102 34.6102 11.9481C34.5225 10.9042 34.9659 10.2326 35.0512 9.29092C35.1486 7.72141 34.4323 5.61899 36.1353 5.02525C37.2414 4.89141 38.5862 5.20046 39.5096 4.78922C40.0237 4.59699 40.506 4.52155 41.0712 4.51669C44.5673 4.48749 48.7358 3.67961 45.9219 8.54388C45.3932 10.4078 44.9595 12.2693 44.3968 14.1114C42.4429 20.0828 40.6132 25.9058 38.6471 31.7167C37.6117 34.4177 36.1329 37.1942 35.2388 39.9341V39.939ZM47.4056 28.1226C47.6687 28.4657 48.1218 28.877 48.4069 29.1398C48.6749 29.5948 48.7602 30.2372 48.9843 30.848C49.1305 31.3833 49.3084 31.7702 49.2523 31.8262L49.1792 31.8627C48.9527 31.9381 48.4727 31.9138 48.2437 31.7143C47.8246 31.4393 47.7077 31.0694 47.3033 31.0159C46.76 31.0354 46.5334 31.0986 46.2021 30.5438C45.7416 29.8284 45.04 28.9013 44.4114 28.2881C44.0191 27.4364 44.5697 25.811 45.6807 26.0981C46.4749 26.4047 46.8111 27.5143 47.4056 28.1251V28.1226ZM40.0919 41.1922C40.7277 41.6691 41.3076 42.2799 41.8508 42.8542C42.0457 43.0391 41.8582 43.3262 42.0506 43.5039C42.4989 43.9881 43.2809 44.4456 43.1786 45.2023L43.1665 45.2534C42.5404 45.0588 41.4586 44.7205 40.7521 44.4991C40.1186 44.2655 39.2343 43.19 39.1442 42.8104C38.9493 42.1874 39.5534 41.455 40.0894 41.1922H40.0919ZM40.4427 47.1222C41.0322 47.57 41.4416 48.6066 42.3113 48.4752L42.3601 48.4849V49.3001C42.3454 49.687 42.4209 49.7332 42.209 49.6651C41.8874 49.5921 40.9835 49.3901 40.584 49.3025C40.2064 49.3853 39.6289 49.7746 39.166 49.9766C38.9955 50.0423 38.9736 50.125 38.8566 50.0715C36.8028 49.03 38.4108 45.7085 40.4451 47.1247L40.4427 47.1222ZM44.7841 67.9542C44.4553 67.9347 43.9387 67.5064 43.6098 67.3191C42.1164 66.2654 40.1698 64.747 39.1027 63.0899C38.7641 61.7564 40.182 62.192 40.7229 62.8733C42.2626 64.129 43.0008 65.6887 44.3602 66.8908C44.6331 67.122 44.8548 67.5867 44.8085 67.8958L44.7841 67.9566V67.9542ZM45.1812 61.3841L45.096 61.4644C44.772 61.591 44.1264 61.5885 43.7756 61.4839C42.9643 61.26 42.5403 60.4911 41.8801 59.9728C41.5999 59.783 41.3392 59.8803 41.1955 59.7148C40.4402 59.0213 39.4584 58.0626 38.7592 57.3399C38.4401 56.9773 38.2939 56.9116 38.2622 56.644C38.2524 56.2449 38.2232 55.4565 38.3669 55.0331C38.8518 54.8603 39.4292 54.9187 39.8896 55.1596C41.2466 55.9675 42.6914 58.3254 44.0776 59.3401C44.2311 59.4326 44.409 59.418 44.599 59.491C45.2812 59.783 45.3031 60.7928 45.1764 61.3841H45.1812ZM45.6247 41.5109L45.593 41.5839C44.9913 41.9416 43.2688 40.6106 42.6938 40.0777C42.5695 39.9585 42.5696 39.9317 42.4088 39.9074C41.9556 39.8003 40.7691 39.557 40.7374 39.5253C40.7106 39.5083 40.7351 37.9996 40.7277 37.5494C40.7277 37.4691 40.9909 37.53 41.2126 37.5008C41.5683 37.4813 41.8826 37.4205 42.192 37.5202C42.46 37.6979 43.8145 39.0873 44.4918 39.8076C44.8305 40.2821 45.7781 40.7663 45.6247 41.5109ZM49.189 37.9631C49.1061 38.1675 48.9819 38.496 48.921 38.6177C48.8552 38.7539 48.7845 38.7126 48.5604 38.6663C48.2218 38.5933 47.5591 38.4425 47.2156 38.3671C46.7819 38.2502 45.8903 36.9946 44.5064 35.5882C43.6952 34.7097 42.9813 33.9384 42.3138 33.2156C42.1847 33.0477 42.1261 33.094 42.1554 32.9115C42.248 32.5732 42.2285 31.7532 42.5086 31.8189C42.7644 31.8189 43.1372 31.7994 43.4491 31.7727C44.7354 31.5902 45.2008 32.948 46.4457 34.1428C46.9208 34.6513 47.3252 35.1745 48 35.0747L48.0463 35.121C47.8563 36.1795 49.7055 36.8608 49.1865 37.9607L49.189 37.9631ZM53.3209 23.2924C52.8726 23.6866 50.7628 21.8981 50.2853 21.3165C50.1708 21.1924 50.0904 21.0732 50.0831 20.8712C50.0758 20.6595 50.0904 20.4941 49.9613 20.4965C49.3181 20.6303 47.9586 19.5864 47.391 18.8662C46.9914 18.4355 47.2034 17.1361 47.7223 16.8489C48.6384 16.4571 49.6543 17.6106 50.0977 18.2213C50.9821 19.5743 51.5741 20.9296 52.7703 22.1001C53.1017 22.3726 53.4403 22.7887 53.355 23.2121L53.3234 23.2924H53.3209ZM55.075 19.0584C54.7754 19.6156 53.9738 18.9465 53.6693 18.6034C52.4828 17.7079 51.1088 16.1359 50.1464 15.3986C49.9418 15.2453 49.6372 15.2356 49.4545 15.1334C49.1792 14.9412 49.1475 14.5178 48.9648 14.2331C48.5043 13.3181 49.2572 12.4835 49.8419 11.7997C50.2146 11.3787 50.4924 10.9651 50.1927 10.4638C49.6933 9.36149 50.9407 6.77483 51.7373 6.27356C51.9006 6.17623 52.0857 6.26139 52.4 6.48526C53.0018 6.98896 53.5499 6.97437 53.1016 7.81388C52.8945 8.49035 52.4706 8.93808 52.6217 9.60726C52.6534 9.99172 52.9701 10.6463 52.8361 10.9918L52.7654 11.0283C47.3959 10.9967 55.7475 17.6519 55.0799 19.0584H55.075Z" fill="var(--fill-0, white)"/>
<g id="Group_2">
<path id="Vector_3" d="M124.229 77.5635C125.852 77.1912 127.379 76.1959 128.892 75.3224C132.174 73.0715 136.883 70.2513 138.664 66.4431C138.983 66.0099 140.097 65.7763 140.423 65.3262C140.638 65.022 140.616 64.5937 140.674 64.2263C140.772 62.995 141.444 62.136 142.082 61.0556C143.561 58.5517 144.465 55.493 145.454 52.6581C145.822 51.6337 145.915 50.7187 146.039 49.7697C146.183 49.1298 146.482 48.5701 146.521 47.9131C146.689 44.9541 146.594 41.5012 145.929 38.5398C145.564 36.8438 144.626 34.9968 144.087 33.1597C143.037 28.8088 140.815 25.7306 137.838 22.0028C136.593 20.3481 135.21 19.4088 133.675 18.0364C131.26 15.7734 129.457 12.885 126.941 11.0162C122.531 8.46601 118.041 5.26615 113.103 3.72341C112.269 3.38761 111.144 3.1613 110.488 2.56757L110.393 2.5116C104.753 0.80825 97.3934 0.530848 91.4098 2.09306C90.5596 2.23419 90.0382 2.9496 89.2391 3.20997C87.2121 3.6358 85.1389 3.45087 83.3433 4.74055C82.3201 5.36592 81.4991 5.83312 80.5513 6.64829C77.4329 9.40041 74.0756 12.5443 71.9902 15.5811C69.9705 18.416 68.5306 22.122 67.371 25.0274C66.93 25.6528 66.3039 26.3779 66.1553 27.1785C65.2124 30.9697 64.5035 36.362 64.6959 40.4987C64.8981 41.3917 65.2514 42.3869 65.1856 43.3676C65.4244 46.5139 65.3659 50.1931 66.8862 53.1448C68.2188 55.5684 69.8755 58.761 72.0998 60.3378C72.5749 60.8975 72.592 61.9049 73.1085 62.5375C74.4241 64.1168 76.1027 65.2921 77.3744 66.9492C80.5708 70.7574 85.0439 72.6724 89.1977 74.9817C92.8814 76.6485 97.0012 77.3275 100.816 78.7461C102.127 79.2936 103.124 79.6683 104.583 79.6562C108.927 79.7754 113.475 79.442 117.415 78.7704C119.776 78.2594 121.903 77.9358 124.229 77.5659V77.5635ZM128.551 72.159L128.5 72.1785C128.144 72.1444 127.287 72.2685 126.882 72.2101C126.261 72.0447 124.906 70.3097 124.163 69.6235C123.796 69.2828 123.627 68.9665 123.32 68.9397C123.204 68.9227 123.074 68.9081 122.965 68.8375C122.492 68.4773 121.518 67.504 121.652 67.1414C121.929 66.9249 123.091 66.628 123.445 66.499C124.01 66.8811 125.131 67.8958 125.918 68.5212C126.799 69.2536 127.523 69.8546 128.22 70.4362C128.359 70.5652 128.364 70.4995 128.393 70.7428C128.427 71.1224 128.59 72.1225 128.549 72.159H128.551ZM131.307 69.3461C130.844 69.1709 129.504 67.9736 127.974 66.8373C127.094 66.1559 126.48 65.679 125.837 65.1802C125.42 64.9636 126.022 64.1922 126.276 64.073L126.368 64.0389C128.407 63.5839 130.325 65.9613 131.921 67.2217C132.201 67.4383 132.547 67.7936 132.625 68.1318C132.878 68.9324 131.974 69.4361 131.309 69.3461H131.307ZM140.37 57.6246C140.336 57.9409 139.619 58.2208 139.419 58.3497C139.205 58.4057 138.07 58.0334 137.936 58.0018L137.894 57.9604C137.833 57.8825 137.819 57.7122 137.824 57.5832C137.765 57.099 136.99 56.9627 136.552 56.7753C135.965 56.5417 135.738 55.639 135.085 55.5368C134.871 55.5173 134.683 55.5538 134.669 55.3932C134.649 55.2375 134.669 54.9747 134.535 54.8214C133.787 54.1279 134.557 53.1399 134.644 52.3369C134.674 52.1082 134.644 51.9038 134.737 51.8746C134.924 51.86 135.957 52.1398 136.313 52.2031C136.978 52.6022 137.456 53.3954 138.104 53.8188C139.295 54.6437 140.374 55.3518 140.379 56.9944C140.394 57.2109 140.396 57.4543 140.372 57.6246H140.37ZM138.106 50.6117C138.014 50.4267 137.753 50.1128 137.468 49.962C137.122 49.7478 136.727 49.6091 136.486 49.5264C136.182 49.4388 136.262 49.4534 136.155 49.0373C136.101 48.8305 136.018 48.575 135.87 48.3681C135.741 48.1516 135.39 48.0469 135.543 47.8839C135.933 47.351 136.294 47.3218 136.774 47.6746C137.953 48.4922 139.332 50.3489 140.374 51.4463L140.394 51.4731C139.814 51.2297 138.706 50.945 138.104 50.6141L138.106 50.6117ZM142.986 49.0276C142.389 49.1517 142.095 48.4168 141.654 48.154C139.697 46.5626 134.376 44.4334 136.835 41.3674L136.922 41.3114C137.424 41.3187 138.101 41.7494 138.477 42.0317C139.87 43.28 141.751 45.1488 143.11 46.5991C143.374 46.9373 143.564 46.9787 143.639 47.3729C143.717 47.8961 143.544 48.8937 142.989 49.0276H142.986ZM141.929 38.2478C142.372 38.754 142.864 39.591 143.237 40.2164C143.588 40.8223 143.844 41.4282 143.49 42.0487C143.286 42.3383 143.154 42.5986 142.916 42.55C142.302 42.1047 139.069 39.7662 137.614 38.7126C137.285 38.4595 137.132 38.4279 136.766 37.9607C136.52 37.6176 136.425 37.272 136.238 37.0263C136.055 36.8024 135.826 36.5931 135.66 36.3547C135.102 35.5298 135.621 34.4737 136.413 34.0381H136.511C136.783 34.1695 137.176 34.3861 137.478 34.554C138.033 34.9482 138.408 35.5882 138.954 35.9994C140.165 36.9289 141.02 37.1869 141.929 38.2478ZM134.245 27.8963C134.279 27.636 134.206 27.3026 134.325 27.1736C136.32 26.6018 137.341 28.9232 138.815 30.2445C138.964 30.3905 139.103 30.5462 139.244 30.6509C139.458 30.7944 139.761 30.7239 139.987 30.9575C140.706 31.5756 141.534 32.5659 141.554 33.5222L141.5 33.5831C140.153 33.8653 138.83 33.0721 137.729 32.4005C137.341 32.2496 136.632 32.2253 136.23 32.0379C135.76 31.814 135.202 31.1327 134.846 30.7871C134.53 30.5243 134.683 30.2129 134.644 29.8722C134.566 29.6021 134.279 29.4464 134.23 29.1763C134.169 28.7748 134.228 28.3149 134.245 27.8963ZM134.7 62.7906C135.144 63.214 135.283 63.1921 135.853 63.4501C137.234 64.3845 135.797 66.1681 134.296 65.7301C133.511 65.3262 132.771 64.5499 131.553 63.7907C130.405 62.9658 128.273 61.7151 129.93 60.4156L130.023 60.3865C130.42 60.3013 131.09 60.3986 131.545 60.4084C131.938 60.367 132.213 60.5032 132.493 60.7758C133.219 61.389 133.991 62.1823 134.703 62.7882L134.7 62.7906ZM89.1173 71.7745C88.401 71.3365 87.3559 70.6966 86.6323 70.2561C86.4715 70.171 86.5227 70.1491 86.3424 70.1515C86.1304 70.1199 85.7065 70.2318 85.5555 70.0736C85.3362 69.8303 83.8281 68.6428 83.8622 68.5236C85.9696 68.3387 89.339 69.0078 89.1271 71.721L89.1198 71.7745H89.1173ZM99.6835 75.0133C99.4375 75.0401 99.1402 75.0255 98.8942 75.0304C98.3874 75.0304 98.0073 74.5705 97.6297 74.3101C97.1083 73.7796 96.4067 73.5582 96.0559 73.2394C95.9219 72.9961 95.7708 72.4194 95.6344 72.2198C95.9024 72.1639 97.2862 72.5192 97.715 72.5605C98.2827 72.6384 98.8357 74.0668 99.6494 73.8161L99.7006 73.8234C99.6908 73.8526 99.7225 74.9841 99.6835 75.0133ZM111.897 75.7896L111.86 75.8626C111.188 76.1254 110.169 74.9574 109.775 74.7067C109.663 74.5169 109.131 74.6751 108.859 74.6191C108.603 74.5632 107.187 73.0861 106.763 72.3999C106.135 71.5774 107.141 71.6796 107.626 71.7648C108.544 71.9789 109.224 72.653 110.047 73.0083C110.8 73.8113 112.123 74.5364 111.902 75.7871L111.897 75.7896ZM110.581 67.3264C109.896 67.5478 108.944 67.6232 108.211 67.7522C106.249 68.0564 102.458 68.3387 99.513 68.3143C96.2629 68.5406 93.4149 66.3725 90.4061 65.5014C88.6398 64.9125 86.5762 64.7884 84.5322 64.382C81.3748 63.2505 75.6349 59.6711 73.9612 58.0967C73.5689 57.5857 73.2303 57.009 72.6919 56.6245L72.6066 56.5418C72.2094 56.094 71.6978 55.7533 71.2666 55.308C70.4115 53.9016 69.6733 52.2469 69.0082 50.7139C67.9947 48.3827 68.6062 45.2632 68.2724 42.5573C67.505 40.0412 68.0751 37.4059 68.3991 34.5418C69.0934 30.4367 70.068 26.8792 72.0828 23.9008C74.2365 19.82 75.9906 15.9607 78.9336 12.7244C81.4917 9.81165 85.1876 7.68004 88.8299 6.36846C89.7703 6.08376 90.7521 6.1446 91.7363 5.84043C92.8059 5.50706 93.7536 5.10799 94.8572 5.00335C98.5604 4.59699 102.405 3.93755 106.02 4.59455C109.183 5.41946 112.187 5.46325 114.852 6.83079C117.892 8.41247 121.062 11.4785 123.44 13.6515C124.777 15.1042 126.561 16.7248 127.343 18.472C127.46 18.8443 127.55 19.2652 127.633 19.6375C127.815 20.5573 128.5 21.4406 128.943 22.2826C130.205 24.5432 130.276 26.283 130.807 28.512C131.078 29.6191 132.052 30.2178 132.055 31.3906C132.323 33.8021 132.539 36.5931 131.838 38.8902C131.774 39.9658 132.062 41.3941 131.76 42.185C131.584 42.5962 131.221 42.9052 131.085 43.3408C130.934 43.8129 131.039 44.3409 130.983 44.83C130.946 45.6184 130.074 46.4774 129.842 47.2731C129.591 48.1394 129.794 49.0203 129.521 49.906C128.812 52.3394 126.997 54.1765 125.854 56.1256C125.299 56.9335 125.087 57.9993 124.517 58.7123C123.206 60.2039 121.712 62.046 120.182 63.1629C117.89 64.9806 114.871 65.3992 112.187 66.3822C111.531 66.6207 111.141 67.1171 110.584 67.3312L110.581 67.3264ZM116.462 68.9616L116.543 68.9373C117.093 68.9154 118.194 68.9372 118.711 68.9275C118.906 68.9202 118.994 68.9373 119.132 69.037C120.662 70.2586 122.516 71.6529 123.698 73.3635C123.981 74.2712 123.033 74.7262 122.251 74.6094C121.106 74.5096 120.56 73.5387 119.822 73.0058C119.349 72.6651 118.445 72.2393 117.87 71.8427C117.437 71.4801 115.025 69.621 116.462 68.9567V68.9616Z" fill="var(--fill-0, white)"/>
<path id="Vector_4" d="M114.194 30.612C113.804 29.6873 112.791 28.439 112.213 27.4218C110.869 24.1976 108.941 20.7788 105.872 18.9148C104.909 18.4038 103.681 17.6324 102.675 17.7395C101.827 17.6957 101.228 17.2309 100.298 17.2942C99.6324 17.2577 99.1208 17.4597 98.5921 17.6227C97.3934 17.8344 96.4359 17.6276 95.381 18.3625C93.7901 19.3236 91.8338 19.5061 90.3404 20.6255C89.2854 21.5039 88.7129 23.1683 87.4948 24.0249C86.6884 24.6381 85.4654 24.4142 84.944 25.3997C84.3032 26.4534 84.9172 27.9085 84.6955 29.0254C84.4713 30.6752 83.4895 32.1523 83.0071 33.7704C82.6148 34.9044 83.0022 35.5882 83.0364 36.6856C83.0705 37.8049 82.8658 39.1628 83.0315 40.1483C83.4018 41.8978 83.989 43.9029 84.3227 45.3702C84.637 46.2365 84.883 47.2196 85.1973 48.0737C85.2777 48.2246 85.3923 48.39 85.4897 48.5312C85.9648 49.1006 86.1499 49.9571 86.6299 50.5387C88.1258 52.298 90.7107 53.3881 92.7133 54.5488C93.851 55.1864 95.2202 54.8481 96.4043 55.3348C97.1181 55.6463 97.9416 55.6122 98.8333 55.6001C99.7566 55.6049 100.336 55.1231 101.184 55.1377C102.622 55.2423 103.957 53.977 105.421 53.612C106.05 53.4173 106.203 52.9672 106.707 52.6971C107.068 52.5292 107.514 52.4416 107.887 52.2615C109.572 51.5023 110.625 50.2686 111.614 48.7623C112.321 47.7841 112.381 46.6526 113.3 46.0418L113.368 45.9591C113.617 45.6355 113.665 44.9809 113.88 44.5599C114.25 43.7253 114.825 42.9418 114.764 42.0073C114.764 41.0973 115.268 40.5035 115.247 39.63C115.234 37.7319 115.575 35.4495 114.908 33.858C114.479 32.8798 114.623 31.5804 114.189 30.6144L114.194 30.612ZM102.512 22.2777L102.578 22.2169C103.228 22.1147 103.971 22.2315 104.464 22.7133C105.406 23.5041 106.41 24.6819 107.273 25.5335C107.397 25.682 107.458 25.9326 107.411 26.047C107.297 26.1711 106.225 26.2319 106.064 26.283C104.873 25.2391 103.635 24.0297 102.597 22.8593C102.497 22.7182 102.488 22.4189 102.51 22.2753L102.512 22.2777ZM96.0973 21.8275C97.3617 21.3847 98.0488 22.4797 98.9405 23.307C100.619 23.9275 102.025 26.0518 102.127 27.8404L102.108 27.8963C101.757 27.8769 100.492 27.5581 100.283 27.4997C99.2718 26.502 97.6395 24.8595 96.5748 23.801C96.224 23.4044 95.783 23.1051 95.6198 22.7887C95.705 22.5989 95.8854 21.9078 96.0949 21.8275H96.0973ZM91.4976 40.9245C90.8276 41.0413 90.4987 40.4305 90.0578 40.0388C89.2611 39.3282 86.4594 36.6418 87.0148 35.7001C87.5654 35.3108 88.116 36.0529 88.4936 36.4252C89.6898 37.6711 91.3539 39.2017 91.5683 40.8929L91.5 40.9221L91.4976 40.9245ZM89.5096 28.1591C89.3805 27.58 89.4754 26.5677 90.0699 26.3L90.1649 26.266C91.3441 26.0154 92.3673 27.1371 93.0739 27.9985C93.2079 28.1981 93.1591 28.4341 93.3102 28.6385C94.2067 29.6459 95.3421 30.4076 95.9633 31.6461C96.1509 32.9163 94.9571 32.9796 93.9899 32.4613C93.0787 31.5391 89.9871 28.9354 89.5096 28.1591ZM111.982 39.5399C112.036 40.6252 111.336 41.399 111.166 42.4502C110.844 43.735 110.82 44.9614 109.753 45.9421C109.209 46.5601 108.971 46.9835 108.603 47.5456C108.096 48.3122 107.065 48.9132 106.225 49.5507C105.511 50.1177 104.9 50.3951 104.013 50.5314C102.556 50.7796 101.226 51.1421 99.8492 51.7481C98.787 52.0887 96.9695 51.9768 96.1875 50.9572C95.8244 50.2442 95.3226 49.5945 94.8304 48.9327C94.4016 48.2927 94.2408 47.6454 94.7086 46.9617C94.867 46.6891 95.0814 46.3728 95.04 46.0735C94.4406 45.0101 93.9899 42.8663 94.4187 41.6715C94.6599 41.1605 95.1691 40.8004 95.286 40.214C95.5053 39.3477 95.403 38.3452 95.7635 37.5348C96.4408 36.1965 99.5276 32.8969 100.612 32.0476C102.061 31.1278 103.952 30.1374 105.609 29.5437L105.711 29.5267C106.425 29.4634 108.123 29.4756 108.803 29.6362C109.507 30.0936 110.479 31.505 111.139 32.1839C112.43 34.2814 111.98 37.1236 111.984 39.5497L111.982 39.5399Z" fill="var(--fill-0, white)"/>
</g>
</g>
</svg>
