<svg preserveAspectRatio="none" width="100%" height="100%" overflow="visible" style="display: block;" viewBox="0 0 121.829 40.6113" fill="none" xmlns="http://www.w3.org/2000/svg">
<g id="Group">
<path id="Vector" d="M97.9686 2.99052C98.1111 3.08131 98.2642 3.12903 98.4185 3.17676C99.071 3.40839 99.3784 4.00085 99.2653 4.7004C99.6257 10.8788 99.1581 17.1434 99.2312 23.3124C99.2441 24.6615 98.9815 25.9803 99.0639 27.327C99.1028 28.0952 99.0545 29.0322 99.0427 29.8505C98.8437 30.45 98.6352 31.0762 98.2548 31.6116C98.1076 31.806 97.9121 31.9806 97.7495 32.1459C97.461 32.4101 97.4033 32.9828 97.5576 33.3564C97.693 33.6207 98.0004 33.7592 98.2572 33.8965C100.54 34.7253 101.947 36.7343 103.673 38.3127C103.914 38.4942 104.193 38.5548 104.499 38.5548C105.346 38.5664 106.253 38.4756 107.094 38.4908C108.818 38.7212 110.545 38.3103 112.277 38.322C114.925 38.5431 117.666 37.9367 120.321 38.0892C120.615 38.0845 120.809 38.2009 121.02 38.2079C121.47 38.2254 121.823 37.6969 121.73 37.2511C121.638 35.4155 122.046 33.4554 121.658 31.7082C121.564 31.4196 121.563 31.0948 121.641 30.7992C121.742 30.372 121.643 29.9797 121.477 29.6713C121.03 28.9321 120.075 28.5981 119.491 28.0487C119.23 27.7239 117.903 26.8835 118.774 26.6019C119.265 26.5239 120.089 26.2049 120.32 25.7964C120.73 24.1598 119.853 22.4069 119.763 20.775C119.75 20.3618 119.717 19.8508 119.795 19.5097C119.857 19.1931 120.17 18.9033 120.298 18.6228C120.477 18.1793 120.127 17.7661 119.811 17.4378C119.35 16.9746 118.908 16.8582 118.496 16.3938C118.185 16.0283 116.977 15.2193 117.589 14.8107C117.849 14.7584 118.568 14.7048 119.291 14.6222C120.146 14.4802 120.862 14.5791 121.144 14.3312L121.166 14.2974C121.479 13.7725 121.403 12.9356 121.354 12.3163C121.198 10.6367 120.9 8.12367 121.27 6.37887C121.338 5.97497 121.628 5.61413 121.495 5.20092C121.291 4.82263 120.888 4.49904 120.559 4.21969C120.205 3.95663 119.693 3.867 119.303 3.61092C118.371 3.03126 117.511 1.92548 116.594 1.02106C116.162 0.578752 115.992 0.364583 115.376 0.43093C114.799 0.52754 114.162 0.986148 113.493 0.794091C111.977 0.491456 110.38 0.490292 108.882 0.539179C106.438 0.839486 103.809 0.733563 101.291 0.775467C100.562 0.816206 99.8636 0.831337 99.1864 0.996622C98.8048 1.13048 98.4574 1.25037 98.0287 1.21312C97.6565 1.1817 97.2914 1.482 97.2019 1.84749C97.0629 2.30144 97.5693 2.71931 97.9721 2.98936L97.9686 2.99052ZM104.506 36.5644C103.843 36.058 103.22 35.1594 102.59 34.6694C102.403 34.5449 102.21 34.5844 102.059 34.3342C102.038 34.2795 102.108 33.6498 102.157 33.68C102.323 33.836 102.642 34.0816 102.79 34.2806C102.854 34.3726 102.826 34.5437 102.837 34.5972L102.86 34.6194C102.934 34.6287 103.141 34.6042 103.203 34.6776C103.749 35.1408 104.23 35.7228 104.736 36.2384C104.904 36.4503 104.783 36.7133 104.506 36.5644ZM108.198 34.7486C108.163 34.9045 108.18 35.0023 108.113 35.0163C108.027 35.0244 107.922 35.0291 107.836 35.0314C107.741 35.0384 107.626 35.0395 107.531 35.0337C107.095 34.9918 106.724 34.4261 106.252 34.6787C106.076 34.7858 106.056 34.8452 105.871 35.0023C105.764 35.0465 105.564 35.0361 105.439 34.9907C105.021 34.7253 103.667 33.9419 104.893 33.6777C105.149 33.6509 105.526 33.5846 105.731 33.7149C105.823 33.8022 105.913 33.8872 106.047 33.8709C106.538 33.9012 107.523 33.3564 108.083 33.836C108.157 33.8663 108.246 33.8674 108.294 33.8674L108.331 33.8709C108.335 34.0851 108.226 34.5064 108.198 34.7486ZM111.082 35.2176C110.58 35.1769 110.222 34.5903 109.694 34.6287C109.619 34.6333 109.596 34.631 109.57 34.5879C109.439 34.4413 109.001 33.9524 108.931 33.8744C109.247 33.8476 109.621 33.7964 109.904 33.9524C110.277 34.1759 110.766 34.8044 111.094 35.206L111.082 35.2176ZM116.2 36.9066L116.171 36.9403C115.913 36.9892 115.553 37.0137 115.292 36.9496C114.976 36.8274 114.414 36.2198 114.005 35.8392C113.834 35.6308 113.653 35.6413 113.432 35.5063C112.967 35.1129 112.514 34.539 111.923 34.4564C111.734 34.4296 111.671 34.2853 111.573 34.1247C111.169 33.5706 112.682 33.6241 112.9 33.6591C113.156 33.6858 113.497 34.0804 113.757 34.2445C114.099 34.4564 114.632 34.5868 114.884 34.9557C114.968 35.078 115.009 35.2397 115.116 35.3503C115.639 35.7461 116.319 36.2 116.2 36.9066ZM116.805 17.6369C116.768 17.9523 116.581 18.2096 116.252 18.1374C116.031 18.092 115.908 17.8906 115.721 17.7929C115.488 17.7486 115.23 17.5414 115.12 17.3214C114.994 17.1073 114.936 16.8698 114.859 16.6207C114.802 16.4671 114.808 16.4578 114.907 16.3123C114.993 16.1714 115.1 15.9992 115.106 15.9887L115.136 15.9794C115.964 15.8735 116.767 16.303 116.984 17.1643C116.997 17.3179 116.815 17.4239 116.802 17.6357L116.805 17.6369ZM113.863 24.5195C113.762 24.1959 113.297 23.9352 113.255 23.5802L113.261 23.5557C113.639 23.4254 114.706 24.4578 115.112 24.7628C115.78 25.2097 115.901 25.8255 114.934 25.893C113.356 26.0187 114.035 25.3273 113.861 24.5195H113.863ZM119.324 29.6643C119.4 30.0088 119.333 30.7747 119.351 31.1449L119.343 31.1495C119.061 31.0366 118.714 30.6385 118.401 30.5617C118.32 30.5524 118.219 30.578 118.138 30.564C118.032 30.5547 117.967 30.4302 117.866 30.3906C117.773 30.3603 117.63 30.3545 117.532 30.2381C117.324 30.024 117.428 29.8028 117.388 29.563C117.348 29.421 117.209 29.35 117.178 29.201C117.138 28.9694 117.225 28.7703 117.299 28.5632C117.348 28.4619 117.345 28.3071 117.419 28.2547C118.24 28.2524 118.774 29.1882 119.325 29.6643H119.324ZM117.65 18.3004C117.891 18.3166 118.105 18.5425 118.345 18.5122L118.37 18.5157C118.37 18.674 118.37 19.0697 118.37 19.2618C118.359 19.4282 118.397 19.4958 118.335 19.4853H117.862C117.635 19.4818 117.703 19.5167 117.584 19.3561C117.515 19.2606 117.416 19.1233 117.335 19.0104C117.227 18.8474 117.173 18.8346 117.183 18.7322C117.217 18.5192 117.392 18.2759 117.651 18.3004H117.65ZM119.141 9.38659C118.522 8.91518 117.478 8.18769 116.749 7.55682C116.548 7.36709 116.423 7.26 116.384 7.12149C116.345 6.9725 116.343 6.75833 116.253 6.61166C116.191 6.53601 116.113 6.44987 116.041 6.38236C115.978 6.31135 116.081 6.22173 116.16 6.06459C116.273 5.88185 116.35 5.71307 116.392 5.68863L116.432 5.67466C116.617 5.62694 116.779 5.77592 116.907 5.89465C117.154 6.0902 117.776 6.66986 118.369 7.24836C118.823 7.73025 119.273 8.06897 119.584 8.56831C119.79 9.01761 119.779 9.50531 119.141 9.38659ZM116.011 3.96011C116.013 3.85303 115.998 3.77039 116.084 3.7506C116.167 3.72616 116.33 3.76107 116.369 3.71219C116.431 3.66097 116.357 3.434 116.45 3.37114C116.533 3.30596 116.728 3.31644 116.841 3.33157C117.309 3.40956 117.518 3.84954 117.868 4.12191C118.465 4.59681 119.337 4.88548 119.674 5.70376C119.769 5.91561 119.82 6.18797 119.629 6.35326C119.514 6.44172 119.338 6.40913 119.159 6.37537C118.678 6.29855 118.585 6.27993 118.172 5.9156C117.783 5.6281 117.5 5.25214 117.004 5.28822C116.844 5.28473 116.568 5.33827 116.44 5.29171L116.418 5.25562C116.404 5.21023 116.416 5.12875 116.384 5.05193C116.314 4.85754 116.014 4.73882 115.998 4.55375C115.97 4.38963 116.006 4.16381 116.012 3.96128L116.011 3.96011ZM115.709 12.2965C115.791 12.364 115.839 12.4001 115.86 12.4618C115.92 12.6667 116.21 13.5362 116.223 13.6374C116.103 13.6596 115.829 13.3965 115.733 13.2917C115.543 13.102 115.572 12.9507 115.338 12.8087C114.349 12.2511 113.349 11.5237 112.684 10.6309C113.116 10.0023 114.013 10.4994 114.592 10.5506L114.612 10.5901C114.592 10.7741 114.619 11.0313 114.792 11.1593C115.162 11.4806 115.314 11.9869 115.709 12.2977V12.2965ZM101.066 11.0371C101.249 9.51579 101.505 7.05165 101.103 5.39065C101.007 5.07638 100.726 4.91109 100.672 4.59565C100.603 4.02879 100.602 3.43167 101.011 3.001C101.192 2.67392 101.814 2.83688 101.886 2.42017C101.904 2.37594 101.927 2.34218 101.961 2.32822C102.434 2.20833 104.631 2.31541 106.543 2.37012C107.923 2.36896 108.719 2.55287 109.81 2.20251C109.965 2.19669 110.127 2.18737 110.281 2.21997C111.041 2.37361 111.78 2.22229 112.362 2.3352C112.686 2.41435 112.903 2.74376 113.257 2.74725C113.76 2.72746 114.254 2.7973 114.615 3.14882C114.745 3.27686 114.794 3.37813 114.827 3.5213C114.794 4.10212 114.914 7.44973 114.782 8.11087C114.391 8.56366 113.582 8.33319 113.022 8.40187C110.904 8.36811 108.618 7.90251 106.506 8.0259C105.988 8.11436 105.573 8.63932 105.575 9.1375C105.572 9.66013 106.279 9.97207 106.313 10.4959C106.337 10.6158 106.345 10.7473 106.351 10.8683C106.34 11.306 106.582 11.6284 106.586 12.0754C106.596 12.6364 106.466 13.2301 106.275 13.7422C106.187 13.9994 106.2 14.2602 106.321 14.5081C106.566 15.0074 107.101 15.2496 107.642 15.2263C108.291 15.2717 108.828 14.9597 109.46 14.827C110.423 14.6699 111.319 15.0261 112.238 15.0051C112.898 14.926 113.439 15.402 113.473 16.0434C113.614 16.523 113.684 16.6382 113.651 17.2027C113.609 18.0419 113.732 19.1733 113.601 19.9881L113.578 20.0219C112.976 20.5142 112.017 20.1243 111.227 20.2931C110.233 20.4211 109.162 20.349 108.093 20.243C106.572 20.0661 106.92 21.4384 106.994 22.429C107.122 23.742 107.213 24.8093 107.006 26.1386C106.97 26.4657 106.888 26.8521 107.02 27.1501C107.182 27.4062 107.506 27.5982 107.769 27.6599C108.181 27.6622 109.99 27.6599 111.659 27.6599C112.637 27.6576 113.362 27.6622 114.184 27.6599C114.718 27.6599 114.682 27.6203 115.146 27.9358C115.239 28.0033 115.298 28.0766 115.354 28.1732C115.695 28.832 115.672 29.577 115.659 30.3603C115.648 31.0285 115.7 31.3067 115.177 31.6512C114.43 32.2041 113.495 31.9469 112.523 31.9713C109.497 31.7676 106.213 31.6023 103.046 31.9108C102.545 31.9515 102.025 31.9806 101.531 31.9038C101.169 31.7897 100.732 31.4673 100.66 31.0809C100.621 30.6327 100.623 29.279 100.654 28.7704C100.648 28.4677 100.983 28.285 101.063 28.0964C101.068 27.0034 101.057 15.4032 101.065 11.0336L101.066 11.0371ZM110.501 12.8366L110.459 12.8797C109.857 13.0811 109.502 12.548 109.088 12.1627C108.658 12.0486 108.289 11.6505 108.08 11.3211C107.938 11.0662 107.817 10.6472 107.98 10.3841C108.239 10.2247 108.453 10.5797 108.632 10.7287C109.236 11.2536 109.948 11.7413 110.409 12.328C110.522 12.4607 110.561 12.6702 110.5 12.8355L110.501 12.8366ZM112.857 25.6416L112.818 25.6765C112.145 25.7359 111.748 24.9001 111.203 24.6359C111.064 24.5463 110.855 24.5707 110.749 24.4764C110.58 24.1226 110.4 23.8665 109.989 23.7257C109.445 23.515 108.639 23.1832 108.735 22.4977C108.831 22.351 109.003 22.3987 109.175 22.3789C109.303 22.3731 109.432 22.3615 109.537 22.3882C110.506 22.9062 111.737 23.948 112.536 24.8827C112.737 25.1026 112.985 25.3483 112.857 25.6427V25.6416Z" fill="var(--fill-0, white)"/>
<path id="Vector_2" d="M0.779032 26.0848C0.935675 26.4701 1.17123 26.9229 1.33376 27.2896C1.85669 28.6293 2.44086 29.6385 3.36423 30.7803C5.33228 33.5297 7.76319 36.0706 11.0256 37.3091C11.8442 37.635 12.4837 38.5127 13.3399 38.7652C15.679 39.4206 17.8932 39.9897 20.3853 39.9548C20.8823 39.9851 21.4123 39.9234 21.8375 40.169C22.1967 40.5089 22.8398 40.5392 23.3674 40.4612C23.7137 40.3937 23.9033 40.1027 24.2567 40.0701C24.6771 40.0212 25.2472 40.1539 25.6511 40.0514C26.0433 39.9513 26.3201 39.6161 26.6876 39.4613C27.2329 39.2192 27.8512 38.8258 27.8382 38.1798C27.8689 37.1892 27.8088 36.1824 27.605 35.1732C27.3601 34.313 27.6463 33.5169 27.5438 32.6648C27.3071 31.5509 26.8913 30.5184 27.0327 29.3777C27.0491 29.1182 27.0044 28.8458 26.9208 28.613C26.7394 28.1951 26.3378 28.0485 25.9585 27.7819C25.1046 27.3524 24.6971 26.469 23.9587 25.8998C23.3615 25.3608 22.8704 24.5903 22.3345 23.9187C22.1308 23.6731 21.8693 23.4426 21.5537 23.3832C21.0402 23.2552 20.6079 23.7604 20.244 24.013L20.2098 24.0479C19.376 25.4761 17.3679 26.3188 15.964 25.2072C15.4752 24.6799 14.5907 24.2504 14.414 23.552C14.0725 22.5778 14.1538 21.4219 14.228 20.4163C14.5177 19.662 14.5424 18.8821 14.8816 18.136C15.0712 17.7566 15.3892 17.4702 15.5954 17.0966C15.8403 16.6659 15.9663 16.3423 16.2101 16.1188C16.4151 15.9117 16.8002 15.7662 17.0888 15.6451C17.4421 15.481 17.5139 15.3821 17.8048 15.1388C18.0404 14.9467 18.2312 14.8385 18.4856 14.8024C19.3171 14.757 20.5585 14.6453 21.3805 15.1015C22.1626 15.353 23.0789 15.602 23.6784 16.0932C23.9681 16.3377 24.2331 16.716 24.6076 16.8172C24.8031 16.8661 25.0269 16.7975 25.2154 16.7299C25.445 16.6298 25.6982 16.6392 25.9079 16.6589C26.3849 16.702 27.0173 16.2876 27.0385 15.758C27.0315 13.9504 26.8713 11.989 26.4014 10.1895C26.2506 8.92545 26.6982 7.32265 26.2989 6.11095C25.9891 5.52198 25.087 5.80482 24.7395 5.6279C24.3803 5.41023 24.1224 5.03892 23.8091 4.72465C23.2756 4.11938 22.6678 3.55368 22.4217 2.87974C22.311 2.61668 22.2403 2.32452 22.0578 2.10569C21.8893 1.90549 21.8752 1.96136 21.7197 1.82634C21.2769 1.58772 20.9118 1.08604 20.4536 0.89166C19.7847 0.770606 19.1593 0.224699 18.4314 0.232847C17.3125 -0.0779358 16.1383 -0.101214 15.0559 0.307343C14.1538 0.448185 13.2115 0.46448 12.5014 1.08139C11.6416 1.53418 10.5792 1.51439 9.75598 2.03585C9.28016 2.29309 8.85027 2.60853 8.43217 2.96704C6.95053 4.29281 5.76806 5.87931 4.41127 7.32847C3.2865 8.73223 2.402 10.4782 1.41149 11.9902C0.873253 13.6791 0.542301 15.389 0.135971 17.1094C-0.127849 19.6073 -0.027739 22.3182 0.612967 24.6206C0.718966 25.1024 0.582345 25.6239 0.782565 26.0814L0.779032 26.0848ZM25.4297 36.769C24.8078 36.6154 24.4745 35.9298 23.9257 35.6574C23.4251 35.3897 22.9305 35.1464 22.6631 34.6482C22.596 34.5272 22.4417 34.3992 22.543 34.2595C22.6773 34.093 22.8634 34.0267 22.9964 34.0441C23.3239 34.0767 23.5924 34.5086 23.9033 34.767C24.4486 34.9043 24.7525 35.4572 25.2436 35.889C25.3355 36.0869 25.4262 36.5642 25.4568 36.7667L25.4297 36.769ZM22.5206 29.3335C22.6808 28.8283 22.6843 28.3022 23.3356 28.769C23.5665 28.9494 23.7632 29.1473 24.0694 29.4406C24.4863 29.862 24.8915 30.1029 24.5028 30.5871C24.4486 30.643 24.3839 30.7105 24.3332 30.7699C24.1966 30.9328 24.2673 31.3204 24.2779 31.5753C24.4109 31.8931 25.2778 32.7032 25.6346 33.177C25.6982 33.326 25.6994 33.4552 25.7571 33.7287C25.7936 33.9813 25.8726 34.1838 25.8007 34.2374L25.763 34.2583C25.2401 34.3782 24.9504 33.724 24.6453 33.4354C24.4875 33.3004 24.2567 33.298 24.0906 33.1793C23.7702 32.8441 23.0447 32.517 22.7279 32.1049C22.51 31.7336 22.7185 30.8804 22.6808 30.2752C22.6196 29.9365 22.3487 29.72 22.5206 29.3347V29.3335ZM25.4368 15.9512L25.4003 15.9862C25.1235 16.0665 24.9127 15.7487 24.7313 15.5834C24.3827 15.2726 23.126 14.0702 22.636 13.5593C22.4723 13.3567 22.3228 13.309 22.278 13.082C22.258 12.8911 22.3616 12.599 22.53 12.5117C22.7962 12.3767 23.0118 12.7154 23.1802 12.8702C23.9269 13.5278 24.4215 14.31 25.0552 14.9665C25.299 15.2144 25.5251 15.6055 25.4356 15.9512H25.4368ZM22.1296 4.75258C22.7432 4.65131 22.9882 5.39859 22.8881 5.86535L22.8763 5.89328C22.7032 5.95264 22.4994 6.06788 22.3251 6.09582C21.8658 6.1319 21.6903 5.10759 22.1296 4.75258ZM21.9047 6.94086C22.4924 5.93635 23.3969 8.82884 24.2343 8.60652L24.2567 8.62747C24.1919 9.11169 24.7584 9.4667 24.9633 9.86013C25.2742 10.5317 24.935 10.8483 24.4157 10.2279C23.4923 9.90203 22.9364 8.79741 22.1779 8.15955C22.0919 8.06876 21.9706 7.99893 21.9294 7.89999C21.8858 7.7801 21.9153 7.60666 21.8917 7.4472C21.8799 7.2598 21.8587 7.06774 21.9047 6.94086ZM12.0821 35.2244L12.055 35.2326C11.4213 35.3175 11.0433 34.6797 10.6499 34.2932C10.5839 34.2176 10.4662 34.157 10.5062 34.1175C10.5769 34.0476 10.8831 33.7438 10.9549 33.674C11.3837 34.0895 11.9596 34.0418 12.2634 34.5214C12.2705 34.7006 12.115 35.0498 12.0821 35.2244ZM21.4606 35.8239L21.5007 35.8518C21.6137 36.1626 21.45 36.6619 21.5325 36.9972C21.5596 37.1229 21.6915 37.2195 21.7233 37.3522C21.6868 37.912 20.9919 37.2579 20.7987 37.0996C20.3076 36.7772 19.6598 36.471 19.1145 36.2057C18.3737 35.9903 18.5091 36.5223 18.2548 36.9017C18.0875 36.8912 17.6199 36.6084 17.4503 36.4094C17.1936 36.1428 16.5105 35.4956 16.852 35.4153C17.4515 35.4642 18.1688 35.1953 18.6552 35.5678C19.1334 35.7098 19.7093 35.3187 20.2499 35.3862C20.4772 35.3932 20.734 35.4933 20.9495 35.5736C21.125 35.6656 21.2722 35.7924 21.4595 35.8239H21.4606ZM15.1101 15.41C14.6767 15.5112 13.9194 15.0654 13.5472 14.6883C13.3552 14.4276 13.2551 14.4287 12.9725 14.3054C12.6486 14.1087 12.3011 13.7979 11.9101 13.8305L11.8783 13.8002C11.7841 12.9493 12.6816 12.2393 13.4565 12.5594C13.9983 12.9819 14.8804 13.4871 15.0736 14.1971C15.2138 14.3915 15.4104 14.4974 15.4446 14.7442C15.4729 15.0014 15.3963 15.3553 15.1089 15.41H15.1101ZM11.9313 21.025C12.1092 21.2113 12.5591 21.4604 12.4731 21.7909L12.4601 21.8177C12.3906 21.8631 11.896 21.451 11.7193 21.4173C11.6027 21.4022 11.4107 21.4848 11.313 21.3742C11.1375 21.2217 10.8454 20.9016 10.6852 20.7329C10.5839 20.6304 10.4933 20.5455 10.4721 20.4081C10.4132 19.7318 11.0927 19.8028 11.4873 20.116C11.7205 20.2975 11.9231 20.4489 11.876 20.7433C11.8606 20.8597 11.8654 20.961 11.9325 21.0239L11.9313 21.025ZM12.0255 18.9473C11.9596 18.8728 11.8524 18.9147 11.7782 18.8915C11.7252 18.8705 11.6804 18.8204 11.6251 18.7762C11.1269 18.2641 10.2718 17.731 10.5215 16.9802C11.3872 16.6135 13.0679 18.6074 12.8594 19.463L12.8311 19.4862C12.4684 19.5328 12.2587 19.1638 12.0255 18.9473ZM11.1375 15.3553C11.0857 15.2971 11.0751 15.2575 11.0798 15.1597C11.0916 14.9153 11.0574 14.4579 11.0927 14.2355L11.1245 14.2216C11.4696 14.1482 11.8901 14.402 12.042 14.7151C12.0785 14.8257 12.0738 14.9316 12.1622 15.0224C12.565 15.5357 13.3046 15.9664 13.6344 16.5193C13.6202 16.6182 13.6014 17.078 13.5131 17.1455C13.4624 17.1734 13.3517 17.1408 13.2763 17.0826C12.6521 16.4459 11.7735 15.9699 11.1363 15.3564L11.1375 15.3553ZM20.1121 12.6234L20.0838 12.6595C19.4855 12.8632 18.6729 12.4186 18.5409 11.8086C18.4974 11.7516 18.4279 11.7143 18.3607 11.6934C18.0333 11.6142 17.8967 11.2581 17.5116 11.2941C17.2407 11.3058 17.0028 11.648 17.0464 11.8878C17.3243 12.5582 18.601 13.0774 17.5681 13.7664C17.2784 13.9911 16.9451 13.8014 16.6754 13.6943C16.0064 13.5313 15.6754 12.5827 14.9806 12.3836C14.2833 11.8133 14.6779 11.4443 15.2138 11.0008C15.3657 10.8879 15.5671 10.9543 15.7343 10.8542C15.9934 10.6644 16.3185 10.6994 16.6436 10.7017C16.9792 10.6679 17.1406 10.8425 17.4315 10.9217C17.693 10.9473 18.0074 10.8914 18.263 10.9089C18.5751 10.8868 18.8849 11.2103 19.1605 11.4152C19.2971 11.4978 19.4419 11.5293 19.5786 11.6247C19.8377 11.8366 20.1651 12.2998 20.1121 12.6246V12.6234ZM1.44212 18.0429C1.4692 17.7682 1.50689 17.504 1.55636 17.2572C1.607 16.837 1.99802 16.581 2.1052 16.1794C2.33251 15.2843 2.43262 14.2262 2.77535 13.3171C2.99206 12.6874 3.51499 12.0985 3.71638 11.442C3.77409 11.0264 4.12507 10.9275 4.33707 10.5911C5.56666 8.27362 7.36746 6.19475 9.40618 4.52677C10.869 3.28829 12.5909 2.65276 14.4588 2.15341C15.5977 1.76464 16.8956 1.69597 18.071 1.76581C18.6752 1.91131 19.2983 2.03702 19.7588 2.51076C20.6068 3.51993 19.959 5.01913 20.1757 6.27623C20.4866 7.13176 20.3747 8.49943 20.3665 9.35147C20.3842 9.7833 19.8565 10.0638 19.4726 9.88108C19.2476 9.7833 19.0886 9.58077 18.8872 9.44458C18.5798 9.21179 18.1711 9.24321 17.8402 9.16756C17.6011 9.1047 17.3785 8.99413 17.13 8.96735C16.6707 8.93826 16.0299 8.93127 15.5906 8.97667C15.3822 9.01042 15.2161 9.09306 15.023 9.13846C14.8086 9.19666 14.5613 9.16523 14.3552 9.24555C13.0749 9.82055 12.022 10.647 11.0256 11.6364C10.319 12.3662 9.73831 13.0355 9.21538 13.827C9.05756 14.3659 8.97394 14.92 8.79845 15.4496C8.6371 15.8372 8.67832 16.2678 8.66065 16.8231C8.65594 17.6646 8.64652 18.3421 8.94567 19.1114C9.06109 20.3942 9.14471 21.6617 9.67589 22.828C9.7336 23.076 9.75951 23.1435 9.935 23.3018C10.6652 23.9629 12.4648 25.9219 13.0019 26.2606C13.3022 26.3281 13.6509 26.4503 13.95 26.5865C14.4553 26.8077 15.0371 26.7949 15.5812 26.8484C16.7425 27.2058 18.0369 27.2442 19.1958 26.8216C21.4394 25.9184 20.6303 28.251 20.7292 29.5943C20.8965 30.1751 20.9895 30.7117 20.9671 31.3274C20.9954 32.2016 20.9777 32.8871 20.2652 33.3783C18.4373 34.1687 16.3491 33.4365 14.5448 32.9197C12.9524 32.4215 11.1717 32.2493 9.56753 31.7686C6.76916 30.7792 4.20398 28.4687 2.51271 26.1349C2.07575 25.6262 2.20766 24.6555 2.05338 24.1096C2.03453 24.063 2.00627 24.0316 1.97211 24.0048L1.93678 23.9804C1.80016 23.9105 1.62938 23.8011 1.61878 23.5381C1.5116 21.9329 1.27134 19.7644 1.43976 18.0429H1.44212Z" fill="var(--fill-0, white)"/>
<g id="Group_2">
<path id="Vector_3" d="M81.7481 39.3148C81.8176 38.7572 81.6527 38.1042 81.9766 37.6736C82.2299 37.3197 82.6798 37.5187 82.9059 37.8353C83.2003 38.2148 83.185 38.9085 83.6196 39.1786C84.3569 39.6221 85.3839 39.4766 86.2178 39.4393C88.1988 39.4079 90.1869 39.4579 92.1255 39.2996C92.6602 39.3811 93.1972 39.6046 93.7119 39.3683L93.7567 39.3357C93.9934 39.1448 93.9522 38.777 93.8568 38.5163C93.6754 37.9389 93.5988 37.1637 93.7166 36.5491C93.964 34.8928 93.62 32.7266 93.4304 31.1378C93.3268 30.3137 93.4328 29.3662 93.1843 28.5922C92.3269 26.9312 92.2385 24.687 91.2315 22.948C90.6097 22.0646 89.8347 21.6746 90.9241 20.6713C91.692 19.9729 92.1537 18.9893 92.2562 17.9837C92.2774 17.5879 92.48 17.2725 92.4705 16.8697C92.4329 15.1796 92.2256 13.1334 91.6049 11.6621C91.4588 11.0976 91.4164 10.462 91.0843 9.9359C90.7734 9.54364 90.519 9.13625 90.3447 8.666C89.9878 7.98507 89.333 7.67545 89.0868 6.98289C88.9961 6.82109 88.8996 6.72332 88.737 6.59063C87.9114 5.92017 86.7077 5.01809 85.7797 4.36393C84.5453 3.43857 83.2792 2.53299 81.7764 2.13724C80.8907 1.74498 79.8696 1.87999 78.9156 1.78571C74.9242 1.05357 70.5923 1.83925 66.5067 1.59947C65.8601 1.57736 65.449 2.1256 65.8483 2.63425C66.6032 3.41761 66.5184 4.32901 66.6221 5.31141C66.9259 8.78123 66.9813 12.4967 67.0579 16.0643C66.8093 19.8891 66.7222 23.9176 66.5726 27.7483C66.4972 28.463 66.7163 29.3045 66.522 29.9657C66.4525 30.1216 66.3441 30.2543 66.2581 30.4033C66.0379 30.7548 66.1357 31.3415 65.9343 31.7745C65.601 32.4985 64.8719 33.3866 65.3501 34.1816C65.568 34.5681 66.0803 35.1105 66.5738 35.3002C67.3382 35.6145 67.9859 36.108 68.5972 36.5969C69.1955 37.1172 69.908 37.6666 70.0812 38.2381C70.1389 38.4872 70.0812 38.7642 70.2096 39.0005C70.3379 39.2449 70.6006 39.4905 70.8373 39.6046C71.1176 39.728 71.4156 39.6791 71.7866 39.6744C72.5969 39.5918 73.2706 39.8083 74.0373 39.9817C74.9937 40.1621 76.0372 40.0132 76.9535 40.0085C77.9781 39.9584 81.3689 40.516 81.7481 39.3159V39.3148ZM79.0146 31.2775L78.9851 31.3077C78.4327 31.4102 77.9958 30.8678 77.5364 30.7083C77.0677 30.2974 76.6119 29.9564 76.6119 29.329C76.6037 29.0613 76.6508 28.8552 76.9593 29.0042C77.5388 29.5129 78.0723 30.0309 78.6553 30.4767C78.938 30.6513 79.0864 30.9562 79.0157 31.2775H79.0146ZM76.46 26.2945C76.3658 26.0407 76.5825 25.9837 76.765 26.0908C76.8875 26.1629 76.9688 26.2968 77.0818 26.3934C77.719 26.8509 78.3786 27.3083 78.812 27.9927C78.8461 28.0998 78.8402 28.2593 78.8202 28.3594L78.8096 28.3943C78.7354 28.4735 78.2843 28.1266 77.8391 27.7134C77.4422 27.3479 77.1301 27.0371 76.7874 26.6786C76.6555 26.5529 76.5247 26.4574 76.4588 26.2945H76.46ZM90.0267 32.6545L89.9925 32.6661C89.32 32.7872 88.6393 32.5893 88.2659 31.998C88.2294 31.8211 88.24 31.3799 88.2659 31.1855C88.2942 31.139 88.379 31.0482 88.439 31.0074C88.7947 30.7141 89.4378 31.132 89.4354 31.5848C89.6039 31.863 90.1409 32.5264 90.0255 32.6533L90.0267 32.6545ZM90.393 27.7751C90.5425 27.9264 90.7746 28.0486 90.91 28.1953C91.0207 28.3268 91.1244 28.6318 91.1962 28.7551L91.2009 28.7761C91.1856 28.7877 90.2622 28.4944 89.9525 28.4036C89.5532 27.9846 89.0197 27.2385 88.6298 26.7764C88.5439 26.6635 88.4944 26.6216 88.4496 26.5343C88.3966 26.5703 88.5745 26.3573 88.5945 26.3585C88.677 26.2898 88.7512 26.277 88.8077 26.3189C89.3612 26.8125 89.9195 27.2652 90.393 27.7751ZM86.7301 15.9805C86.8785 15.7837 87.1835 15.6569 87.4061 15.7802C87.6123 15.9339 88.4991 16.8208 88.8748 17.2271C89.0821 17.411 88.9867 17.4401 89.0951 17.6636C89.2423 17.8207 89.492 18.0081 89.4366 18.2456L89.4225 18.277C89.4013 18.2991 89.3601 18.2723 89.28 18.2595C89.0456 18.1909 88.6923 18.1676 88.4838 18.0523C87.9785 17.7125 87.5039 17.1991 86.9527 16.9361C86.8314 16.9023 86.6877 16.9466 86.6771 16.886C86.683 16.6928 86.6147 16.1155 86.7278 15.9805H86.7301ZM86.3956 18.1501C86.8597 18.7146 87.6229 19.079 88.1211 19.6074C88.273 19.7529 88.5545 19.9729 88.4226 20.1894C88.1211 20.2837 87.7583 20.2732 87.4733 20.137C86.7266 19.654 85.9587 18.9765 85.2767 18.3887C85 18.1268 85.0565 17.7218 85.3627 17.5332C85.4546 17.4668 86.1966 17.6834 86.2684 17.695L86.279 17.7194C86.2637 17.837 86.2884 18.0558 86.3956 18.1489V18.1501ZM69.2391 33.0514H68.4523C68.1979 33.0234 68.0743 33.1247 68.006 32.9629L67.9906 32.9292C67.6562 32.296 67.7598 31.5161 67.7692 30.7095C67.7574 30.0553 68.0872 29.45 68.1909 28.8063C68.3805 27.001 68.0319 22.9376 68.3404 21.3429C68.3758 21.1171 68.5972 20.9076 68.7173 20.7563C68.8763 20.4862 68.7927 20.3186 68.8304 19.8996C68.8857 17.9848 68.8787 13.2754 68.7939 12.4769C68.7456 12.2697 68.5312 12.151 68.4146 11.9298C68.3039 11.7145 68.3098 11.4689 68.2757 11.1523C68.1661 9.63676 68.3145 6.93982 68.2156 5.48018C68.1873 4.76434 67.8952 3.47465 68.934 3.5084C73.1434 3.53517 77.8957 2.71806 81.9672 3.92744C82.9719 4.32319 83.602 5.05184 84.2686 5.90387C85.1413 6.94564 85.6772 8.13871 85.9987 9.45983C86.2272 9.9813 86.3862 10.5144 86.193 11.0661C86.1106 11.4677 85.6631 11.4945 85.6183 11.9449C85.5806 12.3977 85.5005 12.8412 85.358 13.2486C85.338 13.3219 85.3674 13.5605 85.4216 13.6804C85.61 14.1309 85.4675 14.6058 85.1719 14.9887C84.9093 15.3263 84.4688 15.4776 84.1779 15.7977C83.5066 16.4577 82.4042 15.878 81.7069 16.3145C81.5291 16.4612 81.2547 16.751 81.0533 16.9454C80.793 17.17 80.7541 17.4343 80.7989 17.7497C80.9084 18.2456 81.4843 18.5633 81.9225 18.7333C83.1144 19.0219 84.3545 19.8367 84.9564 20.9751C85.3309 21.72 85.7773 22.3498 85.709 23.168C85.908 24.1458 86.4404 25.2504 86.2625 26.3026C86.2354 26.6402 86.2873 26.923 86.5181 27.1686C86.7572 27.4247 86.7313 27.6645 86.7831 28.1161C86.875 29.1893 86.935 30.976 86.8879 31.7349C86.8703 31.8886 86.8078 32.0038 86.7572 32.1563C86.6783 32.4007 86.6759 32.6859 86.4451 32.8232C85.9787 33.0898 85.5936 33.1003 84.9847 33.1096C84.046 33.1073 83.231 33.155 82.4112 32.8675C82.0438 32.8023 81.5703 32.9117 81.2335 32.8244C80.5362 32.4938 80.7788 31.5708 80.7494 30.919C81.0085 28.9693 80.6681 26.724 80.4302 24.7045C80.3018 23.977 79.6211 23.1447 79.2489 22.5383C78.2961 21.3848 76.6743 21.102 75.2622 21.0391C74.9324 20.9774 74.7298 20.776 74.4118 20.9541C73.744 21.2649 73.9066 21.7934 74.108 22.3335C74.7428 24.5636 74.698 27.3211 74.8629 29.7259C74.8052 30.252 74.6627 30.5465 74.6686 30.9993C74.6038 31.6127 74.8629 32.3914 74.5037 32.9164C74.4248 33.006 74.3624 33.0467 74.2599 33.0502C73.7134 33.0502 70.8903 33.0502 69.2379 33.0502L69.2391 33.0514ZM76.3775 36.5678C76.1797 36.5387 76.069 36.3687 75.8864 36.3466C75.4954 36.2779 75.0808 36.5247 74.7887 36.7249C74.7016 36.7668 74.6227 36.7377 74.5155 36.6935C73.9666 36.4176 73.3636 35.7774 72.9455 35.3002C72.7111 34.8102 73.4944 35.0965 73.8147 35.0092C74.4319 34.9836 75.1562 34.8602 75.7451 34.9848L75.7816 34.9964C76.0654 35.0895 77.2561 36.6958 76.3775 36.5678Z" fill="var(--fill-0, white)"/>
<path id="Vector_4" d="M74.8672 16.0153C75.409 16.0119 76.1121 16.0701 76.5809 15.8361C76.7375 15.7814 76.9236 15.7791 77.0896 15.7849C77.4088 15.8093 77.6114 15.7209 77.8929 15.608C78.3039 15.452 78.6749 15.2017 79.0071 14.9247C79.192 14.7478 79.2603 14.5522 79.3945 14.352C79.563 14.1064 79.8762 13.8026 79.9799 13.6036C80.1189 13.3382 79.9928 12.9995 80.1248 12.7096C80.166 12.5804 80.1872 12.4652 80.1624 12.3546C80.0729 12.1183 80.0388 11.8541 80.0458 11.5969C80.0388 11.3431 79.8044 11.186 79.7067 10.9613C79.6054 10.6901 79.6902 10.4096 79.5076 10.1582C79.2249 9.70191 78.7362 9.02448 78.2427 8.80332C77.6927 8.23763 77.0932 8.05023 76.297 8.16663C75.946 8.20969 75.5962 8.07234 75.2959 8.01414C75.0498 8.01647 74.5386 8.04324 74.3148 8.21435L74.2889 8.25509C74.2277 8.81846 74.0345 9.44817 74.0451 10.029C74.0604 10.3235 74.2029 10.519 74.23 10.8147C74.2524 11.4875 74.0899 12.2569 74.1382 12.8738C74.1817 13.578 74.1087 14.2775 73.8555 14.9398C73.8202 15.5591 74.177 16.0898 74.8696 16.0153H74.8672Z" fill="var(--fill-0, white)"/>
</g>
<g id="Group_3">
<path id="Vector_5" d="M38.2782 1.7088C37.621 1.6378 36.1653 1.43876 36.2159 2.46423C36.2265 2.79247 36.4361 3.06833 36.5728 3.35933C36.7647 3.82608 36.7907 4.33008 36.8342 4.88414C36.9497 8.15376 36.0463 11.6643 35.3149 14.8688C34.5423 18.1873 33.5353 21.5477 32.8228 24.8813C32.2409 27.7703 31.9889 30.7198 31.36 33.603C31.274 34.0116 30.8889 34.2665 31.0161 34.6134C31.1185 34.8939 31.3046 35.1453 31.4766 35.4049C31.9288 35.9124 32.2704 36.4478 32.5754 37.0403C32.791 37.3324 33.2738 37.5466 33.6813 37.9773C34.2137 38.6663 34.5305 39.31 35.2466 39.8722C35.4409 40.0468 35.6035 40.0876 35.7742 40.1353C36.0651 40.1783 36.4114 40.5962 36.76 40.6113C37.0521 40.6044 37.2453 40.3553 37.5114 40.2598C38.0638 40.1178 38.8718 39.6871 39.4077 39.8373C40.2992 40.0782 41.3309 40.1388 42.2296 40.098C43.0246 40.0084 44.0304 39.7651 44.763 39.9316C45.2046 39.9909 45.7617 40.389 46.181 40.1015C46.7487 39.6499 46.201 38.9794 46.0891 38.437C45.9961 37.7491 46.108 36.6329 46.9312 36.4606C47.4294 36.5118 47.7262 37.0565 48.1314 37.2917C48.6802 37.6932 49.5765 38.0727 49.7638 38.8223C49.9369 39.3356 50.3409 39.9118 50.8838 40.0596C51.2595 40.1516 51.5834 39.913 51.9391 39.8361C53.31 39.5661 55.1473 39.7605 56.6396 39.7302C57.9799 39.7081 59.2966 39.4893 60.6381 39.6487C61.2776 39.7651 62.4377 39.8839 62.3035 38.9259C62.254 38.6035 61.989 38.3753 61.8924 38.075C61.8253 35.3467 60.8206 32.7196 59.9456 30.139C58.9456 26.9078 58.3049 23.5102 57.2803 20.2813C56.7503 17.4551 56.2521 14.6162 55.4547 11.8389C55.1544 10.4573 54.6079 8.97902 54.8011 7.56129C54.9259 7.15739 55.0602 6.64408 54.7222 6.27859L54.6833 6.2425C54.582 6.14938 54.4513 6.06791 54.3417 5.97945C54.065 5.75946 53.8754 5.33693 53.6268 5.14255C53.1946 4.83176 52.6575 4.68044 52.2453 4.31495C50.9639 3.42334 48.7497 0.639104 47.0902 1.25834C46.6709 1.56796 46.2976 2.07197 45.7429 2.11154C44.8466 2.21048 42.3285 2.20233 40.7303 2.14995C40.3004 2.129 39.9494 2.13482 39.5513 2.07895C39.2687 2.04519 38.6833 1.78912 38.2782 1.71113V1.7088ZM42.7172 38.5138C42.6524 38.5732 42.3662 38.7175 42.2025 38.8165C42.1059 38.87 42.0765 38.8968 42.04 38.8677C41.9658 38.8014 41.563 38.3951 41.4322 38.2682C41.3109 38.1716 41.5759 37.9121 41.5488 37.8131C41.51 37.7037 41.4534 37.5803 41.3804 37.4895C41.0824 37.1997 40.715 37.088 40.4464 36.7004C40.258 36.4897 40.0802 36.2732 39.8128 36.1894C39.7186 36.1614 39.635 36.1684 39.6138 36.1044C39.602 36.0136 39.5784 35.6342 39.635 35.5829C39.8422 35.4968 40.0048 35.5061 40.1956 35.5306C40.6667 35.6016 40.8504 36.2383 41.3474 36.1649L41.3698 36.1871C41.3792 36.2604 41.3545 36.4629 41.4358 36.5339C41.7761 36.9588 42.3132 37.4791 42.6642 37.8923C42.7242 37.9668 42.7513 37.9924 42.7596 38.0855C42.7572 38.2135 42.7725 38.4498 42.7172 38.515V38.5138ZM54.953 29.6676C54.8717 29.401 54.8093 28.8947 54.7457 28.6095C55.715 28.3605 56.4182 29.4732 56.3216 30.3136L56.2957 30.3392C55.7822 30.3928 55.2663 30.0494 54.953 29.6688V29.6676ZM58.3744 34.9602C57.6572 34.3375 56.8421 33.7811 56.1755 33.021C56.026 32.8104 55.9942 32.2039 55.9247 31.9176C55.9235 31.8745 55.9836 31.8827 56.1131 31.8815C56.278 31.885 56.4606 31.8733 56.49 31.8885L56.5053 31.9106C56.5053 31.9781 56.4912 32.1888 56.5736 32.2772C57.0801 33.0117 57.9728 33.5879 58.4616 34.3433C58.5864 34.5668 58.9315 35.1919 58.3733 34.9602H58.3744ZM57.4051 27.4258C57.901 27.8227 58.4262 28.4745 58.2731 29.1287L58.2402 29.1624C57 29.4255 56.278 27.4956 55.3134 26.9497C55.0967 26.7798 54.8211 26.7181 54.5914 26.5796C54.0697 26.1605 53.6363 25.291 54.1945 24.7603C54.4807 24.5601 54.7057 24.9698 54.9012 25.1258C55.7551 25.9068 56.5465 26.7239 57.4051 27.4258ZM56.4264 23.1633C56.7032 23.6021 57.0942 24.5414 57.1001 25.0967L57.0848 25.1153C57.0518 25.1339 56.9352 25.0943 56.7656 25.0594C56.4217 24.9709 56.2556 25.0012 56.0613 24.7614C55.3735 23.9967 54.6103 23.4054 53.8671 22.7803C53.3878 22.3147 53.323 21.7199 53.3536 21.0192C53.3595 20.8586 53.4196 20.7934 53.5585 20.8935C54.4171 21.5244 54.9153 22.6674 56.0012 22.8863C56.1967 22.9398 56.3122 22.9759 56.4264 23.1633ZM55.92 20.7806L55.8834 20.8155C55.5796 20.8958 55.2333 20.8016 54.9848 20.5851C54.0014 19.6911 52.4137 19.1173 52.3713 17.6646C52.3725 17.4621 52.4514 17.5191 52.6234 17.5541C52.8578 17.6227 53.1275 17.6262 53.3418 17.7473C53.6728 17.9684 53.9013 18.4899 54.125 18.7471C54.5267 19.0684 54.9989 19.4676 55.397 19.8459C55.695 20.0729 56.0589 20.3767 55.9211 20.7806H55.92ZM55.1921 16.7777C55.3122 17.0163 55.3676 17.1339 55.2168 17.3958C54.9047 18.4329 53.6422 16.5577 53.2523 16.2911C53.0639 16.1293 52.7706 16.0258 52.5127 16.013C52.2595 16.0025 52.0239 15.9815 51.8837 15.7487C51.5563 15.3472 51.5681 15.2075 51.5669 14.7559C51.5257 14.622 51.4197 14.5265 51.375 14.3927C51.2984 14.1424 51.4268 13.7374 51.6529 13.6384L51.7059 13.6315C52.2759 13.8561 52.654 14.4101 53.0992 14.8129C53.363 15.0317 53.5409 14.9677 53.7611 15.2319C54.1922 15.6847 54.9353 16.1829 55.1933 16.7765L55.1921 16.7777ZM54.1592 13.8037L54.1297 13.827C53.4608 13.4999 53.1063 12.6793 52.4773 12.2719C51.9273 11.8459 51.0558 12.1427 50.6918 11.5095C50.448 11.1173 50.3232 10.4864 50.7554 10.1756C50.8461 10.1139 50.9427 10.1244 51.0181 10.1942C51.2784 10.4456 51.5151 10.7285 51.7778 10.9752C52.5409 11.6422 53.257 12.3371 53.9708 13.1868C54.1415 13.3474 54.2263 13.5919 54.158 13.8026L54.1592 13.8037ZM50.2408 4.39993C50.8603 4.90742 51.3655 5.10414 51.839 5.76178C52.1346 6.11214 52.952 6.32282 52.7541 6.90597L52.72 6.93857C52.6811 6.96534 52.6269 6.96999 52.5645 6.95719C51.9155 6.78259 51.2713 5.93056 50.633 6.37287C50.3962 6.52303 50.4669 6.79656 50.6436 6.95952C51.2772 7.56828 51.7 8.269 52.3796 8.83935C52.8907 9.31891 53.6975 9.69138 53.754 10.1581C53.7434 10.342 53.4973 10.5667 53.3194 10.5248C53.0474 10.4759 52.7635 9.92184 52.4232 9.79264C51.7895 9.48535 51.1712 8.90569 50.6483 8.38306C50.5034 8.23291 50.4469 8.07228 50.3562 7.91747C50.2608 7.73822 50.0723 7.60785 50.0052 7.41813C49.8733 6.99676 49.8874 6.46832 49.7178 6.04928C49.4151 5.42888 48.9912 3.53393 50.2396 4.39993H50.2408ZM40.0154 3.3279C40.7562 3.33023 45.6757 3.32208 46.3047 3.33255C46.7322 3.53276 47.1527 4.02745 47.2339 4.52214C47.7415 6.01204 48.1714 7.52987 48.5283 9.08495C50.4327 15.3763 51.5728 21.9842 53.2217 28.3407C53.5079 29.3813 53.8282 30.4358 54.1215 31.4857C54.3841 32.0538 54.5867 32.7813 54.178 33.3097C53.8542 33.6251 53.343 33.5821 52.9225 33.6461C51.9756 33.7834 50.8838 33.9615 49.8733 33.8568C49.4552 33.7322 49.0371 33.6601 48.6319 33.5308C48.1596 33.2666 48.0124 32.7696 47.8358 32.2644C47.5295 31.6801 47.8464 30.9282 47.5978 30.3718C47.4165 30.1134 46.9289 29.621 46.6556 29.4523C46.5744 29.4197 46.5885 29.4045 46.4048 29.3859C45.2635 29.7118 43.6406 29.6455 41.9505 29.6234C41.6348 29.6048 41.4358 29.6187 41.1943 29.564C40.9529 29.4558 40.7032 29.4045 40.364 29.5198C39.5478 29.7398 39.1591 30.6302 39.1921 31.4846C39.2616 32.0992 39.158 32.5869 38.8141 33.1025C38.6715 33.3109 38.5184 33.4238 38.423 33.4401C37.8353 33.4133 33.7025 33.5215 33.1478 33.4051L33.1184 33.383C32.7438 33.0373 33.076 32.5613 33.0772 32.1411C33.0618 31.8082 33.3127 31.5998 33.4517 31.3309C33.6142 30.8735 33.5671 30.2915 33.6554 29.8026C34.4292 25.3527 35.2042 20.9599 36.6234 16.7044C37.7081 12.9168 38.2699 8.99765 38.8046 5.09831C38.9436 4.7433 38.966 4.36966 39.2039 4.02745C39.3146 3.87963 39.5007 3.71434 39.635 3.57932C39.8458 3.39774 39.8528 3.32324 40.0154 3.33023V3.3279Z" fill="var(--fill-0, white)"/>
<path id="Vector_6" d="M40.8136 24.4648L40.8454 24.4892C42.0714 24.58 45.9793 24.5043 46.3632 24.5195C46.5764 24.4554 46.8426 24.282 47.0157 24.0632C47.2265 23.6767 46.905 23.3078 46.8296 22.926C46.7613 22.7584 46.6506 22.5884 46.6329 22.4138C46.6035 22.2194 46.6636 22.0099 46.5894 21.8179C45.6683 19.4492 45.103 16.6288 44.573 14.1205C44.4811 13.7759 44.1219 13.606 44.1031 13.2579C44.0913 13.1648 44.0866 13.0589 44.0831 12.9448C44.0713 12.5374 44.0937 11.9217 44.1314 11.5981C44.1714 11.1814 44.3045 10.1827 43.7486 9.97204C43.5083 9.88124 43.2127 9.98018 43.0066 10.1583C42.804 10.3515 42.5213 10.4469 42.4059 10.575C42.2587 10.7286 42.4095 11.2897 42.34 11.6098C42.2728 11.9322 41.9419 12.0998 41.8971 12.4176C41.7558 13.0775 41.7181 14.0052 41.6274 14.7641C41.2058 17.2795 40.8595 19.8519 40.4473 22.3894C40.3484 23.0517 40.1729 24.0283 40.8124 24.4659L40.8136 24.4648ZM42.9712 18.3119C43.8758 18.1443 44.2421 19.3083 44.1314 20.0172L44.1007 20.0393C43.1797 20.101 42.7286 19.0755 42.9712 18.3119Z" fill="var(--fill-0, white)"/>
</g>
</g>
</svg>
