<svg preserveAspectRatio="none" width="100%" height="100%" overflow="visible" style="display: block;" viewBox="0 0 134.971 82.188" fill="none" xmlns="http://www.w3.org/2000/svg">
<g id="Group">
<path id="Vector" d="M91.434 14.9749C90.9955 19.7126 91.0783 24.3798 91.4535 29.0007C91.4657 32.4828 90.9054 36.145 91.2221 39.3668C91.339 40.3328 91.3756 41.4303 91.1563 42.3793C90.1404 48.7814 91.1149 56.2567 91.3561 62.289C91.3878 63.4716 91.4901 64.8026 91.2976 65.922C91.1734 66.6495 90.2037 67.399 90.0916 68.1047C89.9844 68.6084 90.1087 69.1559 90.2744 69.6304C90.4644 70.173 90.8396 70.4042 91.2952 70.6208C93.3368 72.565 95.6269 75.5994 97.3884 77.7821C98.3215 78.8479 98.9305 81.0331 100.68 81.274C101.832 81.5733 102.889 82.9919 103.879 81.5563C104.982 80.1352 107.041 80.8579 108.612 80.5902C111.96 80.3128 115.675 79.6923 118.971 79.3833C120.004 79.2884 121.798 79.7726 121.734 78.2055C120.85 74.7185 122.338 70.9176 120.977 67.545C120.545 64.9827 120.835 62.1624 120.392 59.605C120.202 58.6462 120.168 57.3298 120.962 56.6825C121.391 56.2956 121.995 56.1837 122.563 56.1812C123.617 56.2299 124.962 55.7505 126.144 55.5194C127.533 55.1836 129.138 55.4537 130.556 55.3442C130.895 55.2882 131.199 55.1519 131.377 54.9037C131.565 54.6458 131.633 54.2905 131.643 53.9645C131.884 51.132 131.448 48.2631 130.887 45.6448C130.695 43.6665 131.099 41.1626 130.941 39.2889C130.783 37.9773 129.874 36.8045 128.609 36.1937C127.966 35.7752 126.897 35.488 126.461 34.9405L126.414 34.8578C126.12 33.8917 125.23 33.2883 124.358 32.4755C123.408 31.7163 123.34 30.9303 124.468 30.6651C126.634 29.7088 128.994 30.3147 131.253 30.1906C132.751 29.9254 134.705 28.8912 134.902 27.2389C135.151 23.9199 134.69 20.7662 134.13 17.4447C134.035 16.2572 134.201 14.6025 134.218 13.145C134.247 11.9064 134.191 10.8065 133.121 10.0132C132.644 9.70664 132.052 9.84535 131.513 9.78938C128.902 9.28324 127.228 6.20748 125.286 4.73774C125.006 4.46764 124.836 4.1659 124.78 3.7863C124.801 -0.486671 123.566 0.0608339 120.009 6.78886e-08C112.289 0.338236 104.342 0.214137 96.6672 0.442872C94.9009 0.440439 92.9397 0.24577 91.2732 0.389338C90.7129 0.442872 90.1306 0.618074 89.8602 1.04391C89.105 2.25572 91.0735 3.46266 91.2903 4.43843C91.7045 7.44606 91.4998 11.5779 91.4219 14.9724L91.434 14.9749ZM125.15 8.29773C125.747 8.3099 126.081 9.05694 126.495 9.43654C126.911 9.99865 127.745 10.0814 128.417 10.2055C129.075 10.4926 129.55 11.2348 130.105 11.7336C130.9 12.5196 131.465 13.218 131.206 14.2838L131.131 14.3616C130.624 14.532 130.249 13.9723 129.908 13.6535C129.089 13.0306 128.251 12.4296 127.647 11.7896C126.758 10.9038 126.051 9.73097 125.184 8.8209C125.087 8.6603 125.043 8.37073 125.152 8.2953L125.15 8.29773ZM124.892 12.6997C125.035 12.7727 126.424 14.1159 127.852 15.4275C129.338 16.8193 130.792 18.1431 130.817 18.199C130.995 18.8098 131.652 20.7711 131.599 20.8222L131.535 20.8441C131.384 20.866 131.043 20.8222 130.87 20.6738C129.301 19.2405 127.842 17.7148 126.232 16.4373C125.788 16.1185 125.445 15.6489 125.221 15.15C124.572 14.0867 123.561 13.7387 124.887 12.6997H124.892ZM112.145 72.7767L112.121 72.8035C112.013 72.7986 109.321 71.8739 108.727 71.6841C108.41 71.5917 108.452 71.5114 108.352 71.8569C108.296 72.0443 108.21 72.329 108.125 72.6137C108.04 72.8984 107.955 73.1806 107.898 73.3705C107.823 73.6138 107.828 73.6576 107.752 73.5773C107.645 73.4702 107.365 73.1879 107.012 72.8375C106.393 72.2195 105.63 71.453 105.029 70.8519C104.868 70.6646 104.729 70.6305 104.804 70.5015C105.884 69.0829 107.533 70.5453 108.802 70.7765C109.453 70.8811 110.386 70.4723 110.944 70.9517C111.275 71.234 112.303 72.3314 112.145 72.7791V72.7767ZM117.317 63.8317C117.171 63.7052 116.348 62.7075 116.072 62.4228C115.909 62.25 115.699 62.2841 115.424 62.2841C115.168 62.289 115.027 62.2233 114.83 62.0359C114.384 61.6393 113.575 60.7681 113.178 60.1719C111.875 58.2812 112.023 55.8381 112.113 53.6043C112.145 53.2345 112.033 52.7551 112.228 52.541C112.586 52.2441 113.246 52.5677 113.573 52.8573C114.018 53.159 114.082 53.6725 114.321 54.0813C115.022 54.8137 116.732 56.6022 115.117 57.2641C114.766 57.4198 114.094 57.3225 113.819 57.4174L113.76 57.4807C113.558 58.4808 114.325 59.128 115.027 59.8045C115.729 60.4785 116.845 61.284 117.327 62.0456C117.402 62.0773 117.451 64.0239 117.325 63.8293L117.317 63.8317ZM118.577 50.2852C118.002 50.7865 117.008 51.6552 116.352 52.0762C115.836 51.8158 113.526 49.9154 112.747 49.0248C112.196 48.5405 112.457 47.645 113.032 47.2557L113.093 47.2168C113.943 47.1754 115.366 47.2168 116.25 47.2022C116.849 47.5112 117.366 48.2047 117.853 48.7036C118.17 49.0832 118.645 49.8497 118.579 50.2852H118.577ZM120.631 24.4722C120.004 24.28 118.925 23.9491 118.219 23.7325C117.205 23.3115 116.284 21.8807 116.628 21.3892C116.854 20.8928 117.77 20.6446 119.183 20.8222C119.344 20.9025 120.036 21.6593 120.177 21.7785C120.173 21.9367 120.007 22.0462 119.909 22.1508C119.775 22.2749 119.853 22.27 119.909 22.4817C120.048 22.8589 120.604 24.3992 120.633 24.4674L120.628 24.4747L120.631 24.4722ZM127.952 47.1657L127.905 47.1924C125.479 46.3043 123.924 43.3964 121.968 41.8245C121.676 41.5033 121.742 41.0969 121.583 40.5762C121.476 40.0384 121.322 39.8705 121.768 39.8315C122.991 39.7415 123.846 40.693 124.587 41.5933C124.809 42.1238 124.663 42.17 125.15 42.5764C125.99 43.411 127.221 44.4963 127.915 45.3066C128.125 45.6108 127.942 46.752 127.954 47.1608L127.952 47.1657ZM122.679 34.3735C123.169 34.5609 123.24 34.5414 123.552 34.7945C123.91 35.0817 124.207 35.4929 124.46 35.8822C125.269 37.6634 127.905 38.4713 127.547 40.6613L127.486 40.7051C126.787 40.4788 126.146 39.997 125.564 39.4325C125.101 38.9288 124.77 38.6441 124.131 38.4421C123.042 38.1112 122.083 36.7753 121.13 36.1012C121.011 36.0039 121.037 35.8968 121.035 35.5634C121.052 35.0743 120.998 34.264 121.057 33.8066C121.481 33.8917 122.124 34.1959 122.679 34.376V34.3735ZM94.1919 62.4934C94.3552 60.9871 94.438 59.4736 94.4453 57.8019C93.8947 44.8637 94.5939 31.4681 95.0154 18.4643C94.9228 14.2838 94.3698 10.2907 94.4794 6.15395C94.4161 4.97134 94.8083 4.34597 95.7487 3.7863C96.3212 3.42129 96.9717 3.27042 97.6515 3.31423C100.412 3.36046 103.118 3.02953 105.869 3.26313C109.823 3.5016 113.753 3.29962 117.688 3.32639C118.448 3.27529 119.249 3.59163 119.617 4.2973C120.019 5.58211 121.03 6.69658 121.115 7.82079C121.12 10.5023 121.595 13.4564 120.492 15.627C120.307 16.0626 120.182 16.3278 119.773 16.3448C118.319 16.3181 111.37 16.4276 110.184 16.284L110.103 16.2524C109.312 16.0042 108.688 14.897 107.801 14.7996C106.788 14.8191 106.376 16.4227 105.764 17.0967C105.15 17.7367 105.038 18.8999 105.282 19.6591C105.494 20.1701 106.02 19.8854 105.991 20.3988C105.991 23.0195 105.991 27.312 105.991 29.7745C105.996 30.2271 105.979 30.5483 106.001 30.9474C106.096 31.4365 106.68 31.709 107.18 31.9402C108.566 32.5899 109.843 31.9621 111.212 31.7455C112.53 31.7042 113.916 31.821 115.259 31.8137C116.158 31.709 117.144 32.2225 117.317 33.1593C117.468 35.4345 117.505 37.7705 117.203 40.036C117.21 40.7684 117.563 41.7174 117.278 42.4158C116.806 43.4694 115.804 43.3696 114.854 43.1117C113.339 43.0217 111.032 43.2456 109.735 43.54C109.221 43.6982 108.676 43.9901 108.342 44.4282C107.743 45.6375 108.067 47.2119 108.062 48.5381C108.629 53.4608 108.303 59.1572 107.986 64.4133C107.962 65.1652 108.11 66.1458 107.482 66.54C105.284 67.3406 102.517 66.1507 100.2 66.2359C98.492 66.1969 96.4504 66.7882 94.9252 65.8976C94.1115 65.0484 94.0847 63.6297 94.1919 62.4934Z" fill="var(--fill-0, white)"/>
<g id="Group_2">
<path id="Vector_2" d="M59.5649 78.2907C61.1875 77.9184 62.715 76.9231 64.228 76.0496C67.5097 73.7987 72.219 70.9785 74 67.1703C74.3191 66.7371 75.4325 66.5035 75.759 66.0533C75.9734 65.7492 75.9514 65.3209 76.0099 64.9535C76.1074 63.7222 76.7798 62.8632 77.4181 61.7828C78.8969 59.2789 79.8008 56.2202 80.7899 53.3853C81.1578 52.3609 81.2503 51.4459 81.3746 50.4969C81.5183 49.857 81.818 49.2973 81.857 48.6403C82.0251 45.6813 81.9301 42.2284 81.265 39.267C80.8995 37.571 79.9616 35.724 79.4232 33.8869C78.3731 29.536 76.1512 26.4578 73.1741 22.7299C71.9291 21.0753 70.5453 20.136 69.0104 18.7636C66.5961 16.5006 64.7932 13.6122 62.2765 11.7434C57.8668 9.1932 53.3767 5.99335 48.4384 4.4506C47.6052 4.1148 46.4796 3.8885 45.8242 3.29476L45.7292 3.23879C40.0892 1.53544 32.7292 1.25804 26.7456 2.82025C25.8954 2.96139 25.374 3.67679 24.5749 3.93716C22.5479 4.363 20.4746 4.17806 18.6791 5.46774C17.6558 6.09311 16.8348 6.56031 15.8871 7.37548C12.7686 10.1276 9.41143 13.2715 7.32596 16.3083C5.30628 19.1432 3.86644 22.8492 2.70676 25.7546C2.26579 26.38 1.63967 27.1051 1.49106 27.9057C0.548211 31.6969 -0.160777 37.0892 0.0316901 41.2259C0.233902 42.1189 0.587167 43.1141 0.521387 44.0948C0.760144 47.2411 0.701698 50.9203 2.22194 53.872C3.55459 56.2956 5.21125 59.4882 7.43558 61.065C7.91066 61.6246 7.92772 62.6321 8.44421 63.2647C9.75981 64.844 11.4384 66.0193 12.7102 67.6764C15.9066 71.4846 20.3796 73.3996 24.5335 75.7089C28.2172 77.3757 32.3369 78.0546 36.1522 79.4733C37.4629 80.0208 38.4593 80.3955 39.9187 80.3834C44.2626 80.5026 48.8111 80.1692 52.7506 79.4976C55.1114 78.9866 57.2383 78.663 59.5649 78.2931V78.2907ZM63.8845 72.8862L63.8333 72.9057C63.4776 72.8716 62.62 72.9957 62.2156 72.9373C61.5944 72.7718 60.2398 71.0369 59.4967 70.3507C59.1288 70.01 58.9607 69.6937 58.6538 69.6669C58.5368 69.6499 58.4077 69.6352 58.298 69.5647C57.8254 69.2045 56.8509 68.2312 56.9849 67.8686C57.2626 67.6521 58.4247 67.3552 58.778 67.2262C59.3432 67.6083 60.4639 68.623 61.2508 69.2483C62.1328 69.9808 62.8564 70.5818 63.5531 71.1634C63.692 71.2924 63.6969 71.2267 63.7261 71.47C63.7602 71.8496 63.9235 72.8497 63.882 72.8862H63.8845ZM66.6423 70.0733C66.1795 69.8981 64.8395 68.7008 63.3095 67.5645C62.43 66.8831 61.8161 66.4062 61.1729 65.9074C60.7563 65.6908 61.358 64.9194 61.6114 64.8002L61.704 64.7661C63.7432 64.3111 65.6605 66.6885 67.2563 67.9489C67.5365 68.1655 67.8824 68.5208 67.9604 68.859C68.2138 69.6596 67.3099 70.1633 66.6448 70.0733H66.6423ZM75.7029 58.3518C75.6688 58.6681 74.9525 58.948 74.7528 59.0769C74.5384 59.1329 73.4031 58.7606 73.2691 58.729L73.2277 58.6876C73.1667 58.6097 73.1521 58.4394 73.157 58.3104C73.0985 57.8262 72.3238 57.6899 71.8853 57.5025C71.2981 57.2689 71.0715 56.3662 70.4186 56.264C70.2042 56.2445 70.0166 56.281 70.002 56.1204C69.9825 55.9647 70.002 55.7019 69.868 55.5486C69.1201 54.8551 69.8899 53.8671 69.9776 53.0641C70.0069 52.8354 69.9776 52.631 70.0702 52.6018C70.2578 52.5872 71.2908 52.867 71.6465 52.9303C72.3116 53.3293 72.7891 54.1226 73.4372 54.546C74.6285 55.3709 75.7078 56.079 75.7127 57.7215C75.7273 57.9381 75.7297 58.1815 75.7054 58.3518H75.7029ZM73.4396 51.3389C73.347 51.1539 73.0863 50.84 72.8013 50.6892C72.4553 50.475 72.0607 50.3363 71.8195 50.2536C71.5149 50.166 71.5953 50.1806 71.4881 49.7645C71.4345 49.5576 71.3517 49.3021 71.2031 49.0953C71.074 48.8787 70.7231 48.7741 70.8766 48.6111C71.2664 48.0782 71.627 48.049 72.107 48.4018C73.2861 49.2194 74.6651 51.0761 75.7078 52.1735L75.7273 52.2003C75.1475 51.9569 74.0389 51.6722 73.4372 51.3413L73.4396 51.3389ZM78.3219 49.7548C77.7251 49.8789 77.4302 49.144 76.9893 48.8812C75.0329 47.2898 69.7121 45.1606 72.1703 42.0946L72.258 42.0386C72.7599 42.0459 73.4372 42.4766 73.8124 42.7589C75.2059 44.0072 77.0867 45.876 78.4462 47.3263C78.7093 47.6645 78.8993 47.7059 78.9749 48.1001C79.0528 48.6232 78.8799 49.6209 78.3244 49.7548H78.3219ZM77.2621 38.975C77.7055 39.4811 78.1977 40.3182 78.5705 40.9436C78.9213 41.5495 79.1771 42.1554 78.8238 42.7759C78.6192 43.0655 78.4876 43.3258 78.2488 43.2772C77.6349 42.8319 74.4019 40.4934 72.9475 39.4398C72.6186 39.1867 72.4651 39.1551 72.0996 38.6879C71.8536 38.3448 71.7586 37.9992 71.571 37.7535C71.3882 37.5296 71.1592 37.3203 70.9936 37.0819C70.4357 36.2569 70.9546 35.2009 71.7464 34.7653H71.8438C72.1167 34.8967 72.509 35.1133 72.8111 35.2812C73.3665 35.6754 73.7417 36.3154 74.2874 36.7266C75.4983 37.6561 76.3534 37.9141 77.2621 38.975ZM69.5781 28.6235C69.6122 28.3631 69.5391 28.0298 69.6585 27.9008C71.6538 27.329 72.6746 29.6504 74.1486 30.9717C74.2972 31.1177 74.4361 31.2734 74.5774 31.3781C74.7918 31.5216 75.0938 31.4511 75.3204 31.6847C76.0391 32.3027 76.8675 33.2931 76.887 34.2494L76.8334 34.3103C75.4861 34.5925 74.1632 33.7993 73.062 33.1277C72.6746 32.9768 71.9657 32.9525 71.5637 32.7651C71.0935 32.5412 70.5355 31.8599 70.1798 31.5143C69.8631 31.2515 70.0166 30.9401 69.9776 30.5994C69.8997 30.3293 69.6122 30.1736 69.5635 29.9035C69.5026 29.502 69.561 29.0421 69.5781 28.6235ZM70.0361 63.5178C70.4795 63.9412 70.6184 63.9193 71.1885 64.1772C72.5699 65.1117 71.1324 66.8953 69.6317 66.4573C68.8472 66.0534 68.1066 65.2771 66.8884 64.5179C65.7409 63.693 63.6092 62.4423 65.2658 61.1428L65.3584 61.1136C65.7555 61.0285 66.4255 61.1258 66.8811 61.1355C67.2733 61.0942 67.5486 61.2304 67.8288 61.503C68.5548 62.1162 69.3272 62.9095 70.0386 63.5154L70.0361 63.5178ZM24.4531 72.5017C23.7368 72.0637 22.6916 71.4238 21.9681 70.9833C21.8073 70.8982 21.8584 70.8763 21.6782 70.8787C21.4662 70.8471 21.0423 70.959 20.8912 70.8008C20.672 70.5575 19.1639 69.37 19.198 69.2508C21.3054 69.0658 24.6748 69.735 24.4628 72.4482L24.4555 72.5017H24.4531ZM35.0169 75.7405C34.7708 75.7673 34.4736 75.7527 34.2275 75.7576C33.7208 75.7576 33.3407 75.2977 32.9631 75.0373C32.4417 74.5068 31.74 74.2854 31.3892 73.9666C31.2552 73.7233 31.1042 73.1466 30.9677 72.947C31.2357 72.8911 32.6195 73.2463 33.0483 73.2877C33.616 73.3656 34.169 74.794 34.9827 74.5433L35.0339 74.5506C35.0242 74.5798 35.0558 75.7113 35.0169 75.7405ZM47.2324 76.5168L47.1959 76.5898C46.5235 76.8526 45.5051 75.6846 45.1104 75.4339C44.9983 75.2441 44.4672 75.4023 44.1944 75.3463C43.9385 75.2904 42.5231 73.8133 42.0991 73.1271C41.4706 72.3046 42.4768 72.4068 42.9616 72.492C43.8801 72.7061 44.5598 73.3802 45.3833 73.7354C46.1361 74.5385 47.459 75.2636 47.2373 76.5143L47.2324 76.5168ZM45.9144 68.0536C45.2298 68.275 44.2772 68.3504 43.5439 68.4794C41.5827 68.7836 37.7918 69.0658 34.8463 69.0415C31.5963 69.2678 28.7483 67.0997 25.7394 66.2286C23.9731 65.6397 21.9096 65.5156 19.8655 65.1092C16.7081 63.9777 10.9682 60.3982 9.29448 58.8239C8.90223 58.3129 8.5636 57.7361 8.02518 57.3517L7.93991 57.2689C7.5428 56.8212 7.03118 56.4805 6.59995 56.0352C5.74481 54.6288 5.00661 52.9741 4.34151 51.4411C3.32801 49.1099 3.93951 45.9904 3.60574 43.2845C2.83831 40.7684 3.40841 38.1331 3.73243 35.269C4.42678 31.1639 5.40129 27.6064 7.4161 24.628C9.56979 20.5472 11.3239 16.6879 14.267 13.4516C16.8251 10.5388 20.5209 8.40723 24.1632 7.09565C25.1036 6.81095 26.0854 6.87179 27.0697 6.56762C28.1392 6.23425 29.0869 5.83518 30.1906 5.73055C33.8937 5.32418 37.7382 4.66474 41.3537 5.32174C44.516 6.14665 47.5199 6.19044 50.1852 7.55798C53.2257 9.13966 56.3953 12.2057 58.7731 14.3787C60.1107 15.8314 61.894 17.452 62.6761 19.1991C62.793 19.5714 62.8832 19.9924 62.966 20.3647C63.1487 21.2845 63.8333 22.1678 64.2767 23.0098C65.5387 25.2704 65.6094 27.0102 66.1405 29.2392C66.4109 30.3463 67.3854 30.9449 67.3879 32.1178C67.6559 34.5293 67.8727 37.3203 67.171 39.6174C67.1077 40.6929 67.3952 42.1213 67.0931 42.9122C66.9176 43.3234 66.5547 43.6324 66.4182 44.068C66.2672 44.5401 66.3719 45.0681 66.3159 45.5572C66.2794 46.3456 65.4071 47.2046 65.1757 48.0003C64.9248 48.8666 65.127 49.7475 64.8541 50.6332C64.1452 53.0665 62.3301 54.9037 61.1875 56.8528C60.632 57.6607 60.4201 58.7265 59.85 59.4395C58.5392 60.9311 57.0458 62.7732 55.5158 63.8901C53.2233 65.7078 50.2047 66.1264 47.5199 67.1094C46.8645 67.3479 46.4747 67.8443 45.9168 68.0584L45.9144 68.0536ZM51.7956 69.6888L51.876 69.6645C52.4266 69.6425 53.5278 69.6644 54.0443 69.6547C54.2392 69.6474 54.3269 69.6644 54.4658 69.7642C55.9958 70.9858 57.8498 72.3801 59.0314 74.0907C59.314 74.9984 58.3663 75.4534 57.5842 75.3366C56.4392 75.2368 55.8934 74.2659 55.1552 73.733C54.6826 73.3923 53.7787 72.9665 53.2038 72.5699C52.7701 72.2073 50.3582 70.3482 51.7956 69.6839V69.6888Z" fill="var(--fill-0, white)"/>
<path id="Vector_3" d="M49.5274 31.3391C49.1376 30.4145 48.1241 29.1662 47.5467 28.149C46.2018 24.9248 44.2747 21.506 41.205 19.642C40.2427 19.131 39.0148 18.3596 38.0086 18.4667C37.1608 18.4229 36.5615 17.9581 35.6308 18.0214C34.9657 17.9849 34.4541 18.1869 33.9254 18.3499C32.7267 18.5616 31.7693 18.3548 30.7143 19.0896C29.1234 20.0508 27.1671 20.2333 25.6736 21.3527C24.6187 22.2311 24.0462 23.8955 22.8281 24.7521C22.0217 25.3653 20.7986 25.1414 20.2773 26.1269C19.6365 27.1805 20.2505 28.6357 20.0288 29.7526C19.8046 31.4024 18.8228 32.8795 18.3404 34.4976C17.9482 35.6316 18.3355 36.3153 18.3696 37.4128C18.4038 38.5321 18.1991 39.8899 18.3648 40.8755C18.7351 42.625 19.3222 44.6301 19.656 46.0974C19.9703 46.9637 20.2164 47.9468 20.5306 48.8009C20.611 48.9518 20.7256 49.1172 20.823 49.2584C21.2981 49.8278 21.4832 50.6843 21.9632 51.2659C23.4591 53.0252 26.044 54.1153 28.0466 55.276C29.1844 55.9136 30.5535 55.5753 31.7376 56.062C32.4514 56.3735 33.2749 56.3394 34.1666 56.3272C35.0899 56.3321 35.6698 55.8503 36.5176 55.8649C37.955 55.9695 39.2901 54.7042 40.7543 54.3392C41.3829 54.1445 41.5364 53.6944 42.0407 53.4243C42.4012 53.2564 42.8471 53.1687 43.2198 52.9887C44.9057 52.2295 45.9582 50.9958 46.9474 49.4895C47.6539 48.5113 47.7148 47.3798 48.6333 46.769L48.7015 46.6863C48.95 46.3627 48.9987 45.7081 49.2131 45.2871C49.5834 44.4525 50.1584 43.6689 50.0975 42.7345C50.0975 41.8245 50.6018 41.2307 50.5799 40.3571C50.5677 38.4591 50.9088 36.1766 50.2412 34.5852C49.8124 33.607 49.9562 32.3076 49.5225 31.3416L49.5274 31.3391ZM37.8454 23.0049L37.9112 22.9441C38.5617 22.8419 39.3047 22.9587 39.7968 23.4405C40.7397 24.2313 41.7434 25.4091 42.6059 26.2607C42.7301 26.4092 42.791 26.6598 42.7448 26.7742C42.6303 26.8983 41.5583 26.9591 41.3975 27.0102C40.2061 25.9663 38.9685 24.7569 37.9306 23.5865C37.8308 23.4454 37.821 23.146 37.8429 23.0025L37.8454 23.0049ZM31.4306 22.5547C32.695 22.1119 33.3821 23.2069 34.2738 24.0342C35.9524 24.6547 37.3581 26.779 37.4604 28.5676L37.4409 28.6235C37.0901 28.604 35.8257 28.2853 35.6162 28.2269C34.6051 27.2292 32.9728 25.5867 31.9081 24.5282C31.5573 24.1316 31.1163 23.8322 30.9531 23.5159C31.0384 23.3261 31.2187 22.635 31.4282 22.5547H31.4306ZM26.8333 41.6517C26.1633 41.7685 25.8345 41.1577 25.3935 40.7659C24.5968 40.0554 21.7951 37.369 22.3506 36.4273C22.9012 36.0379 23.4518 36.7801 23.8294 37.1524C25.0256 38.3983 26.6896 39.9289 26.904 41.6201L26.8358 41.6493L26.8333 41.6517ZM24.8429 28.8863C24.7138 28.3072 24.8088 27.2949 25.4032 27.0272L25.4982 26.9932C26.6774 26.7425 27.7007 27.8643 28.4072 28.7257C28.5412 28.9253 28.4924 29.1613 28.6435 29.3657C29.5401 30.3731 30.6754 31.1347 31.2966 32.3733C31.4842 33.6435 30.2904 33.7068 29.3232 33.1885C28.4121 32.2662 25.3204 29.6626 24.8429 28.8863ZM47.3152 40.2671C47.3688 41.3524 46.6696 42.1262 46.4991 43.1774C46.1775 44.4622 46.1531 45.6886 45.086 46.6693C44.5427 47.2873 44.304 47.7107 43.9361 48.2728C43.4294 49.0393 42.3988 49.6404 41.5583 50.2779C40.8444 50.8449 40.233 51.1223 39.3461 51.2586C37.8892 51.5068 36.559 51.8693 35.1825 52.4752C34.1203 52.8159 32.3028 52.704 31.5207 51.6844C31.1577 50.9714 30.6559 50.3217 30.1637 49.6599C29.735 49.0199 29.5742 48.3726 30.0419 47.6888C30.2003 47.4163 30.4147 47.1 30.3733 46.8007C29.7739 45.7373 29.3232 43.5935 29.752 42.3987C29.9932 41.8877 30.5024 41.5276 30.6193 40.9411C30.8386 40.0749 30.7363 39.0723 31.0968 38.262C31.7741 36.9237 34.8609 33.6241 35.9451 32.7748C37.3947 31.855 39.2852 30.8646 40.9419 30.2709L41.0442 30.2539C41.7581 30.1906 43.4561 30.2028 44.1359 30.3634C44.84 30.8208 45.8121 32.2322 46.4723 32.9111C47.7635 35.0086 47.3128 37.8508 47.3177 40.2768L47.3152 40.2671Z" fill="var(--fill-0, white)"/>
</g>
</g>
</svg>
