<svg preserveAspectRatio="none" width="100%" height="100%" overflow="visible" style="display: block;" viewBox="0 0 193.106 37.2256" fill="none" xmlns="http://www.w3.org/2000/svg">
<g id="Group">
<path id="Vector" d="M0 1.40737e-05H8.58722L11.3613 27.0385H11.4677L16.4781 1.40737e-05H25.491L30.451 27.0385H30.6116L33.3837 1.40737e-05H41.9168L36.744 37.2256H25.1717L20.9584 13.0134H20.7979L16.4781 37.2256H4.95818L0 1.40737e-05Z" fill="var(--fill-0, #FF845F)"/>
<path id="Vector_2" d="M54.5028 0H70.9827V7.89277H63.1441V14.826H69.8645V22.1326H63.1441V29.3328H71.1433V37.2256H54.5046V0H54.5028Z" fill="var(--fill-0, #FF845F)"/>
<path id="Vector_3" d="M84.7932 0H93.4327V29.1723H99.5128V37.2256H84.7932V0Z" fill="var(--fill-0, #FF845F)"/>
<path id="Vector_4" d="M112.416 0H121.056V29.1723H127.136V37.2256H112.416V0Z" fill="var(--fill-0, #FF845F)"/>
<path id="Vector_5" d="M140.041 0H152.093C158.546 0 162.332 3.57303 162.332 9.17339C162.332 13.4931 160.092 16.1066 157.318 17.279V17.3854C160.997 18.5577 163.557 21.3859 163.557 26.5046C163.557 32.904 159.61 37.2237 152.464 37.2237H140.037V0H140.041ZM150.388 14.5068C152.683 14.5068 154.068 13.0675 154.068 10.721C154.068 8.3744 152.681 6.88097 150.388 6.88097H148.682V14.5068H150.388ZM150.814 30.1859C153.373 30.1859 154.814 28.5861 154.814 25.7598C154.814 22.9335 153.375 21.3336 150.814 21.3336H148.68V30.1859H150.814Z" fill="var(--fill-0, #FF845F)"/>
<path id="Vector_6" d="M176.465 0H192.945V7.89277H185.107V14.826H191.827V22.1326H185.107V29.3328H193.106V37.2256H176.467V0H176.465Z" fill="var(--fill-0, #FF845F)"/>
</g>
</svg>
