<svg preserveAspectRatio="none" width="100%" height="100%" overflow="visible" style="display: block;" viewBox="0 0 319.912 42.1363" fill="none" xmlns="http://www.w3.org/2000/svg">
<g id="Group">
<path id="Vector" d="M262.35 22.6622C262.276 21.3373 262.103 20.0063 262.04 18.685C261.913 16.1368 262.331 12.8705 262.06 10.5476C261.856 9.63439 262.415 8.37727 261.503 7.7911C261.213 7.61549 260.924 7.58399 260.7 7.35267C260.075 6.73986 258.425 4.75487 258.059 4.16506C257.818 3.76418 258.092 3.1441 257.889 2.75533C257.625 2.35204 256.989 1.87728 256.44 1.87123C254.088 1.82521 251.665 2.00203 249.355 1.84822C248.727 1.82642 248.038 1.80704 247.427 1.76828C246.619 1.72347 244.952 1.33592 244.963 2.58941C245.009 3.04842 245.635 3.31002 245.768 3.77024C245.847 4.00035 245.924 4.24983 245.95 4.49326C245.994 5.09639 245.323 5.24657 244.961 4.83237C244.516 4.4206 243.695 3.9846 243.408 3.32455C243.226 2.89098 243.391 2.15947 242.819 1.94632C242.347 1.86396 241.965 1.6496 241.536 1.78403C241.149 1.87365 240.681 1.89545 240.285 1.83611C238.543 1.61448 236.619 1.25962 234.765 1.51638L234.701 1.53575C234.241 1.79009 233.502 1.54181 233.04 1.75375C232.597 2.02019 232.343 2.42834 232.663 2.92247C232.789 3.22767 233.019 3.4057 233.145 3.67941C233.305 4.25589 233.123 5.03826 233.177 5.62685C233.273 7.08139 233.464 8.88351 233.543 10.4592C233.696 14.4861 233.336 18.9102 233.83 22.5629C233.841 23.9375 233.611 25.277 233.994 26.5474C234.364 27.9705 234.12 29.2167 234.754 30.5756C235.864 32.1887 236.485 33.9158 238.125 35.0966C238.751 35.5847 239.67 35.9541 240.404 36.3985C240.644 36.5293 240.793 36.7473 240.964 36.9738C241.747 38.042 242.533 38.4017 243.794 38.7796C244.03 38.8522 244.237 38.9322 244.438 39.0751C245.927 40.1917 248.036 40.199 249.818 40.5005C250.132 40.5708 250.462 40.7367 250.804 40.7137C251.212 40.6725 251.524 40.5248 251.923 40.4582C253.673 40.1372 254.944 39.7133 256.374 38.8353C257.061 38.4368 257.912 38.1449 258.526 37.7235C259.277 37.164 260.075 36.4155 260.606 35.6864C260.817 35.4079 260.772 35.1172 260.929 34.7732C261.067 34.4862 261.321 34.1386 261.467 33.854C262.203 31.8654 262.423 29.0193 262.06 26.8054C262.011 26.6116 262.065 26.218 262.148 25.9976C262.468 24.9887 262.392 23.7558 262.35 22.6646V22.6622ZM260.191 19.6696C260.279 19.7144 260.497 19.6587 260.532 19.7592C260.56 19.8694 260.568 20.326 260.526 20.4326C260.495 20.4943 260.415 20.498 260.307 20.5028C260.113 20.5065 259.934 20.5392 259.782 20.4701C259.396 20.2412 258.302 18.9248 257.782 18.41C257.565 18.1702 257.358 18.0406 257.286 17.928C257.2 17.7318 257.135 17.4908 257.048 17.2462C256.972 16.9313 256.81 16.8126 256.996 16.6261C257.2 16.425 257.551 16.3657 257.805 16.4577C257.906 16.505 258.026 16.6394 258.219 16.8235C259.014 17.601 259.899 18.513 260.155 19.6393L260.19 19.6672L260.191 19.6696ZM256.887 9.2759C256.781 9.12936 256.632 9.08576 256.684 8.84718C256.725 8.59527 256.893 8.25737 257.169 8.3918C257.402 8.50807 257.745 8.84476 257.901 9.07486C257.924 9.14874 257.884 9.26016 257.956 9.33162C258.355 9.81 258.877 10.3126 258.921 10.9727L258.893 11.0054C258.526 11.1156 258.426 10.6323 258.148 10.5863C258.044 10.5815 257.9 10.6154 257.822 10.5912C257.581 10.4361 257.278 10.0813 257.041 9.84755C257.017 9.8209 256.967 9.7664 256.943 9.73855C256.829 9.64529 256.944 9.39702 256.888 9.2747L256.887 9.2759ZM256.526 5.79157C256.915 4.3443 258.298 6.57394 258.601 7.08624C259.12 7.8565 260.258 8.66067 260.14 9.74218L260.136 9.77246C259.226 8.87503 257.579 7.14437 256.579 6.12946C256.434 6.01199 256.519 5.94659 256.527 5.79157H256.526ZM243.027 5.33498L243.074 5.31924C243.481 5.23688 243.873 5.64139 244.206 5.83032C244.349 5.91389 244.455 5.92115 244.506 5.97565C244.799 6.26995 245.207 6.67809 245.504 6.97602C245.589 7.04021 245.583 7.10925 245.619 7.29091C245.75 7.75234 245.977 8.47779 245.482 8.76725C244.855 8.1508 243.684 6.83311 243.025 6.14157C242.866 5.96596 242.766 5.87392 242.743 5.82911C242.686 5.71042 242.925 5.35557 243.027 5.33498ZM244.178 21.9089C244.304 21.9247 244.473 21.8544 244.523 21.9949C244.569 22.1039 244.765 22.3255 244.758 22.4333C244.742 22.4806 244.666 22.569 244.613 22.6017C244.185 22.9747 242.846 21.5117 243.165 21.1253C243.403 21.0236 243.807 21.0696 244.006 21.2307C244.179 21.3688 244.191 21.6824 244.167 21.8762L244.178 21.9089ZM244.065 20.2981C243.627 20.0705 242.422 18.7564 243.234 18.2829C243.627 18.6305 244.28 19.0543 244.169 19.6623L244.196 19.6853C244.496 19.6223 244.694 19.8743 244.806 20.1286C244.881 20.2945 245.046 20.3769 244.856 20.5258C244.545 20.636 244.381 20.2461 244.066 20.2981H244.065ZM243.165 11.2439C243.199 11.2415 243.268 11.2367 243.302 11.2343C243.836 11.8313 244.671 12.3473 244.768 13.2096L244.742 13.2386C244.271 13.3234 243.837 13.1696 243.569 12.7239C243.533 12.6319 243.582 12.5313 243.509 12.455C243.238 12.1002 242.689 11.669 243.167 11.2452L243.165 11.2439ZM244.695 35.6428C243.926 35.5798 243.196 35.4115 242.481 35.1123C241.637 34.8556 240.65 34.594 239.882 34.181C238.392 33.3102 237.282 32.1415 236.48 30.5986C236.198 30.1941 236.246 29.7835 236.184 29.3063C235.388 27.2826 235.745 25.0481 235.586 22.8911C235.558 21.7466 235.547 20.3623 235.453 19.3014C235.443 19.0834 235.317 18.9139 235.172 18.7322C235.021 18.5481 234.969 18.3471 234.972 18.0019C234.962 17.4399 234.953 16.7629 234.988 16.2167C235.004 15.8716 235.325 15.7032 235.408 15.4017C235.483 14.6217 235.458 12.7857 235.44 11.7175C235.5 11.0756 235.194 10.9848 234.969 10.4628C234.547 8.77694 235.067 6.38985 234.84 4.59015C234.803 4.33097 234.674 4.11783 234.666 3.86228C234.666 3.54982 234.818 3.287 235.116 3.30396C236.033 3.34998 239.631 3.21797 240.211 3.34393L240.247 3.35846C240.421 3.41902 240.708 3.6794 240.691 4.03789C240.685 4.15536 240.66 4.27284 240.629 4.38184C239.86 7.07533 240.303 11.204 240.523 13.7606C240.742 15.5434 241.135 17.5175 241.149 19.3123C240.933 20.8298 241.173 22.4684 241.304 23.986C241.304 24.8361 241.131 25.7081 241.67 26.436C242.767 29.0617 245.669 28.8728 247.43 27.0404C248.142 26.1054 248.079 24.927 248.018 23.8164C248.058 22.1996 248.288 20.521 248.235 18.7927C248.218 17.578 247.844 16.0799 247.829 14.9172C247.999 13.4251 247.919 11.4486 247.784 9.84876C247.669 8.08782 248.225 5.81821 247.677 4.04031C247.692 3.72785 247.979 3.33424 248.266 3.31123C248.989 3.32939 253.471 3.4723 254.412 3.50016C254.868 3.48684 254.97 4.11056 254.909 4.50295C254.649 5.8388 254.797 7.13347 254.909 8.4681C255.074 12.3364 255.123 16.1259 255.286 19.9845C254.831 23.5657 255.215 27.3334 253.98 30.6773C253.879 30.8941 253.701 31.0394 253.564 31.1508C253.346 31.3034 253.243 31.5711 253.095 31.823C252.83 32.242 252.325 32.7761 251.985 33.0983C251.78 33.2993 251.61 33.4156 251.363 33.5222C250.594 33.8201 249.664 34.4596 248.872 34.8011C247.585 35.3316 246.063 35.5653 244.691 35.6452L244.695 35.6428ZM251.851 38.8861L251.823 38.9043C251.534 38.8329 250.926 39.0509 250.652 38.8474C250.334 38.5579 249.929 38.1328 249.608 37.7877C249.291 37.4825 249.101 37.084 249.231 36.6831C249.731 36.9145 250.3 37.4474 250.798 37.6738C250.942 37.7465 251.134 37.8131 251.328 37.8749C251.618 37.9681 251.943 38.5398 251.851 38.8861ZM253.469 37.8724L253.431 37.887C253.221 37.9366 252.912 37.9379 252.737 37.8107C252.492 37.6859 252.308 37.2427 251.951 37.2657C251.736 37.1228 251.051 36.4639 251.031 36.2011C251.134 35.8778 251.638 35.7579 251.928 35.8523C252.434 36.1696 252.943 36.8539 253.286 37.3359C253.457 37.589 253.529 37.8095 253.469 37.8724ZM256.298 36.0219L256.268 36.0376C255.991 35.8923 255.546 35.8826 255.326 35.6283C255.141 35.4624 254.976 35.1693 254.768 35.076C254.553 35.0397 254.272 35.0494 254.047 35.0276C253.622 34.967 253.507 35.3425 253.169 35.4696C252.918 35.575 252.705 35.2274 252.657 34.9767C252.751 34.7139 253.317 34.1495 253.512 33.8649C253.55 33.8165 253.565 33.8128 253.662 33.8128H254.26C254.334 33.8153 254.379 33.8346 254.427 33.8807C254.852 34.3324 255.362 34.772 255.789 35.2371C255.98 35.4842 256.37 35.6925 256.297 36.0207L256.298 36.0219ZM258.715 35.334C258.659 35.4636 258.464 35.5617 258.331 35.6283C258.217 35.6731 258.141 35.6041 258.03 35.5532C257.878 35.4854 257.729 35.5278 257.587 35.4708C257.327 35.3328 256.755 34.6558 256.669 34.2888L256.639 34.2682C256.492 34.2416 256.261 34.2852 256.171 34.2331C255.896 34.0405 255.549 33.6457 255.273 33.372C254.621 32.8234 254.749 32.3195 255.332 31.7976C255.666 31.4136 255.864 31.6341 256.128 31.9114C256.234 32.0119 256.374 32.0107 256.533 32.1318C256.566 32.1742 256.633 32.2578 256.667 32.3002C256.791 32.8004 257.277 33.0789 257.644 33.4386C258.035 33.8092 258.486 34.089 258.573 34.6243C258.673 34.8314 258.824 35.1002 258.717 35.3364L258.715 35.334ZM259.413 33.2267C259.17 33.022 257.306 31.2586 256.547 30.5538C256.479 30.5138 256.485 30.4 256.478 30.3249C256.446 29.7314 256.474 28.989 256.969 28.5966L257.022 28.5736C257.163 28.5373 257.342 28.685 257.447 28.7916C258.211 29.5728 258.822 30.5126 259.262 31.4996C259.48 31.8315 259.928 32.1112 259.948 32.5024C259.979 32.7568 259.559 33.1782 259.413 33.2254V33.2267ZM260.54 29.3548C260.532 29.5812 260.559 29.7447 260.516 29.7787L260.484 29.7944C260.288 29.8235 259.868 29.821 259.667 29.6527C259.352 29.4141 258.448 28.4997 257.972 27.9814C257.759 27.7828 257.738 27.6762 257.639 27.4206C257.536 27.2692 257.333 27.1615 257.306 26.9931C257.275 26.8224 257.101 26.6952 257.081 26.5014C257.038 26.046 257.282 25.5919 257.315 25.1317C257.326 24.9742 257.296 24.795 257.403 24.7465C258.658 24.6569 259.614 27.6774 260.44 28.5591C260.611 28.7977 260.514 29.006 260.539 29.3548H260.54ZM259.727 25.283C259.481 25.0747 259.567 24.8349 259.332 24.6472C258.647 23.929 257.657 23.3114 257.39 22.5108C257.196 22.3025 257.33 21.9259 257.293 21.6824C257.236 21.422 256.995 21.3252 257.117 20.9945C257.224 20.8371 257.332 20.6918 257.306 20.4834C257.282 20.2776 257.385 20.016 257.542 19.9106L257.579 19.89C257.758 19.9542 258.153 20.452 258.648 20.9158C259.067 21.3627 259.453 21.6437 259.727 22.0966C259.957 22.443 260.345 23.0255 260.598 23.4046C260.743 23.6129 260.754 23.6323 260.757 23.8515C260.84 24.4813 260.666 26.212 259.728 25.2818L259.727 25.283Z" fill="var(--fill-0, white)"/>
<path id="Vector_2" d="M131.049 3.90255C131.196 3.99701 131.353 4.04667 131.512 4.09633C132.183 4.33734 132.499 4.95379 132.383 5.68166C132.754 12.1102 132.273 18.6283 132.348 25.0472C132.361 26.4508 132.091 27.823 132.176 29.2243C132.216 30.0236 132.166 30.9985 132.154 31.8499C131.949 32.4737 131.735 33.1252 131.344 33.6823C131.192 33.8846 130.991 34.0663 130.824 34.2382C130.527 34.5132 130.468 35.109 130.627 35.4978C130.766 35.7727 131.082 35.9168 131.346 36.0597C133.693 36.922 135.141 39.0124 136.915 40.6547C137.163 40.8436 137.45 40.9066 137.765 40.9066C138.636 40.9187 139.568 40.8242 140.433 40.8399C142.206 41.0797 143.982 40.6522 145.763 40.6643C148.486 40.8945 151.304 40.2635 154.035 40.4221C154.337 40.4173 154.536 40.5384 154.753 40.5457C155.216 40.5638 155.579 40.014 155.483 39.5501C155.389 37.6402 155.808 35.6007 155.41 33.7829C155.313 33.4825 155.311 33.1446 155.391 32.837C155.496 32.3925 155.394 31.9844 155.223 31.6634C154.764 30.8944 153.782 30.5468 153.181 29.9752C152.912 29.6373 151.549 28.7628 152.444 28.4698C152.949 28.3886 153.796 28.0568 154.034 27.6317C154.455 25.9289 153.553 24.1049 153.461 22.407C153.448 21.977 153.414 21.4454 153.494 21.0905C153.558 20.7611 153.879 20.4595 154.011 20.1677C154.195 19.7062 153.835 19.2763 153.511 18.9347C153.036 18.4527 152.582 18.3316 152.158 17.8484C151.838 17.4681 150.595 16.6264 151.225 16.2013C151.493 16.1468 152.232 16.0911 152.975 16.0051C153.855 15.8573 154.591 15.9603 154.88 15.7023L154.903 15.6672C155.225 15.121 155.147 14.2502 155.097 13.6059C154.936 11.8583 154.63 9.24351 155.01 7.42807C155.08 7.00782 155.378 6.63237 155.241 6.20243C155.032 5.80882 154.618 5.47214 154.28 5.18147C153.915 4.90776 153.388 4.81451 152.987 4.54807C152.029 3.94494 151.145 2.79439 150.202 1.85337C149.757 1.39315 149.583 1.1703 148.95 1.23934C148.356 1.33986 147.701 1.81703 147.013 1.6172C145.454 1.30231 143.812 1.30111 142.272 1.35197C139.759 1.66444 137.055 1.55423 134.466 1.59783C133.716 1.64021 132.998 1.65596 132.302 1.82793C131.909 1.96721 131.552 2.09195 131.111 2.0532C130.729 2.0205 130.353 2.33296 130.261 2.71325C130.118 3.18558 130.639 3.62036 131.053 3.90134L131.049 3.90255ZM137.771 38.8356C137.089 38.3087 136.449 37.3738 135.801 36.8639C135.608 36.7343 135.409 36.7755 135.254 36.5151C135.233 36.4582 135.305 35.803 135.355 35.8345C135.526 35.9968 135.854 36.2523 136.007 36.4594C136.072 36.5551 136.043 36.7331 136.055 36.7888L136.078 36.8118C136.154 36.8215 136.367 36.7961 136.43 36.8724C136.992 37.3544 137.486 37.96 138.007 38.4965C138.18 38.7169 138.056 38.9906 137.771 38.8356ZM141.568 36.945C141.533 37.1073 141.55 37.2091 141.481 37.2236C141.392 37.2321 141.284 37.2369 141.196 37.2393C141.098 37.2466 140.981 37.2478 140.882 37.2418C140.434 37.1982 140.053 36.6096 139.567 36.8724C139.387 36.9838 139.366 37.0456 139.176 37.2091C139.066 37.2551 138.86 37.2442 138.731 37.197C138.302 36.9208 136.909 36.1058 138.17 35.8308C138.434 35.803 138.821 35.7339 139.032 35.8696C139.126 35.9604 139.218 36.0488 139.356 36.0319C139.861 36.0634 140.874 35.4966 141.45 35.9955C141.527 36.027 141.618 36.0282 141.667 36.0282L141.705 36.0319C141.71 36.2547 141.597 36.6931 141.568 36.945ZM144.534 37.4343C144.018 37.3919 143.65 36.7815 143.107 36.8215C143.03 36.8264 143.005 36.8239 142.979 36.7791C142.844 36.6265 142.394 36.1179 142.322 36.0367C142.647 36.0089 143.032 35.9556 143.323 36.1179C143.707 36.3504 144.209 37.0044 144.546 37.4222L144.534 37.4343ZM149.797 39.1904L149.767 39.2256C149.502 39.2764 149.131 39.3018 148.864 39.2352C148.538 39.1081 147.96 38.4759 147.54 38.0798C147.364 37.8631 147.178 37.874 146.95 37.7335C146.473 37.3241 146.007 36.727 145.399 36.6411C145.205 36.6132 145.139 36.463 145.039 36.2959C144.624 35.7194 146.18 35.7751 146.404 35.8115C146.667 35.8393 147.018 36.2499 147.284 36.4206C147.637 36.6411 148.184 36.7767 148.443 37.1606C148.531 37.2878 148.572 37.4561 148.682 37.5712C149.22 37.983 149.92 38.4553 149.797 39.1904ZM150.419 19.1406C150.381 19.4688 150.189 19.7365 149.851 19.6614C149.623 19.6142 149.497 19.4047 149.304 19.3029C149.065 19.2569 148.799 19.0413 148.687 18.8124C148.557 18.5896 148.497 18.3425 148.418 18.0833C148.36 17.9235 148.366 17.9138 148.468 17.7624C148.556 17.6159 148.666 17.4366 148.672 17.4257L148.703 17.416C149.554 17.3058 150.38 17.7527 150.603 18.6489C150.616 18.8088 150.43 18.919 150.416 19.1394L150.419 19.1406ZM147.393 26.3031C147.29 25.9664 146.812 25.6951 146.768 25.3257L146.774 25.3003C147.163 25.1647 148.26 26.2389 148.678 26.5562C149.365 27.0213 149.49 27.6619 148.495 27.7322C146.873 27.863 147.57 27.1436 147.392 26.3031H147.393ZM153.009 31.655C153.088 32.0134 153.019 32.8103 153.037 33.1955L153.029 33.2003C152.739 33.0828 152.382 32.6686 152.06 32.5887C151.977 32.579 151.873 32.6057 151.79 32.5911C151.681 32.5814 151.614 32.4519 151.51 32.4107C151.414 32.3792 151.268 32.3731 151.167 32.252C150.953 32.0292 151.059 31.7991 151.018 31.5496C150.977 31.4018 150.834 31.328 150.803 31.1729C150.761 30.9319 150.851 30.7248 150.927 30.5092C150.977 30.4039 150.975 30.2428 151.051 30.1883C151.895 30.1859 152.444 31.1596 153.01 31.655H153.009ZM151.287 19.831C151.534 19.8479 151.754 20.0829 152.002 20.0514L152.027 20.055C152.027 20.2197 152.027 20.6315 152.027 20.8313C152.016 21.0045 152.055 21.0748 151.991 21.0639H151.505C151.271 21.0602 151.341 21.0966 151.219 20.9294C151.148 20.8301 151.046 20.6872 150.962 20.5697C150.852 20.4002 150.796 20.3869 150.806 20.2803C150.841 20.0587 151.022 19.8055 151.288 19.831H151.287ZM152.821 10.5563C152.184 10.0658 151.111 9.30891 150.362 8.65249C150.155 8.45509 150.026 8.34367 149.986 8.19954C149.946 8.04452 149.944 7.82168 149.852 7.66908C149.788 7.59036 149.708 7.50073 149.634 7.43049C149.568 7.35661 149.675 7.26336 149.756 7.09986C149.872 6.90972 149.951 6.73411 149.995 6.70868L150.036 6.69415C150.226 6.64449 150.392 6.79951 150.524 6.92304C150.778 7.1265 151.418 7.72963 152.027 8.33155C152.494 8.83295 152.957 9.18538 153.277 9.70494C153.489 10.1724 153.477 10.6799 152.821 10.5563ZM149.601 4.9114C149.604 4.79998 149.588 4.71399 149.676 4.6934C149.762 4.66797 149.929 4.7043 149.969 4.65343C150.034 4.60014 149.957 4.36398 150.053 4.29858C150.138 4.23076 150.339 4.24166 150.455 4.2574C150.936 4.33854 151.151 4.79635 151.511 5.07974C152.125 5.57387 153.021 5.87422 153.368 6.72563C153.466 6.94605 153.518 7.22945 153.322 7.40142C153.203 7.49347 153.022 7.45956 152.838 7.42444C152.344 7.3445 152.249 7.32512 151.824 6.94605C151.424 6.64691 151.132 6.25572 150.622 6.29326C150.457 6.28963 150.174 6.34534 150.042 6.2969L150.02 6.25936C150.006 6.21212 150.018 6.12735 149.985 6.04741C149.912 5.84516 149.605 5.72162 149.588 5.52906C149.559 5.35829 149.596 5.12334 149.602 4.91261L149.601 4.9114ZM149.291 13.5853C149.375 13.6556 149.424 13.6931 149.446 13.7573C149.508 13.9704 149.806 14.8751 149.819 14.9805C149.696 15.0035 149.415 14.7298 149.315 14.6208C149.12 14.4234 149.149 14.266 148.91 14.1182C147.892 13.5381 146.864 12.7811 146.18 11.8522C146.624 11.1982 147.547 11.7154 148.142 11.7687L148.162 11.8098C148.142 12.0012 148.17 12.2688 148.348 12.4021C148.728 12.7363 148.884 13.2632 149.291 13.5865V13.5853ZM134.233 12.2737C134.421 10.6908 134.685 8.12688 134.271 6.39864C134.173 6.07164 133.883 5.89966 133.828 5.57145C133.757 4.98164 133.756 4.36035 134.177 3.91224C134.363 3.57192 135.003 3.74148 135.076 3.3079C135.095 3.26188 135.119 3.22676 135.154 3.21223C135.64 3.08748 137.899 3.1989 139.865 3.25582C141.284 3.25461 142.103 3.44597 143.225 3.08143C143.385 3.07537 143.55 3.06568 143.709 3.09959C144.49 3.25945 145.251 3.10202 145.849 3.21949C146.182 3.30185 146.405 3.64459 146.77 3.64822C147.287 3.62763 147.794 3.7003 148.166 4.06605C148.299 4.19927 148.35 4.30464 148.384 4.45361C148.35 5.05795 148.474 8.54107 148.338 9.22898C147.936 9.7001 147.104 9.4603 146.527 9.53176C144.35 9.49663 141.999 9.01219 139.828 9.14057C139.295 9.23261 138.868 9.77882 138.87 10.2972C138.867 10.841 139.594 11.1655 139.629 11.7105C139.653 11.8353 139.662 11.9721 139.668 12.0981C139.657 12.5535 139.905 12.8889 139.91 13.354C139.92 13.9377 139.786 14.5554 139.59 15.0883C139.499 15.3559 139.513 15.6272 139.637 15.8852C139.889 16.4048 140.439 16.6567 140.995 16.6324C141.662 16.6797 142.215 16.3551 142.865 16.217C143.856 16.0535 144.776 16.4241 145.722 16.4023C146.4 16.32 146.956 16.8153 146.991 17.4826C147.137 17.9816 147.208 18.1015 147.174 18.6889C147.132 19.5621 147.258 20.7393 147.123 21.5871L147.099 21.6222C146.48 22.1345 145.494 21.7288 144.682 21.9044C143.659 22.0376 142.559 21.9625 141.459 21.8523C139.895 21.6682 140.253 23.0961 140.329 24.1267C140.461 25.4929 140.554 26.6035 140.341 27.9865C140.305 28.3268 140.22 28.7289 140.356 29.039C140.523 29.3054 140.856 29.5052 141.126 29.5694C141.55 29.5719 143.41 29.5694 145.126 29.5694C146.131 29.567 146.877 29.5719 147.723 29.5694C148.271 29.5694 148.235 29.5283 148.712 29.8565C148.808 29.9267 148.868 30.003 148.925 30.1035C149.277 30.789 149.252 31.5641 149.239 32.3792C149.228 33.0744 149.281 33.3638 148.744 33.7223C147.976 34.2976 147.014 34.0299 146.015 34.0554C142.903 33.8434 139.526 33.6714 136.269 33.9924C135.755 34.0348 135.219 34.065 134.712 33.9851C134.339 33.8664 133.89 33.5309 133.816 33.1289C133.776 32.6626 133.778 31.2541 133.81 30.7248C133.804 30.4099 134.147 30.2198 134.23 30.0236C134.236 28.8864 134.224 16.8165 134.232 12.2701L134.233 12.2737ZM143.937 14.1473L143.893 14.1921C143.274 14.4016 142.91 13.8469 142.483 13.446C142.041 13.3274 141.662 12.9131 141.447 12.5704C141.301 12.3052 141.177 11.8692 141.344 11.5955C141.61 11.4296 141.831 11.7989 142.015 11.954C142.636 12.5002 143.368 13.0076 143.842 13.618C143.959 13.7561 143.999 13.9741 143.936 14.1461L143.937 14.1473ZM146.358 27.4706L146.318 27.5069C145.626 27.5687 145.218 26.6991 144.657 26.4242C144.515 26.3309 144.299 26.3564 144.19 26.2583C144.017 25.8901 143.831 25.6237 143.409 25.4771C142.849 25.2579 142.021 24.9127 142.119 24.1994C142.218 24.0468 142.395 24.0965 142.572 24.0759C142.704 24.0698 142.836 24.0577 142.944 24.0856C143.94 24.6245 145.206 25.7084 146.028 26.681C146.234 26.9099 146.49 27.1654 146.358 27.4718V27.4706Z" fill="var(--fill-0, white)"/>
<path id="Vector_3" d="M266.8 3.90255C266.947 3.99701 267.104 4.04667 267.263 4.09633C267.934 4.33734 268.25 4.95379 268.133 5.68166C268.504 12.1102 268.023 18.6283 268.098 25.0472C268.112 26.4508 267.842 27.823 267.926 29.2243C267.966 30.0236 267.917 30.9985 267.905 31.8499C267.7 32.4737 267.486 33.1252 267.094 33.6823C266.943 33.8846 266.742 34.0663 266.575 34.2382C266.278 34.5132 266.219 35.109 266.377 35.4978C266.517 35.7727 266.833 35.9168 267.097 36.0597C269.444 36.922 270.891 39.0124 272.665 40.6547C272.914 40.8436 273.201 40.9066 273.516 40.9066C274.386 40.9187 275.319 40.8242 276.184 40.8399C277.957 41.0797 279.732 40.6522 281.514 40.6643C284.236 40.8945 287.055 40.2635 289.786 40.4221C290.087 40.4173 290.287 40.5384 290.504 40.5457C290.966 40.5638 291.33 40.014 291.234 39.5501C291.14 37.6402 291.559 35.6007 291.16 33.7829C291.063 33.4825 291.062 33.1446 291.142 32.837C291.246 32.3925 291.144 31.9844 290.974 31.6634C290.515 30.8944 289.532 30.5468 288.932 29.9752C288.663 29.6373 287.299 28.7628 288.194 28.4698C288.699 28.3886 289.547 28.0568 289.784 27.6317C290.206 25.9289 289.304 24.1049 289.212 22.407C289.198 21.977 289.164 21.4454 289.244 21.0905C289.308 20.7611 289.629 20.4595 289.761 20.1677C289.945 19.7062 289.586 19.2763 289.261 18.9347C288.786 18.4527 288.332 18.3316 287.908 17.8484C287.589 17.4681 286.346 16.6264 286.976 16.2013C287.243 16.1468 287.982 16.0911 288.726 16.0051C289.605 15.8573 290.341 15.9603 290.631 15.7023L290.654 15.6672C290.976 15.121 290.897 14.2502 290.848 13.6059C290.687 11.8583 290.38 9.24351 290.761 7.42807C290.831 7.00782 291.129 6.63237 290.992 6.20243C290.782 5.80882 290.368 5.47214 290.03 5.18147C289.666 4.90776 289.139 4.81451 288.738 4.54807C287.78 3.94494 286.896 2.79439 285.952 1.85337C285.508 1.39315 285.334 1.1703 284.7 1.23934C284.107 1.33986 283.452 1.81703 282.764 1.6172C281.205 1.30231 279.563 1.30111 278.022 1.35197C275.509 1.66444 272.806 1.55423 270.217 1.59783C269.467 1.64021 268.749 1.65596 268.052 1.82793C267.66 1.96721 267.303 2.09195 266.862 2.0532C266.479 2.0205 266.104 2.33296 266.012 2.71325C265.869 3.18558 266.39 3.62036 266.804 3.90134L266.8 3.90255ZM273.523 38.8356C272.841 38.3087 272.2 37.3738 271.552 36.8639C271.36 36.7343 271.161 36.7755 271.006 36.5151C270.984 36.4582 271.057 35.803 271.107 35.8345C271.278 35.9968 271.606 36.2523 271.758 36.4594C271.824 36.5551 271.795 36.7331 271.807 36.7888L271.83 36.8118C271.906 36.8215 272.119 36.7961 272.182 36.8724C272.744 37.3544 273.238 37.96 273.759 38.4965C273.932 38.7169 273.807 38.9906 273.523 38.8356ZM277.318 36.945C277.283 37.1073 277.3 37.2091 277.231 37.2236C277.143 37.2321 277.035 37.2369 276.947 37.2393C276.849 37.2466 276.731 37.2478 276.633 37.2418C276.185 37.1982 275.803 36.6096 275.318 36.8724C275.137 36.9838 275.117 37.0456 274.927 37.2091C274.816 37.2551 274.61 37.2442 274.482 37.197C274.052 36.9208 272.659 36.1058 273.92 35.8308C274.184 35.803 274.572 35.7339 274.782 35.8696C274.877 35.9604 274.969 36.0488 275.107 36.0319C275.612 36.0634 276.625 35.4966 277.201 35.9955C277.277 36.027 277.368 36.0282 277.418 36.0282L277.455 36.0319C277.46 36.2547 277.348 36.6931 277.318 36.945ZM280.284 37.4343C279.769 37.3919 279.4 36.7815 278.858 36.8215C278.78 36.8264 278.756 36.8239 278.729 36.7791C278.595 36.6265 278.144 36.1179 278.073 36.0367C278.398 36.0089 278.783 35.9556 279.073 36.1179C279.457 36.3504 279.96 37.0044 280.297 37.4222L280.284 37.4343ZM285.548 39.1904L285.518 39.2256C285.252 39.2764 284.882 39.3018 284.614 39.2352C284.288 39.1081 283.711 38.4759 283.29 38.0798C283.115 37.8631 282.928 37.874 282.701 37.7335C282.223 37.3241 281.757 36.727 281.149 36.6411C280.955 36.6132 280.89 36.463 280.79 36.2959C280.374 35.7194 281.93 35.7751 282.154 35.8115C282.417 35.8393 282.768 36.2499 283.035 36.4206C283.387 36.6411 283.935 36.7767 284.194 37.1606C284.281 37.2878 284.322 37.4561 284.433 37.5712C284.97 37.983 285.67 38.4553 285.548 39.1904ZM286.169 19.1406C286.132 19.4688 285.939 19.7365 285.601 19.6614C285.374 19.6142 285.248 19.4047 285.055 19.3029C284.815 19.2569 284.55 19.0413 284.437 18.8124C284.308 18.5896 284.247 18.3425 284.168 18.0833C284.11 17.9235 284.116 17.9138 284.218 17.7624C284.307 17.6159 284.417 17.4366 284.423 17.4257L284.453 17.416C285.304 17.3058 286.13 17.7527 286.353 18.6489C286.367 18.8088 286.18 18.919 286.167 19.1394L286.169 19.1406ZM283.144 26.3031C283.041 25.9664 282.563 25.6951 282.519 25.3257L282.525 25.3003C282.914 25.1647 284.011 26.2389 284.429 26.5562C285.116 27.0213 285.24 27.6619 284.246 27.7322C282.623 27.863 283.321 27.1436 283.143 26.3031H283.144ZM288.76 31.655C288.838 32.0134 288.769 32.8103 288.788 33.1955L288.779 33.2003C288.49 33.0828 288.132 32.6686 287.81 32.5887C287.728 32.579 287.624 32.6057 287.54 32.5911C287.431 32.5814 287.365 32.4519 287.26 32.4107C287.165 32.3792 287.018 32.3731 286.918 32.252C286.703 32.0292 286.81 31.7991 286.769 31.5496C286.728 31.4018 286.585 31.328 286.553 31.1729C286.512 30.9319 286.602 30.7248 286.678 30.5092C286.728 30.4039 286.725 30.2428 286.801 30.1883C287.646 30.1859 288.194 31.1596 288.761 31.655H288.76ZM287.039 19.831C287.286 19.8479 287.506 20.0829 287.753 20.0514L287.779 20.055C287.779 20.2197 287.779 20.6315 287.779 20.8313C287.768 21.0045 287.807 21.0748 287.742 21.0639H287.257C287.023 21.0602 287.093 21.0966 286.971 20.9294C286.9 20.8301 286.798 20.6872 286.714 20.5697C286.604 20.4002 286.548 20.3869 286.558 20.2803C286.593 20.0587 286.774 19.8055 287.04 19.831H287.039ZM288.572 10.5563C287.935 10.0658 286.862 9.30891 286.112 8.65249C285.905 8.45509 285.777 8.34367 285.737 8.19954C285.697 8.04452 285.694 7.82168 285.602 7.66908C285.538 7.59036 285.458 7.50073 285.384 7.43049C285.319 7.35661 285.426 7.26336 285.507 7.09986C285.623 6.90972 285.702 6.73411 285.745 6.70868L285.787 6.69415C285.977 6.64449 286.143 6.79951 286.275 6.92304C286.529 7.1265 287.168 7.72963 287.778 8.33155C288.245 8.83295 288.708 9.18538 289.027 9.70494C289.239 10.1724 289.227 10.6799 288.572 10.5563ZM285.353 4.9114C285.355 4.79998 285.34 4.71399 285.428 4.6934C285.514 4.66797 285.681 4.7043 285.721 4.65343C285.785 4.60014 285.709 4.36398 285.805 4.29858C285.889 4.23076 286.09 4.24166 286.207 4.2574C286.688 4.33854 286.903 4.79635 287.263 5.07974C287.877 5.57387 288.773 5.87422 289.119 6.72563C289.218 6.94605 289.27 7.22945 289.073 7.40142C288.955 7.49347 288.774 7.45956 288.59 7.42444C288.096 7.3445 288 7.32512 287.575 6.94605C287.176 6.64691 286.884 6.25572 286.374 6.29326C286.209 6.28963 285.926 6.34534 285.794 6.2969L285.772 6.25936C285.757 6.21212 285.77 6.12735 285.737 6.04741C285.664 5.84516 285.357 5.72162 285.34 5.52906C285.311 5.35829 285.348 5.12334 285.354 4.91261L285.353 4.9114ZM285.043 13.5853C285.126 13.6556 285.176 13.6931 285.198 13.7573C285.26 13.9704 285.558 14.8751 285.571 14.9805C285.447 15.0035 285.166 14.7298 285.067 14.6208C284.872 14.4234 284.901 14.266 284.661 14.1182C283.644 13.5381 282.616 12.7811 281.932 11.8522C282.376 11.1982 283.299 11.7154 283.894 11.7687L283.914 11.8098C283.894 12.0012 283.921 12.2688 284.099 12.4021C284.48 12.7363 284.636 13.2632 285.043 13.5865V13.5853ZM269.985 12.2737C270.173 10.6908 270.437 8.12688 270.023 6.39864C269.925 6.07164 269.635 5.89966 269.58 5.57145C269.509 4.98164 269.508 4.36035 269.928 3.91224C270.115 3.57192 270.754 3.74148 270.828 3.3079C270.846 3.26188 270.871 3.22676 270.906 3.21223C271.391 3.08748 273.651 3.1989 275.617 3.25582C277.036 3.25461 277.855 3.44597 278.976 3.08143C279.136 3.07537 279.302 3.06568 279.461 3.09959C280.242 3.25945 281.003 3.10202 281.601 3.21949C281.934 3.30185 282.157 3.64459 282.521 3.64822C283.039 3.62763 283.546 3.7003 283.918 4.06605C284.051 4.19927 284.102 4.30464 284.136 4.45361C284.102 5.05795 284.225 8.54107 284.09 9.22898C283.688 9.7001 282.856 9.4603 282.279 9.53176C280.102 9.49663 277.751 9.01219 275.579 9.14057C275.046 9.23261 274.62 9.77882 274.621 10.2972C274.619 10.841 275.346 11.1655 275.381 11.7105C275.405 11.8353 275.413 11.9721 275.419 12.0981C275.409 12.5535 275.657 12.8889 275.662 13.354C275.671 13.9377 275.538 14.5554 275.342 15.0883C275.251 15.3559 275.264 15.6272 275.389 15.8852C275.641 16.4048 276.191 16.6567 276.747 16.6324C277.414 16.6797 277.966 16.3551 278.617 16.217C279.607 16.0535 280.528 16.4241 281.474 16.4023C282.152 16.32 282.708 16.8153 282.743 17.4826C282.888 17.9816 282.96 18.1015 282.926 18.6889C282.884 19.5621 283.009 20.7393 282.875 21.5871L282.851 21.6222C282.232 22.1345 281.246 21.7288 280.433 21.9044C279.411 22.0376 278.31 21.9625 277.211 21.8523C275.647 21.6682 276.004 23.0961 276.081 24.1267C276.213 25.4929 276.306 26.6035 276.093 27.9865C276.057 28.3268 275.972 28.7289 276.107 29.039C276.275 29.3054 276.608 29.5052 276.878 29.5694C277.302 29.5719 279.162 29.5694 280.878 29.5694C281.883 29.567 282.629 29.5719 283.475 29.5694C284.023 29.5694 283.987 29.5283 284.464 29.8565C284.56 29.9267 284.62 30.003 284.677 30.1035C285.028 30.789 285.004 31.5641 284.991 32.3792C284.98 33.0744 285.033 33.3638 284.495 33.7223C283.728 34.2976 282.766 34.0299 281.767 34.0554C278.654 33.8434 275.278 33.6714 272.021 33.9924C271.506 34.0348 270.971 34.065 270.464 33.9851C270.091 33.8664 269.641 33.5309 269.567 33.1289C269.527 32.6626 269.53 31.2541 269.561 30.7248C269.555 30.4099 269.899 30.2198 269.982 30.0236C269.988 28.8864 269.976 16.8165 269.984 12.2701L269.985 12.2737ZM279.687 14.1473L279.644 14.1921C279.025 14.4016 278.66 13.8469 278.234 13.446C277.792 13.3274 277.413 12.9131 277.197 12.5704C277.052 12.3052 276.927 11.8692 277.094 11.5955C277.361 11.4296 277.581 11.7989 277.765 11.954C278.387 12.5002 279.118 13.0076 279.593 13.618C279.709 13.7561 279.749 13.9741 279.686 14.1461L279.687 14.1473ZM282.11 27.4706L282.07 27.5069C281.378 27.5687 280.97 26.6991 280.409 26.4242C280.266 26.3309 280.051 26.3564 279.942 26.2583C279.769 25.8901 279.583 25.6237 279.161 25.4771C278.601 25.2579 277.773 24.9127 277.871 24.1994C277.97 24.0468 278.147 24.0965 278.324 24.0759C278.456 24.0698 278.588 24.0577 278.696 24.0856C279.692 24.6245 280.958 25.7084 281.78 26.681C281.986 26.9099 282.242 27.1654 282.11 27.4718V27.4706Z" fill="var(--fill-0, white)"/>
<path id="Vector_4" d="M0.801081 27.1408C0.962158 27.5417 1.20438 28.0128 1.37151 28.3943C1.90924 29.7883 2.50995 30.8383 3.45945 32.0264C5.4832 34.8871 7.98292 37.5309 11.3377 38.8195C12.1794 39.1586 12.837 40.0718 13.7175 40.3346C16.1227 41.0164 18.3996 41.6087 20.9623 41.5723C21.4734 41.6038 22.0184 41.5396 22.4556 41.7952C22.825 42.1488 23.4862 42.1803 24.0288 42.0992C24.3849 42.0289 24.5799 41.7262 24.9432 41.6922C25.3756 41.6414 25.9617 41.7794 26.3771 41.6729C26.7804 41.5687 27.065 41.2199 27.4429 41.0588C28.0036 40.8069 28.6395 40.3976 28.6261 39.7254C28.6576 38.6948 28.5959 37.6472 28.3864 36.5971C28.1344 35.7021 28.4287 34.8737 28.3234 33.9872C28.0799 32.8282 27.6524 31.7539 27.7978 30.5671C27.8147 30.297 27.7687 30.0136 27.6827 29.7714C27.4962 29.3366 27.0832 29.184 26.6932 28.9066C25.8152 28.4597 25.3961 27.5405 24.6368 26.9483C24.0228 26.3875 23.5177 25.5858 22.9667 24.887C22.7572 24.6314 22.4883 24.3917 22.1637 24.3299C21.6357 24.1967 21.1912 24.7223 20.817 24.9851L20.7818 25.0214C19.9244 26.5074 17.8595 27.3843 16.4158 26.2277C15.9132 25.6791 15.0037 25.2322 14.822 24.5055C14.4708 23.4918 14.5544 22.2892 14.6307 21.2428C14.9286 20.458 14.954 19.6466 15.3028 18.8702C15.4978 18.4754 15.8248 18.1775 16.0367 17.7887C16.2887 17.3406 16.4182 17.0039 16.6689 16.7714C16.8797 16.5558 17.2757 16.4044 17.5724 16.2785C17.9358 16.1077 18.0096 16.0048 18.3088 15.7516C18.551 15.5518 18.7472 15.4392 19.0088 15.4016C19.8638 15.3544 21.1403 15.2381 21.9857 15.7129C22.7898 15.9745 23.7321 16.2337 24.3485 16.7448C24.6465 16.9991 24.919 17.3927 25.3041 17.4981C25.5051 17.5489 25.7352 17.4775 25.929 17.4072C26.1652 17.3031 26.4256 17.3128 26.6412 17.3333C27.1317 17.3782 27.782 16.947 27.8038 16.396C27.7965 14.5151 27.6318 12.4744 27.1486 10.602C26.9936 9.28678 27.4538 7.6191 27.0432 6.35834C26.7247 5.74552 25.797 6.03982 25.4397 5.85573C25.0704 5.62925 24.8051 5.24291 24.483 4.91591C23.9343 4.28614 23.3094 3.69755 23.0563 2.99632C22.9424 2.72261 22.8698 2.41863 22.6821 2.19094C22.5089 1.98263 22.4943 2.04076 22.3345 1.90027C21.8791 1.652 21.5037 1.13001 21.0325 0.927759C20.3446 0.801805 19.7015 0.233797 18.9531 0.242275C17.8025 -0.0810892 16.5951 -0.105313 15.4821 0.319784C14.5544 0.466327 13.5855 0.483282 12.8552 1.12517C11.9711 1.59628 10.8787 1.5757 10.0321 2.11827C9.54282 2.38592 9.10076 2.71413 8.67082 3.08715C7.14725 4.4666 5.93131 6.11733 4.53612 7.62515C3.37952 9.08574 2.46998 10.9024 1.45144 12.4756C0.897969 14.2329 0.55765 16.012 0.13982 17.802C-0.131467 20.4011 -0.0285241 23.2217 0.630315 25.6173C0.739315 26.1187 0.598827 26.6613 0.804714 27.1372L0.801081 27.1408ZM26.1494 38.2576C25.51 38.0977 25.1672 37.3843 24.6029 37.101C24.0881 36.8224 23.5795 36.5693 23.3046 36.0509C23.2355 35.925 23.0769 35.7918 23.181 35.6464C23.3191 35.4732 23.5105 35.4042 23.6473 35.4224C23.984 35.4563 24.2601 35.9056 24.5799 36.1745C25.1406 36.3174 25.4531 36.8926 25.9581 37.342C26.0526 37.5479 26.1458 38.0444 26.1773 38.2551L26.1494 38.2576ZM23.158 30.521C23.3227 29.9954 23.3264 29.448 23.9961 29.9336C24.2335 30.1214 24.4357 30.3273 24.7506 30.6325C25.1794 31.0709 25.596 31.3216 25.1963 31.8254C25.1406 31.8835 25.074 31.9538 25.0219 32.0155C24.8814 32.1851 24.9541 32.5884 24.965 32.8536C25.1018 33.1843 25.9932 34.0272 26.3602 34.5201C26.4256 34.6751 26.4268 34.8096 26.4861 35.0942C26.5237 35.357 26.6048 35.5677 26.5309 35.6234L26.4922 35.6452C25.9545 35.77 25.6565 35.0893 25.3429 34.789C25.1806 34.6485 24.9432 34.646 24.7724 34.5225C24.443 34.1737 23.697 33.8334 23.3712 33.4047C23.1471 33.0183 23.3615 32.1306 23.3227 31.5008C23.2598 31.1484 22.9812 30.9231 23.158 30.5223V30.521ZM26.1567 16.5982L26.1192 16.6345C25.8346 16.7181 25.6178 16.3875 25.4313 16.2155C25.0728 15.8921 23.7805 14.6411 23.2767 14.1094C23.1084 13.8987 22.9546 13.849 22.9085 13.6128C22.8879 13.4142 22.9945 13.1102 23.1677 13.0194C23.4414 12.8789 23.6631 13.2313 23.8362 13.3924C24.6041 14.0767 25.1127 14.8906 25.7643 15.5736C26.015 15.8316 26.2475 16.2385 26.1555 16.5982H26.1567ZM22.7559 4.94499C23.3869 4.83962 23.6388 5.61715 23.5359 6.1028L23.5238 6.13186C23.3457 6.19363 23.1362 6.31353 22.957 6.3426C22.4847 6.38014 22.3042 5.31437 22.7559 4.94499ZM22.5246 7.22186C23.129 6.17668 24.0591 9.18626 24.9202 8.95494L24.9432 8.97674C24.8766 9.48056 25.4591 9.84994 25.6699 10.2593C25.9896 10.9581 25.6408 11.2875 25.1067 10.642C24.1572 10.3029 23.5855 9.15356 22.8056 8.48988C22.7172 8.39541 22.5924 8.32275 22.5501 8.2198C22.5052 8.09506 22.5355 7.9146 22.5113 7.74868C22.4992 7.5537 22.4774 7.35387 22.5246 7.22186ZM12.424 36.6516L12.3962 36.6601C11.7446 36.7485 11.3558 36.0848 10.9513 35.6828C10.8835 35.604 10.7624 35.5411 10.8036 35.4999C10.8762 35.4272 11.1911 35.1111 11.265 35.0384C11.7058 35.4708 12.2981 35.4212 12.6105 35.9201C12.6178 36.1066 12.4579 36.47 12.424 36.6516ZM22.0668 37.2741L22.108 37.3032C22.2243 37.6266 22.0559 38.1461 22.1407 38.4949C22.1686 38.6257 22.3042 38.7262 22.3369 38.8643C22.2994 39.4469 21.5848 38.7662 21.3862 38.6015C20.8812 38.266 20.215 37.9475 19.6543 37.6714C18.8925 37.4473 19.0318 38.0008 18.7702 38.3956C18.5982 38.3847 18.1174 38.0904 17.943 37.8833C17.679 37.606 16.9766 36.9326 17.3278 36.849C17.9442 36.8999 18.6818 36.6201 19.182 37.0077C19.6737 37.1555 20.2659 36.7485 20.8218 36.8188C21.0556 36.826 21.3196 36.9302 21.5412 37.0138C21.7217 37.1094 21.873 37.2414 22.0656 37.2741H22.0668ZM15.5378 16.0338C15.0921 16.1392 14.3133 15.6753 13.9306 15.283C13.7332 15.0117 13.6303 15.0129 13.3396 14.8845C13.0066 14.6798 12.6493 14.3565 12.2472 14.3904L12.2145 14.3589C12.1176 13.4736 13.0405 12.7348 13.8374 13.0678C14.3945 13.5075 15.3016 14.0331 15.5002 14.7719C15.6443 14.9741 15.8466 15.0843 15.8817 15.3411C15.9108 15.6087 15.8321 15.9769 15.5366 16.0338H15.5378ZM12.269 21.8762C12.4519 22.07 12.9145 22.3291 12.8261 22.6731L12.8128 22.701C12.7413 22.7482 12.2327 22.3195 12.051 22.2843C11.9311 22.2686 11.7337 22.3546 11.6332 22.2395C11.4527 22.0809 11.1524 21.7478 10.9877 21.5722C10.8835 21.4656 10.7903 21.3772 10.7685 21.2343C10.7079 20.5307 11.4067 20.6045 11.8124 20.9303C12.0522 21.1193 12.2605 21.2767 12.2121 21.5831C12.1963 21.7042 12.2012 21.8096 12.2702 21.875L12.269 21.8762ZM12.3659 19.7144C12.2981 19.6369 12.1879 19.6805 12.1116 19.6562C12.0571 19.6344 12.011 19.5824 11.9541 19.5363C11.4418 19.0035 10.5626 18.4488 10.8193 17.6676C11.7095 17.2861 13.4377 19.3607 13.2234 20.2509L13.1943 20.2751C12.8213 20.3236 12.6057 19.9396 12.3659 19.7144ZM11.4527 15.9769C11.3994 15.9164 11.3885 15.8752 11.3934 15.7734C11.4055 15.5191 11.3704 15.0432 11.4067 14.8118L11.4394 14.7973C11.7943 14.721 12.2266 14.985 12.3828 15.3108C12.4204 15.4259 12.4155 15.5361 12.5064 15.6305C12.9206 16.1646 13.6812 16.6127 14.0203 17.188C14.0057 17.291 13.9863 17.7693 13.8955 17.8396C13.8434 17.8687 13.7296 17.8347 13.6521 17.7742C13.0102 17.1117 12.1067 16.6164 11.4515 15.9781L11.4527 15.9769ZM20.6801 13.1345L20.651 13.172C20.0358 13.3839 19.2001 12.9213 19.0645 12.2867C19.0197 12.2273 18.9482 12.1886 18.8792 12.1668C18.5425 12.0844 18.402 11.7138 18.006 11.7514C17.7274 11.7635 17.4828 12.1196 17.5276 12.369C17.8134 13.0666 19.1263 13.6068 18.0641 14.3238C17.7662 14.5575 17.4235 14.3601 17.1461 14.2487C16.4582 14.0791 16.1179 13.0921 15.4033 12.885C14.6864 12.2915 15.0921 11.9076 15.6431 11.4462C15.7994 11.3287 16.0065 11.3977 16.1784 11.2936C16.4449 11.0962 16.7791 11.1325 17.1134 11.1349C17.4586 11.0998 17.6245 11.2815 17.9236 11.3638C18.1925 11.3905 18.5159 11.3323 18.7787 11.3505C19.0996 11.3275 19.4181 11.6642 19.7015 11.8773C19.842 11.9633 19.991 11.996 20.1315 12.0953C20.3979 12.3158 20.7346 12.7978 20.6801 13.1357V13.1345ZM1.48293 18.7733C1.51079 18.4875 1.54954 18.2126 1.60041 17.9559C1.65248 17.5186 2.05457 17.2522 2.16478 16.8344C2.39852 15.903 2.50147 14.8021 2.8539 13.8563C3.07674 13.2011 3.61447 12.5882 3.82157 11.9052C3.88091 11.4728 4.24182 11.3699 4.45982 11.0199C5.72421 8.60857 7.57599 6.44554 9.6724 4.71003C11.1766 3.42142 12.9472 2.76016 14.868 2.24059C16.0392 1.83609 17.3738 1.76463 18.5825 1.83729C19.2038 1.98868 19.8445 2.11948 20.318 2.6124C21.19 3.66242 20.5239 5.22232 20.7467 6.53031C21.0665 7.42047 20.9514 8.84352 20.9429 9.73004C20.9611 10.1794 20.4185 10.4712 20.0237 10.2811C19.7924 10.1794 19.6289 9.96864 19.4218 9.82694C19.1057 9.58472 18.6854 9.61742 18.3451 9.5387C18.0993 9.4733 17.8704 9.35824 17.6148 9.33038C17.1425 9.3001 16.4836 9.29284 16.0319 9.34007C15.8175 9.37519 15.6468 9.46118 15.4481 9.50842C15.2277 9.56897 14.9734 9.53627 14.7615 9.61984C13.445 10.2181 12.3623 11.078 11.3377 12.1074C10.611 12.8668 10.0139 13.5632 9.47621 14.3867C9.31392 14.9475 9.22793 15.524 9.04747 16.075C8.88155 16.4783 8.92394 16.9264 8.90578 17.5041C8.90093 18.3797 8.89124 19.0846 9.19886 19.8851C9.31755 21.2198 9.40354 22.5387 9.94974 23.7522C10.0091 24.0102 10.0357 24.0804 10.2162 24.2451C10.9671 24.933 12.8176 26.9713 13.3699 27.3237C13.6787 27.394 14.0372 27.5211 14.3448 27.6628C14.8644 27.8929 15.4627 27.8796 16.0222 27.9353C17.2164 28.3071 18.5474 28.3471 19.7391 27.9075C22.0462 26.9677 21.2142 29.3947 21.3159 30.7923C21.4879 31.3967 21.5836 31.955 21.5606 32.5957C21.5896 33.5052 21.5715 34.2185 20.8388 34.7296C18.9591 35.552 16.8118 34.7902 14.9564 34.2524C13.319 33.7341 11.4878 33.5548 9.83832 33.0547C6.96075 32.0252 4.32297 29.6212 2.58382 27.1929C2.1345 26.6637 2.27015 25.6536 2.11149 25.0856C2.09211 25.0372 2.06305 25.0045 2.02793 24.9766L1.99159 24.9512C1.85111 24.8785 1.6755 24.7647 1.6646 24.491C1.55439 22.8208 1.30732 20.5646 1.48051 18.7733H1.48293Z" fill="var(--fill-0, white)"/>
<path id="Vector_5" d="M105.63 36.9691C106.603 38.2395 107.689 39.3259 108.703 40.4583C108.899 40.6932 108.887 40.9536 109.113 41.0347C109.318 41.1014 109.757 41.1074 110.002 41.0081C110.23 40.9185 110.3 40.6339 110.466 40.5079C110.741 40.2996 111.155 40.2863 111.466 40.4195C111.974 40.6266 112.925 40.2911 113.486 40.5309C113.583 40.583 113.669 40.6423 113.753 40.7126C113.988 40.9294 114.171 40.9148 114.578 40.9451C115.333 40.9948 116.577 41.0335 117.401 41.0578C120.014 41.1704 122.588 41.0408 125.208 41.0711C125.485 41.0759 125.789 41.0008 125.962 40.7853C126.437 40.2076 126.033 39.2593 126.279 38.5641C126.471 38.099 126.365 37.5286 126.064 37.1289C125.905 36.8879 125.802 36.7305 125.772 36.5355C125.664 35.6029 125.941 34.5081 125.589 33.5707C125.491 32.3051 125.707 30.9148 125.553 29.6722L125.526 29.6395C125.285 29.505 124.861 29.6819 124.577 29.6831C123.678 29.8914 123.224 28.9734 122.579 28.5628C122.047 28.2346 121.482 27.7913 120.879 27.6533C120.408 27.4401 120.386 26.8031 120.306 26.3295C120.275 23.4071 120.37 20.469 120.299 17.5478C120.214 14.9016 119.704 11.3555 120.234 8.75524C120.3 8.34468 120.476 8.0528 120.496 7.61923C120.385 6.97734 120.257 6.29307 119.761 5.83528C119.198 5.32903 118.347 5.67298 117.85 5.12799C116.924 4.37953 115.767 2.96012 114.963 2.05906C114.662 1.78414 114.304 1.20765 113.818 1.21613C113.368 1.25004 112.823 0.969067 112.349 1.05021C109.863 1.52012 107.36 1.16648 104.855 1.21976C104.448 1.27547 103.882 1.27911 103.867 1.71511C103.872 2.1402 103.822 2.74939 103.89 3.08244C103.977 3.30286 104.18 3.44698 104.438 3.71585C104.783 4.03921 104.888 4.23056 104.869 4.63749C105.131 11.9974 104.22 20.3939 104.642 27.4728C104.797 28.426 104.47 29.3718 104.466 30.245C104.541 30.813 104.387 31.3217 104.222 31.8546C104.171 32.379 103.862 32.7678 103.451 33.0984C102.427 33.9122 102.926 34.5372 103.769 35.173C104.467 35.7095 105.101 36.2933 105.628 36.9679L105.63 36.9691ZM109.781 39.0134L109.76 39.0546C109.686 39.1042 109.337 39.2593 109.272 39.2326C109.118 39.1164 108.919 38.8887 108.738 38.747C108.428 38.4757 108.303 38.3812 108.359 38.0554C108.246 37.4317 107.507 36.9788 107.356 36.3611C107.353 36.1867 107.639 35.9033 107.844 36.022C107.983 36.085 108.106 36.2182 108.206 36.3369C108.642 36.9025 109.014 37.5686 109.457 38.0881C109.672 38.3255 109.848 38.7009 109.782 39.0122L109.781 39.0134ZM116.428 39.2605C116.308 39.3004 115.903 39.447 115.783 39.4216C115.499 39.3126 115.209 39.2169 115.005 38.9686C114.132 37.9392 112.957 37.2379 112.055 36.1649C111.891 35.9081 112.039 35.8415 112.284 35.6671C112.475 35.5375 112.599 35.4201 112.711 35.3971C112.855 35.3523 113.083 35.4067 113.22 35.4988C113.387 35.6126 113.605 35.54 113.74 35.6296C113.875 35.7216 114.024 35.9324 114.185 36.045C114.994 36.6251 115.493 37.3748 116.17 38.0639C116.34 38.2746 116.392 39.0013 116.442 39.2411L116.426 39.2617L116.428 39.2605ZM120.926 29.539C121.425 29.4154 121.825 29.6988 122.206 29.9362C122.391 30.0682 122.565 30.0803 122.687 30.2317C123.123 30.7174 123.757 31.4222 124.219 31.9357C124.32 32.0665 124.356 32.0254 124.311 32.1622C124.26 32.3342 124.148 32.7423 124.137 32.7617L124.122 32.7714C123.93 32.7363 123.582 32.6527 123.378 32.6091C122.462 32.2676 122.162 30.8034 121.166 30.5648C120.992 30.4933 121.044 30.2172 120.967 29.9822C120.936 29.7497 120.845 29.5717 120.927 29.5365L120.926 29.539ZM119.836 35.4455C119.995 35.5715 120.387 35.9602 120.694 36.2715C120.883 36.4713 121.028 36.607 121.072 36.699C121.125 36.7801 121.076 37.0635 121.103 37.1653L121.12 37.1955C121.635 37.3796 122.417 38.1281 122.697 38.5253C122.755 38.6489 122.72 38.9613 122.704 39.2048C122.496 39.843 121.901 39.1527 121.653 38.8984C120.609 38.0651 119.402 37.2089 118.359 36.4083C117.331 35.6647 117.971 34.9453 119.254 35.1766C119.501 35.2784 119.536 35.3522 119.836 35.4443V35.4455ZM115.47 12.1887C115.551 12.1027 115.716 12.1609 115.803 12.2263C116.273 12.6792 116.695 13.0486 117.249 13.59C117.747 14.1689 118.643 14.7151 118.453 15.5556L118.413 15.5955C118.195 15.6791 117.937 15.5762 117.78 15.4066C117.347 15.0748 117.117 14.5976 116.792 14.2222C116.313 13.6299 115.16 13.0716 115.473 12.1887H115.47ZM115.268 15.0191L115.301 14.9936C115.855 15.3957 117.757 17.2693 118.521 17.9705C119.23 18.8256 118.781 20.1166 117.788 19.0835C116.764 18.2212 116.055 17.5975 115.381 16.43C115.08 16.0061 114.786 15.4115 115.268 15.0203V15.0191ZM115.576 19.8477C115.381 19.6406 114.976 19.1574 115.251 18.8401C115.433 18.9152 115.866 19.138 116.039 19.333C116.686 20.0403 117.397 20.6664 118.104 21.2114C118.681 21.5602 118.766 22.2384 118.657 22.8416L118.619 22.8815C118.481 22.89 118.244 22.9542 118.133 22.8658C118.075 22.7798 118.103 22.6878 118.054 22.586C117.678 21.9296 115.829 20.7851 115.641 20.3612C115.589 20.2207 115.676 19.947 115.576 19.8477ZM115.327 22.0398C115.635 22.1512 115.987 22.425 116.188 22.6793C116.312 22.7846 116.174 23.0705 116.265 23.2206C116.439 23.4629 117.165 23.5682 117.053 24.0527L117.045 24.0817C116.702 23.9764 116.142 23.8044 115.786 23.6954C115.657 23.6445 115.547 23.5089 115.436 23.3914C115.167 23.1988 114.644 21.7794 115.326 22.0398H115.327ZM106.159 31.1497C106.382 29.218 106.09 27.1604 106.323 25.2056C106.628 22.672 106.563 19.3718 106.526 16.6783C106.542 13.0098 106.496 7.20382 106.541 3.57778C106.702 3.39975 106.93 3.06064 107.196 3.05822C107.993 3.09819 111.888 2.97707 112.309 3.10666L112.338 3.13452C112.457 3.27259 112.757 3.65166 112.766 3.94232C112.769 4.25842 112.588 4.56846 112.59 4.93543C112.579 5.25274 112.61 5.59063 112.596 5.90794C112.295 9.42377 113.101 13.0486 112.616 16.6104C112.57 16.9992 112.57 17.4122 112.616 17.801C112.96 20.3019 112.637 22.9724 112.791 25.4345C112.904 26.4761 112.287 28.019 113.806 28.1934C113.994 28.2152 114.203 28.1547 114.482 28.1135C114.958 28.076 115.424 28.2104 115.882 28.2818C116.731 28.4805 118.396 27.9415 118.694 29.0933C118.731 29.7521 118.729 31.6753 118.691 32.2591C118.681 32.5098 118.468 32.6842 118.301 32.8598C117.785 33.2958 117.168 33.4193 116.519 33.383C115.729 33.3685 114.767 33.4193 113.964 33.3551C111.881 33.5756 109.42 33.7814 107.282 33.4472C106.956 33.3903 106.59 33.297 106.395 33.0257C106.091 32.4844 106.09 31.7613 106.159 31.1461V31.1497Z" fill="var(--fill-0, white)"/>
<path id="Vector_6" d="M78.454 36.9691C79.4265 38.2395 80.5129 39.3259 81.5266 40.4583C81.7228 40.6932 81.7107 40.9536 81.9372 41.0347C82.1418 41.1014 82.5815 41.1074 82.8261 41.0081C83.0538 40.9185 83.124 40.6339 83.29 40.5079C83.5649 40.2996 83.9791 40.2863 84.2903 40.4195C84.7978 40.6266 85.7485 40.2911 86.3105 40.5309C86.4073 40.583 86.4933 40.6423 86.5769 40.7126C86.8118 40.9294 86.9947 40.9148 87.4017 40.9451C88.1574 40.9948 89.4012 41.0335 90.2247 41.0578C92.8383 41.1704 95.4119 41.0408 98.0315 41.0711C98.3088 41.0759 98.6128 41.0008 98.786 40.7853C99.2608 40.2076 98.8575 39.2593 99.1033 38.5641C99.2947 38.099 99.1893 37.5286 98.8877 37.1289C98.7291 36.8879 98.6261 36.7305 98.5959 36.5355C98.4881 35.6029 98.7654 34.5081 98.413 33.5707C98.3149 32.3051 98.5305 30.9148 98.3767 29.6722L98.35 29.6395C98.109 29.505 97.6851 29.6819 97.4005 29.6831C96.5019 29.8914 96.0477 28.9734 95.4034 28.5628C94.8705 28.2346 94.3061 27.7913 93.703 27.6533C93.2319 27.4401 93.2101 26.8031 93.1302 26.3295C93.0987 23.4071 93.1944 20.469 93.1229 17.5478C93.0381 14.9016 92.5283 11.3555 93.0575 8.75524C93.1241 8.34468 93.2997 8.0528 93.3203 7.61923C93.2089 6.97734 93.0805 6.29307 92.5852 5.83528C92.022 5.32903 91.1706 5.67298 90.674 5.12799C89.7476 4.37953 88.591 2.96012 87.7868 2.05906C87.4864 1.78414 87.1279 1.20765 86.6423 1.21613C86.1918 1.25004 85.6468 0.969067 85.1732 1.05021C82.6868 1.52012 80.1835 1.16648 77.6789 1.21976C77.272 1.27547 76.7064 1.27911 76.6907 1.71511C76.6955 2.1402 76.6459 2.74939 76.7137 3.08244C76.8009 3.30286 77.0043 3.44698 77.2623 3.71585C77.6075 4.03921 77.7116 4.23056 77.6935 4.63749C77.9551 11.9974 77.0443 20.3939 77.4658 27.4728C77.6208 28.426 77.2938 29.3718 77.2902 30.245C77.3653 30.813 77.2114 31.3217 77.0455 31.8546C76.9947 32.379 76.6858 32.7678 76.2753 33.0984C75.2507 33.9122 75.7496 34.5372 76.5926 35.173C77.2914 35.7095 77.9248 36.2933 78.4516 36.9679L78.454 36.9691ZM82.6045 39.0134L82.5839 39.0546C82.51 39.1042 82.1612 39.2593 82.0958 39.2326C81.942 39.1164 81.7434 38.8887 81.5617 38.747C81.2517 38.4757 81.1269 38.3812 81.1826 38.0554C81.07 37.4317 80.3312 36.9788 80.1799 36.3611C80.1774 36.1867 80.4632 35.9033 80.6679 36.022C80.8072 36.085 80.9295 36.2182 81.03 36.3369C81.466 36.9025 81.8378 37.5686 82.2811 38.0881C82.4955 38.3255 82.6723 38.7009 82.6057 39.0122L82.6045 39.0134ZM89.2534 39.2605C89.1335 39.3004 88.7278 39.447 88.6079 39.4216C88.3245 39.3126 88.0338 39.2169 87.8304 38.9686C86.9572 37.9392 85.7824 37.2379 84.8801 36.1649C84.7166 35.9081 84.8644 35.8415 85.109 35.6671C85.3004 35.5375 85.4239 35.4201 85.5366 35.3971C85.6807 35.3523 85.9084 35.4067 86.0452 35.4988C86.2124 35.6126 86.4303 35.54 86.5648 35.6296C86.7004 35.7216 86.8494 35.9324 87.0105 36.045C87.8195 36.6251 88.3185 37.3748 88.9955 38.0639C89.165 38.2746 89.2171 39.0013 89.2667 39.2411L89.251 39.2617L89.2534 39.2605ZM93.7502 29.539C94.2492 29.4154 94.6489 29.6988 95.0304 29.9362C95.2145 30.0682 95.3889 30.0803 95.5112 30.2317C95.9472 30.7174 96.5806 31.4222 97.0432 31.9357C97.1438 32.0665 97.1801 32.0254 97.1353 32.1622C97.0844 32.3342 96.9718 32.7423 96.9609 32.7617L96.9463 32.7714C96.7538 32.7363 96.4062 32.6527 96.2015 32.6091C95.2859 32.2676 94.9856 30.8034 93.99 30.5648C93.8156 30.4933 93.8677 30.2172 93.7914 29.9822C93.7599 29.7497 93.6691 29.5717 93.7515 29.5365L93.7502 29.539ZM92.6603 35.4455C92.8189 35.5715 93.2113 35.9602 93.5177 36.2715C93.7067 36.4713 93.852 36.607 93.8956 36.699C93.9489 36.7801 93.9004 37.0635 93.9271 37.1653L93.944 37.1955C94.4587 37.3796 95.2411 38.1281 95.5209 38.5253C95.579 38.6489 95.5439 38.9613 95.5281 39.2048C95.3198 39.843 94.7252 39.1527 94.4769 38.8984C93.4329 38.0651 92.2255 37.2089 91.1827 36.4083C90.1545 35.6647 90.7952 34.9453 92.0777 35.1766C92.3248 35.2784 92.3599 35.3522 92.6603 35.4443V35.4455ZM88.2942 12.1887C88.3754 12.1027 88.5401 12.1609 88.6273 12.2263C89.0972 12.6792 89.5187 13.0486 90.0733 13.59C90.5711 14.1689 91.4673 14.7151 91.2772 15.5556L91.2372 15.5955C91.0192 15.6791 90.7613 15.5762 90.6038 15.4066C90.1714 15.0748 89.9413 14.5976 89.6155 14.2222C89.1372 13.6299 87.9842 13.0716 88.2967 12.1887H88.2942ZM88.092 15.0191L88.1247 14.9936C88.6794 15.3957 90.5808 17.2693 91.345 17.9705C92.0535 18.8256 91.6054 20.1166 90.6123 19.0835C89.5877 18.2212 88.8792 17.5975 88.2046 16.43C87.9043 16.0061 87.61 15.4115 88.092 15.0203V15.0191ZM88.4008 19.8477C88.2058 19.6406 87.8013 19.1574 88.0762 18.8401C88.2579 18.9152 88.6915 19.138 88.8647 19.333C89.5114 20.0403 90.2223 20.6664 90.9296 21.2114C91.5061 21.5602 91.5909 22.2384 91.4819 22.8416L91.4443 22.8815C91.3062 22.89 91.0689 22.9542 90.9587 22.8658C90.9005 22.7798 90.9284 22.6878 90.8787 22.586C90.5033 21.9296 88.6539 20.7851 88.4662 20.3612C88.4141 20.2207 88.5013 19.947 88.4008 19.8477ZM88.1525 22.0398C88.4602 22.1512 88.8126 22.425 89.0136 22.6793C89.1372 22.7846 88.9991 23.0705 89.0899 23.2206C89.2643 23.4629 89.9898 23.5682 89.8784 24.0527L89.8699 24.0817C89.5271 23.9764 88.9676 23.8044 88.6115 23.6954C88.482 23.6445 88.3717 23.5089 88.2615 23.3914C87.9927 23.1988 87.4695 21.7794 88.1513 22.0398H88.1525ZM78.9845 31.1497C79.2073 29.218 78.9155 27.1604 79.148 25.2056C79.4532 22.672 79.3878 19.3718 79.3515 16.6783C79.3672 13.0098 79.3212 7.20382 79.366 3.57778C79.5271 3.39975 79.7548 3.06064 80.0212 3.05822C80.8181 3.09819 84.713 2.97707 85.1345 3.10666L85.1635 3.13452C85.2822 3.27259 85.5826 3.65166 85.5911 3.94232C85.5947 4.25842 85.413 4.56846 85.4154 4.93543C85.4045 5.25274 85.4348 5.59063 85.4215 5.90794C85.1199 9.42377 85.9265 13.0486 85.4409 16.6104C85.3949 16.9992 85.3949 17.4122 85.4409 17.801C85.7848 20.3019 85.4627 22.9724 85.6165 25.4345C85.7291 26.4761 85.1127 28.019 86.6314 28.1934C86.8191 28.2152 87.0286 28.1547 87.3072 28.1135C87.7831 28.076 88.2494 28.2104 88.7072 28.2818C89.5562 28.4805 91.2215 27.9415 91.5194 29.0933C91.5557 29.7521 91.5545 31.6753 91.5158 32.2591C91.5061 32.5098 91.2929 32.6842 91.1258 32.8598C90.6099 33.2958 89.9934 33.4193 89.3443 33.383C88.5546 33.3685 87.5918 33.4193 86.7888 33.3551C84.7057 33.5756 82.2448 33.7814 80.1072 33.4472C79.7814 33.3903 79.4156 33.297 79.2207 33.0257C78.9167 32.4844 78.9155 31.7613 78.9845 31.1461V31.1497Z" fill="var(--fill-0, white)"/>
<g id="Group_2">
<path id="Vector_7" d="M61.649 39.5813C62.4556 39.396 63.215 38.9007 63.9671 38.4659C65.5984 37.3456 67.9395 35.942 68.8248 34.0466C68.9835 33.831 69.5369 33.7147 69.6992 33.4907C69.8058 33.3393 69.7949 33.1262 69.824 32.9433C69.8724 32.3305 70.2067 31.9029 70.524 31.3652C71.2591 30.119 71.7085 28.5966 72.2002 27.1857C72.383 26.6758 72.4291 26.2204 72.4908 25.7481C72.5623 25.4296 72.7112 25.151 72.7306 24.824C72.8142 23.3513 72.767 21.6328 72.4363 20.1589C72.2547 19.3147 71.7884 18.3955 71.5207 17.4811C70.9987 15.3157 69.8942 13.7836 68.4143 11.9282C67.7954 11.1047 67.1075 10.6372 66.3445 9.95414C65.1443 8.82781 64.2481 7.39023 62.997 6.4601C60.8049 5.19087 58.5728 3.59827 56.1179 2.83044C55.7037 2.6633 55.1442 2.55067 54.8184 2.25516L54.7712 2.22731C51.9675 1.37953 48.3087 1.24147 45.3343 2.019C44.9116 2.08924 44.6524 2.4453 44.2552 2.57489C43.2476 2.78683 42.2169 2.69479 41.3243 3.33668C40.8157 3.64793 40.4075 3.88046 39.9364 4.28618C38.3862 5.65594 36.7173 7.22068 35.6806 8.73213C34.6766 10.1431 33.9608 11.9876 33.3843 13.4336C33.1651 13.7449 32.8539 14.1058 32.78 14.5042C32.3113 16.3911 31.9589 19.0749 32.0546 21.1338C32.1551 21.5783 32.3307 22.0736 32.298 22.5617C32.4167 24.1277 32.3876 25.9588 33.1433 27.4279C33.8058 28.6342 34.6294 30.2231 35.7351 31.0079C35.9713 31.2865 35.9797 31.7879 36.2365 32.1028C36.8905 32.8888 37.7249 33.4737 38.3571 34.2985C39.9461 36.1939 42.1697 37.147 44.2346 38.2963C46.0658 39.1259 48.1138 39.4639 50.0103 40.1699C50.6619 40.4424 51.1573 40.6289 51.8827 40.6229C54.0421 40.6822 56.3032 40.5163 58.2616 40.182C59.4351 39.9277 60.4924 39.7666 61.649 39.5825V39.5813ZM63.7963 36.8915L63.7709 36.9012C63.5941 36.8842 63.1678 36.946 62.9667 36.9169C62.6579 36.8346 61.9845 35.971 61.6151 35.6295C61.4322 35.4599 61.3487 35.3025 61.1961 35.2892C61.138 35.2807 61.0738 35.2734 61.0193 35.2383C60.7843 35.0591 60.2999 34.5746 60.3665 34.3942C60.5045 34.2864 61.0822 34.1386 61.2579 34.0744C61.5388 34.2646 62.0959 34.7696 62.4871 35.0809C62.9255 35.4454 63.2852 35.7446 63.6316 36.034C63.7006 36.0982 63.7031 36.0655 63.7176 36.1866C63.7346 36.3755 63.8157 36.8733 63.7951 36.8915H63.7963ZM65.1673 35.4914C64.9372 35.4042 64.2711 34.8084 63.5105 34.2428C63.0733 33.9037 62.7681 33.6663 62.4484 33.418C62.2413 33.3102 62.5404 32.9263 62.6664 32.867L62.7124 32.85C63.7261 32.6235 64.6792 33.8068 65.4725 34.4341C65.6118 34.5419 65.7837 34.7188 65.8225 34.8871C65.9485 35.2855 65.4991 35.5362 65.1685 35.4914H65.1673ZM69.6726 29.6576C69.6556 29.815 69.2996 29.9543 69.2003 30.0185C69.0937 30.0463 68.5293 29.861 68.4627 29.8453L68.4421 29.8247C68.4118 29.7859 68.4046 29.7012 68.407 29.637C68.3779 29.396 67.9928 29.3281 67.7748 29.2349C67.4829 29.1186 67.3703 28.6693 67.0457 28.6184C66.9391 28.6087 66.8459 28.6269 66.8386 28.547C66.8289 28.4695 66.8386 28.3387 66.772 28.2624C66.4002 27.9172 66.7829 27.4255 66.8265 27.0258C66.841 26.912 66.8265 26.8103 66.8725 26.7957C66.9658 26.7885 67.4793 26.9277 67.6561 26.9592C67.9867 27.1578 68.2241 27.5527 68.5463 27.7634C69.1385 28.174 69.675 28.5264 69.6774 29.3439C69.6847 29.4517 69.6859 29.5728 69.6738 29.6576H69.6726ZM68.5475 26.1672C68.5015 26.0751 68.3719 25.9189 68.2302 25.8438C68.0582 25.7372 67.862 25.6682 67.7421 25.627C67.5907 25.5834 67.6307 25.5907 67.5774 25.3836C67.5507 25.2806 67.5096 25.1535 67.4357 25.0505C67.3715 24.9427 67.1971 24.8907 67.2734 24.8095C67.4672 24.5443 67.6464 24.5297 67.885 24.7054C68.4712 25.1123 69.1567 26.0364 69.675 26.5826L69.6847 26.5959C69.3965 26.4748 68.8454 26.3331 68.5463 26.1684L68.5475 26.1672ZM70.9733 25.3787C70.6766 25.4405 70.5301 25.0747 70.3108 24.9439C69.3383 24.1519 66.6933 23.0922 67.9153 21.5662L67.9589 21.5383C68.2084 21.542 68.5451 21.7563 68.7316 21.8968C69.4243 22.5181 70.3593 23.4482 71.0351 24.1701C71.1659 24.3384 71.2603 24.359 71.2979 24.5552C71.3366 24.8156 71.2507 25.3121 70.9745 25.3787H70.9733ZM70.4465 20.0136C70.6669 20.2655 70.9115 20.6821 71.0968 20.9933C71.2712 21.2949 71.3984 21.5965 71.2228 21.9053C71.1211 22.0494 71.0557 22.179 70.937 22.1548C70.6318 21.9331 69.0246 20.7693 68.3016 20.2449C68.1381 20.1189 68.0618 20.1032 67.8802 19.8706C67.7578 19.6999 67.7106 19.5279 67.6174 19.4056C67.5265 19.2942 67.4127 19.19 67.3303 19.0713C67.053 18.6607 67.3109 18.1351 67.7045 17.9183H67.753C67.8886 17.9837 68.0836 18.0915 68.2338 18.1751C68.5099 18.3713 68.6964 18.6898 68.9677 18.8945C69.5696 19.3571 69.9947 19.4855 70.4465 20.0136ZM66.6279 14.8615C66.6448 14.7319 66.6085 14.566 66.6678 14.5018C67.6597 14.2172 68.1672 15.3726 68.8999 16.0302C68.9738 16.1029 69.0428 16.1804 69.1131 16.2325C69.2196 16.3039 69.3698 16.2688 69.4824 16.3851C69.8397 16.6927 70.2515 17.1856 70.2612 17.6616L70.2345 17.6919C69.5648 17.8324 68.9072 17.4375 68.3598 17.1033C68.1672 17.0282 67.8148 17.0161 67.6149 16.9228C67.3812 16.8114 67.1038 16.4723 66.927 16.3003C66.7696 16.1695 66.8459 16.0145 66.8265 15.8449C66.7877 15.7105 66.6448 15.633 66.6206 15.4986C66.5903 15.2987 66.6194 15.0698 66.6279 14.8615ZM66.8544 32.2287C67.0748 32.4395 67.1438 32.4286 67.4272 32.5569C68.1139 33.022 67.3994 33.9097 66.6533 33.6917C66.2633 33.4907 65.8952 33.1044 65.2896 32.7265C64.7192 32.3159 63.6595 31.6934 64.483 31.0467L64.529 31.0322C64.7265 30.9898 65.0595 31.0382 65.286 31.0431C65.481 31.0225 65.6178 31.0903 65.7571 31.2259C66.118 31.5311 66.5019 31.9259 66.8556 32.2275L66.8544 32.2287ZM44.1946 36.7001C43.8386 36.4821 43.319 36.1636 42.9593 35.9444C42.8794 35.902 42.9048 35.8911 42.8152 35.8923C42.7098 35.8766 42.4991 35.9323 42.424 35.8536C42.315 35.7324 41.5653 35.1414 41.5823 35.0821C42.6299 34.99 44.3048 35.3231 44.1995 36.6735L44.1958 36.7001H44.1946ZM49.446 38.3121C49.3237 38.3254 49.1759 38.3181 49.0536 38.3206C48.8017 38.3206 48.6127 38.0917 48.425 37.9621C48.1658 37.6981 47.817 37.5879 47.6426 37.4292C47.576 37.3081 47.5009 37.0211 47.4331 36.9217C47.5663 36.8939 48.2542 37.0707 48.4674 37.0913C48.7496 37.1301 49.0245 37.841 49.429 37.7162L49.4545 37.7199C49.4496 37.7344 49.4653 38.2976 49.446 38.3121ZM55.5184 38.6972L55.5003 38.7336C55.166 38.8644 54.6598 38.283 54.4636 38.1583C54.4079 38.0638 54.1438 38.1425 54.0082 38.1147C53.881 38.0868 53.1774 37.3517 52.9666 37.0102C52.6542 36.6008 53.1544 36.6517 53.3954 36.6941C53.852 36.8006 54.1899 37.1361 54.5992 37.3129C54.9734 37.7126 55.6311 38.0735 55.5209 38.696L55.5184 38.6972ZM54.8632 34.4862C54.5229 34.5964 54.0494 34.634 53.6848 34.6982C52.7099 34.8496 50.8254 34.99 49.3612 34.9779C47.7456 35.0906 46.3298 34.0115 44.8341 33.5779C43.956 33.2848 42.9302 33.223 41.9141 33.0208C40.3445 32.4576 37.4912 30.6761 36.6592 29.8925C36.4642 29.6382 36.2958 29.3512 36.0282 29.1598L35.9858 29.1186C35.7884 28.8958 35.534 28.7262 35.3197 28.5046C34.8946 27.8046 34.5276 26.981 34.197 26.218C33.6932 25.0578 33.9972 23.5052 33.8312 22.1584C33.4497 20.9061 33.7331 19.5945 33.8942 18.169C34.2394 16.1259 34.7238 14.3553 35.7254 12.8729C36.796 10.8419 37.668 8.92107 39.131 7.3103C40.4027 5.86061 42.2399 4.79969 44.0505 4.1469C44.518 4.0052 45.0061 4.03548 45.4954 3.8841C46.027 3.71818 46.4982 3.51955 47.0468 3.46748C48.8877 3.26522 50.7988 2.93701 52.596 3.26401C54.1681 3.67458 55.6613 3.69638 56.9863 4.37702C58.4977 5.16423 60.0734 6.69022 61.2554 7.77173C61.9203 8.49476 62.8069 9.30135 63.1956 10.1709C63.2538 10.3562 63.2986 10.5657 63.3397 10.751C63.4306 11.2088 63.7709 11.6485 63.9913 12.0675C64.6187 13.1926 64.6538 14.0586 64.9178 15.1679C65.0522 15.719 65.5367 16.0169 65.5379 16.6007C65.6711 17.8009 65.7789 19.19 65.4301 20.3333C65.3986 20.8686 65.5415 21.5795 65.3913 21.9731C65.3041 22.1778 65.1237 22.3316 65.0559 22.5484C64.9808 22.7833 65.0329 23.0461 65.005 23.2896C64.9868 23.682 64.5533 24.1095 64.4382 24.5055C64.3135 24.9367 64.414 25.3751 64.2783 25.8159C63.9259 27.027 63.0236 27.9414 62.4556 28.9115C62.1795 29.3136 62.0741 29.8441 61.7907 30.1989C61.1392 30.9413 60.3968 31.8581 59.6362 32.414C58.4965 33.3187 56.996 33.527 55.6613 34.0163C55.3356 34.135 55.1418 34.3821 54.8644 34.4886L54.8632 34.4862ZM57.788 35.2989L57.828 35.2868C58.1017 35.2759 58.6491 35.2868 58.9059 35.2819C59.0028 35.2783 59.0464 35.2868 59.1154 35.3364C59.876 35.9444 60.7976 36.6383 61.385 37.4898C61.5255 37.9415 61.0544 38.168 60.6656 38.1098C60.0964 38.0602 59.8251 37.577 59.4581 37.3117C59.2232 37.1422 58.7739 36.9302 58.4881 36.7328C58.2725 36.5524 57.0735 35.6271 57.788 35.2965V35.2989Z" fill="var(--fill-0, white)"/>
<path id="Vector_8" d="M56.6597 16.2132C56.4659 15.753 55.9621 15.1317 55.675 14.6255C55.0065 13.0208 54.0485 11.3192 52.5225 10.3915C52.0442 10.1371 51.4338 9.75321 50.9336 9.8065C50.5121 9.7847 50.2142 9.55338 49.7515 9.58487C49.4209 9.5667 49.1666 9.66722 48.9038 9.74836C48.3079 9.85373 47.8319 9.75078 47.3075 10.1165C46.5167 10.5949 45.5442 10.6858 44.8018 11.2429C44.2774 11.6801 43.9927 12.5085 43.3872 12.9348C42.9863 13.24 42.3783 13.1286 42.1192 13.619C41.8006 14.1435 42.1058 14.8677 41.9956 15.4236C41.8842 16.2447 41.3961 16.9799 41.1563 17.7852C40.9614 18.3496 41.1539 18.6899 41.1709 19.2361C41.1878 19.7932 41.0861 20.469 41.1685 20.9595C41.3525 21.8303 41.6444 22.8283 41.8103 23.5586C41.9666 23.9897 42.0889 24.479 42.2451 24.9041C42.2851 24.9792 42.342 25.0615 42.3905 25.1318C42.6266 25.4152 42.7187 25.8415 42.9573 26.1309C43.7009 27.0066 44.9858 27.5491 45.9814 28.1268C46.547 28.4441 47.2276 28.2758 47.8162 28.518C48.171 28.673 48.5804 28.6561 49.0237 28.65C49.4827 28.6525 49.7709 28.4127 50.1924 28.4199C50.9069 28.472 51.5706 27.8422 52.2985 27.6606C52.6109 27.5637 52.6872 27.3396 52.9379 27.2052C53.1172 27.1216 53.3388 27.078 53.5241 26.9884C54.3622 26.6105 54.8854 25.9965 55.3771 25.2468C55.7283 24.76 55.7586 24.1968 56.2152 23.8928L56.2491 23.8516C56.3726 23.6906 56.3969 23.3648 56.5034 23.1553C56.6875 22.7399 56.9733 22.3499 56.9431 21.8848C56.9431 21.4319 57.1938 21.1364 57.1829 20.7016C57.1768 19.7569 57.3464 18.6209 57.0145 17.8288C56.8014 17.342 56.8728 16.6952 56.6572 16.2144L56.6597 16.2132ZM50.8524 12.0652L50.8851 12.0349C51.2085 11.9841 51.5779 12.0422 51.8225 12.282C52.2912 12.6756 52.7902 13.2618 53.2189 13.6857C53.2807 13.7595 53.311 13.8843 53.288 13.9412C53.231 14.003 52.6981 14.0332 52.6182 14.0587C52.026 13.5391 51.4107 12.9372 50.8948 12.3547C50.8452 12.2844 50.8403 12.1354 50.8512 12.064L50.8524 12.0652ZM47.6648 11.8412C48.2934 11.6207 48.6349 12.1657 49.0782 12.5775C49.9126 12.8863 50.6114 13.9436 50.6623 14.8338L50.6526 14.8616C50.4782 14.8519 49.8496 14.6933 49.7455 14.6642C49.2429 14.1677 48.4314 13.3502 47.9022 12.8234C47.7278 12.6259 47.5086 12.477 47.4274 12.3195C47.4698 12.2251 47.5594 11.8811 47.6636 11.8412H47.6648ZM45.3782 21.3459C45.0452 21.404 44.8817 21.1 44.6625 20.905C44.2665 20.5514 42.8737 19.2143 43.1498 18.7456C43.4235 18.5519 43.6972 18.9213 43.885 19.1066C44.4796 19.7266 45.3068 20.4884 45.4134 21.3301L45.3795 21.3447L45.3782 21.3459ZM44.3888 14.9924C44.3246 14.7042 44.3718 14.2004 44.6673 14.0672L44.7146 14.0502C45.3007 13.9255 45.8094 14.4838 46.1606 14.9125C46.2272 15.0118 46.203 15.1293 46.2781 15.231C46.7238 15.7324 47.2881 16.1115 47.597 16.7279C47.6902 17.3601 47.0968 17.3916 46.616 17.1337C46.163 16.6747 44.6262 15.3788 44.3888 14.9924ZM55.56 20.6568C55.5866 21.1969 55.239 21.582 55.1543 22.1052C54.9944 22.7447 54.9823 23.3551 54.4518 23.8432C54.1817 24.1508 54.0631 24.3615 53.8802 24.6413C53.6283 25.0228 53.116 25.3219 52.6981 25.6392C52.3433 25.9214 52.0393 26.0595 51.5985 26.1273C50.8742 26.2508 50.213 26.4313 49.5287 26.7329C49.0006 26.9024 48.0972 26.8467 47.7084 26.3392C47.528 25.9844 47.2785 25.661 47.0338 25.3316C46.8207 25.0131 46.7407 24.6909 46.9733 24.3506C47.052 24.215 47.1586 24.0575 47.138 23.9086C46.84 23.3793 46.616 22.3123 46.8291 21.7177C46.949 21.4634 47.2022 21.2841 47.2603 20.9922C47.3693 20.5611 47.3184 20.0621 47.4977 19.6588C47.8344 18.9927 49.3688 17.3505 49.9078 16.9278C50.6284 16.47 51.5682 15.9771 52.3917 15.6816L52.4426 15.6731C52.7975 15.6416 53.6416 15.6476 53.9795 15.7276C54.3295 15.9553 54.8127 16.6577 55.1409 16.9956C55.7828 18.0396 55.5588 19.4541 55.5612 20.6616L55.56 20.6568Z" fill="var(--fill-0, white)"/>
</g>
<path id="Vector_9" d="M310.31 41.3946C311.021 41.3583 311.706 41.0798 312.404 40.9514C313.558 40.7697 314.566 40.5202 315.633 39.8977C316.518 39.3297 318.499 38.5437 318.479 37.3217C318.508 36.4122 319.165 35.5547 319.364 34.7215C319.828 33.118 320.134 31.1729 319.71 29.4907C319.726 29.1153 319.887 28.8658 319.824 28.5291C319.646 27.7734 319.299 27.0031 318.924 26.3588C318.365 25.2991 318.094 24.128 317.264 23.2196C316.097 21.7808 314.591 20.4935 313.439 19.0595C313.068 18.5896 312.594 18.1766 312.561 17.5396C312.55 17.1072 312.524 16.5985 312.813 16.274C313.318 15.6357 314.314 15.7726 314.974 16.1323C315.857 16.5198 316.712 16.8456 317.406 17.5275C317.679 17.7782 318.205 18.156 318.545 17.9901L318.59 17.9622C319.451 16.5852 318.31 14.7504 318.266 13.2377C318.079 11.8353 317.888 9.87208 318.026 8.94438C318.063 8.73365 318.186 8.59316 318.306 8.40181C318.538 8.07844 318.504 7.65335 318.286 7.3203C317.166 5.99414 315.252 5.32319 313.901 4.3095C313.065 3.69305 312.381 2.93005 311.46 2.45408C310.619 1.98176 309.716 1.31686 308.778 1.0589C308.147 0.788821 307.579 0.880864 306.918 0.879652C306.684 0.874808 306.488 0.822733 306.268 0.760967C305.943 0.658023 305.541 0.76702 305.217 0.838475C304.933 0.885708 304.653 0.903876 304.385 1.02135C303.369 1.47794 302.285 1.72137 301.384 2.36568C301.005 2.597 300.638 2.7181 300.38 3.0233C299.483 3.97765 298.645 4.96591 298.031 6.13826C297.408 7.3433 297.142 8.70943 297.173 10.0804C296.899 10.9863 296.927 11.8861 296.965 12.826C296.931 13.3395 297.104 13.7743 297.269 14.2478C297.447 14.9575 297.588 15.5509 297.994 16.1577C298.528 17.0382 299.17 17.9707 299.772 18.7592C300.753 20.0865 303.152 22.0352 303.78 23.6908C303.88 24.3823 304.266 25.1295 303.826 25.8199C303.241 26.7016 301.554 26.5356 300.728 25.9652C299.951 25.3875 299.008 24.4525 298.542 23.56C298.236 23.0634 297.634 22.6141 297.046 22.8575C296.896 22.952 296.855 22.9811 296.816 23.2051C297.195 24.6766 297.509 26.308 297.584 27.8473C297.647 29.1238 297.545 30.2574 297.731 31.5157C297.763 31.7821 297.793 32.0583 297.743 32.3223C297.644 32.986 296.802 33.0308 296.965 33.7998C296.982 33.9609 297.035 34.076 297.137 34.1946C297.484 34.5846 298.436 35.5208 298.877 35.9084C299.228 36.1542 299.53 36.2826 299.836 36.6156C300.64 37.3629 301.887 38.5643 302.756 39.3067C303.22 39.7681 303.485 39.7463 304.082 40.0431C304.569 40.2998 304.683 40.8085 305.199 40.8896C306.805 41.2542 308.521 41.5158 310.309 41.3983L310.31 41.3946ZM313.175 5.55935C313.935 5.66229 314.336 5.96991 314.187 6.77166C313.177 6.90609 313.092 6.47979 313.175 5.55935ZM312.997 7.62307C313.126 7.39659 313.631 7.2658 313.764 7.44262C313.91 7.60491 314.068 7.86771 314.158 8.02879C314.292 8.26132 314.493 8.47447 314.4 8.76393L314.388 8.79542C314.366 8.77362 313.588 8.67431 313.386 8.57015C313.422 8.40787 313.321 8.22983 313.191 8.11114C313.037 7.96218 312.896 7.79142 312.997 7.62428V7.62307ZM313.597 38.4953L313.57 38.5146C313.272 38.5352 312.888 38.2785 312.639 38.1162C311.853 37.5542 311.035 37.266 310.494 36.5369C310.271 36.1954 310.195 35.7364 310.762 35.866C311.305 35.9629 311.709 36.4788 312.191 36.6605C312.49 36.876 312.933 37.3169 313.352 37.7844C313.513 37.9781 313.742 38.3003 313.597 38.4941V38.4953ZM315.878 37.2999C315.843 37.4695 315.836 37.6536 315.8 37.6875L315.76 37.7093C315.617 37.7468 315.417 37.7141 315.291 37.6257C314.227 36.8821 312.641 36.3916 311.858 35.2338C311.755 35.0509 311.687 34.9928 311.895 34.8656C312.048 34.759 312.343 34.541 312.432 34.4865C312.501 34.4453 312.741 34.4587 312.871 34.4684C312.974 34.5459 314.738 36.0815 315.532 36.767C315.72 36.9293 315.852 37.0432 315.893 37.0795C315.917 37.094 315.906 37.1291 315.878 37.2999ZM315.51 27.3289C315.56 27.2405 315.629 27.1799 315.677 27.1594L315.717 27.1497C316.677 27.4367 317.377 28.1052 317.871 28.9809C318.045 29.2885 318.295 29.6058 318.245 29.9703C318.218 30.1241 318.094 30.4196 317.87 30.3724C317.683 30.2113 317.374 30.324 317.212 30.1932C316.863 29.9086 316.56 29.9655 316.208 29.5634C316.036 29.3926 315.829 29.177 315.709 29.0414C315.559 28.9167 315.633 28.7302 315.491 28.5933C315.267 28.3317 315.352 27.6922 315.512 27.3289H315.51ZM315.456 30.0224C315.878 30.221 316.665 30.9404 317.114 31.2444C317.217 31.3255 317.218 31.3134 317.248 31.3764C317.442 31.764 317.725 32.332 317.936 32.751C317.991 32.8782 318.048 32.9169 318.006 32.9835C317.706 33.4147 317.145 33.273 316.748 33.0259C316.202 32.6977 315.659 32.1467 315.026 32.028L315.004 31.9868C314.997 31.8972 314.97 31.7155 314.884 31.6501C314.543 31.1439 314.781 30.1229 315.455 30.0224H315.456ZM314.693 32.8249C314.854 32.9036 315.026 32.8237 315.198 32.9436C315.287 33.0029 315.373 33.1131 315.439 33.21C315.87 33.8846 316.356 34.5095 316.944 35.1054C317.017 35.1914 317.04 35.3597 317.028 35.4348L317.015 35.4663C316.874 35.4578 316.174 35.321 316.041 35.2253C315.486 34.8159 312.171 33.0308 314.173 32.6251C314.409 32.5827 314.539 32.6917 314.695 32.8249H314.693ZM312.358 13.7428C312.25 13.7924 311.67 13.8493 311.534 13.836C311.29 13.7488 311.139 13.4424 310.93 13.2983C309.816 12.5232 308.307 11.983 307.426 10.8712C307.369 10.8155 307.323 10.7683 307.315 10.7199C307.304 10.5891 307.698 10.2645 307.763 10.2197L307.807 10.2039C308.101 10.2596 308.213 10.4461 308.58 10.3892C308.911 10.3493 309.021 10.7029 309.285 10.8313C310.569 11.1898 311.052 11.8268 311.373 13.067C311.437 13.4933 312.374 13.4376 312.358 13.7428ZM305.659 38.6951C305.2 39.4315 303.966 38.1271 304.256 37.7093L304.293 37.6935C304.87 37.5845 305.238 38.1465 305.597 38.505C305.669 38.5546 305.71 38.6188 305.66 38.6963L305.659 38.6951ZM304.004 35.2858C303.371 35.2192 302.705 35.3379 302.096 35.1841C301.793 35.0739 301.546 34.8087 301.288 34.65C300.982 34.4478 300.491 34.2346 300.213 33.9476C300.008 33.732 300.049 33.4244 299.85 33.1979C299.788 33.1252 299.714 33.0356 299.649 32.9654C299.427 32.7328 299.433 32.4434 299.357 32.177C299.005 31.2505 299.277 30.1992 299.283 29.1613C299.294 28.7314 299.32 28.2445 299.152 27.8557C299.059 27.6196 299.09 27.2647 299.33 27.1C299.573 26.9074 299.913 27.1763 300.095 27.3713C300.485 27.8303 301.007 27.9466 301.55 28.1416C302.082 28.4068 302.428 28.4504 302.984 28.4455C303.426 28.4395 303.998 28.4843 304.377 28.3644C304.781 28.1295 305.046 28.0495 305.468 27.8848C306.076 27.4488 306.489 26.6798 306.379 25.9386C305.746 23.6278 304.273 21.7033 302.75 19.9133C301.669 18.5872 300.489 17.3385 299.725 15.792C299.374 14.6899 299.389 13.5066 299.222 12.3924C298.98 11.7093 298.915 10.9875 299.037 10.2705C299.124 9.9496 299.269 9.61049 299.282 9.26169C299.405 8.37758 299.521 7.36631 299.857 6.5137C300.321 5.93721 300.706 5.24931 301.344 4.8121C302.589 4.03215 303.698 2.70236 305.252 2.76897C305.545 2.76171 305.807 2.65271 306.077 2.56066C306.621 2.4444 307.318 2.44803 307.873 2.53886C308.371 2.71084 308.915 2.74838 309.374 3.04874C309.617 3.13715 309.873 3.16258 310.069 3.34182C310.295 3.55134 310.65 3.89045 310.809 4.10724C311.085 4.49964 311.202 4.98286 311.351 5.40069C311.321 6.58515 311.429 8.91289 311.31 9.54509L311.287 9.58142C311.03 9.9278 310.471 9.64077 310.16 9.46879C309.63 9.19871 308.886 8.82327 308.336 8.6416C308.136 8.58105 307.932 8.575 307.73 8.52413C307.427 8.44057 307.171 8.20077 306.93 8.29766C306.363 8.54472 305.457 8.88504 304.86 8.71669C304.718 8.66946 304.528 8.59195 304.349 8.61981C303.746 8.79299 303.631 9.45547 303.663 9.98593C303.671 10.2669 303.505 10.4958 303.517 10.7538C303.575 11.1304 303.675 11.3363 303.683 11.6996C303.925 13.3855 305.541 14.6644 306.763 15.8356C307.756 16.6821 308.74 18.1427 310.013 18.7289C310.368 18.8839 310.633 18.9796 310.895 19.3066C312.001 20.7393 313.114 22.3719 313.554 24.0565C313.55 24.5712 313.7 24.9794 313.815 25.4892C314.219 30.1084 310.821 34.8135 306.095 35.1756C305.434 35.4179 304.716 35.2883 303.996 35.2883L304.004 35.2858Z" fill="var(--fill-0, white)"/>
<path id="Vector_10" d="M227.645 19.4783C227.346 19.3911 226.978 19.3378 226.845 19.0096C226.153 16.683 226.668 14.1276 226.443 11.6691C226.371 10.8806 226.279 10.108 226.397 9.31469C226.432 8.79876 226.799 8.43059 226.59 7.95705C226.438 7.66154 226.123 7.47866 225.823 7.36118C224.459 6.85494 223.174 5.76253 222.113 4.64105C221.706 4.00643 221.137 3.38635 220.491 3.02181C219.584 2.42352 218.499 2.22369 217.399 1.82403C217.065 1.64236 216.841 1.37591 216.446 1.40498C214.672 1.51519 212.803 0.820021 211.06 1.05497L211.001 1.07435C210.216 1.42436 209.14 1.12401 208.397 1.53215C208.005 1.7453 207.58 2.0723 207.153 2.20915C206.685 2.35691 206.03 2.33148 205.557 2.44169C203.923 2.85225 202.479 4.68222 201.069 5.31079C200.272 5.61235 199.82 6.59092 199.253 7.21706C198.447 8.23438 197.916 9.43701 197.359 10.6239C196.915 11.5928 196.349 12.4732 195.996 13.5063C195.282 15.8377 195.203 18.6232 195.006 21.1375C194.874 23.0873 195.371 24.9512 195.553 26.9689C195.662 27.3855 195.741 27.824 195.992 28.1861C196.541 28.805 197.064 29.4589 197.623 30.0911C200.49 33.1746 202.959 36.5209 206.819 38.3496C207.684 38.7772 208.207 39.3609 209.161 39.6891C209.551 39.8563 209.969 40.0149 210.359 40.159C210.641 40.2559 210.819 40.5018 211.104 40.6035C214.087 41.1812 217.606 41.2018 220.743 41.0625C221.8 40.6847 222.972 40.9923 224.024 40.5296C224.974 40.1445 225.939 39.3294 226.94 39.0545C227.307 38.9588 227.716 39.0654 228.059 38.8995C228.64 38.5531 228.797 37.8047 228.709 37.1761C228.563 36.0522 228.516 34.6425 228.933 33.498C228.993 33.3103 229.007 33.125 228.984 32.9348C228.819 32.0301 228.7 31.4197 228.647 30.2595C228.585 27.3214 228.487 23.6711 229.073 21.6473C229.34 20.7172 228.385 19.8392 227.642 19.4807L227.645 19.4783ZM221.848 11.4002C222.181 11.8483 223.095 13.04 222.841 13.3416L222.798 13.3598C222.547 13.424 222.356 13.1599 222.19 13.0098C222.091 12.9371 221.97 12.965 221.874 12.8996C221.672 12.7252 221.419 12.4502 221.252 12.2383C221.24 11.5964 221.018 10.085 221.534 9.90934C221.708 9.85848 221.98 10.0656 222.022 10.2727C222.035 10.3405 222.011 10.4023 221.97 10.4604C221.761 10.6857 221.813 11.112 221.848 11.4002ZM221.034 6.54854C221.11 6.44559 221.513 5.87032 221.523 5.8679C221.523 5.87516 222.802 6.89612 222.832 6.99785C222.66 7.21948 222.348 7.62036 222.174 7.84562C222.13 7.90375 222.146 7.89892 222.026 7.85168C221.882 7.79355 221.648 7.70029 221.635 7.69545L221.626 7.6797C221.626 7.57555 221.626 7.44959 221.626 7.34544C221.629 7.27398 221.59 7.28609 221.477 7.28609C221.362 7.27035 221.203 7.33938 221.196 7.20374C221.18 7.09232 220.994 6.61757 221.034 6.54732V6.54854ZM207.858 33.8347C207.652 33.7826 207.669 33.8032 207.398 33.7487C206.405 33.6772 205.598 32.9784 204.653 32.7144C202.234 32.0434 199.892 30.9353 198.329 28.9006C197.173 27.3916 196.765 25.2952 196.487 23.4701C196.246 23.1527 196.112 22.8899 196.138 22.4624C196.125 22.1003 196.075 21.7551 196.119 21.4148C196.177 21.0333 196.495 20.8093 196.594 20.4314C196.762 19.6999 196.802 18.863 196.983 18.1473C197.431 16.2398 197.933 14.3069 198.443 12.4018C198.561 12.0833 198.717 12.0094 198.891 11.7151C199.286 10.6881 200.187 9.71556 200.794 8.84478C202.555 6.40683 205.428 4.72946 208.222 3.4033C209.261 2.89706 210.389 2.90917 211.466 2.6064C212.066 2.59307 212.795 2.54584 213.278 2.71297C213.54 2.79412 213.79 2.86678 214.071 2.87647C215.558 3.00848 217.146 2.83893 218.369 3.71819C218.612 3.94103 218.987 4.331 219.189 4.52962C219.332 4.68707 219.395 4.71856 219.411 4.87963C219.416 5.47913 219.411 9.39462 219.413 10.2109C219.411 10.4713 219.214 10.8516 219.008 10.9921L218.963 11.0042C215.804 9.42974 211.986 8.9998 208.589 10.1782C206.571 10.9654 204.858 12.5532 204.161 14.6314C203.858 15.7117 203.376 16.7303 203.406 17.8602C203.337 18.2732 202.997 18.4367 202.996 18.88C202.981 19.2845 202.969 19.9518 203.011 20.2885C203.085 20.6966 203.454 20.9001 203.478 21.3385C203.635 22.9093 203.785 24.5419 204.579 25.9286C205.188 26.6698 205.935 27.2027 206.71 27.7307C207.56 28.3774 208.333 28.6681 209.362 28.8776C209.574 28.9515 209.744 29.0823 209.886 29.1816C210.046 29.3003 210.205 29.3427 210.462 29.3439C210.947 29.3596 211.776 29.3609 212.295 29.3463C212.78 29.3996 212.991 29.0968 213.383 28.9212C213.97 28.7359 214.958 28.897 215.563 28.6136C216.962 28.0274 216.054 27.0876 215.815 26.0897C215.579 25.2249 215.979 24.0393 215.726 23.1661C215.307 22.0276 213.48 21.9659 212.448 22.0288C210.163 22.3207 210.208 21.3022 210.232 19.4104C210.274 18.3786 209.985 16.7678 211.417 16.7932C213.022 16.8163 214.672 16.7218 216.278 16.7787C217.527 17.136 218.845 16.9362 220.116 17.1263C222.457 17.2087 221.831 18.1012 221.848 19.9155C221.848 21.5892 222.045 23.5609 222.2 25.3291C222.344 26.1284 222.088 26.9447 222.037 27.7125C221.981 28.5785 222.234 29.5728 221.986 30.4012C221.786 31.1085 221.401 31.8085 220.968 32.4007C220.357 33.016 219.399 33.4713 218.597 33.8431C217.942 34.1411 217.095 34.1168 216.274 34.1483C215.288 34.2077 214.313 34.3143 213.309 34.3457C211.475 34.4148 209.617 34.37 207.856 33.8335L207.858 33.8347ZM217.184 14.9403L217.146 14.9548C216.846 14.9512 216.275 15.0468 216.055 14.9439C215.907 14.8543 215.464 14.388 215.248 14.1518C215.165 14.0525 215.166 13.9399 215.12 13.8369C214.865 13.5233 213.718 12.5253 213.273 11.8568C213.141 11.6594 213.061 11.491 213.102 11.3929C213.262 11.267 213.766 11.3082 213.988 11.3687C214.455 11.5625 215.253 12.3097 215.729 12.7494C216.008 12.9807 215.964 13.1454 215.982 13.4276C216.099 13.7994 217.364 14.5115 217.184 14.9427V14.9403ZM210.312 13.6371C210.509 13.9496 211.19 14.3674 211.169 14.6726C211.064 14.9608 210.584 14.5927 210.477 14.434C210.3 14.1918 209.974 13.9968 209.74 13.8612C209.509 13.6068 209.607 13.2181 209.246 12.9892C209.118 12.862 208.911 12.747 208.905 12.6283C208.925 12.5362 209.056 12.4866 209.131 12.5302C209.465 12.7106 209.677 13.1309 210.013 13.3428C210.1 13.3767 210.266 13.3368 210.296 13.3452L210.314 13.3634C210.322 13.3913 210.285 13.562 210.314 13.6395L210.312 13.6371ZM208.702 14.7998C208.666 15.2115 208.005 15.1994 207.641 15.1752C207.553 15.1728 207.566 15.157 207.503 15.0856C207.301 14.8385 206.891 14.3359 206.732 14.1421C206.661 14.0416 206.644 14.0925 206.704 13.9472C206.762 13.803 206.856 13.5693 206.86 13.556L206.87 13.5463C206.898 13.5475 207.398 13.3731 207.58 13.361C207.836 13.6952 208.77 14.2657 208.702 14.801V14.7998ZM218.286 39.6201C218.259 39.6492 217.856 39.4457 217.682 39.3791C217.305 39.0315 216.076 37.6739 215.503 37.1083C215.225 36.8128 215.083 36.711 215.145 36.2968C215.159 36.1588 215.138 36.0001 215.208 35.9638C215.359 35.896 215.76 36.1915 215.957 36.3138C216.062 36.4022 216.268 36.3707 216.341 36.384L216.363 36.407C216.353 36.5487 216.381 36.7752 216.515 36.8951C217.041 37.5455 217.981 38.1135 218.365 38.8619C218.426 38.9576 218.315 39.5632 218.286 39.6201ZM221.549 39.43C220.027 39.4929 219.375 37.6932 218.291 36.7946C218.067 36.5984 218.131 36.3659 218.041 36.0231C218.01 35.7967 217.943 35.6295 217.996 35.6041L218.034 35.5895C218.349 35.5508 218.543 35.2565 218.928 35.3703C219.279 35.4551 219.453 35.8257 219.765 36.0304C220.15 36.3198 220.449 36.6771 220.741 37.061C221.117 37.6581 221.694 38.0965 222.1 38.6645C222.423 39.1635 222.057 39.4736 221.547 39.4312L221.549 39.43ZM224.168 38.4235C223.881 38.449 223.693 38.1377 223.492 37.9682C222.702 37.2463 222.291 36.5742 221.447 35.9347C221.191 35.6767 220.87 35.3376 220.816 34.9792C220.872 34.7599 221.266 34.3421 221.518 34.1108C221.712 33.9037 221.94 33.9703 222.161 33.8153C222.275 33.7535 222.442 33.7075 222.618 33.7438C222.792 33.7802 222.894 33.911 223.016 33.9376C223.186 33.9642 223.398 33.9182 223.518 34.0854C223.658 34.2404 223.693 34.5952 223.662 34.7091L223.643 34.7357C223.426 34.7515 222.929 34.5746 222.784 34.5771C221.914 34.726 222.158 35.1814 222.608 35.6537C222.895 36.5572 223.633 37.0453 224.089 37.8265C224.151 37.9936 224.41 38.3436 224.169 38.4223L224.168 38.4235ZM226.481 32.3147L226.449 32.3353C226.408 32.3414 226.339 32.282 226.257 32.2554C226.114 32.2057 225.955 32.1742 225.812 32.127C225.464 31.995 225.357 31.7092 225.064 31.4076C224.754 31.1109 224.349 30.859 224.203 30.5647C224.05 30.2837 223.928 29.8259 224.091 29.534C224.294 29.3936 224.509 29.6358 224.647 29.786C225.315 30.3891 225.769 31.0746 226.341 31.7358C226.487 31.8836 226.546 32.1294 226.483 32.3147H226.481ZM226.647 29.3463C226.615 29.5316 226.613 29.7327 226.563 29.7169C225.75 29.2967 224.758 28.1546 223.972 27.3662C223.813 27.1675 223.675 27.1143 223.624 26.8854C223.561 26.625 223.686 26.2011 223.92 26.0788H223.967C224.178 26.2641 224.511 26.2265 224.737 26.4251C224.954 26.6153 224.947 26.9399 225.073 27.1821C225.445 27.7695 226.295 28.3072 226.649 28.9685C226.699 29.0605 226.675 29.1525 226.649 29.3475L226.647 29.3463ZM226.472 26.4942C226.313 26.4409 226.192 26.281 226.059 26.1696C225.599 25.7166 224.131 24.4377 223.633 23.728C223.616 23.6166 223.64 23.395 223.553 23.2702C223.442 23.1467 223.426 23.0934 223.503 22.8887C223.569 22.6889 223.605 22.4757 223.644 22.4479L223.684 22.4309C223.856 22.3946 224.07 22.4309 224.212 22.5399C225.068 23.1322 225.676 24.1543 226.24 24.9088C226.503 25.2467 226.91 25.5955 227.055 25.994C227.232 26.3694 226.756 26.585 226.471 26.493L226.472 26.4942Z" fill="var(--fill-0, white)"/>
<g id="Group_3">
<path id="Vector_11" d="M168.469 1.11218C167.793 1.0383 166.296 0.831205 166.348 1.89819C166.359 2.23972 166.574 2.52675 166.715 2.82952C166.912 3.31518 166.939 3.83958 166.984 4.41606C167.103 7.81805 166.174 11.4707 165.422 14.8049C164.627 18.2578 163.592 21.7542 162.859 25.2228C162.261 28.2288 162.001 31.2977 161.355 34.2976C161.266 34.7227 160.87 34.9879 161.001 35.3488C161.106 35.6407 161.298 35.9023 161.475 36.1724C161.94 36.7004 162.291 37.2575 162.604 37.874C162.826 38.178 163.323 38.4008 163.742 38.8489C164.289 39.5659 164.615 40.2356 165.351 40.8206C165.551 41.0022 165.718 41.0446 165.894 41.0943C166.193 41.1391 166.549 41.5739 166.908 41.5896C167.208 41.5824 167.407 41.3232 167.68 41.2239C168.248 41.0761 169.079 40.628 169.63 40.7842C170.547 41.0349 171.608 41.0979 172.532 41.0555C173.349 40.9623 174.384 40.7092 175.137 40.8823C175.591 40.9441 176.164 41.3583 176.595 41.0592C177.179 40.5893 176.616 39.8917 176.501 39.3273C176.405 38.6115 176.52 37.4501 177.367 37.2708C177.879 37.3241 178.184 37.8909 178.601 38.1356C179.165 38.5534 180.087 38.9482 180.279 39.7282C180.457 40.2623 180.873 40.8618 181.431 41.0156C181.817 41.1112 182.15 40.863 182.516 40.783C183.926 40.5021 185.815 40.7043 187.35 40.6728C188.728 40.6498 190.082 40.4221 191.461 40.5881C192.119 40.7092 193.312 40.8327 193.174 39.836C193.123 39.5005 192.851 39.2631 192.751 38.9506C192.682 36.1118 191.649 33.3784 190.749 30.6933C189.721 27.3313 189.062 23.7961 188.009 20.4365C187.464 17.496 186.951 14.5421 186.131 11.6524C185.823 10.2148 185.261 8.67672 185.459 7.2016C185.588 6.78135 185.726 6.24726 185.378 5.86697L185.338 5.82943C185.234 5.73254 185.099 5.64776 184.987 5.55572C184.702 5.32682 184.507 4.88719 184.252 4.68493C183.807 4.36157 183.255 4.20413 182.831 3.82384C181.513 2.89614 179.237 -0.000820099 177.53 0.643486C177.099 0.965639 176.715 1.49004 176.145 1.53122C175.223 1.63417 172.634 1.62569 170.99 1.57119C170.548 1.54939 170.187 1.55544 169.778 1.49731C169.487 1.46219 168.885 1.19575 168.469 1.1146V1.11218ZM173.033 39.4072C172.967 39.469 172.672 39.6192 172.504 39.7221C172.405 39.7778 172.374 39.8057 172.337 39.7754C172.261 39.7064 171.846 39.2837 171.712 39.1517C171.587 39.0512 171.86 38.7811 171.832 38.6781C171.792 38.5643 171.734 38.4359 171.659 38.3415C171.352 38.0399 170.974 37.9236 170.698 37.5203C170.505 37.3011 170.322 37.0759 170.047 36.9887C169.95 36.9596 169.864 36.9669 169.842 36.9002C169.83 36.8058 169.806 36.411 169.864 36.3577C170.077 36.2681 170.244 36.2777 170.44 36.3032C170.925 36.377 171.114 37.0395 171.625 36.9632L171.648 36.9862C171.657 37.0625 171.632 37.2733 171.716 37.3471C172.066 37.7892 172.618 38.3306 172.979 38.7605C173.041 38.838 173.068 38.8647 173.077 38.9615C173.074 39.0948 173.09 39.3406 173.033 39.4084V39.4072ZM185.615 30.2029C185.532 29.9255 185.468 29.3987 185.402 29.102C186.399 28.8428 187.122 30.0006 187.023 30.875L186.996 30.9017C186.468 30.9574 185.938 30.6001 185.615 30.2041V30.2029ZM189.134 35.7109C188.396 35.063 187.558 34.4841 186.873 33.6932C186.719 33.474 186.686 32.8431 186.615 32.5451C186.613 32.5003 186.675 32.5088 186.808 32.5076C186.978 32.5112 187.166 32.4991 187.196 32.5148L187.212 32.5379C187.212 32.6081 187.197 32.8273 187.282 32.9194C187.803 33.6836 188.721 34.2831 189.223 35.0691C189.352 35.3016 189.707 35.952 189.132 35.7109H189.134ZM188.136 27.8715C188.646 28.2845 189.186 28.9627 189.028 29.6433L188.994 29.6784C187.719 29.9522 186.977 27.9441 185.985 27.3761C185.762 27.1993 185.479 27.1351 185.242 26.991C184.706 26.555 184.26 25.6503 184.834 25.0981C185.129 24.8897 185.36 25.3161 185.561 25.4783C186.439 26.291 187.253 27.1412 188.136 27.8715ZM187.129 23.4364C187.414 23.893 187.816 24.8704 187.822 25.4481L187.806 25.4674C187.772 25.4868 187.652 25.4456 187.478 25.4093C187.124 25.3173 186.954 25.3488 186.754 25.0993C186.047 24.3036 185.262 23.6883 184.498 23.038C184.005 22.5535 183.938 21.9347 183.97 21.2056C183.976 21.0384 184.037 20.9706 184.18 21.0748C185.063 21.7312 185.575 22.9205 186.692 23.1482C186.893 23.2039 187.012 23.2414 187.129 23.4364ZM186.609 20.9573L186.571 20.9936C186.259 21.0772 185.902 20.9791 185.647 20.7538C184.636 19.8237 183.003 19.2266 182.959 17.7152C182.961 17.5045 183.042 17.5638 183.219 17.6001C183.46 17.6716 183.737 17.6752 183.957 17.8012C184.298 18.0313 184.533 18.5739 184.763 18.8415C185.176 19.1758 185.661 19.5912 186.071 19.9848C186.377 20.221 186.751 20.537 186.61 20.9573H186.609ZM185.861 16.7923C185.985 17.0406 186.042 17.1629 185.887 17.4354C185.566 18.5145 184.267 16.5634 183.867 16.2861C183.673 16.1177 183.371 16.0099 183.106 15.9966C182.846 15.9857 182.603 15.9639 182.459 15.7217C182.123 15.3039 182.135 15.1585 182.133 14.6886C182.091 14.5494 181.982 14.45 181.936 14.3108C181.857 14.0504 181.989 13.6289 182.222 13.526L182.276 13.5187C182.863 13.7525 183.251 14.3289 183.709 14.748C183.98 14.9757 184.163 14.9091 184.39 15.184C184.833 15.6551 185.597 16.1734 185.862 16.7911L185.861 16.7923ZM184.799 13.6967L184.769 13.721C184.081 13.3806 183.716 12.5268 183.07 12.1029C182.504 11.6597 181.608 11.9685 181.234 11.3097C180.983 10.9015 180.855 10.2451 181.299 9.92174C181.392 9.85755 181.492 9.86845 181.569 9.94112C181.837 10.2027 182.08 10.497 182.35 10.7538C183.135 11.4477 183.871 12.1708 184.605 13.0549C184.781 13.222 184.868 13.4763 184.798 13.6955L184.799 13.6967ZM180.77 3.91225C181.407 4.44029 181.926 4.64497 182.413 5.32924C182.717 5.69378 183.558 5.91299 183.354 6.51976L183.319 6.55366C183.279 6.58152 183.224 6.58637 183.159 6.57304C182.492 6.39138 181.83 5.50485 181.173 5.96507C180.93 6.1213 181.002 6.40591 181.184 6.57546C181.836 7.20887 182.27 7.93795 182.969 8.53139C183.495 9.03037 184.324 9.41792 184.383 9.90357C184.372 10.0949 184.118 10.3287 183.936 10.2851C183.656 10.2342 183.364 9.65772 183.014 9.52329C182.362 9.20356 181.727 8.60043 181.189 8.05664C181.04 7.90041 180.982 7.73328 180.888 7.5722C180.79 7.38569 180.597 7.25005 180.528 7.05264C180.392 6.61422 180.406 6.06438 180.232 5.62838C179.921 4.98286 179.485 3.01119 180.769 3.91225H180.77ZM170.254 2.79683C171.016 2.79925 176.074 2.79077 176.721 2.80167C177.161 3.00998 177.593 3.52469 177.677 4.03941C178.199 5.58962 178.641 7.1689 179.008 8.78693C180.966 15.3329 182.138 22.2084 183.834 28.8222C184.128 29.9049 184.458 31.0022 184.759 32.0946C185.029 32.6856 185.238 33.4425 184.817 33.9924C184.484 34.3206 183.959 34.2758 183.526 34.3424C182.553 34.4853 181.43 34.6706 180.391 34.5616C179.961 34.432 179.531 34.3569 179.114 34.2225C178.629 33.9476 178.477 33.4304 178.296 32.9048C177.981 32.2968 178.306 31.5145 178.051 30.9356C177.864 30.6667 177.363 30.1544 177.082 29.9788C176.998 29.9449 177.013 29.9291 176.824 29.9098C175.65 30.2489 173.982 30.1798 172.244 30.1568C171.919 30.1375 171.714 30.152 171.466 30.0951C171.218 29.9824 170.961 29.9291 170.612 30.049C169.773 30.2779 169.373 31.2044 169.407 32.0934C169.479 32.7328 169.372 33.2403 169.018 33.7768C168.872 33.9936 168.714 34.1111 168.616 34.128C168.012 34.1002 163.762 34.2128 163.192 34.0917L163.162 34.0687C162.776 33.709 163.118 33.2137 163.119 32.7764C163.103 32.4301 163.361 32.2133 163.504 31.9335C163.671 31.4576 163.623 30.852 163.714 30.3433C164.51 25.7133 165.306 21.1426 166.766 16.7148C167.881 12.7739 168.459 8.6961 169.009 4.63891C169.152 4.26952 169.175 3.88076 169.419 3.52469C169.533 3.37089 169.725 3.19891 169.863 3.05842C170.079 2.86949 170.087 2.79198 170.254 2.79925V2.79683Z" fill="var(--fill-0, white)"/>
<path id="Vector_12" d="M171.076 24.7891L171.109 24.8145C172.369 24.909 176.388 24.8302 176.783 24.846C177.002 24.7794 177.276 24.5989 177.454 24.3712C177.67 23.9691 177.34 23.5852 177.262 23.188C177.192 23.0136 177.078 22.8368 177.06 22.6551C177.03 22.4528 177.091 22.2348 177.015 22.035C176.068 19.5704 175.487 16.6359 174.942 14.026C174.847 13.6675 174.478 13.4907 174.459 13.1286C174.446 13.0317 174.442 12.9215 174.438 12.8028C174.426 12.3789 174.449 11.7382 174.488 11.4015C174.529 10.968 174.666 9.92883 174.094 9.70962C173.847 9.61516 173.543 9.71811 173.331 9.9034C173.123 10.1044 172.832 10.2038 172.713 10.337C172.562 10.4968 172.717 11.0806 172.646 11.4136C172.576 11.7491 172.236 11.9235 172.19 12.2542C172.045 12.9408 172.006 13.9061 171.913 14.6957C171.479 17.3129 171.123 19.9895 170.699 22.6297C170.598 23.3188 170.417 24.3349 171.075 24.7903L171.076 24.7891ZM173.293 18.3872C174.224 18.2128 174.6 19.4239 174.486 20.1614L174.455 20.1844C173.508 20.2486 173.044 19.1817 173.293 18.3872Z" fill="var(--fill-0, white)"/>
</g>
</g>
</svg>
