<svg preserveAspectRatio="none" width="100%" height="100%" overflow="visible" style="display: block;" viewBox="0 0 102.584 38.6187" fill="none" xmlns="http://www.w3.org/2000/svg">
<g id="Group">
<path id="Vector" d="M102.546 20.8409C102.474 19.5675 102.306 18.2883 102.244 17.0184C102.121 14.5694 102.527 11.4301 102.263 9.19758C102.065 8.31994 102.608 7.11173 101.721 6.54836C101.44 6.37959 101.158 6.34932 100.941 6.127C100.333 5.53803 98.7287 3.63026 98.3731 3.06341C98.1387 2.67813 98.4049 2.08217 98.207 1.70854C97.9502 1.32093 97.3319 0.864651 96.7984 0.858831C94.5112 0.8146 92.1545 0.984541 89.9085 0.836715C89.2972 0.815763 88.627 0.797139 88.0334 0.759892C87.2479 0.716825 85.6261 0.344351 85.6367 1.54907C85.6814 1.99022 86.2903 2.24164 86.4199 2.68395C86.4964 2.90511 86.5718 3.14489 86.5966 3.37885C86.6401 3.95851 85.9877 4.10284 85.6355 3.70476C85.2021 3.30901 84.4036 2.88998 84.1244 2.25561C83.9478 1.83891 84.1079 1.13586 83.552 0.930997C83.0927 0.851847 82.7217 0.645823 82.3048 0.775024C81.9279 0.861159 81.4733 0.88211 81.0881 0.825075C79.3933 0.612066 77.5231 0.271022 75.7199 0.517786L75.6575 0.53641C75.2099 0.780846 74.4915 0.542228 74.0427 0.745925C73.6117 1.002 73.3643 1.39426 73.6753 1.86917C73.7978 2.16249 74.0215 2.3336 74.144 2.59666C74.2995 3.15071 74.1228 3.90264 74.1758 4.46833C74.2689 5.86627 74.455 7.59828 74.5315 9.11262C74.6799 12.9829 74.3301 17.2349 74.8106 20.7454C74.8212 22.0666 74.5975 23.3539 74.9696 24.5749C75.33 25.9426 75.0921 27.1403 75.7093 28.4463C76.7881 29.9967 77.3923 31.6566 78.987 32.7915C79.5959 33.2606 80.4898 33.6156 81.2036 34.0427C81.4368 34.1685 81.5816 34.378 81.7477 34.5956C82.5097 35.6223 83.2741 35.968 84.5001 36.3311C84.7298 36.401 84.9312 36.4778 85.1267 36.6151C86.5742 37.6883 88.6258 37.6953 90.3583 37.9851C90.6634 38.0527 90.9849 38.2121 91.3171 38.19C91.714 38.1504 92.0178 38.0084 92.4053 37.9444C94.1072 37.636 95.3438 37.2286 96.7336 36.3847C97.4026 36.0017 98.2294 35.7212 98.8265 35.3161C99.5567 34.7784 100.333 34.059 100.85 33.3583C101.055 33.0906 101.011 32.8113 101.163 32.4807C101.297 32.2048 101.545 31.8708 101.687 31.5972C102.402 29.686 102.617 26.9506 102.263 24.8229C102.216 24.6366 102.268 24.2583 102.349 24.0465C102.66 23.0769 102.586 21.892 102.546 20.8432V20.8409ZM100.446 17.9647C100.532 18.0078 100.744 17.9542 100.778 18.0508C100.805 18.1567 100.812 18.5956 100.772 18.698C100.742 18.7574 100.664 18.7608 100.559 18.7655C100.371 18.769 100.196 18.8004 100.048 18.7341C99.6733 18.5141 98.6086 17.2488 98.1033 16.7541C97.8925 16.5237 97.6911 16.3991 97.6205 16.2909C97.5369 16.1023 97.4744 15.8707 97.3896 15.6356C97.3154 15.3329 97.1576 15.2189 97.339 15.0396C97.5368 14.8464 97.8784 14.7893 98.1257 14.8778C98.2235 14.9232 98.3401 15.0524 98.5285 15.2293C99.3011 15.9766 100.162 16.8531 100.411 17.9356L100.445 17.9624L100.446 17.9647ZM97.2318 7.9754C97.1282 7.83456 96.9833 7.79266 97.0339 7.56336C97.074 7.32125 97.2377 6.9965 97.5062 7.1257C97.7324 7.23744 98.0657 7.56103 98.2176 7.78219C98.24 7.85319 98.2011 7.96028 98.2718 8.02895C98.6593 8.48872 99.1669 8.97177 99.2093 9.60614L99.1822 9.63757C98.8253 9.74349 98.7287 9.27906 98.4579 9.23483C98.3566 9.23018 98.2164 9.26277 98.141 9.23949C97.9067 9.0905 97.6122 8.74946 97.3814 8.52481C97.3578 8.4992 97.3095 8.44682 97.286 8.42005C97.1753 8.33042 97.2872 8.0918 97.233 7.97424L97.2318 7.9754ZM96.882 4.6278C97.2601 3.23684 98.6051 5.37973 98.8995 5.87209C99.4048 6.61238 100.511 7.38527 100.396 8.42471L100.393 8.45381C99.5073 7.5913 97.9055 5.92797 96.9338 4.95255C96.7925 4.83965 96.8749 4.77679 96.8832 4.6278H96.882ZM83.7546 4.18782L83.8005 4.17268C84.1963 4.09353 84.5767 4.4823 84.9006 4.66388C85.0396 4.74419 85.1432 4.75118 85.1927 4.80356C85.4777 5.08641 85.8746 5.47867 86.1631 5.76501C86.2456 5.8267 86.2397 5.89305 86.275 6.06765C86.4022 6.51112 86.6237 7.20834 86.142 7.48653C85.5319 6.89407 84.393 5.62766 83.7523 4.96302C83.598 4.79425 83.5002 4.70579 83.4778 4.66272C83.4225 4.54865 83.6557 4.2076 83.7546 4.18782ZM84.8723 20.118C84.9948 20.1332 85.1597 20.0657 85.208 20.2007C85.2527 20.3055 85.4435 20.5185 85.4365 20.6221C85.4212 20.6674 85.3469 20.7524 85.2951 20.7838C84.8794 21.1424 83.5768 19.7363 83.8877 19.365C84.1185 19.2672 84.5119 19.3114 84.7051 19.4662C84.8735 19.5989 84.8853 19.9004 84.8617 20.0866L84.8723 20.118ZM84.7628 18.5688C84.3364 18.35 83.1645 17.087 83.9548 16.6319C84.3364 16.966 84.9712 17.3734 84.8641 17.9577L84.89 17.9798C85.1821 17.9193 85.374 18.1614 85.4836 18.4058C85.5566 18.5653 85.7168 18.6445 85.5318 18.7876C85.2292 18.8935 85.0702 18.5187 84.7639 18.5688H84.7628ZM83.8889 9.86687C83.9218 9.86454 83.989 9.85989 84.022 9.85757C84.5414 10.4314 85.3528 10.9273 85.4471 11.756L85.4223 11.784C84.9642 11.8654 84.5425 11.7176 84.2811 11.2893C84.2469 11.2008 84.294 11.1042 84.2234 11.0309C83.9595 10.6898 83.426 10.2754 83.89 9.86804L83.8889 9.86687ZM85.3752 33.3164C84.6273 33.2559 83.9171 33.0941 83.2223 32.8066C82.4014 32.5598 81.4415 32.3084 80.6948 31.9115C79.2461 31.0746 78.1661 29.9514 77.3864 28.4684C77.112 28.0797 77.1591 27.6851 77.099 27.2265C76.3241 25.2815 76.6715 23.1339 76.5172 21.0609C76.4902 19.9609 76.4795 18.6305 76.3877 17.6108C76.3783 17.4013 76.2558 17.2384 76.1144 17.0638C75.9672 16.8868 75.9166 16.6936 75.9201 16.3619C75.9107 15.8218 75.9012 15.1711 75.9354 14.6462C75.9507 14.3144 76.2628 14.1527 76.3441 13.8628C76.4171 13.1132 76.3924 11.3486 76.3747 10.322C76.4336 9.70508 76.1356 9.61778 75.9166 9.1161C75.5067 7.49584 76.012 5.20164 75.7917 3.47196C75.7552 3.22287 75.6304 3.01801 75.6221 2.77241C75.6221 2.4721 75.7705 2.21952 76.0603 2.23582C76.9518 2.28005 80.451 2.15318 81.0151 2.27423L81.0493 2.2882C81.2189 2.3464 81.498 2.59665 81.4815 2.94119C81.4756 3.0541 81.4509 3.16701 81.4215 3.27176C80.6736 5.86046 81.1046 9.82846 81.3178 12.2856C81.531 13.999 81.9138 15.8963 81.9267 17.6213C81.7171 19.0798 81.9503 20.6546 82.0775 22.1131C82.0775 22.9302 81.9091 23.7683 82.4332 24.4678C83.5002 26.9914 86.3221 26.8098 88.0346 25.0487C88.7271 24.1501 88.6659 23.0175 88.607 21.9502C88.6459 20.3962 88.8697 18.783 88.8178 17.122C88.8014 15.9545 88.4374 14.5146 88.4233 13.3972C88.5882 11.9632 88.5104 10.0636 88.3797 8.52597C88.2678 6.83354 88.8084 4.65224 88.2749 2.94352C88.2902 2.64321 88.5693 2.26492 88.8485 2.2428C89.5516 2.26026 93.9093 2.39761 94.8245 2.42438C95.2685 2.41158 95.3674 3.01103 95.3085 3.38816C95.0553 4.67203 95.199 5.91633 95.3085 7.19903C95.4687 10.9168 95.5158 14.5589 95.6748 18.2673C95.232 21.7092 95.6053 25.3304 94.4052 28.5441C94.3062 28.7525 94.1331 28.8921 94 28.9992C93.788 29.1459 93.6879 29.4031 93.5442 29.6452C93.2863 30.048 92.7952 30.5613 92.4642 30.8709C92.2652 31.0641 92.1003 31.1759 91.86 31.2783C91.1121 31.5646 90.2076 32.1792 89.4373 32.5075C88.1854 33.0173 86.7061 33.2419 85.3717 33.3188L85.3752 33.3164ZM92.3346 36.4347L92.3076 36.4522C92.0261 36.3835 91.4348 36.593 91.1687 36.3975C90.8589 36.1193 90.4655 35.7107 90.1534 35.379C89.8448 35.0857 89.6599 34.7027 89.786 34.3174C90.2724 34.5398 90.8259 35.0519 91.31 35.2696C91.4501 35.3394 91.6374 35.4034 91.8259 35.4628C92.1073 35.5524 92.4241 36.1018 92.3346 36.4347ZM93.9081 35.4593L93.8705 35.4733C93.6667 35.521 93.3664 35.5222 93.1956 35.4C92.9577 35.2801 92.7787 34.854 92.4312 34.8762C92.2228 34.7388 91.5561 34.1056 91.5373 33.853C91.6374 33.5422 92.1274 33.427 92.4089 33.5178C92.9012 33.8228 93.3958 34.4804 93.7303 34.9437C93.8964 35.1869 93.9659 35.3988 93.9081 35.4593ZM96.6606 33.6819L96.6311 33.697C96.3614 33.5574 95.9292 33.5481 95.7149 33.3036C95.5347 33.1442 95.3745 32.8625 95.1719 32.7728C94.9634 32.7379 94.6902 32.7472 94.4711 32.7263C94.0577 32.6681 93.9458 33.0289 93.6172 33.1511C93.3734 33.2524 93.1662 32.9183 93.119 32.6774C93.2109 32.4248 93.7609 31.8824 93.9505 31.6089C93.9882 31.5623 94.0024 31.5588 94.0966 31.5588H94.6784C94.7503 31.5611 94.7938 31.5798 94.8409 31.624C95.2543 32.0582 95.7502 32.4807 96.1647 32.9277C96.3508 33.1651 96.7301 33.3653 96.6594 33.6807L96.6606 33.6819ZM99.0102 33.0196C98.9561 33.1442 98.7664 33.2384 98.6369 33.3025C98.5262 33.3455 98.452 33.2792 98.3448 33.2303C98.1964 33.1651 98.0515 33.2058 97.9137 33.1511C97.6605 33.0184 97.1046 32.3678 97.021 32.0151L96.9915 31.9953C96.849 31.9697 96.6241 32.0116 96.5369 31.9615C96.2696 31.7765 95.9315 31.397 95.663 31.134C95.0294 30.6067 95.1542 30.1225 95.7207 29.6208C96.0458 29.2518 96.2378 29.4636 96.4945 29.7302C96.5982 29.8268 96.7336 29.8256 96.8891 29.942C96.9209 29.9828 96.9856 30.0631 97.0186 30.1038C97.1399 30.5846 97.6122 30.8523 97.9691 31.198C98.3495 31.5542 98.7876 31.823 98.8724 32.3375C98.9702 32.5366 99.1162 32.795 99.0126 33.0219L99.0102 33.0196ZM99.6886 30.9943C99.4519 30.7976 97.6393 29.1028 96.9008 28.4254C96.8349 28.387 96.8408 28.2775 96.8337 28.2054C96.8031 27.635 96.8302 26.9215 97.3119 26.5444L97.3625 26.5223C97.5003 26.4874 97.6747 26.6294 97.7759 26.7318C98.5191 27.4826 99.1139 28.3858 99.5414 29.3344C99.7534 29.6534 100.189 29.9223 100.208 30.2982C100.239 30.5427 99.83 30.9477 99.6886 30.9931V30.9943ZM100.785 27.2742C100.778 27.4919 100.804 27.649 100.762 27.6816L100.731 27.6967C100.54 27.7247 100.131 27.7223 99.936 27.5605C99.6297 27.3312 98.7511 26.4524 98.2883 25.9542C98.081 25.7634 98.0609 25.6609 97.9644 25.4153C97.8643 25.2698 97.6664 25.1662 97.6405 25.0044C97.6099 24.8403 97.4415 24.7181 97.4214 24.5319C97.3802 24.0942 97.6169 23.6577 97.6487 23.2154C97.6593 23.0641 97.6311 22.8918 97.7347 22.8453C98.9549 22.7591 99.8853 25.6621 100.689 26.5095C100.855 26.7388 100.76 26.939 100.784 27.2742H100.785ZM99.9948 23.3597C99.7558 23.1595 99.8394 22.9291 99.6109 22.7486C98.9443 22.0584 97.982 21.4648 97.7217 20.6954C97.5333 20.4952 97.6641 20.1332 97.6275 19.8992C97.5722 19.649 97.3378 19.5558 97.4567 19.2381C97.5604 19.0868 97.6652 18.9471 97.6405 18.7469C97.6169 18.549 97.717 18.2976 97.8701 18.1963L97.9055 18.1765C98.0798 18.2382 98.4638 18.7166 98.9455 19.1624C99.353 19.5919 99.7287 19.862 99.9948 20.2973C100.219 20.6302 100.595 21.1901 100.842 21.5544C100.983 21.7546 100.994 21.7732 100.996 21.9839C101.077 22.5892 100.908 24.2525 99.996 23.3586L99.9948 23.3597Z" fill="var(--fill-0, white)"/>
<path id="Vector_2" d="M28.336 4.02173C27.8826 3.66439 27.1559 2.93923 26.7979 2.53416C26.6813 2.39565 26.6271 2.27227 26.6106 2.1163C26.6377 1.57854 26.3597 1.21771 26.0076 0.769573C25.4623 0.24811 24.4659 0.0863147 23.7734 0.385458C22.9925 0.686928 22.1362 0.805655 21.313 0.869674C19.5393 0.97094 17.6042 0.759098 15.8057 0.817297C14.8659 0.803329 14.3383 1.53431 14.6504 2.40148C14.7682 2.73321 15.0214 3.07542 15.1062 3.40366C15.3394 4.36162 14.4513 4.38722 13.9237 3.80057C13.1628 2.89965 12.0275 2.40031 11.0488 1.73451C10.514 1.26892 10.0524 0.372654 9.21025 0.578679C7.39766 1.31897 5.38841 0.465772 3.67947 0.134037C2.73137 -0.00447621 1.63251 -0.0615082 0.703248 0.0898092L0.647882 0.11076C0.275708 0.249274 -0.0988138 0.640369 0.023674 1.06522C0.154406 1.49357 0.446494 1.74732 0.49596 2.23386C0.593715 3.07426 1.47704 3.38271 1.90928 4.1812C2.42868 5.13683 2.63831 6.09361 3.18126 7.05157C3.57817 7.72435 3.79606 8.49258 4.00806 9.24451C4.54747 11.2081 5.59686 13.0205 6.35888 14.9538C6.73223 15.8303 6.86061 16.7254 7.18921 17.5937C7.63441 18.5156 8.07962 19.4899 8.35286 20.4653C8.42117 20.6736 8.45295 20.8738 8.44706 21.0985C8.33635 24.3786 8.81807 27.9799 8.16912 31.0168C7.97125 31.579 7.70388 32.2192 7.94415 32.8011C8.11257 33.1422 8.59429 33.2749 8.90051 33.4611C10.1548 34.2771 11.3715 35.6203 12.3714 36.7959C12.9803 37.5339 13.8318 38.2323 14.8647 38.1403C15.1898 38.1135 15.4383 38.188 15.6715 38.3429C16.3263 38.8457 17.0907 38.1904 17.7208 38.1589C18.0576 38.1543 18.2885 38.4464 18.5853 38.5419C19.4121 38.7072 21.0621 38.5978 21.7417 38.2905C21.9879 38.1857 22.2658 38.1194 22.5308 38.2055C22.8194 38.2951 23.0172 38.4558 23.261 38.3696C23.6579 38.1252 24.4753 37.9122 24.3917 37.3267C24.3304 36.8064 23.7522 36.3804 23.6426 35.9602C23.5449 35.5656 23.6615 34.8055 23.6285 34.2736C23.5896 33.9092 23.4424 33.6753 23.4247 33.3471C23.3093 31.1122 23.2163 27.1977 23.4471 24.6917C23.4542 23.2251 24.1161 22.3963 24.705 21.1008C24.9217 20.4758 25.0171 19.8332 25.2279 19.2152C25.8592 17.34 26.3974 15.3636 26.9628 13.4546C27.2419 12.6806 27.6623 11.9531 28.0015 11.2012C28.6199 9.89634 28.7318 8.5019 29.2771 7.18078C29.4573 6.68143 29.9885 6.20303 30.1133 5.76421C30.184 5.36496 30.2134 4.8144 29.9272 4.44775C29.4891 3.95771 28.7518 4.32553 28.3396 4.02057L28.336 4.02173ZM11.1383 3.36874C11.6942 3.18716 11.8555 4.56997 11.3349 4.72827C10.951 4.84583 10.858 4.21495 10.6471 4.0485C10.6 3.84364 11.0311 3.40366 11.1383 3.36874ZM17.0354 19.1046C16.9458 19.3851 16.7656 19.6249 16.503 19.7715C16.3157 19.8891 16.1944 20.0055 16.1662 20.1987C16.1061 20.5281 16.2133 20.8215 16.4276 21.0438C16.6526 21.3127 16.854 21.8015 16.9423 22.1659C16.9023 24.651 17.0294 28.8366 16.8975 31.2915L16.8716 31.3217C16.4076 31.9526 15.4383 31.7547 14.774 31.544C12.8201 31.4242 10.1265 32.3961 10.4457 29.4372C10.3727 29.0054 10.1843 28.6166 10.209 28.1673C10.1066 25.7055 10.3621 23.1029 10.2691 20.6341C10.2585 20.3815 10.1843 20.1394 10.05 19.9217C8.99591 18.3433 8.69676 16.4984 8.08079 14.7315C7.48955 13.2707 6.86296 11.8239 6.35888 10.2828C5.36484 8.08635 4.42028 5.91785 3.76073 3.57476C3.66415 3.30356 3.48277 3.08822 3.40504 2.84961C3.30375 2.50972 3.31553 2.02085 3.75601 2.00339C4.96794 1.92075 6.21638 2.44687 7.40239 2.56676C8.01954 2.57141 8.77448 2.4911 8.82983 3.30705C8.9005 5.51279 9.70022 7.52997 10.4681 9.54366C10.9392 10.7961 11.3609 12.3826 12.0357 13.5768C12.2713 13.8632 12.5928 14.0692 12.9791 14.0448C13.5597 14.011 13.7494 13.1962 13.9107 12.7458C14.3924 11.0277 15.2145 9.29223 15.8152 7.50436C15.9377 7.03644 16.5195 6.92237 16.6373 6.47889C16.7126 6.25425 16.7268 5.9842 16.7315 5.71532C16.6891 5.21598 16.9034 4.89472 16.9447 4.44426C16.9918 3.69349 16.6455 2.68781 17.4688 2.4038C18.0035 2.33978 18.6536 2.48761 19.1 2.2909C19.3485 2.19894 19.5817 2.16286 19.8549 2.16053C21.545 2.14656 23.5602 1.76012 22.1999 4.08692C21.9443 4.97853 21.7346 5.86897 21.4626 6.7501C20.518 9.60651 19.6335 12.3919 18.6831 15.1715C18.1825 16.4635 17.4676 17.7916 17.0354 19.1023V19.1046ZM22.9171 13.4523C23.0443 13.6164 23.2634 13.8131 23.4012 13.9388C23.5307 14.1565 23.572 14.4638 23.6803 14.756C23.751 15.012 23.837 15.1971 23.8099 15.2239L23.7745 15.2413C23.665 15.2774 23.433 15.2658 23.3223 15.1703C23.1197 15.0388 23.0632 14.8619 22.8677 14.8363C22.605 14.8456 22.4955 14.8758 22.3353 14.6105C22.1127 14.2682 21.7735 13.8248 21.4696 13.5315C21.28 13.1241 21.5462 12.3465 22.0833 12.4839C22.4672 12.6305 22.6297 13.1613 22.9171 13.4535V13.4523ZM19.3815 19.704C19.6889 19.9322 19.9692 20.2243 20.2318 20.499C20.326 20.5875 20.2353 20.7248 20.3284 20.8098C20.5451 21.0415 20.9232 21.2603 20.8737 21.6223L20.8678 21.6467C20.5651 21.5536 20.0422 21.3918 19.7006 21.2859C19.3944 21.1741 18.9669 20.6597 18.9233 20.4781C18.8291 20.1801 19.1212 19.8297 19.3803 19.704H19.3815ZM19.5511 22.5407C19.8361 22.7548 20.034 23.2507 20.4544 23.1878L20.478 23.1925V23.5824C20.4709 23.7675 20.5074 23.7896 20.4049 23.757C20.2495 23.7221 19.8125 23.6255 19.6194 23.5836C19.4368 23.6232 19.1577 23.8094 18.9339 23.906C18.8515 23.9374 18.8409 23.977 18.7843 23.9514C17.7915 23.4532 18.5688 21.8644 19.5522 22.5418L19.5511 22.5407ZM21.6498 32.5055C21.4908 32.4962 21.2412 32.2913 21.0822 32.2017C20.3602 31.6977 19.4191 30.9714 18.9033 30.1787C18.7396 29.5408 19.4251 29.7492 19.6865 30.0751C20.4309 30.6757 20.7877 31.4218 21.4449 31.9968C21.5768 32.1074 21.684 32.3297 21.6616 32.4776L21.6498 32.5067V32.5055ZM21.8418 29.3627L21.8006 29.4012C21.644 29.4617 21.3319 29.4605 21.1623 29.4105C20.7701 29.3034 20.5651 28.9356 20.246 28.6876C20.1105 28.5968 19.9845 28.6434 19.915 28.5643C19.5499 28.2325 19.0752 27.7739 18.7372 27.4282C18.5829 27.2548 18.5123 27.2233 18.497 27.0953C18.4922 26.9044 18.4781 26.5273 18.5476 26.3248C18.782 26.2421 19.0611 26.2701 19.2837 26.3853C19.9397 26.7717 20.6382 27.8996 21.3083 28.385C21.3825 28.4292 21.4685 28.4222 21.5603 28.4572C21.8901 28.5968 21.9007 29.0799 21.8395 29.3627H21.8418ZM22.0562 19.8565L22.0409 19.8914C21.75 20.0625 20.9173 19.4258 20.6393 19.1709C20.5792 19.1139 20.5793 19.1011 20.5015 19.0895C20.2825 19.0382 19.7089 18.9218 19.6936 18.9067C19.6806 18.8986 19.6924 18.1769 19.6889 17.9616C19.6889 17.9232 19.8161 17.9522 19.9232 17.9383C20.0952 17.929 20.2471 17.8999 20.3967 17.9476C20.5263 18.0326 21.1811 18.6972 21.5085 19.0417C21.6722 19.2687 22.1304 19.5003 22.0562 19.8565ZM23.7793 18.1594C23.7392 18.2572 23.6791 18.4143 23.6497 18.4725C23.6179 18.5377 23.5837 18.5179 23.4754 18.4958C23.3117 18.4609 22.9913 18.3887 22.8253 18.3527C22.6156 18.2968 22.1846 17.6962 21.5156 17.0234C21.1234 16.6032 20.7783 16.2342 20.4556 15.8885C20.3932 15.8082 20.3649 15.8303 20.379 15.743C20.4238 15.5812 20.4144 15.189 20.5498 15.2204C20.6735 15.2204 20.8537 15.2111 21.0044 15.1983C21.6263 15.111 21.8513 15.7605 22.4531 16.332C22.6828 16.5753 22.8783 16.8255 23.2045 16.7778L23.2269 16.7999C23.135 17.3062 24.0289 17.6322 23.7781 18.1583L23.7793 18.1594ZM25.7767 11.1418C25.56 11.3304 24.5401 10.4748 24.3093 10.1966C24.2539 10.1373 24.215 10.0802 24.2115 9.98364C24.208 9.88237 24.215 9.80322 24.1526 9.80439C23.8417 9.86841 23.1845 9.36906 22.91 9.02452C22.7169 8.81849 22.8194 8.19693 23.0702 8.05958C23.5131 7.87218 24.0042 8.42391 24.2186 8.71607C24.6461 9.36324 24.9323 10.0116 25.5106 10.5714C25.6707 10.7018 25.8344 10.9009 25.7932 11.1034L25.7779 11.1418H25.7767ZM26.6247 9.11647C26.4799 9.38302 26.0924 9.06293 25.9452 8.89881C25.3716 8.47046 24.7073 7.71853 24.2421 7.36585C24.1432 7.29252 23.9959 7.28786 23.9076 7.23898C23.7745 7.14702 23.7592 6.94449 23.6709 6.8083C23.4483 6.37065 23.8122 5.9714 24.0949 5.64432C24.2751 5.44295 24.4093 5.24508 24.2645 5.0053C24.023 4.47802 24.6261 3.2407 25.0112 3.00092C25.0901 2.95436 25.1796 2.9951 25.3315 3.10219C25.6225 3.34313 25.8874 3.33615 25.6707 3.73772C25.5706 4.06131 25.3657 4.27548 25.4387 4.59558C25.454 4.77948 25.6071 5.09259 25.5424 5.25788L25.5082 5.27534C22.9124 5.2602 26.9498 8.44369 26.6271 9.11647H26.6247Z" fill="var(--fill-0, white)"/>
<g id="Group_2">
<path id="Vector_3" d="M60.0556 37.102C60.84 36.9239 61.5784 36.4478 62.3098 36.03C63.8963 34.9533 66.1729 33.6042 67.0339 31.7826C67.1882 31.5754 67.7264 31.4637 67.8842 31.2483C67.9879 31.1028 67.9773 30.898 68.0055 30.7222C68.0526 30.1332 68.3777 29.7223 68.6862 29.2055C69.4012 28.0078 69.8381 26.5447 70.3163 25.1886C70.4941 24.6986 70.5389 24.261 70.599 23.807C70.6685 23.5009 70.8133 23.2332 70.8322 22.9189C70.9134 21.5035 70.8675 19.8518 70.5459 18.4352C70.3693 17.6239 69.9159 16.7405 69.6556 15.8617C69.148 13.7805 68.0738 12.308 66.6346 10.5248C66.0327 9.73332 65.3638 9.28402 64.6218 8.62754C63.4546 7.54503 62.5831 6.16339 61.3664 5.26945C59.2347 4.0496 57.064 2.51897 54.6767 1.781C54.2739 1.62038 53.7298 1.51213 53.413 1.22811L53.367 1.20134C50.6405 0.386555 47.0825 0.253861 44.1899 1.00114C43.7788 1.06865 43.5268 1.41086 43.1405 1.5354C42.1606 1.7391 41.1583 1.65064 40.2903 2.26755C39.7956 2.56669 39.3987 2.79017 38.9406 3.1801C37.433 4.49657 35.81 6.00043 34.8019 7.45308C33.8255 8.80911 33.1294 10.5819 32.5688 11.9716C32.3557 12.2708 32.053 12.6177 31.9811 13.0006C31.5253 14.8141 31.1826 17.3935 31.2756 19.3722C31.3734 19.7994 31.5442 20.2755 31.5124 20.7446C31.6278 22.2496 31.5995 24.0095 32.3345 25.4214C32.9787 26.5808 33.7796 28.1079 34.8549 28.8622C35.0845 29.1299 35.0928 29.6118 35.3425 29.9144C35.9785 30.6698 36.79 31.232 37.4048 32.0247C38.95 33.8463 41.1124 34.7624 43.1205 35.867C44.9012 36.6643 46.8928 36.9891 48.7372 37.6677C49.3709 37.9296 49.8526 38.1088 50.5581 38.103C52.658 38.16 54.8569 38.0006 56.7613 37.6793C57.9026 37.4349 58.9308 37.2801 60.0556 37.1031V37.102ZM62.145 34.5168L62.1202 34.5261C61.9482 34.5098 61.5337 34.5692 61.3382 34.5412C61.0378 34.4621 60.383 33.6322 60.0238 33.3039C59.8459 33.141 59.7647 32.9896 59.6163 32.9768C59.5598 32.9687 59.4973 32.9617 59.4443 32.9279C59.2158 32.7557 58.7447 32.2901 58.8095 32.1167C58.9438 32.0131 59.5055 31.8711 59.6763 31.8094C59.9496 31.9921 60.4914 32.4775 60.8718 32.7766C61.2981 33.127 61.6479 33.4145 61.9848 33.6927C62.0519 33.7544 62.0542 33.7229 62.0684 33.8393C62.0849 34.0209 62.1638 34.4993 62.1438 34.5168H62.145ZM63.477 33.1712C63.2532 33.0874 62.6054 32.5147 61.8658 31.9712C61.4406 31.6452 61.1438 31.4171 60.8329 31.1785C60.6315 31.0749 60.9224 30.7059 61.0449 30.6489L61.0896 30.6326C62.0754 30.4149 63.0023 31.5521 63.7738 32.1551C63.9092 32.2587 64.0765 32.4286 64.1142 32.5904C64.2367 32.9733 63.7997 33.2143 63.4782 33.1712H63.477ZM67.8583 27.5643C67.8418 27.7156 67.4955 27.8495 67.399 27.9112C67.2953 27.938 66.7465 27.7599 66.6817 27.7447L66.6617 27.725C66.6322 27.6877 66.6252 27.6062 66.6275 27.5445C66.5992 27.3129 66.2247 27.2477 66.0127 27.1581C65.7289 27.0464 65.6193 26.6145 65.3037 26.5656C65.2001 26.5563 65.1094 26.5738 65.1023 26.497C65.0929 26.4225 65.1023 26.2968 65.0375 26.2234C64.676 25.8917 65.0482 25.4191 65.0905 25.035C65.1047 24.9256 65.0905 24.8278 65.1353 24.8138C65.226 24.8069 65.7253 24.9407 65.8973 24.971C66.2188 25.1619 66.4497 25.5413 66.763 25.7439C67.3389 26.1385 67.8606 26.4772 67.863 27.2629C67.8701 27.3664 67.8713 27.4829 67.8595 27.5643H67.8583ZM66.7642 24.2097C66.7194 24.1213 66.5934 23.9711 66.4556 23.899C66.2883 23.7965 66.0975 23.7302 65.9809 23.6906C65.8337 23.6487 65.8726 23.6557 65.8208 23.4566C65.7948 23.3577 65.7548 23.2355 65.6829 23.1365C65.6205 23.033 65.4509 22.9829 65.5251 22.9049C65.7136 22.65 65.8879 22.636 66.1199 22.8048C66.69 23.1959 67.3566 24.084 67.8607 24.609L67.8701 24.6218C67.5898 24.5054 67.0539 24.3692 66.763 24.2109L66.7642 24.2097ZM69.1232 23.452C68.8347 23.5113 68.6922 23.1598 68.479 23.0341C67.5332 22.2729 64.961 21.2544 66.1494 19.7878L66.1917 19.761C66.4344 19.7645 66.7618 19.9705 66.9432 20.1055C67.6169 20.7027 68.5261 21.5966 69.1833 22.2903C69.3105 22.4521 69.4023 22.4719 69.4389 22.6605C69.4765 22.9107 69.3929 23.388 69.1244 23.452H69.1232ZM68.6121 18.2956C68.8264 18.5377 69.0643 18.9381 69.2445 19.2372C69.4141 19.527 69.5378 19.8169 69.367 20.1137C69.2681 20.2522 69.2045 20.3768 69.0891 20.3535C68.7923 20.1405 67.2294 19.0219 66.5262 18.5179C66.3672 18.3968 66.293 18.3817 66.1164 18.1582C65.9974 17.9941 65.9515 17.8288 65.8608 17.7112C65.7725 17.6041 65.6618 17.504 65.5817 17.39C65.312 16.9954 65.5628 16.4902 65.9456 16.2819H65.9927C66.1246 16.3447 66.3142 16.4483 66.4603 16.5286C66.7288 16.7172 66.9102 17.0233 67.174 17.22C67.7594 17.6647 68.1728 17.7881 68.6121 18.2956ZM64.8974 13.344C64.9139 13.2194 64.8785 13.06 64.9363 12.9983C65.9008 12.7247 66.3943 13.8352 67.1069 14.4672C67.1787 14.5371 67.2459 14.6116 67.3142 14.6616C67.4178 14.7303 67.5639 14.6965 67.6734 14.8083C68.0208 15.1039 68.4213 15.5777 68.4307 16.0351L68.4048 16.0642C67.7535 16.1992 67.1139 15.8198 66.5816 15.4985C66.3943 15.4263 66.0516 15.4147 65.8573 15.3251C65.63 15.218 65.3602 14.8921 65.1883 14.7268C65.0352 14.6011 65.1094 14.4521 65.0905 14.2891C65.0529 14.1599 64.9139 14.0854 64.8903 13.9562C64.8609 13.7642 64.8891 13.5442 64.8974 13.344ZM65.1176 30.0355C65.332 30.238 65.3991 30.2275 65.6747 30.3509C66.3425 30.7979 65.6476 31.6511 64.9221 31.4415C64.5429 31.2483 64.1848 30.877 63.5959 30.5139C63.0412 30.1193 62.0107 29.521 62.8116 28.8994L62.8563 28.8854C63.0483 28.8447 63.3722 28.8913 63.5924 28.8959C63.782 28.8761 63.9151 28.9413 64.0506 29.0717C64.4015 29.365 64.7749 29.7445 65.1188 30.0343L65.1176 30.0355ZM43.0816 34.3329C42.7353 34.1234 42.2301 33.8172 41.8803 33.6065C41.8025 33.5658 41.8273 33.5553 41.7401 33.5565C41.6377 33.5414 41.4327 33.5949 41.3597 33.5193C41.2537 33.4029 40.5246 32.8348 40.5411 32.7778C41.5599 32.6893 43.1888 33.0094 43.0863 34.3073L43.0828 34.3329H43.0816ZM48.1896 35.8821C48.0706 35.8949 47.9269 35.8879 47.808 35.8903C47.563 35.8903 47.3793 35.6703 47.1967 35.5457C46.9447 35.292 46.6055 35.1861 46.4359 35.0336C46.3711 34.9172 46.2981 34.6413 46.2321 34.5459C46.3617 34.5191 47.0306 34.6891 47.2379 34.7088C47.5124 34.7461 47.7797 35.4293 48.1731 35.3095L48.1978 35.3129C48.1931 35.3269 48.2084 35.8682 48.1896 35.8821ZM54.0937 36.2534L54.0761 36.2884C53.751 36.4141 53.2587 35.8554 53.0679 35.7355C53.0137 35.6447 52.757 35.7203 52.625 35.6936C52.5014 35.6668 51.8171 34.9603 51.6122 34.632C51.3083 34.2386 51.7947 34.2875 52.0291 34.3282C52.4731 34.4306 52.8017 34.7531 53.1998 34.923C53.5637 35.3071 54.2033 35.654 54.0961 36.2523L54.0937 36.2534ZM53.4577 32.2051C53.1268 32.311 52.6663 32.3471 52.3118 32.4088C51.3637 32.5543 49.531 32.6893 48.1071 32.6777C46.536 32.7859 45.1592 31.7488 43.7046 31.3321C42.8507 31.0505 41.8532 30.9911 40.865 30.7967C39.3386 30.2554 36.5638 28.5432 35.7547 27.7901C35.5651 27.5457 35.4014 27.2698 35.1411 27.0859L35.0999 27.0464C34.9079 26.8322 34.6605 26.6692 34.4521 26.4562C34.0387 25.7834 33.6818 24.9919 33.3603 24.2586C32.8703 23.1435 33.166 21.6513 33.0046 20.357C32.6336 19.1534 32.9092 17.8928 33.0658 16.5228C33.4015 14.5592 33.8726 12.8574 34.8466 11.4327C35.8878 9.48073 36.7358 7.63466 38.1585 6.08657C39.3952 4.69328 41.1819 3.67364 42.9426 3.04625C43.3972 2.91006 43.8719 2.93917 44.3477 2.79367C44.8647 2.6342 45.3229 2.44331 45.8564 2.39326C47.6466 2.19887 49.5051 1.88344 51.253 2.19771C52.7817 2.5923 54.2339 2.61325 55.5224 3.2674C56.9922 4.02399 58.5245 5.49061 59.674 6.53004C60.3206 7.22494 61.1827 8.00015 61.5608 8.83589C61.6173 9.01398 61.6609 9.21534 61.7009 9.39343C61.7893 9.83341 62.1202 10.2559 62.3346 10.6587C62.9446 11.74 62.9788 12.5723 63.2356 13.6385C63.3663 14.1681 63.8374 14.4544 63.8386 15.0155C63.9681 16.169 64.073 17.504 63.7338 18.6028C63.7031 19.1173 63.8421 19.8006 63.6961 20.1789C63.6113 20.3756 63.4358 20.5234 63.3698 20.7318C63.2968 20.9576 63.3474 21.2102 63.3204 21.4441C63.3027 21.8212 62.881 22.2321 62.7691 22.6128C62.6478 23.0271 62.7456 23.4485 62.6137 23.8722C62.271 25.0362 61.3935 25.915 60.8412 26.8473C60.5726 27.2338 60.4702 27.7436 60.1946 28.0846C59.5609 28.7981 58.8389 29.6793 58.0993 30.2135C56.991 31.083 55.5318 31.2832 54.2339 31.7535C53.917 31.8676 53.7286 32.105 53.4589 32.2074L53.4577 32.2051ZM56.3009 32.9873L56.3397 32.9757C56.6059 32.9652 57.1382 32.9757 57.3879 32.971C57.4822 32.9675 57.5245 32.9757 57.5917 33.0234C58.3313 33.6077 59.2276 34.2747 59.7988 35.093C59.9354 35.5271 59.4773 35.7448 59.0992 35.6889C58.5457 35.6412 58.2819 35.1768 57.925 34.9218C57.6965 34.7589 57.2596 34.5552 56.9816 34.3655C56.772 34.192 55.606 33.3028 56.3009 32.985V32.9873Z" fill="var(--fill-0, white)"/>
<path id="Vector_4" d="M55.2043 14.643C55.0159 14.2007 54.526 13.6035 54.2468 13.117C53.5967 11.5747 52.6651 9.93934 51.1811 9.04773C50.7159 8.80329 50.1223 8.43431 49.6358 8.48552C49.226 8.46457 48.9363 8.24225 48.4864 8.27251C48.1648 8.25505 47.9175 8.35167 47.6619 8.42965C47.0825 8.53092 46.6196 8.43198 46.1096 8.7835C45.3405 9.24327 44.3948 9.33057 43.6728 9.866C43.1628 10.2862 42.8861 11.0824 42.2972 11.4921C41.9074 11.7854 41.3161 11.6783 41.0641 12.1497C40.7543 12.6537 41.0511 13.3498 40.9439 13.8841C40.8356 14.6732 40.3609 15.3798 40.1277 16.1538C39.9381 16.6962 40.1254 17.0233 40.1419 17.5483C40.1584 18.0837 40.0594 18.7332 40.1395 19.2046C40.3185 20.0415 40.6024 21.0006 40.7637 21.7025C40.9157 22.1169 41.0346 22.5871 41.1865 22.9957C41.2254 23.0679 41.2808 23.147 41.3279 23.2145C41.5576 23.4869 41.6471 23.8966 41.8791 24.1748C42.6022 25.0164 43.8518 25.5378 44.82 26.0931C45.37 26.398 46.0319 26.2362 46.6043 26.469C46.9494 26.618 47.3475 26.6017 47.7785 26.5959C48.2249 26.5982 48.5052 26.3678 48.9151 26.3747C49.6099 26.4248 50.2553 25.8195 50.9632 25.6449C51.2671 25.5518 51.3413 25.3365 51.5851 25.2073C51.7594 25.127 51.9749 25.085 52.1551 24.9989C52.9701 24.6357 53.4789 24.0456 53.9571 23.3251C54.2986 22.8572 54.3281 22.3159 54.7721 22.0238L54.8051 21.9842C54.9252 21.8294 54.9488 21.5163 55.0524 21.3149C55.2314 20.9157 55.5094 20.5409 55.4799 20.0939C55.4799 19.6586 55.7237 19.3746 55.7131 18.9567C55.7072 18.0488 55.8721 16.957 55.5494 16.1957C55.3422 15.7278 55.4116 15.1062 55.202 14.6441L55.2043 14.643ZM49.5569 10.6563L49.5887 10.6272C49.9032 10.5784 50.2624 10.6342 50.5003 10.8647C50.9561 11.243 51.4414 11.8064 51.8583 12.2138C51.9184 12.2848 51.9478 12.4046 51.9254 12.4594C51.8701 12.5187 51.3519 12.5478 51.2741 12.5723C50.6982 12.0729 50.0999 11.4944 49.5982 10.9345C49.5499 10.867 49.5452 10.7239 49.5558 10.6552L49.5569 10.6563ZM46.4559 10.441C47.0671 10.2292 47.3993 10.753 47.8303 11.1487C48.6418 11.4455 49.3214 12.4617 49.3708 13.3172L49.3614 13.344C49.1918 13.3347 48.5806 13.1822 48.4793 13.1542C47.9905 12.677 47.2014 11.8913 46.6867 11.385C46.5171 11.1953 46.3039 11.0521 46.225 10.9008C46.2663 10.81 46.3534 10.4794 46.4547 10.441H46.4559ZM44.2323 19.5759C43.9084 19.6318 43.7494 19.3396 43.5362 19.1522C43.1511 18.8124 41.7966 17.5273 42.0652 17.0769C42.3314 16.8906 42.5975 17.2456 42.7801 17.4237C43.3583 18.0197 44.1628 18.7518 44.2664 19.5608L44.2334 19.5748L44.2323 19.5759ZM43.2712 13.4697C43.2088 13.1927 43.2547 12.7084 43.5421 12.5804L43.588 12.5641C44.1581 12.4442 44.6527 12.9808 44.9943 13.3929C45.059 13.4883 45.0355 13.6012 45.1085 13.699C45.5419 14.1809 46.0908 14.5452 46.3911 15.1377C46.4818 15.7453 45.9047 15.7755 45.4371 15.5276C44.9966 15.0865 43.5021 13.841 43.2712 13.4697ZM54.1349 18.9136C54.1608 19.4328 53.8228 19.8029 53.7404 20.3057C53.5849 20.9203 53.5731 21.507 53.0573 21.9761C52.7946 22.2717 52.6792 22.4742 52.5014 22.7431C52.2564 23.1098 51.7582 23.3973 51.3519 23.7022C51.0068 23.9734 50.7112 24.1061 50.2825 24.1713C49.5782 24.29 48.9351 24.4635 48.2696 24.7533C47.7561 24.9163 46.8775 24.8627 46.4995 24.375C46.324 24.034 46.0813 23.7232 45.8434 23.4066C45.6361 23.1005 45.5584 22.7908 45.7845 22.4638C45.8611 22.3334 45.9648 22.1821 45.9447 22.0389C45.655 21.5302 45.4371 20.5048 45.6444 19.9333C45.761 19.6888 46.0072 19.5166 46.0637 19.236C46.1697 18.8217 46.1202 18.3421 46.2945 17.9545C46.6219 17.3143 48.1142 15.736 48.6383 15.3297C49.339 14.8897 50.253 14.416 51.0539 14.132L51.1034 14.1238C51.4485 14.0936 52.2693 14.0994 52.5979 14.1762C52.9383 14.3951 53.4083 15.0702 53.7274 15.3949C54.3517 16.3983 54.1338 17.7578 54.1361 18.9183L54.1349 18.9136Z" fill="var(--fill-0, white)"/>
</g>
</g>
</svg>
