<svg preserveAspectRatio="none" width="100%" height="100%" overflow="visible" style="display: block;" viewBox="0 0 227.693 41.0388" fill="none" xmlns="http://www.w3.org/2000/svg">
<g id="Group">
<path id="Vector" d="M98.4532 3.35059C98.5997 3.44506 98.7572 3.49471 98.9158 3.54437C99.5868 3.78538 99.9029 4.40183 99.7866 5.1297C100.157 11.5582 99.6764 18.0764 99.7515 24.4952C99.7648 25.8989 99.4948 27.2711 99.5795 28.6723C99.6195 29.4716 99.5698 30.4466 99.5577 31.298C99.353 31.9217 99.1387 32.5733 98.7475 33.1304C98.5961 33.3326 98.3951 33.5143 98.2279 33.6863C97.9312 33.9612 97.8719 34.5571 98.0305 34.9458C98.1698 35.2207 98.4859 35.3649 98.7499 35.5078C101.097 36.3701 102.544 38.4604 104.319 40.1027C104.567 40.2916 104.854 40.3546 105.169 40.3546C106.04 40.3667 106.972 40.2723 107.837 40.288C109.61 40.5278 111.385 40.1003 113.167 40.1124C115.889 40.3425 118.708 39.7115 121.439 39.8702C121.74 39.8653 121.94 39.9864 122.157 39.9937C122.62 40.0119 122.983 39.462 122.887 38.9982C122.793 37.0883 123.212 35.0488 122.813 33.2309C122.716 32.9306 122.715 32.5926 122.795 32.285C122.899 31.8406 122.798 31.4324 122.627 31.1115C122.168 30.3424 121.186 29.9948 120.585 29.4232C120.316 29.0853 118.952 28.2109 119.847 27.9178C120.352 27.8367 121.2 27.5048 121.437 27.0797C121.859 25.3769 120.957 23.553 120.865 21.855C120.851 21.4251 120.817 20.8934 120.897 20.5386C120.962 20.2091 121.282 19.9076 121.414 19.6157C121.599 19.1543 121.239 18.7243 120.914 18.3828C120.44 17.9008 119.985 17.7797 119.562 17.2964C119.242 16.9161 117.999 16.0744 118.629 15.6493C118.897 15.5948 119.635 15.5391 120.379 15.4531C121.258 15.3054 121.995 15.4083 122.284 15.1504L122.307 15.1152C122.629 14.569 122.551 13.6983 122.501 13.054C122.34 11.3063 122.033 8.69156 122.414 6.87612C122.484 6.45587 122.782 6.08042 122.645 5.65048C122.435 5.25687 122.021 4.92018 121.683 4.62952C121.319 4.35581 120.792 4.26256 120.391 3.99611C119.433 3.39298 118.549 2.24244 117.606 1.30141C117.161 0.841193 116.987 0.618349 116.353 0.687382C115.76 0.787903 115.105 1.26508 114.417 1.06525C112.858 0.750359 111.216 0.749147 109.675 0.800013C107.162 1.11248 104.459 1.00227 101.87 1.04587C101.12 1.08826 100.402 1.104 99.7055 1.27598C99.3131 1.41525 98.9558 1.53999 98.515 1.50124C98.1323 1.46854 97.7568 1.781 97.6648 2.16129C97.5219 2.63362 98.0426 3.06841 98.4568 3.34938L98.4532 3.35059ZM105.176 38.2836C104.494 37.7568 103.854 36.8218 103.206 36.3119C103.013 36.1824 102.814 36.2235 102.659 35.9631C102.638 35.9062 102.71 35.251 102.76 35.2825C102.931 35.4448 103.259 35.7003 103.411 35.9074C103.477 36.0031 103.448 36.1811 103.46 36.2369L103.483 36.2599C103.559 36.2696 103.772 36.2441 103.835 36.3204C104.397 36.8024 104.891 37.408 105.412 37.9445C105.585 38.1649 105.461 38.4386 105.176 38.2836ZM108.972 36.3943C108.937 36.5566 108.953 36.6583 108.884 36.6728C108.796 36.6813 108.688 36.6862 108.6 36.6886C108.502 36.6959 108.384 36.6971 108.286 36.691C107.838 36.6474 107.457 36.0588 106.971 36.3216C106.79 36.4331 106.77 36.4948 106.58 36.6583C106.469 36.7043 106.264 36.6934 106.135 36.6462C105.705 36.3701 104.313 35.555 105.573 35.2801C105.837 35.2522 106.225 35.1832 106.436 35.3188C106.53 35.4097 106.622 35.4981 106.76 35.4811C107.265 35.5126 108.278 34.9458 108.854 35.4448C108.93 35.4763 109.021 35.4775 109.071 35.4775L109.108 35.4811C109.113 35.704 109.001 36.1424 108.972 36.3943ZM111.938 36.8824C111.422 36.84 111.054 36.2296 110.511 36.2696C110.433 36.2744 110.409 36.272 110.383 36.2272C110.248 36.0746 109.798 35.5659 109.726 35.4848C110.051 35.4569 110.436 35.4036 110.727 35.5659C111.11 35.7984 111.613 36.4524 111.95 36.8703L111.938 36.8824ZM117.201 38.6397L117.171 38.6748C116.906 38.7257 116.535 38.7511 116.267 38.6845C115.942 38.5573 115.364 37.9251 114.944 37.5291C114.768 37.3123 114.581 37.3232 114.354 37.1827C113.877 36.7734 113.41 36.1763 112.802 36.0903C112.609 36.0625 112.543 35.9123 112.443 35.7452C112.027 35.1687 113.584 35.2244 113.808 35.2607C114.07 35.2886 114.422 35.6991 114.688 35.8699C115.04 36.0903 115.588 36.226 115.847 36.6099C115.934 36.7371 115.975 36.9054 116.086 37.0204C116.623 37.4322 117.323 37.9045 117.201 38.6397ZM117.822 18.5899C117.785 18.9181 117.592 19.1857 117.254 19.1107C117.027 19.0634 116.901 18.8539 116.708 18.7522C116.468 18.7062 116.203 18.4906 116.09 18.2617C115.961 18.0388 115.9 17.7918 115.822 17.5326C115.763 17.3727 115.77 17.363 115.871 17.2117C115.96 17.0651 116.07 16.8859 116.076 16.875L116.106 16.8653C116.958 16.7551 117.784 17.202 118.006 18.0982C118.02 18.258 117.833 18.3683 117.82 18.5887L117.822 18.5899ZM114.797 25.7511C114.694 25.4145 114.216 25.1432 114.172 24.7738L114.178 24.7483C114.567 24.6127 115.664 25.6869 116.082 26.0043C116.769 26.4693 116.893 27.11 115.899 27.1802C114.276 27.311 114.974 26.5916 114.796 25.7511H114.797ZM120.413 31.1042C120.492 31.4627 120.423 32.2596 120.441 32.6447L120.432 32.6496C120.143 32.5321 119.786 32.1179 119.463 32.038C119.381 32.0283 119.277 32.0549 119.193 32.0404C119.084 32.0307 119.018 31.9011 118.914 31.8599C118.818 31.8284 118.671 31.8224 118.571 31.7013C118.356 31.4784 118.463 31.2483 118.422 30.9988C118.381 30.8511 118.238 30.7772 118.206 30.6222C118.165 30.3812 118.255 30.1741 118.331 29.9585C118.381 29.8531 118.378 29.6921 118.455 29.6376C119.299 29.6351 119.847 30.6089 120.414 31.1042H120.413ZM118.691 19.2802C118.938 19.2972 119.158 19.5321 119.405 19.5006L119.431 19.5043C119.431 19.669 119.431 20.0808 119.431 20.2806C119.42 20.4538 119.459 20.524 119.394 20.5131H118.909C118.675 20.5095 118.745 20.5458 118.623 20.3787C118.551 20.2794 118.45 20.1365 118.366 20.019C118.256 19.8494 118.2 19.8361 118.21 19.7295C118.245 19.5079 118.425 19.2548 118.692 19.2802H118.691ZM120.225 10.0056C119.588 9.5151 118.515 8.75817 117.765 8.10175C117.558 7.90434 117.43 7.79292 117.39 7.6488C117.35 7.49378 117.348 7.27094 117.256 7.11834C117.191 7.03962 117.111 6.94998 117.038 6.87974C116.972 6.80586 117.079 6.71261 117.16 6.54911C117.276 6.35897 117.355 6.18336 117.398 6.15793L117.44 6.1434C117.63 6.09374 117.796 6.24876 117.928 6.3723C118.182 6.57576 118.822 7.17889 119.431 7.78081C119.898 8.2822 120.361 8.63463 120.681 9.15419C120.893 9.62168 120.88 10.1291 120.225 10.0056ZM117.005 4.35944C117.007 4.24802 116.992 4.16204 117.08 4.14145C117.166 4.11601 117.333 4.15234 117.373 4.10148C117.437 4.04819 117.361 3.81203 117.457 3.74663C117.541 3.6788 117.742 3.6897 117.859 3.70545C118.34 3.78659 118.555 4.24439 118.915 4.52779C119.529 5.02192 120.425 5.32227 120.771 6.17367C120.869 6.39409 120.922 6.67749 120.725 6.84946C120.607 6.94151 120.426 6.9076 120.242 6.87248C119.748 6.79255 119.652 6.77316 119.227 6.39409C118.828 6.09494 118.536 5.70377 118.026 5.74132C117.861 5.73768 117.578 5.79338 117.446 5.74494L117.424 5.7074C117.409 5.66017 117.421 5.57539 117.389 5.49546C117.316 5.2932 117.009 5.16967 116.992 4.9771C116.962 4.80634 117 4.57139 117.006 4.36066L117.005 4.35944ZM116.695 13.0334C116.778 13.1036 116.828 13.1411 116.85 13.2053C116.912 13.4185 117.21 14.3232 117.223 14.4285C117.099 14.4516 116.818 14.1779 116.719 14.0689C116.524 13.8714 116.553 13.714 116.313 13.5662C115.296 12.9861 114.268 12.2292 113.584 11.3003C114.028 10.6463 114.951 11.1634 115.545 11.2167L115.566 11.2579C115.545 11.4492 115.573 11.7169 115.751 11.8501C116.132 12.1844 116.288 12.7112 116.695 13.0346V13.0334ZM101.637 11.7229C101.825 10.14 102.089 7.57614 101.675 5.84789C101.577 5.5209 101.287 5.34891 101.231 5.0207C101.161 4.43089 101.16 3.8096 101.58 3.3615C101.767 3.02118 102.406 3.19073 102.48 2.75715C102.498 2.71113 102.523 2.67601 102.558 2.66148C103.043 2.53673 105.303 2.64815 107.269 2.70507C108.688 2.70386 109.507 2.89522 110.628 2.53068C110.788 2.52462 110.954 2.51493 111.113 2.54885C111.894 2.70871 112.655 2.55127 113.253 2.66874C113.586 2.7511 113.809 3.09384 114.173 3.09747C114.69 3.07688 115.198 3.14955 115.57 3.5153C115.703 3.64852 115.754 3.75389 115.788 3.90286C115.754 4.5072 115.877 7.99033 115.742 8.67824C115.34 9.14936 114.508 8.90956 113.931 8.98101C111.754 8.94589 109.403 8.46144 107.231 8.58982C106.698 8.68186 106.272 9.22807 106.273 9.74642C106.271 10.2902 106.998 10.6148 107.033 11.1598C107.057 11.2845 107.065 11.4214 107.071 11.5473C107.061 12.0027 107.309 12.3382 107.314 12.8032C107.323 13.387 107.19 14.0047 106.994 14.5376C106.903 14.8052 106.916 15.0765 107.041 15.3345C107.293 15.854 107.843 16.1059 108.399 16.0817C109.066 16.1289 109.618 15.8044 110.269 15.6663C111.259 15.5028 112.18 15.8734 113.126 15.8516C113.804 15.7692 114.36 16.2646 114.395 16.9319C114.54 17.4309 114.612 17.5508 114.578 18.1382C114.535 19.0114 114.661 20.1885 114.527 21.0363L114.503 21.0714C113.884 21.5837 112.898 21.178 112.085 21.3536C111.063 21.4868 109.962 21.4118 108.863 21.3016C107.299 21.1175 107.656 22.5454 107.733 23.576C107.865 24.9421 107.958 26.0527 107.745 27.4358C107.708 27.7761 107.624 28.1782 107.759 28.4882C107.926 28.7547 108.26 28.9545 108.53 29.0187C108.953 29.0211 110.814 29.0187 112.53 29.0187C113.535 29.0163 114.281 29.0211 115.126 29.0187C115.675 29.0187 115.639 28.9775 116.116 29.3057C116.212 29.376 116.272 29.4523 116.329 29.5528C116.68 30.2383 116.656 31.0134 116.643 31.8284C116.632 32.5236 116.685 32.8131 116.147 33.1716C115.38 33.7468 114.418 33.4792 113.419 33.5046C110.306 33.2927 106.93 33.1207 103.673 33.4416C103.158 33.484 102.623 33.5143 102.116 33.4344C101.743 33.3157 101.293 32.9802 101.219 32.5781C101.179 32.1118 101.182 30.7033 101.213 30.1741C101.207 29.8592 101.551 29.6691 101.634 29.4729C101.64 28.3356 101.628 16.2658 101.636 11.7193L101.637 11.7229ZM111.341 13.5953L111.297 13.6401C110.678 13.8496 110.314 13.295 109.887 12.8941C109.445 12.7754 109.066 12.3612 108.851 12.0185C108.705 11.7532 108.58 11.3172 108.748 11.0435C109.014 10.8776 109.234 11.247 109.419 11.402C110.04 11.9482 110.771 12.4557 111.246 13.0661C111.362 13.2041 111.402 13.4221 111.339 13.5941L111.341 13.5953ZM113.762 26.9186L113.722 26.955C113.03 27.0167 112.622 26.1472 112.061 25.8722C111.918 25.779 111.703 25.8044 111.594 25.7063C111.42 25.3382 111.235 25.0717 110.813 24.9252C110.253 24.706 109.425 24.3608 109.523 23.6475C109.622 23.4949 109.799 23.5445 109.976 23.5239C110.108 23.5179 110.24 23.5057 110.347 23.5336C111.344 24.0725 112.61 25.1565 113.432 26.129C113.638 26.3579 113.894 26.6134 113.762 26.9199V26.9186Z" fill="var(--fill-0, white)"/>
<path id="Vector_2" d="M225.816 4.6098C225.35 4.23799 224.603 3.48347 224.234 3.062C224.114 2.91788 224.059 2.78951 224.042 2.62722C224.07 2.06769 223.784 1.69225 223.422 1.22598C222.861 0.683403 221.836 0.515054 221.124 0.826307C220.321 1.13998 219.441 1.26352 218.594 1.33013C216.77 1.4355 214.781 1.21507 212.931 1.27563C211.965 1.2611 211.422 2.02167 211.743 2.92394C211.864 3.2691 212.125 3.62517 212.212 3.9667C212.452 4.96344 211.538 4.99008 210.996 4.37968C210.213 3.44229 209.046 2.92273 208.04 2.22998C207.49 1.74554 207.015 0.812989 206.149 1.02735C204.285 1.79762 202.219 0.909876 200.462 0.564712C199.487 0.420591 198.357 0.361246 197.401 0.51869L197.344 0.540489C196.962 0.68461 196.576 1.09154 196.702 1.53359C196.837 1.97928 197.137 2.2433 197.188 2.74954C197.289 3.62395 198.197 3.94489 198.641 4.77571C199.175 5.77002 199.391 6.76555 199.949 7.76229C200.358 8.46231 200.582 9.26163 200.8 10.044C201.354 12.0871 202.433 13.9728 203.217 15.9845C203.601 16.8964 203.733 17.8278 204.071 18.7313C204.529 19.6904 204.986 20.7041 205.267 21.719C205.338 21.9358 205.37 22.1441 205.364 22.3779C205.25 25.7908 205.746 29.5379 205.078 32.6977C204.875 33.2826 204.6 33.9487 204.847 34.5543C205.02 34.9091 205.516 35.0472 205.83 35.241C207.12 36.09 208.371 37.4876 209.4 38.7108C210.026 39.4786 210.901 40.2053 211.964 40.1096C212.298 40.0818 212.553 40.1593 212.793 40.3203C213.466 40.8435 214.252 40.1617 214.9 40.129C215.247 40.1241 215.484 40.4281 215.789 40.5274C216.64 40.6994 218.336 40.5856 219.035 40.2658C219.288 40.1568 219.574 40.0878 219.847 40.1774C220.143 40.2707 220.347 40.4378 220.597 40.3482C221.006 40.0939 221.846 39.8722 221.76 39.2631C221.697 38.7217 221.102 38.2784 220.99 37.8412C220.889 37.4307 221.009 36.6398 220.975 36.0863C220.935 35.7073 220.784 35.4638 220.766 35.1223C220.647 32.797 220.551 28.7241 220.789 26.1165C220.796 24.5906 221.477 23.7282 222.082 22.3803C222.305 21.7299 222.403 21.0614 222.62 20.4183C223.269 18.4672 223.823 16.4108 224.404 14.4246C224.691 13.6192 225.123 12.8622 225.472 12.0799C226.108 10.7222 226.223 9.27132 226.784 7.89672C226.969 7.37716 227.515 6.87941 227.644 6.42282C227.716 6.00741 227.747 5.43455 227.452 5.05306C227.002 4.54318 226.244 4.92589 225.82 4.60858L225.816 4.6098ZM208.132 3.93036C208.703 3.74143 208.869 5.18023 208.334 5.34494C207.939 5.46726 207.843 4.81084 207.627 4.63765C207.578 4.42449 208.021 3.9667 208.132 3.93036ZM214.196 20.3045C214.104 20.5963 213.918 20.8458 213.648 20.9984C213.456 21.1208 213.331 21.2419 213.302 21.4429C213.24 21.7856 213.35 22.0908 213.571 22.3222C213.802 22.6019 214.009 23.1106 214.1 23.4897C214.059 26.0754 214.19 30.4305 214.054 32.9847L214.027 33.0162C213.55 33.6726 212.553 33.4667 211.87 33.2475C209.861 33.1228 207.091 34.134 207.419 31.0554C207.344 30.6061 207.151 30.2016 207.176 29.7341C207.071 27.1726 207.333 24.4646 207.238 21.8958C207.227 21.633 207.151 21.3811 207.013 21.1547C205.929 19.5124 205.621 17.5928 204.988 15.7544C204.38 14.2344 203.735 12.729 203.217 11.1255C202.195 8.84017 201.223 6.58389 200.545 4.14594C200.446 3.86376 200.259 3.6397 200.179 3.39143C200.075 3.03779 200.087 2.52912 200.54 2.51095C201.787 2.42497 203.07 2.97238 204.29 3.09712C204.925 3.10197 205.701 3.01841 205.758 3.86739C205.83 6.16243 206.653 8.26127 207.442 10.3565C207.927 11.6596 208.36 13.3104 209.054 14.5529C209.297 14.8509 209.627 15.0652 210.025 15.0398C210.622 15.0047 210.817 14.1569 210.983 13.6882C211.478 11.9006 212.323 10.0949 212.941 8.23462C213.067 7.74776 213.665 7.62907 213.786 7.16764C213.864 6.93389 213.878 6.65292 213.883 6.37316C213.839 5.8536 214.06 5.51933 214.102 5.05063C214.151 4.26947 213.795 3.22308 214.641 2.92757C215.191 2.86096 215.86 3.01477 216.319 2.81009C216.574 2.71442 216.814 2.67687 217.095 2.67445C218.833 2.65992 220.905 2.25784 219.506 4.67883C219.243 5.60653 219.028 6.53303 218.748 7.44983C217.777 10.4219 216.867 13.32 215.89 16.2122C215.375 17.5565 214.64 18.9383 214.196 20.302V20.3045ZM220.244 14.4221C220.375 14.5929 220.6 14.7976 220.742 14.9284C220.875 15.1549 220.917 15.4746 221.029 15.7786C221.101 16.045 221.19 16.2376 221.162 16.2654L221.125 16.2836C221.013 16.3211 220.774 16.309 220.66 16.2097C220.452 16.0729 220.394 15.8888 220.193 15.8621C219.923 15.8718 219.81 15.9033 219.646 15.6272C219.417 15.2711 219.068 14.8097 218.755 14.5045C218.56 14.0806 218.834 13.2716 219.386 13.4145C219.781 13.5671 219.948 14.1194 220.244 14.4234V14.4221ZM216.609 20.9282C216.925 21.1656 217.214 21.4695 217.484 21.7554C217.581 21.8474 217.487 21.9903 217.583 22.0787C217.806 22.3197 218.195 22.5474 218.144 22.9241L218.138 22.9495C217.826 22.8526 217.289 22.6843 216.937 22.5741C216.623 22.4578 216.183 21.9225 216.138 21.7336C216.041 21.4235 216.342 21.059 216.608 20.9282H216.609ZM216.784 23.8784C217.077 24.1013 217.28 24.6172 217.713 24.5518L217.737 24.5566V24.9624C217.73 25.1549 217.767 25.1779 217.662 25.144C217.502 25.1077 217.053 25.0072 216.854 24.9636C216.666 25.0048 216.379 25.1985 216.149 25.2991C216.064 25.3318 216.053 25.3729 215.995 25.3463C214.974 24.8279 215.774 23.1748 216.785 23.8796L216.784 23.8784ZM218.941 34.2467C218.777 34.237 218.52 34.0238 218.357 33.9306C217.615 33.4062 216.647 32.6504 216.116 31.8257C215.948 31.162 216.653 31.3788 216.922 31.7179C217.687 32.3428 218.054 33.1191 218.73 33.7174C218.866 33.8325 218.976 34.0638 218.953 34.2176L218.941 34.2479V34.2467ZM219.138 30.9779L219.096 31.0179C218.935 31.0809 218.614 31.0796 218.439 31.0276C218.036 30.9161 217.825 30.5334 217.497 30.2755C217.358 30.181 217.228 30.2294 217.157 30.1471C216.781 29.8019 216.293 29.3248 215.946 28.9651C215.787 28.7846 215.714 28.7519 215.699 28.6187C215.694 28.4201 215.679 28.0277 215.751 27.8169C215.992 27.7309 216.279 27.76 216.508 27.8799C217.182 28.282 217.9 29.4556 218.589 29.9606C218.666 30.0066 218.754 29.9993 218.849 30.0357C219.188 30.181 219.199 30.6836 219.136 30.9779H219.138ZM219.358 21.0856L219.343 21.122C219.044 21.3 218.187 20.6375 217.902 20.3723C217.84 20.3129 217.84 20.2996 217.76 20.2875C217.535 20.2342 216.945 20.1131 216.929 20.0974C216.916 20.0889 216.928 19.338 216.924 19.1139C216.924 19.074 217.055 19.1043 217.165 19.0897C217.342 19.08 217.498 19.0498 217.652 19.0994C217.785 19.1878 218.459 19.8794 218.795 20.2379C218.964 20.474 219.435 20.715 219.358 21.0856ZM221.132 19.3198C221.09 19.4216 221.029 19.5851 220.998 19.6456C220.966 19.7134 220.93 19.6929 220.819 19.6699C220.651 19.6335 220.321 19.5584 220.151 19.5209C219.935 19.4627 219.492 18.8378 218.804 18.1378C218.401 17.7006 218.046 17.3167 217.714 16.957C217.65 16.8734 217.621 16.8964 217.635 16.8056C217.681 16.6373 217.671 16.2291 217.811 16.2618C217.938 16.2618 218.123 16.2521 218.278 16.2388C218.918 16.148 219.149 16.8238 219.768 17.4184C220.004 17.6715 220.205 17.9319 220.541 17.8823L220.564 17.9053C220.469 18.4321 221.388 18.7712 221.13 19.3186L221.132 19.3198ZM223.184 12.0193C222.962 12.2155 221.913 11.3254 221.675 11.0359C221.618 10.9741 221.578 10.9148 221.575 10.8143C221.571 10.7089 221.578 10.6266 221.514 10.6278C221.195 10.6944 220.519 10.1748 220.237 9.81632C220.038 9.60195 220.143 8.95523 220.401 8.81232C220.857 8.61733 221.362 9.1914 221.582 9.49539C222.022 10.1688 222.316 10.8433 222.911 11.4259C223.075 11.5615 223.244 11.7686 223.201 11.9794L223.186 12.0193H223.184ZM224.058 9.91079C223.909 10.1881 223.51 9.85508 223.359 9.68431C222.769 9.23862 222.086 8.45625 221.608 8.08928C221.506 8.01298 221.354 8.00814 221.264 7.95728C221.127 7.8616 221.111 7.65087 221.02 7.50917C220.791 7.0538 221.165 6.63839 221.456 6.29807C221.641 6.08855 221.779 5.88267 221.631 5.63318C221.382 5.08455 222.002 3.79714 222.398 3.54766C222.48 3.49921 222.572 3.5416 222.728 3.65302C223.027 3.90372 223.299 3.89646 223.077 4.31429C222.974 4.65097 222.763 4.87382 222.838 5.20687C222.854 5.39822 223.011 5.724 222.945 5.89598L222.909 5.91415C220.24 5.8984 224.392 9.21077 224.06 9.91079H224.058Z" fill="var(--fill-0, white)"/>
<path id="Vector_3" d="M37.949 36.4171C38.9215 37.6876 40.0078 38.7739 41.0215 39.9063C41.2177 40.1413 41.2056 40.4016 41.4321 40.4828C41.6368 40.5494 42.0764 40.5554 42.321 40.4561C42.5487 40.3665 42.619 40.0819 42.7849 39.956C43.0598 39.7477 43.474 39.7343 43.7853 39.8675C44.2927 40.0746 45.2434 39.7392 45.8054 39.979C45.9023 40.031 45.9883 40.0904 46.0718 40.1606C46.3068 40.3774 46.4897 40.3629 46.8966 40.3932C47.6523 40.4428 48.8961 40.4816 49.7197 40.5058C52.3332 40.6184 54.9068 40.4888 57.5264 40.5191C57.8038 40.524 58.1078 40.4489 58.281 40.2333C58.7557 39.6556 58.3524 38.7073 58.5983 38.0121C58.7896 37.5471 58.6842 36.9767 58.3827 36.577C58.224 36.336 58.1211 36.1785 58.0908 35.9835C57.983 35.051 58.2604 33.9562 57.9079 33.0188C57.8098 31.7532 58.0254 30.3628 57.8716 29.1202L57.845 29.0875C57.6039 28.9531 57.1801 29.1299 56.8955 29.1311C55.9968 29.3394 55.5426 28.4214 54.8983 28.0109C54.3655 27.6827 53.8011 27.2394 53.198 27.1013C52.7268 26.8882 52.705 26.2511 52.6251 25.7776C52.5936 22.8552 52.6893 19.9171 52.6178 16.9959C52.5331 14.3496 52.0232 10.8035 52.5524 8.20329C52.619 7.79272 52.7947 7.50085 52.8152 7.06727C52.7038 6.42539 52.5755 5.74112 52.0801 5.28332C51.517 4.77708 50.6655 5.12103 50.169 4.57603C49.2425 3.82757 48.0859 2.40817 47.2817 1.50711C46.9814 1.23219 46.6229 0.655698 46.1372 0.664176C45.6867 0.698087 45.1417 0.417112 44.6682 0.498256C42.1818 0.968163 39.6784 0.614517 37.1739 0.667806C36.7669 0.723516 36.2014 0.727153 36.1856 1.16315C36.1905 1.58825 36.1408 2.19743 36.2086 2.53048C36.2958 2.7509 36.4993 2.89503 36.7573 3.16389C37.1024 3.48726 37.2066 3.67861 37.1884 4.08554C37.45 11.4454 36.5392 19.842 36.9607 26.9209C37.1157 27.874 36.7887 28.8199 36.7851 29.6931C36.8602 30.2611 36.7064 30.7697 36.5405 31.3026C36.4896 31.827 36.1808 32.2158 35.7702 32.5464C34.7456 33.3603 35.2446 33.9852 36.0875 34.6211C36.7863 35.1576 37.4197 35.7413 37.9465 36.4159L37.949 36.4171ZM42.0994 38.4627L42.0788 38.5038C42.0049 38.5535 41.6562 38.7085 41.5908 38.6819C41.437 38.5656 41.2383 38.3379 41.0567 38.1962C40.7466 37.9249 40.6219 37.8305 40.6776 37.5047C40.565 36.881 39.8262 36.428 39.6748 35.8104C39.6724 35.636 39.9582 35.3526 40.1629 35.4713C40.3021 35.5342 40.4245 35.6674 40.525 35.7861C40.961 36.3517 41.3328 37.0178 41.776 37.5374C41.9904 37.7748 42.1672 38.1502 42.1006 38.4615L42.0994 38.4627ZM48.7484 38.7085C48.6285 38.7485 48.2227 38.895 48.1028 38.8696C47.8194 38.7606 47.5288 38.6649 47.3253 38.4166C46.4521 37.3872 45.2774 36.686 44.3751 35.6129C44.2116 35.3562 44.3593 35.2896 44.604 35.1152C44.7953 34.9856 44.9189 34.8681 45.0315 34.8451C45.1756 34.8003 45.4033 34.8548 45.5402 34.9468C45.7073 35.0607 45.9253 34.988 46.0597 35.0776C46.1954 35.1697 46.3443 35.3804 46.5054 35.493C47.3144 36.0732 47.8134 36.8228 48.4904 37.512C48.66 37.7227 48.712 38.4493 48.7617 38.6891L48.7459 38.7097L48.7484 38.7085ZM53.2452 28.987C53.7442 28.8635 54.1438 29.1469 54.5253 29.3843C54.7094 29.5163 54.8838 29.5284 55.0061 29.6798C55.4421 30.1654 56.0755 30.8703 56.5382 31.3838C56.6387 31.5146 56.675 31.4734 56.6302 31.6103C56.5794 31.7822 56.4667 32.1904 56.4558 32.2097L56.4413 32.2194C56.2487 32.1843 55.9011 32.1007 55.6965 32.0571C54.7809 31.7156 54.4805 30.2514 53.485 30.0128C53.3106 29.9414 53.3627 29.6652 53.2864 29.4303C53.2549 29.1977 53.1641 29.0197 53.2464 28.9846L53.2452 28.987ZM52.1552 34.8936C52.3139 35.0195 52.7062 35.4083 53.0127 35.7195C53.2016 35.9193 53.3469 36.055 53.3905 36.147C53.4438 36.2282 53.3954 36.5116 53.422 36.6133L53.439 36.6436C53.9537 36.8277 54.7361 37.5761 55.0158 37.9734C55.074 38.0969 55.0388 38.4094 55.0231 38.6528C54.8148 39.2911 54.2201 38.6007 53.9719 38.3464C52.9279 37.5132 51.7204 36.6569 50.6776 35.8564C49.6494 35.1128 50.2901 34.3934 51.5727 34.6247C51.8197 34.7264 51.8548 34.8003 52.1552 34.8923V34.8936ZM47.7892 11.6368C47.8703 11.5508 48.035 11.6089 48.1222 11.6743C48.5921 12.1273 49.0136 12.4966 49.5683 13.038C50.0661 13.6169 50.9623 14.1631 50.7721 15.0036L50.7322 15.0436C50.5142 15.1272 50.2562 15.0242 50.0988 14.8547C49.6664 14.5228 49.4363 14.0456 49.1105 13.6702C48.6321 13.078 47.4791 12.5197 47.7916 11.6368H47.7892ZM47.5869 14.4671L47.6196 14.4417C48.1743 14.8438 50.0757 16.7173 50.8399 17.4186C51.5484 18.2736 51.1003 19.5646 50.1072 18.5316C49.0826 17.6693 48.3741 17.0455 47.6996 15.878C47.3992 15.4542 47.1049 14.8595 47.5869 14.4683V14.4671ZM47.8945 19.2958C47.6996 19.0887 47.2951 18.6054 47.57 18.2881C47.7516 18.3632 48.1852 18.5861 48.3584 18.781C49.0051 19.4883 49.716 20.1145 50.4233 20.6595C50.9998 21.0083 51.0846 21.6865 50.9756 22.2896L50.938 22.3296C50.8 22.3381 50.5626 22.4022 50.4524 22.3138C50.3943 22.2278 50.4221 22.1358 50.3724 22.0341C49.997 21.3776 48.1477 20.2332 47.9599 19.8093C47.9079 19.6688 47.9951 19.3951 47.8945 19.2958ZM47.6463 21.4891C47.9539 21.6005 48.3063 21.8742 48.5074 22.1285C48.6309 22.2339 48.4928 22.5197 48.5837 22.6699C48.7581 22.9121 49.4835 23.0175 49.3721 23.5019L49.3636 23.531C49.0209 23.4256 48.4613 23.2536 48.1053 23.1447C47.9757 23.0938 47.8655 22.9581 47.7553 22.8407C47.4864 22.6481 46.9632 21.2287 47.6451 21.4891H47.6463ZM38.4794 30.5978C38.7023 28.6661 38.4104 26.6084 38.6429 24.6537C38.9481 22.1201 38.8827 18.8198 38.8464 16.1263C38.8621 12.4579 38.8161 6.65186 38.8609 3.02583C39.022 2.84779 39.2497 2.50869 39.5161 2.50626C40.313 2.54623 44.208 2.42512 44.6294 2.5547L44.6585 2.58256C44.7772 2.72062 45.0775 3.0997 45.086 3.39037C45.0896 3.70647 44.908 4.01651 44.9104 4.38347C44.8995 4.70078 44.9298 5.03868 44.9164 5.35598C44.6149 8.87181 45.4215 12.4966 44.9358 16.0585C44.8898 16.4473 44.8898 16.8602 44.9358 17.249C45.2798 19.7499 44.9576 22.4204 45.1114 24.8826C45.2241 25.9241 44.6076 27.4671 46.1263 27.6415C46.3141 27.6633 46.5236 27.6027 46.8021 27.5615C47.2781 27.524 47.7444 27.6584 48.2022 27.7299C49.0511 27.9285 50.7164 27.3896 51.0143 28.5413C51.0507 29.2002 51.0495 31.1234 51.0107 31.7071C51.001 31.9578 50.7879 32.1322 50.6207 32.3079C50.1048 32.7438 49.4884 32.8674 48.8392 32.831C48.0496 32.8165 47.0867 32.8674 46.2838 32.8032C44.2007 33.0236 41.7397 33.2295 39.6021 32.8952C39.2763 32.8383 38.9106 32.7451 38.7156 32.4738C38.4116 31.9324 38.4104 31.2094 38.4794 30.5941V30.5978Z" fill="var(--fill-0, white)"/>
<g id="Group_2">
<path id="Vector_4" d="M80.4576 39.8035C80.529 39.2234 80.3595 38.544 80.6925 38.0959C80.9529 37.7277 81.4156 37.9348 81.6481 38.2642C81.9509 38.659 81.9351 39.3809 82.382 39.6618C83.1402 40.1233 84.1963 39.9719 85.0537 39.9331C87.0908 39.9004 89.1351 39.9525 91.1286 39.7878C91.6784 39.8726 92.2307 40.1051 92.76 39.8592L92.806 39.8253C93.0494 39.6267 93.007 39.244 92.9089 38.9727C92.7224 38.372 92.6437 37.5654 92.7648 36.926C93.0191 35.2026 92.6655 32.9487 92.4705 31.2955C92.3639 30.4381 92.4729 29.4522 92.2174 28.6469C91.3357 26.9186 91.2449 24.5836 90.2094 22.7742C89.5699 21.855 88.773 21.4493 89.8933 20.4053C90.6829 19.6786 91.1577 18.6553 91.263 17.6089C91.2848 17.1971 91.4932 16.8689 91.4835 16.4498C91.4447 14.6913 91.2316 12.5622 90.5933 11.0314C90.4431 10.444 90.3995 9.78273 90.058 9.23531C89.7383 8.82717 89.4767 8.40328 89.2974 7.914C88.9305 7.2055 88.2571 6.88336 88.004 6.16275C87.9107 5.99441 87.8114 5.89267 87.6443 5.75461C86.7953 5.05701 85.5575 4.11841 84.6032 3.43777C83.334 2.47494 82.032 1.53271 80.4867 1.12093C79.5759 0.71279 78.5259 0.853276 77.5449 0.755176C73.4405 -0.00660677 68.986 0.81089 64.7847 0.561403C64.1198 0.538392 63.6971 1.10882 64.1077 1.63807C64.884 2.45314 64.7968 3.40143 64.9034 4.4236C65.2159 8.0339 65.2728 11.8997 65.3515 15.6118C65.096 19.5915 65.0064 23.7831 64.8525 27.7688C64.775 28.5124 65.0003 29.388 64.8005 30.076C64.729 30.2382 64.6176 30.3763 64.5292 30.5313C64.3027 30.8971 64.4032 31.5075 64.1961 31.958C63.8534 32.7113 63.1037 33.6354 63.5954 34.4626C63.8195 34.8646 64.3463 35.429 64.8538 35.6264C65.6398 35.9534 66.3059 36.4669 66.9344 36.9756C67.5497 37.517 68.2824 38.0886 68.4604 38.6833C68.5198 38.9424 68.4604 39.2307 68.5924 39.4765C68.7244 39.7309 68.9945 39.9864 69.2379 40.1051C69.5262 40.2335 69.8326 40.1826 70.2141 40.1778C71.0473 40.0918 71.7401 40.317 72.5285 40.4975C73.5119 40.6852 74.585 40.5302 75.5272 40.5253C76.5809 40.4733 80.0676 41.0534 80.4576 39.8047V39.8035ZM77.6466 31.4409L77.6163 31.4724C77.0483 31.5789 76.599 31.0146 76.1267 30.8486C75.6447 30.4211 75.176 30.0663 75.176 29.4135C75.1675 29.1349 75.2159 28.9206 75.5332 29.0756C76.1291 29.6048 76.6777 30.1438 77.2772 30.6076C77.5679 30.7893 77.7205 31.1066 77.6478 31.4409H77.6466ZM75.0209 26.2561C74.9241 25.9921 75.1469 25.9328 75.3346 26.0442C75.4606 26.1193 75.5441 26.2586 75.6604 26.3591C76.3156 26.8351 76.9938 27.311 77.4395 28.0231C77.4747 28.1346 77.4686 28.3005 77.448 28.4046L77.4371 28.441C77.3608 28.5233 76.897 28.1624 76.4392 27.7325C76.031 27.3522 75.7101 27.0288 75.3576 26.6558C75.222 26.525 75.0876 26.4257 75.0197 26.2561H75.0209ZM88.9704 32.8736L88.9353 32.8857C88.2438 33.0117 87.5437 32.8058 87.1598 32.1905C87.1223 32.0064 87.1332 31.5474 87.1598 31.3452C87.1889 31.2967 87.2761 31.2023 87.3379 31.1599C87.7036 30.8547 88.3649 31.2895 88.3625 31.7606C88.5356 32.0501 89.0879 32.7404 88.9692 32.8724L88.9704 32.8736ZM89.3471 27.7967C89.5009 27.9541 89.7395 28.0813 89.8788 28.2339C89.9926 28.3707 90.0992 28.688 90.173 28.8164L90.1779 28.8382C90.1621 28.8503 89.2126 28.5451 88.8941 28.4507C88.4836 28.0147 87.9349 27.2383 87.5341 26.7575C87.4457 26.6401 87.3948 26.5965 87.3488 26.5056C87.2943 26.5432 87.4771 26.3215 87.4977 26.3227C87.5825 26.2513 87.6588 26.238 87.7169 26.2816C88.2862 26.7951 88.8602 27.2662 89.3471 27.7967ZM85.5818 15.5246C85.7344 15.3199 86.048 15.1879 86.2769 15.3163C86.4889 15.4761 87.4008 16.399 87.7872 16.8217C88.0003 17.013 87.9022 17.0433 88.0137 17.2758C88.165 17.4393 88.4218 17.6343 88.3649 17.8814L88.3503 17.9141C88.3285 17.9371 88.2861 17.9092 88.2038 17.8959C87.9628 17.8245 87.5995 17.8002 87.3851 17.6803C86.8655 17.3267 86.3775 16.7926 85.8107 16.5189C85.6859 16.4838 85.5382 16.5298 85.5273 16.4668C85.5333 16.2658 85.4631 15.665 85.5793 15.5246H85.5818ZM85.2378 17.7821C85.715 18.3694 86.4998 18.7485 87.0121 19.2984C87.1683 19.4497 87.4578 19.6786 87.3221 19.9039C87.0121 20.002 86.6391 19.9911 86.346 19.8494C85.5781 19.3468 84.7885 18.6419 84.0873 18.0303C83.8026 17.7578 83.8608 17.3364 84.1757 17.1402C84.2701 17.0711 85.0331 17.2964 85.107 17.3085L85.1179 17.334C85.1022 17.4563 85.1276 17.684 85.2378 17.7808V17.7821ZM67.5945 33.2866H66.7855C66.5239 33.2575 66.3967 33.3629 66.3265 33.1945L66.3107 33.1594C65.9668 32.5006 66.0733 31.6891 66.083 30.8498C66.0709 30.1692 66.41 29.5394 66.5166 28.8697C66.7116 26.9913 66.3531 22.7633 66.6704 21.1041C66.7067 20.8692 66.9344 20.6512 67.058 20.4937C67.2215 20.2127 67.1355 20.0383 67.1742 19.6023C67.2312 17.6101 67.2239 12.71 67.1367 11.8791C67.087 11.6636 66.8666 11.54 66.7467 11.3099C66.6329 11.0859 66.6389 10.8303 66.6038 10.5009C66.4912 8.92406 66.6438 6.11793 66.542 4.59921C66.513 3.85439 66.2126 2.51248 67.2808 2.54761C71.6093 2.57546 76.4961 1.72527 80.6829 2.98361C81.7159 3.39538 82.3639 4.15353 83.0493 5.04006C83.9468 6.12399 84.4978 7.36538 84.8285 8.73998C85.0634 9.28255 85.2269 9.83723 85.0283 10.4113C84.9435 10.8291 84.4833 10.857 84.4373 11.3257C84.3985 11.7968 84.3162 12.2582 84.1696 12.6821C84.149 12.7584 84.1793 13.0067 84.235 13.1314C84.4288 13.6001 84.2823 14.0943 83.9783 14.4927C83.7082 14.8439 83.2552 15.0014 82.9561 15.3344C82.2658 16.0211 81.1322 15.418 80.4152 15.8721C80.2323 16.0247 79.9501 16.3263 79.743 16.5286C79.4754 16.7623 79.4354 17.0372 79.4814 17.3654C79.5941 17.8814 80.1863 18.212 80.6368 18.3888C81.8625 18.6892 83.1378 19.5369 83.7566 20.7214C84.1418 21.4965 84.6008 22.1517 84.5305 23.0031C84.7352 24.0204 85.2826 25.1698 85.0998 26.2646C85.0719 26.6158 85.1252 26.9101 85.3626 27.1657C85.6084 27.4321 85.5818 27.6816 85.635 28.1515C85.7295 29.2681 85.7913 31.1272 85.7428 31.9168C85.7247 32.0767 85.6605 32.1966 85.6084 32.3553C85.5273 32.6096 85.5248 32.9063 85.2875 33.0492C84.8079 33.3266 84.4118 33.3375 83.7857 33.3471C82.8204 33.3447 81.9824 33.3944 81.1394 33.0952C80.7616 33.0274 80.2747 33.1413 79.9283 33.0504C79.2114 32.7065 79.4609 31.7461 79.4306 31.0679C79.697 29.0393 79.347 26.703 79.1024 24.6018C78.9704 23.8448 78.2703 22.9789 77.8876 22.3479C76.9079 21.1477 75.2402 20.8534 73.7881 20.788C73.4489 20.7238 73.2406 20.5143 72.9136 20.6996C72.2269 21.023 72.3941 21.5728 72.6012 22.1348C73.254 24.4552 73.2079 27.3243 73.3775 29.8265C73.3181 30.3739 73.1716 30.6803 73.1777 31.1514C73.111 31.7897 73.3775 32.5999 73.0081 33.1461C72.927 33.2393 72.8628 33.2817 72.7574 33.2854C72.1955 33.2854 69.2924 33.2854 67.5933 33.2854L67.5945 33.2866ZM74.9362 36.9453C74.7327 36.915 74.6189 36.7382 74.4311 36.7152C74.0291 36.6438 73.6028 36.9005 73.3024 37.1088C73.2128 37.1524 73.1316 37.1221 73.0214 37.0761C72.457 36.7891 71.837 36.123 71.407 35.6264C71.166 35.1166 71.9714 35.4145 72.3008 35.3237C72.9354 35.297 73.6803 35.1686 74.2858 35.2982L74.3234 35.3103C74.6152 35.4072 75.8397 37.0785 74.9362 36.9453Z" fill="var(--fill-0, white)"/>
<path id="Vector_5" d="M73.3831 15.561C73.9402 15.5574 74.6632 15.6179 75.1452 15.3745C75.3063 15.3176 75.4976 15.3151 75.6684 15.3212C75.9966 15.3466 76.2049 15.2546 76.4944 15.1371C76.9171 14.9748 77.2986 14.7144 77.6401 14.4262C77.8302 14.2421 77.9005 14.0386 78.0385 13.8303C78.2117 13.5748 78.5339 13.2587 78.6405 13.0516C78.7834 12.7755 78.6538 12.423 78.7894 12.1215C78.8318 11.987 78.8536 11.8671 78.8282 11.7521C78.7361 11.5062 78.701 11.2313 78.7083 10.9637C78.701 10.6996 78.46 10.5361 78.3595 10.3024C78.2553 10.0202 78.3425 9.72833 78.1548 9.46673C77.8641 8.99198 77.3615 8.28712 76.8541 8.05701C76.2885 7.46841 75.672 7.27341 74.8533 7.39452C74.4924 7.43934 74.1327 7.29643 73.8239 7.23588C73.5708 7.2383 73.0452 7.26615 72.8151 7.44418L72.7884 7.48657C72.7254 8.07274 72.5268 8.72795 72.5377 9.33229C72.5535 9.6387 72.7 9.84216 72.7279 10.1498C72.7509 10.8498 72.5837 11.6503 72.6334 12.2922C72.6782 13.0249 72.6031 13.7528 72.3427 14.4419C72.3064 15.0862 72.6734 15.6385 73.3855 15.561H73.3831Z" fill="var(--fill-0, white)"/>
</g>
<g id="Group_3">
<path id="Vector_6" d="M7.49396 0.561287C6.81816 0.48741 5.32124 0.28031 5.37332 1.34729C5.38421 1.68882 5.59979 1.97585 5.74028 2.27863C5.93769 2.76428 5.96433 3.28869 6.00914 3.86517C6.12783 7.26716 5.19891 10.9198 4.44682 14.254C3.65234 17.7069 2.61684 21.2033 1.88412 24.6719C1.28584 27.6779 1.02667 30.7468 0.379944 33.7467C0.291533 34.1718 -0.104502 34.437 0.0262965 34.7979C0.131662 35.0898 0.323021 35.3514 0.499842 35.6215C0.964905 36.1495 1.31612 36.7066 1.62979 37.3231C1.85143 37.6271 2.34798 37.8499 2.76702 38.298C3.31444 39.015 3.64023 39.6847 4.37658 40.2697C4.57641 40.4514 4.74354 40.4937 4.91915 40.5434C5.21829 40.5882 5.57436 41.023 5.93284 41.0387C6.2332 41.0315 6.43182 40.7723 6.70553 40.673C7.27353 40.5252 8.10435 40.0771 8.6554 40.2333C9.5722 40.484 10.6331 40.547 11.5572 40.5046C12.3747 40.4114 13.409 40.1583 14.1623 40.3315C14.6164 40.3932 15.1893 40.8074 15.6204 40.5083C16.2042 40.0384 15.641 39.3408 15.526 38.7764C15.4303 38.0606 15.5454 36.8992 16.3919 36.7199C16.9042 36.7732 17.2094 37.34 17.626 37.5847C18.1904 38.0025 19.1121 38.3973 19.3046 39.1773C19.4827 39.7114 19.8981 40.3109 20.4564 40.4647C20.8427 40.5604 21.1758 40.3121 21.5415 40.2321C22.9513 39.9512 24.8406 40.1534 26.375 40.1219C27.7533 40.0989 29.1073 39.8712 30.4867 40.0372C31.1444 40.1583 32.3373 40.2818 32.1992 39.2851C32.1484 38.9496 31.8759 38.7122 31.7766 38.3997C31.7075 35.5609 30.6744 32.8275 29.7746 30.1425C28.7464 26.7804 28.0875 23.2452 27.0339 19.8856C26.4889 16.9451 25.9766 13.9912 25.1567 11.1015C24.8478 9.66393 24.2859 8.12583 24.4845 6.65071C24.6129 6.23046 24.7509 5.69636 24.4034 5.31608L24.3634 5.27852C24.2592 5.18164 24.1248 5.09686 24.0122 5.00481C23.7276 4.77592 23.5326 4.33629 23.277 4.13404C22.8326 3.81067 22.2803 3.65323 21.8564 3.27294C20.5387 2.34524 18.2619 -0.551722 16.5554 0.0925841C16.1243 0.414737 15.7404 0.939146 15.1699 0.980324C14.2483 1.08327 11.6589 1.07479 10.0155 1.02029C9.57341 0.998493 9.2125 1.00455 8.80315 0.946417C8.51249 0.911295 7.91058 0.644848 7.49396 0.563705V0.561287ZM12.0598 38.8563C11.9932 38.9181 11.6989 39.0683 11.5306 39.1712C11.4312 39.2269 11.401 39.2548 11.3634 39.2245C11.2871 39.1555 10.8729 38.7328 10.7385 38.6008C10.6138 38.5003 10.8863 38.2302 10.8584 38.1272C10.8184 38.0134 10.7603 37.885 10.6852 37.7906C10.3788 37.489 10.0009 37.3727 9.7248 36.9694C9.53102 36.7502 9.34816 36.525 9.07324 36.4378C8.97635 36.4087 8.89035 36.416 8.86855 36.3494C8.85644 36.2549 8.83223 35.8601 8.89036 35.8068C9.10351 35.7172 9.27065 35.7268 9.46685 35.7523C9.95129 35.8261 10.1402 36.4886 10.6513 36.4123L10.6743 36.4353C10.684 36.5116 10.6586 36.7224 10.7421 36.7962C11.0921 37.2383 11.6444 37.7797 12.0053 38.2096C12.0671 38.2871 12.0949 38.3138 12.1034 38.4107C12.101 38.5439 12.1167 38.7897 12.0598 38.8575V38.8563ZM24.6419 29.6507C24.5584 29.3734 24.4942 28.8466 24.4288 28.5499C25.4255 28.2907 26.1486 29.4485 26.0492 30.3229L26.0226 30.3495C25.4946 30.4053 24.9641 30.048 24.6419 29.652V29.6507ZM28.1602 35.1588C27.4226 34.5109 26.5846 33.932 25.8991 33.1411C25.7453 32.9219 25.7126 32.291 25.6411 31.993C25.6399 31.9482 25.7017 31.9567 25.8349 31.9555C26.0044 31.9591 26.1922 31.947 26.2224 31.9627L26.2382 31.9857C26.2382 32.056 26.2236 32.2752 26.3084 32.3672C26.8292 33.1315 27.7472 33.7309 28.2498 34.517C28.3782 34.7495 28.7331 35.3998 28.159 35.1588H28.1602ZM27.1623 27.3194C27.6721 27.7324 28.2123 28.4106 28.0548 29.0912L28.0209 29.1263C26.7456 29.4 26.0032 27.392 25.0113 26.824C24.7885 26.6472 24.5051 26.583 24.2689 26.4389C23.7324 26.0029 23.2867 25.0982 23.8608 24.5459C24.1551 24.3376 24.3864 24.7639 24.5875 24.9262C25.4655 25.7389 26.2794 26.5891 27.1623 27.3194ZM26.1558 22.8843C26.4404 23.3409 26.8425 24.3183 26.8486 24.896L26.8328 24.9153C26.7989 24.9347 26.679 24.8935 26.5046 24.8572C26.151 24.7652 25.9802 24.7966 25.7804 24.5472C25.0731 23.7515 24.2883 23.1362 23.5241 22.4859C23.0312 22.0014 22.9646 21.3826 22.9961 20.6535C23.0021 20.4863 23.0639 20.4185 23.2068 20.5227C24.0897 21.1791 24.602 22.3684 25.7186 22.5961C25.9197 22.6518 26.0383 22.6893 26.1558 22.8843ZM25.6351 20.4052L25.5975 20.4415C25.285 20.5251 24.929 20.427 24.6734 20.2017C23.6622 19.2716 22.0296 18.6745 21.986 17.1631C21.9872 16.9523 22.0683 17.0117 22.2452 17.048C22.4862 17.1195 22.7635 17.1231 22.984 17.2491C23.3243 17.4792 23.5592 18.0217 23.7893 18.2894C24.2023 18.6237 24.688 19.0391 25.0973 19.4327C25.4037 19.6688 25.778 19.9849 25.6363 20.4052H25.6351ZM24.8866 16.2402C25.0101 16.4885 25.067 16.6108 24.912 16.8833C24.5911 17.9624 23.2928 16.0113 22.8919 15.734C22.6981 15.5656 22.3966 15.4578 22.1313 15.4445C21.8709 15.4336 21.6287 15.4118 21.4846 15.1696C21.1479 14.7518 21.16 14.6064 21.1588 14.1365C21.1164 13.9972 21.0074 13.8979 20.9614 13.7587C20.8827 13.4983 21.0147 13.0768 21.2472 12.9739L21.3017 12.9666C21.8879 13.2003 22.2767 13.7768 22.7345 14.1959C23.0057 14.4236 23.1886 14.3569 23.4151 14.6319C23.8584 15.103 24.6226 15.6213 24.8878 16.239L24.8866 16.2402ZM23.8245 13.1458L23.7942 13.1701C23.1063 12.8297 22.7417 11.9759 22.095 11.552C21.5294 11.1088 20.6332 11.4176 20.259 10.7588C20.0083 10.3506 19.8799 9.69421 20.3244 9.37084C20.4176 9.30665 20.5169 9.31756 20.5944 9.39022C20.8621 9.65182 21.1055 9.94611 21.3756 10.2029C22.1604 10.8968 22.8968 11.6199 23.6307 12.504C23.8063 12.6711 23.8935 12.9254 23.8232 13.1446L23.8245 13.1458ZM19.7963 3.36014C20.4334 3.88818 20.9529 4.09285 21.4398 4.77713C21.7438 5.14167 22.5843 5.36089 22.3808 5.96765L22.3457 6.00155C22.3057 6.0294 22.25 6.03425 22.1858 6.02093C21.5185 5.83926 20.856 4.95274 20.1996 5.41295C19.9562 5.56919 20.0289 5.8538 20.2105 6.02335C20.8621 6.65676 21.2969 7.38585 21.9957 7.97929C22.5213 8.47826 23.3509 8.86581 23.4091 9.35146C23.3982 9.54281 23.145 9.77656 22.9621 9.73296C22.6824 9.68209 22.3905 9.1056 22.0405 8.97117C21.3889 8.65144 20.7531 8.04831 20.2154 7.50453C20.0664 7.3483 20.0083 7.18117 19.915 7.02009C19.8169 6.83358 19.6231 6.69793 19.5541 6.50052C19.4185 6.0621 19.433 5.51228 19.2586 5.07628C18.9473 4.43076 18.5113 2.45908 19.7951 3.36014H19.7963ZM9.28033 2.24471C10.0421 2.24714 15.1009 2.23866 15.7476 2.24956C16.1872 2.45787 16.6196 2.97259 16.7032 3.48731C17.2252 5.03752 17.6672 6.6168 18.0342 8.23483C19.9925 14.7808 21.1649 21.6563 22.8604 28.2701C23.1547 29.3528 23.4841 30.4501 23.7857 31.5425C24.0558 32.1335 24.2641 32.8904 23.8438 33.4403C23.5108 33.7685 22.9852 33.7237 22.5528 33.7903C21.5791 33.9332 20.4564 34.1185 19.4172 34.0095C18.9873 33.8799 18.5574 33.8048 18.1408 33.6704C17.6551 33.3955 17.5037 32.8783 17.3221 32.3527C17.0072 31.7447 17.3329 30.9624 17.0774 30.3835C16.8909 30.1146 16.3895 29.6023 16.1085 29.4267C16.025 29.3928 16.0395 29.377 15.8506 29.3577C14.677 29.6968 13.0081 29.6277 11.2702 29.6047C10.9456 29.5853 10.7409 29.5999 10.4926 29.543C10.2444 29.4303 9.98761 29.377 9.63881 29.4969C8.79952 29.7258 8.39986 30.6523 8.43377 31.5413C8.50523 32.1807 8.39864 32.6882 8.045 33.2247C7.89846 33.4415 7.74102 33.559 7.64292 33.5759C7.03858 33.5481 2.78882 33.6607 2.21839 33.5396L2.18811 33.5166C1.80298 33.1569 2.14451 32.6615 2.14573 32.2243C2.12998 31.878 2.38795 31.6612 2.53086 31.3814C2.69799 30.9054 2.64955 30.2999 2.74038 29.7912C3.53607 25.1612 4.33297 20.5905 5.79235 16.1627C6.90778 12.2218 7.48548 8.144 8.03532 4.0868C8.17823 3.71742 8.20124 3.32865 8.44588 2.97259C8.55972 2.81878 8.75108 2.6468 8.88915 2.50632C9.10594 2.31738 9.1132 2.23987 9.28033 2.24714V2.24471Z" fill="var(--fill-0, white)"/>
<path id="Vector_7" d="M10.1013 24.2371L10.134 24.2625C11.3948 24.357 15.4132 24.2782 15.808 24.294C16.0272 24.2274 16.3009 24.0469 16.479 23.8192C16.6957 23.4171 16.3651 23.0332 16.2876 22.636C16.2174 22.4616 16.1035 22.2848 16.0854 22.1031C16.0551 21.9008 16.1168 21.6828 16.0405 21.483C15.0935 19.0184 14.5121 16.0839 13.9671 13.474C13.8727 13.1155 13.5033 12.9387 13.4839 12.5766C13.4718 12.4797 13.467 12.3695 13.4633 12.2508C13.4512 11.8269 13.4742 11.1862 13.513 10.8495C13.5542 10.416 13.691 9.37684 13.1194 9.15763C12.8723 9.06316 12.5683 9.16611 12.3564 9.3514C12.1481 9.55245 11.8574 9.65175 11.7387 9.78497C11.5873 9.94484 11.7423 10.5286 11.6709 10.8616C11.6019 11.1971 11.2615 11.3715 11.2155 11.7022C11.0702 12.3889 11.0314 13.3541 10.9382 14.1437C10.5046 16.7609 10.1485 19.4375 9.72464 22.0777C9.62291 22.7668 9.44247 23.7829 10.1001 24.2383L10.1013 24.2371ZM12.32 17.8364C13.2502 17.662 13.6268 18.8731 13.513 19.6106L13.4815 19.6337C12.5344 19.6978 12.0706 18.6309 12.32 17.8364Z" fill="var(--fill-0, white)"/>
</g>
<g id="Group_4">
<path id="Vector_8" d="M135.19 0.561356C134.514 0.487478 133.017 0.280379 133.069 1.34736C133.08 1.68889 133.295 1.97592 133.436 2.2787C133.633 2.76435 133.66 3.28875 133.705 3.86524C133.824 7.26722 132.895 10.9199 132.143 14.2541C131.348 17.7069 130.313 21.2034 129.58 24.672C128.982 27.6779 128.722 30.7469 128.076 33.7468C127.987 34.1719 127.591 34.4371 127.722 34.798C127.827 35.0899 128.019 35.3515 128.196 35.6215C128.661 36.1496 129.012 36.7067 129.325 37.3231C129.547 37.6271 130.044 37.85 130.463 38.2981C131.01 39.0151 131.336 39.6848 132.072 40.2698C132.272 40.4514 132.439 40.4938 132.615 40.5435C132.914 40.5883 133.27 41.0231 133.629 41.0388C133.929 41.0315 134.127 40.7724 134.401 40.673C134.969 40.5253 135.8 40.0772 136.351 40.2334C137.268 40.4841 138.329 40.5471 139.253 40.5047C140.07 40.4114 141.105 40.1583 141.858 40.3315C142.312 40.3933 142.885 40.8075 143.316 40.5083C143.9 40.0384 143.337 39.3408 143.222 38.7765C143.126 38.0607 143.241 36.8993 144.088 36.72C144.6 36.7733 144.905 37.3401 145.322 37.5847C145.886 38.0026 146.808 38.3974 147 39.1773C147.178 39.7114 147.594 40.3109 148.152 40.4647C148.538 40.5604 148.871 40.3121 149.237 40.2322C150.647 39.9512 152.536 40.1535 154.071 40.122C155.449 40.099 156.803 39.8713 158.182 40.0372C158.84 40.1583 160.033 40.2819 159.895 39.2851C159.844 38.9497 159.572 38.7123 159.472 38.3998C159.403 35.561 158.37 32.8275 157.47 30.1425C156.442 26.7805 155.783 23.2453 154.73 19.8857C154.185 16.9451 153.672 13.9913 152.852 11.1016C152.544 9.664 151.982 8.1259 152.18 6.65078C152.309 6.23053 152.447 5.69643 152.099 5.31614L152.059 5.27859C151.955 5.1817 151.82 5.09693 151.708 5.00488C151.423 4.77598 151.228 4.33636 150.973 4.13411C150.528 3.81074 149.976 3.65329 149.552 3.27301C148.234 2.3453 145.958 -0.551654 144.251 0.0926524C143.82 0.414806 143.436 0.939215 142.866 0.980392C141.944 1.08334 139.355 1.07486 137.711 1.02036C137.269 0.998561 136.908 1.00462 136.499 0.946485C136.208 0.911363 135.606 0.644917 135.19 0.563773V0.561356ZM139.754 38.8564C139.688 38.9182 139.393 39.0683 139.225 39.1713C139.126 39.227 139.095 39.2549 139.058 39.2246C138.982 39.1555 138.567 38.7329 138.433 38.6009C138.308 38.5003 138.581 38.2303 138.553 38.1273C138.513 38.0135 138.455 37.8851 138.38 37.7906C138.073 37.4891 137.695 37.3728 137.419 36.9695C137.226 36.7503 137.043 36.525 136.768 36.4378C136.671 36.4088 136.585 36.416 136.563 36.3494C136.551 36.255 136.527 35.8601 136.585 35.8068C136.798 35.7172 136.965 35.7269 137.161 35.7523C137.646 35.8262 137.835 36.4887 138.346 36.4124L138.369 36.4354C138.378 36.5117 138.353 36.7224 138.437 36.7963C138.787 37.2384 139.339 37.7797 139.7 38.2097C139.762 38.2872 139.789 38.3138 139.798 38.4107C139.795 38.5439 139.811 38.7898 139.754 38.8576V38.8564ZM152.338 29.6508C152.254 29.3735 152.19 28.8466 152.124 28.5499C153.121 28.2907 153.844 29.4486 153.745 30.323L153.718 30.3496C153.19 30.4053 152.66 30.0481 152.338 29.652V29.6508ZM155.855 35.1589C155.117 34.511 154.279 33.9321 153.594 33.1412C153.44 32.922 153.407 32.291 153.336 31.9931C153.334 31.9483 153.396 31.9567 153.529 31.9555C153.699 31.9592 153.887 31.9471 153.917 31.9628L153.933 31.9858C153.933 32.0561 153.918 32.2753 154.003 32.3673C154.524 33.1315 155.442 33.731 155.944 34.517C156.073 34.7496 156.428 35.3999 155.853 35.1589H155.855ZM154.858 27.3194C155.368 27.7324 155.908 28.4106 155.751 29.0913L155.717 29.1264C154.441 29.4001 153.699 27.3921 152.707 26.8241C152.484 26.6473 152.201 26.5831 151.965 26.439C151.428 26.003 150.982 25.0983 151.556 24.546C151.851 24.3377 152.082 24.764 152.283 24.9263C153.161 25.7389 153.975 26.5891 154.858 27.3194ZM153.852 22.8844C154.136 23.341 154.538 24.3183 154.544 24.896L154.529 24.9154C154.495 24.9348 154.375 24.8936 154.2 24.8573C153.847 24.7652 153.676 24.7967 153.476 24.5472C152.769 23.7515 151.984 23.1363 151.22 22.4859C150.727 22.0015 150.66 21.3826 150.692 20.6535C150.698 20.4864 150.76 20.4186 150.902 20.5227C151.785 21.1792 152.298 22.3685 153.414 22.5961C153.615 22.6518 153.734 22.6894 153.852 22.8844ZM153.331 20.4053L153.293 20.4416C152.981 20.5252 152.625 20.4271 152.369 20.2018C151.358 19.2717 149.725 18.6746 149.682 17.1631C149.683 16.9524 149.764 17.0118 149.941 17.0481C150.182 17.1195 150.459 17.1232 150.68 17.2491C151.02 17.4792 151.255 18.0218 151.485 18.2895C151.898 18.6237 152.384 19.0391 152.793 19.4327C153.099 19.6689 153.474 19.985 153.332 20.4053H153.331ZM152.582 16.2403C152.706 16.4886 152.763 16.6109 152.608 16.8834C152.287 17.9625 150.988 16.0114 150.588 15.734C150.394 15.5657 150.092 15.4579 149.827 15.4446C149.567 15.4337 149.324 15.4119 149.18 15.1697C148.844 14.7518 148.856 14.6065 148.854 14.1366C148.812 13.9973 148.703 13.898 148.657 13.7587C148.578 13.4983 148.71 13.0769 148.943 12.9739L148.997 12.9667C149.584 13.2004 149.972 13.7769 150.43 14.1959C150.701 14.4236 150.884 14.357 151.111 14.6319C151.554 15.103 152.318 15.6214 152.583 16.2391L152.582 16.2403ZM151.52 13.1459L151.49 13.1701C150.802 12.8298 150.437 11.976 149.791 11.5521C149.225 11.1088 148.329 11.4177 147.955 10.7588C147.704 10.3507 147.576 9.69427 148.02 9.37091C148.113 9.30672 148.213 9.31763 148.29 9.39029C148.558 9.65189 148.801 9.94618 149.071 10.2029C149.856 10.8969 150.592 11.6199 151.326 12.504C151.502 12.6712 151.589 12.9255 151.519 13.1447L151.52 13.1459ZM147.491 3.36021C148.128 3.88825 148.647 4.09292 149.134 4.77719C149.438 5.14174 150.279 5.36095 150.075 5.96772L150.04 6.00162C150 6.02947 149.944 6.03432 149.88 6.021C149.213 5.83933 148.551 4.9528 147.894 5.41302C147.651 5.56925 147.723 5.85387 147.905 6.02342C148.557 6.65683 148.991 7.38591 149.69 7.97935C150.216 8.47833 151.045 8.86588 151.104 9.35153C151.093 9.54288 150.84 9.77663 150.657 9.73303C150.377 9.68216 150.085 9.10567 149.735 8.97124C149.083 8.65151 148.448 8.04838 147.91 7.5046C147.761 7.34837 147.703 7.18123 147.609 7.02016C147.511 6.83365 147.318 6.698 147.249 6.50059C147.113 6.06217 147.127 5.51234 146.953 5.07635C146.642 4.43083 146.206 2.45915 147.49 3.36021H147.491ZM136.976 2.24478C137.738 2.24721 142.797 2.23872 143.443 2.24962C143.883 2.45793 144.315 2.97266 144.399 3.48737C144.921 5.03759 145.363 6.61686 145.73 8.2349C147.688 14.7809 148.861 21.6563 150.556 28.2701C150.85 29.3529 151.18 30.4501 151.481 31.5425C151.751 32.1336 151.96 32.8905 151.54 33.4404C151.206 33.7686 150.681 33.7238 150.248 33.7904C149.275 33.9333 148.152 34.1186 147.113 34.0096C146.683 33.88 146.253 33.8049 145.836 33.6705C145.351 33.3955 145.199 32.8784 145.018 32.3528C144.703 31.7448 145.029 30.9624 144.773 30.3835C144.587 30.1147 144.085 29.6024 143.804 29.4268C143.721 29.3928 143.735 29.3771 143.546 29.3577C142.373 29.6968 140.704 29.6278 138.966 29.6048C138.641 29.5854 138.437 29.5999 138.188 29.543C137.94 29.4304 137.683 29.3771 137.335 29.497C136.495 29.7259 136.096 30.6524 136.129 31.5413C136.201 32.1808 136.094 32.6883 135.741 33.2248C135.594 33.4416 135.437 33.559 135.339 33.576C134.734 33.5481 130.485 33.6608 129.914 33.5397L129.884 33.5167C129.499 33.157 129.84 32.6616 129.841 32.2244C129.826 31.878 130.084 31.6612 130.227 31.3815C130.394 30.9055 130.345 30.3 130.436 29.7913C131.232 25.1613 132.029 20.5906 133.488 16.1628C134.603 12.2218 135.181 8.14406 135.731 4.08687C135.874 3.71749 135.897 3.32872 136.142 2.97266C136.255 2.81885 136.447 2.64687 136.585 2.50639C136.802 2.31745 136.809 2.23994 136.976 2.24721V2.24478Z" fill="var(--fill-0, white)"/>
<path id="Vector_9" d="M137.798 24.2372L137.83 24.2626C139.091 24.3571 143.109 24.2784 143.504 24.2941C143.724 24.2275 143.997 24.047 144.175 23.8194C144.392 23.4173 144.061 23.0334 143.984 22.6361C143.914 22.4617 143.8 22.2849 143.782 22.1032C143.751 21.901 143.813 21.683 143.737 21.4831C142.79 19.0186 142.208 16.0841 141.663 13.4741C141.569 13.1156 141.2 12.9388 141.18 12.5767C141.168 12.4798 141.163 12.3696 141.16 12.2509C141.148 11.827 141.171 11.1864 141.209 10.8497C141.25 10.4161 141.387 9.37697 140.816 9.15776C140.569 9.0633 140.265 9.16624 140.053 9.35154C139.844 9.55258 139.554 9.65188 139.435 9.7851C139.284 9.94497 139.439 10.5287 139.367 10.8618C139.298 11.1973 138.958 11.3717 138.912 11.7023C138.766 12.389 138.728 13.3542 138.634 14.1439C138.201 16.7611 137.845 19.4376 137.421 22.0778C137.319 22.7669 137.139 23.783 137.796 24.2384L137.798 24.2372ZM140.016 17.8365C140.946 17.6621 141.323 18.8732 141.209 19.6108L141.178 19.6338C140.231 19.698 139.767 18.631 140.016 17.8365Z" fill="var(--fill-0, white)"/>
</g>
<g id="Group_5">
<path id="Vector_10" d="M162.987 2.22141C163.285 2.49027 163.506 2.67316 163.505 3.04375C164.143 5.55921 163.463 8.46585 163.753 10.9716C163.896 12.4467 164.192 14.0406 164.331 15.4575C164.694 19.0896 164.476 22.9143 164.313 26.5198C164.261 28.1668 164.21 29.6723 163.962 31.2612C163.838 31.7868 163.375 32.1574 163.057 32.5268C162.815 32.9374 162.432 33.5078 162.576 33.9644C162.656 34.203 162.823 34.3992 162.989 34.599C164.442 36.039 166.059 37.5711 167.628 38.8851C168.25 39.3477 168.852 40.0478 169.679 40.0405C171.973 39.2533 174.737 39.9267 177.149 39.6978C177.56 39.6699 178.106 39.3756 178.532 39.4894C178.919 39.5791 179.534 40.0635 179.974 40.2246C180.068 40.2755 180.324 40.2682 180.449 40.1846C180.729 40.0247 180.681 39.5379 180.999 39.3913C181.412 39.1782 182.106 39.3453 182.553 39.2339C182.993 39.1528 183.443 38.8585 183.855 38.6974C184.472 38.4782 185.846 38.5702 186.641 38.4624C187.046 38.4067 187.49 38.179 187.882 38.1039C188.24 38.0373 188.537 38.0858 188.818 37.9199C191.739 36.2061 194.296 33.2898 196.098 30.388C196.378 30.0077 196.35 29.6456 196.372 29.212C196.394 28.9105 196.604 28.6464 196.865 28.3485C197.126 28.0506 197.336 27.7878 197.356 27.4814C197.386 27.2331 197.337 26.9751 197.463 26.7462C197.685 26.3514 198.152 26.0159 198.22 25.5484C198.322 24.9877 198.193 24.3931 198.334 23.8323C198.43 23.3769 198.727 23.1081 198.776 22.6491C198.805 22.161 198.483 21.7432 198.462 21.2515C198.363 19.7981 198.11 18.2055 197.617 16.8697C196.437 14.3118 194.823 12.081 193.102 9.88648C191.427 7.93661 189.379 6.39365 187.349 5.00088C186.121 4.1083 184.958 3.00499 183.531 2.41761C182.462 1.98646 181.33 1.83749 180.224 1.58922C179.413 1.41119 177.664 0.989721 176.539 0.852866C175.383 0.749923 174.349 1.16775 173.174 1.08418C171.583 1.09751 170.135 0.907364 168.77 0.805632C166.884 0.729332 164.775 0.84318 162.878 0.892835L162.824 0.920688C162.322 1.26101 162.543 1.8823 162.988 2.2202L162.987 2.22141ZM171.76 37.9865C171.677 37.9513 171.538 37.8339 171.441 37.7443C170.719 36.8771 169.514 36.4568 168.822 35.5195C168.781 35.4383 168.759 35.3063 168.784 35.2518L168.817 35.2191C169.068 35.1997 169.332 35.1743 169.581 35.2227C170.365 35.4989 170.805 36.3914 171.34 37.0067C171.543 37.2671 171.76 37.4863 172 37.7018C172.015 37.8302 171.865 38.0385 171.762 37.9877L171.76 37.9865ZM177.186 38.0313C176.954 38.1076 176.592 38.0785 176.37 37.9695C176.211 37.8932 176.023 37.7261 175.921 37.5444C175.882 37.4487 175.888 37.3591 175.828 37.2719C175.528 36.9013 175.136 36.6264 174.766 36.3636C174.442 36.1165 172.789 35.0617 173.821 34.8473C174.136 34.8788 174.503 35.1549 174.821 35.2627C175.71 35.9264 176.18 37.0418 177.031 37.6147C177.096 37.6595 177.224 37.6534 177.281 37.6558L177.313 37.6692C177.324 37.72 177.268 38.001 177.186 38.0337V38.0313ZM181.305 37.3628C181.225 37.439 180.885 37.548 180.781 37.5129C180.268 37.1653 179.9 36.538 179.356 36.2255C178.898 35.9276 178.366 35.6103 177.952 35.2724C177.863 35.2155 177.778 35.1852 177.68 35.2058C177.505 35.2397 177.314 35.4504 177.169 35.574C176.952 35.6212 176.238 35.4492 176.035 35.4032L176.01 35.3765C175.974 35.2881 175.787 34.966 175.875 34.8521C175.931 34.7649 176.04 34.662 176.166 34.6353C176.31 34.6087 176.533 34.6172 176.683 34.5324C176.894 34.4234 176.964 34.3665 177.234 34.3628C177.536 34.3471 177.982 34.341 178.272 34.3737C178.429 34.3883 178.527 34.5409 178.68 34.5784C178.87 34.6075 179.029 34.5639 179.106 34.6499C179.599 35.0689 180.326 35.7992 180.818 36.3236C180.933 36.4532 180.98 36.492 181.009 36.6276C181.031 36.7221 181.044 36.8553 181.079 36.9643C181.102 37.1229 181.357 37.284 181.302 37.3615L181.305 37.3628ZM185.76 36.8226C185.702 36.8044 185.562 36.7196 185.476 36.6264C184.703 35.7253 183.463 35.4105 182.599 34.5796C182.37 34.3483 182.237 33.9293 182.378 33.6374C182.516 33.555 182.941 33.5817 183.125 33.5708C183.515 33.6156 183.744 34.0468 184.272 34.5784C184.702 35.0653 185.181 35.5715 185.376 35.7181C185.503 35.9724 185.777 36.7899 185.783 36.8238H185.76V36.8226ZM188.77 36.0305C188.704 36.1444 188.616 36.3018 188.558 36.3708C188.451 36.492 187.905 36.412 187.784 36.4314C187.594 36.3963 186.753 35.4335 185.841 34.5627C185.344 34.0492 184.903 33.6592 184.573 33.2789C184.562 33.0658 184.872 32.6939 185.063 32.5898L185.107 32.574C185.351 32.5341 185.473 32.5704 185.673 32.6612C185.892 32.8623 186.265 32.6806 186.444 32.8998C186.972 33.3867 187.699 34.1194 188.167 34.6438C188.219 34.7455 188.242 34.8679 188.297 34.9684C188.569 35.2857 189.029 35.5752 188.77 36.0305ZM192.892 32.1054L192.877 32.1381C192.846 32.1817 192.788 32.1296 192.679 32.0581C192.282 31.805 191.68 31.3557 191.307 31.1546C191.192 31.1123 190.671 30.9548 190.331 30.8482C190.052 30.7344 189.995 30.8252 190.079 31.1595C190.259 31.8874 190.895 32.3657 191.415 32.8671C191.564 33.0222 191.766 33.1736 191.793 33.3249C191.813 33.4715 191.649 33.7537 191.533 33.7597C190.769 33.5429 190.178 33.0512 189.67 32.3561C189.344 31.9407 189.005 31.4962 188.708 31.1752C188.614 31.059 188.617 30.956 188.647 30.7986C188.736 30.4595 188.708 30.107 188.965 29.8818C189.332 29.5463 189.913 28.6695 190.453 28.6913C190.841 28.8027 191.69 29.8503 192.138 30.2875C192.212 30.3626 192.24 30.4413 192.272 30.5321C192.319 30.7489 192.54 30.9899 192.684 31.2019C192.861 31.4284 192.952 31.8619 192.89 32.1066L192.892 32.1054ZM195.273 28.2468C194.4 28.615 194.02 27.2392 193.479 26.8286C193.344 26.7281 193.187 26.7208 193.044 26.6239C192.667 26.2969 192.189 25.9663 191.88 25.5908C191.8 25.2202 191.738 24.5166 192.128 24.301L192.186 24.2828C192.559 24.2017 192.806 24.5372 193.055 24.783C193.187 24.8969 193.349 24.8896 193.487 24.9962C194.197 25.6151 194.71 26.5815 195.438 27.1786C195.551 27.2912 195.593 27.4705 195.648 27.6279C195.759 27.8968 195.483 28.1232 195.275 28.2444L195.273 28.2468ZM196.293 25.6441L196.25 25.6914C196.038 25.8052 195.78 25.6562 195.603 25.5157C194.711 24.8327 193.952 24.1424 193.091 23.5731C192.919 23.4617 192.783 23.3479 192.673 23.1626C192.035 22.0823 192.804 21.0407 193.833 22.0665C194.303 22.5013 194.942 23.1662 195.39 23.6664C195.491 23.7669 195.479 23.8989 195.575 24.0588C196.035 24.5723 196.556 24.9502 196.294 25.6429L196.293 25.6441ZM197.036 22.8998C196.815 23.0935 196.71 23.1444 196.488 23.0826C196.11 22.8949 196.074 22.3245 195.662 22.2349C194.608 21.7965 193.705 20.9184 192.973 20.0513C192.892 19.9435 192.823 19.8381 192.781 19.7485C192.7 19.6128 192.797 19.1623 192.843 19.0545L192.875 19.0267C193.339 18.8801 193.619 19.1502 193.956 19.4251C194.92 20.1033 196.087 21.0504 196.885 21.9139C196.997 22.0484 196.997 22.3632 197.067 22.5679C197.106 22.6781 197.075 22.7944 197.034 22.8998H197.036ZM196.905 19.3234C196.985 19.5159 196.899 19.8429 196.728 19.9883C196.638 20.0634 196.518 20.0767 196.409 20.0222C196.275 19.9628 196.177 19.8054 196.059 19.7303C194.945 19.1793 193.98 18.1995 192.97 17.4595C192.608 17.2028 192.753 16.7244 192.571 16.3659C192.525 16.2763 192.466 16.1467 192.5 16.0292C192.538 15.9214 192.637 15.8536 192.73 15.7966L192.792 15.7809C193.166 15.707 193.412 16.0377 193.658 16.2847C193.789 16.3949 193.906 16.384 194.026 16.4434C194.507 16.8527 196.679 18.9734 196.905 19.321V19.3234ZM191.76 10.3346L191.785 10.3443C192.301 10.8723 192.967 11.2708 192.886 12.0592C192.823 12.345 193.061 12.4516 193.268 12.7495C193.878 13.5053 194.88 14.7442 195.536 15.5544C195.586 15.6247 195.614 15.6138 195.583 15.7191C195.548 15.8124 195.478 16.1018 195.41 16.1733C195.361 16.2254 195.295 16.1878 195.212 16.1261C194.724 15.7676 194.332 15.2529 193.86 14.9525C193.589 14.7878 193.158 14.6291 192.888 14.4802C192.638 14.3445 192.289 13.9594 192.114 13.7632C191.892 13.3708 192.129 12.741 192.055 12.3365C192.013 12.0362 191.782 11.708 191.669 11.4391C191.641 11.2901 191.712 10.446 191.761 10.3358L191.76 10.3346ZM194.129 29.5427C194.324 29.843 194.669 30.2257 194.267 30.5237C194.234 30.5285 194.168 30.537 194.134 30.5418C193.632 30.2887 193.245 29.9242 192.846 29.4385C192.528 29.0994 192.241 28.6682 191.825 28.4902C191.536 28.4006 191.315 28.363 191.145 28.1269C191.079 28.0554 191.043 28.0155 191.042 27.9379C191.044 27.7054 191.037 26.9146 191.045 26.894L191.062 26.877C191.157 26.8443 191.474 26.6772 191.563 26.7063C192.677 27.33 193.442 28.4999 194.128 29.5414L194.129 29.5427ZM165.787 3.41071C165.794 3.22905 165.823 3.05949 165.913 2.93475C166.254 2.51208 167.063 2.62713 167.575 2.66952C169.516 2.86087 171.524 2.7652 173.481 2.87662C176.558 2.87783 179.655 2.74703 182.571 3.80069C184.295 4.39292 185.648 5.60886 186.969 6.88173C187.398 7.2935 187.827 7.7077 188.263 8.10615C188.669 8.53609 188.939 9.10895 189.298 9.57764C190.062 10.9426 190.422 12.6684 190.584 14.2852C190.611 14.5274 190.606 14.7648 190.716 14.8823L190.751 14.9222C190.902 15.047 191.07 15.2238 191.078 15.466C191.182 17.0719 191.37 18.7578 191.261 20.4279C191.216 20.7367 191.084 20.9753 191.059 21.2769C191.035 21.6608 191.125 22.1295 191.039 22.4383C190.906 22.7871 190.56 23.0693 190.561 23.5005C190.092 26.349 187.911 29.0267 185.321 30.1918C185.055 30.3056 184.817 30.4655 184.594 30.6484C183.718 31.3751 182.384 31.4526 181.269 31.7469C180.913 31.8486 180.714 32.1756 180.36 32.2071C180.129 32.2337 179.837 32.2119 179.55 32.1998C178.352 32.1041 177.328 32.5983 176.156 32.7448C174.58 33.0076 172.931 33.1832 171.382 33.2135C169.94 33.2438 168.489 33.1699 167.045 33.1869C166.461 33.2729 165.928 32.7969 165.985 32.2059C165.798 26.8492 166.461 21.5155 166.112 16.0861C165.441 11.8969 165.887 7.6314 165.789 3.41071H165.787Z" fill="var(--fill-0, white)"/>
<path id="Vector_11" d="M172.035 17.2831C172.095 19.7658 171.994 22.2789 172.025 24.7677C172.046 25.2085 171.936 25.4713 171.706 25.9122C171.547 26.2186 171.465 26.4245 171.585 26.6037C171.718 26.7987 171.957 27.0591 172.174 27.1366C172.444 27.2008 172.775 27.2832 173.032 27.3013C173.249 27.3122 173.455 27.1705 173.715 27.1439C174.842 27.1015 175.901 26.8217 176.979 26.5347C177.874 26.2997 178.752 26.1241 179.631 25.7959C179.828 25.7208 180.008 25.6397 180.153 25.5561C180.426 25.4278 180.482 25.1879 180.606 25.045L180.642 25.0099C182.346 24.282 183.139 22.3298 183.681 20.7069C183.765 20.4525 183.933 20.2454 184.056 20.0565C184.241 19.7961 184.15 19.4183 184.268 19.1155C184.575 18.2556 184.4 17.1014 184.26 16.2452C184.208 15.9545 184.017 15.7559 183.861 15.5137C183.58 15.0147 183.627 14.2456 183.308 13.7733C182.555 12.6603 181.115 11.2906 180.109 10.5833C179.807 10.3411 179.48 10.318 179.118 10.2127C178.337 9.87356 177.728 9.56959 176.923 9.28498C175.733 8.28945 173.98 8.95919 172.751 8.11747C171.924 7.80259 171.139 8.29671 171.188 9.23411C171.274 10.0032 171.627 10.4973 171.665 11.2591C171.948 13.1859 171.982 15.309 172.034 17.2819L172.035 17.2831ZM179.734 15.6614C179.749 15.4228 179.944 15.2242 180.18 15.2048C180.594 15.2315 181.218 15.0752 181.627 15.2097C181.759 15.263 181.857 15.4313 182.01 15.5185C182.118 15.5827 182.233 15.5839 182.291 15.6239L182.321 15.6529C182.367 15.7208 182.359 15.8697 182.433 16.0054C182.559 16.2331 182.761 16.4341 182.755 16.6412C182.738 16.9004 182.949 17.0651 182.978 17.3158C182.996 17.5277 182.993 17.8208 182.983 18.0521C182.99 18.2919 182.841 18.4179 182.78 18.6238C182.754 18.7631 182.766 18.9169 182.752 19.0586C182.722 19.3068 182.427 19.5721 182.324 19.8421C182.022 20.57 181.729 21.247 181.195 21.9143C180.924 22.245 180.506 22.7851 180.043 22.664C179.973 22.6289 179.935 22.5514 179.925 22.4533C179.902 21.8477 179.961 21.2143 179.934 20.6051C179.925 20.3666 179.763 20.2164 179.725 19.9935C179.646 18.5765 179.768 17.0784 179.736 15.6614H179.734ZM175.648 24.9748C175.566 25.1516 175.304 25.4677 175.127 25.5125C174.919 25.4847 174.508 25.1104 174.312 24.8767C174.196 24.7701 174.311 24.5303 174.255 24.3995C174.232 24.3402 174.156 24.2978 174.106 24.2457C173.926 24.0374 174.165 23.5469 174.347 23.49L174.395 23.4755C174.694 23.3846 174.871 23.5881 175.08 23.7915C175.474 24.1549 175.852 24.471 175.648 24.9736V24.9748ZM177.706 15.2157L177.732 15.2048C178.006 15.3041 178.234 15.5137 178.251 15.8068C178.286 15.9751 178.244 16.2161 178.354 16.3639C178.494 16.4486 178.574 16.6364 178.545 16.8047C178.491 17.2734 177.856 17.2576 177.617 16.9464C177.198 16.3917 177.858 15.7959 177.705 15.217L177.706 15.2157ZM177.877 24.0992L177.855 24.1343C177.603 24.2808 177.235 23.9284 177.097 23.7891C176.272 23.4754 175.573 22.8784 174.825 22.3964C174.558 22.1614 174.18 22.1214 174.035 21.9797C173.907 21.6976 173.847 21.2894 173.805 20.9588C173.772 20.6451 173.817 19.7768 174.271 19.893C174.913 20.3012 175.531 20.8244 175.836 21.5389C176.496 22.3842 177.355 23.1824 177.875 24.1004L177.877 24.0992ZM173.916 17.8184C174.421 17.7748 175.361 19.1688 175.28 19.2414L175.273 19.2451C175.028 19.1809 174.568 19.1082 174.35 19.0271C174.048 18.8127 173.807 18.4809 173.835 18.0945C173.839 17.9916 173.839 17.8269 173.916 17.8184ZM173.876 15.6227C174.378 15.5439 174.766 16.0756 175.116 16.3627C175.172 16.4147 175.244 16.4172 175.313 16.4111C175.847 16.6339 176.027 17.3461 176.296 17.8087V17.8366C176.152 17.9589 175.664 17.6513 175.213 17.254C174.679 16.749 174.076 16.3069 173.876 15.6215V15.6227ZM173.839 11.4189C173.896 11.3729 173.954 11.3632 174.007 11.3983C174.412 11.8368 174.889 12.3006 175.35 12.7112C175.93 13.2332 176.445 13.7418 176.871 14.3098C176.909 14.3752 176.928 14.5024 176.896 14.5617L176.858 14.5993C176.376 14.6174 176.127 15.3538 175.613 15.2291C175.207 15.0595 174.914 14.529 174.496 14.4055C174.303 14.4031 174.165 14.4576 174.011 14.2687C173.896 14.1524 173.746 14.0095 173.692 13.9308C173.62 13.8363 173.674 13.6849 173.655 13.5517C173.637 13.4173 173.468 13.3434 173.444 13.198C173.342 12.5913 173.382 11.8174 173.84 11.4213L173.839 11.4189Z" fill="var(--fill-0, white)"/>
</g>
</g>
</svg>
