<svg preserveAspectRatio="none" width="100%" height="100%" overflow="visible" style="display: block;" viewBox="0 0 146.357 39.442" fill="none" xmlns="http://www.w3.org/2000/svg">
<g id="Group">
<path id="Vector" d="M64.19 1.16212C63.1194 1.24127 61.1949 0.634834 60.9971 2.01881C60.9818 2.33424 60.99 2.66714 61.1467 2.94417C61.3728 3.28289 61.6072 3.64954 61.6743 4.0581C61.8356 4.8368 61.7144 5.78079 61.8098 6.58976C61.9181 7.66527 62.1643 8.88745 62.1925 10.0014C62.4434 16.2985 61.9888 22.7772 62.1607 29.0988C62.262 29.8344 61.7096 30.4735 61.4505 31.0962C61.1844 31.9878 61.5424 32.7199 62.3256 33.2088C63.7743 34.2063 65.2971 35.6776 66.2959 36.9731C66.7163 37.3549 67.0096 37.9276 67.3276 38.3687C67.6091 38.6772 67.9883 38.8192 68.4053 38.8704C70.2861 39.0019 72.1788 38.1732 74.128 38.2803C75.5178 38.6353 75.9759 38.6318 76.8369 37.4771C77.1419 37.263 77.2821 37.7123 77.3775 37.9648C77.7449 38.91 78.9957 38.7121 79.8048 38.5561C80.9143 38.3431 82.1451 38.1744 83.324 38.3164C84.5513 38.3559 86.5111 38.4956 87.8137 38.0242C87.9868 37.9253 88.2035 37.767 88.4768 37.7227C88.8701 37.6215 89.2847 38.1557 89.5956 37.8054C90.002 37.391 90.0797 36.7671 89.9878 36.2084C89.7806 34.7115 90.1987 33.3857 90.2222 31.84C90.234 30.8296 90.0491 29.9171 90.0138 29.0278C89.9725 28.1548 90.0373 27.2271 89.9018 26.3646C89.8477 25.9351 89.5014 25.679 89.3507 25.2437C88.73 22.7074 87.5817 20.2456 85.7149 18.3879C84.5136 17.317 84.1803 16.891 85.086 15.4174C86.3203 12.6494 88.008 9.98276 89.4402 7.2928C89.7381 6.82837 90.2905 6.29061 90.5143 5.7319C90.6062 5.35244 90.7628 4.9404 90.6285 4.57491C90.4177 3.90329 89.7511 4.22804 89.2423 4.21407C88.7312 4.18614 88.3884 3.62044 87.9409 3.36204C87.1753 2.95581 86.6076 2.14801 86.2072 1.44264L86.1648 1.40306C84.8798 0.469548 83.4571 1.45195 81.9896 1.36931C81.3713 1.36349 80.6705 1.03059 80.0922 0.959584C78.7272 0.858318 76.2574 0.835038 75.2975 0.949108C74.8806 1.02942 74.3483 1.41004 74.4825 1.90008C74.7287 2.45297 74.552 3.47145 73.8171 3.48775C73.5238 3.4959 73.2894 3.25262 73.1222 3.02216C72.4473 2.04791 71.7242 1.03408 70.603 0.597586C70.1719 0.4905 69.7491 0.609226 69.4134 0.886253C69.0565 1.10392 68.5748 1.27037 68.1767 1.2855C66.84 1.10275 65.5468 0.765199 64.1912 1.16444L64.19 1.16212ZM85.378 3.50754C85.7149 3.52732 86.1283 3.40161 86.4345 3.55526C86.7183 3.67282 86.8844 3.82647 87.1129 4.04646C87.5475 4.46666 88.0669 4.9532 88.3743 5.32567C88.4049 5.37223 88.3931 5.4863 88.4414 5.57942C88.525 5.69465 88.4085 6.14744 88.3884 6.20564L88.3578 6.22077C87.9774 6.27432 87.6453 6.18469 87.3249 5.97168C86.9468 5.76566 86.5452 5.62598 86.2131 5.35477C86.0694 5.2279 86.0717 5.03235 85.9634 4.89384C85.7114 4.5784 85.3227 4.39333 85.219 4.02085C85.1755 3.8544 85.1401 3.53547 85.378 3.50754ZM71.0611 34.573C70.7513 34.6906 70.6124 34.3367 70.3968 34.211C70.1389 34.2343 69.9917 34.0224 69.8233 33.8537C69.676 33.6569 69.391 33.4579 69.2874 33.2659C69.2733 32.983 69.7879 32.5977 70.1295 32.6303C70.259 32.6373 70.3179 32.7642 70.4275 32.8224C70.4805 32.8596 70.6159 32.8503 70.6654 32.841L70.6972 32.8585C70.6383 33.3694 70.7843 33.9095 71.001 34.3763C71.0199 34.4415 71.1 34.5334 71.0611 34.5742V34.573ZM75.1868 34.7895C75.0573 34.8174 74.89 34.7616 74.7911 34.6661C74.2635 34.1388 73.6145 33.5766 73.1422 32.997C73.0127 32.8817 73.0009 32.5675 73.0563 32.4487C73.1116 32.4953 73.6063 32.9073 74.0715 33.2961C74.3801 33.5534 74.6286 33.7605 74.8712 33.9631C74.9265 34.0143 74.91 33.9747 74.9489 34.0795C75.0196 34.2669 75.2116 34.772 75.2139 34.779L75.188 34.7883L75.1868 34.7895ZM81.6622 36.5494C80.5021 36.7403 80.1311 35.2598 79.4821 34.6207C79.2866 34.4089 78.8826 34.1575 78.9486 33.8385C78.9674 33.7908 79.0405 33.8502 79.1535 33.9119C79.3326 34.0143 79.4892 34.1004 79.6211 34.1796C79.8249 34.4019 81.6916 36.511 81.6928 36.5436L81.6622 36.5506V36.5494ZM84.0637 36.5262L84.0401 36.5401C83.1332 35.7626 82.2028 34.9024 81.4408 33.9887C81.3112 33.856 81.2158 33.5894 81.3242 33.4404C81.8306 33.6604 82.2452 34.2238 82.6256 34.6137C82.6951 34.7127 82.6716 34.8291 82.7422 34.9292C83.1332 35.3575 83.6055 35.7649 83.9871 36.2061C84.0554 36.2875 84.086 36.4656 84.0625 36.5262H84.0637ZM80.753 12.405C80.6576 12.2851 80.4832 12.1885 80.5457 12.0803C80.6835 11.8649 81.0133 11.7613 81.2406 11.8754C81.7494 12.2397 82.9495 13.5795 83.4818 14.1824L83.4583 14.1975C83.1897 14.2592 82.9931 13.9554 82.8023 13.8088C82.1604 13.3362 81.2723 13.0359 80.753 12.405ZM81.6975 15.1392L81.6846 15.1578C81.3525 15.1206 80.8154 15.2405 80.5186 15.1287C80.3961 15.0903 80.1817 15.0193 80.0828 14.9844C79.9803 14.9669 79.9285 14.8296 79.8261 14.7807C79.342 14.7993 79.1641 14.1254 79.4232 13.8239C79.667 13.5015 80.2077 13.4491 80.4679 13.8239C80.5692 13.9345 80.6811 14.0613 80.7671 14.1405C80.846 14.2301 80.9814 14.1405 81.0757 14.2348C81.3583 14.4594 81.5656 14.8226 81.6975 15.1392ZM85.2567 21.3909C85.7632 21.5457 86.0965 22.0009 86.5746 22.2022C86.9445 22.52 87.2589 22.9961 87.2095 23.4907L87.1765 23.5198C86.968 23.5652 86.7466 23.5315 86.597 23.379C86.0082 22.8773 85.3922 22.2546 84.881 21.6796C84.7067 21.3525 85.0094 21.3246 85.2579 21.3909H85.2567ZM84.6679 25.9083C84.722 25.7838 84.9552 25.6162 85.0812 25.6395C85.3345 25.7268 85.6077 26.0794 86.0376 26.4717C86.3427 26.7895 86.6076 27.0083 86.802 27.2911C86.8821 27.4774 86.9304 27.879 87.1318 28.0279C87.2272 28.1234 87.4392 28.1525 87.5369 28.1839L87.5781 28.2107C87.6358 28.3259 87.597 28.4889 87.6205 28.6018C87.6641 28.7566 87.8537 28.9556 88.0422 28.9591C88.2542 28.9743 88.4143 28.9033 88.4567 29.1337L88.5062 29.3037C88.5321 29.391 88.5639 29.4992 88.5804 29.5877C88.5863 29.654 88.5086 29.6342 88.3543 29.6191C88.1187 29.5865 87.8714 29.5795 87.7053 29.5388C87.3826 29.2571 84.9647 27.0351 84.8328 26.907C84.7856 26.6719 84.6148 26.1248 84.6667 25.9072L84.6679 25.9083ZM84.861 28.7985C84.9541 28.7519 85.0424 28.8032 85.1272 28.8637C85.3592 28.9719 85.5818 29.1035 85.7102 29.3351C86.411 30.2849 87.5675 31.1649 88.3484 32.1682C88.3896 32.2474 88.4155 32.3731 88.3825 32.4348L88.3437 32.4743C87.9185 32.6198 87.637 32.1962 87.365 31.9389C86.6171 31.1299 83.2852 30.1825 84.861 28.7973V28.7985ZM84.4983 31.6689C84.6137 31.6223 84.9352 31.7899 85.1154 31.8842C85.9834 32.4418 86.7466 33.2565 87.5593 33.8583C87.9303 34.154 88.2294 34.6684 88.1918 35.1387L88.18 35.1643C88.1576 35.1829 88.0316 35.1375 87.8537 35.1038C87.5263 35.0107 87.3685 35.0619 87.193 34.8675C86.7631 34.3018 83.9694 32.1985 84.4983 31.6689ZM84.2674 12.412L84.2556 12.4457C84.0001 12.5389 82.2947 10.886 82.2923 10.6963C82.3135 10.6905 82.9884 10.8255 83.1827 10.8988C83.5855 11.3842 84.5183 11.6182 84.2662 12.412H84.2674ZM71.2919 6.66076C71.3332 6.65494 71.4144 6.64213 71.4557 6.63631C72.167 7.01577 72.644 7.55935 72.4674 8.3462L72.4379 8.37763C72.0363 8.41371 71.5287 8.2042 71.2955 7.8713C71.2648 7.74908 71.2613 7.60358 71.2095 7.48602C71.1082 7.1927 70.9657 6.94477 71.2919 6.66192V6.66076ZM66.2735 2.6846C67.2357 2.69391 68.1791 2.66598 68.4123 2.69973C68.4523 2.7137 68.4794 2.74164 68.5089 2.78354L68.5313 2.8173C68.6255 2.99655 68.8457 3.29336 68.9305 3.51801C69.1013 4.27227 68.9564 6.00195 68.9305 7.21248C68.8669 7.73744 69.0318 8.0878 69.1119 8.59529C69.1355 9.97345 68.9188 11.9208 69.0825 13.1756C69.2226 13.981 69.9846 15.3906 70.9787 14.8296C71.3261 14.5165 71.4498 13.981 71.7348 13.576C72.5545 12.4562 73.0892 11.2399 73.7994 10.027C74.6545 8.55572 75.1432 6.88075 75.5625 5.23837C75.6638 4.50507 76.102 3.95101 76.46 3.33643C76.5589 3.12342 76.7038 2.89063 76.9087 2.73931C77.3822 2.35054 77.9805 2.51932 78.5411 2.49487C78.8108 2.47974 79.0299 2.35752 79.3031 2.3389C79.7483 2.31562 80.0357 2.47276 80.4703 2.48091C81.3265 2.50186 83.1038 2.45181 82.6209 3.77758C82.4442 4.1454 82.0838 4.4457 81.8742 4.7949C81.0074 6.33717 80.117 8.28451 79.4456 9.98974C78.6601 11.6589 77.0088 13.3339 77.0948 15.3219C77.3327 15.7968 77.7025 16.4289 78.2078 16.6396C80.9626 17.7966 82.1945 20.5389 82.4925 23.3499C82.6586 24.11 83.178 24.4033 83.1097 25.2065C83.1026 26.2808 83.1945 28.1956 83.0496 28.8404C82.9118 29.086 82.6727 29.3165 82.6821 29.6354C82.7764 30.4676 82.4454 31.1835 81.5091 31.2976C81.0839 31.3802 80.9084 31.7015 80.5209 31.7282C80.1594 31.7538 79.7483 31.748 79.3761 31.741C79.1889 31.7341 78.9498 31.7294 78.8179 31.6491C78.6624 31.5653 78.4233 31.3779 78.1948 31.3639C78.0264 31.3185 77.7167 31.4873 77.5518 31.5909C77.1219 31.8842 76.3716 31.6968 76.0925 31.2743C75.4082 30.2896 75.8982 28.9021 75.8122 27.7672C75.4813 26.3972 75.3823 24.8724 74.8971 23.5361C74.2717 22.4059 73.3495 21.4701 72.2577 20.7845C71.7018 20.334 71.074 19.9767 70.3497 19.8952C69.775 19.9103 69.2838 20.5575 69.3569 21.0964C69.4122 21.3397 69.6549 21.4724 69.7785 21.6703C69.9552 22.1941 70.1637 22.6946 70.1377 23.2812C70.0836 24.4557 70.0188 25.6243 70.2096 26.7732C70.4534 27.851 70.2861 29.093 70.2602 30.2977C70.2214 31.0368 69.1896 31.0415 68.5925 31.1497C67.6173 31.1393 64.2878 31.5816 63.8567 30.5189C63.7248 30.2011 63.5811 29.6738 63.6482 29.3258C63.7766 28.6111 63.8661 27.8848 63.8755 27.155C63.8885 26.5869 63.8708 26.034 63.8284 25.4777C63.5646 22.9833 63.9815 20.1606 63.7931 17.5673C63.5658 14.0183 64.2795 9.92572 63.4398 6.28712C63.3467 5.44091 63.4292 4.52253 63.4221 3.63907C63.4245 3.21771 63.6741 2.73698 64.0864 2.68926C64.4173 2.68577 65.3489 2.68926 66.2723 2.68809L66.2735 2.6846Z" fill="var(--fill-0, white)"/>
<path id="Vector_2" d="M95.945 3.22014C96.0875 3.31093 96.2406 3.35865 96.3949 3.40637C97.0474 3.638 97.3548 4.23047 97.2417 4.93002C97.6021 11.1084 97.1345 17.373 97.2076 23.5421C97.2205 24.8911 96.9579 26.2099 97.0403 27.5566C97.0792 28.3249 97.0309 29.2619 97.0191 30.0801C96.8201 30.6796 96.6116 31.3058 96.2312 31.8412C96.084 32.0356 95.8885 32.2102 95.726 32.3755C95.4374 32.6397 95.3797 33.2124 95.534 33.586C95.6694 33.8503 95.9768 33.9888 96.2335 34.1261C98.5161 34.9549 99.9235 36.9639 101.649 38.5423C101.89 38.7239 102.169 38.7844 102.476 38.7844C103.323 38.796 104.229 38.7052 105.07 38.7204C106.795 38.9508 108.521 38.5399 110.254 38.5516C112.901 38.7727 115.642 38.1663 118.298 38.3188C118.591 38.3141 118.785 38.4305 118.996 38.4375C119.446 38.455 119.8 37.9265 119.706 37.4807C119.615 35.6451 120.022 33.685 119.635 31.9379C119.54 31.6492 119.539 31.3244 119.617 31.0288C119.718 30.6016 119.619 30.2093 119.453 29.9009C119.007 29.1618 118.052 28.8277 117.468 28.2783C117.206 27.9535 115.88 27.1132 116.75 26.8315C117.241 26.7535 118.066 26.4346 118.297 26.026C118.707 24.3894 117.829 22.6365 117.74 21.0046C117.727 20.5914 117.694 20.0804 117.771 19.7393C117.834 19.4227 118.146 19.1329 118.274 18.8524C118.453 18.4089 118.104 17.9957 117.788 17.6675C117.326 17.2042 116.885 17.0878 116.472 16.6234C116.161 16.2579 114.953 15.4489 115.565 15.0404C115.826 14.988 116.544 14.9344 117.267 14.8518C118.122 14.7098 118.838 14.8087 119.12 14.5608L119.142 14.527C119.456 14.0021 119.379 13.1652 119.331 12.5459C119.174 10.8663 118.876 8.35329 119.246 6.60848C119.314 6.20458 119.604 5.84375 119.471 5.43053C119.267 5.05224 118.864 4.72865 118.536 4.4493C118.181 4.18624 117.669 4.09661 117.279 3.84054C116.347 3.26087 115.488 2.15509 114.57 1.25068C114.138 0.808369 113.968 0.594196 113.352 0.660543C112.775 0.757153 112.138 1.21576 111.469 1.0237C109.953 0.72107 108.356 0.719906 106.858 0.768793C104.414 1.0691 101.786 0.963178 99.2675 1.00508C98.5384 1.04582 97.84 1.06095 97.1628 1.22624C96.7812 1.3601 96.4338 1.47999 96.0051 1.44274C95.6329 1.41131 95.2678 1.71162 95.1783 2.07711C95.0393 2.53106 95.5457 2.94893 95.9485 3.21897L95.945 3.22014ZM102.483 36.7951C101.82 36.2888 101.197 35.3902 100.567 34.9002C100.379 34.7756 100.186 34.8152 100.035 34.565C100.014 34.5102 100.085 33.8805 100.133 33.9108C100.299 34.0668 100.618 34.3124 100.767 34.5114C100.83 34.6034 100.802 34.7745 100.814 34.828L100.836 34.8501C100.91 34.8594 101.118 34.835 101.179 34.9083C101.725 35.3716 102.206 35.9536 102.712 36.4692C102.881 36.6811 102.76 36.9441 102.483 36.7951ZM106.174 34.9782C106.14 35.1341 106.156 35.2319 106.089 35.2459C106.003 35.254 105.898 35.2587 105.812 35.261C105.717 35.268 105.603 35.2692 105.507 35.2633C105.072 35.2214 104.701 34.6557 104.228 34.9083C104.053 35.0154 104.033 35.0748 103.848 35.2319C103.741 35.2761 103.54 35.2657 103.416 35.2203C102.997 34.9549 101.643 34.1715 102.869 33.9073C103.126 33.8805 103.503 33.8142 103.708 33.9446C103.8 34.0319 103.889 34.1168 104.023 34.1005C104.514 34.1308 105.499 33.586 106.06 34.0656C106.134 34.0959 106.222 34.097 106.271 34.097L106.307 34.1005C106.312 34.3147 106.202 34.7361 106.174 34.9782ZM109.059 35.4472C108.558 35.4065 108.2 34.8199 107.672 34.8583C107.597 34.8629 107.573 34.8606 107.547 34.8175C107.416 34.6709 106.978 34.182 106.909 34.104C107.224 34.0772 107.599 34.026 107.882 34.182C108.255 34.4055 108.744 35.034 109.071 35.4356L109.059 35.4472ZM114.177 37.1362L114.147 37.1699C113.889 37.2188 113.529 37.2433 113.269 37.1793C112.952 37.057 112.39 36.4494 111.982 36.0688C111.811 35.8605 111.629 35.8709 111.408 35.7359C110.944 35.3425 110.49 34.7687 109.899 34.686C109.711 34.6592 109.647 34.5149 109.549 34.3543C109.145 33.8002 110.659 33.8538 110.877 33.8887C111.132 33.9155 111.474 34.31 111.733 34.4742C112.076 34.686 112.608 34.8164 112.86 35.1854C112.945 35.3076 112.985 35.4694 113.092 35.5799C113.615 35.9757 114.296 36.4297 114.177 37.1362ZM114.781 17.8665C114.745 18.1819 114.557 18.4392 114.229 18.367C114.007 18.3216 113.885 18.1202 113.697 18.0225C113.464 17.9782 113.206 17.7711 113.097 17.5511C112.971 17.3369 112.912 17.0994 112.835 16.8503C112.779 16.6967 112.785 16.6874 112.884 16.5419C112.97 16.401 113.077 16.2288 113.083 16.2183L113.112 16.209C113.94 16.1031 114.743 16.5326 114.96 17.3939C114.973 17.5476 114.792 17.6535 114.779 17.8653L114.781 17.8665ZM111.839 24.7491C111.739 24.4255 111.274 24.1648 111.231 23.8098L111.237 23.7853C111.615 23.655 112.682 24.6874 113.089 24.9924C113.756 25.4394 113.878 26.0551 112.911 26.1226C111.333 26.2483 112.011 25.5569 111.838 24.7491H111.839ZM117.3 29.8939C117.377 30.2384 117.31 31.0043 117.327 31.3745L117.319 31.3791C117.038 31.2662 116.69 30.8682 116.377 30.7913C116.297 30.782 116.196 30.8076 116.114 30.7937C116.008 30.7843 115.943 30.6598 115.842 30.6202C115.749 30.59 115.607 30.5841 115.509 30.4677C115.3 30.2536 115.404 30.0324 115.364 29.7926C115.324 29.6506 115.185 29.5796 115.154 29.4306C115.114 29.199 115.202 29 115.276 28.7928C115.324 28.6915 115.322 28.5367 115.396 28.4843C116.217 28.482 116.75 29.4178 117.301 29.8939H117.3ZM115.627 18.53C115.867 18.5463 116.081 18.7721 116.322 18.7418L116.346 18.7453C116.346 18.9036 116.346 19.2994 116.346 19.4914C116.336 19.6579 116.373 19.7254 116.311 19.7149H115.839C115.611 19.7114 115.68 19.7463 115.561 19.5857C115.491 19.4902 115.392 19.3529 115.311 19.24C115.204 19.077 115.15 19.0642 115.159 18.9618C115.193 18.7488 115.369 18.5055 115.628 18.53H115.627ZM117.118 9.61621C116.498 9.14479 115.455 8.41731 114.726 7.78643C114.524 7.5967 114.399 7.48961 114.361 7.3511C114.322 7.20211 114.319 6.98794 114.23 6.84128C114.167 6.76562 114.09 6.67948 114.018 6.61197C113.954 6.54097 114.058 6.45134 114.137 6.29421C114.25 6.11146 114.326 5.94268 114.369 5.91824L114.409 5.90427C114.594 5.85655 114.755 6.00554 114.884 6.12427C115.131 6.31981 115.753 6.89948 116.345 7.47797C116.8 7.95986 117.25 8.29858 117.561 8.79793C117.767 9.24722 117.755 9.73493 117.118 9.61621ZM113.987 4.18973C113.99 4.08264 113.974 4 114.06 3.98021C114.144 3.95577 114.306 3.99069 114.345 3.9418C114.408 3.89059 114.334 3.66361 114.427 3.60076C114.509 3.53557 114.704 3.54605 114.818 3.56118C115.285 3.63917 115.495 4.07915 115.845 4.35152C116.442 4.82643 117.313 5.11509 117.65 5.93337C117.745 6.14522 117.796 6.41759 117.605 6.58287C117.49 6.67134 117.314 6.63874 117.135 6.60499C116.655 6.52817 116.562 6.50954 116.148 6.14522C115.76 5.85771 115.476 5.48175 114.98 5.51783C114.82 5.51434 114.544 5.56788 114.416 5.52132L114.395 5.48524C114.381 5.43985 114.392 5.35837 114.361 5.28154C114.29 5.08716 113.991 4.96843 113.974 4.78336C113.946 4.61924 113.983 4.39343 113.988 4.19089L113.987 4.18973ZM113.686 12.5262C113.767 12.5937 113.815 12.6298 113.836 12.6914C113.897 12.8963 114.186 13.7658 114.199 13.8671C114.079 13.8892 113.806 13.6261 113.709 13.5214C113.52 13.3316 113.548 13.1803 113.315 13.0383C112.325 12.4808 111.325 11.7533 110.66 10.8605C111.092 10.232 111.99 10.729 112.568 10.7802L112.588 10.8198C112.568 11.0037 112.595 11.2609 112.768 11.3889C113.138 11.7102 113.29 12.2165 113.686 12.5273V12.5262ZM99.0425 11.2667C99.2251 9.74541 99.4818 7.28126 99.0791 5.62026C98.9837 5.30599 98.7021 5.1407 98.648 4.82526C98.5797 4.25841 98.5785 3.66128 98.9872 3.23061C99.1686 2.90353 99.7904 3.06649 99.8623 2.64979C99.8799 2.60555 99.9035 2.5718 99.9377 2.55783C100.41 2.43794 102.608 2.54503 104.519 2.59973C105.9 2.59857 106.696 2.78248 107.786 2.43212C107.942 2.4263 108.103 2.41699 108.257 2.44958C109.017 2.60323 109.757 2.45191 110.338 2.56481C110.662 2.64397 110.879 2.97337 111.234 2.97686C111.737 2.95708 112.23 3.02691 112.592 3.37844C112.721 3.50647 112.771 3.60774 112.804 3.75091C112.771 4.33174 112.891 7.67934 112.759 8.34048C112.368 8.79327 111.559 8.5628 110.998 8.63148C108.88 8.59772 106.594 8.13213 104.483 8.25551C103.964 8.34398 103.55 8.86893 103.551 9.36711C103.549 9.88974 104.255 10.2017 104.289 10.7255C104.313 10.8454 104.321 10.9769 104.327 11.098C104.317 11.5356 104.558 11.858 104.563 12.305C104.572 12.866 104.443 13.4597 104.252 13.9718C104.163 14.2291 104.176 14.4898 104.298 14.7377C104.543 15.2371 105.077 15.4792 105.618 15.4559C106.267 15.5013 106.804 15.1893 107.436 15.0566C108.4 14.8995 109.295 15.2557 110.215 15.2347C110.874 15.1556 111.415 15.6317 111.449 16.273C111.59 16.7526 111.66 16.8678 111.627 17.4323C111.586 18.2716 111.708 19.403 111.578 20.2177L111.554 20.2515C110.952 20.7439 109.993 20.3539 109.203 20.5227C108.209 20.6507 107.139 20.5786 106.069 20.4726C104.549 20.2957 104.896 21.6681 104.97 22.6586C105.099 23.9716 105.189 25.0389 104.982 26.3682C104.947 26.6953 104.864 27.0817 104.996 27.3797C105.159 27.6358 105.483 27.8278 105.745 27.8895C106.157 27.8919 107.966 27.8895 109.635 27.8895C110.613 27.8872 111.338 27.8919 112.161 27.8895C112.694 27.8895 112.659 27.85 113.123 28.1654C113.216 28.2329 113.275 28.3062 113.33 28.4028C113.672 29.0617 113.648 29.8066 113.635 30.59C113.624 31.2581 113.676 31.5363 113.153 31.8808C112.407 32.4337 111.472 32.1765 110.5 32.2009C107.473 31.9972 104.189 31.8319 101.022 32.1404C100.522 32.1811 100.001 32.2102 99.5077 32.1334C99.145 32.0193 98.7081 31.6969 98.6362 31.3105C98.5973 30.8623 98.5997 29.5086 98.6303 29C98.6244 28.6973 98.9589 28.5146 99.039 28.326C99.0449 27.233 99.0331 15.6328 99.0414 11.2632L99.0425 11.2667ZM108.478 13.0662L108.435 13.1093C107.833 13.3107 107.479 12.7776 107.064 12.3923C106.634 12.2782 106.266 11.8801 106.056 11.5507C105.915 11.2958 105.793 10.8768 105.956 10.6137C106.215 10.4543 106.429 10.8093 106.609 10.9583C107.213 11.4832 107.924 11.9709 108.386 12.5576C108.499 12.6903 108.538 12.8998 108.476 13.0651L108.478 13.0662ZM110.833 25.8712L110.794 25.9061C110.122 25.9655 109.725 25.1297 109.18 24.8655C109.041 24.7759 108.831 24.8003 108.725 24.706C108.557 24.3522 108.376 24.0961 107.965 23.9553C107.421 23.7446 106.616 23.4129 106.711 22.7273C106.808 22.5806 106.98 22.6283 107.151 22.6086C107.28 22.6027 107.408 22.5911 107.513 22.6179C108.482 23.1358 109.713 24.1776 110.513 25.1123C110.713 25.3323 110.962 25.5779 110.833 25.8724V25.8712Z" fill="var(--fill-0, white)"/>
<path id="Vector_3" d="M24.8209 7.08324C24.8032 6.81203 24.6878 6.7387 24.4499 6.47797C23.1355 5.13473 21.5219 3.57267 19.9638 2.45292C19.3961 1.96173 18.7813 1.41815 18.0876 1.16789C17.5329 1.02938 16.6401 1.18884 15.9723 1.15276C13.0444 0.543998 9.96805 0.793089 7.0413 1.12599C6.11322 1.2645 5.20045 1.37974 4.27472 1.22493C3.22062 1.01192 2.08878 0.98631 1.09003 0.661559C0.549436 0.564949 0.176092 1.1353 0.214958 1.64629C0.181981 3.19322 0.280914 4.76924 0.23027 6.31617C-0.199616 7.7339 0.0736225 9.25057 0.240866 10.6439C0.299754 11.1502 0.885109 11.2829 1.31971 11.2875C1.7225 11.2433 2.06641 11.1118 2.44918 11.0221C2.63173 10.9511 2.79427 10.7893 2.98743 10.7568C3.28305 10.73 3.667 10.9663 3.85073 11.1688C3.91079 11.2514 3.93906 11.3772 3.95791 11.4784C3.98853 11.8288 4.26884 11.8777 4.35246 12.1931C4.44668 13.6225 4.47495 15.0786 4.72228 16.4929C5.16394 18.8196 4.76703 21.4945 4.92249 23.7538C5.02143 24.7338 4.93781 25.7453 4.82828 26.7207C4.63042 28.6087 4.78234 30.5176 4.75878 32.4126C4.75996 32.749 4.95312 33.0214 5.18867 33.2472C5.6374 33.8175 6.49128 34.0969 7.10136 34.5625C7.25801 34.6952 7.33456 34.8581 7.42525 35.0397C7.75149 35.7812 8.52057 36.2747 9.08944 36.916C9.62297 37.7937 9.8114 38.3501 10.9833 38.385C12.6463 38.9367 14.4742 38.0719 16.242 38.4211C17.4104 38.5968 18.4763 38.8273 19.6799 38.7738C20.5574 38.7866 20.8165 38.4153 20.4879 37.6715C20.0992 36.6216 19.9273 35.8091 20.1993 34.7138C20.2629 34.4391 20.3053 34.2307 20.2617 33.9444C20.1852 33.2844 19.9756 32.3265 19.9025 31.613C19.7906 30.4432 20.1899 28.2432 19.8731 26.978C19.7942 26.8057 19.5692 26.5636 19.5233 26.3168C19.455 26.0724 19.5386 25.7896 19.6988 25.601C19.8012 25.4671 19.8931 25.3461 19.9249 25.1843C20.0274 24.5325 19.9108 23.2474 19.8978 22.3779C20.3642 20.561 19.7636 18.4355 20.1086 16.5336C20.2288 16.0436 20.8601 15.692 21.3571 15.8957C21.6621 16.0179 22.1132 15.9027 22.4701 16.0121C22.8564 16.1157 23.2957 16.4079 23.689 16.2868C23.9199 16.2205 24.1766 16.1832 24.3227 16.0936L24.3663 16.0599C24.5606 15.8887 24.6006 15.4546 24.5665 15.181C24.4028 14.1358 24.3286 12.8263 24.4028 11.6751C24.5653 10.5403 24.3462 9.47405 24.4028 8.3287C24.4358 7.91315 24.8904 7.50227 24.8174 7.07625L24.8209 7.08324ZM12.5909 11.1758C12.7287 11.8043 12.684 13.1359 12.8371 13.9111C12.949 14.0322 13.2199 14.1579 13.2104 14.4151C13.234 15.4534 13.1704 16.5371 13.2034 17.58C13.2423 19.0466 13.5791 20.5551 13.6121 22.0218C13.7381 24.9445 13.1539 27.7683 13.2293 30.5828C13.1574 30.9355 12.8736 31.4069 12.492 31.5082C11.929 31.5932 11.3083 31.8038 10.6924 31.663C9.45808 31.4733 7.99529 31.7608 6.96474 31.0496C6.7763 30.5107 7.00243 29.5038 6.92588 28.8927C6.65735 27.0187 7.00362 24.7245 6.90351 22.9029C6.83402 21.2489 6.63379 19.3632 6.53015 17.8163C6.43828 17.1074 6.80928 16.2182 6.28988 15.6292C5.54553 14.1323 6.1509 12.1175 5.96246 10.5077C5.87412 10.1364 5.77991 9.81743 5.43012 9.6114C5.17572 9.47987 4.81767 9.31226 4.54208 9.21565C4.16401 9.09227 3.69644 9.19121 3.25007 9.17375C2.74598 9.1656 2.19832 8.76402 2.19832 8.24838C2.19949 7.3719 2.19596 3.71584 2.20067 3.14433C2.21716 3.00582 2.30197 2.9418 2.42799 2.81143C2.76954 2.44128 3.18529 2.67292 3.61282 2.72995C5.23696 2.89756 6.49246 3.03841 8.25676 2.66826C10.5569 2.26087 12.5309 2.57281 14.9983 2.74625C15.5424 2.76138 16.0783 2.67524 16.5588 2.94645C17.1077 3.43067 17.1842 3.91023 17.1972 4.68544C17.229 5.7854 17.2408 7.89919 17.1536 8.51842C17.0158 8.89905 16.7496 9.42866 16.3421 9.54273C15.6425 9.60093 13.4425 9.45776 12.5026 9.59511L12.4661 9.62071C12.3365 9.72314 12.1929 9.86282 12.134 10.0246C12.0916 10.3715 12.4908 10.8324 12.5909 11.1758ZM15.7662 26.5834C15.659 26.4658 15.5754 26.4088 15.5683 26.2924C15.4812 25.8745 15.0171 25.6429 14.963 25.2052C14.7427 24.3241 15.8439 24.728 16.1478 25.1366C16.6896 25.6545 16.7131 26.3273 17.057 26.9209C17.1666 27.1037 17.4174 27.4005 17.3538 27.6077L17.335 27.6321C17.2926 27.6659 17.1889 27.6671 17.0653 27.6124C16.6955 27.4564 16.096 26.9209 15.7674 26.5834H15.7662ZM16.3551 31.507L16.3527 31.5094C16.0866 31.4069 15.5389 31.23 15.2503 31.1055C14.9288 30.9355 14.632 30.4571 14.8711 30.1347C15.1726 29.7355 15.7226 30.0998 15.9523 30.4292C16.05 30.6468 16.2691 31.2894 16.3551 31.507ZM14.8004 13.6458C15.2056 13.5387 15.5884 13.6458 15.8651 13.9763C16.0748 14.2033 16.633 14.7166 16.5588 14.9948L16.5259 14.9995C16.2314 14.9296 15.937 15.0786 15.745 15.3056C15.6578 15.3766 15.5695 15.543 15.4671 15.5628C14.8475 15.202 14.6556 14.2953 14.8004 13.6458ZM17.6106 35.2655C17.2078 35.624 16.9805 35.0211 16.6554 34.8418C16.2856 34.7964 16.0889 34.4298 15.8345 34.1865C15.6072 33.9293 15.3116 33.7058 14.9948 33.6371L14.9736 33.6045C15.023 33.2961 14.7357 32.9608 14.7498 32.6431C14.7604 32.3975 15.129 32.2462 15.3775 32.2683C15.6355 32.3265 16.0983 32.9003 16.4481 33.2286C16.7449 33.5335 17.0358 34.1691 17.3256 34.5858C17.4151 34.7697 17.6306 34.9559 17.713 35.1072C17.6883 35.1468 17.6377 35.2259 17.6118 35.2655H17.6106ZM17.9133 20.6413C17.4775 20.6785 17.1772 20.2839 16.858 20.0698C16.7214 19.979 16.5047 19.9638 16.401 19.8125C16.3233 19.7194 16.3669 19.5227 16.2938 19.4854C16.2138 19.4412 15.8875 19.4959 15.8098 19.4529C15.7415 19.4191 15.8015 19.2259 15.7462 19.106C15.712 19.0082 15.6508 18.9337 15.6084 18.8685C15.4788 18.6939 15.5389 18.4379 15.4199 18.2435C15.3622 18.1282 15.1832 18.0316 15.1903 17.9606C15.2291 17.8512 15.5695 17.4042 15.6319 17.3426C15.9217 17.6231 16.2185 18.0153 16.5011 18.325C16.5742 18.4448 16.54 18.5834 16.6507 18.6951C17.1312 19.2631 17.8638 19.8265 17.9404 20.6098L17.9145 20.6389L17.9133 20.6413ZM18.9049 3.53426H18.9285C19.5162 3.60061 19.9979 4.02663 20.3407 4.48407C20.9955 5.2069 20.5833 5.57937 19.6811 5.48044C19.5574 5.48276 19.5727 5.43737 19.4397 5.32097C19.2665 5.15103 19.0757 4.96363 18.9226 4.81348C18.872 4.61211 18.9226 3.62156 18.9049 3.53426ZM19.1052 6.86208C19.7942 6.67119 20.2511 7.47666 20.482 7.98299L20.4667 8.00627C20.0521 8.06796 19.508 7.91548 19.2171 7.62332C19.1535 7.44407 19.1429 7.05996 19.1052 6.86208ZM22.6526 12.6668C22.6338 12.6738 21.7976 12.4096 21.4925 12.32C21.4089 12.299 21.3747 12.2792 21.3194 12.2129C21.1203 11.9626 20.8377 11.7275 20.5703 11.5366C20.1463 11.2526 19.7223 10.9011 19.3867 10.5356C19.3242 10.4716 19.2936 10.4285 19.2913 10.3459C19.3348 10.084 19.1699 9.98038 19.2277 9.73944C19.2595 9.57881 19.2736 9.39257 19.3054 9.37279C19.3313 9.34951 19.4161 9.38792 19.5445 9.42051C19.8001 9.50781 19.9426 9.47987 20.0804 9.65563C20.8919 10.6695 22.4524 11.3795 22.6656 12.654L22.6538 12.6668H22.6526Z" fill="var(--fill-0, white)"/>
<path id="Vector_4" d="M137.019 39.2532C137.71 39.2183 138.377 38.9506 139.055 38.8272C140.177 38.6526 141.157 38.4128 142.195 37.8145C143.056 37.2686 144.983 36.5132 144.963 35.3387C144.991 34.4646 145.631 33.6405 145.824 32.8397C146.275 31.2985 146.573 29.4292 146.161 27.8124C146.176 27.4516 146.332 27.2118 146.271 26.8882C146.098 26.1619 145.76 25.4216 145.396 24.8024C144.852 23.7839 144.588 22.6583 143.781 21.7853C142.646 20.4025 141.182 19.1652 140.062 17.7871C139.7 17.3354 139.24 16.9385 139.208 16.3263C139.198 15.9107 139.172 15.4219 139.453 15.1099C139.944 14.4965 140.912 14.628 141.554 14.9737C142.413 15.3462 143.244 15.6593 143.919 16.3146C144.185 16.5556 144.697 16.9187 145.028 16.7593L145.071 16.7325C145.909 15.4091 144.799 13.6456 144.755 12.1918C144.574 10.8439 144.388 8.95712 144.522 8.06551C144.559 7.86297 144.678 7.72795 144.794 7.54404C145.02 7.23326 144.987 6.8247 144.775 6.50461C143.686 5.23005 141.825 4.58521 140.511 3.61096C139.698 3.01849 139.033 2.28518 138.138 1.82774C137.319 1.37379 136.442 0.734761 135.529 0.486833C134.915 0.227265 134.363 0.315728 133.72 0.314564C133.492 0.309908 133.302 0.259857 133.089 0.200494C132.772 0.101556 132.381 0.206314 132.066 0.274989C131.789 0.320384 131.517 0.337844 131.257 0.45075C130.269 0.88957 129.215 1.12353 128.339 1.74277C127.97 1.96509 127.613 2.08149 127.362 2.37481C126.489 3.29203 125.674 4.24183 125.077 5.36857C124.472 6.52673 124.213 7.8397 124.243 9.15732C123.977 10.028 124.004 10.8928 124.041 11.7961C124.008 12.2896 124.176 12.7075 124.337 13.1626C124.51 13.8447 124.647 14.415 125.042 14.9982C125.561 15.8444 126.186 16.7407 126.771 17.4984C127.725 18.7741 130.058 20.647 130.668 22.2381C130.766 22.9028 131.142 23.6209 130.713 24.2844C130.144 25.1318 128.503 24.9723 127.7 24.4241C126.945 23.8689 126.028 22.9703 125.574 22.1124C125.278 21.6352 124.692 21.2034 124.12 21.4373C123.974 21.5281 123.934 21.556 123.896 21.7714C124.265 23.1856 124.57 24.7535 124.643 26.2329C124.704 27.4597 124.605 28.5492 124.786 29.7586C124.817 30.0147 124.846 30.2801 124.798 30.5338C124.702 31.1717 123.883 31.2147 124.041 31.9539C124.057 32.1087 124.109 32.2193 124.208 32.3333C124.546 32.7081 125.472 33.6079 125.901 33.9804C126.242 34.2166 126.535 34.34 126.833 34.6601C127.615 35.3783 128.827 36.533 129.673 37.2465C130.124 37.69 130.382 37.669 130.963 37.9542C131.436 38.2009 131.547 38.6898 132.049 38.7678C133.61 39.1182 135.279 39.3696 137.018 39.2567L137.019 39.2532ZM139.805 4.81218C140.544 4.91112 140.934 5.20677 140.789 5.97733C139.806 6.10653 139.724 5.69681 139.805 4.81218ZM139.633 6.79677C139.758 6.5791 140.249 6.45339 140.379 6.62334C140.521 6.77931 140.674 7.03189 140.762 7.1867C140.892 7.41019 141.088 7.61505 140.997 7.89324L140.985 7.9235C140.964 7.90255 140.208 7.8071 140.011 7.707C140.047 7.55103 139.948 7.37992 139.822 7.26585C139.672 7.12268 139.534 6.95856 139.633 6.79793V6.79677ZM140.215 36.4666L140.189 36.4852C139.9 36.505 139.526 36.2583 139.284 36.1023C138.519 35.5622 137.724 35.2852 137.198 34.5845C136.981 34.2562 136.907 33.8151 137.458 33.9396C137.987 34.0327 138.379 34.5286 138.848 34.7032C139.139 34.9104 139.57 35.3341 139.977 35.7834C140.134 35.9696 140.357 36.2792 140.215 36.4655V36.4666ZM142.434 35.3178C142.4 35.4807 142.393 35.6577 142.358 35.6902L142.319 35.7112C142.18 35.7473 141.985 35.7159 141.863 35.6309C140.828 34.9162 139.286 34.4448 138.524 33.332C138.424 33.1563 138.358 33.1004 138.56 32.9782C138.709 32.8757 138.996 32.6662 139.082 32.6138C139.149 32.5743 139.382 32.5871 139.51 32.5964C139.61 32.6709 141.325 34.1468 142.097 34.8056C142.28 34.9616 142.408 35.071 142.448 35.1059C142.472 35.1199 142.461 35.1536 142.434 35.3178ZM142.077 25.7347C142.125 25.6498 142.193 25.5916 142.24 25.5718L142.279 25.5625C143.211 25.8383 143.892 26.4808 144.373 27.3224C144.542 27.618 144.785 27.923 144.737 28.2734C144.711 28.4212 144.589 28.7052 144.372 28.6598C144.19 28.505 143.89 28.6132 143.732 28.4875C143.393 28.214 143.098 28.2687 142.756 27.8823C142.588 27.7181 142.387 27.511 142.27 27.3806C142.124 27.2607 142.196 27.0815 142.058 26.9499C141.84 26.6985 141.923 26.0839 142.078 25.7347H142.077ZM142.023 28.3246C142.434 28.5155 143.198 29.2069 143.635 29.499C143.736 29.577 143.737 29.5654 143.766 29.6259C143.955 29.9984 144.23 30.5443 144.435 30.947C144.488 31.0692 144.543 31.1065 144.503 31.1705C144.211 31.5849 143.666 31.4487 143.28 31.2112C142.749 30.8958 142.221 30.3662 141.605 30.2521L141.584 30.2126C141.577 30.1264 141.551 29.9518 141.467 29.889C141.135 29.4024 141.367 28.4212 142.022 28.3246H142.023ZM141.282 31.018C141.439 31.0937 141.606 31.0169 141.773 31.1321C141.861 31.1891 141.944 31.2951 142.008 31.3882C142.427 32.0365 142.899 32.6371 143.472 33.2098C143.542 33.2924 143.565 33.4542 143.553 33.5264L143.54 33.5567C143.403 33.5485 142.723 33.417 142.593 33.325C142.054 32.9316 138.83 31.2159 140.777 30.826C141.007 30.7852 141.133 30.89 141.285 31.018H141.282ZM139.012 12.6784C138.907 12.7261 138.343 12.7808 138.211 12.768C137.973 12.6842 137.827 12.3897 137.623 12.2512C136.539 11.5062 135.072 10.9871 134.216 9.91856C134.16 9.86502 134.116 9.81963 134.107 9.77307C134.097 9.64736 134.479 9.33541 134.543 9.29234L134.585 9.27721C134.872 9.33075 134.981 9.51001 135.338 9.4553C135.66 9.41689 135.767 9.75677 136.023 9.88015C137.272 10.2247 137.742 10.8369 138.054 12.0289C138.116 12.4386 139.027 12.385 139.012 12.6784ZM132.496 36.6587C132.05 37.3664 130.85 36.1128 131.131 35.7112L131.168 35.6961C131.728 35.5913 132.086 36.1314 132.436 36.4759C132.506 36.5237 132.546 36.5853 132.497 36.6598L132.496 36.6587ZM130.886 33.3832C130.271 33.3192 129.624 33.4333 129.031 33.2855C128.737 33.1795 128.496 32.9246 128.246 32.7721C127.948 32.5778 127.471 32.3729 127.2 32.097C127.001 31.8898 127.041 31.5942 126.846 31.3765C126.786 31.3067 126.714 31.2206 126.651 31.1531C126.435 30.9296 126.441 30.6514 126.367 30.3953C126.025 29.5049 126.289 28.4945 126.295 27.497C126.306 27.0838 126.332 26.6159 126.168 26.2422C126.077 26.0152 126.108 25.6742 126.341 25.5159C126.578 25.3308 126.908 25.5892 127.085 25.7766C127.465 26.2178 127.972 26.3295 128.5 26.5169C129.017 26.7718 129.354 26.8137 129.894 26.8091C130.324 26.8033 130.88 26.8463 131.249 26.7311C131.642 26.5053 131.9 26.4285 132.31 26.2702C132.901 25.8511 133.303 25.112 133.196 24.3996C132.581 22.1788 131.148 20.3292 129.667 18.6088C128.615 17.3343 127.468 16.1342 126.725 14.6478C126.383 13.5886 126.399 12.4514 126.236 11.3805C126.001 10.724 125.937 10.0303 126.056 9.34123C126.141 9.03277 126.282 8.70686 126.294 8.37163C126.414 7.52193 126.527 6.55001 126.853 5.73056C127.304 5.17651 127.679 4.51537 128.3 4.09517C129.51 3.34557 130.589 2.06752 132.1 2.13154C132.385 2.12455 132.64 2.01979 132.902 1.93133C133.431 1.81959 134.11 1.82308 134.649 1.91038C135.133 2.07567 135.662 2.11175 136.108 2.40042C136.345 2.48539 136.594 2.50983 136.784 2.6821C137.005 2.88347 137.35 3.20938 137.504 3.41773C137.772 3.79486 137.887 4.25929 138.032 4.66087C138.002 5.79924 138.107 8.03641 137.992 8.64401L137.969 8.67893C137.719 9.01182 137.175 8.73596 136.873 8.57067C136.358 8.31111 135.634 7.95027 135.099 7.77568C134.905 7.71748 134.707 7.71166 134.51 7.66277C134.216 7.58246 133.966 7.35199 133.732 7.44511C133.18 7.68256 132.299 8.00964 131.719 7.84784C131.581 7.80245 131.396 7.72795 131.222 7.75472C130.635 7.92117 130.523 8.55787 130.555 9.06769C130.562 9.33774 130.401 9.55773 130.413 9.80566C130.469 10.1677 130.567 10.3655 130.574 10.7147C130.81 12.335 132.381 13.5641 133.569 14.6897C134.535 15.5033 135.492 16.9071 136.73 17.4705C137.075 17.6195 137.333 17.7114 137.588 18.0257C138.663 19.4027 139.745 20.9717 140.174 22.5908C140.169 23.0855 140.315 23.4778 140.427 23.9678C140.821 28.4072 137.516 32.9293 132.92 33.2773C132.277 33.5101 131.579 33.3856 130.879 33.3856L130.886 33.3832Z" fill="var(--fill-0, white)"/>
<g id="Group_2">
<path id="Vector_5" d="M33.838 0.539442C33.1808 0.468439 31.7251 0.269399 31.7758 1.29487C31.7864 1.62311 31.996 1.89897 32.1326 2.18997C32.3246 2.65672 32.3505 3.16072 32.3941 3.71478C32.5095 6.9844 31.6062 10.495 30.8748 13.6994C30.1021 17.0179 29.0952 20.3783 28.3826 23.712C27.8008 26.601 27.5487 29.5505 26.9198 32.4337C26.8338 32.8422 26.4487 33.0971 26.5759 33.444C26.6784 33.7245 26.8645 33.9759 27.0364 34.2355C27.4887 34.743 27.8302 35.2784 28.1353 35.8709C28.3508 36.1631 28.8337 36.3772 29.2412 36.8079C29.7735 37.497 30.0904 38.1407 30.8065 38.7029C31.0008 38.8775 31.1633 38.9182 31.3341 38.9659C31.625 39.009 31.9713 39.4268 32.3199 39.442C32.612 39.435 32.8051 39.1859 33.0713 39.0905C33.6237 38.9485 34.4316 38.5178 34.9675 38.6679C35.8591 38.9089 36.8908 38.9694 37.7894 38.9287C38.5844 38.839 39.5902 38.5958 40.3228 38.7622C40.7645 38.8216 41.3216 39.2197 41.7408 38.9322C42.3085 38.4805 41.7609 37.8101 41.649 37.2677C41.5559 36.5798 41.6678 35.4635 42.4911 35.2912C42.9893 35.3424 43.2861 35.8872 43.6912 36.1223C44.2401 36.5239 45.1363 36.9033 45.3236 37.6529C45.4967 38.1663 45.9007 38.7424 46.4437 38.8903C46.8194 38.9822 47.1433 38.7436 47.499 38.6668C48.8699 38.3967 50.7072 38.5911 52.1994 38.5608C53.5397 38.5387 54.8565 38.3199 56.1979 38.4794C56.8375 38.5958 57.9976 38.7145 57.8633 37.7565C57.8139 37.4341 57.5489 37.206 57.4523 36.9057C57.3852 34.1773 56.3805 31.5502 55.5054 28.9697C54.5055 25.7384 53.8648 22.3408 52.8401 19.1119C52.3101 16.2858 51.8119 13.4468 51.0146 10.6696C50.7143 9.28792 50.1678 7.80966 50.3609 6.39193C50.4858 5.98803 50.62 5.47472 50.282 5.10923L50.2431 5.07314C50.1419 4.98003 50.0111 4.89855 49.9016 4.81008C49.6248 4.59009 49.4352 4.16757 49.1867 3.97318C48.7544 3.6624 48.2174 3.51108 47.8052 3.14559C46.5238 2.25398 44.3096 -0.530256 42.6501 0.0889818C42.2308 0.398601 41.8574 0.902604 41.3027 0.942179C40.4064 1.04112 37.8884 1.03297 36.2901 0.98059C35.8602 0.959639 35.5093 0.965459 35.1112 0.909588C34.8285 0.875832 34.2432 0.619757 33.838 0.54177V0.539442ZM38.277 37.3445C38.2123 37.4039 37.9261 37.5482 37.7623 37.6471C37.6658 37.7007 37.6363 37.7274 37.5998 37.6983C37.5256 37.632 37.1228 37.2258 36.9921 37.0989C36.8708 37.0023 37.1358 36.7427 37.1087 36.6438C37.0698 36.5344 37.0133 36.411 36.9403 36.3202C36.6423 36.0304 36.2748 35.9186 36.0063 35.531C35.8179 35.3203 35.64 35.1038 35.3727 35.02C35.2784 34.9921 35.1948 34.9991 35.1736 34.9351C35.1618 34.8443 35.1383 34.4648 35.1948 34.4136C35.4021 34.3275 35.5646 34.3368 35.7554 34.3612C36.2265 34.4322 36.4103 35.0689 36.9073 34.9956L36.9297 35.0177C36.9391 35.091 36.9144 35.2936 36.9956 35.3646C37.336 35.7894 37.8731 36.3097 38.224 36.7229C38.2841 36.7974 38.3112 36.823 38.3194 36.9161C38.3171 37.0442 38.3324 37.2805 38.277 37.3457V37.3445ZM50.5129 28.4982C50.4316 28.2317 50.3692 27.7254 50.3056 27.4402C51.2749 27.1911 51.978 28.3039 51.8814 29.1443L51.8555 29.1699C51.342 29.2234 50.8261 28.88 50.5129 28.4994V28.4982ZM53.9343 33.7909C53.217 33.1681 52.402 32.6117 51.7354 31.8517C51.5858 31.641 51.554 31.0346 51.4845 30.7482C51.4833 30.7051 51.5434 30.7133 51.673 30.7121C51.8379 30.7156 52.0204 30.704 52.0498 30.7191L52.0651 30.7412C52.0651 30.8087 52.051 31.0194 52.1335 31.1079C52.6399 31.8424 53.5327 32.4185 54.0214 33.1739C54.1463 33.3974 54.4914 34.0225 53.9331 33.7909H53.9343ZM52.9638 26.2564C53.4596 26.6533 53.9849 27.3052 53.8318 27.9593L53.7988 27.9931C52.5587 28.2561 51.8367 26.3263 50.8721 25.7803C50.6554 25.6104 50.3798 25.5487 50.1501 25.4102C49.6284 24.9912 49.1949 24.1217 49.7532 23.5909C50.0394 23.3907 50.2644 23.8004 50.4599 23.9564C51.3137 24.7374 52.1052 25.5545 52.9638 26.2564ZM51.9862 21.9939C52.263 22.4327 52.654 23.3721 52.6599 23.9273L52.6446 23.9459C52.6117 23.9645 52.4951 23.925 52.3255 23.89C51.9815 23.8016 51.8155 23.8318 51.6212 23.5921C50.9333 22.8273 50.1701 22.236 49.427 21.611C48.9476 21.1454 48.8828 20.5506 48.9135 19.8499C48.9194 19.6892 48.9794 19.6241 49.1184 19.7242C49.977 20.355 50.4752 21.4981 51.5611 21.7169C51.7566 21.7704 51.872 21.8065 51.9862 21.9939ZM51.4786 19.6113L51.4421 19.6462C51.1383 19.7265 50.792 19.6322 50.5435 19.4157C49.56 18.5218 47.9724 17.9479 47.93 16.4953C47.9312 16.2927 48.0101 16.3498 48.1821 16.3847C48.4164 16.4534 48.6861 16.4569 48.9005 16.5779C49.2315 16.7991 49.4599 17.3205 49.6837 17.5778C50.0853 17.899 50.5576 18.2983 50.9557 18.6766C51.2537 18.9036 51.6176 19.2074 51.4798 19.6113H51.4786ZM50.7519 15.6083C50.8721 15.8469 50.9274 15.9645 50.7767 16.2264C50.4646 17.2635 49.202 15.3883 48.8122 15.1218C48.6237 14.96 48.3305 14.8564 48.0725 14.8436C47.8193 14.8331 47.5837 14.8122 47.4436 14.5794C47.1162 14.1778 47.128 14.0381 47.1268 13.5865C47.0856 13.4526 46.9796 13.3572 46.9348 13.2233C46.8583 12.9731 46.9866 12.568 47.2127 12.4691L47.2657 12.4621C47.8358 12.6867 48.2139 13.2408 48.6591 13.6435C48.9229 13.8624 49.1007 13.7983 49.321 14.0626C49.752 14.5153 50.4952 15.0135 50.7531 15.6072L50.7519 15.6083ZM49.719 12.6344L49.6896 12.6576C49.0206 12.3306 48.6661 11.51 48.0372 11.1026C47.4872 10.6765 46.6156 10.9734 46.2517 10.3402C46.0079 9.94789 45.8831 9.31701 46.3153 9.00623C46.406 8.94454 46.5026 8.95502 46.5779 9.02486C46.8382 9.27628 47.075 9.55912 47.3376 9.80589C48.1008 10.4728 48.8169 11.1677 49.5306 12.0174C49.7014 12.1781 49.7862 12.4225 49.7179 12.6332L49.719 12.6344ZM45.8006 3.2294C46.4201 3.7369 46.9254 3.93361 47.3988 4.59126C47.6945 4.94161 48.5118 5.15229 48.314 5.73545L48.2798 5.76804C48.2409 5.79481 48.1868 5.79947 48.1243 5.78666C47.4754 5.61207 46.8312 4.76003 46.1928 5.20235C45.9561 5.3525 46.0268 5.62603 46.2034 5.78899C46.8371 6.39775 47.2599 7.09847 47.9395 7.66882C48.4506 8.14838 49.2574 8.52085 49.3139 8.98761C49.3033 9.17152 49.0572 9.39617 48.8793 9.35426C48.6072 9.30537 48.3234 8.75132 47.983 8.62212C47.3494 8.31483 46.731 7.73517 46.2081 7.21254C46.0632 7.06239 46.0067 6.90176 45.916 6.74695C45.8206 6.56769 45.6322 6.43733 45.5651 6.2476C45.4331 5.82624 45.4473 5.29779 45.2777 4.87876C44.975 4.25836 44.551 2.3634 45.7994 3.2294H45.8006ZM35.5741 2.15854C36.3149 2.16087 41.2344 2.15272 41.8633 2.16319C42.2909 2.3634 42.7113 2.85809 42.7926 3.35278C43.3002 4.84268 43.7301 6.36051 44.0869 7.91558C45.9914 14.2069 47.1315 20.8148 48.7804 27.1713C49.0666 28.2119 49.3869 29.2665 49.6802 30.3164C49.9428 30.8844 50.1454 31.6119 49.7367 32.1403C49.4128 32.4558 48.9017 32.4127 48.4812 32.4767C47.5343 32.6141 46.4425 32.7922 45.432 32.6874C45.0139 32.5629 44.5958 32.4907 44.1906 32.3615C43.7183 32.0973 43.5711 31.6002 43.3944 31.0951C43.0882 30.5108 43.405 29.7588 43.1565 29.2024C42.9751 28.944 42.4876 28.4517 42.2143 28.2829C42.133 28.2503 42.1472 28.2352 41.9635 28.2166C40.8222 28.5425 39.1992 28.4761 37.5091 28.454C37.1935 28.4354 36.9944 28.4494 36.753 28.3946C36.5116 28.2864 36.2619 28.2352 35.9227 28.3504C35.1065 28.5704 34.7178 29.4609 34.7508 30.3152C34.8203 30.9298 34.7166 31.4175 34.3727 31.9331C34.2302 32.1415 34.0771 32.2544 33.9817 32.2707C33.394 32.2439 29.2612 32.3522 28.7065 32.2358L28.6771 32.2137C28.3025 31.868 28.6346 31.3919 28.6358 30.9717C28.6205 30.6388 28.8714 30.4305 29.0104 30.1616C29.1729 29.7041 29.1258 29.1221 29.2141 28.6333C29.9879 24.1834 30.7629 19.7905 32.1821 15.535C33.2668 11.7474 33.8286 7.82828 34.3633 3.92895C34.5023 3.57394 34.5247 3.2003 34.7626 2.85809C34.8733 2.71026 35.0594 2.54498 35.1936 2.40996C35.4045 2.22838 35.4115 2.15388 35.5741 2.16087V2.15854Z" fill="var(--fill-0, white)"/>
<path id="Vector_6" d="M36.3737 23.2955L36.4055 23.3199C37.6316 23.4107 41.5394 23.335 41.9234 23.3502C42.1365 23.2862 42.4027 23.1127 42.5758 22.8939C42.7867 22.5074 42.4651 22.1385 42.3897 21.7567C42.3214 21.5891 42.2107 21.4191 42.1931 21.2445C42.1636 21.0501 42.2237 20.8406 42.1495 20.6486C41.2285 18.2799 40.6631 15.4596 40.1331 12.9512C40.0413 12.6066 39.6821 12.4367 39.6632 12.0887C39.6514 11.9955 39.6467 11.8896 39.6432 11.7756C39.6314 11.3682 39.6538 10.7524 39.6915 10.4288C39.7315 10.0121 39.8646 9.01343 39.3087 8.80275C39.0684 8.71196 38.7728 8.8109 38.5667 8.98898C38.3641 9.18221 38.0815 9.27765 37.966 9.40569C37.8188 9.55934 37.9696 10.1204 37.9001 10.4405C37.833 10.7629 37.502 10.9305 37.4572 11.2483C37.3159 11.9082 37.2782 12.8359 37.1876 13.5949C36.7659 16.1102 36.4196 18.6826 36.0074 21.2201C35.9085 21.8824 35.733 22.859 36.3725 23.2966L36.3737 23.2955ZM38.5302 17.1427C39.4347 16.9751 39.801 18.139 39.6903 18.8479L39.6597 18.87C38.7387 18.9317 38.2876 17.9062 38.5302 17.1427Z" fill="var(--fill-0, white)"/>
</g>
</g>
</svg>
