<svg preserveAspectRatio="none" width="100%" height="100%" overflow="visible" style="display: block;" viewBox="0 0 302.748 82.4552" fill="none" xmlns="http://www.w3.org/2000/svg">
<g id="Group">
<path id="Vector" d="M132.781 2.42957C130.567 2.59504 126.586 1.32726 126.177 4.22052C126.145 4.87996 126.162 5.5759 126.486 6.15503C126.954 6.86314 127.439 7.62965 127.577 8.48375C127.911 10.1117 127.66 12.0851 127.858 13.7763C128.082 16.0247 128.591 18.5797 128.649 20.9085C129.168 34.0729 128.228 47.6169 128.584 60.8325C128.793 62.3703 127.651 63.7063 127.115 65.0081C126.564 66.8721 127.305 68.4026 128.925 69.4246C131.921 71.51 135.071 74.5858 137.137 77.2941C138.007 78.0922 138.614 79.2894 139.272 80.2117C139.854 80.8565 140.638 81.1534 141.501 81.2605C145.392 81.5354 149.307 79.8029 153.339 80.0268C156.214 80.7689 157.161 80.7616 158.942 78.3477C159.573 77.9 159.863 78.8393 160.061 79.3673C160.821 81.3432 163.408 80.9295 165.082 80.6035C167.377 80.1582 169.923 79.8053 172.361 80.1022C174.9 80.1849 178.954 80.4769 181.648 79.4914C182.007 79.2846 182.455 78.9536 183.02 78.8612C183.834 78.6495 184.691 79.7664 185.335 79.0339C186.175 78.1677 186.336 76.8634 186.146 75.6954C185.717 72.5661 186.582 69.7945 186.631 66.563C186.655 64.4509 186.273 62.5431 186.199 60.684C186.114 58.859 186.248 56.9196 185.968 55.1165C185.856 54.2186 185.14 53.6833 184.828 52.7732C183.544 47.4709 181.169 42.3244 177.307 38.4408C174.822 36.2021 174.133 35.3115 176.006 32.2308C178.559 26.4443 182.05 20.8695 185.013 15.246C185.629 14.2751 186.772 13.1509 187.235 11.9829C187.425 11.1896 187.749 10.3282 187.471 9.56416C187.035 8.16012 185.656 8.83902 184.604 8.80982C183.546 8.75142 182.837 7.56881 181.912 7.02861C180.328 6.17937 179.154 4.49062 178.325 3.01601L178.238 2.93328C175.58 0.981726 172.637 3.03548 169.601 2.86271C168.322 2.85054 166.872 2.1546 165.676 2.00617C162.853 1.79447 157.744 1.7458 155.758 1.98427C154.896 2.15217 153.794 2.94788 154.072 3.97232C154.581 5.12816 154.216 7.25734 152.696 7.29141C152.089 7.30844 151.604 6.79987 151.258 6.31807C149.862 4.28135 148.366 2.1619 146.047 1.2494C145.155 1.02553 144.281 1.27373 143.586 1.85287C142.848 2.3079 141.852 2.65587 141.028 2.68751C138.263 2.30547 135.588 1.5998 132.784 2.43444L132.781 2.42957ZM176.61 7.33278C177.307 7.37414 178.162 7.11134 178.796 7.43254C179.383 7.67831 179.726 7.99952 180.199 8.45942C181.098 9.33786 182.172 10.355 182.808 11.1337C182.871 11.231 182.847 11.4695 182.947 11.6641C183.12 11.905 182.879 12.8516 182.837 12.9733L182.774 13.0049C181.987 13.1169 181.3 12.9295 180.637 12.4842C179.855 12.0535 179.025 11.7615 178.338 11.1945C178.04 10.9293 178.045 10.5205 177.821 10.2309C177.3 9.57146 176.496 9.18456 176.281 8.40589C176.191 8.05792 176.118 7.39118 176.61 7.33278ZM146.995 72.2765C146.354 72.5223 146.066 71.7826 145.621 71.5198C145.087 71.5684 144.782 71.1255 144.434 70.7727C144.13 70.3615 143.54 69.9454 143.326 69.5439C143.296 68.9526 144.361 68.1471 145.068 68.2153C145.336 68.2299 145.457 68.4951 145.684 68.6168C145.794 68.6946 146.074 68.6752 146.176 68.6557L146.242 68.6922C146.12 69.7604 146.422 70.8895 146.87 71.8653C146.909 72.0016 147.075 72.1938 146.995 72.279V72.2765ZM155.529 72.7291C155.261 72.7875 154.915 72.6707 154.71 72.4712C153.619 71.3689 152.277 70.1936 151.3 68.9818C151.032 68.7409 151.007 68.0839 151.122 67.8357C151.236 67.933 152.259 68.7944 153.222 69.6071C153.86 70.1449 154.374 70.578 154.876 71.0014C154.991 71.1085 154.956 71.0258 155.037 71.2448C155.183 71.6366 155.58 72.6926 155.585 72.7072L155.531 72.7267L155.529 72.7291ZM168.924 76.4084C166.524 76.8074 165.757 73.7122 164.414 72.3763C164.01 71.9334 163.174 71.4078 163.31 70.7411C163.349 70.6413 163.501 70.7654 163.734 70.8944C164.105 71.1085 164.429 71.2886 164.702 71.4541C165.123 71.9188 168.985 76.3281 168.987 76.3962L168.924 76.4108V76.4084ZM173.891 76.3597L173.843 76.3889C171.967 74.7634 170.042 72.9652 168.466 71.055C168.198 70.7776 168 70.2203 168.225 69.9089C169.272 70.3688 170.13 71.5465 170.917 72.3617C171.06 72.5685 171.012 72.8119 171.158 73.0211C171.967 73.9166 172.944 74.7683 173.733 75.6905C173.874 75.8609 173.938 76.2332 173.889 76.3597H173.891ZM167.043 25.9333C166.846 25.6827 166.485 25.4807 166.614 25.2544C166.899 24.8043 167.581 24.5877 168.052 24.8261C169.104 25.5878 171.587 28.3886 172.688 29.6491L172.639 29.6807C172.084 29.8097 171.677 29.1746 171.282 28.8679C169.954 27.88 168.117 27.2522 167.043 25.9333ZM168.997 31.6493L168.97 31.6882C168.283 31.6103 167.172 31.861 166.558 31.6274C166.305 31.5471 165.861 31.3986 165.657 31.3256C165.445 31.2891 165.338 31.002 165.126 30.8998C164.124 30.9387 163.756 29.5298 164.292 28.8996C164.797 28.2255 165.915 28.116 166.453 28.8996C166.663 29.1308 166.894 29.396 167.072 29.5615C167.235 29.7488 167.516 29.5615 167.71 29.7586C168.295 30.2282 168.724 30.9874 168.997 31.6493ZM176.359 44.7188C177.407 45.0424 178.096 45.9939 179.085 46.4149C179.85 47.0792 180.501 48.0744 180.399 49.1086L180.33 49.1694C179.899 49.2643 179.441 49.1937 179.132 48.875C177.914 47.8262 176.639 46.5244 175.582 45.3223C175.222 44.6385 175.848 44.5801 176.362 44.7188H176.359ZM175.141 54.1627C175.253 53.9023 175.736 53.5519 175.996 53.6005C176.52 53.783 177.085 54.5204 177.975 55.3404C178.606 56.0047 179.154 56.4622 179.556 57.0535C179.721 57.4428 179.821 58.2823 180.238 58.5938C180.435 58.7933 180.874 58.8542 181.076 58.9199L181.161 58.9758C181.281 59.2167 181.2 59.5574 181.249 59.7934C181.339 60.1171 181.731 60.5332 182.121 60.5405C182.56 60.5721 182.891 60.4237 182.979 60.9055L183.081 61.2607C183.135 61.4432 183.2 61.6695 183.234 61.8545C183.247 61.9932 183.086 61.9518 182.767 61.9202C182.279 61.852 181.768 61.8374 181.424 61.7523C180.757 61.1634 175.755 56.5181 175.482 56.2505C175.385 55.7589 175.031 54.6153 175.139 54.1602L175.141 54.1627ZM175.541 60.2047C175.733 60.1073 175.916 60.2144 176.091 60.3409C176.571 60.5672 177.032 60.8422 177.297 61.3264C178.747 63.3121 181.139 65.1517 182.755 67.2492C182.84 67.4147 182.893 67.6775 182.825 67.8065L182.745 67.8892C181.865 68.1934 181.283 67.3076 180.72 66.7698C179.173 65.0787 172.281 63.0979 175.541 60.2022V60.2047ZM174.79 66.2053C175.029 66.108 175.694 66.4584 176.067 66.6555C177.862 67.8211 179.441 69.5244 181.122 70.7824C181.89 71.4005 182.509 72.4761 182.431 73.4591L182.406 73.5127C182.36 73.5516 182.099 73.4567 181.731 73.3861C181.054 73.1915 180.728 73.2985 180.365 72.8922C179.475 71.7096 173.696 67.3125 174.79 66.2053ZM174.313 25.9479L174.288 26.0185C173.76 26.2132 170.232 22.7578 170.227 22.3612C170.271 22.349 171.667 22.6313 172.069 22.7846C172.902 23.7993 174.832 24.2884 174.31 25.9479H174.313ZM147.472 13.9247C147.557 13.9126 147.726 13.8858 147.811 13.8736C149.282 14.6669 150.269 15.8033 149.904 17.4482L149.843 17.5139C149.012 17.5894 147.962 17.1514 147.479 16.4554C147.416 16.1999 147.409 15.8957 147.302 15.65C147.092 15.0368 146.797 14.5185 147.472 13.9272V13.9247ZM137.091 5.6124C139.082 5.63186 141.033 5.57346 141.515 5.64403C141.598 5.67323 141.654 5.73163 141.715 5.81923L141.761 5.8898C141.956 6.26453 142.412 6.88504 142.587 7.35468C142.941 8.93149 142.641 12.5475 142.587 15.0781C142.456 16.1756 142.797 16.908 142.963 17.969C143.011 20.8501 142.563 24.9211 142.902 27.5442C143.192 29.2281 144.768 32.1749 146.824 31.002C147.543 30.3474 147.799 29.2281 148.388 28.3813C150.084 26.0404 151.19 23.4975 152.659 20.962C154.428 17.8862 155.439 14.3846 156.306 10.9512C156.516 9.41816 157.422 8.25988 158.163 6.97507C158.367 6.52977 158.667 6.0431 159.091 5.72676C160.07 4.91402 161.308 5.26686 162.468 5.21576C163.025 5.18413 163.479 4.92862 164.044 4.88969C164.965 4.84102 165.559 5.16953 166.458 5.18656C168.229 5.23036 171.906 5.12573 170.907 7.89731C170.541 8.66625 169.796 9.29406 169.362 10.0241C167.569 13.2483 165.727 17.3193 164.339 20.8841C162.714 24.3735 159.298 27.8751 159.476 32.0313C159.968 33.0241 160.733 34.3454 161.778 34.7859C167.477 37.2046 170.025 42.9376 170.641 48.8141C170.985 50.4031 172.059 51.0163 171.918 52.6953C171.903 54.9413 172.093 58.9442 171.794 60.2923C171.509 60.8057 171.014 61.2875 171.034 61.9542C171.228 63.6941 170.544 65.1906 168.607 65.4291C167.727 65.6018 167.364 66.2734 166.563 66.3294C165.815 66.3829 164.965 66.3708 164.195 66.3562C163.808 66.3416 163.313 66.3318 163.04 66.1639C162.718 65.9887 162.224 65.597 161.751 65.5678C161.403 65.4729 160.762 65.8257 160.421 66.0423C159.532 66.6555 157.98 66.2637 157.402 65.3804C155.987 63.3218 157.001 60.4212 156.823 58.0487C156.138 55.1847 155.933 51.997 154.93 49.2035C153.636 46.8407 151.728 44.8843 149.47 43.451C148.32 42.5093 147.021 41.7623 145.523 41.5919C144.334 41.6236 143.318 42.9765 143.469 44.1032C143.584 44.6117 144.086 44.8891 144.342 45.3028C144.707 46.3978 145.138 47.4442 145.085 48.6706C144.973 51.1258 144.839 53.5689 145.233 55.9706C145.738 58.2239 145.392 60.8203 145.338 63.3388C145.258 64.884 143.123 64.8937 141.888 65.12C139.871 65.0981 132.984 66.0228 132.092 63.8012C131.819 63.1369 131.522 62.0345 131.661 61.307C131.926 59.8129 132.111 58.2945 132.131 56.7688C132.158 55.5813 132.121 54.4254 132.033 53.2623C131.488 48.0476 132.35 42.1468 131.96 36.7252C131.49 29.306 132.966 20.7503 131.229 13.1436C131.037 11.3746 131.208 9.45466 131.193 7.60775C131.198 6.72687 131.714 5.7219 132.567 5.62213C133.252 5.61483 135.179 5.62213 137.089 5.6197L137.091 5.6124Z" fill="var(--fill-0, white)"/>
<path id="Vector_2" d="M198.469 6.73174C198.763 6.92154 199.08 7.02131 199.399 7.12108C200.749 7.60531 201.385 8.84389 201.151 10.3063C201.896 23.2226 200.929 36.3189 201.08 49.2156C201.107 52.0359 200.564 54.7929 200.734 57.6083C200.815 59.2143 200.715 61.1731 200.691 62.8838C200.279 64.137 199.848 65.4461 199.061 66.5654C198.756 66.9718 198.352 67.3368 198.015 67.6824C197.419 68.2347 197.299 69.4319 197.618 70.213C197.899 70.7654 198.534 71.055 199.065 71.3421C203.787 73.0747 206.698 77.2746 210.268 80.5743C210.767 80.9539 211.344 81.0804 211.978 81.0804C213.73 81.1047 215.605 80.9149 217.345 80.9466C220.912 81.4284 224.483 80.5694 228.067 80.5937C233.544 81.0561 239.213 79.7883 244.707 80.107C245.314 80.0973 245.716 80.3406 246.152 80.3552C247.082 80.3917 247.813 79.287 247.621 78.355C247.431 74.5176 248.274 70.4199 247.472 66.7674C247.277 66.1639 247.275 65.485 247.436 64.867C247.645 63.9739 247.441 63.1539 247.097 62.509C246.174 60.9639 244.198 60.2655 242.989 59.117C242.449 58.438 239.705 56.6812 241.506 56.0923C242.522 55.9293 244.227 55.2625 244.705 54.4084C245.552 50.9871 243.737 47.3225 243.552 43.9109C243.525 43.0471 243.457 41.9789 243.618 41.2659C243.747 40.604 244.393 39.9981 244.658 39.4117C245.029 38.4846 244.305 37.6207 243.652 36.9345C242.697 35.966 241.783 35.7227 240.931 34.7518C240.288 33.9877 237.788 32.2965 239.055 31.4424C239.593 31.3329 241.079 31.221 242.575 31.0482C244.344 30.7514 245.825 30.9582 246.408 30.4399L246.454 30.3693C247.102 29.2719 246.944 27.5223 246.844 26.2278C246.52 22.7164 245.903 17.4628 246.668 13.8152C246.81 12.9709 247.409 12.2165 247.134 11.3527C246.712 10.5618 245.879 9.88536 245.199 9.30136C244.466 8.75142 243.406 8.56405 242.6 8.02872C240.673 6.81691 238.894 4.50522 236.996 2.61451C236.102 1.68983 235.751 1.2421 234.477 1.3808C233.283 1.58276 231.965 2.54151 230.581 2.14C227.446 1.50733 224.142 1.5049 221.043 1.6071C215.988 2.2349 210.55 2.01347 205.341 2.10107C203.833 2.18624 202.389 2.21787 200.988 2.56341C200.198 2.84324 199.48 3.09388 198.593 3.01601C197.823 2.95031 197.068 3.57811 196.883 4.34219C196.595 5.29119 197.643 6.16477 198.476 6.72931L198.469 6.73174ZM211.992 76.9218C210.621 75.8633 209.332 73.9847 208.029 72.9603C207.641 72.6999 207.242 72.7827 206.93 72.2595C206.886 72.1451 207.032 70.8287 207.132 70.8919C207.476 71.218 208.136 71.7315 208.443 72.1476C208.574 72.3398 208.516 72.6975 208.54 72.8094L208.587 72.8557C208.74 72.8751 209.169 72.824 209.295 72.9773C210.426 73.9458 211.42 75.1625 212.468 76.2404C212.816 76.6833 212.565 77.2333 211.992 76.9218ZM219.628 73.1233C219.557 73.4494 219.591 73.6538 219.452 73.683C219.275 73.7 219.058 73.7098 218.88 73.7146C218.683 73.7292 218.446 73.7317 218.249 73.7195C217.347 73.6319 216.58 72.4493 215.603 72.9773C215.24 73.2012 215.199 73.3253 214.816 73.6538C214.594 73.7463 214.18 73.7244 213.922 73.6295C213.057 73.0747 210.255 71.437 212.792 70.8846C213.323 70.8287 214.102 70.69 214.526 70.9625C214.716 71.145 214.901 71.3226 215.179 71.2886C216.195 71.3518 218.232 70.213 219.392 71.2156C219.545 71.2788 219.728 71.2813 219.828 71.2813L219.903 71.2886C219.913 71.7363 219.686 72.6172 219.628 73.1233ZM225.597 74.104C224.559 74.0188 223.818 72.7924 222.727 72.8727C222.571 72.8824 222.522 72.8776 222.469 72.7875C222.198 72.4809 221.292 71.4589 221.148 71.2959C221.801 71.2399 222.576 71.1328 223.16 71.4589C223.933 71.9261 224.944 73.2401 225.621 74.0796L225.597 74.104ZM236.182 77.6348L236.122 77.7053C235.588 77.8075 234.842 77.8586 234.304 77.7248C233.649 77.4693 232.487 76.1991 231.641 75.4034C231.288 74.9678 230.913 74.9897 230.455 74.7074C229.495 73.885 228.557 72.6853 227.334 72.5126C226.944 72.4566 226.812 72.1549 226.61 71.8191C225.775 70.6608 228.905 70.7727 229.356 70.8457C229.885 70.9017 230.591 71.7266 231.127 72.0697C231.836 72.5126 232.937 72.7851 233.459 73.5565C233.634 73.812 233.717 74.1502 233.939 74.3814C235.02 75.2087 236.428 76.1577 236.182 77.6348ZM237.432 37.3506C237.357 38.01 236.969 38.5478 236.29 38.397C235.832 38.3021 235.578 37.8811 235.191 37.6767C234.708 37.5842 234.175 37.1511 233.948 36.6912C233.688 36.2434 233.566 35.747 233.408 35.2263C233.291 34.9051 233.303 34.8856 233.507 34.5815C233.685 34.287 233.907 33.9269 233.919 33.905L233.98 33.8855C235.693 33.6641 237.354 34.562 237.803 36.3627C237.829 36.6839 237.454 36.9053 237.427 37.3482L237.432 37.3506ZM231.346 51.739C231.139 51.0626 230.177 50.5175 230.089 49.7753L230.101 49.7242C230.883 49.4517 233.091 51.6101 233.931 52.2476C235.313 53.182 235.564 54.4692 233.563 54.6104C230.299 54.8732 231.702 53.4278 231.344 51.739H231.346ZM242.643 62.4944C242.802 63.2147 242.663 64.8159 242.699 65.5897L242.682 65.5994C242.1 65.3634 241.381 64.5312 240.733 64.3706C240.568 64.3511 240.358 64.4046 240.19 64.3754C239.971 64.356 239.837 64.0956 239.627 64.0129C239.435 63.9496 239.14 63.9374 238.938 63.6941C238.507 63.2463 238.721 62.784 238.638 62.2827C238.555 61.9859 238.268 61.8374 238.205 61.526C238.122 61.0417 238.302 60.6256 238.455 60.1925C238.555 59.9808 238.551 59.6572 238.704 59.5477C240.402 59.5428 241.506 61.4992 242.646 62.4944H242.643ZM239.182 38.7376C239.679 38.7717 240.122 39.2438 240.619 39.1805L240.67 39.1878C240.67 39.5187 240.67 40.3461 240.67 40.7476C240.648 41.0955 240.726 41.2367 240.597 41.2148H239.62C239.15 41.2075 239.291 41.2805 239.045 40.9447C238.901 40.7451 238.697 40.458 238.529 40.222C238.307 39.8813 238.195 39.8545 238.214 39.6404C238.285 39.1951 238.648 38.6865 239.184 38.7376H239.182ZM242.266 20.103C240.984 19.1175 238.826 17.5967 237.318 16.2778C236.901 15.8811 236.643 15.6573 236.562 15.3677C236.482 15.0562 236.477 14.6085 236.292 14.3019C236.163 14.1437 236.002 13.9637 235.853 13.8225C235.722 13.6741 235.936 13.4867 236.1 13.1582C236.333 12.7762 236.492 12.4233 236.58 12.3722L236.662 12.343C237.045 12.2433 237.379 12.5548 237.644 12.803C238.156 13.2118 239.442 14.4236 240.668 15.6329C241.608 16.6404 242.539 17.3485 243.182 18.3924C243.608 19.3316 243.584 20.3512 242.266 20.103ZM235.79 8.75872C235.795 8.53485 235.763 8.36208 235.941 8.32072C236.114 8.26962 236.45 8.34262 236.531 8.24042C236.66 8.13335 236.506 7.65885 236.699 7.52745C236.869 7.39118 237.274 7.41308 237.508 7.44471C238.475 7.60775 238.909 8.52755 239.632 9.09696C240.867 10.0898 242.67 10.6932 243.367 12.4039C243.564 12.8468 243.669 13.4162 243.274 13.7617C243.036 13.9466 242.673 13.8785 242.302 13.8079C241.308 13.6473 241.116 13.6084 240.261 12.8468C239.457 12.2457 238.87 11.4597 237.844 11.5352C237.513 11.5279 236.943 11.6398 236.677 11.5425L236.633 11.467C236.604 11.3721 236.628 11.2018 236.562 11.0412C236.416 10.6348 235.797 10.3866 235.763 9.99973C235.705 9.65663 235.78 9.18456 235.793 8.76115L235.79 8.75872ZM235.167 26.1864C235.335 26.3275 235.434 26.403 235.478 26.5319C235.603 26.9602 236.202 28.7779 236.229 28.9896C235.98 29.0358 235.415 28.4859 235.215 28.2669C234.823 27.8703 234.881 27.5539 234.399 27.2571C232.353 26.0915 230.284 24.5706 228.908 22.7043C229.802 21.3903 231.658 22.4293 232.854 22.5364L232.896 22.6191C232.854 23.0036 232.91 23.5413 233.269 23.809C234.034 24.4806 234.348 25.5391 235.167 26.1888V26.1864ZM204.876 23.5535C205.254 20.3731 205.785 15.2217 204.952 11.7493C204.754 11.0923 204.172 10.7468 204.06 10.0873C203.919 8.90229 203.916 7.65398 204.762 6.75364C205.137 6.06987 206.423 6.41054 206.572 5.5394C206.608 5.44693 206.657 5.37636 206.728 5.34716C207.705 5.09653 212.251 5.32039 216.205 5.43476C219.06 5.43233 220.707 5.8168 222.963 5.08436C223.285 5.07219 223.618 5.05273 223.938 5.12086C225.509 5.44206 227.039 5.12573 228.243 5.36176C228.913 5.52723 229.361 6.21587 230.094 6.22317C231.134 6.1818 232.155 6.3278 232.903 7.06267C233.171 7.33034 233.274 7.54205 233.342 7.84135C233.274 9.05559 233.522 16.0539 233.249 17.4361C232.44 18.3826 230.767 17.9008 229.607 18.0444C225.226 17.9738 220.498 17.0005 216.129 17.2584C215.057 17.4434 214.2 18.5408 214.202 19.5823C214.197 20.6748 215.659 21.327 215.73 22.422C215.778 22.6726 215.796 22.9476 215.808 23.2007C215.786 24.1156 216.285 24.7896 216.295 25.7241C216.314 26.8969 216.046 28.1379 215.652 29.2086C215.469 29.7464 215.496 30.2915 215.747 30.8098C216.254 31.8537 217.36 32.3598 218.478 32.3111C219.82 32.406 220.931 31.7539 222.24 31.4765C224.232 31.148 226.084 31.8926 227.987 31.8488C229.351 31.6833 230.469 32.6786 230.54 34.0194C230.832 35.0219 230.976 35.2628 230.908 36.443C230.823 38.1974 231.076 40.5626 230.806 42.266L230.757 42.3366C229.512 43.3659 227.529 42.5507 225.894 42.9035C223.838 43.1712 221.623 43.0203 219.411 42.7989C216.266 42.429 216.984 45.2979 217.138 47.3687C217.403 50.1135 217.591 52.3449 217.162 55.1238C217.089 55.8076 216.919 56.6155 217.192 57.2384C217.528 57.7737 218.198 58.1752 218.741 58.3042C219.594 58.3091 223.336 58.3042 226.788 58.3042C228.81 58.2993 230.311 58.3091 232.011 58.3042C233.115 58.3042 233.042 58.2215 234.002 58.8809C234.194 59.0221 234.316 59.1754 234.431 59.3773C235.137 60.7546 235.088 62.3119 235.062 63.9496C235.04 65.3463 235.147 65.9279 234.065 66.6482C232.521 67.804 230.586 67.2662 228.576 67.3173C222.315 66.8915 215.523 66.546 208.971 67.1908C207.936 67.276 206.859 67.3368 205.838 67.1762C205.088 66.9377 204.184 66.2637 204.036 65.4558C203.955 64.519 203.96 61.689 204.023 60.6256C204.011 59.993 204.703 59.6109 204.869 59.2167C204.881 56.9318 204.857 32.681 204.874 23.5462L204.876 23.5535ZM224.393 27.3155L224.305 27.4055C223.061 27.8265 222.327 26.712 221.47 25.9066C220.58 25.6681 219.818 24.8359 219.384 24.1472C219.092 23.6143 218.841 22.7383 219.177 22.1884C219.713 21.855 220.156 22.5972 220.527 22.9087C221.777 24.0061 223.248 25.0257 224.203 26.2521C224.437 26.5295 224.517 26.9675 224.391 27.313L224.393 27.3155ZM229.266 54.0848L229.185 54.1578C227.794 54.2819 226.973 52.5347 225.845 51.9824C225.558 51.795 225.124 51.8461 224.905 51.649C224.556 50.9093 224.184 50.3739 223.333 50.0795C222.208 49.639 220.541 48.9455 220.739 47.5123C220.939 47.2057 221.294 47.3055 221.65 47.2641C221.916 47.2519 222.181 47.2276 222.398 47.2836C224.403 48.3664 226.949 50.5442 228.603 52.4982C229.017 52.9581 229.531 53.4716 229.266 54.0872V54.0848Z" fill="var(--fill-0, white)"/>
<path id="Vector_3" d="M51.3435 14.808C51.3069 14.2411 51.0682 14.0878 50.576 13.5427C47.8571 10.7346 44.5194 7.46904 41.2962 5.12816C40.1219 4.10128 38.8502 2.96491 37.4152 2.44174C36.2677 2.15217 34.421 2.48554 33.0396 2.4101C26.983 1.13746 20.6194 1.6582 14.5652 2.35414C12.6454 2.64371 10.7573 2.88461 8.84234 2.56097C6.66186 2.11567 4.32058 2.06214 2.2546 1.38323C1.13634 1.18126 0.364056 2.3736 0.444453 3.44185C0.376237 6.67577 0.580887 9.97053 0.476126 13.2045C-0.41312 16.1683 0.152091 19.3389 0.498044 22.2517C0.619859 23.3102 1.8307 23.5876 2.7297 23.5973C3.56291 23.5048 4.2743 23.2299 5.06609 23.0425C5.44372 22.8941 5.77994 22.5558 6.17949 22.4877C6.791 22.4317 7.58522 22.9257 7.96528 23.3491C8.08953 23.5219 8.14801 23.7847 8.18699 23.9964C8.25034 24.7288 8.83017 24.831 9.00315 25.4905C9.19805 28.4786 9.25652 31.5227 9.76815 34.4793C10.6818 39.3435 9.86071 44.9354 10.1823 49.6585C10.387 51.7074 10.214 53.822 9.98742 55.8611C9.57812 59.808 9.89238 63.7987 9.84366 67.7602C9.84609 68.4635 10.2456 69.0329 10.7329 69.5049C11.6611 70.6973 13.4274 71.2813 14.6894 72.2546C15.0135 72.532 15.1718 72.8727 15.3594 73.2523C16.0343 74.8023 17.6252 75.8341 18.8019 77.1749C19.9055 79.0096 20.2953 80.1728 22.7195 80.2458C26.1595 81.3992 29.9406 79.5912 33.5975 80.3212C36.0143 80.6886 38.2192 81.1704 40.709 81.0585C42.5241 81.0853 43.0601 80.309 42.3803 78.7541C41.5764 76.5592 41.2206 74.8607 41.7834 72.571C41.915 71.9967 42.0027 71.5611 41.9126 70.9625C41.7542 69.5828 41.3206 67.5801 41.1695 66.0885C40.9381 63.643 41.764 59.044 41.1086 56.3989C40.9454 56.0388 40.48 55.5326 40.385 55.0168C40.2437 54.5057 40.4167 53.9144 40.748 53.5202C40.96 53.2404 41.15 52.9873 41.2158 52.6491C41.4277 51.2864 41.1866 48.6 41.1598 46.7823C42.1245 42.9838 40.882 38.5405 41.5959 34.5644C41.8444 33.54 43.1502 32.8051 44.1783 33.2309C44.8093 33.4865 45.7424 33.2455 46.4806 33.4743C47.2797 33.6909 48.1884 34.3016 49.0022 34.0486C49.4797 33.9099 50.0108 33.832 50.3129 33.6446L50.403 33.5741C50.805 33.2163 50.8879 32.3087 50.8172 31.7369C50.4786 29.5517 50.3251 26.8142 50.4786 24.4076C50.8148 22.0351 50.3616 19.8061 50.4786 17.4117C50.5468 16.543 51.4872 15.684 51.3362 14.7934L51.3435 14.808ZM26.045 23.3637C26.33 24.6777 26.2375 27.4615 26.5542 29.0821C26.7856 29.3351 27.346 29.598 27.3265 30.1357C27.3752 32.3063 27.2437 34.5717 27.3119 36.752C27.3923 39.818 28.0891 42.9717 28.1573 46.0377C28.418 52.1478 27.2096 58.0511 27.3655 63.935C27.2169 64.6723 26.6297 65.6578 25.8404 65.8695C24.6758 66.0471 23.3919 66.4876 22.1177 66.1931C19.5645 65.7965 16.5386 66.3975 14.4068 64.9108C14.017 63.7841 14.4848 61.6793 14.3264 60.4018C13.771 56.4841 14.4872 51.6879 14.2802 47.8797C14.1364 44.4219 13.7222 40.4799 13.5078 37.246C13.3178 35.7641 14.0852 33.905 13.0108 32.6737C11.4711 29.5444 12.7233 25.3323 12.3335 21.967C12.1508 21.1907 11.9559 20.524 11.2324 20.0933C10.7061 19.8183 9.96548 19.4679 9.39539 19.2659C8.61334 19.008 7.64614 19.2148 6.72278 19.1783C5.68005 19.1613 4.54716 18.3218 4.54716 17.2438C4.5496 15.4115 4.54229 7.76835 4.55204 6.57357C4.58615 6.284 4.76157 6.15017 5.02225 5.87763C5.72878 5.10383 6.58877 5.58806 7.47315 5.7073C10.8328 6.0577 13.4299 6.35214 17.0795 5.57833C21.8375 4.72666 25.9208 5.37879 31.0248 5.74136C32.1504 5.773 33.2589 5.59293 34.2529 6.1599C35.3882 7.17218 35.5465 8.17472 35.5733 9.79533C35.6391 12.0948 35.6635 16.5138 35.4832 17.8084C35.1981 18.6041 34.6475 19.7112 33.8046 19.9497C32.3574 20.0714 27.8064 19.7721 25.8623 20.0592L25.7868 20.1127C25.5188 20.3269 25.2215 20.6189 25.0997 20.9571C25.012 21.6823 25.8379 22.6459 26.045 23.3637ZM32.6133 55.574C32.3916 55.3282 32.2186 55.209 32.2039 54.9657C32.0237 54.0921 31.0638 53.6078 30.9517 52.6929C30.4961 50.8509 32.774 51.6952 33.4026 52.5493C34.5233 53.6322 34.572 55.0387 35.2834 56.2797C35.51 56.6617 36.0289 57.2822 35.8974 57.7153L35.8584 57.7664C35.7707 57.837 35.5563 57.8394 35.3005 57.7251C34.5355 57.399 33.2954 56.2797 32.6157 55.574H32.6133ZM33.8314 65.8671L33.8265 65.8719C33.2759 65.6578 32.1431 65.2879 31.5462 65.0276C30.8811 64.6723 30.2671 63.6722 30.7617 62.9982C31.3853 62.1635 32.5231 62.9251 32.9982 63.6138C33.2004 64.0688 33.6536 65.412 33.8314 65.8671ZM30.6155 28.5273C31.4536 28.3034 32.2454 28.5273 32.8179 29.2183C33.2516 29.6929 34.4064 30.766 34.2529 31.3475L34.1847 31.3573C33.5756 31.2113 32.9665 31.5227 32.5694 31.9972C32.3891 32.1457 32.2064 32.4936 31.9944 32.535C30.7129 31.7807 30.3158 29.8851 30.6155 28.5273ZM36.4285 73.7244C35.5953 74.4738 35.1251 73.2134 34.4526 72.8386C33.6876 72.7437 33.2808 71.9772 32.7545 71.4686C32.2843 70.9309 31.6728 70.4637 31.0175 70.3201L30.9736 70.252C31.0759 69.6071 30.4815 68.9063 30.5107 68.242C30.5327 67.7286 31.2952 67.4122 31.8093 67.4585C32.3428 67.5801 33.3003 68.7798 34.0238 69.466C34.6378 70.1035 35.2396 71.4321 35.8389 72.3033C36.0241 72.6878 36.4699 73.0771 36.6404 73.3934C36.5893 73.4762 36.4845 73.6416 36.4309 73.7244H36.4285ZM37.0546 43.1517C36.1532 43.2296 35.5319 42.4047 34.8717 41.957C34.5891 41.7671 34.1408 41.7355 33.9264 41.4192C33.7656 41.2245 33.8558 40.8133 33.7047 40.7354C33.539 40.6429 32.8642 40.7573 32.7034 40.6673C32.5621 40.5967 32.6863 40.1928 32.5718 39.9421C32.5012 39.7377 32.3745 39.582 32.2868 39.4457C32.0188 39.0807 32.143 38.5454 31.897 38.139C31.7776 37.8981 31.4073 37.6962 31.4219 37.5477C31.5023 37.319 32.2064 36.3846 32.3355 36.2556C32.9348 36.842 33.5488 37.6621 34.1335 38.3094C34.2845 38.56 34.2139 38.8496 34.4429 39.0832C35.4369 40.2706 36.9523 41.4484 37.1106 43.086L37.057 43.1469L37.0546 43.1517ZM39.1059 7.38874H39.1547C40.3704 7.52744 41.3668 8.41805 42.0758 9.37436C43.4304 10.8855 42.5777 11.6641 40.7115 11.4573C40.4557 11.4622 40.4873 11.3673 40.212 11.1239C39.8539 10.7687 39.4592 10.3769 39.1425 10.063C39.0377 9.64203 39.1425 7.57124 39.1059 7.38874ZM39.5201 14.3457C40.9454 13.9466 41.8906 15.6305 42.3681 16.689L42.3365 16.7377C41.4789 16.8667 40.3533 16.5479 39.7516 15.9371C39.62 15.5624 39.5981 14.7594 39.5201 14.3457ZM46.8582 26.4808C46.8193 26.4954 45.0895 25.9431 44.4585 25.7557C44.2855 25.7119 44.2149 25.6705 44.1003 25.5318C43.6886 25.0086 43.1039 24.5171 42.5509 24.118C41.6738 23.5243 40.7968 22.7894 40.1024 22.0254C39.9733 21.8915 39.9099 21.8015 39.9051 21.6287C39.9952 21.0812 39.6541 20.8647 39.7735 20.3609C39.8393 20.0251 39.8685 19.6358 39.9343 19.5944C39.9879 19.5458 40.1633 19.6261 40.4289 19.6942C40.9575 19.8767 41.2523 19.8183 41.5374 20.1857C43.216 22.3052 46.4441 23.7895 46.885 26.4541L46.8607 26.4808H46.8582Z" fill="var(--fill-0, white)"/>
<path id="Vector_4" d="M283.432 82.061C284.862 81.988 286.241 81.4283 287.644 81.1704C289.966 80.8054 291.993 80.3041 294.139 79.0534C295.92 77.9122 299.906 76.3329 299.865 73.8777C299.923 72.0502 301.246 70.3274 301.646 68.6532C302.579 65.4315 303.195 61.5235 302.342 58.1436C302.374 57.3893 302.698 56.888 302.571 56.2115C302.213 54.6931 301.514 53.1455 300.761 51.851C299.636 49.7218 299.09 47.3687 297.421 45.5437C295.072 42.6529 292.044 40.0662 289.727 37.1851C288.979 36.241 288.027 35.4112 287.961 34.1313C287.939 33.2626 287.885 32.2406 288.468 31.5884C289.484 30.3061 291.486 30.581 292.814 31.3037C294.59 32.0824 296.31 32.737 297.706 34.107C298.257 34.6107 299.314 35.3699 299.999 35.0365L300.089 34.9805C301.821 32.2138 299.526 28.5273 299.436 25.488C299.061 22.6702 298.676 18.7257 298.953 16.8618C299.029 16.4384 299.275 16.1561 299.516 15.7716C299.984 15.1219 299.916 14.2678 299.477 13.5987C297.224 10.9341 293.374 9.58606 290.655 7.54934C288.974 6.31077 287.598 4.77776 285.746 3.82145C284.053 2.87244 282.238 1.53653 280.35 1.01823C279.081 0.475589 277.938 0.660524 276.608 0.658091C276.138 0.648357 275.743 0.543723 275.302 0.419622C274.647 0.212787 273.838 0.431789 273.187 0.575357C272.615 0.670258 272.052 0.706758 271.514 0.942793C269.469 1.86017 267.289 2.34927 265.476 3.64381C264.714 4.10858 263.976 4.35192 263.457 4.96512C261.651 6.88261 259.966 8.86822 258.73 11.2237C257.478 13.6449 256.942 16.3897 257.005 19.1443C256.455 20.9644 256.511 22.7724 256.586 24.6607C256.518 25.6924 256.867 26.566 257.198 27.5174C257.556 28.9434 257.841 30.1357 258.657 31.3548C259.732 33.1239 261.023 34.9976 262.234 36.5817C264.207 39.2486 269.033 43.1639 270.295 46.4903C270.498 47.8797 271.275 49.3811 270.388 50.7681C269.211 52.5396 265.817 52.2062 264.156 51.0601C262.594 49.8994 260.696 48.0209 259.758 46.2275C259.144 45.2298 257.934 44.327 256.75 44.8161C256.447 45.0059 256.365 45.0643 256.287 45.5145C257.049 48.471 257.68 51.7488 257.831 54.8415C257.958 57.4063 257.753 59.6839 258.129 62.2122C258.192 62.7475 258.253 63.3023 258.153 63.8328C257.953 65.1663 256.26 65.2563 256.586 66.8015C256.62 67.1251 256.728 67.3563 256.932 67.5947C257.632 68.3783 259.546 70.2593 260.433 71.0379C261.14 71.5319 261.746 71.7898 262.363 72.459C263.981 73.9604 266.487 76.3743 268.237 77.8659C269.17 78.793 269.703 78.7492 270.904 79.3454C271.884 79.8613 272.113 80.8833 273.151 81.0463C276.381 81.7788 279.833 82.3044 283.429 82.0683L283.432 82.061ZM289.196 10.0606C290.724 10.2674 291.53 10.8855 291.23 12.4963C289.199 12.7665 289.028 11.9099 289.196 10.0606ZM288.84 14.2094C289.099 13.7544 290.115 13.4916 290.383 13.8469C290.677 14.1729 290.994 14.701 291.174 15.0246C291.445 15.4918 291.849 15.9201 291.662 16.5016L291.637 16.5649C291.593 16.5211 290.029 16.3216 289.623 16.1123C289.696 15.7862 289.491 15.4285 289.23 15.1901C288.921 14.8908 288.636 14.5477 288.84 14.2119V14.2094ZM290.044 76.2356L289.99 76.2745C289.391 76.3159 288.619 75.8 288.117 75.4739C286.536 74.3449 284.891 73.7657 283.802 72.3008C283.354 71.6146 283.2 70.6924 284.341 70.9528C285.434 71.1474 286.246 72.184 287.215 72.549C287.817 72.9822 288.709 73.8679 289.552 74.8072C289.876 75.1965 290.336 75.8438 290.044 76.2331V76.2356ZM294.634 73.8339C294.563 74.1745 294.549 74.5444 294.476 74.6125L294.395 74.6563C294.108 74.7318 293.706 74.6661 293.452 74.4884C291.311 72.9944 288.122 72.0088 286.545 69.6826C286.338 69.3151 286.202 69.1983 286.621 68.9428C286.928 68.7287 287.522 68.2907 287.7 68.1812C287.839 68.0984 288.322 68.1252 288.585 68.1447C288.792 68.3004 292.339 71.3859 293.937 72.7632C294.315 73.0893 294.58 73.318 294.663 73.391C294.712 73.4202 294.69 73.4908 294.634 73.8339ZM293.896 53.8001C293.996 53.6224 294.134 53.5008 294.232 53.4594L294.312 53.4399C296.242 54.0166 297.65 55.3599 298.644 57.1192C298.995 57.7372 299.497 58.3748 299.397 59.1072C299.343 59.4162 299.092 60.01 298.642 59.9151C298.266 59.5915 297.645 59.8178 297.319 59.5549C296.617 58.9831 296.008 59.0975 295.299 58.2896C294.953 57.9465 294.536 57.5134 294.295 57.2408C293.993 56.9902 294.142 56.6155 293.857 56.3405C293.406 55.8149 293.577 54.5301 293.898 53.8001H293.896ZM293.784 59.2143C294.634 59.6134 296.215 61.0588 297.119 61.6695C297.326 61.8326 297.328 61.8082 297.389 61.9348C297.779 62.7134 298.349 63.8547 298.773 64.6966C298.883 64.9521 298.997 65.03 298.914 65.1638C298.31 66.0301 297.182 65.7454 296.383 65.249C295.284 64.5896 294.193 63.4824 292.919 63.2439L292.875 63.1612C292.86 62.9811 292.807 62.6161 292.634 62.4847C291.947 61.4676 292.427 59.4162 293.781 59.2143H293.784ZM292.251 64.8451C292.575 65.0032 292.921 64.8426 293.267 65.0835C293.447 65.2028 293.62 65.4242 293.752 65.6189C294.619 66.9742 295.596 68.2298 296.78 69.4271C296.926 69.5998 296.973 69.9381 296.948 70.0889L296.922 70.1522C296.639 70.1352 295.231 69.8602 294.963 69.668C293.847 68.8455 287.179 65.2587 291.206 64.4436C291.681 64.3584 291.942 64.5774 292.256 64.8451H292.251ZM287.554 26.5052C287.337 26.6049 286.17 26.7193 285.897 26.6925C285.405 26.5173 285.103 25.9017 284.682 25.6121C282.44 24.0548 279.405 22.9695 277.633 20.7357C277.519 20.6237 277.426 20.5288 277.409 20.4315C277.387 20.1687 278.179 19.5166 278.311 19.4265L278.398 19.3949C278.991 19.5068 279.217 19.8816 279.955 19.7672C280.62 19.6869 280.842 20.3974 281.373 20.6554C283.956 21.3757 284.928 22.6556 285.573 25.1473C285.702 26.0039 287.586 25.892 287.554 26.5052ZM274.077 76.6371C273.153 78.1166 270.671 75.4958 271.253 74.6563L271.328 74.6247C272.488 74.4057 273.229 75.5348 273.952 76.255C274.096 76.3548 274.179 76.4838 274.079 76.6395L274.077 76.6371ZM270.746 69.7896C269.474 69.6558 268.134 69.8943 266.909 69.5852C266.3 69.3638 265.803 68.8309 265.284 68.5121C264.668 68.1057 263.681 67.6775 263.121 67.1008C262.709 66.6676 262.792 66.0496 262.39 65.5945C262.265 65.4485 262.117 65.2685 261.985 65.1273C261.539 64.6601 261.552 64.0785 261.398 63.5432C260.692 61.6817 261.237 59.5696 261.249 57.4842C261.271 56.6203 261.325 55.6421 260.986 54.861C260.799 54.3865 260.862 53.6735 261.344 53.3426C261.834 52.9557 262.516 53.4959 262.884 53.8877C263.669 54.8099 264.719 55.0435 265.81 55.4353C266.88 55.9682 267.576 56.0558 268.695 56.0461C269.584 56.0339 270.734 56.1239 271.496 55.883C272.31 55.411 272.844 55.2504 273.692 54.9194C274.915 54.0434 275.745 52.4982 275.524 51.009C274.252 46.3662 271.287 42.4996 268.225 38.9031C266.049 36.2386 263.676 33.7298 262.139 30.6224C261.432 28.408 261.464 26.0307 261.128 23.792C260.64 22.4196 260.509 20.9693 260.755 19.5287C260.93 18.8839 261.223 18.2026 261.247 17.5018C261.495 15.7254 261.729 13.6936 262.404 11.9805C263.337 10.8222 264.112 9.44006 265.396 8.56162C267.9 6.99454 270.132 4.32272 273.258 4.45655C273.847 4.44195 274.374 4.22295 274.917 4.03802C276.011 3.80442 277.414 3.81172 278.53 3.99422C279.531 4.33975 280.625 4.41519 281.549 5.01866C282.038 5.19629 282.552 5.24739 282.947 5.60753C283.403 6.0285 284.116 6.70984 284.436 7.14541C284.991 7.93381 285.227 8.90472 285.527 9.74423C285.466 12.124 285.683 16.801 285.444 18.0712L285.398 18.1442C284.881 18.8401 283.756 18.2634 283.13 17.9179C282.065 17.3752 280.567 16.6209 279.461 16.2559C279.059 16.1342 278.649 16.122 278.243 16.0198C277.633 15.8519 277.117 15.3701 276.632 15.5648C275.492 16.0612 273.67 16.745 272.469 16.4067C272.183 16.3118 271.801 16.1561 271.44 16.2121C270.227 16.56 269.996 17.8911 270.062 18.9569C270.076 19.5214 269.742 19.9813 269.767 20.4996C269.884 21.2564 270.086 21.6701 270.1 22.4001C270.588 25.7873 273.838 28.3569 276.296 30.71C278.294 32.4109 280.274 35.3455 282.835 36.5233C283.549 36.8347 284.082 37.027 284.609 37.684C286.833 40.5626 289.072 43.8428 289.959 47.2276C289.949 48.2618 290.251 49.0818 290.482 50.1062C291.296 59.387 284.46 68.8406 274.954 69.5682C273.623 70.0549 272.179 69.7945 270.731 69.7945L270.746 69.7896Z" fill="var(--fill-0, white)"/>
<g id="Group_2">
<path id="Vector_5" d="M69.9957 1.12773C68.6362 0.979293 65.625 0.56319 65.7297 2.70697C65.7517 3.39318 66.1853 3.96988 66.468 4.57822C66.8651 5.554 66.9187 6.60764 67.0088 7.76591C67.2476 14.6012 65.3789 21.9402 63.866 28.6392C62.2678 35.5767 60.1848 42.6018 58.7108 49.5709C57.5073 55.6105 56.9859 61.7766 55.6849 67.804C55.5071 68.6581 54.7104 69.191 54.9735 69.9162C55.1855 70.5026 55.5704 71.0282 55.9261 71.5708C56.8617 72.6318 57.5682 73.7511 58.1992 74.9897C58.645 75.6005 59.6439 76.0482 60.4868 76.9486C61.588 78.3891 62.2434 79.7347 63.7247 80.91C64.1267 81.2751 64.4629 81.3602 64.8161 81.46C65.4179 81.55 66.1342 82.4236 66.8553 82.4552C67.4595 82.4406 67.8591 81.9199 68.4097 81.7204C69.5523 81.4235 71.2236 80.5231 72.3321 80.8371C74.1764 81.3408 76.3105 81.4673 78.1694 81.3821C79.8139 81.1948 81.8945 80.6862 83.4099 81.0342C84.3235 81.1583 85.4759 81.9905 86.3432 81.3894C87.5175 80.4453 86.3846 79.0437 86.1532 77.9097C85.9607 76.4716 86.1922 74.138 87.8951 73.7779C88.9257 73.885 89.5396 75.0238 90.3777 75.5153C91.513 76.3548 93.367 77.1481 93.7544 78.7152C94.1125 79.7883 94.9482 80.9928 96.0713 81.3018C96.8485 81.4941 97.5185 80.9952 98.2543 80.8346C101.09 80.2701 104.891 80.6764 107.977 80.6132C110.75 80.5669 113.474 80.1095 116.249 80.4428C117.572 80.6862 119.971 80.9344 119.694 78.9317C119.591 78.2577 119.043 77.7808 118.843 77.153C118.705 71.4492 116.626 65.9571 114.816 60.5624C112.748 53.8074 111.422 46.7044 109.303 39.9543C108.206 34.0461 107.176 28.1112 105.527 22.3052C104.905 19.4168 103.775 16.3264 104.174 13.3626C104.433 12.5183 104.71 11.4451 104.011 10.6811L103.931 10.6056C103.721 10.411 103.451 10.2406 103.224 10.0557C102.652 9.59579 102.259 8.71249 101.745 8.30612C100.851 7.65641 99.7404 7.34008 98.8877 6.576C96.237 4.71206 91.6567 -1.10852 88.224 0.18602C87.3567 0.833292 86.5844 1.88693 85.4369 1.96967C83.5829 2.1765 78.3741 2.15947 75.068 2.04997C74.1788 2.00617 73.4528 2.01833 72.6293 1.90153C72.0446 1.83097 70.8338 1.29563 69.9957 1.13259V1.12773ZM79.1781 78.0703C79.0441 78.1944 78.4521 78.4962 78.1134 78.703C77.9136 78.8149 77.8528 78.8709 77.7772 78.8101C77.6237 78.6714 76.7905 77.8221 76.5201 77.5569C76.2692 77.3549 76.8173 76.8123 76.7613 76.6054C76.6809 76.3767 76.5639 76.1188 76.4129 75.929C75.7965 75.3231 75.0364 75.0895 74.4809 74.2792C74.0911 73.8387 73.7232 73.3861 73.1702 73.2109C72.9753 73.1525 72.8023 73.1671 72.7584 73.0333C72.7341 72.8435 72.6854 72.0502 72.8023 71.9432C73.2311 71.7631 73.5673 71.7825 73.962 71.8336C74.9365 71.9821 75.3166 73.3131 76.3447 73.1598L76.391 73.2061C76.4105 73.3594 76.3593 73.7828 76.5274 73.9312C77.2315 74.8194 78.3425 75.9071 79.0685 76.7709C79.1927 76.9267 79.2487 76.9802 79.2658 77.1749C79.2609 77.4425 79.2926 77.9365 79.1781 78.0728V78.0703ZM104.489 59.5769C104.321 59.0196 104.191 57.9611 104.06 57.3649C106.065 56.8442 107.519 59.1705 107.32 60.9274L107.266 60.9809C106.204 61.0928 105.137 60.375 104.489 59.5793V59.5769ZM111.566 70.6413C110.082 69.3395 108.397 68.1763 107.018 66.5873C106.708 66.1469 106.642 64.8791 106.499 64.2805C106.496 64.1905 106.62 64.2075 106.888 64.2051C107.23 64.2124 107.607 64.1881 107.668 64.2197L107.7 64.2659C107.7 64.4071 107.67 64.8475 107.841 65.0324C108.889 66.5679 110.735 67.7724 111.746 69.3516C112.005 69.8188 112.718 71.1255 111.564 70.6413H111.566ZM109.559 54.8902C110.584 55.72 111.671 57.0827 111.354 58.4502L111.286 58.5208C108.721 59.0707 107.227 55.0362 105.232 53.895C104.783 53.5397 104.213 53.4107 103.738 53.1212C102.659 52.2452 101.762 50.4274 102.917 49.3178C103.509 48.8993 103.975 49.7558 104.379 50.0819C106.145 51.7147 107.783 53.4229 109.559 54.8902ZM107.536 45.9793C108.109 46.8967 108.918 48.8604 108.93 50.0211L108.898 50.06C108.83 50.0989 108.589 50.0162 108.238 49.9432C107.527 49.7583 107.183 49.8215 106.781 49.3203C105.358 47.7216 103.78 46.4854 102.242 45.1787C101.251 44.2054 101.117 42.9619 101.18 41.497C101.192 41.1612 101.317 41.025 101.604 41.2342C103.38 42.5531 104.411 44.9427 106.657 45.4001C107.061 45.5121 107.3 45.5875 107.536 45.9793ZM106.486 40.9982L106.411 41.0712C105.782 41.2391 105.066 41.042 104.552 40.5894C102.518 38.7206 99.2336 37.5209 99.1459 34.4841C99.1484 34.0607 99.3116 34.18 99.6673 34.253C100.152 34.3965 100.71 34.4038 101.153 34.6569C101.838 35.1192 102.311 36.2094 102.774 36.7471C103.604 37.4187 104.581 38.2534 105.405 39.0442C106.021 39.5187 106.774 40.1538 106.489 40.9982H106.486ZM104.983 32.6299C105.232 33.1287 105.346 33.3745 105.034 33.922C104.389 36.0901 101.777 32.17 100.971 31.6128C100.581 31.2745 99.9743 31.058 99.4407 31.0312C98.9169 31.0093 98.4296 30.9655 98.1397 30.4788C97.4624 29.6393 97.4868 29.3473 97.4844 28.4032C97.3991 28.1233 97.1799 27.9238 97.0873 27.644C96.9289 27.1208 97.1944 26.274 97.6622 26.0672L97.7718 26.0526C98.951 26.5222 99.7331 27.6805 100.654 28.5224C101.2 28.9799 101.568 28.846 102.023 29.3984C102.915 30.345 104.452 31.3865 104.986 32.6275L104.983 32.6299ZM102.847 26.4127L102.786 26.4614C101.402 25.7776 100.669 24.0621 99.3676 23.2104C98.2299 22.3198 96.427 22.9403 95.6742 21.6166C95.1699 20.7965 94.9117 19.4776 95.8058 18.8279C95.9934 18.699 96.1931 18.7209 96.3491 18.8669C96.8875 19.3925 97.3772 19.9838 97.9205 20.4996C99.4992 21.894 100.98 23.3467 102.457 25.123C102.81 25.4588 102.986 25.9698 102.844 26.4103L102.847 26.4127ZM94.7411 6.7512C96.0226 7.81215 97.0678 8.22338 98.0472 9.59823C98.6587 10.3307 100.349 10.7711 99.9402 11.9902L99.8695 12.0583C99.7891 12.1143 99.677 12.124 99.5479 12.0973C98.2055 11.7323 96.8729 9.95106 95.5524 10.8757C95.0627 11.1896 95.2089 11.7615 95.5743 12.1021C96.8851 13.3748 97.7597 14.8397 99.1654 16.032C100.223 17.0346 101.892 17.8132 102.009 18.789C101.987 19.1735 101.477 19.6431 101.11 19.5555C100.547 19.4533 99.9596 18.295 99.2555 18.0249C97.9448 17.3825 96.6658 16.1707 95.584 15.0781C95.2844 14.7642 95.1674 14.4284 94.9798 14.1048C94.7825 13.7301 94.3927 13.4575 94.2538 13.0609C93.981 12.18 94.0102 11.0753 93.6594 10.1993C93.0333 8.90229 92.1562 4.94079 94.7387 6.7512H94.7411ZM73.5868 4.51252C75.1192 4.51739 85.2956 4.50035 86.5966 4.52225C87.481 4.94079 88.3507 5.97497 88.5188 7.00914C89.5688 10.1238 90.4581 13.2969 91.1963 16.5479C95.1358 29.7001 97.4941 43.5143 100.905 56.8028C101.497 58.9782 102.16 61.1829 102.766 63.3777C103.31 64.5652 103.729 66.0861 102.883 67.1908C102.213 67.8503 101.156 67.7602 100.286 67.894C98.3273 68.1812 96.0689 68.5535 93.9786 68.3345C93.1137 68.0741 92.2488 67.9233 91.4107 67.6532C90.4337 67.1008 90.1292 66.0617 89.7638 65.0057C89.1303 63.7841 89.7857 62.2122 89.2716 61.049C88.8964 60.5088 87.8878 59.4795 87.3226 59.1267C87.1545 59.0585 87.1838 59.0269 86.8037 58.988C84.4429 59.6693 81.0857 59.5306 77.5896 59.4844C76.9367 59.4455 76.525 59.4747 76.0255 59.3603C75.5261 59.134 75.0096 59.0269 74.3079 59.2678C72.6196 59.7277 71.8156 61.5892 71.8838 63.3753C72.0276 64.6601 71.8132 65.6797 71.1018 66.7577C70.807 67.1932 70.4903 67.4293 70.2929 67.4633C69.0772 67.4074 60.5283 67.6337 59.3808 67.3903L59.3199 67.3441C58.5451 66.6214 59.2322 65.6262 59.2346 64.7477C59.2029 64.0518 59.7219 63.6162 60.0093 63.0541C60.3455 62.0978 60.2481 60.8811 60.4308 59.8591C62.0315 50.5564 63.6346 41.3729 66.5703 32.4766C68.8141 24.5585 69.9762 16.3654 71.0823 8.21365C71.3698 7.47148 71.416 6.69037 71.9082 5.97497C72.1372 5.66593 72.5221 5.32039 72.7999 5.03812C73.236 4.65852 73.2506 4.50279 73.5868 4.51739V4.51252Z" fill="var(--fill-0, white)"/>
<path id="Vector_6" d="M75.241 48.6998L75.3068 48.7509C77.843 48.9407 85.9266 48.7825 86.7208 48.8141C87.1618 48.6803 87.7124 48.3177 88.0705 47.8603C88.5066 47.0524 87.8415 46.281 87.6856 45.4829C87.5443 45.1325 87.3153 44.7772 87.2788 44.4122C87.2178 44.0058 87.3421 43.5678 87.1886 43.1663C85.2834 38.2145 84.114 32.3184 83.0177 27.0746C82.8276 26.3543 82.0846 25.999 82.0456 25.2715C82.0212 25.0768 82.0115 24.8553 82.0041 24.6169C81.9798 23.7652 82.0261 22.478 82.1041 21.8015C82.1869 20.9304 82.4622 18.8425 81.3123 18.4021C80.8153 18.2123 80.2038 18.4191 79.7774 18.7914C79.3584 19.1954 78.7736 19.3949 78.5349 19.6626C78.2303 19.9838 78.5422 21.1567 78.3985 21.8258C78.2596 22.4999 77.575 22.8503 77.4824 23.5146C77.19 24.8943 77.1121 26.8337 76.9245 28.4202C76.0523 33.6787 75.336 39.0564 74.4833 44.3611C74.2787 45.7457 73.9157 47.7873 75.2386 48.7022L75.241 48.6998ZM79.7019 35.8371C81.5729 35.4867 82.3306 37.92 82.1016 39.4019L82.0383 39.4482C80.1331 39.5771 79.2 37.4333 79.7019 35.8371Z" fill="var(--fill-0, white)"/>
</g>
</g>
</svg>
