<svg preserveAspectRatio="none" width="100%" height="100%" overflow="visible" style="display: block;" viewBox="0 0 95.7914 41.0387" fill="none" xmlns="http://www.w3.org/2000/svg">
<g id="Group">
<path id="Vector" d="M71.2558 3.35044C71.4023 3.44491 71.5598 3.49457 71.7184 3.54422C72.3894 3.78523 72.7055 4.40168 72.5892 5.12956C72.9598 11.5581 72.479 18.0762 72.5541 24.4951C72.5674 25.8987 72.2973 27.2709 72.3821 28.6722C72.4221 29.4715 72.3724 30.4464 72.3603 31.2978C72.1557 31.9215 71.9413 32.5731 71.5501 33.1302C71.3987 33.3325 71.1977 33.5141 71.0305 33.6861C70.7338 33.961 70.6745 34.5569 70.8331 34.9457C70.9724 35.2206 71.2885 35.3647 71.5525 35.5076C73.8996 36.3699 75.3469 38.4603 77.1212 40.1026C77.3694 40.2915 77.6565 40.3545 77.9714 40.3545C78.8421 40.3666 79.7747 40.2721 80.6394 40.2878C82.4125 40.5276 84.1879 40.1001 85.9695 40.1122C88.692 40.3423 91.5103 39.7114 94.2413 39.87C94.5429 39.8652 94.7427 39.9863 94.9595 39.9935C95.4221 40.0117 95.7855 39.4619 95.6898 38.998C95.5953 37.0881 96.0144 35.0486 95.6159 33.2307C95.519 32.9304 95.5178 32.5925 95.5977 32.2849C95.7019 31.8404 95.6002 31.4323 95.4294 31.1113C94.9704 30.3423 93.9882 29.9947 93.3875 29.423C93.1186 29.0852 91.7549 28.2107 92.6499 27.9176C93.155 27.8365 94.0027 27.5047 94.2401 27.0796C94.6616 25.3768 93.7593 23.5528 93.6672 21.8549C93.6539 21.4249 93.62 20.8933 93.6999 20.5384C93.7641 20.209 94.0851 19.9074 94.2171 19.6155C94.4012 19.1541 94.0415 18.7242 93.7169 18.3826C93.2422 17.9006 92.788 17.7795 92.3641 17.2963C92.0444 16.916 90.8018 16.0743 91.4316 15.6492C91.6992 15.5947 92.438 15.539 93.1816 15.453C94.0609 15.3052 94.7972 15.4082 95.0867 15.1502L95.1097 15.1151C95.4318 14.5689 95.3531 13.6981 95.3034 13.0538C95.1424 11.3062 94.836 8.6914 95.2162 6.87596C95.2865 6.4557 95.5844 6.08026 95.4476 5.65032C95.238 5.25671 94.8238 4.92004 94.4859 4.62937C94.1214 4.35566 93.5946 4.2624 93.1937 3.99596C92.2357 3.39283 91.3516 2.24228 90.4082 1.30126C89.9637 0.841039 89.7893 0.618195 89.1559 0.687228C88.5624 0.78775 87.9072 1.26492 87.2193 1.06509C85.6606 0.750205 84.0184 0.748993 82.4779 0.79986C79.9648 1.11232 77.2617 1.00212 74.6723 1.04572C73.9227 1.08811 73.2045 1.10385 72.5081 1.27583C72.1157 1.41511 71.7584 1.53985 71.3176 1.50109C70.9349 1.46839 70.5594 1.78086 70.4674 2.16114C70.3245 2.63347 70.8452 3.06826 71.2594 3.34924L71.2558 3.35044ZM77.9786 38.2847C77.2968 37.7579 76.6561 36.8229 76.0082 36.313C75.8156 36.1834 75.617 36.2246 75.462 35.9642C75.4402 35.9073 75.5128 35.2521 75.5625 35.2836C75.7332 35.4459 76.0615 35.7014 76.2141 35.9085C76.2795 36.0042 76.2504 36.1822 76.2625 36.2379L76.2855 36.2609C76.3618 36.2706 76.575 36.2452 76.6379 36.3215C77.1999 36.8035 77.694 37.4091 78.2148 37.9456C78.388 38.166 78.2632 38.4397 77.9786 38.2847ZM81.7742 36.3942C81.7391 36.5564 81.7561 36.6582 81.687 36.6727C81.5986 36.6812 81.4908 36.686 81.4024 36.6884C81.3043 36.6957 81.1868 36.6969 81.0887 36.6909C80.6406 36.6473 80.2591 36.0587 79.7735 36.3215C79.593 36.4329 79.5724 36.4947 79.3823 36.6582C79.2721 36.7042 79.0662 36.6933 78.9378 36.6461C78.5079 36.3699 77.1151 35.5549 78.3759 35.2799C78.6399 35.2521 79.0274 35.1831 79.2382 35.3187C79.3326 35.4095 79.4247 35.4979 79.5628 35.481C80.0678 35.5125 81.0803 34.9457 81.6567 35.4446C81.733 35.4761 81.8239 35.4773 81.8735 35.4773L81.9111 35.481C81.9159 35.7038 81.8033 36.1422 81.7742 36.3942ZM84.7402 36.8834C84.2243 36.841 83.8561 36.2307 83.3135 36.2706C83.236 36.2755 83.2118 36.273 83.1852 36.2282C83.0507 36.0756 82.6002 35.567 82.5287 35.4858C82.8533 35.458 83.2384 35.4047 83.5291 35.567C83.913 35.7995 84.4156 36.4535 84.7523 36.8713L84.7402 36.8834ZM90.0037 38.6395L89.9734 38.6747C89.7082 38.7255 89.3376 38.751 89.0699 38.6843C88.7441 38.5572 88.1664 37.925 87.7462 37.529C87.5706 37.3122 87.3841 37.3231 87.1564 37.1826C86.6792 36.7732 86.2129 36.1762 85.6049 36.0902C85.4112 36.0623 85.3458 35.9121 85.2452 35.745C84.8298 35.1685 86.3861 35.2242 86.6102 35.2606C86.873 35.2884 87.2242 35.699 87.4906 35.8697C87.8431 36.0902 88.3905 36.2258 88.6496 36.6097C88.7368 36.7369 88.778 36.9052 88.8882 37.0203C89.426 37.4321 90.126 37.9044 90.0037 38.6395ZM90.625 18.5897C90.5874 18.918 90.3948 19.1856 90.0569 19.1105C89.8293 19.0633 89.7033 18.8538 89.5107 18.752C89.2709 18.706 89.0057 18.4904 88.8931 18.2615C88.7635 18.0387 88.7029 17.7916 88.6242 17.5324C88.5661 17.3726 88.5721 17.3629 88.6739 17.2115C88.7623 17.065 88.8725 16.8857 88.8785 16.8748L88.9088 16.8651C89.7602 16.7549 90.5862 17.2018 90.809 18.098C90.8224 18.2579 90.6359 18.3681 90.6225 18.5885L90.625 18.5897ZM87.5996 25.751C87.4967 25.4143 87.0183 25.143 86.9747 24.7736L86.9808 24.7482C87.3695 24.6126 88.4668 25.6868 88.8846 26.0041C89.5713 26.4692 89.696 27.1098 88.7017 27.1801C87.0788 27.3109 87.7764 26.5915 87.5984 25.751H87.5996ZM93.2155 31.1041C93.2942 31.4625 93.2252 32.2594 93.2434 32.6446L93.2349 32.6494C92.9454 32.5319 92.5882 32.1177 92.266 32.0378C92.1837 32.0281 92.0795 32.0548 91.9959 32.0402C91.8869 32.0305 91.8203 31.901 91.7162 31.8598C91.6205 31.8283 91.4739 31.8222 91.3734 31.7011C91.1591 31.4783 91.2656 31.2482 91.2245 30.9987C91.1833 30.8509 91.0404 30.7771 91.0089 30.622C90.9677 30.381 91.0573 30.1739 91.1336 29.9584C91.1833 29.853 91.1809 29.6919 91.2572 29.6374C92.1013 29.635 92.6499 30.6087 93.2167 31.1041H93.2155ZM91.4945 19.2801C91.7416 19.297 91.962 19.532 92.2091 19.5005L92.2345 19.5041C92.2345 19.6688 92.2345 20.0806 92.2345 20.2804C92.2236 20.4536 92.2624 20.5239 92.1982 20.513H91.7125C91.4788 20.5093 91.549 20.5457 91.4267 20.3785C91.3552 20.2792 91.2535 20.1363 91.17 20.0188C91.0597 19.8493 91.004 19.836 91.0137 19.7294C91.0488 19.5078 91.2293 19.2546 91.4957 19.2801H91.4945ZM93.0278 10.0055C92.3907 9.51496 91.3177 8.75801 90.568 8.10159C90.3609 7.90418 90.2326 7.79276 90.1926 7.64864C90.1526 7.49362 90.1502 7.27078 90.0582 7.11818C89.994 7.03946 89.914 6.94984 89.8402 6.87959C89.7748 6.80572 89.8813 6.71246 89.9625 6.54896C90.0788 6.35882 90.1575 6.18321 90.2011 6.15778L90.2423 6.14325C90.4324 6.09359 90.5983 6.24862 90.7303 6.37215C90.9847 6.57561 91.6241 7.17874 92.2333 7.78066C92.7008 8.28206 93.1634 8.63448 93.4832 9.15405C93.6951 9.62153 93.683 10.129 93.0278 10.0055ZM89.8075 4.3605C89.8099 4.24908 89.7941 4.16309 89.8825 4.14251C89.9685 4.11707 90.1357 4.1534 90.1756 4.10254C90.2398 4.04925 90.1635 3.81308 90.2592 3.74769C90.344 3.67986 90.545 3.69076 90.6613 3.7065C91.1421 3.78765 91.3577 4.24545 91.7174 4.52885C92.3314 5.02298 93.2276 5.32333 93.574 6.17474C93.6721 6.39516 93.7242 6.67855 93.528 6.85053C93.4093 6.94257 93.2288 6.90867 93.0447 6.87355C92.5506 6.79361 92.4549 6.77423 92.0298 6.39515C91.6302 6.09601 91.3383 5.70482 90.8284 5.74237C90.6637 5.73873 90.3803 5.79445 90.2483 5.746L90.2265 5.70845C90.212 5.66122 90.2241 5.57644 90.1914 5.49651C90.1187 5.29426 89.8111 5.17073 89.7941 4.97817C89.7651 4.8074 89.8026 4.57245 89.8087 4.36171L89.8075 4.3605ZM89.4974 13.0332C89.581 13.1035 89.6306 13.141 89.6524 13.2052C89.7142 13.4183 90.0121 14.323 90.0255 14.4284C89.9019 14.4514 89.621 14.1777 89.5216 14.0687C89.3267 13.8713 89.3557 13.7138 89.1159 13.5661C88.0986 12.986 87.0704 12.229 86.3861 11.3001C86.8306 10.6461 87.7534 11.1633 88.3481 11.2166L88.3687 11.2577C88.3481 11.4491 88.3759 11.7167 88.554 11.85C88.9343 12.1842 89.0905 12.7111 89.4974 13.0344V13.0332ZM74.4398 11.7228C74.6275 10.1399 74.8915 7.57597 74.4773 5.84773C74.3792 5.52073 74.0898 5.34876 74.0341 5.02055C73.9638 4.43075 73.9626 3.80945 74.3829 3.36134C74.5694 3.02102 75.2088 3.19058 75.2827 2.757C75.3009 2.71098 75.3251 2.67586 75.3602 2.66133C75.8459 2.53659 78.1058 2.64801 80.0714 2.70493C81.4908 2.70372 82.3095 2.89507 83.431 2.53053C83.5909 2.52447 83.7568 2.51478 83.9155 2.54869C84.6966 2.70856 85.4572 2.55112 86.0555 2.6686C86.3885 2.75095 86.6114 3.09369 86.9759 3.09732C87.493 3.07674 88.0005 3.1494 88.3723 3.51516C88.5055 3.64838 88.5564 3.75374 88.5903 3.90271C88.5564 4.50705 88.6799 7.99017 88.5443 8.67808C88.1422 9.1492 87.3102 8.9094 86.7337 8.98085C84.5561 8.94573 82.2054 8.46129 80.0339 8.58967C79.501 8.68171 79.0747 9.22793 79.0759 9.74628C79.0735 10.2901 79.8001 10.6146 79.8353 11.1596C79.8595 11.2844 79.868 11.4212 79.874 11.5472C79.8631 12.0026 80.1114 12.338 80.1162 12.8031C80.1259 13.3868 79.9927 14.0045 79.7965 14.5374C79.7057 14.805 79.719 15.0763 79.8437 15.3343C80.0956 15.8539 80.6455 16.1058 81.2014 16.0815C81.8687 16.1288 82.421 15.8042 83.0713 15.6661C84.062 15.5026 84.9824 15.8732 85.9283 15.8514C86.6065 15.7691 87.1624 16.2644 87.1975 16.9317C87.3429 17.4307 87.4143 17.5506 87.3804 18.138C87.338 19.0112 87.464 20.1884 87.3296 21.0362L87.3053 21.0713C86.6865 21.5836 85.7006 21.1779 84.888 21.3535C83.8658 21.4867 82.7649 21.4116 81.6652 21.3014C80.1017 21.1173 80.459 22.5452 80.5353 23.5758C80.6673 24.942 80.7605 26.0525 80.5474 27.4356C80.511 27.7759 80.4263 28.178 80.5619 28.4881C80.729 28.7545 81.0621 28.9544 81.3322 29.0185C81.7561 29.021 83.6163 29.0185 85.3324 29.0185C86.3377 29.0161 87.0837 29.021 87.929 29.0185C88.4777 29.0185 88.4413 28.9774 88.9185 29.3056C89.0142 29.3758 89.0748 29.4521 89.1317 29.5526C89.4829 30.2381 89.4587 31.0132 89.4453 31.8283C89.4344 32.5235 89.4877 32.8129 88.95 33.1714C88.1822 33.7467 87.2205 33.479 86.2214 33.5045C83.1089 33.2925 79.7323 33.1205 76.4757 33.4415C75.9609 33.4839 75.4256 33.5141 74.9182 33.4342C74.5452 33.3155 74.0958 32.9801 74.022 32.578C73.982 32.1117 73.9844 30.7032 74.0159 30.1739C74.0099 29.859 74.3538 29.6689 74.4362 29.4727C74.4422 28.3355 74.4301 16.2656 74.4386 11.7192L74.4398 11.7228ZM84.1431 13.5952L84.0995 13.64C83.4807 13.8495 83.1161 13.2948 82.6898 12.8939C82.2478 12.7752 81.8687 12.361 81.6531 12.0183C81.5078 11.7531 81.383 11.3171 81.5502 11.0434C81.8166 10.8774 82.037 11.2468 82.2211 11.4018C82.8424 11.9481 83.5739 12.4555 84.0487 13.0659C84.1649 13.204 84.2049 13.422 84.1419 13.594L84.1431 13.5952ZM86.5653 26.9185L86.5254 26.9548C85.8338 27.0166 85.4257 26.147 84.865 25.8721C84.722 25.7788 84.5065 25.8043 84.3975 25.7062C84.2243 25.338 84.039 25.0716 83.6163 24.925C83.0568 24.7058 82.2284 24.3606 82.3265 23.6473C82.4258 23.4947 82.6026 23.5444 82.7794 23.5238C82.9115 23.5177 83.0435 23.5056 83.1513 23.5335C84.148 24.0724 85.4136 25.1563 86.2359 26.1289C86.4418 26.3578 86.6974 26.6133 86.5653 26.9197V26.9185Z" fill="var(--fill-0, white)"/>
<g id="Group_2">
<path id="Vector_2" d="M53.5062 39.8044C53.5776 39.2243 53.4081 38.5449 53.7411 38.0968C54.0015 37.7286 54.4642 37.9357 54.6967 38.2651C54.9995 38.6599 54.9837 39.3817 55.4306 39.6627C56.1888 40.1241 57.2449 39.9728 58.1023 39.934C60.1394 39.9013 62.1837 39.9534 64.1772 39.7887C64.727 39.8734 65.2793 40.106 65.8086 39.8601L65.8546 39.8262C66.098 39.6276 66.0556 39.2449 65.9575 38.9736C65.771 38.3729 65.6923 37.5663 65.8134 36.9268C66.0677 35.2034 65.7141 32.9496 65.5191 31.2964C65.4125 30.439 65.5215 29.4531 65.266 28.6477C64.3843 26.9195 64.2935 24.5845 63.258 22.7751C62.6185 21.8559 61.8216 21.4502 62.9419 20.4062C63.7315 19.6795 64.2063 18.6561 64.3116 17.6097C64.3334 17.198 64.5417 16.8698 64.5321 16.4507C64.4933 14.6922 64.2801 12.5631 63.6419 11.0323C63.4917 10.4449 63.4481 9.78361 63.1066 9.23619C62.7869 8.82805 62.5253 8.40417 62.346 7.91489C61.979 7.20639 61.3057 6.88423 61.0526 6.16362C60.9593 5.99528 60.86 5.89355 60.6929 5.75548C59.8439 5.05789 58.6061 4.11929 57.6518 3.43865C56.3826 2.47582 55.0806 1.53359 53.5353 1.12181C52.6245 0.71367 51.5745 0.854155 50.5935 0.756056C46.4891 -0.00572699 42.0346 0.81177 37.8333 0.562283C37.1684 0.539272 36.7457 1.1097 37.1563 1.63895C37.9326 2.45403 37.8454 3.40232 37.952 4.42449C38.2645 8.03478 38.3214 11.9006 38.4001 15.6126C38.1446 19.5923 38.0549 23.7839 37.9011 27.7697C37.8236 28.5133 38.0489 29.3889 37.8491 30.0768C37.7776 30.2391 37.6662 30.3772 37.5778 30.5322C37.3513 30.898 37.4518 31.5084 37.2447 31.9589C36.902 32.7122 36.1523 33.6363 36.644 34.4634C36.8681 34.8655 37.3949 35.4299 37.9023 35.6273C38.6884 35.9543 39.3545 36.4678 39.983 36.9765C40.5983 37.5178 41.331 38.0895 41.509 38.6841C41.5684 38.9433 41.509 39.2316 41.641 39.4774C41.773 39.7317 42.0431 39.9873 42.2865 40.106C42.5748 40.2343 42.8812 40.1835 43.2627 40.1786C44.0959 40.0927 44.7887 40.3179 45.5771 40.4984C46.5605 40.6861 47.6336 40.5311 48.5758 40.5262C49.6294 40.4742 53.1162 41.0543 53.5062 39.8056V39.8044ZM50.6952 31.4405L50.6649 31.472C50.0969 31.5786 49.6476 31.0142 49.1753 30.8483C48.6933 30.4208 48.2246 30.0659 48.2246 29.4132C48.2161 29.1346 48.2645 28.9202 48.5818 29.0753C49.1777 29.6045 49.7263 30.1435 50.3258 30.6073C50.6165 30.789 50.7691 31.1063 50.6964 31.4405H50.6952ZM48.0683 26.2558C47.9714 25.9918 48.1943 25.9324 48.382 26.0439C48.508 26.119 48.5915 26.2582 48.7078 26.3587C49.363 26.8347 50.0412 27.3107 50.4869 28.0228C50.522 28.1342 50.516 28.3001 50.4954 28.4043L50.4845 28.4406C50.4082 28.523 49.9443 28.1621 49.4865 27.7321C49.0784 27.3519 48.7575 27.0285 48.405 26.6555C48.2694 26.5247 48.1349 26.4254 48.0671 26.2558H48.0683ZM62.019 32.8733L61.9839 32.8854C61.2924 33.0113 60.5923 32.8054 60.2084 32.1902C60.1709 32.0061 60.1818 31.5471 60.2084 31.3449C60.2375 31.2964 60.3247 31.2019 60.3865 31.1596C60.7522 30.8544 61.4135 31.2892 61.411 31.7603C61.5842 32.0497 62.1365 32.74 62.0178 32.8721L62.019 32.8733ZM62.3957 27.7963C62.5495 27.9538 62.7881 28.0809 62.9273 28.2335C63.0412 28.3704 63.1478 28.6877 63.2216 28.8161L63.2265 28.8379C63.2107 28.85 62.2612 28.5448 61.9427 28.4503C61.5322 28.0143 60.9835 27.238 60.5827 26.7572C60.4942 26.6397 60.4434 26.5961 60.3974 26.5053C60.3429 26.5428 60.5257 26.3212 60.5463 26.3224C60.6311 26.251 60.7074 26.2377 60.7655 26.2813C61.3347 26.7948 61.9088 27.2659 62.3957 27.7963ZM58.6291 15.5242C58.7817 15.3196 59.0954 15.1876 59.3243 15.3159C59.5363 15.4758 60.4482 16.3986 60.8346 16.8213C61.0477 17.0127 60.9496 17.043 61.061 17.2755C61.2124 17.439 61.4692 17.634 61.4123 17.881L61.3977 17.9137C61.3759 17.9367 61.3335 17.9089 61.2512 17.8956C61.0102 17.8241 60.6468 17.7999 60.4325 17.68C59.9129 17.3264 59.4248 16.7923 58.858 16.5185C58.7333 16.4834 58.5855 16.5295 58.5746 16.4665C58.5807 16.2654 58.5105 15.6647 58.6267 15.5242H58.6291ZM58.2852 17.7829C58.7624 18.3703 59.5472 18.7494 60.0595 19.2992C60.2157 19.4506 60.5051 19.6795 60.3695 19.9048C60.0595 20.0029 59.6864 19.992 59.3934 19.8503C58.6255 19.3477 57.8359 18.6428 57.1346 18.0312C56.85 17.7587 56.9082 17.3373 57.2231 17.1411C57.3175 17.072 58.0805 17.2973 58.1544 17.3094L58.1653 17.3348C58.1495 17.4571 58.175 17.6848 58.2852 17.7817V17.7829ZM40.6431 33.2863H39.8341C39.5725 33.2572 39.4453 33.3626 39.375 33.1942L39.3593 33.1591C39.0153 32.5002 39.1219 31.6888 39.1316 30.8495C39.1195 30.1689 39.4586 29.5391 39.5652 28.8694C39.7602 26.991 39.4017 22.763 39.719 21.1038C39.7553 20.8688 39.983 20.6508 40.1066 20.4934C40.2701 20.2124 40.1841 20.038 40.2228 19.602C40.2797 17.6098 40.2725 12.7096 40.1853 11.8788C40.1356 11.6632 39.9152 11.5397 39.7953 11.3096C39.6815 11.0855 39.6875 10.83 39.6524 10.5006C39.5398 8.92373 39.6924 6.11761 39.5906 4.59889C39.5616 3.85406 39.2612 2.51216 40.3294 2.54728C44.6579 2.57514 49.5447 1.72494 53.7314 2.98327C54.7645 3.39505 55.4125 4.1532 56.0979 5.03973C56.9954 6.12367 57.5464 7.36504 57.8771 8.73964C58.112 9.28221 58.2755 9.8369 58.0769 10.411C57.9921 10.8288 57.5319 10.8566 57.4859 11.3253C57.4471 11.7965 57.3648 12.2579 57.2182 12.6818C57.1976 12.7581 57.2279 13.0064 57.2836 13.1311C57.4774 13.5998 57.3308 14.0939 57.0269 14.4924C56.7568 14.8436 56.3038 15.001 56.0047 15.3341C55.3144 16.0208 54.1808 15.4177 53.4638 15.8718C53.2809 16.0244 52.9987 16.326 52.7916 16.5282C52.524 16.762 52.484 17.0369 52.53 17.3651C52.6427 17.881 53.2349 18.2117 53.6854 18.3885C54.9111 18.6888 56.1864 19.5366 56.8052 20.7211C57.1904 21.4962 57.6494 22.1514 57.5791 23.0028C57.7838 24.0201 58.3312 25.1695 58.1483 26.2643C58.1205 26.6155 58.1738 26.9098 58.4111 27.1653C58.657 27.4318 58.6304 27.6813 58.6836 28.1512C58.7781 29.2678 58.8399 31.1269 58.7914 31.9165C58.7733 32.0764 58.7091 32.1963 58.657 32.3549C58.5759 32.6092 58.5734 32.906 58.3361 33.0489C57.8565 33.3262 57.4604 33.3371 56.8343 33.3468C55.869 33.3444 55.031 33.394 54.188 33.0949C53.8102 33.0271 53.3233 33.1409 52.9769 33.0501C52.26 32.7061 52.5094 31.7457 52.4792 31.0675C52.7456 29.0389 52.3956 26.7027 52.151 24.6014C52.0189 23.8445 51.3189 22.9786 50.9362 22.3476C49.9564 21.1474 48.2888 20.8531 46.8366 20.7877C46.4975 20.7235 46.2892 20.514 45.9622 20.6993C45.2755 21.0226 45.4427 21.5725 45.6498 22.1344C46.3025 24.4549 46.2565 27.324 46.4261 29.8261C46.3667 30.3736 46.2202 30.68 46.2263 31.1511C46.1596 31.7893 46.4261 32.5996 46.0567 33.1458C45.9756 33.239 45.9114 33.2814 45.806 33.285C45.244 33.285 42.341 33.285 40.6419 33.285L40.6431 33.2863ZM47.9836 36.945C47.7801 36.9147 47.6663 36.7379 47.4785 36.7149C47.0764 36.6434 46.6501 36.9002 46.3498 37.1085C46.2602 37.1521 46.179 37.1218 46.0688 37.0758C45.5044 36.7888 44.8843 36.1227 44.4544 35.6261C44.2134 35.1162 45.0188 35.4142 45.3482 35.3233C45.9828 35.2967 46.7276 35.1683 47.3332 35.2979L47.3707 35.31C47.6626 35.4069 48.887 37.0782 47.9836 36.945Z" fill="var(--fill-0, white)"/>
<path id="Vector_3" d="M46.4312 15.561C46.9883 15.5574 47.7114 15.6179 48.1934 15.3745C48.3545 15.3176 48.5458 15.3151 48.7166 15.3212C49.0448 15.3466 49.2531 15.2546 49.5426 15.1371C49.9652 14.9748 50.3467 14.7144 50.6883 14.4262C50.8784 14.2421 50.9486 14.0386 51.0867 13.8303C51.2599 13.5748 51.582 13.2587 51.6886 13.0516C51.8315 12.7755 51.7019 12.423 51.8376 12.1215C51.88 11.987 51.9018 11.8671 51.8763 11.7521C51.7843 11.5062 51.7492 11.2313 51.7564 10.9636C51.7492 10.6996 51.5082 10.5361 51.4076 10.3024C51.3035 10.0202 51.3907 9.72832 51.203 9.46672C50.9123 8.99197 50.4097 8.28711 49.9023 8.057C49.3367 7.4684 48.7202 7.27342 47.9015 7.39453C47.5406 7.43934 47.1809 7.29644 46.8721 7.23588C46.619 7.23831 46.0933 7.26616 45.8632 7.44419L45.8366 7.48657C45.7736 8.07275 45.575 8.72795 45.5859 9.33229C45.6016 9.6387 45.7482 9.84217 45.776 10.1498C45.799 10.8498 45.6319 11.6503 45.6816 12.2922C45.7264 13.025 45.6513 13.7528 45.3909 14.4419C45.3546 15.0862 45.7215 15.6385 46.4337 15.561H46.4312Z" fill="var(--fill-0, white)"/>
</g>
<g id="Group_3">
<path id="Vector_4" d="M7.4939 0.56128C6.81811 0.487403 5.32119 0.280303 5.37326 1.34728C5.38416 1.68881 5.59974 1.97585 5.74023 2.27862C5.93764 2.76427 5.96428 3.28868 6.00909 3.86516C6.12778 7.26715 5.19887 10.9198 4.44677 14.254C3.65229 17.7069 2.6168 21.2033 1.88408 24.6719C1.28579 27.6779 1.02662 30.7468 0.37989 33.7467C0.291479 34.1718 -0.104551 34.437 0.026248 34.7979C0.131614 35.0898 0.322968 35.3514 0.499789 35.6215C0.964852 36.1495 1.31607 36.7066 1.62975 37.3231C1.85138 37.6271 2.34793 37.8499 2.76697 38.298C3.31439 39.015 3.64018 39.6847 4.37653 40.2697C4.57636 40.4514 4.74349 40.4937 4.9191 40.5434C5.21824 40.5882 5.57431 41.023 5.93279 41.0387C6.23315 41.0315 6.43177 40.7723 6.70548 40.673C7.27348 40.5252 8.1043 40.0771 8.65535 40.2333C9.57215 40.484 10.6331 40.547 11.5572 40.5046C12.3746 40.4114 13.4089 40.1583 14.1622 40.3314C14.6164 40.3932 15.1892 40.8074 15.6204 40.5083C16.2041 40.0384 15.641 39.3408 15.5259 38.7764C15.4303 38.0606 15.5453 36.8992 16.3919 36.7199C16.9042 36.7732 17.2094 37.34 17.626 37.5847C18.1904 38.0025 19.112 38.3973 19.3046 39.1773C19.4826 39.7114 19.898 40.3109 20.4563 40.4647C20.8427 40.5604 21.1757 40.3121 21.5415 40.2321C22.9512 39.9512 24.8405 40.1534 26.375 40.1219C27.7532 40.0989 29.1072 39.8712 30.4867 40.0372C31.1443 40.1583 32.3372 40.2818 32.1992 39.2851C32.1483 38.9496 31.8758 38.7122 31.7765 38.3997C31.7075 35.5609 30.6744 32.8275 29.7745 30.1424C28.7463 26.7804 28.0875 23.2452 27.0338 19.8856C26.4888 16.9451 25.9765 13.9912 25.1566 11.1015C24.8478 9.66392 24.2858 8.12582 24.4845 6.6507C24.6128 6.23044 24.7509 5.69635 24.4033 5.31606L24.3633 5.27852C24.2592 5.18164 24.1248 5.09686 24.0121 5.00481C23.7275 4.77592 23.5325 4.33628 23.277 4.13403C22.8325 3.81067 22.2802 3.65323 21.8564 3.27294C20.5387 2.34524 18.2618 -0.551722 16.5554 0.0925841C16.1242 0.414737 15.7403 0.939146 15.1699 0.980324C14.2482 1.08327 11.6589 1.07478 10.0154 1.02028C9.57337 0.998485 9.21246 1.00454 8.8031 0.94641C8.51244 0.911288 7.91052 0.644848 7.4939 0.563705V0.56128ZM12.0585 38.8563C11.9919 38.9181 11.6976 39.0683 11.5293 39.1712C11.43 39.2269 11.3997 39.2548 11.3622 39.2245C11.2859 39.1555 10.8717 38.7328 10.7372 38.6008C10.6125 38.5003 10.885 38.2302 10.8571 38.1272C10.8172 38.0134 10.759 37.885 10.6839 37.7906C10.3775 37.489 9.99967 37.3727 9.72354 36.9694C9.52977 36.7502 9.34689 36.525 9.07197 36.4378C8.97508 36.4087 8.88909 36.4159 8.86729 36.3493C8.85518 36.2549 8.83096 35.8601 8.88909 35.8068C9.10225 35.7171 9.26938 35.7268 9.46558 35.7523C9.95002 35.8261 10.139 36.4886 10.65 36.4123L10.673 36.4353C10.6827 36.5116 10.6573 36.7224 10.7409 36.7962C11.0909 37.2383 11.6431 37.7797 12.004 38.2096C12.0658 38.2871 12.0937 38.3137 12.1021 38.4106C12.0997 38.5439 12.1155 38.7897 12.0585 38.8575V38.8563ZM24.6419 29.652C24.5583 29.3746 24.4941 28.8478 24.4287 28.5511C25.4255 28.2919 26.1485 29.4497 26.0492 30.3241L26.0226 30.3508C25.4945 30.4065 24.9641 30.0492 24.6419 29.6532V29.652ZM28.1589 35.1588C27.4214 34.5109 26.5833 33.932 25.8978 33.1411C25.744 32.9219 25.7113 32.2909 25.6398 31.993C25.6386 31.9482 25.7004 31.9567 25.8336 31.9555C26.0032 31.9591 26.1909 31.947 26.2212 31.9627L26.2369 31.9857C26.2369 32.056 26.2224 32.2752 26.3072 32.3672C26.8279 33.1315 27.746 33.7309 28.2486 34.517C28.3769 34.7495 28.7318 35.3998 28.1577 35.1588H28.1589ZM27.1622 27.3194C27.6721 27.7324 28.2122 28.4106 28.0548 29.0912L28.0209 29.1263C26.7456 29.4 26.0032 27.392 25.0113 26.824C24.7884 26.6472 24.505 26.583 24.2689 26.4389C23.7324 26.0029 23.2867 25.0982 23.8607 24.5459C24.155 24.3376 24.3864 24.7639 24.5874 24.9262C25.4654 25.7389 26.2793 26.5891 27.1622 27.3194ZM26.1558 22.8843C26.4404 23.3409 26.8425 24.3183 26.8485 24.896L26.8328 24.9153C26.7989 24.9347 26.679 24.8935 26.5046 24.8572C26.1509 24.7652 25.9802 24.7966 25.7803 24.5472C25.0731 23.7515 24.2883 23.1362 23.5241 22.4859C23.0311 22.0014 22.9645 21.3825 22.996 20.6535C23.0021 20.4863 23.0638 20.4185 23.2067 20.5227C24.0896 21.1791 24.6019 22.3684 25.7186 22.5961C25.9196 22.6518 26.0383 22.6893 26.1558 22.8843ZM25.635 20.4052L25.5975 20.4415C25.285 20.5251 24.9289 20.427 24.6734 20.2017C23.6621 19.2716 22.0296 18.6745 21.986 17.1631C21.9872 16.9523 22.0683 17.0117 22.2451 17.048C22.4861 17.1195 22.7635 17.1231 22.9839 17.2491C23.3242 17.4792 23.5592 18.0217 23.7893 18.2894C24.2023 18.6236 24.6879 19.0391 25.0973 19.4327C25.4037 19.6688 25.7779 19.9849 25.6362 20.4052H25.635ZM24.8865 16.2402C25.0101 16.4885 25.067 16.6108 24.912 16.8833C24.591 17.9624 23.2927 16.0113 22.8919 15.734C22.6981 15.5656 22.3965 15.4578 22.1313 15.4445C21.8709 15.4336 21.6287 15.4118 21.4846 15.1696C21.1479 14.7518 21.16 14.6064 21.1588 14.1365C21.1164 13.9972 21.0074 13.8979 20.9614 13.7587C20.8826 13.4983 21.0146 13.0768 21.2472 12.9739L21.3017 12.9666C21.8879 13.2003 22.2766 13.7768 22.7344 14.1959C23.0057 14.4236 23.1886 14.3569 23.4151 14.6319C23.8583 15.103 24.6225 15.6213 24.8878 16.239L24.8865 16.2402ZM23.8244 13.1458L23.7941 13.1701C23.1062 12.8297 22.7417 11.9759 22.095 11.552C21.5294 11.1088 20.6332 11.4176 20.2589 10.7588C20.0082 10.3506 19.8798 9.69421 20.3243 9.37084C20.4176 9.30665 20.5169 9.31754 20.5944 9.39021C20.862 9.65181 21.1055 9.94611 21.3756 10.2029C22.1604 10.8968 22.8967 11.6199 23.6306 12.504C23.8062 12.6711 23.8934 12.9254 23.8232 13.1446L23.8244 13.1458ZM19.7963 3.36135C20.4333 3.88939 20.9529 4.09407 21.4397 4.77834C21.7437 5.14288 22.5842 5.36208 22.3808 5.96885L22.3456 6.00276C22.3057 6.03062 22.25 6.03546 22.1858 6.02214C21.5185 5.84048 20.856 4.95395 20.1996 5.41417C19.9561 5.5704 20.0288 5.85501 20.2105 6.02457C20.862 6.65797 21.2968 7.38704 21.9956 7.98048C22.5213 8.47946 23.3509 8.86702 23.409 9.35267C23.3981 9.54403 23.145 9.77777 22.9621 9.73417C22.6823 9.68331 22.3905 9.10682 22.0405 8.97238C21.3889 8.65265 20.753 8.04953 20.2153 7.50574C20.0664 7.34951 20.0082 7.18238 19.915 7.0213C19.8169 6.83479 19.6231 6.69914 19.5541 6.50173C19.4184 6.06331 19.4329 5.51347 19.2586 5.07748C18.9473 4.43196 18.5113 2.46029 19.7951 3.36135H19.7963ZM9.28028 2.24592C10.0421 2.24834 15.1008 2.23987 15.7476 2.25077C16.1872 2.45908 16.6196 2.97379 16.7031 3.48851C17.2251 5.03872 17.6672 6.61801 18.0341 8.23604C19.9925 14.782 21.1648 21.6575 22.8604 28.2713C23.1547 29.354 23.4841 30.4513 23.7856 31.5437C24.0557 32.1347 24.264 32.8917 23.8438 33.4415C23.5107 33.7697 22.9851 33.7249 22.5527 33.7915C21.579 33.9344 20.4563 34.1197 19.4172 34.0107C18.9873 33.8811 18.5573 33.806 18.1407 33.6716C17.655 33.3967 17.5037 32.8795 17.322 32.3539C17.0071 31.7459 17.3329 30.9636 17.0774 30.3847C16.8908 30.1158 16.3894 29.6035 16.1085 29.4279C16.0249 29.394 16.0394 29.3782 15.8505 29.3589C14.677 29.698 13.0081 29.6289 11.2701 29.6059C10.9455 29.5866 10.7409 29.6011 10.4926 29.5442C10.2443 29.4315 9.98756 29.3782 9.63876 29.4981C8.79947 29.727 8.39981 30.6535 8.43372 31.5425C8.50517 32.1819 8.3986 32.6894 8.04495 33.2259C7.89841 33.4427 7.74097 33.5602 7.64287 33.5771C7.03853 33.5493 2.78877 33.6619 2.21834 33.5408L2.18807 33.5178C1.80293 33.1581 2.14447 32.6628 2.14568 32.2255C2.12993 31.8792 2.3879 31.6624 2.53081 31.3826C2.69794 30.9067 2.6495 30.3011 2.74033 29.7924C3.53602 25.1624 4.33293 20.5917 5.79231 16.1639C6.90773 12.223 7.48543 8.1452 8.03527 4.08801C8.17818 3.71862 8.20119 3.32986 8.44583 2.97379C8.55967 2.81998 8.75103 2.64801 8.88909 2.50752C9.10588 2.31859 9.11315 2.24108 9.28028 2.24834V2.24592Z" fill="var(--fill-0, white)"/>
<path id="Vector_5" d="M10.1013 24.2383L10.134 24.2638C11.3947 24.3583 15.4131 24.2795 15.808 24.2953C16.0272 24.2287 16.3009 24.0482 16.4789 23.8205C16.6957 23.4184 16.3651 23.0345 16.2876 22.6373C16.2173 22.4629 16.1035 22.286 16.0853 22.1044C16.055 21.9021 16.1168 21.6841 16.0405 21.4843C15.0934 19.0197 14.5121 16.0852 13.9671 13.4753C13.8726 13.1168 13.5032 12.94 13.4839 12.5779C13.4717 12.481 13.4669 12.3708 13.4633 12.2521C13.4512 11.8282 13.4742 11.1875 13.5129 10.8508C13.5541 10.4173 13.691 9.37814 13.1193 9.15893C12.8723 9.06446 12.5683 9.1674 12.3563 9.3527C12.148 9.55374 11.8573 9.65305 11.7387 9.78627C11.5873 9.94613 11.7423 10.5299 11.6708 10.8629C11.6018 11.1984 11.2615 11.3728 11.2155 11.7034C11.0701 12.3901 11.0314 13.3554 10.9381 14.145C10.5045 16.7622 10.1485 19.4388 9.7246 22.079C9.62287 22.7681 9.44241 23.7842 10.1 24.2396L10.1013 24.2383ZM12.32 17.8365C13.2501 17.6621 13.6268 18.8732 13.5129 19.6107L13.4814 19.6337C12.5344 19.6979 12.0705 18.6309 12.32 17.8365Z" fill="var(--fill-0, white)"/>
</g>
</g>
</svg>
