<svg preserveAspectRatio="none" width="100%" height="100%" overflow="visible" style="display: block;" viewBox="0 0 252.01 84.8998" fill="none" xmlns="http://www.w3.org/2000/svg">
<g id="Group">
<path id="Vector" d="M202.654 6.25139C202.949 6.44119 203.266 6.54096 203.585 6.64072C204.935 7.12496 205.57 8.36353 205.337 9.82598C206.082 22.7422 205.115 35.8385 205.266 48.7353C205.293 51.5555 204.749 54.3125 204.92 57.1279C205 58.7339 204.901 60.6928 204.876 62.4034C204.464 63.6566 204.033 64.9657 203.246 66.0851C202.942 66.4915 202.537 66.8565 202.201 67.202C201.604 67.7544 201.485 68.9516 201.804 69.7327C202.084 70.2851 202.72 70.5746 203.251 70.8618C207.973 72.5943 210.884 76.7943 214.453 80.0939C214.953 80.4735 215.53 80.6 216.163 80.6C217.915 80.6244 219.791 80.4346 221.531 80.4662C225.097 80.948 228.669 80.089 232.253 80.1134C237.73 80.5757 243.399 79.3079 248.893 79.6267C249.499 79.617 249.901 79.8603 250.337 79.8749C251.268 79.9114 251.999 78.8067 251.806 77.8747C251.616 74.0373 252.459 69.9395 251.658 66.2871C251.463 65.6836 251.46 65.0047 251.621 64.3866C251.831 63.4936 251.626 62.6735 251.283 62.0287C250.359 60.4835 248.383 59.7851 247.175 58.6366C246.634 57.9577 243.891 56.2008 245.691 55.6119C246.707 55.4489 248.413 54.7822 248.89 53.9281C249.738 50.5068 247.923 46.8421 247.738 43.4306C247.711 42.5667 247.643 41.4985 247.804 40.7855C247.933 40.1237 248.578 39.5178 248.844 38.9313C249.214 38.0042 248.491 37.1404 247.838 36.4542C246.883 35.4857 245.969 35.2423 245.116 34.2714C244.473 33.5074 241.974 31.8162 243.24 30.9621C243.779 30.8526 245.265 30.7407 246.761 30.5679C248.53 30.271 250.011 30.4778 250.593 29.9595L250.639 29.889C251.287 28.7915 251.129 27.042 251.029 25.7474C250.705 22.2361 250.089 16.9825 250.854 13.3349C250.995 12.4905 251.594 11.7362 251.319 10.8723C250.898 10.0815 250.064 9.40502 249.385 8.82101C248.651 8.27108 247.592 8.0837 246.785 7.54836C244.858 6.33655 243.08 4.02487 241.182 2.13415C240.288 1.20948 239.937 0.761746 238.663 0.900447C237.469 1.10242 236.151 2.06116 234.767 1.65965C231.631 1.02698 228.328 1.02455 225.229 1.12675C220.174 1.75455 214.736 1.53312 209.527 1.62072C208.019 1.70588 206.574 1.73752 205.173 2.08305C204.384 2.36289 203.665 2.61353 202.779 2.53566C202.009 2.46996 201.253 3.09776 201.068 3.86183C200.781 4.81084 201.828 5.68441 202.662 6.24895L202.654 6.25139ZM216.178 76.439C214.806 75.3805 213.518 73.502 212.214 72.4775C211.827 72.2171 211.427 72.2999 211.115 71.7767C211.072 71.6623 211.218 70.3459 211.318 70.4092C211.661 70.7352 212.321 71.2487 212.628 71.6648C212.76 71.857 212.702 72.2147 212.726 72.3266L212.772 72.3729C212.926 72.3923 213.354 72.3412 213.481 72.4945C214.612 73.463 215.606 74.6797 216.653 75.7577C217.002 76.2005 216.751 76.7505 216.178 76.439ZM223.813 72.643C223.743 72.969 223.777 73.1734 223.638 73.2026C223.46 73.2197 223.243 73.2294 223.065 73.2343C222.868 73.2489 222.632 73.2513 222.435 73.2391C221.533 73.1515 220.766 71.9689 219.789 72.497C219.426 72.7208 219.384 72.8449 219.002 73.1734C218.78 73.2659 218.366 73.244 218.108 73.1491C217.243 72.5943 214.441 70.9567 216.977 70.4043C217.508 70.3483 218.288 70.2096 218.712 70.4822C218.902 70.6647 219.087 70.8423 219.365 70.8082C220.381 70.8715 222.417 69.7327 223.577 70.7352C223.731 70.7985 223.913 70.8009 224.013 70.8009L224.089 70.8082C224.098 71.256 223.872 72.1368 223.813 72.643ZM229.78 73.6236C228.742 73.5385 228.001 72.312 226.91 72.3923C226.754 72.4021 226.705 72.3972 226.652 72.3072C226.381 72.0006 225.475 70.9786 225.331 70.8155C225.984 70.7596 226.759 70.6525 227.344 70.9786C228.116 71.4458 229.127 72.7598 229.804 73.5993L229.78 73.6236ZM240.368 77.1544L240.307 77.225C239.774 77.3272 239.028 77.3783 238.49 77.2445C237.834 76.989 236.672 75.7187 235.827 74.923C235.474 74.4875 235.098 74.5094 234.64 74.2271C233.68 73.4046 232.742 72.205 231.519 72.0322C231.13 71.9762 230.998 71.6745 230.796 71.3387C229.96 70.1804 233.091 70.2924 233.542 70.3654C234.07 70.4213 234.777 71.2462 235.313 71.5893C236.022 72.0322 237.123 72.3047 237.644 73.0761C237.82 73.3316 237.903 73.6698 238.124 73.901C239.206 74.7284 240.614 75.6774 240.368 77.1544ZM241.618 36.8703C241.542 37.5297 241.155 38.0675 240.475 37.9166C240.017 37.8217 239.764 37.4007 239.376 37.1963C238.894 37.1039 238.361 36.6707 238.134 36.2108C237.873 35.7631 237.751 35.2667 237.593 34.7459C237.476 34.4247 237.488 34.4053 237.693 34.1011C237.871 33.8067 238.093 33.4465 238.105 33.4246L238.166 33.4052C239.878 33.1837 241.54 34.0816 241.988 35.8823C242.015 36.2035 241.64 36.425 241.613 36.8678L241.618 36.8703ZM235.532 51.2587C235.325 50.5822 234.363 50.0371 234.275 49.295L234.287 49.2439C235.069 48.9713 237.276 51.1297 238.117 51.7672C239.498 52.7017 239.749 53.9889 237.749 54.13C234.484 54.3928 235.888 52.9474 235.53 51.2587H235.532ZM246.829 62.0141C246.987 62.7344 246.849 64.3355 246.885 65.1093L246.868 65.1191C246.286 64.883 245.567 64.0508 244.919 63.8902C244.753 63.8707 244.544 63.9243 244.376 63.8951C244.156 63.8756 244.022 63.6152 243.813 63.5325C243.62 63.4692 243.326 63.4571 243.123 63.2137C242.692 62.766 242.907 62.3037 242.824 61.8024C242.741 61.5055 242.454 61.3571 242.39 61.0456C242.307 60.5614 242.488 60.1453 242.641 59.7121C242.741 59.5004 242.736 59.1768 242.89 59.0673C244.588 59.0624 245.691 61.0189 246.832 62.0141H246.829ZM243.367 38.2573C243.864 38.2913 244.308 38.7634 244.805 38.7001L244.856 38.7074C244.856 39.0384 244.856 39.8657 244.856 40.2672C244.834 40.6152 244.912 40.7563 244.783 40.7344H243.806C243.335 40.7271 243.477 40.8001 243.231 40.4643C243.087 40.2648 242.882 39.9776 242.714 39.7416C242.492 39.4009 242.38 39.3742 242.4 39.1601C242.471 38.7147 242.834 38.2062 243.37 38.2573H243.367ZM246.451 19.6227C245.17 18.6371 243.011 17.1163 241.503 15.7974C241.087 15.4008 240.828 15.1769 240.748 14.8874C240.668 14.5759 240.663 14.1282 240.478 13.8216C240.349 13.6634 240.188 13.4833 240.039 13.3422C239.908 13.1937 240.122 13.0064 240.285 12.6779C240.519 12.2958 240.677 11.943 240.765 11.8919L240.848 11.8627C241.23 11.7629 241.564 12.0744 241.83 12.3226C242.341 12.7314 243.628 13.9432 244.853 15.1526C245.794 16.16 246.724 16.8681 247.368 17.912C247.794 18.8513 247.769 19.8709 246.451 19.6227ZM239.976 8.27837C239.981 8.0545 239.949 7.88173 240.127 7.84037C240.3 7.78927 240.636 7.86226 240.716 7.76006C240.846 7.65299 240.692 7.17849 240.885 7.04709C241.055 6.91082 241.459 6.93273 241.693 6.96437C242.661 7.1274 243.094 8.0472 243.818 8.61661C245.053 9.60941 246.856 10.2129 247.553 11.9235C247.75 12.3664 247.855 12.9358 247.46 13.2813C247.221 13.4663 246.858 13.3981 246.488 13.3276C245.494 13.167 245.302 13.128 244.446 12.3664C243.642 11.7654 243.055 10.9794 242.03 11.0548C241.698 11.0475 241.128 11.1595 240.863 11.0621L240.819 10.9867C240.79 10.8918 240.814 10.7215 240.748 10.5609C240.602 10.1545 239.983 9.90629 239.949 9.51939C239.891 9.17628 239.966 8.70421 239.978 8.2808L239.976 8.27837ZM239.352 25.706C239.52 25.8472 239.62 25.9226 239.664 26.0516C239.788 26.4799 240.388 28.2976 240.414 28.5093C240.166 28.5555 239.601 28.0056 239.401 27.7866C239.009 27.3899 239.067 27.0736 238.585 26.7767C236.538 25.6111 234.47 24.0903 233.093 22.2239C233.987 20.9099 235.844 21.9489 237.04 22.056L237.081 22.1387C237.04 22.5232 237.096 23.061 237.454 23.3287C238.219 24.0003 238.534 25.0588 239.352 25.7085V25.706ZM209.062 23.0731C209.439 19.8928 209.97 14.7414 209.137 11.269C208.94 10.612 208.358 10.2664 208.246 9.60698C208.104 8.42194 208.102 7.17363 208.947 6.27329C209.322 5.58951 210.609 5.93019 210.757 5.05905C210.794 4.96658 210.843 4.89601 210.913 4.86681C211.89 4.61617 216.436 4.84005 220.39 4.95441C223.246 4.95198 224.893 5.33645 227.149 4.60401C227.47 4.59184 227.804 4.57238 228.123 4.64051C229.695 4.96171 231.225 4.64537 232.428 4.88141C233.098 5.04688 233.546 5.73552 234.28 5.74282C235.32 5.70145 236.341 5.84745 237.089 6.58233C237.357 6.85 237.459 7.0617 237.527 7.361C237.459 8.57525 237.708 15.5736 237.435 16.9557C236.626 17.9023 234.952 17.4205 233.792 17.564C229.412 17.4935 224.683 16.5201 220.315 16.7781C219.243 16.963 218.385 18.0605 218.388 19.1019C218.383 20.1945 219.845 20.8466 219.915 21.9416C219.964 22.1923 219.981 22.4673 219.993 22.7203C219.971 23.6353 220.471 24.3093 220.481 25.2437C220.5 26.4166 220.232 27.6576 219.837 28.7283C219.655 29.266 219.681 29.8111 219.932 30.3294C220.439 31.3733 221.545 31.8795 222.664 31.8308C224.006 31.9257 225.117 31.2735 226.425 30.9961C228.418 30.6676 230.27 31.4123 232.172 31.3685C233.537 31.203 234.655 32.1982 234.726 33.539C235.018 34.5415 235.162 34.7824 235.093 35.9626C235.008 37.7171 235.262 40.0823 234.991 41.7856L234.942 41.8562C233.697 42.8855 231.714 42.0703 230.08 42.4232C228.023 42.6908 225.809 42.54 223.597 42.3185C220.451 41.9487 221.17 44.8176 221.324 46.8884C221.589 49.6332 221.777 51.8646 221.348 54.6435C221.275 55.3272 221.104 56.1351 221.377 56.7581C221.713 57.2934 222.383 57.6949 222.927 57.8239C223.779 57.8287 227.521 57.8239 230.974 57.8239C232.996 57.819 234.497 57.8287 236.197 57.8239C237.301 57.8239 237.228 57.7411 238.188 58.4006C238.38 58.5417 238.502 58.695 238.616 58.897C239.323 60.2742 239.274 61.8316 239.247 63.4692C239.225 64.866 239.333 65.4476 238.251 66.1678C236.706 67.3237 234.772 66.7859 232.762 66.837C226.501 66.4112 219.708 66.0656 213.157 66.7105C212.122 66.7956 211.045 66.8565 210.024 66.6959C209.274 66.4574 208.37 65.7834 208.221 64.9755C208.141 64.0386 208.146 61.2087 208.209 60.1453C208.197 59.5126 208.889 59.1306 209.054 58.7364C209.067 56.4514 209.042 32.2007 209.059 23.0659L209.062 23.0731ZM228.579 26.8351L228.491 26.9251C227.246 27.3461 226.513 26.2316 225.655 25.4262C224.766 25.1877 224.003 24.3555 223.57 23.6669C223.277 23.134 223.027 22.258 223.363 21.708C223.899 21.3747 224.342 22.1168 224.712 22.4283C225.962 23.5258 227.434 24.5453 228.389 25.7717C228.623 26.0491 228.703 26.4871 228.576 26.8327L228.579 26.8351ZM233.451 53.6044L233.371 53.6774C231.98 53.8015 231.159 52.0544 230.031 51.502C229.743 51.3146 229.31 51.3657 229.09 51.1686C228.742 50.4289 228.369 49.8936 227.519 49.5991C226.393 49.1587 224.727 48.4652 224.924 47.0319C225.124 46.7253 225.48 46.8251 225.836 46.7837C226.101 46.7716 226.367 46.7472 226.583 46.8032C228.589 47.886 231.134 50.0639 232.789 52.0179C233.203 52.4778 233.717 52.9912 233.451 53.6069V53.6044Z" fill="var(--fill-0, white)"/>
<path id="Vector_2" d="M1.61148 54.5315C1.93551 55.337 2.42277 56.2835 2.75897 57.0501C3.84069 59.8508 5.04909 61.9606 6.95914 64.3477C11.0302 70.0953 16.0587 75.4073 22.8072 77.9964C24.5004 78.6777 25.8233 80.5124 27.5945 81.0405C32.433 82.4105 37.0132 83.6004 42.1684 83.5274C43.1965 83.5906 44.2929 83.4617 45.1724 83.9751C45.9154 84.6856 47.2457 84.7489 48.3371 84.5859C49.0534 84.4447 49.4456 83.8364 50.1765 83.7683C51.0463 83.6661 52.2254 83.9435 53.0611 83.7293C53.8724 83.5201 54.4449 82.8193 55.205 82.4956C56.333 81.9895 57.6121 81.167 57.5853 79.8165C57.6486 77.7457 57.5244 75.6409 57.1029 73.5312C56.5961 71.7329 57.1882 70.0685 56.9762 68.2873C56.4865 65.9586 55.6265 63.8002 55.9189 61.4155C55.953 60.8729 55.8604 60.3034 55.6874 59.8168C55.3122 58.9432 54.4814 58.6366 53.697 58.0794C51.9306 57.1815 51.0877 55.3345 49.5601 54.1446C48.3249 53.018 47.309 51.4071 46.2005 50.0031C45.779 49.4896 45.2381 49.0078 44.5852 48.8837C43.523 48.6161 42.6289 49.6721 41.8761 50.2002L41.8054 50.2732C40.0805 53.2589 35.9266 55.0207 33.0226 52.6968C32.0115 51.5945 30.1819 50.6966 29.8164 49.2366C29.1099 47.1998 29.278 44.7835 29.4315 42.6811C30.0308 41.1043 30.082 39.474 30.7836 37.9142C31.1759 37.1209 31.8337 36.5223 32.26 35.7412C32.7668 34.8408 33.0275 34.1644 33.5318 33.6972C33.9557 33.264 34.7524 32.9599 35.3492 32.7068C36.0801 32.3637 36.2287 32.1569 36.8305 31.6483C37.3178 31.2468 37.7124 31.0205 38.2387 30.9451C39.9587 30.8502 42.5266 30.6166 44.2271 31.5704C45.8448 32.096 47.7402 32.6168 48.9803 33.6436C49.5796 34.1546 50.1278 34.9455 50.9025 35.1572C51.307 35.2594 51.7698 35.1158 52.1597 34.9747C52.6347 34.7654 53.1585 34.7849 53.5922 34.8263C54.5789 34.9163 55.8872 34.05 55.931 32.9428C55.9164 29.1638 55.5851 25.0636 54.613 21.3017C54.3012 18.6591 55.2269 15.3083 54.401 12.7752C53.7603 11.5439 51.8941 12.1352 51.1754 11.7654C50.4323 11.3103 49.8988 10.5341 49.2507 9.87708C48.1471 8.61174 46.89 7.42913 46.3808 6.02022C46.1518 5.47028 46.0056 4.85951 45.628 4.40204C45.2796 3.9835 45.2503 4.10031 44.9287 3.81804C44.0127 3.3192 43.2574 2.27043 42.3097 1.86406C40.9259 1.61099 39.6322 0.469743 38.1266 0.486777C35.8121 -0.162928 33.3832 -0.211592 31.1442 0.642515C29.278 0.936951 27.329 0.971016 25.8599 2.26069C24.0814 3.20727 21.8839 3.1659 20.1809 4.25604C19.1966 4.79381 18.3074 5.45325 17.4425 6.20272C14.3776 8.97431 11.9316 12.291 9.125 15.3205C6.79834 18.2551 4.96869 21.9051 2.91977 25.0661C1.80638 28.5969 1.12179 32.1715 0.281266 35.768C-0.264464 40.9899 -0.05738 46.6572 1.26796 51.4704C1.48723 52.4778 1.20462 53.5679 1.61879 54.5242L1.61148 54.5315ZM52.6031 76.8673C51.3167 76.5461 50.6272 75.1128 49.4919 74.5434C48.4565 73.9838 47.4332 73.4752 46.8802 72.4337C46.7413 72.1806 46.4222 71.913 46.6317 71.621C46.9094 71.273 47.2944 71.1343 47.5697 71.1708C48.247 71.2389 48.8024 72.1417 49.4456 72.6819C50.5736 72.9691 51.2022 74.1249 52.2181 75.0277C52.4082 75.4413 52.5957 76.439 52.6591 76.8624L52.6031 76.8673ZM46.5854 61.323C46.9168 60.2669 46.9241 59.1671 48.2713 60.1429C48.7488 60.52 49.1557 60.9337 49.7891 61.5469C50.6516 62.4278 51.4897 62.9315 50.6857 63.9437C50.5736 64.0605 50.4396 64.2017 50.3349 64.3258C50.0523 64.6665 50.1984 65.4768 50.2204 66.0097C50.4957 66.674 52.2888 68.3676 53.027 69.358C53.1585 69.6694 53.161 69.9395 53.2803 70.5114C53.3559 71.0394 53.5191 71.4628 53.3705 71.5747L53.2925 71.6185C52.2108 71.8692 51.6115 70.5016 50.9805 69.8982C50.654 69.6159 50.1765 69.611 49.833 69.3628C49.1703 68.662 47.6696 67.9782 47.0142 67.1168C46.5635 66.3406 46.9947 64.557 46.9168 63.2916C46.7901 62.5835 46.2297 62.1309 46.5854 61.3255V61.323ZM52.6177 33.3468L52.5421 33.4198C51.9696 33.5877 51.5335 32.9234 51.1583 32.5778C50.4372 31.9281 47.8377 29.4145 46.8242 28.3462C46.4855 27.9228 46.1761 27.8231 46.0835 27.3486C46.0421 26.9495 46.2565 26.3387 46.6049 26.1562C47.1555 25.8739 47.6014 26.582 47.9497 26.9057C49.4944 28.2805 50.5176 29.9157 51.8283 31.2882C52.3326 31.8065 52.8004 32.6241 52.6152 33.3468H52.6177ZM45.7766 9.93548C47.0459 9.72378 47.5526 11.286 47.3455 12.2618L47.3212 12.3202C46.963 12.4443 46.5416 12.6852 46.181 12.7436C45.2308 12.819 44.8678 10.6777 45.7766 9.93548ZM45.3112 14.5102C46.5269 12.4102 48.398 18.4571 50.1302 17.9923L50.1765 18.0361C50.0425 19.0484 51.2144 19.7906 51.6383 20.613C52.2815 22.0171 51.5798 22.679 50.5054 21.382C48.5954 20.7006 47.4454 18.3914 45.8765 17.0579C45.6986 16.8681 45.4477 16.7221 45.3624 16.5153C45.2723 16.2646 45.3332 15.9021 45.2844 15.5687C45.2601 15.1769 45.2162 14.7754 45.3112 14.5102ZM24.9926 73.6382L24.9365 73.6553C23.6258 73.8329 22.8438 72.4994 22.03 71.6915C21.8936 71.5334 21.65 71.4068 21.7328 71.3241C21.879 71.1781 22.5124 70.543 22.661 70.397C23.5478 71.2657 24.7392 71.1659 25.3678 72.1685C25.3824 72.5432 25.0608 73.2732 24.9926 73.6382ZM44.3928 74.8914L44.4756 74.9498C44.7095 75.5995 44.3708 76.6434 44.5414 77.3442C44.5974 77.607 44.8703 77.809 44.936 78.0864C44.8605 79.2568 43.4231 77.8893 43.0236 77.5584C42.0076 76.8843 40.6677 76.2443 39.5397 75.6895C38.0072 75.2394 38.2874 76.3514 37.7612 77.1447C37.4152 77.1228 36.448 76.5315 36.0972 76.1154C35.5661 75.5581 34.153 74.2052 34.8595 74.0373C36.0996 74.1395 37.5833 73.5774 38.5895 74.3561C39.5786 74.6529 40.77 73.8353 41.8883 73.9765C42.3585 73.9911 42.8896 74.2003 43.3354 74.3682C43.6984 74.5605 44.0029 74.8257 44.3903 74.8914H44.3928ZM31.2563 32.2153C30.3597 32.427 28.7932 31.495 28.0233 30.7066C27.6262 30.1615 27.4191 30.1639 26.8344 29.906C26.1644 29.4948 25.4457 28.8451 24.6369 28.9132L24.5711 28.8499C24.3762 27.0712 26.2326 25.5868 27.8357 26.256C28.9564 27.1393 30.7812 28.1954 31.1807 29.6797C31.4707 30.0861 31.8775 30.3075 31.9482 30.8234C32.0067 31.3612 31.8483 32.1009 31.2538 32.2153H31.2563ZM24.6807 43.9537C25.0486 44.3431 25.9793 44.8638 25.8014 45.5549L25.7746 45.6109C25.6309 45.7058 24.6076 44.8444 24.2422 44.7738C24.001 44.7422 23.6039 44.9149 23.4017 44.6838C23.0387 44.365 22.4345 43.6958 22.1031 43.343C21.8936 43.1289 21.706 42.9512 21.6622 42.6641C21.5403 41.2503 22.9461 41.3987 23.7622 42.0533C24.2446 42.4329 24.6637 42.7492 24.5662 43.3649C24.5345 43.6082 24.5443 43.8199 24.6832 43.9513L24.6807 43.9537ZM24.8756 39.6102C24.7392 39.4545 24.5175 39.5421 24.364 39.4934C24.2544 39.4496 24.1618 39.345 24.0473 39.2525C23.0167 38.1819 21.248 37.0674 21.7645 35.4978C23.5552 34.7313 27.0317 38.8997 26.6005 40.6882L26.542 40.7369C25.7917 40.8342 25.358 40.0628 24.8756 39.6102ZM23.0387 32.1009C22.9315 31.9792 22.9095 31.8965 22.9193 31.6921C22.9436 31.1811 22.873 30.2248 22.9461 29.76L23.0119 29.7308C23.7257 29.5775 24.5955 30.108 24.9097 30.7626C24.9853 30.9937 24.9755 31.2152 25.1582 31.405C25.9914 32.4781 27.5214 33.3784 28.2036 34.5343C28.1744 34.7411 28.1354 35.7023 27.9527 35.8434C27.8479 35.9018 27.6189 35.8337 27.463 35.712C26.1717 34.3809 24.3543 33.3857 23.0362 32.1033L23.0387 32.1009ZM41.6032 26.3898L41.5447 26.4652C40.3071 26.8911 38.6261 25.9615 38.3532 24.6865C38.263 24.5672 38.1193 24.4894 37.9804 24.4456C37.3031 24.2801 37.0205 23.5355 36.2239 23.6109C35.6635 23.6353 35.1714 24.3507 35.2615 24.8519C35.8365 26.2535 38.4774 27.3388 36.3408 28.7794C35.7415 29.249 35.052 28.8524 34.4941 28.6285C33.1103 28.2878 32.4257 26.3046 30.9883 25.8885C29.546 24.6962 30.3622 23.9248 31.4707 22.9977C31.7849 22.7617 32.2016 22.9004 32.5475 22.6911C33.0835 22.2945 33.7559 22.3675 34.4283 22.3724C35.1227 22.3018 35.4564 22.6668 36.0582 22.8323C36.5991 22.8858 37.2495 22.769 37.7782 22.8055C38.4238 22.7593 39.0646 23.4357 39.6347 23.864C39.9173 24.0368 40.217 24.1025 40.4996 24.302C41.0355 24.7449 41.7128 25.7133 41.6032 26.3922V26.3898ZM2.98311 37.7195C3.03915 37.1452 3.11711 36.5929 3.21943 36.077C3.32419 35.1985 4.13304 34.6632 4.35474 33.8237C4.82495 31.9525 5.03203 29.7405 5.74099 27.8401C6.18927 26.5237 7.27098 25.2924 7.68759 23.92C7.80697 23.0513 8.53298 22.8444 8.97152 22.1412C11.515 17.2964 15.2401 12.9504 19.4573 9.46341C22.4832 6.87432 26.045 5.54572 29.909 4.50181C32.2649 3.68907 34.9497 3.5455 37.3811 3.69151C38.6309 3.99567 39.9197 4.25848 40.8723 5.24885C42.6264 7.35857 41.2865 10.4927 41.7348 13.1207C42.3779 14.9093 42.1465 17.7684 42.1294 19.5497C42.166 20.4524 41.0745 21.0389 40.2803 20.6568C39.815 20.4524 39.4861 20.029 39.0695 19.7443C38.4336 19.2577 37.5882 19.3234 36.9036 19.1652C36.409 19.0338 35.9486 18.8026 35.4345 18.7467C34.4844 18.6858 33.159 18.6712 32.2503 18.7661C31.8191 18.8367 31.4755 19.0095 31.076 19.1044C30.6326 19.226 30.121 19.1603 29.6946 19.3282C27.0464 20.5303 24.8683 22.258 22.8072 24.3263C21.3454 25.852 20.1443 27.2512 19.0626 28.9059C18.7362 30.0325 18.5632 31.1908 18.2002 32.298C17.8664 33.1083 17.9517 34.0086 17.9151 35.1694C17.9054 36.9287 17.8859 38.3449 18.5047 39.9533C18.7435 42.6349 18.9165 45.2848 20.0152 47.723C20.1346 48.2413 20.1882 48.3825 20.5512 48.7134C22.0617 50.0955 25.7844 54.1909 26.8953 54.899C27.5166 55.0401 28.2377 55.2956 28.8565 55.5803C29.9017 56.0427 31.1052 56.0159 32.2308 56.1278C34.633 56.8749 37.3105 56.9552 39.7078 56.0719C44.3489 54.1836 42.6752 59.06 42.8798 61.8681C43.2258 63.0823 43.4182 64.2041 43.372 65.4914C43.4304 67.3188 43.3939 68.752 41.9199 69.7789C38.1388 71.4312 33.8193 69.9006 30.0869 68.8202C26.793 67.7787 23.1093 67.4186 19.7911 66.4136C14.0025 64.3453 8.69622 59.515 5.1977 54.6362C4.29384 53.5728 4.5667 51.5434 4.24755 50.4021C4.20857 50.3048 4.1501 50.2391 4.07944 50.1831L4.00635 50.132C3.72374 49.986 3.37048 49.7573 3.34856 49.2074C3.12685 45.8518 2.62985 41.3184 2.97824 37.7195H2.98311Z" fill="var(--fill-0, white)"/>
<g id="Group_2">
<path id="Vector_3" d="M169.102 82.189C169.245 81.0234 168.904 79.6583 169.574 78.758C170.098 78.0183 171.029 78.4344 171.497 79.0962C172.106 79.8895 172.074 81.3398 172.973 81.9043C174.498 82.8314 176.622 82.5273 178.347 82.4494C182.445 82.3837 186.558 82.4883 190.568 82.1574C191.674 82.3277 192.785 82.7949 193.849 82.301L193.942 82.2328C194.432 81.8338 194.346 81.0648 194.149 80.5197C193.774 79.3128 193.616 77.6922 193.859 76.4074C194.371 72.9447 193.659 68.4162 193.267 65.0947C193.053 63.3719 193.272 61.3911 192.758 59.773C190.984 56.3006 190.802 51.6091 188.719 47.9736C187.432 46.1267 185.829 45.3116 188.083 43.214C189.671 41.754 190.626 39.6978 190.838 37.5954C190.882 36.7681 191.301 36.1086 191.282 35.2667C191.204 31.7335 190.775 27.4556 189.491 24.3799C189.189 23.1997 189.101 21.8711 188.414 20.7712C187.771 19.9512 187.245 19.0995 186.884 18.1164C186.146 16.6929 184.791 16.0456 184.282 14.5978C184.095 14.2596 183.895 14.0552 183.559 13.7777C181.851 12.3761 179.361 10.4903 177.441 9.12274C174.888 7.18823 172.269 5.29508 169.16 4.46774C167.328 3.6477 165.216 3.92996 163.242 3.73286C154.986 2.20228 146.025 3.8448 137.574 3.34352C136.236 3.29729 135.386 4.4434 136.212 5.50678C137.773 7.14443 137.598 9.04973 137.812 11.1035C138.441 18.3573 138.555 26.1246 138.714 33.5828C138.2 41.5788 138.019 50.0006 137.71 58.0088C137.554 59.5029 138.007 61.2622 137.605 62.6443C137.462 62.9704 137.237 63.2478 137.06 63.5593C136.604 64.2941 136.806 65.5206 136.39 66.4258C135.7 67.9393 134.192 69.796 135.181 71.4579C135.632 72.2658 136.692 73.3997 137.712 73.7964C139.294 74.4534 140.634 75.4851 141.898 76.5071C143.136 77.5949 144.61 78.7434 144.968 79.9382C145.087 80.4589 144.968 81.0381 145.233 81.532C145.499 82.043 146.042 82.5565 146.532 82.7949C147.112 83.0529 147.728 82.9507 148.495 82.9409C150.172 82.7682 151.565 83.2208 153.151 83.5833C155.13 83.9605 157.288 83.649 159.184 83.6393C161.303 83.5347 168.317 84.7002 169.102 82.1915V82.189ZM163.447 65.3867L163.386 65.45C162.243 65.6641 161.34 64.5302 160.389 64.1968C159.42 63.3378 158.477 62.6249 158.477 61.3133C158.46 60.7536 158.557 60.3229 159.196 60.6344C160.394 61.6978 161.498 62.7806 162.704 63.7126C163.289 64.0776 163.596 64.7151 163.449 65.3867H163.447ZM158.163 54.9695C157.968 54.4391 158.416 54.3198 158.794 54.5437C159.047 54.6946 159.215 54.9744 159.449 55.1764C160.767 56.1327 162.131 57.089 163.028 58.5198C163.099 58.7437 163.086 59.077 163.045 59.2863L163.023 59.3593C162.87 59.5248 161.937 58.7996 161.016 57.9358C160.195 57.1717 159.549 56.522 158.84 55.7725C158.567 55.5097 158.297 55.3102 158.16 54.9695H158.163ZM186.226 68.2654L186.156 68.2897C184.765 68.5428 183.356 68.1291 182.584 66.893C182.509 66.5231 182.53 65.6009 182.584 65.1945C182.643 65.0972 182.818 64.9073 182.942 64.8222C183.678 64.209 185.008 65.0826 185.003 66.0291C185.352 66.6107 186.463 67.9977 186.224 68.2629L186.226 68.2654ZM186.984 58.0648C187.293 58.3811 187.773 58.6366 188.054 58.9432C188.283 59.2182 188.497 59.8557 188.646 60.1136L188.655 60.1574C188.624 60.1818 186.714 59.5686 186.073 59.3788C185.247 58.5028 184.143 56.943 183.337 55.9769C183.159 55.7409 183.057 55.6533 182.964 55.4708C182.855 55.5462 183.222 55.1009 183.264 55.1034C183.434 54.9598 183.588 54.933 183.705 55.0206C184.85 56.0524 186.005 56.999 186.984 58.0648ZM179.407 33.4076C179.714 32.9964 180.345 32.7311 180.806 32.9891C181.232 33.3103 183.066 35.1645 183.844 36.0137C184.272 36.3982 184.075 36.459 184.299 36.9262C184.604 37.2547 185.12 37.6465 185.006 38.1429L184.977 38.2086C184.933 38.2548 184.847 38.1989 184.682 38.1721C184.197 38.0285 183.466 37.9799 183.035 37.739C181.99 37.0284 181.008 35.9553 179.868 35.4054C179.617 35.3348 179.319 35.4273 179.298 35.3007C179.31 34.8968 179.168 33.6899 179.402 33.4076H179.407ZM178.715 37.9434C179.675 39.1235 181.254 39.8852 182.284 40.9899C182.599 41.2941 183.181 41.754 182.908 42.2066C182.284 42.4037 181.534 42.3818 180.944 42.0971C179.4 41.0873 177.811 39.6711 176.401 38.4422C175.828 37.8947 175.945 37.0479 176.579 36.6537C176.769 36.515 178.304 36.9676 178.452 36.9919L178.474 37.043C178.442 37.2888 178.494 37.7463 178.715 37.9409V37.9434ZM143.226 69.0951H141.598C141.072 69.0367 140.816 69.2485 140.675 68.9102L140.643 68.8396C139.951 67.5159 140.166 65.8856 140.185 64.1992C140.161 62.8317 140.843 61.5664 141.057 60.2207C141.45 56.4466 140.729 47.9518 141.367 44.6181C141.44 44.146 141.898 43.708 142.147 43.3916C142.475 42.8271 142.302 42.4767 142.38 41.6007C142.495 37.5978 142.48 27.7525 142.305 26.0832C142.205 25.6501 141.762 25.4019 141.52 24.9395C141.291 24.4894 141.304 23.9759 141.233 23.3141C141.006 20.1458 141.313 14.5077 141.109 11.4563C141.05 9.95981 140.446 7.26365 142.595 7.33422C151.302 7.39019 161.133 5.68198 169.555 8.21024C171.633 9.03758 172.936 10.5609 174.315 12.3421C176.121 14.5199 177.229 17.0141 177.894 19.776C178.367 20.8661 178.696 21.9806 178.296 23.134C178.126 23.9735 177.2 24.0295 177.107 24.9712C177.029 25.9177 176.864 26.8448 176.569 27.6965C176.527 27.8498 176.588 28.3487 176.7 28.5993C177.09 29.541 176.795 30.5338 176.184 31.3344C175.641 32.0401 174.729 32.3564 174.128 33.0256C172.739 34.4053 170.459 33.1935 169.016 34.106C168.648 34.4126 168.081 35.0185 167.664 35.4248C167.126 35.8945 167.045 36.4469 167.138 37.1063C167.365 38.1429 168.556 38.8072 169.462 39.1625C171.928 39.766 174.493 41.4693 175.738 43.8491C176.513 45.4065 177.436 46.7229 177.295 48.4336C177.707 50.4776 178.808 52.7868 178.44 54.9866C178.384 55.6922 178.491 56.2835 178.969 56.797C179.463 57.3323 179.41 57.8336 179.517 58.7777C179.707 61.0213 179.831 64.7565 179.734 66.343C179.697 66.6642 179.568 66.9051 179.463 67.2239C179.3 67.7349 179.295 68.3311 178.818 68.6182C177.853 69.1755 177.056 69.1973 175.797 69.2168C173.855 69.2119 172.169 69.3117 170.473 68.7107C169.713 68.5744 168.734 68.8032 168.037 68.6207C166.595 67.9296 167.097 65.9999 167.036 64.6372C167.572 60.5614 166.868 55.8674 166.375 51.6456C166.11 50.1247 164.702 48.3849 163.932 47.1171C161.961 44.7056 158.606 44.1144 155.685 43.983C155.003 43.854 154.584 43.433 153.926 43.8053C152.545 44.455 152.881 45.5598 153.297 46.6888C154.611 51.3511 154.518 57.1157 154.859 62.1431C154.74 63.2429 154.445 63.8586 154.457 64.8051C154.323 66.0875 154.859 67.7154 154.116 68.8129C153.953 69.0003 153.824 69.0854 153.612 69.0927C152.481 69.0927 146.641 69.0927 143.223 69.0927L143.226 69.0951ZM157.992 76.4463C157.583 76.3855 157.354 76.0302 156.976 75.984C156.167 75.8404 155.31 76.3563 154.706 76.7748C154.525 76.8624 154.362 76.8016 154.14 76.7091C153.005 76.1324 151.758 74.7941 150.893 73.7964C150.408 72.7719 152.028 73.3705 152.691 73.188C153.967 73.1345 155.466 72.8766 156.684 73.137L156.759 73.1613C157.347 73.356 159.81 76.714 157.992 76.4463Z" fill="var(--fill-0, white)"/>
<path id="Vector_4" d="M154.869 33.4806C155.99 33.4733 157.444 33.595 158.414 33.1059C158.738 32.9915 159.123 32.9866 159.466 32.9988C160.126 33.0499 160.545 32.865 161.128 32.6289C161.978 32.3029 162.745 31.7797 163.432 31.2006C163.815 30.8307 163.956 30.4219 164.234 30.0033C164.582 29.4899 165.23 28.8548 165.445 28.4387C165.732 27.8839 165.472 27.1758 165.744 26.5699C165.83 26.2998 165.874 26.0589 165.822 25.8277C165.637 25.3337 165.567 24.7814 165.581 24.2436C165.567 23.7131 165.082 23.3846 164.88 22.915C164.67 22.348 164.845 21.7616 164.468 21.236C163.883 20.2821 162.872 18.8659 161.851 18.4035C160.713 17.2209 159.473 16.8292 157.826 17.0725C157.1 17.1625 156.377 16.8754 155.756 16.7537C155.246 16.7586 154.189 16.8146 153.726 17.1723L153.673 17.2574C153.546 18.4352 153.146 19.7516 153.168 20.9659C153.2 21.5815 153.495 21.9903 153.551 22.6084C153.597 24.0149 153.261 25.6233 153.361 26.913C153.451 28.3852 153.3 29.8476 152.776 31.2322C152.703 32.5267 153.441 33.6363 154.874 33.4806H154.869Z" fill="var(--fill-0, white)"/>
</g>
<g id="Group_3">
<path id="Vector_5" d="M79.1806 3.57226C77.8211 3.42383 74.8098 3.00773 74.9146 5.15151C74.9365 5.83772 75.3702 6.41442 75.6528 7.02276C76.0499 7.99854 76.1035 9.05217 76.1937 10.2104C76.4324 17.0457 74.5638 24.3847 73.0508 31.0838C71.4526 38.0212 69.3696 45.0463 67.8957 52.0154C66.6921 58.055 66.1708 64.2211 64.8698 70.2486C64.6919 71.1027 63.8953 71.6356 64.1584 72.3607C64.3703 72.9471 64.7553 73.4727 65.111 74.0154C66.0465 75.0763 66.753 76.1957 67.384 77.4342C67.8299 78.045 68.8287 78.4927 69.6717 79.3931C70.7729 80.8336 71.4283 82.1793 72.9095 83.3546C73.3115 83.7196 73.6477 83.8048 74.001 83.9045C74.6028 83.9946 75.319 84.8681 76.0402 84.8998C76.6444 84.8852 77.0439 84.3644 77.5945 84.1649C78.7372 83.868 80.4084 82.9677 81.517 83.2816C83.3612 83.7853 85.4954 83.9118 87.3543 83.8267C88.9988 83.6393 91.0794 83.1307 92.5948 83.4787C93.5084 83.6028 94.6608 84.435 95.5281 83.834C96.7024 82.8898 95.5695 81.4882 95.338 80.3543C95.1456 78.9162 95.377 76.5826 97.08 76.2224C98.1105 76.3295 98.7245 77.4683 99.5626 77.9598C100.698 78.7993 102.552 79.5926 102.939 81.1597C103.297 82.2328 104.133 83.4373 105.256 83.7464C106.033 83.9386 106.703 83.4398 107.439 83.2792C110.275 82.7146 114.076 83.121 117.162 83.0577C119.935 83.0115 122.659 82.554 125.434 82.8874C126.756 83.1307 129.156 83.3789 128.878 81.3763C128.776 80.7022 128.228 80.2253 128.028 79.5975C127.889 73.8937 125.811 68.4016 124.001 63.0069C121.933 56.2519 120.607 49.149 118.488 42.3988C117.391 36.4907 116.361 30.5557 114.711 24.7497C114.09 21.8613 112.96 18.771 113.359 15.8072C113.618 14.9628 113.895 13.8897 113.196 13.1256L113.116 13.0502C112.906 12.8555 112.636 12.6852 112.409 12.5002C111.837 12.0403 111.444 11.157 110.93 10.7507C110.036 10.101 108.925 9.78461 108.073 9.02053C105.422 7.15659 100.842 1.33601 97.4089 2.63056C96.5416 3.27783 95.7693 4.33147 94.6218 4.41421C92.7678 4.62104 87.559 4.60401 84.2529 4.49451C83.3637 4.45071 82.6377 4.46288 81.8142 4.34607C81.2295 4.27551 80.0186 3.74017 79.1806 3.57713V3.57226ZM88.3629 80.5149C88.2289 80.639 87.6369 80.9407 87.2983 81.1475C87.0985 81.2595 87.0376 81.3154 86.9621 81.2546C86.8086 81.1159 85.9754 80.2667 85.7049 80.0014C85.454 79.7995 86.0022 79.2568 85.9461 79.05C85.8657 78.8213 85.7488 78.5633 85.5978 78.3735C84.9814 77.7676 84.2212 77.534 83.6658 76.7237C83.276 76.2833 82.9081 75.8307 82.355 75.6555C82.1601 75.5971 81.9872 75.6117 81.9433 75.4778C81.919 75.288 81.8702 74.4947 81.9872 74.3877C82.416 74.2076 82.7522 74.2271 83.1468 74.2782C84.1214 74.4266 84.5014 75.7577 85.5295 75.6044L85.5758 75.6506C85.5953 75.8039 85.5442 76.2273 85.7123 76.3757C86.4163 77.2639 87.5273 78.3516 88.2533 79.2155C88.3776 79.3712 88.4336 79.4247 88.4506 79.6194C88.4458 79.8871 88.4774 80.381 88.3629 80.5173V80.5149ZM113.674 62.0214C113.505 61.4641 113.376 60.4056 113.245 59.8095C115.25 59.2887 116.704 61.615 116.505 63.3719L116.451 63.4254C115.389 63.5374 114.322 62.8195 113.674 62.0238V62.0214ZM120.751 73.0858C119.267 71.784 117.581 70.6209 116.202 69.0319C115.893 68.5914 115.827 67.3237 115.684 66.7251C115.681 66.635 115.805 66.6521 116.073 66.6496C116.414 66.6569 116.792 66.6326 116.853 66.6642L116.885 66.7105C116.885 66.8516 116.855 67.292 117.026 67.477C118.074 69.0124 119.92 70.2169 120.931 71.7962C121.19 72.2634 121.903 73.5701 120.749 73.0858H120.751ZM118.746 57.3348C119.772 58.1645 120.858 59.5272 120.541 60.8948L120.473 60.9653C117.908 61.5153 116.414 57.4808 114.419 56.3395C113.971 55.9842 113.401 55.8553 112.926 55.5657C111.846 54.6897 110.95 52.872 112.105 51.7624C112.697 51.3438 113.162 52.2004 113.566 52.5265C115.333 54.1592 116.97 55.8674 118.746 57.3348ZM116.721 48.4238C117.294 49.3412 118.103 51.3049 118.115 52.4656L118.083 52.5045C118.015 52.5435 117.774 52.4607 117.423 52.3877C116.712 52.2028 116.368 52.2661 115.966 51.7648C114.543 50.1661 112.965 48.93 111.427 47.6232C110.436 46.6499 110.302 45.4065 110.365 43.9416C110.377 43.6058 110.502 43.4695 110.789 43.6788C112.565 44.9977 113.596 47.3872 115.842 47.8447C116.246 47.9566 116.485 48.0321 116.721 48.4238ZM115.674 43.4427L115.598 43.5157C114.97 43.6836 114.253 43.4865 113.739 43.0339C111.705 41.1651 108.421 39.9655 108.333 36.9287C108.336 36.5053 108.499 36.6245 108.855 36.6975C109.339 36.8411 109.897 36.8484 110.341 37.1014C111.025 37.5638 111.498 38.6539 111.961 39.1917C112.792 39.8633 113.769 40.6979 114.592 41.4888C115.208 41.9633 115.961 42.5984 115.676 43.4427H115.674ZM114.168 35.0744C114.417 35.5733 114.531 35.819 114.219 36.3666C113.574 38.5347 110.962 34.6145 110.156 34.0573C109.766 33.7191 109.159 33.5025 108.626 33.4757C108.102 33.4538 107.615 33.41 107.325 32.9234C106.647 32.0839 106.672 31.7918 106.669 30.8477C106.584 30.5679 106.365 30.3683 106.272 30.0885C106.114 29.5653 106.379 28.7185 106.847 28.5117L106.957 28.4971C108.136 28.9667 108.918 30.125 109.839 30.9669C110.385 31.4244 110.752 31.2906 111.208 31.843C112.1 32.7895 113.637 33.831 114.171 35.072L114.168 35.0744ZM112.032 28.8572L111.971 28.9059C110.587 28.2221 109.853 26.5066 108.552 25.6549C107.415 24.7643 105.612 25.3848 104.859 24.0611C104.355 23.241 104.097 21.9222 104.991 21.2725C105.178 21.1435 105.378 21.1654 105.534 21.3114C106.072 21.837 106.562 22.4283 107.105 22.9442C108.684 24.3385 110.165 25.7912 111.642 27.5676C111.995 27.9034 112.17 28.4144 112.029 28.8548L112.032 28.8572ZM103.926 9.19818C105.207 10.2591 106.253 10.6704 107.232 12.0452C107.844 12.7776 109.534 13.2181 109.125 14.4372L109.054 14.5053C108.974 14.5613 108.862 14.571 108.733 14.5442C107.39 14.1792 106.058 12.398 104.737 13.3227C104.248 13.6366 104.394 14.2084 104.759 14.5491C106.07 15.8218 106.945 17.2866 108.35 18.479C109.408 19.4815 111.076 20.2602 111.193 21.236C111.171 21.6204 110.662 22.0901 110.294 22.0025C109.732 21.9003 109.145 20.742 108.44 20.4719C107.13 19.8295 105.851 18.6177 104.769 17.5251C104.469 17.2112 104.352 16.8754 104.165 16.5518C103.967 16.177 103.578 15.9045 103.439 15.5079C103.166 14.627 103.195 13.5222 102.844 12.6462C102.218 11.3493 101.341 7.38777 103.924 9.19818H103.926ZM82.7741 6.95706C84.3065 6.96192 94.4829 6.94488 95.7839 6.96678C96.6683 7.38532 97.538 8.4195 97.7061 9.45368C98.7562 12.5684 99.6454 15.7415 100.384 18.9924C104.323 32.1447 106.681 45.9588 110.092 59.2474C110.684 61.4228 111.347 63.6274 111.954 65.8223C112.497 67.0098 112.916 68.5306 112.07 69.6354C111.401 70.2948 110.343 70.2048 109.473 70.3386C107.515 70.6257 105.256 70.998 103.166 70.779C102.301 70.5187 101.436 70.3678 100.598 70.0977C99.621 69.5453 99.3165 68.5063 98.9511 67.4502C98.3176 66.2287 98.973 64.6567 98.4589 63.4936C98.0837 62.9534 97.0751 61.9241 96.5099 61.5712C96.3418 61.5031 96.371 61.4714 95.991 61.4325C93.6302 62.1139 90.273 61.9752 86.7769 61.9289C86.124 61.89 85.7123 61.9192 85.2128 61.8048C84.7134 61.5785 84.1969 61.4715 83.4952 61.7124C81.8069 62.1723 81.0029 64.0338 81.0711 65.8199C81.2149 67.1047 81.0005 68.1242 80.2891 69.2022C79.9943 69.6378 79.6776 69.8738 79.4802 69.9079C78.2645 69.8519 69.7156 70.0782 68.5681 69.8349L68.5072 69.7887C67.7324 69.0659 68.4195 68.0707 68.4219 67.1923C68.3902 66.4963 68.9092 66.0608 69.1966 65.4987C69.5328 64.5423 69.4354 63.3257 69.6181 62.3037C71.2188 53.001 72.8218 43.8175 75.7576 34.9211C78.0014 27.003 79.1635 18.8099 80.2696 10.6582C80.5571 9.91602 80.6033 9.13491 81.0955 8.4195C81.3245 8.11047 81.7094 7.76494 81.9872 7.48267C82.4233 7.10307 82.4379 6.94733 82.7741 6.96193V6.95706Z" fill="var(--fill-0, white)"/>
<path id="Vector_6" d="M84.4259 51.1443L84.4917 51.1954C87.0278 51.3852 95.1115 51.227 95.9057 51.2587C96.3467 51.1248 96.8973 50.7623 97.2554 50.3048C97.6915 49.4969 97.0264 48.7255 96.8705 47.9274C96.7292 47.577 96.5001 47.2217 96.4636 46.8567C96.4027 46.4504 96.5269 46.0124 96.3735 45.6109C94.4683 40.659 93.2989 34.763 92.2025 29.5191C92.0125 28.7988 91.2694 28.4436 91.2305 27.716C91.2061 27.5213 91.1963 27.2999 91.189 27.0614C91.1647 26.2097 91.211 24.9225 91.2889 24.246C91.3718 23.3749 91.6471 21.2871 90.4971 20.8466C90.0001 20.6568 89.3886 20.8637 88.9623 21.236C88.5432 21.6399 87.9585 21.8394 87.7198 22.1071C87.4152 22.4283 87.7271 23.6012 87.5833 24.2704C87.4445 24.9444 86.7599 25.2948 86.6673 25.9591C86.3749 27.3388 86.297 29.2782 86.1094 30.8647C85.2372 36.1232 84.5209 41.5009 83.6682 46.8056C83.4636 48.1902 83.1005 50.2318 84.4235 51.1467L84.4259 51.1443ZM88.8892 38.2816C90.7602 37.9312 91.5179 40.3646 91.2889 41.8465L91.2256 41.8927C89.3204 42.0217 88.3873 39.8779 88.8892 38.2816Z" fill="var(--fill-0, white)"/>
</g>
</g>
</svg>
