<svg preserveAspectRatio="none" width="100%" height="100%" overflow="visible" style="display: block;" viewBox="0 0 378.143 81.3402" fill="none" xmlns="http://www.w3.org/2000/svg">
<g id="Group">
<path id="Vector" d="M91.3165 11.5069C90.4492 10.811 89.7524 11.1054 89.1507 10.5068C88.946 10.3341 88.7682 10.1199 88.5757 9.91066C87.0457 8.11728 85.1162 4.48672 84.2342 2.82231C83.8542 2.04607 83.4619 1.20413 82.6214 0.802623C80.19 -0.182885 77.3517 0.812356 74.8082 0.578754C69.9186 0.396253 65.007 0.279452 60.1345 0.476554C59.0771 0.605521 58.5241 1.65916 58.624 2.63007C58.624 3.48174 59.2257 4.50862 59.2014 5.35786C58.7433 6.50153 56.1804 4.00491 56.0342 3.37224C55.5494 1.86843 54.7917 0.104251 53.0083 0.109117C52.2993 0.101817 51.7439 0.442487 51.0447 0.51062C46.9566 1.00702 40.9584 1.13843 36.7046 0.84399C35.3598 0.49602 33.3401 -0.117185 32.1536 0.763689C31.1669 1.68593 31.9319 3.21164 32.4923 4.20932C33.345 6.0246 32.887 8.29005 32.0196 10.0031L31.949 10.0494C30.229 9.95933 27.3931 5.12182 26.9278 3.79565C26.7938 3.36738 26.806 2.88314 26.7743 2.43297C26.7353 1.59346 25.8607 0.702855 25.0616 0.403553C23.3684 -0.00525027 20.3693 0.719889 18.3106 0.435187C16.0303 0.0190832 12.9922 0.116417 9.89569 0.0774837C6.9697 -0.160985 4.13142 0.201585 1.26391 0.48142C0.564691 0.744222 -0.283139 1.57886 0.0920502 2.38917C0.435567 3.24084 1.31507 5.29946 1.65859 6.16573C1.96069 6.97117 1.77553 7.68414 1.89491 8.56502C2.16533 10.5604 3.0692 12.3026 3.1837 14.3004C3.78547 20.3546 4.16797 26.1509 5.24237 32.0079C5.76861 34.8501 6.24369 37.7653 6.38499 40.6561C6.53848 41.5004 7.37169 41.8922 7.35951 42.8193C8.05629 48.1289 9.41574 53.1051 10.3781 58.3392C11.1163 61.05 10.9238 63.7218 10.8385 66.6589C10.936 68.0848 11.8569 69.321 12.9508 70.1726C15.3481 71.9977 18.6883 74.2242 19.9015 77.1272C20.0964 77.6576 20.496 78.0032 20.9029 78.3609C21.3731 78.7575 21.3974 79.3026 21.7726 79.8233C22.4426 80.6799 23.4878 81.8381 24.6401 81.1106C25.315 80.7212 25.6366 79.9474 26.1457 79.3926C26.7646 78.7161 28.0826 78.884 28.967 79.2174C29.7929 79.5921 31.0549 79.4851 31.9953 79.7844C32.4582 79.9523 32.8772 80.3587 33.3864 80.4219C34.0759 80.5095 34.5339 79.872 35.1746 79.743C36.5633 79.4802 38.9558 79.9815 40.554 79.8306C41.8915 79.5824 43.2412 78.7599 43.9624 77.5871C44.6616 75.453 45.4534 73.0416 46.272 70.8369C46.4644 70.0461 46.3402 69.1701 46.976 68.5618C47.8507 67.6395 49.1979 68.5131 50.0604 69.0874C50.7328 69.5984 50.974 70.3162 51.4734 71.0048C53.2446 73.2995 55.391 75.1342 57.1841 77.3656C58.1099 78.3828 58.8871 79.9012 60.4634 79.7819C61.5597 79.8428 62.3344 79.249 63.5112 79.3683C64.2372 79.3804 64.99 79.4802 65.7038 79.3512C66.4688 79.1663 67.1071 79.2612 67.9403 79.3561C68.1352 79.3634 68.3594 79.3707 68.5543 79.3902C69.5507 79.4218 70.077 80.4243 71.071 80.5266C71.8019 80.5825 72.3525 79.9864 72.9908 79.7552C74.1967 79.4218 76.6769 79.5532 78.2239 79.3756C78.8013 79.2734 79.2886 79.0446 79.8757 78.9887C82.1683 79.0033 83.0234 79.3147 83.1891 76.8084C83.613 74.723 83.6861 72.3675 84.2513 70.287C84.6094 69.4061 85.3184 68.7929 85.3842 67.8026C85.7447 60.4198 87.1261 53.1489 87.5476 45.6371C87.6962 42.4203 88.0958 39.3421 88.6123 36.1446C88.7243 34.6676 88.5757 33.0981 88.7097 31.9203C88.8242 30.9154 89.7646 30.3216 89.8475 29.2607C90.2957 26.6254 89.8962 23.5691 90.476 20.997C90.8098 19.5297 92.0864 17.9772 92.4007 16.5975C92.503 15.9721 92.5006 15.2275 92.6736 14.6825C92.8977 13.6215 92.3203 12.125 91.3165 11.5069ZM79.7222 17.9115C79.7685 17.7144 79.6906 17.291 79.7831 17.1669C80.3118 17.0063 80.9209 17.0964 81.3862 17.364C81.6786 17.5514 82.1244 17.9067 82.1707 18.2814C82.161 18.4177 82.1658 18.5612 82.2511 18.6902C82.8626 19.6611 83.6008 20.7756 83.3986 21.9679L83.3328 22.0288C82.6799 22.1796 82.407 21.5202 81.9636 21.2282C81.7833 21.1625 81.586 21.2598 81.4496 21.1138C81.184 20.8778 80.7357 20.4787 80.5628 20.1818C80.5092 20.0261 80.5993 19.8071 80.4458 19.6708C80.3873 19.6149 80.2704 19.5054 80.2119 19.4494C79.5858 19.0625 79.654 18.571 79.7222 17.914V17.9115ZM78.9621 23.2722C79.6833 23.0556 80.5871 23.5447 81.1328 24.0241C81.3765 24.2455 81.3667 24.248 81.4228 24.54C81.5153 24.9536 81.6761 25.6788 81.7614 26.0633L81.7078 26.0852C80.112 26.4915 78.7087 24.759 78.9621 23.2722ZM24.567 8.21948C25.0957 7.47488 26.1384 7.67441 26.6793 8.19028C27.0033 8.53338 27.5783 9.27799 27.6489 9.68923C27.5564 9.84253 27.2031 10.4265 27.1105 10.5774C27.0618 10.6966 26.9692 10.6042 26.6135 10.5604C26.214 10.4922 25.1152 10.2878 24.8155 10.2367L24.7985 10.1856C24.7546 9.56269 24.1139 8.82052 24.5646 8.21705L24.567 8.21948ZM37.438 73.392L37.3917 73.4577C36.8435 73.5793 36.1711 72.6328 35.5913 72.4454C34.434 72.0974 33.4839 70.5133 32.122 70.7785C31.8345 70.8588 31.737 71.1387 31.7249 71.4063C31.8637 73.1997 34.2245 73.9589 34.836 75.6404C36.3221 77.2294 34.5144 77.6868 33.2622 76.9325C31.5811 75.4214 31.1304 73.0148 28.9012 72.2191C27.9389 71.966 27.3006 70.944 27.2518 70.0169C27.247 69.3599 28.0339 69.1312 28.5772 69.0874C29.6881 68.9998 31.8053 68.9608 33.1282 69.0655C33.5277 69.0825 33.8347 69.2674 34.2976 69.5862C34.8555 70.0364 35.3939 69.8758 35.9031 70.2529C36.1638 70.5206 36.3027 70.8564 36.4805 71.1825C36.8971 71.7762 37.6572 72.6303 37.4428 73.3895L37.438 73.392ZM45.1391 64.262C45.066 64.2547 43.5579 63.9773 42.9951 63.8751C42.6979 63.734 40.7879 61.943 39.8523 61.1473C39.616 60.9137 39.4844 60.887 39.465 60.7239C39.426 59.3077 39.2116 57.5046 40.4736 56.5702C40.8902 56.4193 41.8598 57.2175 41.9061 57.6847C41.7941 58.6458 42.486 59.4343 42.9513 60.303C43.3265 61.0476 44.1012 61.6121 44.4447 62.2886C44.6469 62.8531 45.1513 64.2207 45.1513 64.2499L45.1366 64.2645L45.1391 64.262ZM45.4168 56.9352C45.1976 57.1396 44.7688 57.6238 44.6201 57.709C44.0598 57.4121 43.5652 56.6894 42.9391 56.232C42.464 55.7988 41.9938 55.3706 41.7356 54.8158C41.5261 54.3339 41.0656 53.6915 41.0461 53.1659C40.9949 52.6841 41.1947 51.8154 41.6454 51.6378L41.7429 51.6062C42.9001 51.4407 44.1012 53.2973 44.7956 54.0006C44.9929 54.699 45.3632 56.0081 45.5191 56.5507C45.5752 56.7527 45.602 56.7527 45.4193 56.9352H45.4168ZM65.0387 76.0029C64.9754 76.0662 64.7537 76.054 64.5295 76.054C63.5842 76.0321 63.4502 74.8836 62.8144 74.3458C60.9555 72.7058 58.8798 72.0196 57.1232 69.9244C56.7431 69.5083 56.385 69.1482 56.4922 68.5423C56.5263 68.3768 56.6286 68.3111 56.8284 68.3428C57.513 68.5423 58.6045 68.4401 59.0893 69.0363C60.2587 70.2943 61.6839 71.3212 62.6438 72.735C63.0507 73.4406 63.7523 74.3921 64.5977 74.4334L64.6733 74.4724C64.7658 74.5162 65.163 76.0248 65.0363 76.0029H65.0387ZM70.7981 70.7566C70.055 70.3235 68.6761 69.501 67.8453 69.0119C67.3873 68.7491 67.3702 68.6348 67.0803 68.9292C66.3275 69.5959 67.0243 71.1168 66.5858 71.8662C66.5322 71.9587 66.4859 71.9806 66.425 71.9441C65.8159 71.4915 64.0155 70.1702 63.5818 69.849C63.365 69.6981 63.4283 69.6811 63.2821 69.2163C63.2017 68.8927 63.0507 68.5009 63.0726 68.389C63.097 68.2722 63.4308 68.3282 63.633 68.2065C63.8401 68.1067 64.035 67.9559 64.2908 67.9169C64.5368 67.9242 64.8219 67.9388 65.029 68.0848C65.7769 68.6396 67.0608 68.2187 68.0159 68.2673C68.5494 68.299 68.9246 68.1189 69.1926 68.5958C69.6116 69.1555 70.4059 70.2213 70.8005 70.7518V70.7591L70.7981 70.7566ZM70.5009 48.3698C69.5921 53.3168 69.4923 58.4706 68.1791 63.2668C66.7807 66.0651 63.4649 64.7974 60.9604 65.1405C58.3779 65.3887 56.0683 64.9726 53.2739 64.6708C51.9704 64.7803 50.421 64.4859 50.1384 63.0088C50.1895 61.0962 49.5585 59.371 49.0128 57.49C48.5791 55.5433 48.8374 53.0443 48.5669 50.9857C48.545 50.2459 47.8702 49.8395 47.6655 49.1047C47.551 48.5109 47.6728 47.7493 47.5656 47.0826C46.6374 40.7777 44.8004 34.4462 44.34 28.0829C43.748 26.1849 41.7551 25.7932 41.2922 28.0659C40.6758 30.8302 41.5723 33.7551 40.878 36.5778C39.3334 44.1017 37.2942 51.6451 35.3744 59.1617C35.0114 60.7531 35.0942 62.656 33.6641 63.7778C32.9308 64.4737 32.2876 65.3278 31.3156 65.6539C29.5858 66.1503 27.683 65.7439 25.8997 65.8534C23.0151 66.6005 19.9624 66.233 16.9975 66.2452C16.2836 66.2087 15.6794 65.722 15.3773 65.121C14.2664 63.5734 14.2031 61.6948 13.9083 59.8674C13.0288 56.1444 12.5098 52.268 11.7107 48.5109C10.4365 43.2014 10.1369 37.8383 9.42548 32.407C8.54354 27.0585 8.44853 21.5543 7.49838 16.2082C7.22064 13.7091 5.70039 11.4996 5.92453 9.02979C5.95864 8.20001 6.02686 7.50894 5.71257 6.80814C4.81846 5.11696 4.74537 3.91245 6.73582 3.73238C10.1612 3.71048 17.6601 3.75671 19.4874 3.73238C19.7748 3.64721 19.9819 4.34315 20.1062 4.71545C20.4034 5.50629 20.016 6.70107 20.3839 7.47244C20.7664 8.27058 21.4583 9.58216 21.5387 10.6577C22.3135 16.6218 22.3305 22.968 22.6521 29.1171C23.4658 31.9422 23.2734 35.3465 23.2319 38.196C23.2222 38.3785 23.2076 38.5975 23.193 38.78C23.1808 39.4564 22.7617 39.8604 22.9006 40.4614C23.1101 41.1792 23.6583 41.8387 23.8629 42.5638C24.0432 43.177 24.0286 43.9946 24.4598 44.6249C25.1761 45.7369 27.5491 46.7078 27.9194 44.8658C28.1386 44.2745 27.934 43.3376 28.0314 42.6125C28.1143 42.065 28.3603 41.6002 28.4748 41.0503C28.6527 39.8896 28.6819 38.6826 28.9694 37.5608C29.1375 36.7651 29.9001 36.6386 30.1267 35.9621C31.1548 30.6939 32.3096 25.4014 33.3377 20.0188C33.5691 18.9433 33.4083 17.6925 34.2147 16.8457C34.7118 16.3031 34.7264 15.7507 34.9871 14.7725C35.4962 12.6628 36.2442 9.34369 36.4976 7.57221C36.6559 6.813 36.5512 6.52343 36.3197 5.86643C36.2515 5.28972 36.7923 4.83712 37.1627 4.31152C37.5135 3.87108 37.6329 3.74211 37.8351 3.74211C39.0995 3.73481 48.087 3.74211 49.5877 3.73968C50.2407 3.73968 50.8473 4.18985 50.9082 4.94176C51.3589 6.3093 51.3443 7.66954 51.0373 9.06629C50.9009 9.77683 50.9253 10.1126 51.0763 10.8183C51.5563 13.1957 51.4101 15.814 52.1385 18.1695C54.0437 24.1579 54.665 29.8496 55.3471 36.3247C55.4763 38.4807 56.4946 40.4833 56.6676 42.6101C56.7504 43.4569 57.7128 43.9825 58.5704 43.8219C60.7971 42.9751 59.6618 40.0867 59.9103 38.2592C60.0809 36.9695 60.7484 35.5874 60.858 34.2466C61.8082 27.8931 63.2626 21.8098 64.2469 15.4733C64.3273 14.9477 64.3346 14.4197 64.264 13.8989C63.8108 11.4656 63.9862 8.69885 63.6476 6.2071C63.4186 5.39193 62.8753 4.17525 63.9204 3.74941C65.1776 3.81268 76.1847 3.59611 77.359 3.81025L77.4346 3.84675C77.666 3.95138 77.8999 4.15092 77.9413 4.41615C77.9803 4.69599 77.5125 4.87119 77.0789 4.95149C76.4771 5.02206 76.2018 5.48196 76.2481 6.0319C76.1653 7.01984 77.1276 7.72551 77.13 8.69399C77.1568 9.54323 77.208 10.5336 77.035 11.3585C76.6915 12.2613 76.4698 13.2127 76.3187 14.1909C75.0714 20.5176 74.2113 27.1023 73.4731 33.5239C72.5498 38.4417 71.5802 43.4398 70.5082 48.3747L70.5009 48.3698ZM73.6071 51.285C73.6218 51.0197 73.5657 50.8908 73.6729 50.8324L73.7558 50.8032C75.2711 50.4528 75.8778 51.8033 76.7427 52.9396C77.4906 54.5529 78.3482 56.0714 79.4226 57.4365C79.9464 58.2784 82.8212 61.7435 81.1085 62.1961C80.1876 61.2471 75.0665 56.2125 73.6145 54.6771C73.5925 53.8132 73.6145 52.2778 73.6071 51.2874V51.285ZM79.7222 52.4627C79.0279 51.8738 77.7805 50.645 76.9838 49.9223C76.7402 49.7057 76.7621 49.6619 76.4625 49.567C74.8691 49.0828 74.226 48.3674 74.494 46.5424C74.567 46.0849 74.8375 45.6128 75.2614 45.5349C75.6585 45.4498 76.136 45.6663 76.538 46.1141C77.3834 46.956 77.0204 47.961 77.4078 48.893C78.0656 50.022 79.7076 50.9516 79.7271 52.4165L79.7222 52.4627ZM73.8751 75.0491C73.4805 74.4018 72.9493 74.0806 72.6692 73.5331C72.445 73.0367 71.9675 71.9806 71.9626 71.9685L72.0089 71.9733C73.0444 72.2361 73.7533 73.2119 74.5256 73.8908C74.7766 74.0976 75.0762 73.8908 75.2979 74.2023C75.8778 74.8033 76.8133 75.6282 77.2494 76.2512C76.002 77.7282 74.6621 76.2487 73.8751 75.0491ZM78.4456 72.7934C77.1714 72.9613 76.4113 71.6132 75.5732 70.871C75.3272 70.7007 75.047 70.7883 74.874 70.5985C74.014 69.8247 72.9225 68.8319 72.16 67.9437C71.9188 67.6663 71.8822 67.1991 71.6557 66.8292C71.5144 66.4277 71.6849 65.8705 71.9578 65.6077C72.5084 65.1599 73.288 65.8023 73.7338 66.1698C75.3929 67.6054 76.6525 69.3015 78.0046 70.8248C78.2434 71.1192 78.5114 72.7033 78.5041 72.7666L78.4456 72.7934ZM81.7419 69.0022L81.6761 69.0728C81.3326 69.1652 80.2363 69.2212 79.9123 69.1044C79.1278 68.5472 78.2946 67.4813 77.515 66.7124C76.3358 65.25 74.4598 64.6684 73.0419 63.5199C72.0284 62.4005 72.1429 60.4441 72.713 59.1325C72.83 58.3246 73.5901 58.4366 74.0968 58.86C75.0129 59.4927 75.4977 60.4903 76.175 61.3225C77.666 63.094 79.3592 64.773 80.6432 66.6102C81.1523 67.255 82.0075 68.1335 81.7419 69.0046V69.0022ZM84.2075 50.0001C83.9273 51.1828 82.6628 51.1073 82.1171 50.1632C80.0658 47.2188 77.4273 44.4594 75.2541 41.6416C75.2273 41.5004 75.1712 41.2206 75.1444 41.0795C75.1176 40.5466 75.4076 39.9431 75.7072 39.6608C76.2262 39.2642 75.9362 38.2106 76.5819 37.8821L76.6891 37.8504C77.5247 37.8504 78.258 39.016 78.604 39.7825C79.2131 41.2303 79.9415 42.6806 81.262 43.7659C81.6542 44.4667 82.1999 45.2064 82.7457 45.8342C83.2695 46.5448 83.6276 47.5254 84.0247 48.4696C84.2026 48.9003 84.3366 49.3918 84.205 50.0001H84.2075ZM85.7423 36.6386C85.5913 36.8941 85.1795 37.4562 84.9773 37.7044C84.3341 38.269 83.7129 37.5462 83.155 37.079C82.5532 36.4975 81.8832 35.9305 81.6177 35.1202C80.4824 33.7673 78.9231 32.5944 77.7829 31.2463C77.4906 29.8496 77.3225 27.8931 78.6917 26.9247C79.1668 26.674 79.4786 27.3116 79.8562 27.5379C80.0511 27.6522 80.268 27.662 80.3849 27.7252L80.4629 27.7836C81.0256 29.9299 82.7847 31.2974 84.1612 33.1443C84.9164 34.1639 85.45 34.451 85.4938 35.1226C85.5036 35.3465 85.4719 35.6142 85.5084 35.8429C85.545 36.1957 85.8812 36.3807 85.7399 36.641L85.7423 36.6386ZM87.2236 25.0826C87.0409 25.416 86.7582 25.9246 86.5828 26.2458C86.4878 26.3869 86.4805 26.511 86.4123 26.4623C86.3538 26.4258 86.2101 26.2579 86.1029 26.1582C85.0699 25.1507 83.6569 24.046 83.7957 22.4546C83.8128 22.3548 83.8737 22.4181 84.0004 22.4011C84.8043 22.4011 86.3221 22.4011 87.0482 22.4011L87.0433 22.4522C86.8094 23.3987 87.9837 24.1798 87.2285 25.085L87.2236 25.0826ZM88.6586 15.4928L88.566 15.5341C87.0287 15.7629 86.2174 13.7189 85.3013 12.7553C84.2269 11.4461 82.6019 10.4533 81.7273 8.97625C81.4691 7.95668 81.8857 6.86897 82.4558 6.57697C83.0015 6.25333 83.5716 6.8276 83.8639 7.28507C84.8043 8.67208 86.0712 10.0396 86.6681 11.6067C87.3381 12.473 88.315 13.7091 88.6659 14.7555C88.7706 15.101 88.8267 15.3833 88.6561 15.4903L88.6586 15.4928Z" fill="var(--fill-0, white)"/>
<path id="Vector_2" d="M328.787 6.18033C329.082 6.37013 329.398 6.4699 329.717 6.56967C331.067 7.0539 331.703 8.29248 331.469 9.75493C332.215 22.6712 331.247 35.7675 331.398 48.6642C331.425 51.4845 330.882 54.2415 331.052 57.0569C331.133 58.6629 331.033 60.6217 331.009 62.3324C330.597 63.5856 330.166 64.8947 329.379 66.014C329.074 66.4204 328.67 66.7854 328.334 67.1309C327.737 67.6833 327.617 68.8805 327.936 69.6616C328.217 70.214 328.853 70.5036 329.384 70.7907C334.105 72.5233 337.017 76.7232 340.586 80.0228C341.085 80.4025 341.663 80.529 342.296 80.529C344.048 80.5533 345.924 80.3635 347.663 80.3952C351.23 80.877 354.801 80.018 358.385 80.0423C363.862 80.5046 369.531 79.2369 375.025 79.5556C375.632 79.5459 376.034 79.7892 376.47 79.8038C377.401 79.8403 378.131 78.7356 377.939 77.8036C377.749 73.9662 378.592 69.8685 377.79 66.216C377.595 65.6125 377.593 64.9336 377.754 64.3156C377.963 63.4225 377.759 62.6025 377.415 61.9576C376.492 60.4125 374.516 59.7141 373.308 58.5655C372.767 57.8866 370.023 56.1298 371.824 55.5409C372.84 55.3779 374.545 54.7111 375.023 53.857C375.871 50.4357 374.055 46.7711 373.87 43.3595C373.844 42.4957 373.775 41.4274 373.936 40.7145C374.065 40.0526 374.711 39.4467 374.976 38.8603C375.347 37.9331 374.623 37.0693 373.97 36.3831C373.015 35.4146 372.102 35.1713 371.249 34.2004C370.606 33.4363 368.106 31.7451 369.373 30.891C369.911 30.7815 371.397 30.6696 372.893 30.4968C374.662 30.2 376.143 30.4068 376.726 29.8885L376.772 29.8179C377.42 28.7205 377.262 26.9709 377.162 25.6764C376.838 22.165 376.221 16.9114 376.986 13.2638C377.128 12.4194 377.727 11.6651 377.452 10.8013C377.03 10.0104 376.197 9.33396 375.517 8.74995C374.784 8.20001 373.724 8.01265 372.918 7.47731C370.991 6.2655 369.212 3.95381 367.314 2.0631C366.42 1.13843 366.069 0.690688 364.795 0.82939C363.601 1.03136 362.283 1.9901 360.899 1.5886C357.764 0.955924 354.46 0.953491 351.361 1.05569C346.306 1.6835 340.868 1.46206 335.66 1.54966C334.151 1.63483 332.707 1.66646 331.306 2.012C330.517 2.29183 329.798 2.54247 328.911 2.4646C328.141 2.3989 327.386 3.02671 327.201 3.79078C326.913 4.73979 327.961 5.61336 328.794 6.1779L328.787 6.18033ZM342.311 76.3679C340.939 75.3094 339.65 73.4309 338.347 72.4065C337.959 72.1461 337.56 72.2288 337.248 71.7056C337.204 71.5913 337.35 70.2748 337.45 70.3381C337.794 70.6642 338.454 71.1776 338.761 71.5937C338.892 71.7859 338.834 72.1437 338.858 72.2556L338.905 72.3018C339.058 72.3213 339.487 72.2702 339.614 72.4235C340.744 73.392 341.738 74.6086 342.786 75.6866C343.134 76.1295 342.883 76.6794 342.311 76.3679ZM349.946 72.5695C349.875 72.8956 349.909 73.1 349.771 73.1292C349.593 73.1462 349.376 73.1559 349.198 73.1608C349.001 73.1754 348.764 73.1778 348.567 73.1657C347.666 73.0781 346.898 71.8954 345.921 72.4235C345.558 72.6474 345.517 72.7715 345.134 73.1C344.913 73.1924 344.498 73.1705 344.24 73.0756C343.375 72.5208 340.574 70.8832 343.11 70.3308C343.641 70.2748 344.42 70.1361 344.844 70.4087C345.034 70.5912 345.22 70.7688 345.497 70.7347C346.513 70.798 348.55 69.6592 349.71 70.6617C349.863 70.725 350.046 70.7274 350.146 70.7274L350.221 70.7347C350.231 71.1825 350.004 72.0634 349.946 72.5695ZM355.912 73.5526C354.875 73.4674 354.134 72.241 353.042 72.3213C352.887 72.331 352.838 72.3262 352.784 72.2361C352.514 71.9295 351.607 70.9075 351.464 70.7445C352.117 70.6885 352.891 70.5814 353.476 70.9075C354.248 71.3747 355.259 72.6887 355.937 73.5282L355.912 73.5526ZM366.501 77.0834L366.44 77.1539C365.906 77.2561 365.161 77.3072 364.622 77.1734C363.967 76.9179 362.805 75.6477 361.959 74.852C361.606 74.4164 361.231 74.4383 360.773 74.156C359.813 73.3336 358.875 72.1339 357.652 71.9612C357.262 71.9052 357.131 71.6034 356.928 71.2676C356.093 70.1094 359.223 70.2213 359.674 70.2943C360.203 70.3503 360.909 71.1752 361.445 71.5183C362.154 71.9611 363.255 72.2337 363.777 73.0051C363.952 73.2606 364.035 73.5988 364.257 73.83C365.338 74.6573 366.747 75.6063 366.501 77.0834ZM367.75 36.7992C367.675 37.4586 367.287 37.9964 366.608 37.8455C366.15 37.7506 365.896 37.3297 365.509 37.1253C365.027 37.0328 364.493 36.5997 364.266 36.1398C364.006 35.692 363.884 35.1956 363.726 34.6749C363.609 34.3537 363.621 34.3342 363.825 34.0301C364.003 33.7356 364.225 33.3755 364.237 33.3536L364.298 33.3341C366.011 33.1127 367.672 34.0106 368.121 35.8113C368.147 36.1325 367.772 36.3539 367.745 36.7968L367.75 36.7992ZM361.664 51.1876C361.457 50.5111 360.495 49.9661 360.407 49.2239L360.42 49.1728C361.202 48.9003 363.409 51.0586 364.249 51.6962C365.631 52.6306 365.882 53.9178 363.882 54.059C360.617 54.3218 362.02 52.8764 361.662 51.1876H361.664ZM372.962 61.9406C373.12 62.6609 372.981 64.262 373.018 65.0358L373.001 65.0456C372.418 64.8095 371.7 63.9773 371.052 63.8167C370.886 63.7973 370.676 63.8508 370.508 63.8216C370.289 63.8021 370.155 63.5418 369.945 63.459C369.753 63.3957 369.458 63.3836 369.256 63.1402C368.825 62.6925 369.039 62.2302 368.956 61.7289C368.873 61.432 368.586 61.2836 368.523 60.9721C368.44 60.4879 368.62 60.0718 368.774 59.6387C368.873 59.4269 368.869 59.1033 369.022 58.9938C370.72 58.9889 371.824 60.9454 372.964 61.9406H372.962ZM369.5 38.1838C369.997 38.2178 370.44 38.6899 370.937 38.6267L370.988 38.634C370.988 38.9649 370.988 39.7922 370.988 40.1937C370.966 40.5417 371.044 40.6828 370.915 40.6609H369.938C369.468 40.6536 369.609 40.7266 369.363 40.3908C369.219 40.1913 369.015 39.9042 368.847 39.6681C368.625 39.3275 368.513 39.3007 368.532 39.0866C368.603 38.6413 368.966 38.1327 369.502 38.1838H369.5ZM372.584 19.5492C371.302 18.5637 369.144 17.0428 367.636 15.7239C367.219 15.3273 366.961 15.1034 366.881 14.8139C366.8 14.5024 366.795 14.0547 366.61 13.7481C366.481 13.5899 366.32 13.4098 366.172 13.2687C366.04 13.1203 366.254 12.9329 366.418 12.6044C366.652 12.2223 366.81 11.8695 366.898 11.8184L366.981 11.7892C367.363 11.6894 367.697 12.0009 367.962 12.2491C368.474 12.6579 369.76 13.8697 370.986 15.0791C371.926 16.0865 372.857 16.7946 373.5 17.8385C373.926 18.7778 373.902 19.7974 372.584 19.5492ZM366.108 8.20731C366.113 7.98345 366.081 7.81068 366.259 7.76931C366.432 7.71821 366.769 7.79121 366.849 7.68901C366.978 7.58194 366.825 7.10744 367.017 6.97604C367.188 6.83977 367.592 6.86167 367.826 6.8933C368.793 7.05634 369.227 7.97615 369.95 8.54555C371.186 9.53836 372.988 10.1418 373.685 11.8525C373.882 12.2953 373.987 12.8648 373.593 13.2103C373.354 13.3952 372.991 13.3271 372.62 13.2565C371.626 13.0959 371.434 13.057 370.579 12.2953C369.775 11.6943 369.188 10.9083 368.162 10.9838C367.831 10.9765 367.261 11.0884 366.995 10.9911L366.951 10.9156C366.922 10.8207 366.946 10.6504 366.881 10.4898C366.734 10.0834 366.116 9.83523 366.081 9.44832C366.023 9.10522 366.099 8.63315 366.111 8.20975L366.108 8.20731ZM365.482 25.635C365.65 25.7761 365.75 25.8516 365.794 25.9805C365.918 26.4088 366.518 28.2265 366.544 28.4382C366.296 28.4844 365.731 27.9345 365.531 27.7155C365.139 27.3189 365.197 27.0025 364.715 26.7057C362.668 25.5401 360.6 24.0192 359.223 22.1529C360.117 20.8388 361.974 21.8779 363.17 21.985L363.212 22.0677C363.17 22.4522 363.226 22.9899 363.584 23.2576C364.349 23.9292 364.664 24.9877 365.482 25.6374V25.635ZM335.194 22.9997C335.572 19.8193 336.103 14.6679 335.27 11.1955C335.072 10.5385 334.49 10.1929 334.378 9.53349C334.237 8.34845 334.234 7.10014 335.08 6.1998C335.455 5.51603 336.741 5.8567 336.89 4.98556C336.926 4.89309 336.975 4.82252 337.046 4.79332C338.023 4.54269 342.569 4.76655 346.523 4.88092C349.378 4.87849 351.025 5.26296 353.281 4.53052C353.603 4.51835 353.937 4.49889 354.256 4.56702C355.827 4.88822 357.357 4.57189 358.561 4.80792C359.231 4.97339 359.679 5.66203 360.412 5.66933C361.453 5.62796 362.473 5.77396 363.221 6.50883C363.489 6.7765 363.592 6.9882 363.66 7.28751C363.592 8.50175 363.84 15.5001 363.567 16.8822C362.758 17.8288 361.085 17.347 359.925 17.4906C355.545 17.42 350.816 16.4466 346.447 16.7046C345.375 16.8895 344.518 17.987 344.52 19.0284C344.515 20.121 345.977 20.7731 346.048 21.8682C346.097 22.1188 346.114 22.3938 346.126 22.6468C346.104 23.5618 346.603 24.2358 346.613 25.1702C346.633 26.3431 346.365 27.5841 345.97 28.6548C345.787 29.1925 345.814 29.7376 346.065 30.2559C346.572 31.2998 347.678 31.806 348.796 31.7573C350.138 31.8522 351.249 31.2001 352.558 30.9227C354.551 30.5942 356.402 31.3388 358.305 31.295C359.669 31.1295 360.787 32.1247 360.858 33.4655C361.15 34.4681 361.294 34.709 361.226 35.8891C361.141 37.6436 361.394 40.0088 361.124 41.7121L361.075 41.7827C359.83 42.812 357.847 41.9968 356.212 42.3497C354.156 42.6174 351.941 42.4665 349.729 42.245C346.584 41.8752 347.303 44.7441 347.456 46.8149C347.722 49.5597 347.909 51.7911 347.48 54.57C347.407 55.2538 347.237 56.0616 347.51 56.6846C347.846 57.2199 348.516 57.6214 349.059 57.7504C349.912 57.7552 353.654 57.7504 357.106 57.7504C359.128 57.7455 360.629 57.7552 362.33 57.7504C363.433 57.7504 363.36 57.6676 364.32 58.3271C364.513 58.4682 364.634 58.6215 364.749 58.8235C365.455 60.2008 365.407 61.7581 365.38 63.3957C365.358 64.7925 365.465 65.3741 364.383 66.0943C362.839 67.2502 360.904 66.7124 358.894 66.7635C352.633 66.3377 345.841 65.9921 339.29 66.637C338.254 66.7221 337.177 66.783 336.157 66.6224C335.406 66.3839 334.502 65.7099 334.354 64.902C334.273 63.9652 334.278 61.1352 334.341 60.0718C334.329 59.4391 335.021 59.0571 335.187 58.6629C335.199 56.378 335.175 32.1272 335.192 22.9924L335.194 22.9997ZM354.711 26.7641L354.624 26.8541C353.379 27.2751 352.645 26.1606 351.788 25.3551C350.899 25.1167 350.136 24.2845 349.702 23.5958C349.41 23.0629 349.159 22.1869 349.495 21.637C350.031 21.3036 350.475 22.0458 350.845 22.3573C352.095 23.4547 353.566 24.4743 354.521 25.7007C354.755 25.9781 354.836 26.4161 354.709 26.7616L354.711 26.7641ZM359.584 53.5334L359.504 53.6064C358.112 53.7305 357.291 51.9833 356.163 51.431C355.876 51.2436 355.442 51.2947 355.223 51.0976C354.875 50.3578 354.502 49.8225 353.652 49.5281C352.526 49.0876 350.86 48.3941 351.057 46.9609C351.257 46.6543 351.612 46.7541 351.968 46.7127C352.234 46.7005 352.499 46.6762 352.716 46.7322C354.721 47.815 357.267 49.9928 358.921 51.9468C359.335 52.4067 359.849 52.9202 359.584 53.5358V53.5334Z" fill="var(--fill-0, white)"/>
<path id="Vector_3" d="M100.297 6.18033C100.591 6.37013 100.908 6.4699 101.227 6.56967C102.577 7.0539 103.213 8.29248 102.979 9.75493C103.725 22.6712 102.757 35.7675 102.908 48.6642C102.935 51.4845 102.392 54.2415 102.562 57.0569C102.643 58.6629 102.543 60.6217 102.519 62.3324C102.107 63.5856 101.676 64.8947 100.889 66.014C100.584 66.4204 100.18 66.7854 99.8436 67.1309C99.2467 67.6833 99.1273 68.8805 99.4464 69.6616C99.7266 70.214 100.362 70.5036 100.894 70.7907C105.615 72.5233 108.526 76.7232 112.096 80.0228C112.595 80.4025 113.173 80.529 113.806 80.529C115.558 80.5533 117.434 80.3635 119.173 80.3952C122.74 80.877 126.311 80.018 129.895 80.0423C135.372 80.5046 141.041 79.2369 146.535 79.5556C147.142 79.5459 147.544 79.7892 147.98 79.8038C148.91 79.8403 149.641 78.7356 149.449 77.8036C149.259 73.9662 150.102 69.8685 149.3 66.216C149.105 65.6125 149.103 64.9336 149.264 64.3156C149.473 63.4225 149.269 62.6025 148.925 61.9576C148.002 60.4125 146.026 59.7141 144.817 58.5655C144.277 57.8866 141.533 56.1298 143.334 55.5409C144.35 55.3779 146.055 54.7111 146.533 53.857C147.38 50.4357 145.565 46.7711 145.38 43.3595C145.353 42.4957 145.285 41.4274 145.446 40.7145C145.575 40.0526 146.221 39.4467 146.486 38.8603C146.857 37.9331 146.133 37.0693 145.48 36.3831C144.525 35.4146 143.612 35.1713 142.759 34.2004C142.116 33.4363 139.616 31.7451 140.883 30.891C141.421 30.7815 142.907 30.6696 144.403 30.4968C146.172 30.2 147.653 30.4068 148.236 29.8885L148.282 29.8179C148.93 28.7205 148.772 26.9709 148.672 25.6764C148.348 22.165 147.731 16.9114 148.496 13.2638C148.638 12.4194 149.237 11.6651 148.962 10.8013C148.54 10.0104 147.707 9.33396 147.027 8.74995C146.294 8.20001 145.234 8.01265 144.428 7.47731C142.501 6.2655 140.722 3.95381 138.824 2.0631C137.93 1.13843 137.579 0.690688 136.305 0.82939C135.111 1.03136 133.793 1.9901 132.409 1.5886C129.274 0.955924 125.97 0.953491 122.871 1.05569C117.816 1.6835 112.378 1.46206 107.169 1.54966C105.661 1.63483 104.217 1.66646 102.816 2.012C102.026 2.29183 101.308 2.54247 100.421 2.4646C99.6511 2.3989 98.8958 3.02671 98.7107 3.79078C98.4232 4.73979 99.4708 5.61336 100.304 6.1779L100.297 6.18033ZM113.821 76.3679C112.449 75.3094 111.16 73.4309 109.857 72.4065C109.469 72.1461 109.07 72.2288 108.758 71.7056C108.714 71.5913 108.86 70.2748 108.96 70.3381C109.304 70.6642 109.964 71.1776 110.271 71.5937C110.402 71.7859 110.344 72.1437 110.368 72.2556L110.415 72.3018C110.568 72.3213 110.997 72.2702 111.124 72.4235C112.254 73.392 113.248 74.6086 114.296 75.6866C114.644 76.1295 114.393 76.6794 113.821 76.3679ZM121.456 72.5695C121.385 72.8956 121.419 73.1 121.28 73.1292C121.103 73.1462 120.886 73.1559 120.708 73.1608C120.511 73.1754 120.274 73.1778 120.077 73.1657C119.176 73.0781 118.408 71.8954 117.431 72.4235C117.068 72.6474 117.027 72.7715 116.644 73.1C116.423 73.1924 116.008 73.1705 115.75 73.0756C114.885 72.5208 112.083 70.8832 114.62 70.3308C115.151 70.2748 115.93 70.1361 116.354 70.4087C116.544 70.5912 116.729 70.7688 117.007 70.7347C118.023 70.798 120.06 69.6592 121.22 70.6617C121.373 70.725 121.556 70.7274 121.656 70.7274L121.731 70.7347C121.741 71.1825 121.514 72.0634 121.456 72.5695ZM127.425 73.5526C126.387 73.4674 125.646 72.241 124.555 72.3213C124.399 72.331 124.35 72.3262 124.297 72.2361C124.026 71.9295 123.12 70.9075 122.976 70.7445C123.629 70.6885 124.404 70.5814 124.989 70.9075C125.761 71.3747 126.772 72.6887 127.449 73.5282L127.425 73.5526ZM138.01 77.0834L137.95 77.1539C137.416 77.2561 136.671 77.3072 136.132 77.1734C135.477 76.9179 134.315 75.6477 133.469 74.852C133.116 74.4164 132.741 74.4383 132.283 74.156C131.323 73.3336 130.385 72.1339 129.162 71.9612C128.772 71.9052 128.641 71.6034 128.438 71.2676C127.603 70.1094 130.733 70.2213 131.184 70.2943C131.713 70.3503 132.419 71.1752 132.955 71.5183C133.664 71.9611 134.765 72.2337 135.287 73.0051C135.462 73.2606 135.545 73.5988 135.767 73.83C136.848 74.6573 138.257 75.6063 138.01 77.0834ZM139.26 36.7992C139.185 37.4586 138.797 37.9964 138.118 37.8455C137.66 37.7506 137.406 37.3297 137.019 37.1253C136.537 37.0328 136.003 36.5997 135.776 36.1398C135.516 35.692 135.394 35.1956 135.236 34.6749C135.119 34.3537 135.131 34.3342 135.335 34.0301C135.513 33.7356 135.735 33.3755 135.747 33.3536L135.808 33.3341C137.521 33.1127 139.182 34.0106 139.631 35.8113C139.657 36.1325 139.282 36.3539 139.255 36.7968L139.26 36.7992ZM133.174 51.1876C132.967 50.5111 132.005 49.9661 131.917 49.2239L131.93 49.1728C132.712 48.9003 134.919 51.0586 135.759 51.6962C137.141 52.6306 137.392 53.9178 135.391 54.059C132.127 54.3218 133.53 52.8764 133.172 51.1876H133.174ZM144.472 61.9406C144.63 62.6609 144.491 64.262 144.528 65.0358L144.511 65.0456C143.928 64.8095 143.21 63.9773 142.561 63.8167C142.396 63.7973 142.186 63.8508 142.018 63.8216C141.799 63.8021 141.665 63.5418 141.455 63.459C141.263 63.3957 140.968 63.3836 140.766 63.1402C140.335 62.6925 140.549 62.2302 140.466 61.7289C140.383 61.432 140.096 61.2836 140.033 60.9721C139.95 60.4879 140.13 60.0718 140.284 59.6387C140.383 59.4269 140.379 59.1033 140.532 58.9938C142.23 58.9889 143.334 60.9454 144.474 61.9406H144.472ZM141.01 38.1838C141.507 38.2178 141.95 38.6899 142.447 38.6267L142.498 38.634C142.498 38.9649 142.498 39.7922 142.498 40.1937C142.476 40.5417 142.554 40.6828 142.425 40.6609H141.448C140.978 40.6536 141.119 40.7266 140.873 40.3908C140.729 40.1913 140.525 39.9042 140.357 39.6681C140.135 39.3275 140.023 39.3007 140.042 39.0866C140.113 38.6413 140.476 38.1327 141.012 38.1838H141.01ZM144.094 19.5492C142.812 18.5637 140.654 17.0428 139.146 15.7239C138.729 15.3273 138.471 15.1034 138.391 14.8139C138.31 14.5024 138.305 14.0547 138.12 13.7481C137.991 13.5899 137.83 13.4098 137.682 13.2687C137.55 13.1203 137.764 12.9329 137.928 12.6044C138.162 12.2223 138.32 11.8695 138.408 11.8184L138.49 11.7892C138.873 11.6894 139.207 12.0009 139.472 12.2491C139.984 12.6579 141.27 13.8697 142.496 15.0791C143.436 16.0865 144.367 16.7946 145.01 17.8385C145.436 18.7778 145.412 19.7974 144.094 19.5492ZM137.618 8.20731C137.623 7.98345 137.591 7.81068 137.769 7.76931C137.942 7.71821 138.278 7.79121 138.359 7.68901C138.488 7.58194 138.335 7.10744 138.527 6.97604C138.698 6.83977 139.102 6.86167 139.336 6.8933C140.303 7.05634 140.737 7.97615 141.46 8.54555C142.695 9.53836 144.498 10.1418 145.195 11.8525C145.392 12.2953 145.497 12.8648 145.103 13.2103C144.864 13.3952 144.501 13.3271 144.13 13.2565C143.136 13.0959 142.944 13.057 142.089 12.2953C141.285 11.6943 140.698 10.9083 139.672 10.9838C139.341 10.9765 138.771 11.0884 138.505 10.9911L138.461 10.9156C138.432 10.8207 138.456 10.6504 138.391 10.4898C138.244 10.0834 137.626 9.83523 137.591 9.44832C137.533 9.10522 137.609 8.63315 137.621 8.20975L137.618 8.20731ZM136.995 25.635C137.163 25.7761 137.263 25.8516 137.306 25.9805C137.431 26.4088 138.03 28.2265 138.057 28.4382C137.808 28.4844 137.243 27.9345 137.043 27.7155C136.651 27.3189 136.71 27.0025 136.227 26.7057C134.181 25.5401 132.112 24.0192 130.736 22.1529C131.63 20.8388 133.486 21.8779 134.683 21.985L134.724 22.0677C134.683 22.4522 134.739 22.9899 135.097 23.2576C135.862 23.9292 136.176 24.9877 136.995 25.6374V25.635ZM106.704 22.9997C107.082 19.8193 107.613 14.6679 106.78 11.1955C106.582 10.5385 106 10.1929 105.888 9.53349C105.747 8.34845 105.744 7.10014 106.59 6.1998C106.965 5.51603 108.251 5.8567 108.4 4.98556C108.436 4.89309 108.485 4.82252 108.556 4.79332C109.533 4.54269 114.079 4.76655 118.033 4.88092C120.888 4.87849 122.535 5.26296 124.791 4.53052C125.113 4.51835 125.447 4.49889 125.766 4.56702C127.337 4.88822 128.867 4.57189 130.071 4.80792C130.741 4.97339 131.189 5.66203 131.922 5.66933C132.962 5.62796 133.983 5.77396 134.731 6.50883C134.999 6.7765 135.102 6.9882 135.17 7.28751C135.102 8.50175 135.35 15.5001 135.077 16.8822C134.268 17.8288 132.595 17.347 131.435 17.4906C127.054 17.42 122.326 16.4466 117.957 16.7046C116.885 16.8895 116.028 17.987 116.03 19.0284C116.025 20.121 117.487 20.7731 117.558 21.8682C117.607 22.1188 117.624 22.3938 117.636 22.6468C117.614 23.5618 118.113 24.2358 118.123 25.1702C118.143 26.3431 117.875 27.5841 117.48 28.6548C117.297 29.1925 117.324 29.7376 117.575 30.2559C118.082 31.2998 119.188 31.806 120.306 31.7573C121.648 31.8522 122.759 31.2001 124.068 30.9227C126.06 30.5942 127.912 31.3388 129.815 31.295C131.179 31.1295 132.297 32.1247 132.368 33.4655C132.66 34.4681 132.804 34.709 132.736 35.8891C132.651 37.6436 132.904 40.0088 132.634 41.7121L132.585 41.7827C131.34 42.812 129.357 41.9968 127.722 42.3497C125.666 42.6174 123.451 42.4665 121.239 42.245C118.094 41.8752 118.813 44.7441 118.966 46.8149C119.232 49.5597 119.419 51.7911 118.99 54.57C118.917 55.2538 118.747 56.0616 119.02 56.6846C119.356 57.2199 120.026 57.6214 120.569 57.7504C121.422 57.7552 125.164 57.7504 128.616 57.7504C130.638 57.7455 132.139 57.7552 133.84 57.7504C134.943 57.7504 134.87 57.6676 135.83 58.3271C136.022 58.4682 136.144 58.6215 136.259 58.8235C136.965 60.2008 136.917 61.7581 136.89 63.3957C136.868 64.7925 136.975 65.3741 135.893 66.0943C134.349 67.2502 132.414 66.7124 130.404 66.7635C124.143 66.3377 117.351 65.9921 110.8 66.637C109.764 66.7221 108.687 66.783 107.666 66.6224C106.916 66.3839 106.012 65.7099 105.864 64.902C105.783 63.9652 105.788 61.1352 105.851 60.0718C105.839 59.4391 106.531 59.0571 106.697 58.6629C106.709 56.378 106.685 32.1272 106.702 22.9924L106.704 22.9997ZM126.221 26.7641L126.134 26.8541C124.889 27.2751 124.155 26.1606 123.298 25.3551C122.408 25.1167 121.646 24.2845 121.212 23.5958C120.92 23.0629 120.669 22.1869 121.005 21.637C121.541 21.3036 121.985 22.0458 122.355 22.3573C123.605 23.4547 125.076 24.4743 126.031 25.7007C126.265 25.9781 126.346 26.4161 126.219 26.7616L126.221 26.7641ZM131.094 53.5334L131.013 53.6064C129.622 53.7305 128.801 51.9833 127.673 51.431C127.386 51.2436 126.952 51.2947 126.733 51.0976C126.385 50.3578 126.012 49.8225 125.161 49.5281C124.036 49.0876 122.37 48.3941 122.567 46.9609C122.767 46.6543 123.122 46.7541 123.478 46.7127C123.744 46.7005 124.009 46.6762 124.226 46.7322C126.231 47.815 128.777 49.9928 130.431 51.9468C130.845 52.4067 131.359 52.9202 131.094 53.5358V53.5334Z" fill="var(--fill-0, white)"/>
<path id="Vector_4" d="M166.045 72.6181C168.001 75.1707 170.187 77.3534 172.226 79.6286C172.62 80.1007 172.596 80.6239 173.052 80.7869C173.463 80.9207 174.348 80.9329 174.84 80.7334C175.298 80.5533 175.439 79.9815 175.773 79.7284C176.326 79.3099 177.159 79.2831 177.785 79.5508C178.806 79.9669 180.719 79.2928 181.849 79.7746C182.044 79.8793 182.217 79.9985 182.385 80.1396C182.858 80.5752 183.226 80.546 184.044 80.6068C185.564 80.7066 188.067 80.7845 189.723 80.8331C194.981 81.0594 200.158 80.7991 205.428 80.8599C205.985 80.8696 206.597 80.7188 206.945 80.2856C207.9 79.1249 207.089 77.2196 207.584 75.8229C207.969 74.8885 207.757 73.7424 207.15 72.9393C206.831 72.4551 206.624 72.1388 206.563 71.747C206.346 69.8733 206.904 67.6736 206.195 65.7902C205.998 63.2473 206.431 60.4538 206.122 57.9572L206.068 57.8915C205.583 57.6214 204.731 57.9767 204.158 57.9791C202.351 58.3976 201.437 56.5532 200.141 55.7282C199.069 55.0688 197.934 54.1782 196.72 53.9008C195.773 53.4725 195.729 52.1926 195.568 51.2411C195.505 45.3695 195.697 39.4662 195.553 33.5969C195.383 28.28 194.357 21.1552 195.422 15.9308C195.556 15.1059 195.909 14.5194 195.95 13.6483C195.726 12.3586 195.468 10.9838 194.472 10.064C193.339 9.04682 191.626 9.73789 190.627 8.64288C188.763 7.13907 186.437 4.28718 184.819 2.47677C184.215 1.9244 183.494 0.766122 182.517 0.783156C181.61 0.85129 180.514 0.286752 179.561 0.449787C174.56 1.39393 169.524 0.683388 164.486 0.790456C163.667 0.90239 162.529 0.90969 162.498 1.7857C162.507 2.6398 162.408 3.86378 162.544 4.53295C162.719 4.97582 163.129 5.26539 163.648 5.8056C164.342 6.4553 164.551 6.83977 164.515 7.65738C165.041 22.4449 163.209 39.3153 164.057 53.5382C164.369 55.4533 163.711 57.3537 163.704 59.1082C163.855 60.2494 163.545 61.2714 163.211 62.3421C163.109 63.3957 162.488 64.1768 161.662 64.8412C159.601 66.4764 160.605 67.732 162.3 69.0095C163.706 70.0875 164.98 71.2603 166.04 72.6157L166.045 72.6181ZM174.394 76.7281L174.353 76.8108C174.204 76.9106 173.502 77.2221 173.371 77.1685C173.061 76.9349 172.662 76.4774 172.296 76.1927C171.673 75.6477 171.422 75.4579 171.534 74.8033C171.307 73.5501 169.821 72.6401 169.517 71.399C169.512 71.0486 170.087 70.4792 170.498 70.7177C170.779 70.8442 171.025 71.1119 171.227 71.3504C172.104 72.4867 172.852 73.8251 173.744 74.869C174.175 75.3459 174.531 76.1003 174.397 76.7256L174.394 76.7281ZM187.769 77.2221C187.528 77.3024 186.712 77.5968 186.471 77.5457C185.901 77.3267 185.316 77.1344 184.907 76.6356C183.15 74.5673 180.787 73.1584 178.972 71.0024C178.643 70.4865 178.94 70.3527 179.432 70.0023C179.817 69.7419 180.066 69.5059 180.292 69.4597C180.582 69.3696 181.04 69.4791 181.316 69.6641C181.652 69.8928 182.09 69.7468 182.361 69.9269C182.634 70.1118 182.933 70.5352 183.257 70.7615C184.885 71.9271 185.888 73.4333 187.25 74.8179C187.591 75.2413 187.696 76.7013 187.796 77.1831L187.764 77.2245L187.769 77.2221ZM196.815 57.6895C197.819 57.4413 198.623 58.0107 199.39 58.4877C199.761 58.7529 200.112 58.7772 200.358 59.0814C201.235 60.0572 202.509 61.4734 203.44 62.5051C203.642 62.7679 203.715 62.6852 203.625 62.9602C203.522 63.3057 203.296 64.1257 203.274 64.1647L203.245 64.1841C202.857 64.1136 202.158 63.9457 201.746 63.8581C199.904 63.1719 199.3 60.23 197.298 59.7506C196.947 59.607 197.052 59.0522 196.898 58.5801C196.835 58.1129 196.652 57.7552 196.818 57.6847L196.815 57.6895ZM194.623 69.557C194.942 69.8101 195.731 70.5912 196.347 71.2165C196.728 71.618 197.02 71.8906 197.108 72.0755C197.215 72.2385 197.117 72.8079 197.171 73.0123L197.205 73.0732C198.24 73.4431 199.814 74.9469 200.377 75.745C200.494 75.9932 200.423 76.621 200.392 77.1101C199.973 78.3925 198.776 77.0055 198.277 76.4945C196.177 74.8203 193.748 73.0999 191.65 71.4915C189.582 69.9974 190.871 68.552 193.451 69.0168C193.948 69.2212 194.018 69.3696 194.623 69.5546V69.557ZM185.84 22.8293C186.003 22.6566 186.334 22.7734 186.51 22.9048C187.455 23.8148 188.303 24.557 189.419 25.6447C190.42 26.8079 192.223 27.9053 191.84 29.594L191.76 29.6743C191.321 29.8422 190.802 29.6354 190.486 29.2947C189.616 28.628 189.153 27.6693 188.498 26.9149C187.535 25.725 185.216 24.6032 185.845 22.8293H185.84ZM185.433 28.5161L185.499 28.465C186.615 29.2728 190.439 33.0372 191.977 34.4461C193.402 36.1641 192.501 38.758 190.503 36.6824C188.442 34.9499 187.016 33.6967 185.659 31.3509C185.055 30.4993 184.463 29.3045 185.433 28.5185V28.5161ZM186.054 38.2178C185.662 37.8017 184.848 36.8308 185.401 36.1933C185.767 36.3442 186.639 36.7919 186.987 37.1837C188.288 38.6047 189.718 39.8628 191.141 40.9578C192.301 41.6586 192.471 43.0213 192.252 44.2331L192.177 44.3134C191.899 44.3304 191.421 44.4594 191.2 44.2818C191.083 44.109 191.139 43.9241 191.039 43.7197C190.284 42.4008 186.563 40.1013 186.186 39.2496C186.081 38.9673 186.256 38.4174 186.054 38.2178ZM185.555 42.6246C186.174 42.8485 186.882 43.3985 187.287 43.9095C187.535 44.1212 187.258 44.6954 187.44 44.9972C187.791 45.4838 189.251 45.6955 189.026 46.6689L189.009 46.7273C188.32 46.5156 187.194 46.17 186.478 45.951C186.217 45.8488 185.996 45.5763 185.774 45.3403C185.233 44.9534 184.181 42.1015 185.552 42.6246H185.555ZM167.112 60.9259C167.56 57.0447 166.973 52.9104 167.441 48.983C168.055 43.8924 167.923 37.2615 167.85 31.8498C167.882 24.4791 167.789 12.8137 167.879 5.52819C168.203 5.17049 168.661 4.48915 169.197 4.48428C170.801 4.56459 178.636 4.32125 179.483 4.58162L179.542 4.63759C179.781 4.91499 180.385 5.67663 180.402 6.26063C180.409 6.89574 180.044 7.51868 180.049 8.25598C180.027 8.89352 180.088 9.57242 180.061 10.21C179.454 17.274 181.077 24.557 180.1 31.7135C180.007 32.4946 180.007 33.3244 180.1 34.1055C180.792 39.1304 180.144 44.4959 180.453 49.4429C180.68 51.5356 179.44 54.6357 182.495 54.9861C182.872 55.0299 183.294 54.9082 183.854 54.8255C184.812 54.75 185.75 55.0201 186.671 55.1637C188.378 55.5628 191.728 54.4799 192.328 56.7941C192.401 58.1178 192.398 61.982 192.32 63.1548C192.301 63.6585 191.872 64.0089 191.536 64.3618C190.498 65.2378 189.258 65.486 187.952 65.413C186.364 65.3838 184.427 65.486 182.811 65.357C178.621 65.7999 173.67 66.2136 169.37 65.542C168.715 65.4276 167.979 65.2402 167.587 64.6952C166.976 63.6074 166.973 62.1547 167.112 60.9186V60.9259Z" fill="var(--fill-0, white)"/>
<path id="Vector_5" d="M220.135 72.6181C222.092 75.1707 224.277 77.3534 226.316 79.6286C226.711 80.1007 226.687 80.6239 227.142 80.7869C227.554 80.9207 228.438 80.9329 228.93 80.7334C229.388 80.5533 229.53 79.9815 229.864 79.7284C230.417 79.3099 231.25 79.2831 231.876 79.5508C232.897 79.9669 234.809 79.2928 235.94 79.7746C236.135 79.8793 236.308 79.9985 236.476 80.1396C236.948 80.5752 237.316 80.546 238.135 80.6068C239.655 80.7066 242.157 80.7845 243.814 80.8331C249.071 81.0594 254.248 80.7991 259.518 80.8599C260.076 80.8696 260.688 80.7188 261.036 80.2856C261.991 79.1249 261.18 77.2196 261.674 75.8229C262.059 74.8885 261.847 73.7424 261.241 72.9393C260.921 72.4551 260.714 72.1388 260.653 71.747C260.437 69.8733 260.994 67.6736 260.286 65.7902C260.088 63.2473 260.522 60.4538 260.212 57.9572L260.159 57.8915C259.674 57.6214 258.821 57.9767 258.249 57.9791C256.441 58.3976 255.527 56.5532 254.231 55.7282C253.159 55.0688 252.024 54.1782 250.811 53.9008C249.863 53.4725 249.819 52.1926 249.658 51.2411C249.595 45.3695 249.788 39.4662 249.644 33.5969C249.473 28.28 248.448 21.1552 249.512 15.9308C249.646 15.1059 250 14.5194 250.041 13.6483C249.817 12.3586 249.559 10.9838 248.562 10.064C247.429 9.04682 245.717 9.73789 244.718 8.64288C242.854 7.13907 240.527 4.28718 238.91 2.47677C238.305 1.9244 237.584 0.766122 236.607 0.783156C235.701 0.85129 234.605 0.286752 233.652 0.449787C228.65 1.39393 223.614 0.683388 218.576 0.790456C217.758 0.90239 216.62 0.90969 216.588 1.7857C216.598 2.6398 216.498 3.86378 216.635 4.53295C216.81 4.97582 217.219 5.26539 217.738 5.8056C218.432 6.4553 218.642 6.83977 218.605 7.65738C219.132 22.4449 217.3 39.3153 218.147 53.5382C218.459 55.4533 217.801 57.3537 217.794 59.1082C217.945 60.2494 217.636 61.2714 217.302 62.3421C217.2 63.3957 216.578 64.1768 215.753 64.8412C213.691 66.4764 214.695 67.732 216.391 69.0095C217.797 70.0875 219.071 71.2603 220.131 72.6157L220.135 72.6181ZM228.485 76.7281L228.443 76.8108C228.295 76.9106 227.593 77.2221 227.461 77.1685C227.152 76.9349 226.752 76.4774 226.387 76.1927C225.763 75.6477 225.512 75.4579 225.624 74.8033C225.398 73.5501 223.912 72.6401 223.607 71.399C223.602 71.0486 224.177 70.4792 224.589 70.7177C224.869 70.8442 225.115 71.1119 225.317 71.3504C226.195 72.4867 226.942 73.8251 227.834 74.869C228.265 75.3459 228.621 76.1003 228.487 76.7256L228.485 76.7281ZM241.86 77.2221C241.619 77.3024 240.803 77.5968 240.561 77.5457C239.991 77.3267 239.407 77.1344 238.997 76.6356C237.241 74.5673 234.877 73.1584 233.062 71.0024C232.734 70.4865 233.031 70.3527 233.523 70.0023C233.908 69.7419 234.156 69.5059 234.383 69.4597C234.673 69.3696 235.131 69.4791 235.406 69.6641C235.742 69.8928 236.181 69.7468 236.451 69.9269C236.724 70.1118 237.024 70.5352 237.348 70.7615C238.975 71.9271 239.979 73.4333 241.341 74.8179C241.682 75.2413 241.787 76.7013 241.887 77.1831L241.855 77.2245L241.86 77.2221ZM250.906 57.6895C251.91 57.4413 252.714 58.0107 253.481 58.4877C253.851 58.7529 254.202 58.7772 254.448 59.0814C255.325 60.0572 256.599 61.4734 257.53 62.5051C257.732 62.7679 257.805 62.6852 257.715 62.9602C257.613 63.3057 257.386 64.1257 257.364 64.1647L257.335 64.1841C256.948 64.1136 256.249 63.9457 255.837 63.8581C253.995 63.1719 253.391 60.23 251.388 59.7506C251.037 59.607 251.142 59.0522 250.989 58.5801C250.925 58.1129 250.743 57.7552 250.908 57.6847L250.906 57.6895ZM248.713 69.557C249.032 69.8101 249.822 70.5912 250.438 71.2165C250.818 71.618 251.11 71.8906 251.198 72.0755C251.305 72.2385 251.208 72.8079 251.262 73.0123L251.296 73.0732C252.331 73.4431 253.905 74.9469 254.468 75.745C254.585 75.9932 254.514 76.621 254.482 77.1101C254.063 78.3925 252.867 77.0055 252.368 76.4945C250.268 74.8203 247.839 73.0999 245.741 71.4915C243.672 69.9974 244.961 68.552 247.541 69.0168C248.038 69.2212 248.109 69.3696 248.713 69.5546V69.557ZM239.93 22.8293C240.094 22.6566 240.425 22.7734 240.6 22.9048C241.546 23.8148 242.393 24.557 243.509 25.6447C244.511 26.8079 246.313 27.9053 245.931 29.594L245.851 29.6743C245.412 29.8422 244.893 29.6354 244.576 29.2947C243.707 28.628 243.244 27.6693 242.588 26.9149C241.626 25.725 239.307 24.6032 239.935 22.8293H239.93ZM239.523 28.5161L239.589 28.465C240.705 29.2728 244.53 33.0372 246.067 34.4461C247.493 36.1641 246.591 38.758 244.593 36.6824C242.532 34.9499 241.107 33.6967 239.75 31.3509C239.146 30.4993 238.554 29.3045 239.523 28.5185V28.5161ZM240.145 38.2178C239.752 37.8017 238.939 36.8308 239.492 36.1933C239.857 36.3442 240.729 36.7919 241.078 37.1837C242.379 38.6047 243.809 39.8628 245.232 40.9578C246.391 41.6586 246.562 43.0213 246.343 44.2331L246.267 44.3134C245.989 44.3304 245.512 44.4594 245.29 44.2818C245.173 44.109 245.229 43.9241 245.129 43.7197C244.374 42.4008 240.654 40.1013 240.276 39.2496C240.172 38.9673 240.347 38.4174 240.145 38.2178ZM239.645 42.6246C240.264 42.8485 240.973 43.3985 241.377 43.9095C241.626 44.1212 241.348 44.6954 241.531 44.9972C241.882 45.4838 243.341 45.6955 243.117 46.6689L243.1 46.7273C242.41 46.5156 241.285 46.17 240.569 45.951C240.308 45.8488 240.086 45.5763 239.865 45.3403C239.324 44.9534 238.271 42.1015 239.643 42.6246H239.645ZM221.203 60.9259C221.651 57.0447 221.064 52.9104 221.531 48.983C222.145 43.8924 222.014 37.2615 221.941 31.8498C221.972 24.4791 221.88 12.8137 221.97 5.52819C222.294 5.17049 222.752 4.48915 223.288 4.48428C224.891 4.56459 232.726 4.32125 233.574 4.58162L233.633 4.63759C233.871 4.91499 234.475 5.67663 234.493 6.26063C234.5 6.89574 234.134 7.51868 234.139 8.25598C234.117 8.89352 234.178 9.57242 234.151 10.21C233.545 17.274 235.167 24.557 234.19 31.7135C234.098 32.4946 234.098 33.3244 234.19 34.1055C234.882 39.1304 234.234 44.4959 234.544 49.4429C234.77 51.5356 233.53 54.6357 236.585 54.9861C236.963 55.0299 237.384 54.9082 237.945 54.8255C238.902 54.75 239.84 55.0201 240.761 55.1637C242.469 55.5628 245.819 54.4799 246.418 56.7941C246.491 58.1178 246.489 61.982 246.411 63.1548C246.391 63.6585 245.963 64.0089 245.626 64.3618C244.589 65.2378 243.348 65.486 242.043 65.413C240.454 65.3838 238.517 65.486 236.902 65.357C232.712 65.7999 227.761 66.2136 223.461 65.542C222.806 65.4276 222.07 65.2402 221.678 64.6952C221.066 63.6074 221.064 62.1547 221.203 60.9186V60.9259Z" fill="var(--fill-0, white)"/>
<g id="Group_2">
<path id="Vector_6" d="M268.657 36.2614C268.581 37.0571 268.216 37.6582 268.189 38.4636C267.906 47.1142 268.445 55.9497 268.242 64.6222C268.252 65.4933 267.777 66.2428 267.404 67.0044C266.859 68.17 266.732 69.7517 267.943 70.5498C269.687 71.6302 271.034 72.7812 272.484 74.4115C273.882 75.7572 275.468 77.0006 276.387 78.1297C276.767 78.6602 277.284 79.0592 277.91 79.249C278.412 79.4194 278.767 79.872 279.284 80.0253C280.3 80.2151 281.686 80.0618 282.785 79.9596C289.889 79.3172 297.605 79.653 304.638 78.8305C306.285 78.5628 307.786 77.7501 309.306 77.1393C312.456 75.9762 314.556 75.1464 317.227 73.061C318.189 72.2726 319.129 71.1508 320.128 70.562L320.199 70.4719C320.345 70.287 320.406 69.9707 320.467 69.7298C320.959 67.3621 322.891 65.4471 323.329 63.0429C323.753 62.2229 324.163 61.6097 324.114 60.6388C324.129 57.7625 324.126 54.1928 323.23 51.83C323.117 51.1682 323.237 50.5671 322.918 49.9709C321.57 47.1823 320.033 44.2112 317.658 42.1623C316.666 41.4445 316.284 39.7582 316.951 38.7824C317.29 38.3103 318.045 37.5827 318.386 37.0182C318.605 36.6581 318.679 36.3077 318.744 35.9086C318.966 34.1298 320.269 32.2805 320.323 30.5212C320.323 30.0759 320.155 29.7011 320.036 29.2899C319.799 28.5574 319.984 27.696 319.962 26.9441C320.038 26.0073 319.168 25.5571 319.022 24.7079C318.864 23.7735 318.883 22.5325 318.562 21.7051C318.152 20.6588 317.348 19.2401 316.783 18.1719C315.93 15.9989 313.874 14.7409 312.503 12.8623C310.853 10.8621 308.848 10.6747 306.953 9.21472C304.382 7.39944 302.679 5.15346 299.461 4.07548C297.87 3.53528 296.287 3.33574 294.606 3.03887C291.692 2.3624 288.4 2.7712 285.36 2.73227C282.809 2.61547 280.21 2.1653 277.564 2.231C276.862 2.24073 276.246 2.57167 275.617 2.68604C274.394 2.77851 272.175 2.85637 271.405 2.64954C270.328 2.11663 269.195 0.257552 268.091 1.8806C266.084 4.69355 267.287 6.18276 268.035 9.03952C269.599 18.0186 268.878 27.168 268.657 36.259V36.2614ZM306.884 74.4359C305.452 73.0099 304.239 70.4573 302.117 69.9001L302.058 69.9366C301.91 70.579 301.917 71.4015 302.122 72.0414C302.309 72.7447 302.616 73.2338 302.994 73.8592C303.181 74.1706 303.267 74.6111 302.813 74.6232C302.234 74.5137 301.834 73.8154 301.32 73.4966C300.445 72.7715 296.901 70.6277 298.94 69.6227C299.522 69.1944 300.211 69.3526 300.911 69.3842C301.951 69.5716 302.375 68.7029 303.159 68.2916C304.853 67.7758 305.581 70.1434 306.96 70.6131C307.408 70.798 307.598 71.2311 307.781 71.6472C308.051 72.1193 308.782 72.769 308.924 73.4844C309.214 74.6257 307.783 75.071 306.887 74.4383L306.884 74.4359ZM315.816 69.5886C315.623 70.2456 314.171 70.3965 313.835 70.0996C313.265 69.6738 312.437 67.9291 311.755 67.4716C311.501 67.2477 311.068 67.44 310.746 67.3159C310.515 67.1796 310.346 66.8998 310.027 66.929C309.694 66.929 309.194 66.963 308.975 66.9606L308.897 66.9849C308.819 67.0263 308.702 67.2258 308.536 67.4327C308.088 68.1505 307.978 67.2088 308.064 66.8803C308.302 66.1746 309.277 65.7147 309.754 65.1161C310.015 64.7536 310.77 64.975 311.167 64.919C312.283 64.9628 312.817 66.8535 313.981 66.9971C314.617 67.4278 316.069 68.6883 315.813 69.5935L315.816 69.5886ZM317.093 65.6855C316.235 65.9118 316.052 65.4106 315.36 64.846C314.503 64.1914 313.684 62.7679 312.571 62.8774L312.515 62.8531C312.466 62.7996 312.427 62.5587 312.344 62.2472C312.281 61.8652 312.062 61.5148 312.196 61.3931C312.378 61.2641 312.973 60.8456 313.177 60.8699C313.36 60.8943 313.623 61.0816 313.825 61.2276C314.283 61.5634 314.654 62.0185 315.102 62.3567C315.348 62.5076 315.653 62.437 315.906 62.7022C316.637 63.3641 317.039 64.0406 317.507 64.846C318.006 65.6636 317.979 65.5639 317.09 65.6855H317.093ZM313.021 46.6494C313.224 46.5983 313.618 46.6154 313.916 46.6567C314.971 46.7857 316.15 47.4865 316.23 48.6229L316.189 48.6691C315.553 48.601 314.651 48.7883 314.02 48.6691C313.862 48.635 313.786 48.4209 313.536 48.2968C313.365 48.1727 312.98 48.2968 312.975 48.197V47.0023C312.99 46.7954 312.939 46.6786 313.021 46.6494ZM317.348 53.8108L317.297 53.8594C316.284 53.913 314.715 53.9227 314.729 55.3024C315.012 56.013 315.806 56.6456 316.503 56.9109C317.382 57.5435 318.23 58.4609 319.1 59.2785C319.887 60.0621 320.922 61.0208 320.547 62.162C320.194 62.7217 319.327 62.5781 318.934 62.1207C317.085 60.2446 313.874 59.0011 313.007 56.4193C313.06 55.9765 313.614 54.8133 313.667 54.2074C313.48 53.6453 313.185 53.0564 313.331 52.2461C313.728 49.3772 317.161 52.4311 317.348 53.8083V53.8108ZM311.338 23.5082C311.421 23.4669 312.632 23.7881 313.124 23.8805C313.35 24.102 316.783 25.837 316.259 26.7276L316.186 26.7616C315.307 26.9855 314.605 26.2044 313.869 25.8856C313.562 25.7737 313.097 25.6764 312.78 25.5255C312.515 25.3576 311.604 24.4694 311.345 23.8951C311.262 23.7272 311.277 23.5569 311.338 23.5107V23.5082ZM308.792 31.0638C309.084 30.728 309.482 30.672 309.869 30.8472C310.765 31.4385 311.92 32.6138 312.544 33.5799L312.505 33.6188C311.689 33.5896 310.724 33.5288 310.086 34.2442C309.908 34.4389 309.771 34.5411 309.776 34.7601C309.988 35.1835 311.27 37.4586 311.328 37.6849C311.289 37.6971 311.214 37.7214 311.177 37.7312C310.134 37.792 309.445 36.7578 308.585 36.3052C308.332 36.1325 307.935 36.1544 307.737 36.0132C307.567 35.7675 307.247 34.7187 307.213 34.3683C307.123 33.6942 307.691 33.2854 308 32.7282C308.139 32.5189 308.056 32.2294 308.069 31.9617C308.122 31.5943 308.529 31.3607 308.792 31.0638ZM271.902 7.08797C272.136 6.8276 272.762 6.3896 273.329 6.1414L273.459 6.10246C277.71 6.04406 282.098 5.90293 286.347 6.00026C287.104 6.06596 287.762 6.4407 288.671 6.48693C293.127 6.67674 296.771 6.91034 300.733 8.69155C303.242 10.0275 305.827 12.4973 306.977 14.9015C307.274 15.668 307.401 16.3444 307.645 17.111C307.793 17.7388 307.581 18.515 307.813 19.1574C308.371 20.3424 308.115 21.7635 307.718 22.9461C307.73 26.3334 305.591 29.7595 303.554 32.3608C303.181 32.7939 302.779 32.8377 302.122 32.8353C300.886 32.7306 300.26 34.1882 300.085 35.1981C300.09 35.9329 300.957 36.9403 301.481 37.4002C302.009 37.7871 302.667 37.6971 303.345 38.0402C307.021 39.7363 308.673 44.0628 309.832 47.7834C310.222 49.7568 310.39 53.0102 310.103 54.9374C309.959 55.7015 309.572 56.5459 309.382 57.2783C309.153 58.1786 309.128 59.1787 308.692 60.0012C308.29 60.8383 307.886 61.7362 307.199 62.3956C306.351 63.3009 305.091 63.5636 304.263 64.4859C303.094 65.6344 301.215 65.4276 299.746 65.7439C293.911 67.0725 288.196 67.8634 282.008 66.8681C279.859 66.7659 277.05 67.3694 274.825 66.5664C273.71 66.5275 272.465 66.5226 271.897 65.4665C271.877 64.408 271.912 19.2036 271.897 7.08311L271.902 7.08797Z" fill="var(--fill-0, white)"/>
<path id="Vector_7" d="M284.407 52.4603C284.217 53.2024 283.774 53.6039 283.708 54.3339C283.647 55.0153 283.942 55.9473 284.605 56.2612C285.314 56.4242 285.857 56.7649 286.666 56.8403C287.384 56.8914 287.903 56.468 288.571 56.2831C289.94 55.9789 291.446 55.8694 292.505 54.8449C292.727 54.7087 292.983 54.6065 293.227 54.5067C294.228 54.1587 294.735 53.2219 295.319 52.4408C295.819 51.8154 295.975 51.6767 295.855 50.7715C295.768 49.5767 295.643 47.7785 295.551 46.5375C295.534 46.1676 295.414 45.9048 295.227 45.586C294.564 44.5056 294.167 43.0213 292.888 42.4884C291.838 41.8873 290.946 40.751 289.638 40.605C289.051 40.4225 288.717 40.1134 288.14 40.0842C287.289 40.0453 285.482 39.9869 284.743 40.1645L284.639 40.2035C284.225 40.3908 283.715 40.7193 283.467 41.1038C283.228 41.4858 283.284 41.9433 283.26 42.3789C283.228 45.1407 284.171 48.1946 284.48 50.9321C284.522 51.4261 284.534 51.9882 284.405 52.4603H284.407Z" fill="var(--fill-0, white)"/>
<path id="Vector_8" d="M284.851 25.8783C285.041 27.1218 284.634 28.6207 285.011 29.7838C285.289 30.1537 285.881 30.3557 286.3 30.6063C286.973 30.9567 287.362 31.2074 287.611 31.2341C288.451 31.2341 290.418 30.9981 291.434 30.9202C291.743 30.891 291.969 30.891 292.196 30.711C292.61 30.3022 294.143 28.8689 294.498 28.3725C294.737 27.8104 294.947 26.859 295.154 26.292C295.278 25.2919 295.254 23.9219 295.212 22.878C295.212 22.1699 294.781 21.6638 294.518 21.0092C293.958 19.7365 293.499 18.3933 293.007 17.1572L292.932 17.0769C292.352 16.7484 291.585 16.1717 291.139 15.5755C290.167 14.4148 288.593 14.4513 287.202 14.5073C286.624 14.5073 286.074 14.0766 285.45 14.1277C284.982 14.2226 284.561 14.5 284.305 14.9063C284.11 15.2154 284.066 15.6242 284.222 15.96C285.199 18.8046 284.544 22.8902 284.853 25.8832L284.851 25.8783Z" fill="var(--fill-0, white)"/>
</g>
</g>
</svg>
