<svg preserveAspectRatio="none" width="100%" height="100%" overflow="visible" style="display: block;" viewBox="0 0 65.2489 39.3143" fill="none" xmlns="http://www.w3.org/2000/svg">
<g id="Group">
<path id="Vector" d="M44.2018 7.16313C43.9898 9.4294 44.0299 11.6619 44.2112 13.8723C44.2171 15.538 43.9462 17.2898 44.0994 18.8309C44.1559 19.293 44.1735 19.8179 44.0675 20.2719C43.5764 23.3343 44.0475 26.9101 44.1641 29.7956C44.1794 30.3613 44.2289 30.998 44.1359 31.5334C44.0758 31.8814 43.607 32.2399 43.5529 32.5775C43.501 32.8184 43.5611 33.0803 43.6412 33.3073C43.7331 33.5669 43.9144 33.6774 44.1347 33.781C45.1217 34.7111 46.2288 36.1625 47.0803 37.2066C47.5314 37.7164 47.8258 38.7617 48.6715 38.8769C49.2285 39.0201 49.7397 39.6987 50.2178 39.012C50.7514 38.3322 51.7466 38.6779 52.5063 38.5499C54.1245 38.4172 55.9206 38.1204 57.5141 37.9725C58.0135 37.9271 58.8803 38.1588 58.8497 37.4092C58.4222 35.7412 59.1418 33.923 58.4834 32.3098C58.275 31.0841 58.4151 29.735 58.2008 28.5117C58.1089 28.0531 58.0924 27.4234 58.4764 27.1138C58.6837 26.9287 58.9757 26.8751 59.2502 26.874C59.7601 26.8973 60.4103 26.6679 60.9815 26.5574C61.6528 26.3967 62.4289 26.5259 63.1144 26.4736C63.2781 26.4468 63.4254 26.3816 63.5113 26.2629C63.602 26.1395 63.635 25.9696 63.6397 25.8136C63.7563 24.4587 63.5455 23.0864 63.2746 21.8339C63.1816 20.8876 63.3771 19.6899 63.3005 18.7936C63.2239 18.1662 62.7846 17.6052 62.1734 17.313C61.8624 17.1128 61.3454 16.9755 61.1346 16.7136L61.1122 16.674C60.9697 16.2119 60.5398 15.9232 60.1182 15.5345C59.6588 15.1713 59.6259 14.7954 60.1712 14.6685C61.2182 14.211 62.3595 14.5009 63.4513 14.4415C64.1756 14.3146 65.1202 13.8199 65.2156 13.0296C65.3357 11.4419 65.1131 9.9334 64.8422 8.34457C64.7963 7.77655 64.8763 6.98504 64.8846 6.28782C64.8987 5.69535 64.8716 5.16924 64.3546 4.78978C64.1238 4.64312 63.8376 4.70946 63.5773 4.68269C62.3147 4.44059 61.5056 2.96931 60.5669 2.26627C60.4315 2.13707 60.349 1.99273 60.3219 1.81115C60.3325 -0.232796 59.7354 0.0290995 58.0159 0C54.2835 0.161793 50.4416 0.102431 46.7317 0.211845C45.8778 0.210681 44.9297 0.117563 44.1241 0.186238C43.8532 0.211845 43.5717 0.295652 43.441 0.499348C43.0759 1.07901 44.0275 1.65634 44.1323 2.1231C44.3326 3.56178 44.2336 5.53822 44.1959 7.16197L44.2018 7.16313ZM60.5009 3.96917C60.7895 3.97499 60.9509 4.33233 61.1511 4.51391C61.3525 4.78279 61.7553 4.82237 62.0803 4.88173C62.3983 5.01908 62.628 5.3741 62.8965 5.61271C63.2805 5.98868 63.5537 6.32274 63.4289 6.83256L63.3924 6.86981C63.1474 6.95129 62.966 6.68358 62.8011 6.53109C62.4054 6.23312 62.0002 5.94561 61.7082 5.63948C61.2783 5.21579 60.9367 4.65475 60.5174 4.21942C60.4703 4.1426 60.4491 4.00409 60.5021 3.96801L60.5009 3.96917ZM60.3761 6.07481C60.4456 6.10973 61.1169 6.75225 61.8071 7.37963C62.5255 8.04543 63.2287 8.67864 63.2404 8.70541C63.3264 8.99757 63.6444 9.93573 63.6185 9.96018L63.5879 9.97065C63.5148 9.98113 63.35 9.96018 63.2663 9.88917C62.5079 9.20359 61.8024 8.47378 61.0239 7.86269C60.8095 7.71021 60.6435 7.48555 60.5351 7.24694C60.2218 6.73828 59.733 6.57183 60.3738 6.07481H60.3761ZM54.214 34.8123L54.2022 34.8251C54.1504 34.8228 52.849 34.3805 52.5616 34.2897C52.4085 34.2455 52.4285 34.2071 52.3802 34.3723C52.3532 34.462 52.3119 34.5981 52.2707 34.7343C52.2295 34.8705 52.1883 35.0055 52.1612 35.0963C52.1247 35.2127 52.127 35.2337 52.0905 35.1953C52.0387 35.1441 51.9032 35.009 51.7325 34.8414C51.4333 34.5458 51.0647 34.1791 50.7738 33.8916C50.696 33.802 50.6289 33.7857 50.6654 33.724C51.1872 33.0454 51.9845 33.745 52.5981 33.8555C52.9126 33.9056 53.3637 33.71 53.6334 33.9393C53.7936 34.0744 54.2906 34.5993 54.214 34.8135V34.8123ZM56.7144 30.5335C56.6438 30.473 56.2457 29.9958 56.1126 29.8596C56.0337 29.7769 55.9324 29.7932 55.7993 29.7932C55.6756 29.7956 55.6073 29.7641 55.5119 29.6745C55.2964 29.4848 54.9054 29.0681 54.7134 28.7829C54.0833 27.8785 54.1551 26.7099 54.1987 25.6413C54.214 25.4644 54.1598 25.2351 54.2541 25.1327C54.4272 24.9907 54.7464 25.1455 54.9042 25.284C55.1197 25.4283 55.1504 25.6739 55.2658 25.8695C55.605 26.2198 56.4318 27.0753 55.6509 27.3919C55.4813 27.4664 55.1562 27.4199 55.0231 27.4653L54.9949 27.4955C54.8971 27.9739 55.2681 28.2836 55.6073 28.6071C55.9465 28.9296 56.4859 29.3148 56.7191 29.6792C56.7556 29.6943 56.7792 30.6255 56.718 30.5324L56.7144 30.5335ZM57.3233 24.0536C57.0454 24.2934 56.5648 24.709 56.248 24.9103C55.9983 24.7858 54.8818 23.8767 54.5049 23.4507C54.2388 23.2191 54.3648 22.7907 54.6427 22.6045L54.6722 22.5859C55.0832 22.5661 55.771 22.5859 56.1986 22.5789C56.4883 22.7267 56.738 23.0584 56.9735 23.2971C57.1266 23.4786 57.3563 23.8453 57.3245 24.0536H57.3233ZM58.3162 11.7061C58.0135 11.6142 57.4918 11.4559 57.1502 11.3523C56.6603 11.1509 56.2151 10.4665 56.3811 10.2314C56.4906 9.99393 56.9335 9.8752 57.6166 9.96018C57.6943 9.99859 58.0288 10.3606 58.0971 10.4176C58.0948 10.4933 58.0147 10.5457 57.9676 10.5957C57.9028 10.6551 57.9405 10.6527 57.9676 10.754C58.0347 10.9344 58.3032 11.6712 58.3174 11.7038L58.315 11.7073L58.3162 11.7061ZM61.8554 22.5614L61.833 22.5742C60.66 22.1494 59.9085 20.7584 58.9628 20.0065C58.8214 19.8528 58.8532 19.6585 58.7767 19.4094C58.7249 19.1521 58.6507 19.0718 58.8662 19.0532C59.4574 19.0101 59.8708 19.4652 60.2289 19.8959C60.3361 20.1497 60.2654 20.1718 60.5009 20.3662C60.9073 20.7654 61.502 21.2845 61.8377 21.6721C61.939 21.8176 61.8507 22.3635 61.8566 22.5591L61.8554 22.5614ZM59.3067 16.4424C59.5434 16.532 59.5776 16.5227 59.7283 16.6438C59.9015 16.7811 60.0452 16.9778 60.1676 17.1641C60.5587 18.0161 61.833 18.4025 61.6599 19.4501L61.6304 19.4711C61.2924 19.3628 60.9826 19.1323 60.7012 18.8623C60.4774 18.6214 60.3172 18.4852 60.0086 18.3886C59.4822 18.2303 59.0181 17.5912 58.5576 17.2688C58.4999 17.2223 58.5129 17.171 58.5117 17.0116C58.5199 16.7776 58.494 16.39 58.5223 16.1712C58.7272 16.2119 59.0382 16.3574 59.3067 16.4435V16.4424ZM45.5351 29.8933C45.614 29.1728 45.654 28.4488 45.6575 27.6492C45.3914 21.4603 45.7294 15.0526 45.9331 8.83228C45.8884 6.83256 45.621 4.92247 45.674 2.94371C45.6434 2.37801 45.833 2.07887 46.2876 1.81115C46.5644 1.63656 46.8789 1.56439 47.2075 1.58534C48.5419 1.60746 49.8504 1.44916 51.1801 1.5609C53.0916 1.67497 54.9913 1.57836 56.8934 1.59116C57.2609 1.56672 57.6484 1.71804 57.8262 2.05559C58.0206 2.67017 58.5093 3.20327 58.5506 3.74103C58.5529 5.02374 58.7826 6.43681 58.2491 7.47508C58.1595 7.68343 58.0995 7.81031 57.9016 7.81846C57.1985 7.80565 53.8395 7.85803 53.2659 7.78936L53.2271 7.77422C52.8443 7.6555 52.5428 7.12588 52.1141 7.07932C51.6241 7.08864 51.4251 7.8557 51.1295 8.17812C50.8327 8.48425 50.7785 9.04063 50.8962 9.4038C50.9987 9.64823 51.2531 9.51204 51.239 9.75764C51.239 11.0113 51.239 13.0645 51.239 14.2425C51.2413 14.459 51.2331 14.6126 51.2437 14.8035C51.2896 15.0375 51.5723 15.1678 51.8137 15.2784C52.4839 15.5892 53.101 15.2889 53.7629 15.1853C54.4001 15.1655 55.0703 15.2214 55.7192 15.2179C56.1538 15.1678 56.6308 15.4134 56.7144 15.8616C56.7874 16.9499 56.8051 18.0673 56.6591 19.151C56.6626 19.5013 56.8334 19.9553 56.6956 20.2893C56.4671 20.7933 55.983 20.7456 55.5237 20.6222C54.7911 20.5792 53.6758 20.6863 53.0492 20.8271C52.8007 20.9028 52.5369 21.0424 52.3755 21.2519C52.0858 21.8304 52.2424 22.5835 52.2401 23.2179C52.5145 25.5726 52.3567 28.2975 52.2036 30.8117C52.1918 31.1714 52.2636 31.6405 51.9598 31.829C50.8974 32.212 49.5595 31.6428 48.4394 31.6835C47.6138 31.6649 46.6268 31.9478 45.8896 31.5217C45.4962 31.1155 45.4832 30.4369 45.5351 29.8933Z" fill="var(--fill-0, white)"/>
<g id="Group_2">
<path id="Vector_2" d="M28.7955 37.4497C29.5799 37.2716 30.3183 36.7956 31.0497 36.3777C32.6362 35.301 34.9128 33.952 35.7738 32.1303C35.9281 31.9231 36.4663 31.8114 36.6241 31.5961C36.7278 31.4506 36.7172 31.2457 36.7454 31.0699C36.7925 30.481 37.1176 30.0701 37.4262 29.5533C38.1411 28.3555 38.578 26.8924 39.0562 25.5364C39.2341 25.0463 39.2788 24.6087 39.3389 24.1547C39.4084 23.8486 39.5532 23.5809 39.5721 23.2666C39.6533 21.8512 39.6074 20.1995 39.2859 18.783C39.1092 17.9717 38.6558 17.0882 38.3955 16.2094C37.8879 14.1282 36.8137 12.6558 35.3745 10.8726C34.7727 10.0811 34.1037 9.63176 33.3617 8.97527C32.1945 7.89277 31.323 6.51112 30.1064 5.61718C27.9746 4.39733 25.804 2.8667 23.4166 2.12874C23.0138 1.96811 22.4697 1.85986 22.1529 1.57585L22.107 1.54908C19.3804 0.734289 15.8224 0.601595 12.9298 1.34887C12.5187 1.41638 12.2667 1.75859 11.8804 1.88314C10.9005 2.08683 9.89821 1.99837 9.03019 2.61528C8.53553 2.91442 8.13863 3.1379 7.68047 3.52784C6.17293 4.8443 4.54997 6.34816 3.5418 7.80081C2.56543 9.15685 1.86937 10.9296 1.30875 12.3194C1.09558 12.6185 0.792892 12.9654 0.721048 13.3483C0.265252 15.1618 -0.0774914 17.7412 0.0155523 19.72C0.113307 20.1472 0.284084 20.6232 0.252285 21.0923C0.367706 22.5973 0.339452 24.3573 1.07438 25.7692C1.71862 26.9285 2.51949 28.4556 3.59479 29.2099C3.82446 29.4776 3.8327 29.9595 4.08239 30.2621C4.71838 31.0176 5.52987 31.5798 6.14466 32.3724C7.68989 34.1941 9.85228 35.1101 11.8604 36.2147C13.6412 37.0121 15.6328 37.3368 17.4771 38.0154C18.1108 38.2773 18.5925 38.4566 19.298 38.4507C21.3979 38.5078 23.5968 38.3483 25.5013 38.027C26.6425 37.7826 27.6707 37.6278 28.7955 37.4509V37.4497ZM30.8837 34.8645L30.8589 34.8738C30.687 34.8575 30.2724 34.9169 30.0769 34.889C29.7766 34.8098 29.1217 33.9799 28.7625 33.6517C28.5847 33.4887 28.5034 33.3374 28.355 33.3246C28.2985 33.3164 28.2361 33.3094 28.1831 33.2757C27.9546 33.1034 27.4835 32.6378 27.5482 32.4644C27.6825 32.3608 28.2443 32.2188 28.4151 32.1571C28.6883 32.3398 29.2301 32.8252 29.6105 33.1244C30.0369 33.4747 30.3867 33.7622 30.7235 34.0404C30.7906 34.1021 30.793 34.0707 30.8071 34.1871C30.8236 34.3687 30.9025 34.8471 30.8825 34.8645H30.8837ZM32.2169 33.519C31.9931 33.4351 31.3454 32.8625 30.6057 32.3189C30.1806 31.993 29.8838 31.7648 29.5728 31.5262C29.3714 31.4226 29.6623 31.0536 29.7848 30.9966L29.8296 30.9803C30.8154 30.7627 31.7423 31.8999 32.5137 32.5028C32.6492 32.6064 32.8164 32.7763 32.8541 32.9381C32.9766 33.3211 32.5396 33.562 32.2181 33.519H32.2169ZM36.597 27.9121C36.5805 28.0634 36.2343 28.1972 36.1377 28.2589C36.0341 28.2857 35.4852 28.1076 35.4204 28.0925L35.4004 28.0727C35.371 28.0354 35.3639 27.954 35.3663 27.8923C35.338 27.6606 34.9635 27.5955 34.7515 27.5058C34.4676 27.3941 34.3581 26.9623 34.0425 26.9134C33.9388 26.9041 33.8481 26.9215 33.8411 26.8447C33.8316 26.7702 33.8411 26.6445 33.7763 26.5712C33.4147 26.2394 33.7869 25.7668 33.8293 25.3827C33.8434 25.2733 33.8293 25.1755 33.874 25.1616C33.9647 25.1546 34.4641 25.2884 34.636 25.3187C34.9576 25.5096 35.1884 25.8891 35.5017 26.0916C36.0776 26.4862 36.5994 26.8249 36.6017 27.6106C36.6088 27.7142 36.61 27.8306 36.5982 27.9121H36.597ZM35.5029 24.5575C35.4581 24.469 35.3321 24.3189 35.1943 24.2467C35.0271 24.1443 34.8363 24.0779 34.7197 24.0383C34.5724 23.9964 34.6113 24.0034 34.5595 23.8044C34.5336 23.7054 34.4935 23.5832 34.4217 23.4843C34.3593 23.3807 34.1897 23.3306 34.2639 23.2526C34.4523 22.9977 34.6266 22.9838 34.8586 23.1525C35.4287 23.5436 36.0953 24.4318 36.5994 24.9567L36.6088 24.9695C36.3285 24.8531 35.7926 24.7169 35.5017 24.5586L35.5029 24.5575ZM37.8631 23.7997C37.5746 23.8591 37.4321 23.5076 37.2189 23.3818C36.2731 22.6206 33.7009 21.6021 34.8893 20.1355L34.9317 20.1087C35.1743 20.1122 35.5017 20.3183 35.6831 20.4533C36.3568 21.0504 37.266 21.9443 37.9232 22.6381C38.0504 22.7999 38.1423 22.8196 38.1788 23.0082C38.2165 23.2585 38.1328 23.7357 37.8643 23.7997H37.8631ZM37.3508 18.6433C37.5651 18.8854 37.8031 19.2858 37.9833 19.5849C38.1529 19.8748 38.2765 20.1646 38.1057 20.4614C38.0068 20.5999 37.9432 20.7245 37.8278 20.7012C37.531 20.4882 35.9681 19.3696 35.265 18.8656C35.106 18.7446 35.0318 18.7294 34.8551 18.5059C34.7362 18.3418 34.6902 18.1765 34.5995 18.059C34.5112 17.9519 34.4005 17.8518 34.3204 17.7377C34.0507 17.3431 34.3016 16.838 34.6843 16.6296H34.7314C34.8634 16.6925 35.053 16.7961 35.199 16.8764C35.4676 17.0649 35.6489 17.3711 35.9127 17.5678C36.4981 18.0124 36.9115 18.1358 37.3508 18.6433ZM33.6361 13.6917C33.6526 13.5672 33.6173 13.4077 33.675 13.346C34.6396 13.0725 35.1331 14.1829 35.8456 14.815C35.9175 14.8848 35.9846 14.9593 36.0529 15.0093C36.1566 15.078 36.3026 15.0443 36.4121 15.156C36.7596 15.4517 37.16 15.9254 37.1694 16.3828L37.1435 16.4119C36.4922 16.547 35.8527 16.1675 35.3203 15.8462C35.1331 15.7741 34.7903 15.7624 34.596 15.6728C34.3687 15.5657 34.099 15.2398 33.927 15.0745C33.7739 14.9488 33.8481 14.7998 33.8293 14.6369C33.7916 14.5077 33.6526 14.4332 33.6291 14.304C33.5996 14.1119 33.6279 13.8919 33.6361 13.6917ZM33.8575 30.3832C34.0719 30.5857 34.139 30.5753 34.4146 30.6986C35.0824 31.1456 34.3875 31.9988 33.662 31.7893C33.2828 31.5961 32.9247 31.2247 32.3359 30.8616C31.7811 30.467 30.7506 29.8687 31.5515 29.2471L31.5962 29.2332C31.7882 29.1924 32.1121 29.239 32.3323 29.2437C32.5219 29.2239 32.655 29.289 32.7905 29.4194C33.1415 29.7127 33.5148 30.0922 33.8587 30.382L33.8575 30.3832ZM11.8215 34.6806C11.4752 34.4711 10.97 34.165 10.6202 33.9543C10.5424 33.9135 10.5672 33.9031 10.48 33.9042C10.3776 33.8891 10.1726 33.9426 10.0996 33.867C9.99362 33.7506 9.26457 33.1826 9.28106 33.1255C10.2998 33.0371 11.9287 33.3572 11.8262 34.655L11.8227 34.6806H11.8215ZM16.9283 36.2299C16.8094 36.2427 16.6657 36.2357 16.5467 36.238C16.3017 36.238 16.118 36.018 15.9354 35.8935C15.6834 35.6397 15.3442 35.5338 15.1746 35.3813C15.1098 35.2649 15.0368 34.9891 14.9709 34.8936C15.1004 34.8668 15.7694 35.0368 15.9767 35.0566C16.2511 35.0938 16.5184 35.7771 16.9118 35.6572L16.9365 35.6607C16.9318 35.6746 16.9472 36.2159 16.9283 36.2299ZM22.8336 36.6012L22.816 36.6361C22.4909 36.7618 21.9986 36.2031 21.8078 36.0832C21.7536 35.9924 21.4969 36.0681 21.365 36.0413C21.2413 36.0145 20.557 35.308 20.3521 34.9797C20.0482 34.5863 20.5346 34.6352 20.769 34.676C21.213 34.7784 21.5416 35.1008 21.9397 35.2707C22.3036 35.6549 22.9432 36.0017 22.836 36.6L22.8336 36.6012ZM22.1965 32.5529C21.8655 32.6588 21.405 32.6949 21.0505 32.7566C20.1024 32.902 18.2698 33.0371 16.8459 33.0254C15.2747 33.1337 13.8979 32.0966 12.4434 31.6799C11.5895 31.3982 10.5919 31.3388 9.60376 31.1444C8.07738 30.6032 5.30255 28.891 4.49343 28.1379C4.30381 27.8934 4.1401 27.6176 3.87982 27.4337L3.8386 27.3941C3.64662 27.1799 3.39929 27.017 3.19082 26.804C2.77743 26.1312 2.42056 25.3397 2.09903 24.6064C1.60908 23.4913 1.9047 21.999 1.74334 20.7047C1.37235 19.5011 1.64795 18.2405 1.80459 16.8705C2.14025 14.9069 2.61136 13.2052 3.58537 11.7805C4.62652 9.82846 5.47451 7.98239 6.89726 6.4343C8.13391 5.04102 9.92059 4.02137 11.6813 3.39398C12.136 3.2578 12.6106 3.2869 13.0864 3.1414C13.6035 2.98194 14.0616 2.79104 14.5951 2.74099C16.3854 2.54661 18.2439 2.23117 19.9917 2.54545C21.5204 2.94003 22.9726 2.96098 24.2611 3.61514C25.7309 4.37172 27.2632 5.83834 28.4127 6.87778C29.0593 7.57267 29.9214 8.34788 30.2995 9.18362C30.356 9.36171 30.3996 9.56308 30.4397 9.74116C30.528 10.1811 30.8589 10.6037 31.0733 11.0064C31.6834 12.0877 31.7175 12.92 31.9743 13.9862C32.105 14.5158 32.5761 14.8022 32.5773 15.3632C32.7069 16.5167 32.8117 17.8518 32.4725 18.9506C32.4419 19.4651 32.5808 20.1483 32.4348 20.5266C32.35 20.7233 32.1745 20.8711 32.1086 21.0795C32.0355 21.3053 32.0862 21.5579 32.0591 21.7919C32.0414 22.169 31.6198 22.5799 31.5079 22.9605C31.3866 23.3749 31.4843 23.7962 31.3524 24.2199C31.0097 25.3839 30.1323 26.2627 29.5799 27.195C29.3114 27.5815 29.2089 28.0913 28.9333 28.4324C28.2997 29.1459 27.5777 30.027 26.8381 30.5613C25.7298 31.4308 24.2705 31.631 22.9726 32.1012C22.6558 32.2153 22.4674 32.4527 22.1976 32.5552L22.1965 32.5529ZM25.0396 33.335L25.0785 33.3234C25.3446 33.3129 25.877 33.3234 26.1267 33.3187C26.2209 33.3153 26.2633 33.3234 26.3304 33.3711C27.0701 33.9554 27.9663 34.6224 28.5376 35.4407C28.6742 35.8749 28.216 36.0925 27.838 36.0366C27.2844 35.9889 27.0206 35.5245 26.6637 35.2696C26.4352 35.1066 25.9983 34.9029 25.7203 34.7132C25.5107 34.5398 24.3447 33.6505 25.0396 33.3327V33.335Z" fill="var(--fill-0, white)"/>
<path id="Vector_3" d="M23.9434 14.9907C23.7549 14.5484 23.265 13.9512 22.9858 13.4647C22.3357 11.9224 21.4041 10.287 19.9201 9.39543C19.4549 9.15099 18.8613 8.78201 18.3749 8.83322C17.965 8.81227 17.6753 8.58995 17.2254 8.62021C16.9039 8.60275 16.6565 8.69937 16.401 8.77735C15.8215 8.87862 15.3586 8.77968 14.8486 9.1312C14.0796 9.59097 13.1338 9.67827 12.4118 10.2137C11.9019 10.6339 11.6251 11.4301 11.0362 11.8398C10.6464 12.1331 10.0551 12.026 9.80309 12.4974C9.49334 13.0014 9.79014 13.6975 9.68296 14.2318C9.57461 15.0209 9.09996 15.7275 8.86676 16.5015C8.67714 17.0439 8.8644 17.371 8.88089 17.896C8.89738 18.4314 8.79845 19.0809 8.87854 19.5523C9.05756 20.3892 9.3414 21.3483 9.50276 22.0502C9.65469 22.4646 9.77364 22.9348 9.92557 23.3434C9.96444 23.4156 10.0198 23.4947 10.0669 23.5622C10.2966 23.8346 10.3861 24.2443 10.6181 24.5225C11.3413 25.3641 12.5909 25.8855 13.559 26.4408C14.109 26.7457 14.7709 26.5839 15.3433 26.8167C15.6884 26.9657 16.0865 26.9494 16.5176 26.9436C16.9639 26.9459 17.2442 26.7155 17.6541 26.7224C18.349 26.7725 18.9944 26.1672 19.7022 25.9926C20.0061 25.8995 20.0803 25.6842 20.3241 25.555C20.4984 25.4747 20.7139 25.4327 20.8941 25.3466C21.7091 24.9834 22.2179 24.3933 22.6961 23.6728C23.0377 23.2049 23.0671 22.6636 23.5111 22.3715L23.5441 22.3319C23.6642 22.1771 23.6878 21.864 23.7914 21.6626C23.9705 21.2634 24.2484 20.8886 24.219 20.4416C24.219 20.0063 24.4628 19.7223 24.4522 19.3044C24.4463 18.3965 24.6112 17.3047 24.2885 16.5434C24.0812 16.0755 24.1507 15.4539 23.941 14.9918L23.9434 14.9907ZM18.296 11.004L18.3278 10.9749C18.6422 10.9261 19.0015 10.9819 19.2394 11.2124C19.6952 11.5907 20.1804 12.1541 20.5973 12.5615C20.6574 12.6325 20.6868 12.7523 20.6645 12.8071C20.6091 12.8664 20.0909 12.8955 20.0132 12.92C19.4372 12.4206 18.8389 11.8421 18.3372 11.2822C18.2889 11.2147 18.2842 11.0716 18.2948 11.0029L18.296 11.004ZM15.1949 10.7887C15.8062 10.5769 16.1383 11.1007 16.5694 11.4964C17.3808 11.7932 18.0604 12.8094 18.1099 13.6649L18.1005 13.6917C17.9309 13.6824 17.3196 13.5299 17.2183 13.5019C16.7295 13.0247 15.9404 12.239 15.4258 11.7327C15.2562 11.543 15.043 11.3998 14.9641 11.2485C15.0053 11.1577 15.0925 10.8271 15.1937 10.7887H15.1949ZM12.9725 19.9236C12.6486 19.9795 12.4896 19.6873 12.2764 19.4999C11.8913 19.1601 10.5368 17.875 10.8054 17.4246C11.0716 17.2383 11.3377 17.5933 11.5203 17.7714C12.0986 18.3674 12.903 19.0995 13.0066 19.9085L12.9736 19.9225L12.9725 19.9236ZM12.0102 13.8174C11.9478 13.5404 11.9937 13.0561 12.2811 12.9281L12.327 12.9118C12.8971 12.7919 13.3918 13.3285 13.7333 13.7406C13.7981 13.836 13.7745 13.9489 13.8475 14.0467C14.281 14.5286 14.8298 14.8929 15.1301 15.4854C15.2208 16.093 14.6437 16.1232 14.1761 15.8753C13.7357 15.4342 12.2411 14.1887 12.0102 13.8174ZM22.874 19.2613C22.8999 19.7805 22.5619 20.1506 22.4794 20.6534C22.3239 21.268 22.3122 21.8547 21.7963 22.3238C21.5337 22.6194 21.4182 22.8219 21.2404 23.0908C20.9954 23.4575 20.4972 23.745 20.0909 24.0499C19.7458 24.3211 19.4502 24.4538 19.0215 24.519C18.3172 24.6377 17.6741 24.8112 17.0087 25.101C16.4952 25.264 15.6165 25.2104 15.2385 24.7227C15.063 24.3817 14.8204 24.0709 14.5825 23.7543C14.3752 23.4482 14.2975 23.1385 14.5236 22.8115C14.6001 22.6811 14.7038 22.5298 14.6838 22.3866C14.394 21.8779 14.1761 20.8525 14.3834 20.281C14.5 20.0365 14.7462 19.8643 14.8027 19.5837C14.9087 19.1694 14.8592 18.6898 15.0336 18.3022C15.361 17.662 16.8532 16.0837 17.3773 15.6774C18.0781 15.2374 18.992 14.7637 19.7929 14.4797L19.8424 14.4715C20.1875 14.4413 21.0084 14.4471 21.337 14.5239C21.6773 14.7428 22.1473 15.4179 22.4665 15.7426C23.0907 16.746 22.8728 18.1055 22.8751 19.266L22.874 19.2613Z" fill="var(--fill-0, white)"/>
</g>
</g>
</svg>
