<svg preserveAspectRatio="none" width="100%" height="100%" overflow="visible" style="display: block;" viewBox="0 0 140.414 40.1936" fill="none" xmlns="http://www.w3.org/2000/svg">
<g id="Group">
<path id="Vector" d="M106.072 21.6888C105.999 20.3639 105.825 19.0329 105.762 17.7115C105.635 15.1634 106.053 11.897 105.782 9.57415C105.578 8.66098 106.137 7.40386 105.225 6.81768C104.935 6.64207 104.646 6.61059 104.422 6.37927C103.797 5.76645 102.147 3.78145 101.781 3.19165C101.54 2.79077 101.814 2.17069 101.611 1.78192C101.347 1.37863 100.711 0.903874 100.162 0.897818C97.8103 0.851797 95.3869 1.02862 93.0773 0.874808C92.4487 0.853008 91.7596 0.83363 91.1492 0.794875C90.3414 0.750064 88.6737 0.362511 88.6846 1.616C88.7306 2.07501 89.3568 2.33661 89.49 2.79683C89.5687 3.02694 89.6462 3.27642 89.6717 3.51985C89.7165 4.12298 89.0455 4.27316 88.6834 3.85896C88.2377 3.44719 87.4166 3.01119 87.1295 2.35114C86.9479 1.91757 87.1126 1.18606 86.541 0.972907C86.0686 0.890552 85.6871 0.676187 85.2584 0.810619C84.8708 0.900241 84.4034 0.92204 84.0073 0.862696C82.2646 0.641065 80.3413 0.286212 78.4871 0.542966L78.4229 0.562343C77.9627 0.816675 77.2239 0.568399 76.7625 0.780342C76.3193 1.04678 76.0649 1.45493 76.3847 1.94905C76.5106 2.25425 76.7407 2.43228 76.8667 2.70599C77.0265 3.28248 76.8449 4.06485 76.8994 4.65345C76.9951 6.10798 77.1864 7.9101 77.2651 9.48574C77.4177 13.5127 77.058 17.9368 77.5522 21.5895C77.5631 22.9641 77.3329 24.3036 77.7157 25.574C78.0863 26.9971 77.8416 28.2433 78.4762 29.6021C79.5856 31.2153 80.2069 32.9424 81.8467 34.1232C82.4729 34.6113 83.3921 34.9806 84.126 35.4251C84.3658 35.5559 84.5148 35.7739 84.6856 36.0004C85.4691 37.0686 86.2551 37.4283 87.5159 37.8061C87.7521 37.8788 87.9592 37.9587 88.1602 38.1017C89.6486 39.2183 91.7584 39.2256 93.5399 39.5271C93.8536 39.5974 94.1842 39.7633 94.5258 39.7403C94.9339 39.6991 95.2464 39.5513 95.6448 39.4847C97.3949 39.1638 98.6665 38.7399 100.096 37.8619C100.784 37.4634 101.634 37.1715 102.248 36.7501C102.999 36.1905 103.797 35.4421 104.328 34.713C104.539 34.4344 104.494 34.1438 104.651 33.7998C104.789 33.5128 105.043 33.1652 105.19 32.8806C105.925 30.892 106.145 28.0459 105.782 25.832C105.733 25.6382 105.787 25.2446 105.87 25.0242C106.19 24.0153 106.114 22.7824 106.072 21.6912V21.6888ZM103.913 18.695C104.001 18.7398 104.219 18.6841 104.255 18.7846C104.282 18.8948 104.29 19.3514 104.248 19.458C104.217 19.5197 104.137 19.5234 104.029 19.5282C103.835 19.5318 103.656 19.5645 103.504 19.4955C103.119 19.2666 102.024 17.9501 101.504 17.4354C101.287 17.1956 101.08 17.066 101.008 16.9534C100.922 16.7572 100.857 16.5162 100.77 16.2715C100.694 15.9567 100.532 15.838 100.718 15.6515C100.922 15.4504 101.273 15.3911 101.527 15.4831C101.628 15.5304 101.748 15.6648 101.941 15.8489C102.736 16.6264 103.621 17.5384 103.877 18.6647L103.912 18.6925L103.913 18.695ZM100.609 8.30128C100.503 8.15474 100.354 8.11114 100.406 7.87255C100.447 7.62065 100.615 7.28275 100.891 7.41718C101.124 7.53345 101.467 7.87013 101.623 8.10024C101.646 8.17412 101.606 8.28554 101.679 8.357C102.077 8.83538 102.599 9.33799 102.643 9.99804L102.615 10.0307C102.248 10.1409 102.148 9.65772 101.87 9.6117C101.766 9.60685 101.622 9.64076 101.544 9.61654C101.303 9.46152 101 9.10667 100.763 8.87292C100.739 8.84628 100.689 8.79178 100.665 8.76393C100.551 8.67067 100.666 8.42239 100.61 8.30007L100.609 8.30128ZM100.248 4.81816C100.637 3.37089 102.02 5.60053 102.323 6.11282C102.842 6.88308 103.98 7.68726 103.862 8.76877L103.859 8.79905C102.948 7.90162 101.301 6.17096 100.301 5.15605C100.156 5.03858 100.241 4.97318 100.249 4.81816H100.248ZM86.7493 4.36036L86.7965 4.34461C87.2034 4.26226 87.5946 4.66677 87.9277 4.8557C88.0706 4.93927 88.1772 4.94653 88.228 5.00103C88.5211 5.29533 88.9293 5.70347 89.226 6.0014C89.3108 6.06559 89.3047 6.13462 89.341 6.31629C89.4718 6.77772 89.6995 7.50317 89.2042 7.79262C88.5768 7.17617 87.4057 5.85849 86.7469 5.16695C86.5882 4.99134 86.4877 4.8993 86.4647 4.85449C86.4077 4.7358 86.6475 4.38095 86.7493 4.36036ZM87.8998 20.9355C88.0258 20.9512 88.1953 20.881 88.245 21.0215C88.291 21.1305 88.4872 21.3521 88.4799 21.4599C88.4642 21.5071 88.3879 21.5955 88.3346 21.6282C87.9071 22.0013 86.5676 20.5383 86.8873 20.1519C87.1247 20.0502 87.5292 20.0962 87.7278 20.2573C87.901 20.3953 87.9131 20.709 87.8889 20.9028L87.8998 20.9355ZM87.7872 19.3235C87.3488 19.0958 86.1437 17.7818 86.9564 17.3082C87.3488 17.6558 88.0015 18.0797 87.8913 18.6877L87.918 18.7107C88.2183 18.6477 88.4157 18.8996 88.5284 19.154C88.6035 19.3199 88.7682 19.4022 88.578 19.5512C88.2668 19.6614 88.1033 19.2714 87.7884 19.3235H87.7872ZM86.8873 10.2693C86.9212 10.2669 86.9903 10.2621 87.0242 10.2596C87.5583 10.8567 88.3927 11.3726 88.4896 12.2349L88.4642 12.264C87.9931 12.3488 87.5595 12.195 87.2906 11.7493C87.2555 11.6572 87.304 11.5567 87.2313 11.4804C86.96 11.1256 86.4114 10.6944 86.8885 10.2705L86.8873 10.2693ZM88.417 34.6682C87.6479 34.6052 86.9176 34.4369 86.2031 34.1377C85.3589 33.881 84.3719 33.6194 83.604 33.2064C82.1144 32.3356 81.0038 31.1669 80.2021 29.6239C79.9199 29.2194 79.9683 28.8089 79.9065 28.3317C79.1096 26.3079 79.4669 24.0735 79.3083 21.9165C79.2804 20.772 79.2695 19.3877 79.175 18.3268C79.1654 18.1088 79.0394 17.9392 78.8941 17.7576C78.7427 17.5735 78.6906 17.3724 78.6942 17.0273C78.6845 16.4653 78.6749 15.7883 78.71 15.2421C78.7257 14.8969 79.0467 14.7286 79.1302 14.427C79.2053 13.6471 79.1799 11.8111 79.1617 10.7429C79.2223 10.101 78.9159 10.0101 78.6906 9.48816C78.2691 7.80231 78.7887 5.41523 78.5622 3.61553C78.5247 3.35636 78.3963 3.1432 78.3878 2.88766C78.3878 2.57519 78.5404 2.31239 78.8383 2.32934C79.7552 2.37536 83.3533 2.24335 83.9335 2.36931L83.9686 2.38384C84.143 2.4444 84.43 2.70478 84.4131 3.06327C84.407 3.18075 84.3816 3.29822 84.3513 3.40722C83.5822 6.10071 84.0255 10.2294 84.2447 12.786C84.4639 14.5687 84.8575 16.5428 84.8709 18.3377C84.6553 19.8552 84.8951 21.4938 85.0259 23.0113C85.0259 23.8615 84.8527 24.7335 85.3916 25.4614C86.4889 28.0871 89.3907 27.8981 91.1516 26.0657C91.8638 25.1308 91.8008 23.9524 91.7402 22.8418C91.7802 21.225 92.0103 19.5464 91.957 17.8181C91.9401 16.6034 91.5658 15.1053 91.5513 13.9426C91.7208 12.4505 91.6409 10.474 91.5065 8.87414C91.3914 7.11319 91.9473 4.84359 91.3987 3.06569C91.4144 2.75323 91.7015 2.35962 91.9885 2.33661C92.7115 2.35477 97.1926 2.49768 98.1336 2.52554C98.5902 2.51222 98.692 3.13593 98.6314 3.52833C98.371 4.86418 98.5188 6.15884 98.6314 7.49348C98.7961 11.3617 98.8445 15.1513 99.008 19.0098C98.5527 22.5911 98.9366 26.3588 97.7025 29.7027C97.6007 29.9195 97.4227 30.0648 97.2859 30.1762C97.0679 30.3288 96.9649 30.5965 96.8172 30.8484C96.5519 31.2674 96.0469 31.8015 95.7066 32.1237C95.5019 32.3247 95.3324 32.441 95.0853 32.5475C94.3162 32.8455 93.3861 33.4849 92.594 33.8265C91.3066 34.3569 89.7855 34.5907 88.4133 34.6706L88.417 34.6682ZM95.5734 37.9127L95.5455 37.9309C95.256 37.8594 94.6481 38.0774 94.3744 37.874C94.0559 37.5845 93.6513 37.1594 93.3304 36.8143C93.0131 36.5091 92.8229 36.1106 92.9525 35.7097C93.4527 35.941 94.0219 36.4739 94.5197 36.7004C94.6638 36.7731 94.8564 36.8397 95.0502 36.9015C95.3396 36.9947 95.6654 37.5663 95.5734 37.9127ZM97.1914 36.8978L97.1526 36.9124C96.9431 36.962 96.6343 36.9632 96.4587 36.8361C96.214 36.7113 96.0299 36.268 95.6727 36.2911C95.4583 36.1481 94.7728 35.4893 94.7534 35.2265C94.8564 34.9031 95.3602 34.7832 95.6497 34.8777C96.1559 35.195 96.6646 35.8793 97.0085 36.3613C97.1793 36.6144 97.2507 36.8348 97.1914 36.8978ZM100.021 35.0485L99.9902 35.0642C99.7129 34.9189 99.2684 34.9092 99.048 34.6549C98.8627 34.4889 98.698 34.1959 98.4897 34.1026C98.2753 34.0663 97.9944 34.076 97.7691 34.0542C97.344 33.9936 97.2289 34.369 96.891 34.4962C96.6403 34.6016 96.4272 34.254 96.3787 34.0033C96.4732 33.7405 97.0388 33.1761 97.2338 32.8915C97.2725 32.8431 97.2871 32.8394 97.384 32.8394H97.9822C98.0561 32.8418 98.1009 32.8612 98.1494 32.9072C98.5745 33.359 99.0843 33.7986 99.5107 34.2637C99.702 34.5107 100.092 34.719 100.019 35.0473L100.021 35.0485ZM102.437 34.3593C102.381 34.4889 102.186 34.587 102.053 34.6536C101.939 34.6985 101.863 34.6294 101.752 34.5786C101.6 34.5107 101.451 34.5531 101.309 34.4962C101.049 34.3581 100.477 33.6811 100.391 33.3142L100.361 33.2936C100.214 33.2669 99.983 33.3105 99.8934 33.2585C99.6184 33.0659 99.2709 32.6711 98.9947 32.3974C98.3432 31.8487 98.4715 31.3449 99.0541 30.8229C99.3883 30.439 99.5857 30.6594 99.8498 30.9368C99.9563 31.0373 100.096 31.0361 100.255 31.1572C100.288 31.1996 100.355 31.2832 100.389 31.3255C100.513 31.8257 100.999 32.1043 101.366 32.464C101.757 32.8346 102.208 33.1143 102.295 33.6496C102.396 33.8567 102.546 34.1256 102.439 34.3618L102.437 34.3593ZM103.135 32.2532C102.892 32.0486 101.028 30.2852 100.269 29.5803C100.201 29.5404 100.207 29.4265 100.2 29.3514C100.168 28.758 100.196 28.0156 100.691 27.6232L100.744 27.6002C100.885 27.5639 101.064 27.7116 101.169 27.8182C101.933 28.5994 102.544 29.5392 102.984 30.5262C103.202 30.8581 103.65 31.1378 103.67 31.529C103.701 31.7833 103.281 32.2048 103.135 32.252V32.2532ZM104.262 28.3814C104.255 28.6078 104.281 28.7713 104.238 28.8052L104.206 28.821C104.01 28.85 103.59 28.8476 103.389 28.6793C103.074 28.4407 102.17 27.5263 101.694 27.008C101.481 26.8093 101.461 26.7028 101.361 26.4472C101.258 26.2958 101.055 26.188 101.028 26.0197C100.997 25.8489 100.823 25.7218 100.803 25.528C100.761 25.0726 101.004 24.6185 101.037 24.1582C101.048 24.0008 101.018 23.8216 101.125 23.7731C102.38 23.6835 103.337 26.704 104.162 27.5857C104.333 27.8242 104.236 28.0326 104.261 28.3814H104.262ZM103.449 24.3084C103.203 24.1001 103.289 23.8603 103.054 23.6726C102.369 22.9544 101.379 22.3367 101.112 21.5362C100.918 21.3279 101.052 20.9512 101.015 20.7078C100.958 20.4474 100.717 20.3505 100.839 20.0199C100.946 19.8625 101.054 19.7171 101.028 19.5088C101.004 19.3029 101.107 19.0413 101.264 18.936L101.301 18.9154C101.48 18.9796 101.875 19.4773 102.37 19.9412C102.789 20.3881 103.175 20.6691 103.449 21.122C103.679 21.4684 104.067 22.0509 104.32 22.43C104.465 22.6383 104.476 22.6577 104.479 22.8769C104.562 23.5067 104.388 25.2373 103.45 24.3072L103.449 24.3084Z" fill="var(--fill-0, white)"/>
<path id="Vector_2" d="M29.138 4.1873C28.6718 3.81549 27.9245 3.06098 27.5564 2.63951C27.4365 2.49539 27.3807 2.36702 27.3638 2.20473C27.3916 1.6452 27.1058 1.26976 26.7437 0.803484C26.183 0.26091 25.1584 0.0925669 24.4462 0.40382C23.6433 0.717495 22.7628 0.841028 21.9162 0.907638C20.0923 1.013 18.1025 0.792584 16.2531 0.853139C15.2867 0.838606 14.7441 1.59918 15.065 2.50145C15.1861 2.84661 15.4465 3.20268 15.5337 3.54421C15.7735 4.54094 14.8604 4.56759 14.3178 3.95719C13.5354 3.0198 12.3679 2.50024 11.3615 1.80749C10.8117 1.32305 10.3369 0.390498 9.47096 0.604863C7.60707 1.37512 5.54094 0.487386 3.78363 0.142222C2.80869 -0.00189909 1.67873 -0.0612431 0.723171 0.0962002L0.666253 0.118C0.283545 0.262121 -0.101591 0.669051 0.0243631 1.1111C0.158795 1.55679 0.45915 1.82081 0.510016 2.32705C0.610538 3.20147 1.51886 3.52241 1.96334 4.35322C2.49743 5.34754 2.71302 6.34306 3.27133 7.3398C3.67948 8.03982 3.90352 8.83914 4.12152 9.62152C4.67621 11.6646 5.7553 13.5503 6.53889 15.562C6.9228 16.4739 7.05481 17.4053 7.39271 18.3087C7.85051 19.2679 8.3083 20.2816 8.58928 21.2965C8.65952 21.5133 8.69222 21.7216 8.68617 21.9554C8.57232 25.3683 9.06767 29.1154 8.40035 32.2752C8.19688 32.8601 7.92196 33.5262 8.16902 34.1318C8.34221 34.4866 8.83756 34.6247 9.15245 34.8185C10.4423 35.6675 11.6933 37.0651 12.7216 38.2883C13.3477 39.0561 14.2233 39.7828 15.2855 39.6871C15.6197 39.6593 15.8753 39.7368 16.1151 39.8979C16.7884 40.4211 17.5744 39.7392 18.2224 39.7065C18.5688 39.7017 18.8061 40.0056 19.1113 40.105C19.9615 40.2769 21.6583 40.1631 22.3571 39.8434C22.6102 39.7344 22.896 39.6653 23.1685 39.7549C23.4652 39.8482 23.6687 40.0153 23.9194 39.9257C24.3276 39.6714 25.1681 39.4497 25.0821 38.8406C25.0191 38.2992 24.4244 37.8559 24.3118 37.4187C24.2113 37.0082 24.3312 36.2173 24.2973 35.6638C24.2573 35.2848 24.1059 35.0413 24.0878 34.6998C23.9691 32.3745 23.8734 28.3016 24.1108 25.6941C24.118 24.1681 24.7987 23.3058 25.4042 21.9578C25.6271 21.3074 25.7252 20.6389 25.9419 19.9958C26.5911 18.0447 27.1446 15.9883 27.7259 14.0021C28.0129 13.1967 28.4453 12.4398 28.7941 11.6574C29.4299 10.2997 29.545 8.84883 30.1057 7.47423C30.291 6.95467 30.8372 6.45691 30.9656 6.00032C31.0383 5.58491 31.0685 5.01206 30.7742 4.63057C30.3237 4.12069 29.5656 4.5034 29.1417 4.18609L29.138 4.1873ZM11.4535 3.50787C12.0252 3.31894 12.1911 4.75773 11.6558 4.92244C11.261 5.04476 11.1653 4.38835 10.9485 4.21516C10.9001 4.002 11.3433 3.54421 11.4535 3.50787ZM17.5175 19.882C17.4255 20.1738 17.2402 20.4233 16.9701 20.5759C16.7775 20.6983 16.6528 20.8194 16.6237 21.0204C16.562 21.3632 16.6722 21.6683 16.8926 21.8997C17.1239 22.1794 17.331 22.6881 17.4218 23.0672C17.3807 25.6529 17.5115 30.008 17.3758 32.5622L17.3492 32.5937C16.872 33.2501 15.8753 33.0442 15.1922 32.825C13.183 32.7003 10.4132 33.7115 10.7414 30.6329C10.6663 30.1836 10.4725 29.7791 10.498 29.3116C10.3926 26.7501 10.6554 24.0421 10.5597 21.4734C10.5488 21.2106 10.4725 20.9586 10.3345 20.7322C9.25054 19.0899 8.94292 17.1703 8.30952 15.3319C7.70154 13.8119 7.05724 12.3065 6.53889 10.703C5.51672 8.41768 4.54541 6.1614 3.86719 3.72345C3.76788 3.44126 3.58137 3.21721 3.50144 2.96893C3.39728 2.61529 3.40939 2.10663 3.86235 2.08846C5.10857 2.00247 6.39234 2.54989 7.61192 2.67464C8.24654 2.67948 9.02285 2.59591 9.07978 3.4449C9.15244 5.73994 9.97478 7.83877 10.7644 9.93398C11.2489 11.2371 11.6824 12.8879 12.3764 14.1304C12.6186 14.4284 12.9492 14.6427 13.3465 14.6173C13.9436 14.5822 14.1386 13.7344 14.3045 13.2657C14.7998 11.4781 15.6452 9.67238 16.2628 7.81213C16.3888 7.32527 16.9871 7.20658 17.1082 6.74515C17.1857 6.51141 17.2002 6.23043 17.2051 5.95067C17.1615 5.4311 17.3819 5.09684 17.4243 4.62814C17.4727 3.84698 17.1167 2.80059 17.9632 2.50508C18.5131 2.43847 19.1816 2.59228 19.6406 2.3876C19.8961 2.29193 20.1359 2.25438 20.4169 2.25196C22.1548 2.23743 24.227 1.83534 22.8282 4.25634C22.5654 5.18404 22.3498 6.11053 22.0701 7.02734C21.0988 9.99938 20.1892 12.8975 19.2119 15.7897C18.6971 17.134 17.962 18.5158 17.5175 19.8795V19.882ZM23.5658 13.9996C23.6966 14.1704 23.9218 14.3751 24.0635 14.5059C24.1967 14.7324 24.2391 15.0521 24.3506 15.3561C24.4232 15.6225 24.5116 15.8151 24.4838 15.8429L24.4475 15.8611C24.3348 15.8987 24.0962 15.8865 23.9824 15.7872C23.7741 15.6504 23.716 15.4663 23.5149 15.4397C23.2448 15.4493 23.1322 15.4808 22.9675 15.2047C22.7386 14.8486 22.3898 14.3872 22.0773 14.082C21.8823 13.6581 22.156 12.8491 22.7083 12.992C23.1031 13.1446 23.2703 13.6969 23.5658 14.0009V13.9996ZM19.9312 20.5057C20.2473 20.7431 20.5356 21.0471 20.8057 21.3329C20.9026 21.4249 20.8093 21.5678 20.905 21.6562C21.1278 21.8972 21.5166 22.1249 21.4657 22.5016L21.4597 22.527C21.1484 22.4301 20.6107 22.2618 20.2595 22.1516C19.9446 22.0353 19.5049 21.5 19.4601 21.3111C19.3632 21.001 19.6636 20.6365 19.93 20.5057H19.9312ZM20.1057 23.4559C20.3987 23.6788 20.6022 24.1947 21.0346 24.1293L21.0588 24.1342V24.5399C21.0515 24.7324 21.0891 24.7554 20.9837 24.7215C20.8238 24.6852 20.3745 24.5847 20.1759 24.5411C19.9882 24.5823 19.7011 24.776 19.471 24.8766C19.3863 24.9093 19.3754 24.9504 19.3172 24.9238C18.2963 24.4054 19.0956 22.7523 20.1069 23.4571L20.1057 23.4559ZM22.2626 33.8242C22.0991 33.8145 21.8424 33.6013 21.6789 33.5081C20.9365 32.9837 19.9688 32.2279 19.4383 31.4032C19.27 30.7395 19.9749 30.9563 20.2437 31.2954C21.0091 31.9203 21.3761 32.6966 22.0519 33.2949C22.1875 33.41 22.2977 33.6413 22.2747 33.7951L22.2626 33.8254V33.8242ZM22.4612 30.5554L22.4189 30.5954C22.2578 30.6584 21.9368 30.6571 21.7624 30.6051C21.3591 30.4936 21.1484 30.1109 20.8202 29.853C20.6809 29.7585 20.5513 29.807 20.4799 29.7246C20.1044 29.3794 19.6164 28.9023 19.2688 28.5426C19.1101 28.3621 19.0375 28.3294 19.0217 28.1962C19.0169 27.9976 19.0023 27.6052 19.0738 27.3944C19.3148 27.3084 19.6018 27.3375 19.8307 27.4574C20.5053 27.8595 21.2235 29.0331 21.9126 29.5381C21.9889 29.5841 22.0773 29.5768 22.1718 29.6132C22.5109 29.7585 22.5218 30.2611 22.4588 30.5554H22.4612ZM22.6805 20.6631L22.6647 20.6995C22.3656 20.8775 21.5093 20.215 21.2235 19.9498C21.1617 19.8904 21.1617 19.8771 21.0818 19.865C20.8565 19.8117 20.2667 19.6906 20.251 19.6749C20.2377 19.6664 20.2498 18.9155 20.2461 18.6915C20.2461 18.6515 20.3769 18.6818 20.4872 18.6672C20.664 18.6575 20.8202 18.6273 20.974 18.6769C21.1072 18.7653 21.7806 19.4569 22.1173 19.8154C22.2856 20.0515 22.7568 20.2925 22.6805 20.6631ZM24.4535 18.8973C24.4123 18.9991 24.3506 19.1626 24.3203 19.2231C24.2876 19.291 24.2525 19.2704 24.141 19.2474C23.9727 19.211 23.6433 19.1359 23.4725 19.0984C23.2569 19.0403 22.8137 18.4153 22.1258 17.7153C21.7225 17.2781 21.3676 16.8942 21.0358 16.5345C20.9716 16.4509 20.9425 16.4739 20.9571 16.3831C21.0031 16.2148 20.9934 15.8066 21.1327 15.8393C21.2598 15.8393 21.4451 15.8296 21.6001 15.8163C22.2396 15.7255 22.4709 16.4013 23.0898 16.9959C23.326 17.249 23.527 17.5094 23.8625 17.4598L23.8855 17.4828C23.791 18.0096 24.7103 18.3487 24.4523 18.8961L24.4535 18.8973ZM26.5063 11.5968C26.2835 11.793 25.2347 10.9029 24.9973 10.6134C24.9404 10.5516 24.9004 10.4923 24.8968 10.3918C24.8931 10.2864 24.9004 10.2041 24.8362 10.2053C24.5165 10.2719 23.8407 9.75232 23.5585 9.39383C23.3599 9.17946 23.4652 8.53274 23.7232 8.38983C24.1786 8.19484 24.6836 8.7689 24.904 9.07289C25.3437 9.74626 25.638 10.4208 26.2326 11.0034C26.3973 11.139 26.5657 11.3461 26.5233 11.5569L26.5075 11.5968H26.5063ZM27.3795 9.4883C27.2306 9.76564 26.8321 9.43259 26.6807 9.26182C26.0909 8.81613 25.4079 8.03376 24.9295 7.6668C24.8277 7.5905 24.6764 7.58565 24.5855 7.53479C24.4487 7.43911 24.4329 7.22838 24.3421 7.08668C24.1132 6.63131 24.4874 6.2159 24.7781 5.87558C24.9634 5.66606 25.1015 5.46017 24.9525 5.21068C24.7042 4.66205 25.3243 3.37465 25.7203 3.12517C25.8015 3.07672 25.8935 3.11911 26.0497 3.23053C26.3489 3.48123 26.6214 3.47396 26.3985 3.89179C26.2956 4.22848 26.0849 4.45132 26.16 4.78438C26.1757 4.97573 26.3331 5.30152 26.2665 5.47349L26.2314 5.49166C23.5621 5.47591 27.7138 8.78828 27.3819 9.4883H27.3795Z" fill="var(--fill-0, white)"/>
<g id="Group_2">
<path id="Vector_3" d="M127.885 39.3818C127.956 38.8017 127.787 38.1222 128.12 37.6741C128.38 37.3059 128.843 37.513 129.075 37.8425C129.378 38.2373 129.362 38.9591 129.809 39.2401C130.567 39.7015 131.623 39.5501 132.481 39.5114C134.518 39.4787 136.562 39.5307 138.556 39.366C139.106 39.4508 139.658 39.6833 140.187 39.4375L140.233 39.4036C140.477 39.205 140.434 38.8222 140.336 38.551C140.15 37.9503 140.071 37.1437 140.192 36.5042C140.446 34.7808 140.093 32.5269 139.898 30.8738C139.791 30.0163 139.9 29.0305 139.645 28.2251C138.763 26.4969 138.672 24.1619 137.637 22.3525C136.997 21.4332 136.2 21.0275 137.32 19.9836C138.11 19.2569 138.585 18.2335 138.69 17.1871C138.712 16.7753 138.92 16.4471 138.911 16.0281C138.872 14.2696 138.659 12.1405 138.021 10.6096C137.87 10.0222 137.827 9.36098 137.485 8.81356C137.165 8.40542 136.904 7.98154 136.725 7.49225C136.358 6.78376 135.684 6.4616 135.431 5.741C135.338 5.57265 135.239 5.47092 135.071 5.33286C134.223 4.63526 132.985 3.69666 132.03 3.01602C130.761 2.05319 129.459 1.11095 127.914 0.69918C127.003 0.291039 125.953 0.431527 124.972 0.333428C120.868 -0.428355 116.413 0.389138 112.212 0.139651C111.547 0.11664 111.124 0.687069 111.535 1.21632C112.311 2.03139 112.224 2.97969 112.331 4.00186C112.643 7.61215 112.7 11.478 112.779 15.19C112.523 19.1697 112.434 23.3613 112.28 27.3471C112.202 28.0907 112.428 28.9663 112.228 29.6542C112.156 29.8165 112.045 29.9546 111.956 30.1096C111.73 30.4753 111.83 31.0857 111.623 31.5363C111.281 32.2896 110.531 33.2136 111.023 34.0408C111.247 34.4429 111.774 35.0073 112.281 35.2047C113.067 35.5317 113.733 36.0452 114.362 36.5538C114.977 37.0952 115.71 37.6669 115.888 38.2615C115.947 38.5207 115.888 38.8089 116.02 39.0548C116.152 39.3091 116.422 39.5647 116.665 39.6833C116.953 39.8117 117.26 39.7608 117.641 39.756C118.475 39.67 119.167 39.8953 119.956 40.0757C120.939 40.2635 122.012 40.1084 122.954 40.1036C124.008 40.0515 127.495 40.6316 127.885 39.383V39.3818ZM125.074 31.0179L125.044 31.0494C124.476 31.156 124.026 30.5916 123.554 30.4257C123.072 29.9982 122.603 29.6433 122.603 28.9905C122.595 28.712 122.643 28.4976 122.96 28.6526C123.556 29.1819 124.105 29.7208 124.704 30.1847C124.995 30.3663 125.148 30.6836 125.075 31.0179H125.074ZM122.448 25.8332C122.351 25.5692 122.574 25.5098 122.762 25.6212C122.888 25.6963 122.971 25.8356 123.088 25.9361C123.743 26.4121 124.421 26.888 124.867 27.6002C124.902 27.7116 124.896 27.8775 124.875 27.9817L124.864 28.018C124.788 28.1004 124.324 27.7395 123.866 27.3095C123.458 26.9292 123.137 26.6059 122.785 26.2328C122.649 26.102 122.515 26.0027 122.447 25.8332H122.448ZM136.399 32.4506L136.364 32.4627C135.672 32.5887 134.972 32.3828 134.588 31.7676C134.551 31.5835 134.562 31.1245 134.588 30.9222C134.617 30.8738 134.705 30.7793 134.766 30.7369C135.132 30.4317 135.793 30.8665 135.791 31.3376C135.964 31.6271 136.516 32.3174 136.398 32.4494L136.399 32.4506ZM136.774 27.3737C136.928 27.5311 137.167 27.6583 137.306 27.8109C137.42 27.9478 137.526 28.2651 137.6 28.3934L137.605 28.4152C137.589 28.4274 136.64 28.1222 136.321 28.0277C135.911 27.5917 135.362 26.8154 134.961 26.3346C134.873 26.2171 134.822 26.1735 134.776 26.0827C134.721 26.1202 134.904 25.8986 134.925 25.8998C135.01 25.8283 135.086 25.815 135.144 25.8586C135.713 26.3721 136.287 26.8432 136.774 27.3737ZM133.009 15.1016C133.162 14.8969 133.475 14.7649 133.704 14.8933C133.916 15.0532 134.828 15.976 135.214 16.3987C135.428 16.59 135.329 16.6203 135.441 16.8529C135.592 17.0164 135.849 17.2113 135.792 17.4584L135.778 17.4911C135.756 17.5141 135.713 17.4863 135.631 17.4729C135.39 17.4015 135.027 17.3773 134.812 17.2574C134.293 16.9037 133.805 16.3696 133.238 16.0959C133.113 16.0608 132.965 16.1068 132.954 16.0438C132.961 15.8428 132.89 15.2421 133.007 15.1016H133.009ZM132.665 17.3603C133.142 17.9477 133.927 18.3268 134.439 18.8766C134.596 19.028 134.885 19.2569 134.749 19.4822C134.439 19.5803 134.066 19.5694 133.773 19.4277C133.005 18.9251 132.216 18.2202 131.514 17.6086C131.23 17.3361 131.288 16.9146 131.603 16.7184C131.697 16.6494 132.46 16.8747 132.534 16.8868L132.545 16.9122C132.529 17.0345 132.555 17.2622 132.665 17.3591V17.3603ZM115.023 32.8636H114.214C113.952 32.8346 113.825 32.9399 113.755 32.7716L113.739 32.7365C113.395 32.0776 113.502 31.2662 113.511 30.4269C113.499 29.7462 113.838 29.1165 113.945 28.4467C114.14 26.5683 113.782 22.3404 114.099 20.6812C114.135 20.4462 114.363 20.2282 114.486 20.0708C114.65 19.7898 114.564 19.6154 114.603 19.1794C114.66 17.1871 114.652 12.287 114.565 11.4562C114.515 11.2406 114.295 11.1171 114.175 10.887C114.061 10.6629 114.067 10.4074 114.032 10.078C113.92 8.5011 114.072 5.69498 113.97 4.17625C113.941 3.43143 113.641 2.08953 114.709 2.12465C119.038 2.1525 123.924 1.30231 128.111 2.56064C129.144 2.97242 129.792 3.73057 130.478 4.6171C131.375 5.70103 131.926 6.94241 132.257 8.31701C132.492 8.85958 132.655 9.41427 132.457 9.98833C132.372 10.4062 131.912 10.434 131.866 10.9027C131.827 11.3738 131.745 11.8353 131.598 12.2591C131.577 12.3354 131.608 12.5837 131.663 12.7085C131.857 13.1772 131.711 13.6713 131.407 14.0697C131.137 14.421 130.684 14.5784 130.385 14.9115C129.694 15.5982 128.561 14.995 127.844 15.4492C127.661 15.6018 127.379 15.9034 127.171 16.1056C126.904 16.3394 126.864 16.6143 126.91 16.9425C127.023 17.4584 127.615 17.789 128.065 17.9659C129.291 18.2662 130.566 19.114 131.185 20.2984C131.57 21.0735 132.029 21.7288 131.959 22.5802C132.164 23.5975 132.711 24.7468 132.528 25.8417C132.5 26.1929 132.554 26.4872 132.791 26.7427C133.037 27.0092 133.01 27.2586 133.063 27.7286C133.158 28.8452 133.22 30.7042 133.171 31.4939C133.153 31.6537 133.089 31.7736 133.037 31.9323C132.956 32.1866 132.953 32.4833 132.716 32.6262C132.236 32.9036 131.84 32.9145 131.214 32.9242C130.249 32.9218 129.411 32.9714 128.568 32.6723C128.19 32.6044 127.703 32.7183 127.357 32.6275C126.64 32.2835 126.889 31.3231 126.859 30.6449C127.125 28.6163 126.775 26.2801 126.531 24.1788C126.399 23.4219 125.699 22.5559 125.316 21.925C124.336 20.7247 122.669 20.4305 121.216 20.3651C120.877 20.3009 120.669 20.0913 120.342 20.2766C119.655 20.6 119.822 21.1498 120.03 21.7118C120.682 24.0323 120.636 26.9014 120.806 29.4035C120.747 29.9509 120.6 30.2573 120.606 30.7285C120.539 31.3667 120.806 32.1769 120.437 32.7231C120.355 32.8164 120.291 32.8588 120.186 32.8624C119.624 32.8624 116.721 32.8624 115.022 32.8624L115.023 32.8636ZM122.363 36.5224C122.16 36.4921 122.046 36.3153 121.858 36.2923C121.456 36.2208 121.03 36.4776 120.73 36.6859C120.64 36.7295 120.559 36.6992 120.449 36.6532C119.884 36.3661 119.264 35.7 118.834 35.2035C118.593 34.6936 119.399 34.9915 119.728 34.9007C120.363 34.8741 121.107 34.7457 121.713 34.8753L121.751 34.8874C122.042 34.9843 123.267 36.6556 122.363 36.5224Z" fill="var(--fill-0, white)"/>
<path id="Vector_4" d="M120.81 15.1379C121.368 15.1343 122.091 15.1948 122.573 14.9514C122.734 14.8945 122.925 14.892 123.096 14.8981C123.424 14.9235 123.632 14.8315 123.922 14.714C124.344 14.5517 124.726 14.2913 125.067 14.0031C125.258 13.819 125.328 13.6155 125.466 13.4072C125.639 13.1517 125.961 12.8356 126.068 12.6285C126.211 12.3524 126.081 11.9999 126.217 11.6984C126.259 11.5639 126.281 11.444 126.256 11.329C126.163 11.0831 126.128 10.8082 126.136 10.5406C126.128 10.2765 125.887 10.113 125.787 9.8793C125.683 9.59711 125.77 9.30523 125.582 9.04364C125.291 8.56888 124.789 7.86402 124.281 7.63391C123.716 7.04532 123.099 6.85033 122.281 6.97144C121.92 7.01625 121.56 6.87334 121.251 6.81279C120.998 6.81521 120.473 6.84306 120.242 7.02109L120.216 7.06348C120.153 7.64966 119.954 8.30486 119.965 8.9092C119.981 9.21561 120.127 9.41908 120.155 9.7267C120.178 10.4267 120.011 11.2273 120.061 11.8691C120.106 12.6019 120.03 13.3297 119.77 14.0188C119.734 14.6631 120.101 15.2154 120.813 15.1379H120.81Z" fill="var(--fill-0, white)"/>
</g>
<g id="Group_3">
<path id="Vector_5" d="M61.6763 38.6078C62.4829 38.4226 63.2423 37.9272 63.9944 37.4924C65.6257 36.3722 67.9668 34.9685 68.8521 33.0731C69.0108 32.8575 69.5642 32.7413 69.7265 32.5172C69.8331 32.3658 69.8222 32.1527 69.8513 31.9698C69.8997 31.357 70.234 30.9295 70.5513 30.3917C71.2864 29.1455 71.7357 27.6232 72.2275 26.2122C72.4103 25.7023 72.4564 25.247 72.5181 24.7746C72.5896 24.4561 72.7385 24.1776 72.7579 23.8506C72.8415 22.3779 72.7942 20.6593 72.4636 19.1854C72.2819 18.3413 71.8157 17.422 71.548 16.5077C71.026 14.3422 69.9215 12.8102 68.4415 10.9548C67.8227 10.1312 67.1348 9.66372 66.3718 8.98066C65.1716 7.85434 64.2754 6.41676 63.0243 5.48663C60.8322 4.2174 58.6001 2.6248 56.1452 1.85696C55.731 1.68983 55.1715 1.57719 54.8457 1.28168L54.7985 1.25383C51.9948 0.406057 48.336 0.267992 45.3616 1.04552C44.9389 1.11576 44.6797 1.47183 44.2825 1.60142C43.2748 1.81336 42.2442 1.72131 41.3516 2.3632C40.8429 2.67445 40.4348 2.90698 39.9637 3.3127C38.4135 4.68246 36.7446 6.2472 35.7079 7.75866C34.7039 9.16959 33.9881 11.0141 33.4116 12.4602C33.1924 12.7714 32.8812 13.1323 32.8073 13.5308C32.3386 15.4177 31.9862 18.1015 32.0818 20.1603C32.1824 20.6048 32.358 21.1002 32.3253 21.5882C32.444 23.1542 32.4149 24.9854 33.1706 26.4544C33.8331 27.6607 34.6566 29.2497 35.7624 30.0345C35.9986 30.313 36.007 30.8144 36.2638 31.1293C36.9178 31.9153 37.7522 32.5003 38.3844 33.325C39.9734 35.2204 42.197 36.1735 44.2619 37.3229C46.0931 38.1525 48.1411 38.4904 50.0376 39.1964C50.6892 39.4689 51.1846 39.6555 51.91 39.6494C54.0694 39.7087 56.3305 39.5428 58.2889 39.2086C59.4624 38.9542 60.5197 38.7931 61.6763 38.6091V38.6078ZM63.8248 35.918L63.7994 35.9277C63.6226 35.9107 63.1963 35.9725 62.9952 35.9434C62.6864 35.8611 62.013 34.9976 61.6436 34.656C61.4608 34.4865 61.3772 34.329 61.2246 34.3157C61.1665 34.3072 61.1023 34.3 61.0478 34.2648C60.8128 34.0856 60.3284 33.6012 60.395 33.4207C60.533 33.3129 61.1107 33.1652 61.2864 33.101C61.5673 33.2911 62.1244 33.7961 62.5156 34.1074C62.954 34.4719 63.3137 34.7711 63.6601 35.0605C63.7292 35.1247 63.7316 35.092 63.7461 35.2131C63.7631 35.4021 63.8442 35.8998 63.8236 35.918H63.8248ZM65.1946 34.518C64.9645 34.4308 64.2984 33.8349 63.5378 33.2693C63.1006 32.9302 62.7954 32.6928 62.4757 32.4445C62.2686 32.3368 62.5677 31.9528 62.6937 31.8935L62.7397 31.8765C63.7534 31.6501 64.7065 32.8333 65.4998 33.4607C65.6391 33.5685 65.811 33.7453 65.8498 33.9136C65.9757 34.3121 65.5264 34.5628 65.1958 34.518H65.1946ZM69.6999 28.6829C69.6829 28.8403 69.3269 28.9796 69.2276 29.0438C69.121 29.0716 68.5566 28.8863 68.49 28.8706L68.4694 28.85C68.4391 28.8112 68.4319 28.7265 68.4343 28.6623C68.4052 28.4213 68.0201 28.3534 67.8021 28.2602C67.5102 28.1439 67.3976 27.6946 67.073 27.6437C66.9664 27.6341 66.8732 27.6522 66.8659 27.5723C66.8562 27.4948 66.8659 27.364 66.7993 27.2877C66.4275 26.9425 66.8102 26.4508 66.8538 26.0511C66.8683 25.9373 66.8538 25.8356 66.8998 25.821C66.9931 25.8138 67.5066 25.953 67.6834 25.9845C68.014 26.1832 68.2514 26.578 68.5736 26.7887C69.1658 27.1993 69.7023 27.5517 69.7047 28.3692C69.712 28.477 69.7132 28.5981 69.7011 28.6829H69.6999ZM68.5748 25.1937C68.5287 25.1016 68.3992 24.9454 68.2575 24.8703C68.0855 24.7637 67.8893 24.6947 67.7694 24.6535C67.618 24.6099 67.658 24.6172 67.6047 24.4101C67.578 24.3072 67.5369 24.18 67.463 24.077C67.3988 23.9693 67.2244 23.9172 67.3007 23.836C67.4945 23.5708 67.6737 23.5563 67.9123 23.7319C68.4985 24.1388 69.184 25.0629 69.7023 25.6091L69.712 25.6224C69.4237 25.5013 68.8727 25.3596 68.5736 25.1949L68.5748 25.1937ZM71.0006 24.4053C70.7039 24.467 70.5573 24.1013 70.3381 23.9705C69.3656 23.1784 66.7206 22.1187 67.9426 20.5927L67.9862 20.5648C68.2357 20.5685 68.5723 20.7828 68.7589 20.9233C69.4516 21.5446 70.3866 22.4748 71.0624 23.1966C71.1932 23.3649 71.2876 23.3855 71.3252 23.5817C71.3639 23.8421 71.2779 24.3386 71.0018 24.4053H71.0006ZM70.475 19.0389C70.6954 19.2908 70.9401 19.7074 71.1254 20.0186C71.2998 20.3202 71.4269 20.6218 71.2513 20.9306C71.1496 21.0747 71.0842 21.2043 70.9655 21.1801C70.6603 20.9585 69.0531 19.7946 68.3301 19.2702C68.1666 19.1442 68.0903 19.1285 67.9087 18.896C67.7863 18.7252 67.7391 18.5532 67.6458 18.4309C67.555 18.3195 67.4412 18.2153 67.3588 18.0966C67.0815 17.6861 67.3394 17.1604 67.7331 16.9437H67.7815C67.9171 17.0091 68.1121 17.1168 68.2623 17.2004C68.5384 17.3966 68.7249 17.7151 68.9962 17.9198C69.5981 18.3824 70.0233 18.5108 70.475 19.0389ZM66.6552 13.888C66.6721 13.7585 66.6358 13.5925 66.6951 13.5283C67.687 13.2437 68.1945 14.3991 68.9272 15.0568C69.0011 15.1294 69.0701 15.2069 69.1404 15.259C69.2469 15.3305 69.3971 15.2953 69.5097 15.4116C69.867 15.7192 70.2788 16.2122 70.2885 16.6881L70.2618 16.7184C69.5921 16.8589 68.9345 16.4641 68.387 16.1298C68.1945 16.0547 67.8421 16.0426 67.6422 15.9493C67.4085 15.8379 67.1311 15.4988 66.9543 15.3268C66.7969 15.196 66.8732 15.041 66.8538 14.8715C66.815 14.737 66.6721 14.6595 66.6479 14.5251C66.6176 14.3253 66.6467 14.0964 66.6552 13.888ZM66.8816 31.254C67.1021 31.4648 67.1711 31.4539 67.4545 31.5822C68.1412 32.0473 67.4266 32.935 66.6806 32.717C66.2906 32.516 65.9224 32.1297 65.3169 31.7518C64.7465 31.3412 63.6868 30.7187 64.5103 30.072L64.5563 30.0575C64.7537 30.0151 65.0868 30.0635 65.3133 30.0684C65.5083 30.0478 65.6451 30.1156 65.7844 30.2512C66.1453 30.5564 66.5292 30.9513 66.8829 31.2528L66.8816 31.254ZM44.2219 35.7254C43.8659 35.5074 43.3463 35.1889 42.9866 34.9697C42.9067 34.9273 42.9321 34.9164 42.8425 34.9176C42.7371 34.9019 42.5264 34.9576 42.4513 34.8789C42.3423 34.7578 41.5926 34.1667 41.6096 34.1074C42.6572 34.0153 44.3321 34.3484 44.2268 35.6988L44.2231 35.7254H44.2219ZM49.4745 37.3374C49.3522 37.3507 49.2044 37.3435 49.0821 37.3459C48.8302 37.3459 48.6412 37.117 48.4535 36.9874C48.1943 36.7234 47.8455 36.6132 47.6711 36.4545C47.6045 36.3334 47.5294 36.0464 47.4616 35.9471C47.5948 35.9192 48.2827 36.096 48.4959 36.1166C48.7781 36.1554 49.053 36.8663 49.4575 36.7415L49.4829 36.7452C49.4781 36.7597 49.4939 37.3229 49.4745 37.3374ZM55.5457 37.7237L55.5276 37.7601C55.1933 37.8909 54.6871 37.3095 54.4909 37.1848C54.4351 37.0903 54.1711 37.1691 54.0355 37.1412C53.9083 37.1133 53.2047 36.3782 52.9939 36.0367C52.6815 35.6273 53.1817 35.6782 53.4227 35.7206C53.8793 35.8272 54.2171 36.1626 54.6265 36.3395C55.0007 36.7391 55.6584 37.1 55.5482 37.7225L55.5457 37.7237ZM54.8905 33.5115C54.5502 33.6217 54.0767 33.6593 53.7121 33.7235C52.7372 33.8749 50.8527 34.0153 49.3885 34.0032C47.7729 34.1159 46.3571 33.0368 44.8614 32.6032C43.9833 32.3101 42.9575 32.2483 41.9414 32.0461C40.3718 31.4829 37.5185 29.7014 36.6864 28.9178C36.4915 28.6635 36.3231 28.3765 36.0555 28.1851L36.0131 28.1439C35.8157 27.9211 35.5613 27.7515 35.347 27.5299C34.9219 26.8299 34.5549 26.0063 34.2243 25.2433C33.7205 24.0831 34.0244 22.5305 33.8585 21.1837C33.477 19.9314 33.7604 18.6198 33.9215 17.1944C34.2667 15.1512 34.7511 13.3806 35.7527 11.8982C36.8233 9.86719 37.6953 7.94638 39.1583 6.33561C40.43 4.88592 42.2672 3.825 44.0778 3.17221C44.5453 3.03052 45.0334 3.06079 45.5227 2.90941C46.0543 2.74348 46.5254 2.54486 47.0741 2.49279C48.9149 2.29053 50.8261 1.96232 52.6233 2.28932C54.1954 2.69988 55.6886 2.72168 57.0136 3.40232C58.525 4.18954 60.1007 5.71553 61.2827 6.79704C61.9476 7.52007 62.8341 8.32666 63.2229 9.19624C63.281 9.38153 63.3258 9.59106 63.367 9.77635C63.4579 10.2342 63.7982 10.6738 64.0186 11.0928C64.646 12.2179 64.6811 13.0839 64.9451 14.1932C65.0795 14.7443 65.564 15.0422 65.5652 15.626C65.6984 16.8262 65.8062 18.2153 65.4574 19.3586C65.4259 19.8939 65.5688 20.6048 65.4186 20.9984C65.3314 21.2031 65.151 21.3569 65.0832 21.5737C65.0081 21.8087 65.0601 22.0715 65.0323 22.3149C65.0141 22.7073 64.5806 23.1348 64.4655 23.5308C64.3408 23.962 64.4413 24.4004 64.3056 24.8413C63.9532 26.0524 63.0509 26.9667 62.4829 27.9368C62.2068 28.3389 62.1014 28.8694 61.818 29.2242C61.1664 29.9666 60.4241 30.8834 59.6635 31.4393C58.5238 32.344 57.0233 32.5523 55.6886 33.0416C55.3628 33.1603 55.1691 33.4074 54.8917 33.514L54.8905 33.5115ZM57.8153 34.3254L57.8553 34.3133C58.129 34.3024 58.6764 34.3133 58.9332 34.3084C59.0301 34.3048 59.0737 34.3133 59.1427 34.3629C59.9033 34.9709 60.8249 35.6649 61.4123 36.5163C61.5528 36.968 61.0817 37.1945 60.6929 37.1364C60.1237 37.0867 59.8524 36.6035 59.4854 36.3382C59.2505 36.1687 58.8012 35.9567 58.5154 35.7593C58.2998 35.5789 57.1008 34.6536 57.8153 34.323V34.3254Z" fill="var(--fill-0, white)"/>
<path id="Vector_6" d="M56.6879 15.2384C56.4941 14.7782 55.9903 14.1569 55.7033 13.6507C55.0347 12.046 54.0768 10.3444 52.5508 9.41665C52.0724 9.16232 51.462 8.7784 50.9618 8.83169C50.5404 8.80989 50.2424 8.57857 49.7798 8.61006C49.4492 8.59189 49.1948 8.69241 48.932 8.77356C48.3361 8.87892 47.8602 8.77598 47.3358 9.14173C46.5449 9.62012 45.5724 9.71095 44.83 10.2681C44.3056 10.7053 44.021 11.5337 43.4154 11.96C43.0146 12.2652 42.4066 12.1537 42.1474 12.6442C41.8289 13.1686 42.1341 13.8929 42.0239 14.4488C41.9125 15.2699 41.4244 16.005 41.1846 16.8104C40.9896 17.3748 41.1822 17.7151 41.1991 18.2613C41.2161 18.8184 41.1143 19.4942 41.1967 19.9847C41.3808 20.8555 41.6727 21.8535 41.8386 22.5838C41.9948 23.0149 42.1171 23.5042 42.2734 23.9293C42.3133 24.0044 42.3703 24.0867 42.4187 24.157C42.6549 24.4404 42.7469 24.8667 42.9855 25.1561C43.7291 26.0318 45.0141 26.5743 46.0096 27.152C46.5752 27.4693 47.2558 27.301 47.8444 27.5432C48.1993 27.6982 48.6086 27.6813 49.0519 27.6752C49.5109 27.6776 49.7991 27.4379 50.2206 27.4451C50.9352 27.4972 51.5988 26.8674 52.3267 26.6858C52.6392 26.5889 52.7155 26.3648 52.9662 26.2304C53.1454 26.1468 53.3671 26.1032 53.5524 26.0136C54.3904 25.6357 54.9136 25.0217 55.4053 24.272C55.7566 23.7852 55.7868 23.222 56.2434 22.918L56.2773 22.8768C56.4009 22.7158 56.4251 22.39 56.5317 22.1805C56.7158 21.765 57.0016 21.3751 56.9713 20.91C56.9713 20.4571 57.222 20.1615 57.2111 19.7268C57.205 18.7821 57.3746 17.6461 57.0428 16.854C56.8296 16.3672 56.901 15.7204 56.6855 15.2396L56.6879 15.2384ZM50.8807 11.0904L50.9134 11.0601C51.2367 11.0093 51.6061 11.0674 51.8508 11.3072C52.3195 11.7008 52.8184 12.287 53.2472 12.7108C53.3089 12.7847 53.3392 12.9095 53.3162 12.9664C53.2593 13.0282 52.7264 13.0584 52.6465 13.0839C52.0542 12.5643 51.439 11.9624 50.9231 11.3798C50.8734 11.3096 50.8686 11.1606 50.8795 11.0892L50.8807 11.0904ZM47.6918 10.8676C48.3204 10.6471 48.6619 11.1921 49.1052 11.6039C49.9396 11.9127 50.6385 12.97 50.6893 13.8602L50.6796 13.888C50.5052 13.8784 49.8767 13.7197 49.7725 13.6906C49.2699 13.1941 48.4585 12.3766 47.9292 11.8498C47.7548 11.6523 47.5356 11.5034 47.4545 11.3459C47.4968 11.2515 47.5865 10.9075 47.6906 10.8676H47.6918ZM45.4053 20.3723C45.0722 20.4304 44.9087 20.1264 44.6895 19.9314C44.2935 19.5778 42.9007 18.2407 43.1769 17.772C43.4506 17.5783 43.7243 17.9477 43.912 18.133C44.5066 18.753 45.3338 19.5148 45.4404 20.3565L45.4065 20.3711L45.4053 20.3723ZM44.417 14.0176C44.3528 13.7294 44.4001 13.2256 44.6956 13.0923L44.7428 13.0754C45.329 12.9506 45.8376 13.509 46.1889 13.9377C46.2555 14.037 46.2312 14.1545 46.3063 14.2562C46.752 14.7576 47.3164 15.1367 47.6252 15.7531C47.7185 16.3853 47.125 16.4168 46.6442 16.1589C46.1913 15.6998 44.6544 14.404 44.417 14.0176ZM55.5882 19.682C55.6149 20.2221 55.2673 20.6072 55.1825 21.1304C55.0226 21.7699 55.0105 22.3803 54.4801 22.8684C54.21 23.176 54.0913 23.3867 53.9084 23.6665C53.6565 24.048 53.1442 24.3471 52.7264 24.6644C52.3715 24.9466 52.0676 25.0847 51.6267 25.1525C50.9025 25.276 50.2412 25.4565 49.5569 25.7581C49.0289 25.9276 48.1254 25.8719 47.7367 25.3644C47.5562 25.0096 47.3067 24.6862 47.0621 24.3568C46.8489 24.0383 46.769 23.7161 47.0015 23.3758C47.0802 23.2402 47.1868 23.0827 47.1662 22.9338C46.8683 22.4045 46.6442 21.3375 46.8574 20.7429C46.9773 20.4885 47.2304 20.3093 47.2885 20.0174C47.3975 19.5863 47.3467 19.0873 47.5259 18.684C47.8626 18.0179 49.3971 16.3756 49.936 15.953C50.6566 15.4952 51.5964 15.0023 52.42 14.7067L52.4708 14.6983C52.8257 14.6668 53.6698 14.6728 54.0077 14.7528C54.3577 14.9805 54.841 15.6829 55.1692 16.0208C55.8111 17.0648 55.587 18.4793 55.5894 19.6868L55.5882 19.682Z" fill="var(--fill-0, white)"/>
</g>
</g>
</svg>
