<svg preserveAspectRatio="none" width="100%" height="100%" overflow="visible" style="display: block;" viewBox="0 0 200.477 41.2782" fill="none" xmlns="http://www.w3.org/2000/svg">
<g id="Group">
<path id="Vector" d="M54.5908 34.056C54.6816 32.4949 54.4151 30.5886 54.3122 29.1886C54.116 25.869 55.3114 22.2793 54.5145 18.933C54.5254 17.6044 54.7046 15.8556 54.7179 14.4362C54.6949 12.6195 54.2953 10.3451 54.4987 8.66043C54.5871 7.85262 54.5835 6.91887 54.5641 6.10622C54.5956 5.5152 54.3062 4.78612 53.6824 4.77643C53.112 4.90481 52.4556 5.13976 52.0184 4.59113C51.4964 4.18056 51.19 3.53263 50.8703 3.05182C50.6741 2.80718 50.4258 2.63277 50.2393 2.37723C50.1 2.19072 50.0007 1.95335 49.8953 1.74867C49.6252 1.16129 48.9458 1.07167 48.3536 1.04987C46.3759 1.21094 43.7211 0.822186 41.8572 1.05714C41.4878 1.16735 41.116 1.23395 40.7636 1.42409C40.4814 1.63603 40.0418 2.01027 39.8529 2.36633C39.785 2.56253 40.0878 2.9295 40.2235 3.21532C40.4245 3.61256 40.3252 4.00133 40.3482 4.47608C40.3458 4.65895 40.37 4.97989 40.2477 5.07072L40.2126 5.09252C39.7354 5.15429 39.3757 4.68438 39.0208 4.33559C37.8751 3.17898 37.3313 1.39624 35.7714 0.736194C35.6721 0.728928 35.5486 0.711974 35.4493 0.737407C34.2309 1.1298 32.3658 0.948141 31.2371 0.891219C29.8068 0.698654 28.3789 1.12738 26.9655 1.07893C25.7484 1.06198 23.3395 0.538779 23.3649 2.38087C23.4158 2.7006 23.7004 2.94161 23.9196 3.16929C24.3835 3.60771 24.3968 4.09942 24.5457 4.51604C24.6354 4.90722 24.6281 5.2972 24.6414 5.77074C24.6596 7.10416 24.5712 8.4291 24.5409 9.74921C24.3459 17.4688 24.6535 25.2937 24.5554 33.0448C24.5554 33.3015 24.5239 33.5752 24.4513 33.8235C24.3241 34.3649 23.5103 34.7669 23.5478 35.3713C23.4885 35.8024 23.6968 36.167 23.9911 36.4637C24.4246 36.9905 24.7952 37.4253 25.1876 38.0079C25.6394 38.6461 26.2037 39.4684 26.7802 39.6719C27.1823 39.8148 27.6389 39.6622 28.0301 39.8669C28.569 40.1539 29.1176 40.7159 29.7571 40.5064C30.0078 40.3828 30.2379 40.1794 30.5177 40.1333C31.8329 39.8899 33.8991 40.3937 35.373 39.9541C36.2971 39.902 37.3386 40.1757 38.1803 39.8257C38.5194 39.6525 38.8404 39.0288 39.2388 38.7309C39.4907 38.5141 39.544 38.1568 39.7051 37.9231C40.1786 37.3999 41.0833 39.0046 41.6344 39.1572C42.5512 39.6513 43.6497 39.5835 44.6973 39.988C45.3997 40.2496 46.0828 39.8935 46.8155 39.9686C48.5013 40.2811 50.3725 40.5294 52.0559 40.4058C52.5125 40.3671 52.9231 40.2484 53.3179 39.9723C53.4959 39.8306 53.7163 39.5399 53.9586 39.2674C54.3364 38.8314 54.5314 38.6534 54.5363 38.1592C54.5229 36.7544 54.3715 35.3483 54.5835 34.0536L54.5908 34.056ZM39.5876 9.08916C39.8747 9.22844 40.1302 9.58693 40.3567 9.80735C40.6243 10.1077 40.5953 10.5146 40.5565 10.8828L40.5335 10.9022C40.0103 10.551 39.4653 10.0556 39.3551 9.40283C39.3163 9.1812 39.3079 9.00075 39.5876 9.08916ZM33.2124 37.4277C32.8321 38.0418 31.1257 36.9881 31.2419 36.4044L31.2528 36.3717C31.2601 36.3704 31.8765 36.2324 32.0861 36.1864C32.2011 36.1682 32.2447 36.3111 32.3501 36.3402C32.4639 36.3704 32.5875 36.3583 32.7025 36.3644C33.0416 36.4007 33.4582 37.1213 33.2136 37.4277H33.2124ZM36.4811 37.3841C36.3637 37.3442 35.9628 37.2509 35.7932 37.1734C35.2906 36.5703 34.0614 36.3995 34.065 35.4452C34.128 34.4206 34.9782 35.5663 35.2785 35.8921C35.3742 35.9938 35.465 36.081 35.5498 36.1391C35.6201 36.2118 35.8453 36.1646 35.8889 36.1694L35.9059 36.1876C35.8974 36.2687 35.8732 36.517 35.987 36.586C36.165 36.7677 36.6725 37.0971 36.4811 37.3841ZM35.1271 28.8459C35.4832 29.3594 36.2208 29.6949 36.3201 30.3755C36.3588 30.6964 36.3177 30.7764 35.9979 30.6528C35.2059 30.3501 34.6427 29.5338 34.0832 28.9573C34.1038 28.8374 34.1704 28.296 34.1837 28.2888C34.1764 28.267 34.9321 28.4559 35.0872 28.4825L35.0956 28.4995C35.1017 28.5443 35.0533 28.7671 35.1284 28.8447L35.1271 28.8459ZM43.2863 33.9495C42.355 33.9083 41.3764 33.9822 40.4499 33.9543C40.2562 33.9422 40.0563 33.8756 39.8977 33.7557C38.4334 31.5539 37.7867 28.7187 37.054 26.1887C36.928 25.7115 36.4787 25.588 36.4291 25.1181C36.0839 23.1234 34.9951 21.1893 34.5955 19.2079C34.5616 18.7598 34.1667 18.5842 34.065 18.1652C33.9681 17.1769 33.8191 16.1911 33.5575 15.2803C33.5079 14.5113 32.9617 13.6308 32.1188 13.787C31.0833 14.1504 31.1935 15.2985 31.231 16.2322C31.6452 17.8696 31.8923 19.5773 31.8535 21.2741C31.8281 21.9813 31.7615 22.7371 31.8899 23.4286C31.9892 24.062 32.321 24.2001 32.2641 24.8081C32.2641 26.133 32.2641 27.7486 32.2641 29.1801C32.2205 31.388 32.3598 33.3003 32.1926 33.7036C32.0182 33.8695 31.6355 34.406 31.3194 34.3552C30.4184 34.3552 28.7059 34.3552 27.6219 34.3552C27.2053 34.3418 27.0188 34.4 26.8589 34.268C26.6131 33.9422 26.4048 33.2482 26.3624 32.8001C26.3079 26.0131 26.343 18.8288 26.5961 11.9304C26.6567 9.6608 26.3818 7.02302 26.515 4.84788C26.5295 4.21447 26.7209 3.7373 26.9159 3.14144C27.1 2.76116 27.5832 2.82293 27.9405 2.76721C29.183 2.55527 30.5225 2.49107 31.753 2.81443C32.8793 2.86772 34.3351 2.41719 34.8752 3.66342C35.5995 4.53783 35.5292 5.92455 35.8453 6.94914C37.1061 9.41494 37.8606 12.4367 39.0741 14.9243C40.2113 16.8996 40.4657 19.1437 41.2916 21.2632C41.4273 21.5865 41.5484 21.9317 41.9263 22.0007C42.3538 22.0661 42.8891 21.7791 42.9436 21.3164C42.9848 20.9592 42.7716 20.6225 42.728 20.2822C42.263 16.4599 43.3566 11.6979 42.4313 7.78844C42.2605 6.53374 42.4059 5.19184 42.3889 3.93229C42.3986 3.63194 42.5233 3.33038 42.8467 3.28072C44.191 3.29889 45.786 3.01549 47.0577 3.24802L47.1146 3.26619C47.5421 3.41515 47.788 3.97347 47.851 4.42642C47.9636 5.68112 47.6281 7.53774 47.7735 8.81303C47.7928 9.21874 48.1416 9.41738 48.2361 9.65596C48.2373 10.6733 48.2361 26.9505 48.2361 28.1071C47.7626 29.0106 47.6378 30.5245 47.6209 31.5369C47.5034 32.3072 47.9563 33.373 47.2478 33.9325C46.9899 34.1154 46.7452 34.1844 46.4691 34.1965C45.4372 34.245 44.2673 34.2292 43.2875 33.9482L43.2863 33.9495ZM48.5437 38.8072C48.4832 38.766 47.7747 38.1496 47.0759 37.5537C46.589 37.1371 46.1797 36.7859 45.786 36.448C45.7182 36.3753 45.6795 36.4019 45.7097 36.3099C45.7521 36.1997 45.866 35.7964 45.8987 35.777L45.9314 35.7734C46.348 35.9381 46.7973 35.8509 47.1316 36.2869C47.6148 36.7846 48.1489 37.527 48.6055 38.0478C48.6757 38.1362 48.7496 38.1665 48.7327 38.2561C48.7205 38.3252 48.5776 38.7563 48.5437 38.806V38.8072ZM50.1327 28.7635C50.4766 28.9742 50.869 29.3836 51.0737 29.6488C51.3922 30.2253 52.1758 30.7606 52.0886 31.4849L52.0789 31.5188C51.8525 31.4812 50.8266 30.3852 50.3458 30.4869C50.1823 30.2399 49.7464 29.6076 49.6531 29.3727C49.6834 29.053 49.7342 28.5443 50.1339 28.7635H50.1327ZM50.278 26.3134C50.3107 26.311 50.3761 26.3074 50.4088 26.3062C50.9405 26.9008 51.7774 27.4216 51.8743 28.2839L51.8512 28.3118C51.4746 28.3602 51.2602 27.9702 51.0204 27.7401C50.9502 27.6602 50.846 27.7098 50.76 27.6759C50.3059 27.3271 49.7282 26.7991 50.278 26.3134ZM52.4725 34.7173L52.4386 34.7524C52.2897 34.8045 52.0547 34.6652 51.9409 34.5405C51.5909 34.1335 51.1524 33.8162 50.737 33.4759C50.4209 33.1998 49.9401 33.2664 49.7076 32.8922C49.6543 32.8316 49.6434 32.7856 49.6482 32.679C49.6567 32.4986 49.6313 32.1413 49.6592 31.9645C49.7403 31.8966 50.2514 31.8991 50.3458 31.939C50.5953 32.1376 50.5663 32.1158 50.8666 32.2406C50.9575 32.3096 51.0471 32.4089 51.1125 32.5022C51.5666 33.2979 52.653 33.7218 52.4725 34.7161V34.7173ZM52.8116 26.0555C52.6118 26.0083 52.1879 25.9223 51.9917 25.8714C51.5933 25.5032 50.605 24.492 50.1618 24.0608C49.951 23.8888 49.8021 23.643 49.8239 23.3438C49.8505 23.1391 49.7948 22.8206 49.8917 22.6559C50.1363 22.5021 50.4149 22.7153 50.6074 22.8679C51.4056 23.5219 52.3526 24.5513 52.4919 25.6364L52.5052 25.6728C52.5258 25.7115 52.6518 25.823 52.7644 25.9392C52.877 26.0531 52.9182 26.0821 52.8129 26.0555H52.8116Z" fill="var(--fill-0, white)"/>
<path id="Vector_2" d="M151.14 3.47318C151.286 3.56765 151.444 3.6173 151.602 3.66696C152.273 3.90797 152.589 4.52441 152.473 5.25228C152.844 11.6808 152.363 18.199 152.438 24.6178C152.451 26.0215 152.181 27.3937 152.266 28.7949C152.306 29.5942 152.256 30.5692 152.244 31.4206C152.04 32.0443 151.825 32.6959 151.434 33.253C151.283 33.4552 151.082 33.6369 150.915 33.8089C150.618 34.0838 150.558 34.6796 150.717 35.0684C150.856 35.3433 151.173 35.4875 151.437 35.6304C153.784 36.4927 155.231 38.583 157.005 40.2253C157.253 40.4142 157.54 40.4772 157.855 40.4772C158.726 40.4893 159.659 40.3948 160.523 40.4106C162.296 40.6504 164.072 40.2229 165.853 40.235C168.576 40.4651 171.394 39.8341 174.125 39.9928C174.427 39.9879 174.627 40.109 174.843 40.1163C175.306 40.1344 175.669 39.5846 175.574 39.1208C175.479 37.2108 175.898 35.1714 175.5 33.3535C175.403 33.0531 175.402 32.7152 175.482 32.4076C175.586 31.9632 175.484 31.555 175.313 31.2341C174.854 30.465 173.872 30.1174 173.271 29.5458C173.003 29.2079 171.639 28.3335 172.534 28.0404C173.039 27.9592 173.887 27.6274 174.124 27.2023C174.546 25.4995 173.643 23.6756 173.551 21.9776C173.538 21.5477 173.504 21.016 173.584 20.6611C173.648 20.3317 173.969 20.0302 174.101 19.7383C174.285 19.2769 173.925 18.8469 173.601 18.5054C173.126 18.0234 172.672 17.9023 172.248 17.419C171.928 17.0387 170.686 16.197 171.316 15.7719C171.583 15.7174 172.322 15.6617 173.066 15.5757C173.945 15.428 174.681 15.5309 174.971 15.273L174.994 15.2378C175.316 14.6916 175.237 13.8208 175.187 13.1765C175.026 11.4289 174.72 8.81414 175.1 6.9987C175.17 6.57845 175.468 6.20301 175.332 5.77306C175.122 5.37946 174.708 5.04276 174.37 4.7521C174.005 4.47839 173.479 4.38514 173.078 4.11869C172.12 3.51557 171.236 2.36502 170.292 1.42399C169.848 0.963774 169.673 0.740938 169.04 0.80997C168.446 0.910492 167.791 1.38767 167.103 1.18783C165.545 0.872947 163.902 0.871728 162.362 0.922595C159.849 1.23506 157.146 1.12485 154.556 1.16845C153.807 1.21084 153.088 1.22659 152.392 1.39856C152 1.53784 151.642 1.66258 151.202 1.62383C150.819 1.59113 150.443 1.9036 150.351 2.28389C150.208 2.75622 150.729 3.19099 151.143 3.47197L151.14 3.47318ZM157.863 38.4074C157.181 37.8806 156.54 36.9456 155.892 36.4358C155.7 36.3062 155.501 36.3473 155.346 36.087C155.324 36.03 155.397 35.3748 155.446 35.4063C155.617 35.5686 155.945 35.8241 156.098 36.0312C156.163 36.1269 156.134 36.305 156.146 36.3607L156.17 36.3837C156.246 36.3934 156.459 36.3679 156.522 36.4442C157.084 36.9262 157.578 37.5318 158.099 38.0683C158.272 38.2887 158.147 38.5624 157.863 38.4074ZM161.658 36.5169C161.623 36.6792 161.64 36.7809 161.571 36.7954C161.483 36.8039 161.375 36.8088 161.286 36.8112C161.188 36.8185 161.071 36.8197 160.973 36.8136C160.525 36.77 160.143 36.1814 159.657 36.4442C159.477 36.5556 159.456 36.6174 159.266 36.7809C159.156 36.8269 158.95 36.816 158.822 36.7688C158.392 36.4927 156.999 35.6776 158.26 35.4027C158.524 35.3748 158.911 35.3058 159.122 35.4414C159.217 35.5323 159.309 35.6207 159.447 35.6037C159.952 35.6352 160.964 35.0684 161.541 35.5674C161.617 35.5989 161.708 35.6001 161.758 35.6001L161.795 35.6037C161.8 35.8266 161.687 36.265 161.658 36.5169ZM164.625 37.0062C164.109 36.9638 163.741 36.3534 163.199 36.3934C163.121 36.3982 163.097 36.3958 163.07 36.351C162.936 36.1984 162.485 35.6897 162.414 35.6086C162.739 35.5807 163.124 35.5274 163.414 35.6897C163.798 35.9222 164.301 36.5762 164.638 36.9941L164.625 37.0062ZM169.888 38.7623L169.857 38.7974C169.592 38.8483 169.222 38.8737 168.954 38.8071C168.628 38.6799 168.05 38.0477 167.63 37.6517C167.455 37.4349 167.268 37.4458 167.04 37.3053C166.563 36.896 166.097 36.2989 165.489 36.2129C165.295 36.185 165.23 36.0349 165.129 35.8677C164.714 35.2913 166.27 35.347 166.494 35.3833C166.757 35.4112 167.108 35.8217 167.375 35.9925C167.727 36.2129 168.274 36.3485 168.534 36.7325C168.621 36.8596 168.662 37.028 168.772 37.143C169.31 37.5548 170.01 38.0271 169.888 38.7623ZM170.509 18.7125C170.471 19.0407 170.279 19.3083 169.941 19.2333C169.713 19.186 169.587 18.9765 169.395 18.8748C169.155 18.8288 168.89 18.6132 168.777 18.3843C168.647 18.1614 168.587 17.9144 168.508 17.6552C168.45 17.4953 168.456 17.4856 168.558 17.3342C168.646 17.1877 168.756 17.0085 168.763 16.9976L168.793 16.9879C169.644 16.8777 170.47 17.3246 170.693 18.2208C170.706 18.3806 170.52 18.4908 170.507 18.7113L170.509 18.7125ZM167.484 25.8737C167.381 25.537 166.902 25.2658 166.859 24.8964L166.865 24.8709C167.254 24.7353 168.351 25.8095 168.769 26.1269C169.455 26.5919 169.58 27.2326 168.586 27.3028C166.963 27.4336 167.66 26.7142 167.482 25.8737H167.484ZM173.1 31.2268C173.178 31.5853 173.109 32.3822 173.127 32.7673L173.119 32.7722C172.829 32.6547 172.472 32.2405 172.15 32.1606C172.068 32.1509 171.963 32.1775 171.88 32.163C171.771 32.1533 171.704 32.0237 171.6 31.9825C171.504 31.951 171.358 31.945 171.257 31.8239C171.043 31.601 171.15 31.3709 171.108 31.1214C171.067 30.9737 170.924 30.8998 170.893 30.7448C170.852 30.5038 170.941 30.2967 171.018 30.0811C171.067 29.9757 171.065 29.8147 171.141 29.7602C171.985 29.7577 172.534 30.7315 173.101 31.2268H173.1ZM171.379 19.4028C171.626 19.4198 171.846 19.6547 172.093 19.6232L172.119 19.6269C172.119 19.7916 172.119 20.2034 172.119 20.4032C172.108 20.5764 172.146 20.6466 172.082 20.6357H171.597C171.363 20.6321 171.433 20.6684 171.311 20.5013C171.239 20.402 171.138 20.2591 171.054 20.1416C170.944 19.972 170.888 19.9587 170.898 19.8521C170.933 19.6305 171.113 19.3774 171.38 19.4028H171.379ZM172.912 10.1282C172.275 9.63769 171.202 8.88075 170.452 8.22433C170.245 8.02692 170.117 7.9155 170.077 7.77138C170.037 7.61636 170.034 7.39352 169.942 7.24092C169.878 7.1622 169.798 7.07258 169.724 7.00234C169.659 6.92846 169.765 6.83521 169.846 6.67171C169.963 6.48156 170.041 6.30596 170.085 6.28052L170.126 6.26598C170.316 6.21632 170.482 6.37134 170.614 6.49488C170.869 6.69834 171.508 7.30147 172.117 7.90339C172.585 8.40478 173.047 8.75723 173.367 9.27679C173.579 9.74427 173.567 10.2517 172.912 10.1282ZM169.693 4.48324C169.695 4.37182 169.679 4.28584 169.768 4.26525C169.854 4.23981 170.021 4.27614 170.061 4.22527C170.125 4.17198 170.049 3.93583 170.144 3.87043C170.229 3.80261 170.43 3.8135 170.546 3.82924C171.027 3.91038 171.243 4.36818 171.603 4.65158C172.217 5.14571 173.113 5.44606 173.459 6.29747C173.557 6.51789 173.609 6.80129 173.413 6.97327C173.294 7.06531 173.114 7.0314 172.93 6.99627C172.436 6.91634 172.34 6.89697 171.915 6.51789C171.515 6.21875 171.224 5.82756 170.714 5.86511C170.549 5.86148 170.266 5.91719 170.134 5.86875L170.112 5.83119C170.097 5.78396 170.109 5.69918 170.077 5.61925C170.004 5.417 169.696 5.29346 169.679 5.1009C169.65 4.93013 169.688 4.69518 169.694 4.48445L169.693 4.48324ZM169.383 13.1559C169.466 13.2262 169.516 13.2637 169.538 13.3279C169.599 13.5411 169.897 14.4458 169.911 14.5511C169.787 14.5741 169.506 14.3004 169.407 14.1914C169.212 13.994 169.241 13.8366 169.001 13.6888C167.984 13.1087 166.956 12.3518 166.271 11.4229C166.716 10.7689 167.639 11.286 168.233 11.3393L168.254 11.3805C168.233 11.5718 168.261 11.8395 168.439 11.9727C168.819 12.307 168.976 12.8338 169.383 13.1571V13.1559ZM154.325 11.8455C154.513 10.2626 154.777 7.69872 154.363 5.97047C154.264 5.64348 153.975 5.47151 153.919 5.1433C153.849 4.55349 153.848 3.93219 154.268 3.48408C154.455 3.14376 155.094 3.31331 155.168 2.87974C155.186 2.83372 155.21 2.79859 155.245 2.78406C155.731 2.65931 157.991 2.77075 159.957 2.82767C161.376 2.82646 162.195 3.01781 163.316 2.65326C163.476 2.64721 163.642 2.63752 163.801 2.67143C164.582 2.8313 165.342 2.67385 165.941 2.79133C166.274 2.87369 166.497 3.21643 166.861 3.22007C167.378 3.19948 167.886 3.27214 168.258 3.63789C168.391 3.77111 168.442 3.87647 168.476 4.02544C168.442 4.62978 168.565 8.11291 168.429 8.80082C168.027 9.27194 167.195 9.03214 166.619 9.10359C164.441 9.06847 162.091 8.58403 159.919 8.71241C159.386 8.80445 158.96 9.35065 158.961 9.869C158.959 10.4128 159.685 10.7374 159.72 11.2824C159.745 11.4071 159.753 11.544 159.759 11.6699C159.748 12.1253 159.997 12.4608 160.001 12.9258C160.011 13.5096 159.878 14.1272 159.682 14.6601C159.591 14.9278 159.604 15.1991 159.729 15.457C159.981 15.9766 160.531 16.2285 161.087 16.2043C161.754 16.2515 162.306 15.9269 162.957 15.7889C163.947 15.6254 164.868 15.996 165.814 15.9742C166.492 15.8918 167.048 16.3872 167.083 17.0545C167.228 17.5535 167.3 17.6734 167.266 18.2607C167.223 19.1339 167.349 20.3111 167.215 21.1589L167.191 21.194C166.572 21.7063 165.586 21.3006 164.773 21.4762C163.751 21.6094 162.65 21.5343 161.55 21.4241C159.987 21.24 160.344 22.6679 160.42 23.6986C160.552 25.0647 160.646 26.1753 160.433 27.5584C160.396 27.8987 160.311 28.3008 160.447 28.6108C160.614 28.8773 160.947 29.0771 161.217 29.1413C161.641 29.1437 163.502 29.1413 165.218 29.1413C166.223 29.1388 166.969 29.1437 167.814 29.1413C168.363 29.1413 168.327 29.1001 168.804 29.4283C168.899 29.4985 168.96 29.5748 169.017 29.6754C169.368 30.3609 169.344 31.136 169.331 31.951C169.32 32.6462 169.373 32.9357 168.835 33.2941C168.067 33.8694 167.106 33.6018 166.107 33.6272C162.994 33.4153 159.618 33.2433 156.361 33.5642C155.846 33.6066 155.311 33.6369 154.803 33.557C154.43 33.4383 153.981 33.1028 153.907 32.7007C153.867 32.2344 153.87 30.8259 153.901 30.2967C153.895 29.9818 154.239 29.7916 154.321 29.5954C154.327 28.4582 154.315 16.3884 154.324 11.8419L154.325 11.8455ZM164.027 13.7191L163.984 13.7639C163.365 13.9734 163 13.4187 162.574 13.0179C162.132 12.8992 161.753 12.485 161.537 12.1422C161.392 11.877 161.267 11.441 161.434 11.1673C161.701 11.0014 161.921 11.3708 162.105 11.5258C162.726 12.072 163.458 12.5795 163.933 13.1899C164.049 13.3279 164.089 13.5459 164.026 13.7179L164.027 13.7191ZM166.449 27.0412L166.409 27.0776C165.718 27.1393 165.31 26.2698 164.749 25.9948C164.606 25.9016 164.39 25.927 164.281 25.8289C164.108 25.4607 163.923 25.1943 163.5 25.0478C162.941 24.8285 162.112 24.4834 162.21 23.77C162.31 23.6174 162.487 23.6671 162.663 23.6465C162.795 23.6404 162.927 23.6283 163.035 23.6562C164.032 24.1951 165.298 25.2791 166.12 26.2516C166.326 26.4805 166.581 26.736 166.449 27.0424V27.0412Z" fill="var(--fill-0, white)"/>
<path id="Vector_3" d="M17.8966 37.8685C17.7985 37.3562 17.9208 36.9675 17.8433 36.4309C16.769 29.9382 17.5345 23.2832 17.3661 16.7178C17.3637 14.7982 17.1687 12.9016 17.2874 10.9893C17.2874 10.7943 17.2874 10.6163 17.262 10.4661C17.2172 10.1089 16.8417 9.93446 16.8163 9.50331C16.7884 9.20175 16.8054 8.88201 16.9931 8.64584C17.1627 8.4448 17.291 8.13355 17.1506 7.83926C17.0149 7.56434 16.849 7.39357 16.8042 7.09321C16.6806 6.53005 16.0811 5.95841 15.5071 5.86273C14.8252 5.78522 14.543 4.85752 14.1301 4.49419L14.0877 4.47239C13.5572 4.31373 12.9214 3.57374 12.5956 2.99726C12.4539 2.66663 12.4975 2.26698 12.1935 2.01143C11.9695 1.83704 11.7103 1.65537 11.4838 1.52457C11.307 1.41436 11.0938 1.41799 10.894 1.35865C10.6675 1.29325 10.4968 1.10553 10.2691 1.04134C9.71438 0.90812 9.31593 1.48823 8.77456 1.60449C6.26153 1.96177 3.74971 1.44706 1.21729 1.81402C0.744963 1.83704 0.0546365 1.78374 0.000136942 2.3687C-0.00349636 2.65816 0.253254 2.881 0.480941 3.03481C1.95485 3.8414 1.32872 5.74162 1.55156 7.08715C2.02389 13.7252 1.93305 20.7908 1.68356 27.3925C1.59515 29.6294 2.09897 32.0262 0.982339 34.0475C0.849118 34.251 0.627486 34.3769 0.528176 34.5537C0.436132 34.7366 0.478521 34.9788 0.604476 35.2102C0.744963 35.4657 0.984756 35.7043 1.24999 35.829C1.58667 35.9998 1.92821 35.9683 2.21524 36.1681C2.92252 36.678 4.24625 38.6121 5.63297 39.1801C5.92242 39.3061 6.16464 39.5193 6.31482 39.7881C6.41171 39.9274 6.51102 40.017 6.66361 40.0521C7.01362 40.0957 7.46052 40.1345 7.76693 40.0727C8.10725 39.9783 8.30223 39.6682 8.64619 39.6162C9.8476 39.3824 12.1535 39.3751 13.3477 39.6149C13.7813 39.6912 13.9702 40.1248 14.428 40.1309C15.0408 40.1563 15.8777 40.3864 16.4469 40.1817C17.1602 39.8317 18.5893 40.5959 18.381 39.2153C18.2769 38.8059 17.9802 38.3203 17.8954 37.8722L17.8966 37.8685ZM6.60185 37.831C6.31239 37.8976 6.16101 37.6481 5.98176 37.4725C5.90546 37.4349 5.81342 37.4107 5.72865 37.4168C5.63418 37.372 5.43556 37.1576 5.21998 36.9517C5.07223 36.7798 4.84212 36.6247 4.79489 36.4503C4.78156 36.3329 4.76582 36.1681 4.81911 36.0713C4.87482 35.9913 4.91357 35.9986 4.97776 36.0131C5.12673 36.0386 5.84128 36.1718 6.02052 36.2033L6.02657 36.2069C6.1598 36.5642 6.45409 37.3465 6.60185 37.7438C6.61154 37.7983 6.65635 37.8189 6.60306 37.8322L6.60185 37.831ZM7.11415 34.0354C6.28939 34.2195 5.35078 34.3406 4.52481 34.1468C3.25679 33.3608 3.7812 30.9604 3.7376 29.5265C3.74244 29.3969 3.74971 29.2649 3.75334 29.1377C4.22325 27.4543 3.77877 25.531 3.75334 23.8537C4.08276 18.6774 3.803 13.1318 3.39122 7.96641C3.31977 7.20948 3.42997 6.35444 3.4106 5.60477C3.40454 5.32742 3.35488 5.15303 3.21803 4.97863C3.00366 4.70129 2.86439 4.31857 3.09571 3.96735C3.4324 3.48776 4.43519 3.68517 5.02136 3.63915C5.38227 3.61493 5.58694 3.27461 5.92848 3.20316C6.74476 3.10869 7.93164 3.37876 8.7237 3.09052L8.78063 3.09294C8.92959 3.10505 9.14032 3.21526 9.33531 3.33759C9.86335 3.65368 9.65625 4.23744 9.67562 4.74731C8.96713 10.3208 10.0353 16.1704 9.84154 21.8069C9.85244 22.0285 9.95054 22.1993 10.0922 22.3737C10.4834 22.8412 10.4265 23.4322 10.481 24.0414C10.5198 24.9667 10.4665 26.0118 10.4701 26.9262C10.5222 28.5467 10.6154 30.2689 10.722 31.8554C10.7341 32.1206 10.7414 32.4513 10.7317 32.708C10.7571 33.167 10.3151 33.5849 9.95176 33.7689C9.61144 33.8755 9.21662 33.7835 8.89931 33.9288C8.40639 34.1141 7.65793 33.9082 7.11294 34.0366L7.11415 34.0354ZM10.8819 37.4023L10.854 37.4277C10.2763 37.5476 9.66231 36.9057 9.66594 36.3413C9.68532 35.9211 10.3878 35.8666 10.6045 36.1936C10.8722 36.4988 10.9776 37.028 10.8819 37.401V37.4023ZM11.261 8.66886C11.7115 7.69392 11.2852 6.71171 11.2622 5.74041C11.4293 3.74572 12.9177 4.82723 13.4809 5.93418C13.9448 6.56759 14.6956 6.90913 15.1195 7.5171C15.2697 7.96521 15.4429 8.70761 14.8386 8.53322C14.3662 8.38183 14.0671 7.81625 13.6153 7.64185C13.3574 7.52195 13.1309 7.25792 12.8814 7.16588C12.6695 7.10048 12.1669 7.14529 11.9888 7.33543L11.9755 7.37782C11.9513 7.71814 12.3388 7.91071 12.5653 8.10569C13.1951 8.82267 15.0687 10.368 15.4429 10.913C15.5991 11.1444 15.558 11.6869 15.2673 11.7947C14.4122 11.9982 13.9302 10.8513 13.321 10.5376C13.0025 10.4201 12.5871 9.70434 12.248 10.1294C12.1947 10.2675 12.2226 10.2687 12.2347 10.3414C12.5762 10.8367 12.7978 11.1274 13.1067 11.6833C13.8188 12.6207 15.2079 13.3255 15.5894 14.4446C15.5761 14.4991 15.5289 14.5221 15.4623 14.51C14.87 14.1648 14.2827 13.7095 13.7038 13.2492C13.1733 12.7333 12.6707 13.2396 12.9953 13.793C13.1043 13.9602 13.3416 14.2036 13.5705 14.4616C14.0368 14.9097 14.1179 15.2246 14.3868 15.6593C14.7247 15.9851 15.1401 16.2346 15.3363 16.696C15.4889 17.0606 15.7941 17.3222 15.8983 17.6625C15.9394 17.8635 15.9431 18.2281 15.9043 18.44C15.4877 19.2696 14.0743 17.08 13.6275 16.8087C13.3332 16.5701 12.9468 16.4296 12.6017 16.2964C12.3558 16.2128 11.898 16.4381 11.7442 16.2903C11.6207 16.1983 11.5662 15.9924 11.4899 15.8749C11.0672 14.4955 11.1871 10.3753 11.261 8.66886ZM11.766 21.7984C11.6848 20.752 10.4822 14.837 12.747 17.304C13.6238 18.6096 14.9185 19.5724 15.8026 20.8586C15.8535 21.01 15.9176 21.016 15.8171 21.2219C15.3339 21.7451 14.8277 21.1856 14.4074 20.7956C14.2209 20.6539 14.0089 20.5813 13.8188 20.4529C13.5076 20.2652 12.8766 19.6124 12.5205 19.8631L12.4951 19.9055C12.3667 20.2397 12.7494 20.5994 12.9747 20.8295C13.5693 21.4302 15.0989 22.8024 15.4744 23.2408C15.5785 23.3547 15.5858 23.5073 15.5882 23.6599C15.5955 23.7677 15.5725 24.3308 15.3315 24.2388C15.0045 24.1261 14.6327 23.5751 14.2463 23.4407C13.8345 23.3099 13.3065 22.4294 12.793 22.7516C12.7385 22.8 12.7191 22.8714 12.7421 22.9514C12.7785 23.0398 12.8427 23.1306 12.9068 23.2009C13.2314 23.4637 13.4022 23.9081 13.5887 24.223C14.3057 24.9776 15.2358 26.0857 15.7263 26.9504C15.8474 27.2132 15.7977 27.5572 15.7905 27.8539C15.7796 28.0126 15.7457 28.1313 15.5713 28.1664C15.1631 28.2148 14.652 28.2294 14.3456 27.9072C13.6069 27.2593 12.3522 27.2423 12.0361 26.2383C11.4596 24.8819 12.0324 23.1851 11.7648 21.7984H11.766ZM15.736 31.3262L15.696 31.3685C15.4029 31.4775 15.2419 31.0839 15.0154 30.9846C14.9209 30.9483 14.7913 30.9798 14.7526 30.9374C14.7041 30.8853 14.7514 30.7061 14.6726 30.5934C14.4195 30.1962 13.8709 29.9637 13.5306 29.6839C13.0909 29.3339 12.6804 28.9669 12.3243 28.5346C12.053 28.1991 12.0094 28.2245 12.3776 27.9811C12.5362 27.8745 12.684 27.7473 12.753 27.7268C13.0062 27.8006 13.1648 28.1591 13.3961 28.3045C14.3202 29.1159 16.1393 29.8074 15.7372 31.3249L15.736 31.3262ZM12.9141 38.2319C12.8233 38.0587 12.7579 37.4664 12.6949 37.2412C13.4058 37.0534 13.8685 37.8818 14.1046 38.4099L14.1095 38.4293C14.0816 38.4244 13.2108 38.2803 12.9141 38.2306V38.2319ZM16.1284 37.3817L16.0957 37.418C15.8171 37.4761 15.5543 37.3502 15.3012 37.2533C14.5394 36.9941 13.7413 36.5121 13.2314 35.8218C13.0594 35.6195 12.8608 35.5396 12.8935 35.3034C12.9056 35.1363 12.8632 34.7947 12.9214 34.6688C13.0171 34.5126 13.2617 34.297 13.4397 34.4011C13.8055 34.6833 15.1353 36.0713 15.6415 36.6175C15.8086 36.8318 16.2132 37.0644 16.1284 37.3817ZM15.9128 34.9316C15.7711 34.9752 15.6173 34.9413 15.4913 34.8686C14.5164 34.2207 13.8927 32.5348 12.5362 32.553L12.5048 32.5312C12.4757 32.4501 12.4805 32.3471 12.4805 32.2611C12.483 32.0976 12.4878 31.985 12.3788 31.968C12.2516 31.9596 12.0579 31.9281 12.0494 31.7646C11.9949 31.3358 12.3061 31.1021 12.426 30.7436C12.4745 30.5995 12.4696 30.4275 12.575 30.3597C12.7603 30.2568 13.0534 30.3137 13.1684 30.5183C13.2726 30.6952 13.2811 30.832 13.3852 30.9568C13.8503 31.5587 14.3032 32.1 14.8531 32.6923C15.237 33.1513 16.7194 34.4108 15.9116 34.9316H15.9128Z" fill="var(--fill-0, white)"/>
<path id="Vector_4" d="M106.134 37.8685C106.036 37.3562 106.159 36.9675 106.081 36.4309C105.007 29.9382 105.772 23.2832 105.604 16.7178C105.602 14.7982 105.407 12.9016 105.525 10.9893C105.525 10.7943 105.525 10.6163 105.5 10.4661C105.455 10.1089 105.08 9.93446 105.054 9.50331C105.026 9.20175 105.043 8.88201 105.231 8.64584C105.401 8.4448 105.529 8.13355 105.388 7.83926C105.253 7.56434 105.087 7.39357 105.042 7.09321C104.918 6.53005 104.319 5.95841 103.745 5.86273C103.063 5.78522 102.781 4.85752 102.368 4.49419L102.326 4.47239C101.795 4.31373 101.159 3.57374 100.833 2.99726C100.692 2.66663 100.735 2.26698 100.431 2.01143C100.207 1.83704 99.9481 1.65537 99.7217 1.52457C99.5448 1.41436 99.3317 1.41799 99.1319 1.35865C98.9054 1.29325 98.7346 1.10553 98.5069 1.04134C97.9522 0.90812 97.5538 1.48823 97.0124 1.60449C94.4994 1.96177 91.9876 1.44706 89.4552 1.81402C88.9828 1.83704 88.2925 1.78374 88.238 2.3687C88.2344 2.65816 88.4911 2.881 88.7188 3.03481C90.1927 3.8414 89.5666 5.74162 89.7894 7.08715C90.2617 13.7252 90.1709 20.7908 89.9214 27.3925C89.833 29.6294 90.3368 32.0262 89.2202 34.0475C89.087 34.251 88.8653 34.3769 88.766 34.5537C88.674 34.7366 88.7164 34.9788 88.8423 35.2102C88.9828 35.4657 89.2226 35.7043 89.4879 35.829C89.8245 35.9998 90.1661 35.9683 90.4531 36.1681C91.1604 36.678 92.4841 38.6121 93.8708 39.1801C94.1603 39.3061 94.4025 39.5193 94.5527 39.7881C94.6496 39.9274 94.7489 40.017 94.9015 40.0521C95.2515 40.0957 95.6984 40.1345 96.0048 40.0727C96.3451 39.9783 96.5401 39.6682 96.8841 39.6162C98.0855 39.3824 100.391 39.3751 101.586 39.6149C102.019 39.6912 102.208 40.1248 102.666 40.1309C103.279 40.1563 104.116 40.3864 104.685 40.1817C105.398 39.8317 106.827 40.5959 106.619 39.2153C106.515 38.8059 106.218 38.3203 106.133 37.8722L106.134 37.8685ZM94.8397 37.831C94.5503 37.8976 94.3989 37.6481 94.2196 37.4725C94.1433 37.4349 94.0513 37.4107 93.9665 37.4168C93.872 37.372 93.6734 37.1576 93.4578 36.9517C93.3101 36.7798 93.08 36.6247 93.0327 36.4503C93.0194 36.3329 93.0037 36.1681 93.057 36.0713C93.1127 35.9913 93.1514 35.9986 93.2156 36.0131C93.3646 36.0386 94.0791 36.1718 94.2584 36.2033L94.2644 36.2069C94.3977 36.5642 94.692 37.3465 94.8397 37.7438C94.8494 37.7983 94.8942 37.8189 94.8409 37.8322L94.8397 37.831ZM95.352 34.0354C94.5272 34.2195 93.5886 34.3406 92.7627 34.1468C91.4946 33.3608 92.0191 30.9604 91.9755 29.5265C91.9803 29.3969 91.9876 29.2649 91.9912 29.1377C92.4611 27.4543 92.0166 25.531 91.9912 23.8537C92.3206 18.6774 92.0409 13.1318 91.6291 7.96641C91.5576 7.20948 91.6678 6.35444 91.6485 5.60477C91.6424 5.32742 91.5928 5.15303 91.4559 4.97863C91.2415 4.70129 91.1023 4.31857 91.3336 3.96735C91.6703 3.48776 92.673 3.68517 93.2592 3.63915C93.6201 3.61493 93.8248 3.27461 94.1663 3.20316C94.9826 3.10869 96.1695 3.37876 96.9616 3.09052L97.0185 3.09294C97.1674 3.10505 97.3782 3.21526 97.5732 3.33759C98.1012 3.65368 97.8941 4.23744 97.9135 4.74731C97.205 10.3208 98.2732 16.1704 98.0794 21.8069C98.0903 22.0285 98.1884 22.1993 98.3301 22.3737C98.7213 22.8412 98.6644 23.4322 98.7189 24.0414C98.7576 24.9667 98.7043 26.0118 98.708 26.9262C98.7601 28.5467 98.8533 30.2689 98.9599 31.8554C98.972 32.1206 98.9793 32.4513 98.9696 32.708C98.995 33.167 98.553 33.5849 98.1896 33.7689C97.8493 33.8755 97.4545 33.7835 97.1372 33.9288C96.6442 34.1141 95.8958 33.9082 95.3508 34.0366L95.352 34.0354ZM99.1197 37.4023L99.0919 37.4277C98.5142 37.5476 97.9002 36.9057 97.9038 36.3413C97.9232 35.9211 98.6256 35.8666 98.8424 36.1936C99.1101 36.4988 99.2154 37.028 99.1197 37.401V37.4023ZM99.4988 8.66886C99.9493 7.69392 99.523 6.71171 99.5 5.74041C99.6672 3.74572 101.156 4.82723 101.719 5.93418C102.183 6.56759 102.933 6.90913 103.357 7.5171C103.508 7.96521 103.681 8.70761 103.076 8.53322C102.604 8.38183 102.305 7.81625 101.853 7.64185C101.595 7.52195 101.369 7.25792 101.119 7.16588C100.907 7.10048 100.405 7.14529 100.227 7.33543L100.213 7.37782C100.189 7.71814 100.577 7.91071 100.803 8.10569C101.433 8.82267 103.307 10.368 103.681 10.913C103.837 11.1444 103.796 11.6869 103.505 11.7947C102.65 11.9982 102.168 10.8513 101.559 10.5376C101.24 10.4201 100.825 9.70434 100.486 10.1294C100.433 10.2675 100.46 10.2687 100.473 10.3414C100.814 10.8367 101.036 11.1274 101.345 11.6833C102.057 12.6207 103.446 13.3255 103.827 14.4446C103.814 14.4991 103.767 14.5221 103.7 14.51C103.108 14.1648 102.521 13.7095 101.942 13.2492C101.411 12.7333 100.909 13.2396 101.233 13.793C101.342 13.9602 101.579 14.2036 101.808 14.4616C102.275 14.9097 102.356 15.2246 102.625 15.6593C102.963 15.9851 103.378 16.2346 103.574 16.696C103.727 17.0606 104.032 17.3222 104.136 17.6625C104.177 17.8635 104.181 18.2281 104.142 18.44C103.726 19.2696 102.312 17.08 101.865 16.8087C101.571 16.5701 101.185 16.4296 100.84 16.2964C100.594 16.2128 100.136 16.4381 99.982 16.2903C99.8585 16.1983 99.804 15.9924 99.7277 15.8749C99.305 14.4955 99.4249 10.3753 99.4988 8.66886ZM100.004 21.7984C99.9227 20.752 98.7201 14.837 100.985 17.304C101.862 18.6096 103.156 19.5724 104.04 20.8586C104.091 21.01 104.156 21.016 104.055 21.2219C103.572 21.7451 103.066 21.1856 102.645 20.7956C102.459 20.6539 102.247 20.5813 102.057 20.4529C101.745 20.2652 101.114 19.6124 100.758 19.8631L100.733 19.9055C100.605 20.2397 100.987 20.5994 101.213 20.8295C101.807 21.4302 103.337 22.8024 103.712 23.2408C103.816 23.3547 103.824 23.5073 103.826 23.6599C103.833 23.7677 103.81 24.3308 103.569 24.2388C103.242 24.1261 102.871 23.5751 102.484 23.4407C102.072 23.3099 101.544 22.4294 101.031 22.7516C100.976 22.8 100.957 22.8714 100.98 22.9514C101.016 23.0398 101.081 23.1306 101.145 23.2009C101.469 23.4637 101.64 23.9081 101.827 24.223C102.544 24.9776 103.474 26.0857 103.964 26.9504C104.085 27.2132 104.036 27.5572 104.028 27.8539C104.017 28.0126 103.984 28.1313 103.809 28.1664C103.401 28.2148 102.89 28.2294 102.584 27.9072C101.845 27.2593 100.59 27.2423 100.274 26.2383C99.6974 24.8819 100.27 23.1851 100.003 21.7984H100.004ZM103.974 31.3262L103.934 31.3685C103.641 31.4775 103.48 31.0839 103.253 30.9846C103.159 30.9483 103.029 30.9798 102.99 30.9374C102.942 30.8853 102.989 30.7061 102.91 30.5934C102.657 30.1962 102.109 29.9637 101.768 29.6839C101.329 29.3339 100.918 28.9669 100.562 28.5346C100.291 28.1991 100.247 28.2245 100.615 27.9811C100.774 27.8745 100.922 27.7473 100.991 27.7268C101.244 27.8006 101.403 28.1591 101.634 28.3045C102.558 29.1159 104.377 29.8074 103.975 31.3249L103.974 31.3262ZM101.152 38.2319C101.061 38.0587 100.996 37.4664 100.933 37.2412C101.644 37.0534 102.106 37.8818 102.342 38.4099L102.347 38.4293C102.319 38.4244 101.449 38.2803 101.152 38.2306V38.2319ZM104.366 37.3817L104.334 37.418C104.055 37.4761 103.792 37.3502 103.539 37.2533C102.777 36.9941 101.979 36.5121 101.469 35.8218C101.297 35.6195 101.099 35.5396 101.131 35.3034C101.143 35.1363 101.101 34.7947 101.159 34.6688C101.255 34.5126 101.5 34.297 101.678 34.4011C102.043 34.6833 103.373 36.0713 103.879 36.6175C104.047 36.8318 104.451 37.0644 104.366 37.3817ZM104.151 34.9316C104.009 34.9752 103.855 34.9413 103.729 34.8686C102.754 34.2207 102.131 32.5348 100.774 32.553L100.743 32.5312C100.714 32.4501 100.718 32.3471 100.718 32.2611C100.721 32.0976 100.726 31.985 100.617 31.968C100.489 31.9596 100.296 31.9281 100.287 31.7646C100.233 31.3358 100.544 31.1021 100.664 30.7436C100.712 30.5995 100.707 30.4275 100.813 30.3597C100.998 30.2568 101.291 30.3137 101.406 30.5183C101.51 30.6952 101.519 30.832 101.623 30.9568C102.088 31.5587 102.541 32.1 103.091 32.6923C103.475 33.1513 104.957 34.4108 104.149 34.9316H104.151Z" fill="var(--fill-0, white)"/>
<g id="Group_2">
<path id="Vector_5" d="M111.483 2.3447C111.781 2.61356 112.002 2.79643 112.001 3.16702C112.639 5.68248 111.959 8.58914 112.249 11.0949C112.392 12.57 112.688 14.1638 112.827 15.5808C113.19 19.2129 112.972 23.0376 112.809 26.643C112.757 28.2901 112.706 29.7955 112.458 31.3845C112.334 31.9101 111.871 32.2807 111.553 32.6501C111.311 33.0607 110.928 33.6311 111.072 34.0877C111.152 34.3263 111.319 34.5225 111.485 34.7223C112.938 36.1623 114.555 37.6943 116.124 39.0084C116.746 39.471 117.348 40.171 118.175 40.1638C120.469 39.3765 123.233 40.0499 125.645 39.821C126.056 39.7932 126.602 39.4989 127.028 39.6127C127.415 39.7023 128.03 40.1868 128.47 40.3479C128.564 40.3987 128.82 40.3915 128.946 40.3079C129.225 40.148 129.177 39.6612 129.495 39.5146C129.908 39.3015 130.602 39.4686 131.049 39.3572C131.489 39.276 131.939 38.9817 132.351 38.8207C132.968 38.6014 134.342 38.6935 135.137 38.5857C135.542 38.53 135.986 38.3023 136.378 38.2272C136.737 38.1606 137.033 38.209 137.314 38.0431C140.235 36.3294 142.792 33.4131 144.594 30.5113C144.874 30.131 144.846 29.7689 144.868 29.3353C144.89 29.0337 145.1 28.7697 145.361 28.4718C145.622 28.1739 145.832 27.9111 145.853 27.6046C145.882 27.3564 145.833 27.0984 145.959 26.8695C146.181 26.4747 146.648 26.1392 146.716 25.6717C146.818 25.111 146.689 24.5163 146.83 23.9556C146.926 23.5002 147.223 23.2314 147.272 22.7723C147.301 22.2843 146.979 21.8664 146.958 21.3747C146.859 19.9214 146.606 18.3288 146.113 16.993C144.933 14.4351 143.319 12.2043 141.598 10.0098C139.923 8.05988 137.875 6.51694 135.845 5.12417C134.617 4.23159 133.454 3.12828 132.027 2.54089C130.958 2.10974 129.826 1.96077 128.72 1.71249C127.909 1.53446 126.16 1.113 125.035 0.976145C123.879 0.873201 122.845 1.29104 121.67 1.20747C120.079 1.22079 118.631 1.03064 117.266 0.92891C115.38 0.85261 113.271 0.96645 111.374 1.01611L111.32 1.04396C110.818 1.38428 111.039 2.00559 111.484 2.34348L111.483 2.3447ZM120.256 38.1097C120.174 38.0746 120.034 37.9571 119.937 37.8675C119.216 37.0004 118.01 36.5801 117.318 35.6427C117.277 35.5616 117.255 35.4296 117.28 35.3751L117.313 35.3424C117.564 35.323 117.828 35.2976 118.077 35.346C118.861 35.6221 119.302 36.5147 119.836 37.13C120.039 37.3903 120.256 37.6096 120.496 37.8251C120.511 37.9535 120.361 38.1618 120.258 38.111L120.256 38.1097ZM125.682 38.1546C125.45 38.2308 125.088 38.2018 124.867 38.0928C124.707 38.0165 124.519 37.8494 124.417 37.6677C124.378 37.572 124.385 37.4824 124.324 37.3952C124.024 37.0246 123.632 36.7497 123.262 36.4869C122.938 36.2398 121.285 35.1849 122.317 34.9706C122.632 35.002 122.999 35.2782 123.318 35.386C124.206 36.0497 124.676 37.1651 125.527 37.7379C125.592 37.7827 125.72 37.7767 125.777 37.7791L125.809 37.7924C125.82 37.8433 125.764 38.1243 125.682 38.157V38.1546ZM129.801 37.4872C129.721 37.5635 129.382 37.6725 129.277 37.6374C128.764 37.2898 128.396 36.6625 127.852 36.35C127.394 36.0521 126.862 35.7348 126.448 35.3969C126.359 35.3399 126.274 35.3097 126.176 35.3303C126.001 35.3642 125.81 35.5749 125.665 35.6984C125.448 35.7457 124.735 35.5737 124.531 35.5277L124.506 35.501C124.471 35.4126 124.283 35.0905 124.371 34.9766C124.427 34.8894 124.536 34.7865 124.662 34.7598C124.806 34.7332 125.029 34.7417 125.179 34.6569C125.39 34.5479 125.46 34.491 125.73 34.4873C126.032 34.4716 126.479 34.4655 126.768 34.4982C126.925 34.5128 127.024 34.6654 127.176 34.7029C127.366 34.732 127.525 34.6884 127.602 34.7744C128.095 35.1934 128.822 35.9237 129.314 36.4481C129.429 36.5777 129.476 36.6165 129.505 36.7521C129.527 36.8466 129.54 36.9798 129.575 37.0888C129.598 37.2474 129.853 37.4085 129.798 37.486L129.801 37.4872ZM134.256 36.9459C134.198 36.9277 134.058 36.8429 133.972 36.7497C133.199 35.8486 131.959 35.5337 131.095 34.7029C130.866 34.4716 130.733 34.0525 130.874 33.7607C131.012 33.6783 131.437 33.705 131.621 33.6941C132.011 33.7389 132.24 34.17 132.768 34.7017C133.198 35.1886 133.677 35.6948 133.872 35.8413C133.999 36.0957 134.273 36.9132 134.279 36.9471H134.256V36.9459ZM137.266 36.155C137.2 36.2689 137.112 36.4263 137.054 36.4953C136.947 36.6165 136.401 36.5365 136.28 36.5559C136.09 36.5208 135.249 35.5579 134.337 34.6872C133.84 34.1737 133.399 33.7837 133.069 33.4034C133.058 33.1902 133.368 32.8184 133.559 32.7143L133.603 32.6985C133.847 32.6586 133.969 32.6949 134.169 32.7857C134.388 32.9868 134.761 32.8051 134.94 33.0243C135.469 33.5112 136.195 34.2439 136.663 34.7683C136.715 34.87 136.738 34.9924 136.793 35.0929C137.065 35.4102 137.525 35.6996 137.266 36.155ZM141.388 32.2298L141.373 32.2625C141.342 32.3061 141.284 32.2541 141.175 32.1826C140.778 31.9295 140.176 31.4802 139.803 31.2791C139.688 31.2367 139.167 31.0793 138.827 30.9727C138.548 30.8589 138.491 30.9497 138.575 31.284C138.755 32.0118 139.391 32.4902 139.911 32.9916C140.06 33.1466 140.262 33.298 140.289 33.4494C140.309 33.596 140.145 33.8781 140.03 33.8842C139.265 33.6674 138.674 33.1757 138.166 32.4805C137.84 32.0651 137.501 31.6207 137.204 31.2997C137.11 31.1835 137.113 31.0805 137.143 30.9231C137.232 30.584 137.204 30.2315 137.461 30.0063C137.828 29.6708 138.409 28.7939 138.949 28.8157C139.337 28.9272 140.186 29.9748 140.634 30.412C140.708 30.4871 140.736 30.5658 140.768 30.6566C140.816 30.8734 141.036 31.1144 141.18 31.3264C141.357 31.5528 141.448 31.9864 141.386 32.231L141.388 32.2298ZM143.769 28.3701C142.896 28.7382 142.516 27.3624 141.975 26.9519C141.84 26.8513 141.683 26.8441 141.54 26.7472C141.163 26.4202 140.685 26.0896 140.376 25.7141C140.296 25.3435 140.234 24.6399 140.624 24.4243L140.682 24.4061C141.055 24.325 141.302 24.6605 141.551 24.9063C141.683 25.0201 141.845 25.0129 141.983 25.1195C142.693 25.7383 143.206 26.7048 143.934 27.3019C144.047 27.4145 144.089 27.5937 144.144 27.7512C144.255 28.02 143.979 28.2465 143.771 28.3676L143.769 28.3701ZM144.79 25.7674L144.747 25.8146C144.535 25.9285 144.277 25.7795 144.1 25.639C143.209 24.956 142.449 24.2656 141.588 23.6964C141.416 23.585 141.281 23.4711 141.17 23.2859C140.532 22.2055 141.301 21.164 142.331 22.1898C142.801 22.6246 143.439 23.2895 143.887 23.7897C143.989 23.8902 143.977 24.0222 144.072 24.1821C144.532 24.6956 145.053 25.0734 144.792 25.7662L144.79 25.7674ZM145.532 23.0231C145.311 23.2168 145.206 23.2677 144.984 23.2059C144.606 23.0182 144.57 22.4478 144.158 22.3582C143.105 21.9197 142.201 21.0417 141.47 20.1745C141.388 20.0667 141.319 19.9614 141.277 19.8718C141.196 19.7361 141.293 19.2856 141.339 19.1778L141.371 19.1499C141.835 19.0034 142.115 19.2735 142.452 19.5484C143.416 20.2266 144.583 21.1737 145.381 22.0372C145.493 22.1716 145.493 22.4865 145.563 22.6912C145.602 22.8014 145.572 22.9177 145.53 23.0231H145.532ZM145.401 19.4479C145.481 19.6404 145.395 19.9674 145.224 20.1128C145.134 20.1879 145.014 20.2012 144.905 20.1467C144.771 20.0873 144.673 19.9299 144.555 19.8548C143.441 19.3038 142.476 18.324 141.466 17.584C141.104 17.3272 141.249 16.8488 141.067 16.4904C141.021 16.4007 140.962 16.2711 140.996 16.1537C141.034 16.0459 141.133 15.9781 141.226 15.9211L141.288 15.9054C141.662 15.8315 141.908 16.1621 142.154 16.4092C142.285 16.5194 142.402 16.5085 142.522 16.5679C143.003 16.9772 145.176 19.0979 145.401 19.4455V19.4479ZM140.256 10.4579L140.281 10.4676C140.797 10.9956 141.463 11.394 141.382 12.1825C141.319 12.4683 141.557 12.5749 141.764 12.8728C142.374 13.6285 143.376 14.8675 144.032 15.6777C144.082 15.748 144.11 15.7371 144.079 15.8424C144.044 15.9357 143.974 16.2251 143.906 16.2966C143.857 16.3487 143.791 16.3111 143.708 16.2494C143.22 15.8909 142.828 15.3762 142.356 15.0758C142.085 14.9111 141.654 14.7524 141.384 14.6035C141.134 14.4678 140.785 14.0827 140.61 13.8865C140.388 13.4941 140.625 12.8643 140.552 12.4598C140.509 12.1595 140.278 11.8313 140.165 11.5624C140.137 11.4134 140.208 10.5693 140.257 10.4591L140.256 10.4579ZM142.625 29.6659C142.82 29.9663 143.165 30.349 142.763 30.6469C142.73 30.6518 142.664 30.6603 142.63 30.6651C142.128 30.412 141.741 30.0474 141.342 29.5618C141.024 29.2227 140.737 28.7915 140.321 28.6135C140.032 28.5239 139.812 28.4863 139.641 28.2502C139.575 28.1787 139.539 28.1387 139.538 28.0612C139.54 27.8287 139.533 27.0379 139.541 27.0173L139.558 27.0003C139.653 26.9676 139.97 26.8005 140.059 26.8295C141.173 27.4533 141.938 28.6232 142.624 29.6647L142.625 29.6659ZM114.283 3.53399C114.29 3.35233 114.319 3.18277 114.409 3.05802C114.75 2.63535 115.559 2.75041 116.072 2.7928C118.012 2.98415 120.02 2.88847 121.977 2.99989C125.054 3.0011 128.151 2.8703 131.067 3.92396C132.791 4.51619 134.144 5.73215 135.465 7.00501C135.894 7.41679 136.324 7.83098 136.76 8.22944C137.165 8.65938 137.435 9.23223 137.794 9.70093C138.558 11.0658 138.918 12.7917 139.08 14.4085C139.107 14.6507 139.102 14.8881 139.212 15.0055L139.247 15.0455C139.399 15.1703 139.566 15.3471 139.574 15.5893C139.678 17.1952 139.866 18.8811 139.757 20.5512C139.712 20.86 139.58 21.0986 139.555 21.4002C139.531 21.7841 139.621 22.2528 139.535 22.5616C139.402 22.9104 139.056 23.1926 139.057 23.6238C138.588 26.4723 136.407 29.15 133.817 30.3151C133.551 30.4289 133.313 30.5888 133.09 30.7717C132.214 31.4983 130.88 31.5758 129.765 31.8701C129.409 31.9719 129.21 32.2989 128.856 32.3304C128.625 32.357 128.333 32.3352 128.046 32.3231C126.848 32.2274 125.825 32.7215 124.652 32.8681C123.077 33.1309 121.427 33.3065 119.878 33.3368C118.436 33.3671 116.985 33.2932 115.541 33.3101C114.957 33.3961 114.424 32.9202 114.481 32.3292C114.294 26.9724 114.957 21.6388 114.609 16.2094C113.938 12.0202 114.383 7.75468 114.285 3.53399H114.283Z" fill="var(--fill-0, white)"/>
<path id="Vector_6" d="M120.534 17.406C120.593 19.8887 120.492 22.4018 120.523 24.8906C120.544 25.3314 120.434 25.5942 120.204 26.0351C120.045 26.3415 119.963 26.5474 120.083 26.7266C120.216 26.9216 120.455 27.182 120.672 27.2595C120.942 27.3237 121.274 27.406 121.53 27.4242C121.747 27.4351 121.953 27.2934 122.213 27.2668C123.34 27.2244 124.399 26.9446 125.477 26.6576C126.372 26.4226 127.25 26.247 128.13 25.9188C128.326 25.8437 128.506 25.7626 128.652 25.679C128.924 25.5506 128.98 25.3108 129.104 25.1679L129.14 25.1328C130.844 24.4049 131.637 22.4526 132.179 20.8297C132.263 20.5754 132.431 20.3683 132.554 20.1794C132.739 19.919 132.648 19.5411 132.766 19.2384C133.073 18.3785 132.898 17.2243 132.758 16.3681C132.706 16.0774 132.515 15.8788 132.359 15.6366C132.078 15.1376 132.125 14.3685 131.806 13.8962C131.053 12.7832 129.613 11.4134 128.607 10.7061C128.305 10.4639 127.978 10.4409 127.616 10.3356C126.835 9.99645 126.226 9.69246 125.422 9.40785C124.231 8.41233 122.479 9.08206 121.249 8.24035C120.422 7.92546 119.637 8.41959 119.686 9.35698C119.772 10.126 120.125 10.6202 120.163 11.382C120.446 13.3088 120.48 15.4319 120.532 17.4048L120.534 17.406ZM128.232 15.7843C128.247 15.5457 128.442 15.3471 128.678 15.3277C129.092 15.3544 129.716 15.1981 130.125 15.3326C130.257 15.3859 130.356 15.5542 130.508 15.6414C130.616 15.7056 130.731 15.7068 130.789 15.7468L130.819 15.7758C130.865 15.8436 130.857 15.9926 130.931 16.1283C131.057 16.3559 131.259 16.557 131.253 16.7641C131.236 17.0233 131.447 17.188 131.476 17.4387C131.494 17.6506 131.492 17.9437 131.481 18.175C131.488 18.4148 131.339 18.5408 131.278 18.7467C131.252 18.8859 131.264 19.0397 131.251 19.1814C131.22 19.4297 130.925 19.695 130.822 19.965C130.52 20.6929 130.227 21.3699 129.693 22.0372C129.422 22.3679 129.004 22.908 128.541 22.7869C128.471 22.7518 128.434 22.6743 128.423 22.5762C128.4 21.9706 128.459 21.3372 128.432 20.728C128.423 20.4894 128.262 20.3393 128.223 20.1164C128.144 18.6994 128.266 17.2013 128.234 15.7843H128.232ZM124.145 25.0989C124.063 25.2757 123.801 25.5918 123.624 25.6366C123.416 25.6088 123.005 25.2345 122.809 25.0008C122.693 24.8942 122.808 24.6544 122.752 24.5236C122.729 24.4643 122.653 24.4219 122.603 24.3698C122.423 24.1615 122.661 23.671 122.844 23.6141L122.892 23.5996C123.191 23.5087 123.367 23.7122 123.577 23.9156C123.971 24.279 124.348 24.5951 124.145 25.0977V25.0989ZM126.203 15.3398L126.229 15.3289C126.503 15.4282 126.731 15.6378 126.748 15.9308C126.783 16.0992 126.74 16.3402 126.851 16.4879C126.991 16.5727 127.071 16.7604 127.042 16.9288C126.987 17.3975 126.353 17.3817 126.114 17.0705C125.695 16.5158 126.355 15.9199 126.201 15.341L126.203 15.3398ZM126.375 24.222L126.353 24.2572C126.101 24.4037 125.733 24.0513 125.595 23.912C124.77 23.5983 124.071 23.0013 123.323 22.5192C123.056 22.2843 122.678 22.2443 122.533 22.1026C122.405 21.8204 122.345 21.4123 122.303 21.0817C122.27 20.768 122.315 19.8996 122.769 20.0159C123.411 20.424 124.029 20.9472 124.334 21.6618C124.994 22.5071 125.853 23.3052 126.373 24.2233L126.375 24.222ZM122.413 17.9413C122.918 17.8977 123.858 19.2916 123.777 19.3643L123.77 19.368C123.525 19.3038 123.065 19.2311 122.847 19.1499C122.545 18.9356 122.304 18.6037 122.332 18.2174C122.336 18.1145 122.336 17.9497 122.413 17.9413ZM122.373 15.7455C122.875 15.6668 123.263 16.1985 123.613 16.4855C123.669 16.5376 123.741 16.54 123.81 16.534C124.344 16.7568 124.524 17.4689 124.793 17.9316V17.9594C124.649 18.0818 124.161 17.7741 123.71 17.3769C123.176 16.8719 122.573 16.4298 122.373 15.7443V15.7455ZM122.336 11.543C122.393 11.497 122.451 11.4873 122.504 11.5224C122.908 11.9608 123.386 12.4247 123.847 12.8353C124.427 13.3573 124.942 13.8659 125.368 14.4339C125.406 14.4993 125.425 14.6265 125.392 14.6858L125.355 14.7234C124.873 14.7415 124.623 15.4779 124.11 15.3531C123.704 15.1836 123.411 14.6531 122.993 14.5296C122.799 14.5272 122.661 14.5817 122.508 14.3928C122.393 14.2765 122.242 14.1336 122.189 14.0548C122.116 13.9604 122.171 13.809 122.152 13.6758C122.133 13.5413 121.965 13.4675 121.941 13.3221C121.839 12.7154 121.879 11.9415 122.337 11.5454L122.336 11.543Z" fill="var(--fill-0, white)"/>
</g>
<path id="Vector_7" d="M74.0082 40.9667C74.7191 40.9303 75.4046 40.6518 76.1022 40.5234C77.2564 40.3417 78.264 40.0922 79.331 39.4697C80.2163 38.9017 82.1977 38.1157 82.1771 36.8937C82.2061 35.9842 82.8638 35.1267 83.0624 34.2935C83.5262 32.69 83.8326 30.745 83.4088 29.0627C83.4245 28.6873 83.5856 28.4378 83.5226 28.1011C83.3446 27.3454 82.997 26.5751 82.6228 25.9308C82.0632 24.8711 81.7919 23.7 80.9623 22.7917C79.7948 21.3529 78.2894 20.0655 77.1377 18.6315C76.7659 18.1616 76.2923 17.7486 76.2596 17.1116C76.2487 16.6792 76.2221 16.1706 76.5115 15.846C77.0166 15.2077 78.0121 15.3446 78.6721 15.7043C79.555 16.0918 80.4101 16.4176 81.104 17.0995C81.3777 17.3502 81.9034 17.728 82.2437 17.5621L82.2885 17.5343C83.1496 16.1572 82.0087 14.3224 81.9639 12.8098C81.7774 11.4073 81.5861 9.44411 81.7241 8.5164C81.7617 8.30567 81.884 8.16518 82.0039 7.97383C82.2364 7.65047 82.2025 7.22536 81.9845 6.89231C80.8642 5.56615 78.9507 4.8952 77.5991 3.88151C76.7635 3.26506 76.0792 2.50207 75.1587 2.02611C74.317 1.55378 73.4147 0.888884 72.4761 0.630919C71.8452 0.360843 71.2772 0.452889 70.6159 0.451678C70.3822 0.446834 70.186 0.394744 69.9667 0.332978C69.641 0.230034 69.2389 0.339035 68.9155 0.41049C68.6309 0.457723 68.3511 0.475891 68.0835 0.593368C67.0674 1.04995 65.9834 1.29338 65.0824 1.93769C64.7033 2.16901 64.3363 2.29012 64.0784 2.59532C63.1809 3.54967 62.3429 4.53793 61.7288 5.71027C61.1063 6.91532 60.8399 8.28145 60.8714 9.65242C60.5977 10.5583 60.6255 11.4582 60.6631 12.398C60.6292 12.9115 60.8023 13.3463 60.9671 13.8198C61.1451 14.5295 61.2868 15.123 61.6925 15.7297C62.2266 16.6102 62.8685 17.5427 63.4704 18.3312C64.4514 19.6585 66.8506 21.6072 67.4779 23.2628C67.5784 23.9543 67.9648 24.7016 67.5239 25.3919C66.939 26.2736 65.2519 26.1077 64.426 25.5372C63.6496 24.9595 62.7062 24.0246 62.2399 23.132C61.9347 22.6354 61.3328 22.1861 60.7442 22.4295C60.594 22.524 60.5528 22.5531 60.5141 22.7771C60.8932 24.2486 61.2068 25.88 61.2819 27.4193C61.3449 28.6958 61.2432 29.8294 61.4297 31.0877C61.4612 31.3541 61.4915 31.6303 61.4418 31.8943C61.3425 32.558 60.5008 32.6028 60.6631 33.3718C60.68 33.5329 60.7333 33.648 60.835 33.7667C61.1826 34.1566 62.1345 35.0928 62.5754 35.4804C62.9266 35.7262 63.2282 35.8546 63.5346 36.1877C64.3388 36.9349 65.585 38.1363 66.4545 38.8787C66.9184 39.3402 67.1836 39.3184 67.7807 39.6151C68.2676 39.8718 68.3814 40.3805 68.8973 40.4616C70.5033 40.8262 72.2194 41.0878 74.007 40.9703L74.0082 40.9667ZM76.8737 5.13136C77.633 5.23431 78.0339 5.54193 77.8849 6.34368C76.8749 6.47811 76.7901 6.0518 76.8737 5.13136ZM76.6956 7.19509C76.824 6.96861 77.329 6.83781 77.4623 7.01463C77.6088 7.17692 77.7662 7.43973 77.8559 7.6008C77.9903 7.83333 78.1913 8.0465 78.0981 8.33595L78.086 8.36744C78.0642 8.34564 77.2866 8.24633 77.0844 8.14218C77.1207 7.97989 77.019 7.80185 76.8894 7.68316C76.7356 7.5342 76.5939 7.36343 76.6956 7.1963V7.19509ZM77.2951 38.0673L77.2685 38.0867C76.9706 38.1073 76.5866 37.8505 76.3371 37.6882C75.5511 37.1263 74.7336 36.838 74.1923 36.1089C73.9694 35.7674 73.8931 35.3084 74.4599 35.438C75.0037 35.5349 75.407 36.0508 75.889 36.2325C76.1882 36.448 76.6314 36.8889 77.0505 37.3564C77.2116 37.5502 77.4405 37.8723 77.2951 38.0661V38.0673ZM79.5768 36.8707C79.5417 37.0403 79.5344 37.2244 79.4981 37.2583L79.4581 37.2801C79.3152 37.3176 79.1154 37.2849 78.9895 37.1965C77.9249 36.4529 76.3396 35.9624 75.556 34.8046C75.453 34.6217 75.3852 34.5636 75.5935 34.4364C75.7461 34.3298 76.0416 34.1118 76.13 34.0573C76.1991 34.0162 76.4389 34.0295 76.5697 34.0392C76.6726 34.1167 78.436 35.6523 79.2305 36.3378C79.4182 36.5001 79.5502 36.614 79.5914 36.6503C79.6156 36.6648 79.6047 36.7 79.5768 36.8707ZM79.2087 26.8997C79.2583 26.8113 79.3274 26.7508 79.3758 26.7302L79.4158 26.7205C80.375 27.0075 81.075 27.676 81.5691 28.5517C81.7435 28.8593 81.993 29.1766 81.9433 29.5411C81.9167 29.6949 81.7919 29.9904 81.5679 29.9432C81.3814 29.7821 81.0725 29.8948 80.9103 29.764C80.5615 29.4794 80.2587 29.5363 79.9063 29.1342C79.7343 28.9634 79.5272 28.7479 79.4073 28.6122C79.2571 28.4875 79.331 28.301 79.1893 28.1641C78.9652 27.9025 79.05 27.2631 79.2099 26.8997H79.2087ZM79.1542 29.5944C79.5768 29.793 80.3628 30.5124 80.8122 30.8164C80.9151 30.8976 80.9163 30.8855 80.9466 30.9484C81.1404 31.336 81.4238 31.904 81.6345 32.323C81.689 32.4502 81.7459 32.489 81.7047 32.5556C81.4044 32.9867 80.8437 32.845 80.4464 32.5979C79.9002 32.2697 79.3576 31.7187 78.7242 31.6L78.7024 31.5588C78.6952 31.4692 78.6685 31.2875 78.5825 31.2221C78.241 30.7159 78.4796 29.6949 79.1529 29.5944H79.1542ZM78.3912 32.3969C78.5523 32.4756 78.7242 32.3957 78.8962 32.5156C78.9858 32.5749 79.0718 32.6852 79.1372 32.782C79.5684 33.4566 80.054 34.0816 80.6426 34.6774C80.7153 34.7634 80.7383 34.9317 80.7262 35.0068L80.7128 35.0383C80.5724 35.0298 79.8724 34.893 79.7391 34.7973C79.1844 34.388 75.8697 32.6028 77.8716 32.1971C78.1078 32.1547 78.2374 32.2637 78.3936 32.3969H78.3912ZM76.0562 13.3148C75.9484 13.3644 75.3683 13.4214 75.2326 13.408C74.988 13.3208 74.8378 13.0144 74.6283 12.8703C73.5141 12.0952 72.005 11.5551 71.1246 10.4433C71.0676 10.3876 71.0216 10.3403 71.0131 10.2919C71.0022 10.1611 71.3958 9.83651 71.4612 9.7917L71.5048 9.77595C71.7991 9.83166 71.9118 10.0182 72.2787 9.96124C72.6094 9.92127 72.7196 10.2749 72.9836 10.4033C74.2674 10.7618 74.7506 11.3988 75.0715 12.639C75.1357 13.0653 76.0719 13.0096 76.0562 13.3148ZM69.3576 38.2659C68.8985 39.0023 67.6644 37.6979 67.9539 37.2801L67.9914 37.2643C68.5679 37.1553 68.9361 37.7173 69.2958 38.0758C69.3672 38.1254 69.4084 38.1896 69.3588 38.2671L69.3576 38.2659ZM67.702 34.8579C67.0698 34.7913 66.4037 34.91 65.7945 34.7561C65.4917 34.6459 65.2447 34.3807 64.9867 34.222C64.6803 34.0198 64.1898 33.8066 63.9112 33.5196C63.7066 33.304 63.7477 32.9964 63.5479 32.7699C63.4861 32.6973 63.4123 32.6076 63.3469 32.5374C63.1252 32.3049 63.1313 32.0154 63.055 31.749C62.7038 30.8225 62.9751 29.7712 62.9811 28.7333C62.992 28.3034 63.0187 27.8165 62.8503 27.4278C62.7571 27.1916 62.7885 26.8367 63.0283 26.672C63.2718 26.4795 63.6109 26.7483 63.7938 26.9433C64.1837 27.4023 64.7057 27.5186 65.2483 27.7136C65.78 27.9788 66.1263 28.0224 66.6822 28.0176C67.1243 28.0115 67.6959 28.0563 68.075 27.9364C68.4795 27.7015 68.7447 27.6215 69.1662 27.4568C69.7742 27.0208 70.1872 26.2518 70.077 25.5106C69.4448 23.1998 67.9708 21.2754 66.4485 19.4853C65.367 18.1592 64.1874 16.9106 63.4232 15.364C63.0719 14.2619 63.0877 13.0786 62.9206 11.9644C62.6783 11.2813 62.6129 10.5595 62.7353 9.84255C62.8225 9.52161 62.9678 9.18251 62.9799 8.83371C63.1034 7.94961 63.2197 6.93833 63.5552 6.08571C64.019 5.50923 64.4041 4.82133 65.0424 4.38412C66.2874 3.60417 67.3968 2.27438 68.9506 2.34099C69.2437 2.33373 69.5053 2.22473 69.7754 2.13269C70.3192 2.01642 71.0168 2.02005 71.5715 2.11088C72.0692 2.28286 72.613 2.3204 73.072 2.62075C73.3154 2.70916 73.571 2.7346 73.7672 2.91384C73.9937 3.12336 74.3485 3.46247 74.5072 3.67925C74.7833 4.07165 74.9008 4.55489 75.0497 4.97272C75.0195 6.15717 75.1273 8.48491 75.0086 9.1171L74.9856 9.15344C74.7288 9.49982 74.1693 9.21278 73.858 9.0408C73.3288 8.77073 72.5839 8.39529 72.0341 8.21363C71.8343 8.15307 71.6308 8.14702 71.4286 8.09615C71.1258 8.01259 70.869 7.77279 70.628 7.86968C70.0612 8.11674 69.1553 8.45706 68.5582 8.28871C68.4165 8.24148 68.2264 8.16396 68.0472 8.19182C67.444 8.36501 67.329 9.02748 67.3617 9.55795C67.3689 9.83892 67.203 10.0678 67.2151 10.3258C67.2733 10.7024 67.3738 10.9083 67.381 11.2717C67.6233 12.9575 69.2389 14.2364 70.4609 15.4076C71.454 16.2541 72.4386 17.7147 73.7115 18.3009C74.0663 18.4559 74.3315 18.5516 74.5931 18.8786C75.6989 20.3113 76.8119 21.9439 77.2527 23.6285C77.2479 24.1433 77.3981 24.5514 77.5131 25.0613C77.9176 29.6804 74.5193 34.3855 69.7936 34.7477C69.1323 34.9899 68.4141 34.8603 67.6947 34.8603L67.702 34.8579Z" fill="var(--fill-0, white)"/>
<path id="Vector_8" d="M199.547 37.6702C199.94 37.0973 200.122 36.5572 200.271 35.8511C200.449 33.8891 199.777 31.9768 199.847 30.0075C199.92 28.7419 200.046 27.4884 199.923 26.2652C199.846 25.5277 199.795 24.4764 199.856 23.8019C199.874 23.5851 199.965 23.4434 200.131 23.2811C200.51 22.9577 200.603 22.2734 200.281 21.8532C199.999 21.4584 200.004 21.0405 199.976 20.5549C199.909 19.0289 200.021 16.6031 200.08 15.3266C200.103 15.1812 200.154 15.0492 200.199 14.8978C200.245 14.7477 200.283 14.5781 200.288 14.3916C200.268 11.6824 200.363 8.91984 200.208 6.23119C200.08 5.93326 199.696 5.75281 199.419 5.599C198.027 4.90867 197.047 3.52559 196.166 2.32902C195.87 1.92452 195.468 1.50425 195.012 1.31895C193.658 0.855102 191.761 1.51274 190.535 1.10339C190.101 0.965324 189.627 1.0949 189.215 1.22933C188.366 1.27051 186.64 1.38314 185.615 1.19906C184.87 0.789704 184.896 -0.297867 183.785 0.0775749L183.717 0.10664C183.218 0.367027 183.326 1.04041 183.16 1.49215C183.099 1.7707 183.26 1.9887 183.36 2.24545C183.536 2.75048 183.731 3.29911 183.829 3.83442C184.562 10.0195 184.483 16.3512 185.089 22.598C185.084 23.7716 185.128 25.0142 185.035 26.1611C184.762 26.6286 184.148 27.0791 183.779 27.4981C183.494 27.7961 183.346 27.8796 183.228 28.1497C183.129 28.5227 182.956 28.8945 182.853 29.2252C182.785 29.6067 182.808 30.2558 182.834 30.7015C182.936 31.1581 183.076 31.5093 183.087 31.9804C183.156 32.3377 183.522 32.6356 183.682 32.9578C183.859 33.2993 183.957 33.7172 184.178 34.0248C185.2 35.4454 187.688 37.5031 189.424 38.9503C189.925 39.3718 190.245 39.6128 190.764 40.1529C191.054 40.4303 191.348 40.7718 191.756 40.8372C192.032 40.8639 192.33 40.859 192.58 40.9583C192.982 41.0867 193.417 41.0673 193.834 41.2272C195.047 41.4876 196.059 40.6749 197.227 40.4969C198.424 40.0573 198.885 38.633 199.546 37.6678L199.547 37.6702ZM198.632 34.3954C198.33 34.5274 197.877 33.8964 197.621 33.6663C197.537 33.5621 197.396 33.5997 197.297 33.544C196.921 33.2279 195.722 32.0168 195.995 31.588C196.099 31.4815 196.337 31.5638 196.446 31.6668C197.037 32.2178 197.545 32.8064 198.037 33.4362C198.228 33.7377 198.709 33.9594 198.651 34.353L198.632 34.3954ZM197.952 19.2723C197.45 18.7201 197.087 18.0467 196.488 17.5586C196.322 17.4024 196.075 16.505 196.026 16.4093C196.716 16.9785 197.637 17.7669 198.209 18.4694C198.433 18.7176 198.526 19.087 198.447 19.3971L198.415 19.4334C198.288 19.4831 198.062 19.3765 197.955 19.2711L197.952 19.2723ZM198.249 26.4929L198.216 26.5256C197.981 26.5741 197.795 26.4069 197.648 26.2265C197.372 25.9734 197.11 25.6524 196.98 25.4126C196.846 25.1244 196.492 24.9088 196.294 24.6315C196.252 24.5503 196.171 24.3578 196.23 24.2936C196.37 24.3299 196.563 24.554 196.702 24.6557C197.23 25.128 197.757 25.6754 198.205 26.1974C198.255 26.2689 198.26 26.4203 198.249 26.4929ZM196.235 18.9683C196.287 19.1149 196.395 19.4588 196.42 19.5097C196.723 19.8076 197.347 20.3066 197.676 20.6033C197.823 20.7402 197.838 20.7063 197.861 20.8347C197.899 21.0066 197.997 21.445 198.042 21.6485V21.657C197.852 21.4681 195.838 19.5521 195.406 19.1088C195.356 18.8509 195.205 18.0382 195.213 18.0188C195.221 18.0092 195.268 18.0612 195.353 18.1351C195.582 18.3713 196.034 18.6874 196.235 18.9696V18.9683ZM195.495 8.49595C195.886 8.45114 196.146 8.67034 196.367 8.94647C196.469 9.05184 196.374 9.18386 196.469 9.27469C196.86 9.70827 197.371 10.12 197.764 10.5585C197.831 10.6517 197.869 10.8079 197.846 10.9085L197.841 10.9363C197.841 10.9363 195.519 8.6219 195.411 8.51412C195.432 8.50927 195.474 8.50079 195.495 8.49595ZM185.466 3.7569C185.617 3.11502 186.387 2.77955 186.953 2.64148C187.664 2.63664 191.692 2.64148 192.509 2.64027C192.709 2.62574 192.842 2.8074 192.989 2.92851C193.492 3.36451 193.653 4.07543 193.526 4.70157C193.19 6.22513 193.476 8.34577 193.421 10.0425C193.41 11.0841 192.97 12.0651 192.996 13.0909C193.001 13.8623 193.113 14.9487 193.04 15.587C193.022 15.7989 192.891 15.9781 192.76 16.1332C192.624 16.2906 192.57 16.4311 192.569 16.6697C192.548 17.2655 192.549 17.9886 192.564 18.5941C192.551 18.9029 192.61 19.1609 192.833 19.3692C192.983 19.5327 193.024 19.6587 193.023 19.8864C193.057 20.8213 193.052 22.5132 193.025 23.355C193.022 23.4603 193.019 23.5766 192.994 23.6807C192.949 23.866 192.681 24.0368 192.611 24.3408C192.563 24.5394 192.601 24.795 192.599 25.0214C192.631 25.5289 192.087 25.9879 191.64 26.0787C191.157 26.1684 190.661 26.1272 190.312 25.7929C189.988 25.61 189.65 25.6839 189.195 25.667C188.858 25.673 188.606 25.6633 188.429 25.7614C188.117 26.0279 187.575 26.2422 187.217 26.0182L187.173 25.9818C186.3 24.927 186.794 23.5536 186.697 22.2759C186.435 17.9268 185.972 13.1115 186.162 8.73574C186.156 8.6546 186.148 8.55771 186.137 8.47656C186.112 8.16894 185.813 7.98608 185.685 7.65545C185.374 6.51701 185.405 4.82146 185.466 3.75327V3.7569ZM191.456 33.5367C191.229 33.5972 190.992 33.5997 190.745 33.6518C190.115 33.6917 189.76 33.9485 189.247 34.009C188.573 33.9993 187.59 34.1592 186.963 33.9049C186.766 33.7874 186.465 33.6772 186.218 33.5428C185.644 33.0934 185.276 32.3353 185.083 31.6534C185.045 31.3034 185.058 30.848 185.076 30.5186C185.137 30.1177 185.302 29.735 185.432 29.3414C185.758 28.8473 186.112 28.2551 186.638 27.9293C187.024 27.698 187.48 27.79 187.884 27.675C188.192 27.5878 188.519 27.4049 188.823 27.3249L188.88 27.3128C189.449 27.2499 190.17 27.2038 190.694 27.4497C191.284 27.5187 191.731 27.8118 192.26 28.1001C192.764 28.4222 193.408 28.8328 193.589 29.3814C193.63 29.5776 193.723 29.7617 193.788 29.9785C193.998 30.7923 193.568 31.4185 193.143 32.0688C192.922 32.5714 192.557 33.0535 192.023 33.246C191.831 33.332 191.646 33.4882 191.457 33.5379L191.456 33.5367ZM194.41 39.6092L194.404 39.6406C194.011 39.2495 192.385 37.6266 192.179 37.4219C192.48 37.3068 192.759 37.4825 192.979 37.715C193.341 38.025 193.794 38.4756 194.104 38.8377C194.33 39.0521 194.494 39.3003 194.41 39.6104V39.6092ZM194.818 11.0841C194.836 11.0114 195.035 10.5839 195.106 10.5367C195.495 10.5197 195.955 10.9618 196.218 11.2427C196.993 12.1729 197.969 12.9407 198.598 14.0077C198.664 14.1518 198.714 14.4037 198.657 14.5369L198.615 14.5769C198.495 14.6229 198.286 14.6047 198.193 14.5515C197.236 13.9181 196.865 12.9758 196.203 12.1753C195.913 11.8374 195.446 11.491 195.105 11.1773C195.003 11.1083 194.817 11.1434 194.818 11.0841ZM197.051 38.0057C196.944 37.9766 196.513 37.8494 196.427 37.8276L196.43 37.8095C196.747 37.1506 194.916 36.2459 195.221 35.8015C195.598 35.7191 195.821 36.1369 196.06 36.3537C196.145 36.447 196.303 36.3683 196.353 36.4312C196.678 36.7485 197.178 37.1664 197.437 37.5406C197.482 37.7162 197.314 37.864 197.188 37.9742C197.133 38.025 197.112 38.0311 197.05 38.0057H197.051Z" fill="var(--fill-0, white)"/>
</g>
</svg>
