<svg preserveAspectRatio="none" width="100%" height="100%" overflow="visible" style="display: block;" viewBox="0 0 885.001 100.376" fill="none" xmlns="http://www.w3.org/2000/svg">
<g id="Group 7">
<path id="Vector" d="M716.26 10.6964C716.605 10.9186 716.975 11.0354 717.349 11.1523C718.927 11.7193 719.671 13.1696 719.397 14.882C720.269 30.0063 719.138 45.3415 719.315 60.443C719.346 63.7453 718.711 66.9736 718.91 70.2703C719.004 72.1509 718.887 74.4446 718.859 76.4477C718.377 77.9151 717.873 79.448 716.953 80.7587C716.596 81.2346 716.123 81.662 715.73 82.0666C715.032 82.7134 714.893 84.1153 715.266 85.0299C715.594 85.6767 716.337 86.0158 716.958 86.352C722.48 88.3807 725.885 93.2987 730.06 97.1624C730.644 97.6069 731.319 97.755 732.06 97.755C734.109 97.7835 736.303 97.5613 738.337 97.5983C742.508 98.1625 746.686 97.1567 750.877 97.1852C757.282 97.7265 763.913 96.242 770.338 96.6153C771.047 96.6039 771.518 96.8888 772.028 96.9059C773.116 96.9487 773.971 95.6551 773.746 94.5638C773.523 90.0704 774.509 85.2721 773.572 80.9952C773.344 80.2886 773.341 79.4936 773.529 78.7699C773.774 77.7242 773.535 76.764 773.133 76.0089C772.053 74.1996 769.742 73.3818 768.329 72.0369C767.697 71.242 764.488 69.1847 766.594 68.4952C767.782 68.3043 769.777 67.5236 770.335 66.5234C771.327 62.5173 769.204 58.2262 768.987 54.2314C768.956 53.2199 768.876 51.969 769.064 51.1342C769.215 50.3592 769.97 49.6497 770.281 48.963C770.714 47.8774 769.868 46.8659 769.104 46.0623C767.987 44.9283 766.919 44.6434 765.921 43.5065C765.169 42.6118 762.246 40.6315 763.727 39.6314C764.357 39.5032 766.095 39.3721 767.845 39.1698C769.913 38.8222 771.646 39.0644 772.327 38.4575L772.381 38.3748C773.139 37.0898 772.954 35.0411 772.837 33.5253C772.458 29.4137 771.737 23.2619 772.632 18.9908C772.797 18.0021 773.498 17.1188 773.176 16.1073C772.683 15.1812 771.708 14.3891 770.913 13.7053C770.056 13.0613 768.816 12.8419 767.873 12.2151C765.619 10.7961 763.539 8.08922 761.32 5.87528C760.274 4.79254 759.864 4.26826 758.374 4.43067C756.977 4.66717 755.436 5.7898 753.817 5.31966C750.15 4.57884 746.287 4.57599 742.662 4.69566C736.75 5.43079 730.39 5.1715 724.298 5.27407C722.535 5.3738 720.845 5.41084 719.206 5.81545C718.283 6.14312 717.443 6.4366 716.406 6.34543C715.505 6.26849 714.622 7.00362 714.405 7.89831C714.069 9.00956 715.294 10.0325 716.269 10.6935L716.26 10.6964ZM732.074 92.8827C730.47 91.6432 728.963 89.4435 727.438 88.244C726.985 87.9391 726.518 88.036 726.153 87.4233C726.102 87.2894 726.273 85.7479 726.39 85.822C726.791 86.2038 727.564 86.805 727.923 87.2923C728.076 87.5174 728.008 87.9362 728.037 88.0673L728.091 88.1214C728.27 88.1442 728.772 88.0844 728.92 88.2639C730.242 89.3979 731.405 90.8226 732.63 92.0849C733.037 92.6034 732.744 93.2474 732.074 92.8827ZM741.007 88.4377C740.924 88.8195 740.964 89.0589 740.802 89.0931C740.594 89.113 740.34 89.1244 740.132 89.1301C739.901 89.1472 739.625 89.15 739.394 89.1358C738.34 89.0332 737.442 87.6484 736.3 88.2667C735.875 88.5289 735.827 88.6742 735.379 89.0589C735.12 89.1671 734.636 89.1415 734.334 89.0304C733.322 88.3807 730.045 86.4631 733.012 85.8163C733.633 85.7508 734.544 85.5884 735.04 85.9075C735.263 86.1212 735.479 86.3292 735.804 86.2893C736.992 86.3634 739.374 85.0299 740.73 86.2038C740.91 86.2779 741.124 86.2808 741.24 86.2808L741.329 86.2893C741.34 86.8136 741.075 87.845 741.007 88.4377ZM747.985 89.586C746.771 89.4863 745.905 88.0502 744.628 88.1442C744.446 88.1556 744.389 88.1499 744.326 88.0445C744.01 87.6855 742.95 86.4888 742.782 86.2979C743.546 86.2323 744.452 86.107 745.135 86.4888C746.039 87.0358 747.221 88.5745 748.013 89.5575L747.985 89.586ZM760.365 93.7204L760.294 93.803C759.67 93.9227 758.798 93.9825 758.168 93.8258C757.402 93.5266 756.043 92.0393 755.054 91.1075C754.641 90.5975 754.202 90.6232 753.666 90.2926C752.544 89.3296 751.447 87.9248 750.016 87.7225C749.561 87.657 749.407 87.3037 749.17 86.9105C748.193 85.5542 751.854 85.6852 752.381 85.7707C753 85.8363 753.826 86.8022 754.453 87.2039C755.282 87.7225 756.57 88.0417 757.18 88.9449C757.385 89.2441 757.482 89.6401 757.741 89.9108C759.006 90.8796 760.653 91.9908 760.365 93.7204ZM761.83 46.5496C761.741 47.3218 761.288 47.9515 760.493 47.7748C759.958 47.6637 759.661 47.1707 759.208 46.9314C758.644 46.8231 758.02 46.3159 757.755 45.7774C757.45 45.2531 757.308 44.6719 757.123 44.0621C756.986 43.686 757 43.6632 757.239 43.307C757.447 42.9623 757.707 42.5406 757.721 42.5149L757.792 42.4921C759.795 42.2328 761.739 43.2842 762.263 45.3928C762.294 45.7689 761.855 46.0282 761.824 46.5467L761.83 46.5496ZM754.712 63.3977C754.47 62.6056 753.344 61.9674 753.242 61.0983L753.256 61.0385C754.171 60.7193 756.752 63.2467 757.735 63.9932C759.351 65.0874 759.644 66.5947 757.305 66.7599C753.487 67.0677 755.128 65.3752 754.709 63.3977H754.712ZM767.925 75.9918C768.11 76.8352 767.947 78.7101 767.99 79.6162L767.97 79.6276C767.289 79.3512 766.449 78.3767 765.691 78.1886C765.497 78.1658 765.252 78.2285 765.055 78.1943C764.799 78.1715 764.642 77.8667 764.397 77.7698C764.172 77.6957 763.827 77.6815 763.591 77.3965C763.086 76.8722 763.337 76.3309 763.24 75.7439C763.143 75.3963 762.807 75.2225 762.733 74.8578C762.636 74.2907 762.847 73.8035 763.026 73.2963C763.143 73.0484 763.138 72.6695 763.317 72.5412C765.303 72.5355 766.594 74.8264 767.927 75.9918H767.925ZM763.873 48.1737C764.454 48.2136 764.973 48.7664 765.554 48.6923L765.614 48.7008C765.614 49.0883 765.614 50.0571 765.614 50.5273C765.588 50.9347 765.679 51.1 765.528 51.0743H764.386C763.836 51.0658 764.001 51.1513 763.713 50.7581C763.545 50.5244 763.306 50.1882 763.109 49.9118C762.85 49.5129 762.719 49.4816 762.742 49.2308C762.824 48.7094 763.249 48.1139 763.876 48.1737H763.873ZM767.48 26.3535C765.981 25.1995 763.457 23.4187 761.693 21.8743C761.206 21.4099 760.904 21.1477 760.81 20.8087C760.716 20.444 760.71 19.9197 760.493 19.5607C760.342 19.3754 760.154 19.1646 759.981 18.9993C759.827 18.8255 760.077 18.6061 760.268 18.2215C760.542 17.7741 760.727 17.361 760.83 17.3011L760.927 17.2669C761.374 17.1501 761.764 17.5148 762.075 17.8055C762.673 18.2842 764.178 19.7031 765.611 21.1192C766.711 22.2989 767.799 23.128 768.551 24.3504C769.05 25.4502 769.021 26.6441 767.48 26.3535ZM759.906 13.0699C759.912 12.8077 759.875 12.6054 760.083 12.557C760.285 12.4971 760.679 12.5826 760.773 12.463C760.924 12.3376 760.744 11.782 760.969 11.6281C761.169 11.4685 761.642 11.4942 761.915 11.5312C763.046 11.7221 763.554 12.7992 764.4 13.4659C765.844 14.6285 767.953 15.3351 768.768 17.3382C768.999 17.8568 769.121 18.5235 768.66 18.9281C768.38 19.1447 767.956 19.0649 767.523 18.9822C766.36 18.7942 766.135 18.7486 765.135 17.8568C764.195 17.153 763.508 16.2326 762.308 16.321C761.921 16.3124 761.254 16.4435 760.944 16.3295L760.892 16.2412C760.858 16.1301 760.887 15.9306 760.81 15.7425C760.639 15.2667 759.915 14.9761 759.875 14.523C759.807 14.1213 759.895 13.5685 759.909 13.0727L759.906 13.0699ZM759.177 33.4768C759.374 33.6421 759.49 33.7304 759.542 33.8814C759.687 34.3829 760.388 36.5114 760.419 36.7593C760.129 36.8134 759.468 36.1694 759.234 35.913C758.775 35.4486 758.844 35.0781 758.279 34.7305C755.886 33.3657 753.467 31.5849 751.857 29.3994C752.903 27.8608 755.074 29.0774 756.473 29.2028L756.521 29.2997C756.473 29.7499 756.539 30.3796 756.957 30.693C757.852 31.4794 758.22 32.7189 759.177 33.4797V33.4768ZM723.751 30.3938C724.193 26.6698 724.814 20.6377 723.839 16.5717C723.609 15.8024 722.928 15.3978 722.797 14.6256C722.631 13.238 722.629 11.7763 723.617 10.722C724.056 9.92134 725.561 10.3203 725.734 9.30019C725.777 9.19191 725.834 9.10928 725.917 9.07509C727.059 8.78161 732.376 9.04375 737.001 9.17767C740.34 9.17482 742.266 9.62501 744.905 8.76736C745.281 8.75312 745.671 8.73032 746.044 8.8101C747.882 9.18622 749.672 8.8158 751.079 9.09219C751.863 9.28594 752.387 10.0923 753.245 10.1009C754.461 10.0524 755.655 10.2234 756.53 11.0839C756.843 11.3973 756.963 11.6452 757.043 11.9957C756.963 13.4175 757.254 21.6122 756.935 23.2306C755.989 24.339 754.031 23.7748 752.675 23.9429C747.552 23.8603 742.021 22.7206 736.912 23.0226C735.659 23.2392 734.656 24.5242 734.658 25.7437C734.653 27.0231 736.362 27.7867 736.445 29.0689C736.502 29.3624 736.522 29.6844 736.536 29.9807C736.511 31.052 737.095 31.8413 737.106 32.9354C737.129 34.3088 736.815 35.762 736.354 37.0157C736.14 37.6454 736.171 38.2837 736.465 38.8906C737.058 40.1129 738.351 40.7056 739.659 40.6486C741.229 40.7597 742.528 39.9961 744.058 39.6713C746.389 39.2866 748.555 40.1585 750.78 40.1072C752.376 39.9135 753.683 41.0789 753.766 42.6488C754.108 43.8228 754.276 44.1049 754.196 45.4868C754.097 47.5412 754.393 50.3107 754.077 52.3052L754.02 52.3879C752.564 53.5931 750.244 52.6386 748.332 53.0518C745.928 53.3652 743.338 53.1885 740.75 52.9293C737.072 52.4962 737.912 55.8555 738.092 58.2803C738.402 61.4944 738.622 64.1072 738.12 67.3612C738.035 68.1618 737.835 69.1078 738.155 69.8372C738.548 70.4641 739.331 70.9342 739.967 71.0852C740.964 71.0909 745.341 71.0852 749.378 71.0852C751.743 71.0795 753.498 71.0909 755.487 71.0852C756.778 71.0852 756.692 70.9884 757.815 71.7605C758.04 71.9258 758.183 72.1053 758.316 72.3418C759.143 73.9545 759.086 75.7781 759.054 77.6957C759.029 79.3312 759.154 80.0122 757.889 80.8556C756.083 82.2091 753.82 81.5793 751.47 81.6392C744.147 81.1405 736.203 80.7359 728.541 81.491C727.33 81.5907 726.071 81.662 724.877 81.4739C723.999 81.1947 722.942 80.4054 722.768 79.4594C722.674 78.3624 722.68 75.0487 722.754 73.8035C722.74 73.0627 723.549 72.6153 723.743 72.1537C723.757 69.4782 723.728 41.0817 723.748 30.3853L723.751 30.3938ZM746.58 34.7989L746.478 34.9043C745.022 35.3973 744.164 34.0923 743.161 33.1491C742.121 32.8699 741.229 31.8954 740.722 31.0891C740.38 30.4651 740.086 29.4393 740.48 28.7954C741.107 28.405 741.625 29.274 742.058 29.6388C743.52 30.9238 745.241 32.1177 746.358 33.5538C746.631 33.8786 746.725 34.3915 746.577 34.7961L746.58 34.7989ZM752.276 66.1445L752.182 66.23C750.555 66.3753 749.595 64.3295 748.275 63.6827C747.939 63.4633 747.432 63.5231 747.176 63.2923C746.768 62.4261 746.332 61.7992 745.338 61.4545C744.021 60.9387 742.072 60.1267 742.303 58.4484C742.537 58.0894 742.953 58.2062 743.369 58.1578C743.679 58.1435 743.99 58.115 744.244 58.1806C746.589 59.4485 749.566 61.9987 751.501 64.2867C751.985 64.8252 752.586 65.4264 752.276 66.1473V66.1445Z" fill="var(--fill-0, white)"/>
<path id="Vector_2" d="M549.311 16.2868C548.915 16.2697 548.462 16.3096 548.06 16.3068C547.146 16.3495 546.81 15.9791 545.875 15.0531C545.148 14.3236 544.368 13.5629 543.724 12.7879C543.2 12.0641 542.177 10.5853 542.142 9.60799C542.102 9.21478 542.085 8.78738 541.991 8.39702C540.684 4.40795 535.711 5.88106 532.523 5.81267C527.99 6.01782 522.727 4.17145 518.311 4.8211C516.968 4.99206 515.418 4.71853 514.074 5.00916C511.429 5.62177 513.324 8.2802 513.598 10.3403C513.626 10.762 513.911 11.1837 514.099 11.4629C514.381 11.8789 513.894 12.3832 513.424 12.2436C513.054 12.1439 512.689 11.7849 512.387 11.5398C510.72 10.1465 510.045 8.38277 509.144 6.49651L509.053 6.40533C507.725 5.63886 506.799 4.06888 505.189 3.972C504.166 3.80959 503.409 4.64729 502.599 4.88094C499.787 5.34538 487.404 5.20576 483.836 4.89518C483.198 4.74702 482.645 4.37945 481.882 4.40225C480.298 4.47063 479.608 5.06899 479.716 6.56205C479.708 7.09487 479.782 7.55362 480.127 7.95537C481.104 9.16634 483.722 10.9301 484.401 12.2208C484.517 12.5343 484.509 12.9189 484.523 13.2523C484.54 14.0473 484.948 14.7055 485.124 15.5546C485.7 19.2986 485.857 23.1423 486.597 26.7866C487.509 30.5136 488.541 34.2234 489.179 38.013C489.686 41.4351 489.541 45.0652 489.954 48.4701C491.322 56.4283 492.943 64.4777 494.419 72.4188C495 75.3878 495.111 78.411 494.983 81.38C494.98 81.7931 495.023 82.2063 495.182 82.5824C495.616 83.4999 496.544 84.178 497.277 84.8676C499.645 86.9761 503.551 91.2843 505.3 92.595C505.745 92.9283 506.226 93.256 506.571 93.7632C507.406 95.0169 507.073 96.8376 508.634 97.4901C509.5 97.8121 510.193 98.1711 511.295 98.1797C512.119 98.1882 512.746 97.7808 513.504 97.6297C516.27 97.3762 521.083 97.5728 524.294 97.8463C527.844 98.3791 531.982 98.4874 535.748 97.2109C536.572 96.8832 537.318 96.7692 537.98 96.6239C539.797 96.0512 539.168 93.6606 539.37 92.1847C539.592 90.6261 540.268 88.6942 540.393 86.8991C540.567 86.3008 541.085 86.0814 541.205 85.4175C541.265 79.5763 541.57 73.8064 542.67 68.387C543.291 65.0903 543.029 61.5657 543.727 58.326C544.465 54.2543 544.49 49.9717 545.18 45.9342C545.607 43.0421 546.815 40.4407 547.126 37.5457C548.032 32.3514 549.394 27.0203 550.708 21.8801C550.847 21.1222 550.693 20.2588 550.978 19.5237C551.081 19.2217 551.163 18.894 551.195 18.5663C551.143 17.5405 550.377 16.341 549.32 16.2897L549.311 16.2868ZM538.86 13.0215C539.806 12.7366 540.57 14.1356 541.154 14.6057C541.111 15.0417 540.404 16.2982 540.245 16.7627L540.219 16.7741C539.86 16.7456 539.282 16.8339 539 16.7285C538.752 16.5746 538.47 16.2498 538.393 16.0105C538.105 15.2326 538.743 13.9532 538.857 13.0186L538.86 13.0215ZM511.686 93.3557C511.486 93.4469 509.643 92.1106 509.107 91.7544C508.64 91.3726 508.335 91.4324 507.814 91.4438C506.386 91.2643 506.375 89.1985 505.651 88.3893C502.038 85.4916 504.984 84.7992 507.366 87.2809C508.138 88.0417 508.942 89.0219 509.737 89.7257C510.278 90.5463 511.626 93.2446 511.697 93.3386L511.683 93.3529L511.686 93.3557ZM519.356 80.6391C517.402 80.5765 515.433 80.434 513.555 80.5765C510.082 80.6591 506.668 80.5594 503.255 80.1348C501.585 80.0807 500.308 79.8641 500.277 77.8895C500.214 74.9633 498.847 72.3333 498.06 69.5495C496.268 63.6571 495.399 57.2318 494.45 50.9946C493.573 47.7236 493.37 44.595 493.436 41.1901C493.422 39.6058 493.396 38.2324 493.191 36.9303C493.125 35.9216 492.062 35.3176 491.9 34.3089C490.772 26.5729 491.037 18.2643 487.617 11.0327C487.293 10.3004 486.535 9.81599 486.643 9.31166C486.919 8.4996 488.102 7.60206 489.088 7.78441C492.843 7.91833 496.921 7.02079 500.397 8.39132L500.482 8.4711C500.759 8.78738 500.667 9.5567 500.702 10.2149C500.568 13.2181 500.155 16.1786 500.576 18.9567C500.844 21.8858 502.027 24.7665 502.628 27.6585C503.346 31.5479 503.907 35.7222 504.702 39.6913C505.976 44.5238 506.437 49.5358 507.315 54.4822C507.816 55.6049 507.759 56.7132 508.942 57.4284C509.771 58.1208 510.791 58.1066 511.452 57.172C512.461 55.4766 511.142 52.4706 511.84 50.3621C513.162 47.5042 512.116 43.7744 513.883 41.2413C514.458 40.2982 515.193 39.3836 515.438 38.2894C514.866 29.6502 519.302 22.3502 518.949 13.4631C518.986 12.275 518.484 11.1352 518.165 10.0211C517.929 9.1179 518.823 8.35428 519.61 8.18332C520.601 8.08929 523.323 8.10639 524.582 8.15483C525.437 8.12633 525.813 8.79023 526.542 9.12075C528.651 9.94136 530.95 9.58804 533.221 9.63078C534.848 9.69917 534.82 11.423 534.62 12.6482C533.743 17.7913 533.064 22.7976 531.762 27.8124C531.153 30.6019 531.423 33.7219 531.11 36.5456C531.167 37.7737 530.141 38.4006 529.799 39.5488C528.027 49.5044 526.232 59.3403 525.206 69.5438C525.083 70.3616 524.234 70.6693 524.186 71.5099C524.12 73.0058 523.607 74.382 523.342 75.8209C523.166 77.3482 523.023 78.9238 521.929 80.1149C521.234 80.7645 520.279 80.6249 519.359 80.642L519.356 80.6391ZM532.19 67.4609C533.076 68.8799 535.142 69.9969 536.031 71.527C536.298 71.8689 536.928 73.5756 536.11 73.2366C534.022 71.7008 531.66 70.3274 530.238 68.1505C530.241 67.6661 530.229 66.0135 530.244 65.7599C530.235 65.6117 530.546 65.7684 531.067 65.8824C531.571 66.0249 532.053 66.1047 532.11 66.1731L532.138 66.2471C532.155 66.6318 532.067 67.2102 532.184 67.4609H532.19ZM523.405 88.1244C522.824 87.7767 520.713 86.1982 520.735 86.2039C521.297 86.0899 522.34 85.7822 522.901 85.7537C523.978 86.3749 525.326 87.3978 525.95 88.5432L525.967 88.5916C525.967 88.5916 523.878 88.2127 523.405 88.1272V88.1244ZM533.962 90.0135C532.532 89.9935 531.608 88.623 530.617 87.771C529.406 87.4576 528.682 86.3863 527.844 85.4517C527.152 84.5427 526.685 83.7478 527.001 82.7192C527.383 81.4711 528.893 81.7703 529.383 82.7733C530.332 84.2265 531.634 85.5201 532.956 86.7766C533.15 86.9647 533.156 87.0558 533.258 87.3864C533.449 88.0902 533.919 89.3581 534.036 90.0021L533.968 90.0163L533.962 90.0135ZM536.23 80.9554C535.697 80.8642 534.384 80.2402 533.845 80.0522C532.777 79.1176 529.867 76.4449 528.656 75.3565C528.491 75.1713 528.286 75.1371 528.272 74.835C528.138 73.8492 528.335 71.8318 529.44 71.4643L529.565 71.4272C530.215 71.242 530.964 71.735 531.295 72.3305C532.392 73.9774 533.688 74.8493 534.891 76.2967C535.324 76.8239 535.862 77.5334 536.261 78.0662C536.623 78.4195 536.407 78.9067 536.569 79.3541C536.669 79.582 536.88 79.7302 536.86 79.9012C536.82 80.1006 536.327 80.8756 536.23 80.9583V80.9554ZM537.763 67.1817C536.703 67.5122 535.663 66.7344 534.871 66.0733C533.948 65.4408 533.557 64.6942 532.831 63.8166C532.386 63.3978 531.705 63.2924 531.315 62.808C531.172 62.6285 531.192 62.3977 531.113 62.2039C530.999 61.9532 530.717 61.7993 530.671 61.5286C530.434 60.6938 530.85 58.4798 532.053 59.3118C532.688 59.7535 533.446 60.5285 533.951 61.1354C534.076 61.3263 534.016 61.5999 534.19 61.8449C535.54 63.4092 537.546 64.9364 537.828 67.1048L537.76 67.1817H537.763ZM540.205 48.6525C539.866 48.9972 538.125 47.413 537.686 46.9001C537.076 46.4385 537.66 45.712 537.153 45.2247C536.637 44.6748 535.341 44.0964 534.737 43.4325C534.025 42.5577 533.743 40.6145 535.478 41.0333C536.036 41.2185 536.552 41.6858 536.843 42.2073C536.911 42.4067 536.9 42.6233 537.016 42.8227C538.239 44.5295 540.213 46.2875 540.23 48.5641L540.202 48.6525H540.205ZM541.661 41.1245C541.453 41.4607 541.424 41.7485 540.96 41.9195C540.769 41.8938 540.55 41.5747 540.316 41.3867C539.96 41.0476 539.567 40.7627 539.342 40.3381C539.273 40.1415 539.285 39.9192 539.159 39.7169C538.048 38.1185 535.88 36.5371 535.982 34.4058C536.036 34.2434 537.236 34.3004 537.321 34.3374L537.353 34.4086C537.216 36.0983 539.054 37.0272 540.105 38.278C540.27 38.5174 540.208 38.7995 540.384 39.0502C540.909 39.7682 541.912 40.1842 541.658 41.1245H541.661ZM542.627 35.329C541.749 35.1836 539.718 33.4285 539.322 32.6848C539.256 31.4197 536.751 30.9495 536.435 29.8411C536.264 29.1886 536.236 27.3052 537.071 26.7753L537.125 26.7553C538.45 28.0062 541.231 30.8641 542.704 32.3144C542.972 32.6164 543.034 32.5395 543.174 32.9241C543.328 33.3601 543.573 33.8302 543.567 34.2263C543.615 34.6651 543.011 35.3803 542.627 35.3318V35.329Z" fill="var(--fill-0, white)"/>
<path id="Vector_3" d="M428.494 13.6597C427.397 12.7849 425.639 11.0098 424.773 10.0182C424.491 9.67914 424.36 9.37711 424.32 8.9953C424.385 7.67891 423.713 6.79561 422.861 5.69862C421.542 4.42211 419.131 4.02605 417.456 4.75833C415.567 5.49631 413.495 5.78695 411.504 5.94366C407.212 6.19155 402.531 5.67297 398.18 5.81544C395.906 5.78125 394.63 7.57063 395.385 9.69339C395.67 10.5054 396.282 11.3432 396.488 12.1467C397.052 14.4917 394.903 14.5544 393.627 13.1183C391.786 10.9129 389.039 9.69054 386.672 8.06072C385.378 6.92098 384.261 4.72699 382.224 5.23132C377.839 7.0435 372.978 4.95494 368.843 4.14288C366.55 3.80381 363.891 3.66419 361.643 4.0346L361.509 4.08589C360.609 4.42496 359.703 5.38234 359.999 6.42235C360.315 7.4709 361.022 8.09206 361.142 9.28308C361.378 11.3403 363.515 12.0954 364.561 14.05C365.817 16.3893 366.324 18.7315 367.638 21.0765C368.598 22.7234 369.125 24.604 369.638 26.4446C370.943 31.2515 373.482 35.6879 375.326 40.4206C376.229 42.5662 376.539 44.7573 377.334 46.8829C378.411 49.1396 379.488 51.5245 380.149 53.9123C380.315 54.4223 380.392 54.9124 380.377 55.4623C380.11 63.4917 381.275 72.3076 379.705 79.7415C379.226 81.1177 378.579 82.6849 379.161 84.1096C379.568 84.9444 380.734 85.2692 381.474 85.7251C384.509 87.7225 387.452 91.0107 389.871 93.8885C391.345 95.695 393.405 97.4046 395.903 97.1795C396.69 97.1139 397.291 97.2963 397.855 97.6752C399.439 98.9062 401.289 97.302 402.813 97.2251C403.628 97.2137 404.186 97.9288 404.905 98.1625C406.905 98.5671 410.897 98.2993 412.541 97.547C413.136 97.2906 413.809 97.1282 414.45 97.339C415.148 97.5584 415.627 97.9516 416.216 97.7408C417.177 97.1424 419.154 96.621 418.952 95.1878C418.804 93.9141 417.405 92.8713 417.14 91.8427C416.903 90.8767 417.185 89.0161 417.105 87.714C417.011 86.8221 416.655 86.2494 416.612 85.4459C416.333 79.9752 416.108 70.3928 416.667 64.2582C416.684 60.668 418.285 58.6393 419.71 55.468C420.234 53.9379 420.465 52.3651 420.975 50.8521C422.502 46.2618 423.804 41.4236 425.172 36.7507C425.847 34.8559 426.864 33.0751 427.685 31.2344C429.181 28.0403 429.452 24.6268 430.771 21.3928C431.207 20.1704 432.492 18.9993 432.794 17.9251C432.965 16.9478 433.036 15.6001 432.344 14.7025C431.284 13.503 429.5 14.4033 428.503 13.6568L428.494 13.6597ZM386.888 12.0612C388.233 11.6167 388.623 15.0017 387.364 15.3892C386.435 15.677 386.21 14.1327 385.7 13.7252C385.586 13.2237 386.629 12.1467 386.888 12.0612ZM401.155 50.5842C400.938 51.2709 400.502 51.8579 399.867 52.2169C399.414 52.5047 399.12 52.7896 399.052 53.2626C398.907 54.069 399.166 54.787 399.685 55.3312C400.229 55.9894 400.716 57.1862 400.93 58.078C400.833 64.1613 401.141 74.4076 400.821 80.4168L400.759 80.4909C399.636 82.0352 397.291 81.5508 395.684 81.0351C390.957 80.7416 384.441 83.1208 385.213 75.8778C385.036 74.8207 384.58 73.869 384.64 72.7692C384.392 66.7428 385.01 60.3717 384.785 54.3283C384.76 53.71 384.58 53.1173 384.255 52.5845C381.705 48.7208 380.981 44.2046 379.491 39.8793C378.061 36.3034 376.545 32.7616 375.326 28.9891C372.921 23.6124 370.635 18.3041 369.04 12.5684C368.806 11.9045 368.367 11.3773 368.179 10.7932C367.934 9.96123 367.963 8.7645 369.028 8.72176C371.96 8.51946 374.981 9.80736 377.85 10.1008C379.343 10.1122 381.17 9.91564 381.303 11.913C381.474 17.3125 383.409 22.2504 385.267 27.1798C386.407 30.2457 387.427 34.1293 389.059 37.0527C389.629 37.7537 390.407 38.258 391.342 38.1982C392.746 38.1155 393.205 36.121 393.595 35.0183C394.761 30.8127 396.75 26.5643 398.203 22.1877C398.499 21.0423 399.907 20.7631 400.192 19.6775C400.374 19.1275 400.408 18.4665 400.42 17.8083C400.317 16.5859 400.836 15.7995 400.935 14.6968C401.049 12.859 400.212 10.3972 402.203 9.70194C403.497 9.54522 405.07 9.90709 406.15 9.42555C406.751 9.20045 407.315 9.11212 407.976 9.10642C412.065 9.07223 416.94 8.12625 413.649 13.8221C413.031 16.0047 412.524 18.1844 411.865 20.3414C409.58 27.3336 407.44 34.1521 405.141 40.9563C403.93 44.1191 402.2 47.3702 401.155 50.5785V50.5842ZM415.384 36.745C415.692 37.1468 416.222 37.6283 416.555 37.936C416.869 38.4689 416.969 39.2211 417.231 39.9363C417.402 40.5631 417.61 41.0162 417.544 41.0817L417.459 41.1244C417.194 41.2128 416.632 41.1843 416.365 40.9506C415.874 40.6287 415.738 40.1956 415.265 40.1329C414.629 40.1557 414.364 40.2297 413.977 39.5801C413.438 38.7424 412.618 37.6568 411.883 36.9388C411.424 35.9415 412.068 34.0381 413.367 34.3744C414.296 34.7334 414.689 36.0327 415.384 36.7479V36.745ZM406.831 52.0516C407.574 52.6101 408.252 53.3253 408.888 53.9977C409.116 54.2143 408.896 54.5505 409.122 54.7585C409.646 55.3255 410.56 55.8612 410.441 56.7474L410.427 56.8072C409.694 56.5792 408.429 56.1832 407.603 55.9239C406.862 55.6504 405.828 54.391 405.722 53.9465C405.494 53.217 406.201 52.3594 406.828 52.0516H406.831ZM407.241 58.9926C407.931 59.5169 408.409 60.7307 409.426 60.5769L409.483 60.5883V61.5428C409.466 61.9958 409.555 62.05 409.307 61.9702C408.931 61.8847 407.874 61.6482 407.406 61.5456C406.965 61.6425 406.289 62.0984 405.748 62.3349C405.548 62.4118 405.523 62.5087 405.386 62.446C402.984 61.2265 404.865 57.3372 407.244 58.9955L407.241 58.9926ZM412.318 83.3858C411.934 83.363 411.33 82.8615 410.945 82.6421C409.198 81.4084 406.922 79.6304 405.674 77.69C405.278 76.1286 406.936 76.6386 407.569 77.4364C409.369 78.9067 410.233 80.7331 411.823 82.1407C412.142 82.4113 412.401 82.9556 412.347 83.3174L412.318 83.3887V83.3858ZM412.783 75.6955L412.683 75.7895C412.304 75.9376 411.549 75.9348 411.139 75.8123C410.19 75.5501 409.694 74.6497 408.922 74.0428C408.594 73.8206 408.29 73.9346 408.121 73.7408C407.238 72.9287 406.09 71.8061 405.272 70.9599C404.899 70.5353 404.728 70.4584 404.691 70.1449C404.679 69.6776 404.645 68.7545 404.813 68.2587C405.38 68.0564 406.056 68.1248 406.594 68.4068C408.181 69.3528 409.871 72.1138 411.492 73.302C411.672 73.4103 411.88 73.3932 412.102 73.4787C412.9 73.8206 412.925 75.0031 412.777 75.6955H412.783ZM413.302 52.4221L413.264 52.5075C412.561 52.9264 410.546 51.3678 409.874 50.7438C409.728 50.6042 409.728 50.5728 409.54 50.5443C409.01 50.419 407.623 50.134 407.586 50.097C407.554 50.0771 407.583 48.3105 407.574 47.7833C407.574 47.6893 407.882 47.7605 408.141 47.7264C408.557 47.7036 408.925 47.6323 409.287 47.7491C409.6 47.9571 411.184 49.5841 411.977 50.4275C412.373 50.9831 413.481 51.5502 413.302 52.4221ZM417.47 48.2677C417.373 48.5071 417.228 48.8917 417.157 49.0342C417.08 49.1938 416.997 49.1453 416.735 49.0912C416.339 49.0057 415.564 48.829 415.162 48.7407C414.655 48.6039 413.612 47.1337 411.994 45.4868C411.045 44.4582 410.21 43.5549 409.429 42.7087C409.278 42.5121 409.21 42.5662 409.244 42.3525C409.352 41.9564 409.33 40.9962 409.657 41.0731C409.956 41.0731 410.392 41.0504 410.757 41.019C412.261 40.8053 412.806 42.3952 414.262 43.7943C414.817 44.3898 415.29 45.0024 416.08 44.8856L416.134 44.9397C415.911 46.1792 418.074 46.977 417.467 48.2649L417.47 48.2677ZM422.303 31.0919C421.778 31.5535 419.311 29.4592 418.752 28.7783C418.618 28.6329 418.524 28.4933 418.516 28.2568C418.507 28.0089 418.524 27.8152 418.373 27.818C417.621 27.9747 416.031 26.7524 415.367 25.909C414.9 25.4046 415.148 23.8831 415.755 23.5469C416.826 23.0881 418.014 24.4387 418.533 25.1539C419.567 26.7381 420.26 28.3252 421.659 29.6957C422.046 30.0149 422.442 30.5021 422.342 30.9979L422.305 31.0919H422.303ZM424.354 26.1312C424.004 26.7837 423.066 26.0001 422.71 25.5984C421.322 24.5498 419.715 22.7092 418.59 21.8458C418.351 21.6663 417.994 21.6549 417.781 21.5352C417.459 21.3101 417.422 20.8144 417.208 20.481C416.669 19.4096 417.55 18.4323 418.234 17.6316C418.67 17.1387 418.994 16.6543 418.644 16.0674C418.06 14.7766 419.519 11.7478 420.45 11.1608C420.641 11.0468 420.858 11.1466 421.226 11.4087C421.929 11.9985 422.57 11.9814 422.046 12.9644C421.804 13.7565 421.308 14.2808 421.485 15.0644C421.522 15.5146 421.892 16.2811 421.736 16.6857L421.653 16.7284C415.373 16.6914 425.14 24.4843 424.36 26.1312H424.354Z" fill="var(--fill-0, white)"/>
<path id="Vector_4" d="M223.39 88.4919C225.678 91.4809 228.234 94.0367 230.619 96.7008C231.081 97.2536 231.052 97.8662 231.585 98.0571C232.066 98.2139 233.101 98.2281 233.676 97.9945C234.212 97.7836 234.377 97.114 234.768 96.8177C235.414 96.3276 236.389 96.2962 237.121 96.6097C238.315 97.0969 240.552 96.3076 241.874 96.8718C242.102 96.9943 242.304 97.134 242.501 97.2992C243.053 97.8092 243.484 97.775 244.441 97.8463C246.219 97.9631 249.145 98.0543 251.083 98.1113C257.232 98.3763 263.287 98.0714 269.45 98.1426C270.102 98.154 270.817 97.9773 271.225 97.4702C272.342 96.111 271.393 93.88 271.971 92.2445C272.422 91.1503 272.174 89.8083 271.464 88.868C271.091 88.301 270.849 87.9306 270.778 87.4718C270.524 85.2778 271.176 82.7021 270.347 80.4967C270.116 77.5191 270.624 74.2481 270.262 71.3246L270.199 71.2477C269.632 70.9314 268.635 71.3474 267.965 71.3503C265.851 71.8404 264.783 69.6806 263.267 68.7147C262.013 67.9425 260.685 66.8996 259.266 66.5748C258.158 66.0733 258.107 64.5746 257.918 63.4605C257.844 56.585 258.069 49.6725 257.901 42.7999C257.702 36.5741 256.502 28.2313 257.748 22.1137C257.904 21.1478 258.317 20.4611 258.366 19.441C258.104 17.9309 257.802 16.321 256.636 15.244C255.311 14.0529 253.308 14.8622 252.14 13.58C249.96 11.8191 247.239 8.47964 245.347 6.35973C244.641 5.71293 243.797 4.35665 242.655 4.37659C241.595 4.45638 240.312 3.79533 239.198 3.98623C233.349 5.09178 227.459 4.25977 221.567 4.38514C220.609 4.51621 219.279 4.52476 219.242 5.55052C219.253 6.55064 219.136 7.98386 219.296 8.76742C219.501 9.286 219.98 9.62508 220.586 10.2576C221.399 11.0184 221.644 11.4686 221.601 12.426C222.216 29.7414 220.074 49.4959 221.065 66.1502C221.43 68.3927 220.661 70.618 220.652 72.6724C220.829 74.0087 220.467 75.2054 220.076 76.4591C219.957 77.6929 219.23 78.6075 218.264 79.3854C215.854 81.3002 217.028 82.7704 219.011 84.2663C220.655 85.5286 222.145 86.902 223.384 88.4891L223.39 88.4919ZM233.155 93.3044L233.106 93.4013C232.933 93.5181 232.112 93.8828 231.958 93.8202C231.596 93.5466 231.129 93.011 230.702 92.6776C229.972 92.0393 229.679 91.8171 229.81 91.0506C229.545 89.5832 227.807 88.5175 227.451 87.0644C227.445 86.6541 228.117 85.9873 228.599 86.2666C228.926 86.4147 229.214 86.7282 229.451 87.0074C230.476 88.338 231.351 89.9052 232.394 91.1275C232.898 91.686 233.314 92.5693 233.158 93.3016L233.155 93.3044ZM248.798 93.8857C248.516 93.9797 247.561 94.3245 247.279 94.2647C246.612 94.0082 245.928 93.7831 245.45 93.199C243.395 90.7771 240.632 89.1273 238.509 86.6028C238.124 85.9987 238.472 85.842 239.047 85.4317C239.497 85.1268 239.788 84.8505 240.053 84.7963C240.392 84.6909 240.928 84.8191 241.25 85.0357C241.643 85.3035 242.156 85.1325 242.472 85.3434C242.791 85.5599 243.142 86.0557 243.521 86.3207C245.424 87.6855 246.598 89.4493 248.191 91.0706C248.59 91.5663 248.712 93.2759 248.829 93.8401L248.792 93.8886L248.798 93.8857ZM259.377 71.0141C260.551 70.7234 261.492 71.3902 262.389 71.9486C262.822 72.2592 263.232 72.2877 263.52 72.6439C264.546 73.7865 266.036 75.4448 267.125 76.6529C267.361 76.9606 267.447 76.8638 267.341 77.1857C267.222 77.5903 266.957 78.5506 266.931 78.5962L266.897 78.619C266.444 78.5363 265.626 78.3397 265.144 78.2371C262.99 77.4336 262.284 73.9888 259.941 73.4275C259.531 73.2593 259.654 72.6097 259.474 72.0569C259.4 71.5098 259.186 71.091 259.38 71.0084L259.377 71.0141ZM256.813 84.9074C257.186 85.2038 258.109 86.1184 258.83 86.8507C259.275 87.3208 259.617 87.64 259.719 87.8565C259.845 88.0474 259.731 88.7142 259.793 88.9535L259.833 89.0247C261.044 89.4578 262.885 91.2187 263.543 92.1533C263.68 92.4439 263.597 93.1791 263.56 93.7518C263.07 95.2534 261.671 93.6293 261.087 93.0309C258.631 91.0706 255.79 89.0561 253.337 87.1727C250.918 85.4232 252.425 83.7307 255.442 84.2749C256.024 84.5142 256.106 84.688 256.813 84.9046V84.9074ZM246.541 30.1916C246.732 29.9893 247.119 30.1261 247.325 30.2799C248.43 31.3456 249.422 32.2146 250.727 33.4883C251.898 34.8503 254.006 36.1353 253.559 38.1128L253.465 38.2068C252.952 38.4034 252.345 38.1612 251.975 37.7623C250.958 36.9816 250.416 35.8589 249.65 34.9756C248.524 33.5823 245.812 32.2688 246.547 30.1916H246.541ZM246.065 36.8505L246.142 36.7907C247.447 37.7366 251.921 42.1446 253.719 43.7943C255.385 45.806 254.331 48.8434 251.995 46.4129C249.584 44.3842 247.917 42.9167 246.33 40.17C245.624 39.1727 244.931 37.7737 246.065 36.8533V36.8505ZM246.792 48.2108C246.333 47.7236 245.381 46.5867 246.028 45.8402C246.456 46.0168 247.476 46.5411 247.883 46.9998C249.405 48.6639 251.077 50.137 252.741 51.4192C254.098 52.2398 254.297 53.8354 254.041 55.2544L253.952 55.3484C253.627 55.3683 253.069 55.5194 252.81 55.3114C252.673 55.1091 252.738 54.8925 252.622 54.6532C251.738 53.1088 247.387 50.4162 246.946 49.4189C246.823 49.0884 247.028 48.4445 246.792 48.2108ZM246.208 53.371C246.931 53.6331 247.761 54.2771 248.234 54.8754C248.524 55.1233 248.199 55.7957 248.413 56.1491C248.823 56.7189 250.53 56.9668 250.268 58.1066L250.248 58.1749C249.442 57.9271 248.125 57.5224 247.288 57.266C246.983 57.1463 246.723 56.8272 246.464 56.5508C245.832 56.0978 244.601 52.7584 246.205 53.371H246.208ZM224.638 74.8008C225.162 70.2561 224.476 65.4151 225.023 60.8163C225.741 54.8555 225.587 47.091 225.502 40.7541C225.539 32.1234 225.43 18.4637 225.536 9.9328C225.915 9.51395 226.45 8.71614 227.077 8.71044C228.952 8.80447 238.116 8.51953 239.107 8.82441L239.176 8.88995C239.455 9.21477 240.161 10.1066 240.181 10.7905C240.19 11.5341 239.762 12.2636 239.768 13.1269C239.743 13.8734 239.814 14.6684 239.782 15.4149C239.073 23.6866 240.971 32.2146 239.828 40.5945C239.72 41.5092 239.72 42.4808 239.828 43.3954C240.637 49.2793 239.879 55.5621 240.241 61.3548C240.506 63.8052 239.056 67.4353 242.629 67.8456C243.071 67.8969 243.564 67.7544 244.219 67.6575C245.339 67.5692 246.436 67.8855 247.513 68.0536C249.51 68.5209 253.428 67.2529 254.129 69.9627C254.214 71.5127 254.211 76.0374 254.12 77.4108C254.098 78.0006 253.596 78.411 253.203 78.8241C251.989 79.8499 250.539 80.1405 249.011 80.055C247.154 80.0208 244.888 80.1405 242.999 79.9895C238.098 80.5081 232.309 80.9924 227.28 80.206C226.513 80.0721 225.653 79.8527 225.194 79.2145C224.479 77.9408 224.476 76.2397 224.638 74.7923V74.8008Z" fill="var(--fill-0, white)"/>
<path id="Vector_5" d="M605.691 91.6148C605.461 90.4095 605.748 89.4949 605.566 88.2326C603.039 72.9573 604.84 57.3002 604.444 41.8539C604.438 37.3377 603.979 32.8757 604.258 28.3766C604.258 27.9178 604.258 27.499 604.198 27.1456C604.093 26.3051 603.21 25.8948 603.15 24.8804C603.084 24.1709 603.124 23.4187 603.566 22.8631C603.965 22.3901 604.267 21.6578 603.936 20.9654C603.617 20.3186 603.227 19.9169 603.121 19.2102C602.831 17.8853 601.42 16.5404 600.07 16.3153C598.466 16.133 597.802 13.9504 596.83 13.0956L596.73 13.0443C595.482 12.671 593.986 10.9301 593.22 9.57378C592.887 8.79591 592.989 7.85563 592.274 7.25442C591.747 6.84412 591.137 6.41672 590.604 6.10899C590.188 5.8497 589.687 5.85825 589.217 5.71863C588.684 5.56476 588.282 5.12312 587.746 4.9721C586.441 4.65867 585.504 6.02351 584.23 6.29704C578.318 7.1376 572.408 5.92663 566.45 6.78998C565.339 6.84412 563.715 6.71875 563.587 8.09498C563.578 8.77597 564.182 9.30025 564.718 9.66211C568.186 11.5598 566.713 16.0304 567.237 19.196C568.348 34.8132 568.134 51.4363 567.547 66.968C567.339 72.2307 568.525 77.8696 565.898 82.6251C565.584 83.1038 565.063 83.4001 564.829 83.8161C564.613 84.2464 564.712 84.8162 565.009 85.3605C565.339 85.9617 565.903 86.523 566.527 86.8165C567.319 87.2182 568.123 87.1442 568.798 87.6143C570.462 88.8139 573.577 93.3643 576.839 94.7006C577.52 94.9969 578.09 95.4984 578.443 96.131C578.671 96.4586 578.905 96.6695 579.264 96.7521C580.087 96.8547 581.139 96.9459 581.86 96.8006C582.66 96.5783 583.119 95.8489 583.928 95.7264C586.755 95.1764 592.18 95.1594 594.989 95.7235C596.009 95.903 596.454 96.9231 597.531 96.9373C598.973 96.9972 600.942 97.5385 602.281 97.057C603.959 96.2336 607.321 98.0315 606.831 94.7832C606.586 93.8202 605.888 92.6776 605.689 91.6233L605.691 91.6148ZM579.119 91.5293C578.438 91.686 578.081 91.099 577.66 90.6859C577.48 90.5976 577.264 90.5406 577.064 90.5548C576.842 90.4494 576.375 89.9451 575.867 89.4607C575.52 89.0561 574.978 88.6913 574.867 88.281C574.836 88.0047 574.799 87.6172 574.924 87.3892C575.055 87.2012 575.147 87.2182 575.298 87.2524C575.648 87.3123 577.329 87.6257 577.751 87.6998L577.765 87.7083C578.079 88.5489 578.771 90.3896 579.119 91.3241C579.141 91.4524 579.247 91.5008 579.121 91.5321L579.119 91.5293ZM580.327 82.5995C578.386 83.0326 576.178 83.3175 574.235 82.8616C571.252 81.0124 572.485 75.365 572.383 71.9914C572.394 71.6865 572.411 71.3759 572.42 71.0767C573.525 67.1162 572.48 62.5914 572.42 58.6451C573.195 46.467 572.537 33.4199 571.568 21.2675C571.4 19.4866 571.659 17.475 571.613 15.7113C571.599 15.0588 571.482 14.6485 571.16 14.2381C570.656 13.5857 570.328 12.6853 570.873 11.859C571.665 10.7306 574.024 11.1951 575.403 11.0868C576.252 11.0298 576.734 10.2291 577.537 10.061C579.458 9.83877 582.25 10.4742 584.113 9.79603L584.247 9.80173C584.598 9.83022 585.094 10.0895 585.552 10.3773C586.795 11.121 586.307 12.4944 586.353 13.6939C584.686 26.8066 587.199 40.5689 586.743 53.8297C586.769 54.3511 587 54.7529 587.333 55.1632C588.254 56.263 588.12 57.6535 588.248 59.0867C588.339 61.2636 588.214 63.7226 588.222 65.8739C588.345 69.6863 588.564 73.738 588.815 77.4707C588.843 78.0947 588.86 78.8725 588.838 79.4766C588.898 80.5565 587.857 81.5395 587.003 81.9726C586.202 82.2234 585.273 82.0068 584.527 82.3487C583.367 82.7847 581.606 82.3003 580.324 82.6023L580.327 82.5995ZM589.188 90.5206L589.123 90.5805C587.763 90.8625 586.319 89.3524 586.327 88.0246C586.373 87.0359 588.026 86.9077 588.536 87.677C589.165 88.395 589.413 89.6402 589.188 90.5178V90.5206ZM590.08 22.9201C591.14 20.6264 590.137 18.3156 590.083 16.0304C590.476 11.3375 593.978 13.882 595.303 16.4863C596.394 17.9765 598.161 18.78 599.158 20.2104C599.511 21.2646 599.919 23.0113 598.497 22.601C597.386 22.2448 596.682 20.9141 595.619 20.5038C595.012 20.2218 594.479 19.6006 593.892 19.3841C593.394 19.2302 592.211 19.3356 591.792 19.783L591.761 19.8827C591.704 20.6834 592.616 21.1364 593.149 21.5951C594.63 23.2819 599.038 26.9177 599.919 28.1999C600.286 28.7441 600.189 30.0206 599.506 30.2742C597.494 30.7529 596.36 28.0546 594.927 27.3166C594.177 27.0402 593.2 25.3563 592.402 26.3564C592.277 26.6812 592.342 26.6841 592.371 26.855C593.174 28.0204 593.696 28.7042 594.422 30.0121C596.098 32.2175 599.366 33.8758 600.263 36.5086C600.232 36.6368 600.121 36.6909 599.964 36.6624C598.571 35.8504 597.189 34.779 595.827 33.6963C594.579 32.4825 593.397 33.6735 594.16 34.9756C594.417 35.3688 594.975 35.9416 595.514 36.5485C596.611 37.6027 596.802 38.3435 597.434 39.3665C598.229 40.1329 599.206 40.7199 599.668 41.8055C600.027 42.6631 600.745 43.2786 600.99 44.0793C601.087 44.5523 601.096 45.4099 601.004 45.9085C600.024 47.8603 596.699 42.7087 595.648 42.0705C594.955 41.5092 594.046 41.1786 593.234 40.8652C592.656 40.6686 591.579 41.1986 591.217 40.851C590.926 40.6344 590.798 40.15 590.619 39.8736C589.624 36.6282 589.906 26.9348 590.08 22.9201ZM591.268 53.8098C591.077 51.3479 588.248 37.4318 593.576 43.2359C595.639 46.3074 598.685 48.5727 600.765 51.5987C600.885 51.9548 601.036 51.9691 600.799 52.4535C599.662 53.6844 598.471 52.368 597.483 51.4505C597.044 51.1171 596.545 50.9462 596.098 50.6441C595.366 50.2025 593.881 48.6667 593.043 49.2565L592.983 49.3562C592.681 50.1427 593.582 50.9889 594.112 51.5303C595.511 52.9436 599.11 56.1719 599.993 57.2033C600.238 57.4712 600.255 57.8302 600.261 58.1892C600.278 58.4428 600.224 59.7677 599.657 59.5512C598.887 59.2862 598.013 57.9897 597.104 57.6735C596.135 57.3657 594.893 55.2943 593.684 56.0522C593.556 56.1662 593.511 56.3343 593.565 56.5223C593.65 56.7303 593.801 56.944 593.952 57.1093C594.716 57.7276 595.118 58.7733 595.556 59.5141C597.243 61.2893 599.432 63.8964 600.586 65.9308C600.87 66.5491 600.754 67.3584 600.737 68.0564C600.711 68.4297 600.631 68.7089 600.221 68.7916C599.261 68.9055 598.058 68.9397 597.337 68.1818C595.599 66.6574 592.647 66.6175 591.904 64.2554C590.547 61.0642 591.895 57.0722 591.265 53.8098H591.268ZM600.608 76.2255L600.514 76.3252C599.825 76.5817 599.446 75.6556 598.913 75.422C598.691 75.3365 598.386 75.4106 598.295 75.3109C598.181 75.1883 598.292 74.7666 598.107 74.5016C597.511 73.5671 596.22 73.02 595.42 72.3618C594.385 71.5383 593.419 70.675 592.582 69.6578C591.943 68.8685 591.841 68.9283 592.707 68.3556C593.08 68.1049 593.428 67.8057 593.59 67.7573C594.186 67.9311 594.559 68.7745 595.103 69.1164C597.277 71.0255 601.557 72.6524 600.611 76.2227L600.608 76.2255ZM593.972 92.4724C593.758 92.065 593.605 90.6716 593.456 90.1417C595.129 89.7 596.217 91.649 596.773 92.8913L596.784 92.9369C596.719 92.9255 594.67 92.5864 593.972 92.4696V92.4724ZM601.531 90.4722L601.455 90.5577C600.799 90.6944 600.181 90.3981 599.585 90.1702C597.793 89.5604 595.915 88.4264 594.716 86.8022C594.311 86.3264 593.844 86.1383 593.921 85.5827C593.949 85.1895 593.85 84.386 593.986 84.0897C594.211 83.7221 594.787 83.2149 595.206 83.46C596.066 84.1239 599.195 87.3892 600.386 88.6743C600.779 89.1786 601.731 89.7257 601.531 90.4722ZM601.024 84.708C600.691 84.8106 600.329 84.7308 600.033 84.5598C597.739 83.0354 596.272 79.0691 593.08 79.1119L593.006 79.0606C592.938 78.8697 592.949 78.6275 592.949 78.4252C592.955 78.0405 592.966 77.7755 592.71 77.7356C592.411 77.7157 591.955 77.6416 591.935 77.257C591.807 76.2483 592.539 75.6984 592.821 74.855C592.935 74.5159 592.924 74.1113 593.172 73.9517C593.607 73.7095 594.297 73.8435 594.568 74.325C594.813 74.741 594.833 75.063 595.078 75.3565C596.172 76.7726 597.238 78.0462 598.531 79.4395C599.434 80.5194 602.922 83.4828 601.021 84.708H601.024Z" fill="var(--fill-0, white)"/>
<g id="Group">
<path id="Vector_6" d="M302.109 4.13434C300.519 3.96053 296.997 3.47329 297.119 5.98356C297.145 6.78707 297.652 7.46236 297.983 8.1747C298.447 9.31728 298.51 10.551 298.615 11.9073C298.894 19.9111 296.709 28.5047 294.94 36.349C293.07 44.4724 290.634 52.6985 288.91 60.859C287.503 67.931 286.893 75.1512 285.371 82.209C285.163 83.2092 284.232 83.8332 284.539 84.6823C284.787 85.369 285.238 85.9844 285.654 86.6198C286.748 87.8621 287.574 89.1728 288.312 90.6231C288.833 91.3383 290.002 91.8626 290.988 92.9169C292.275 94.6037 293.042 96.1794 294.774 97.5556C295.244 97.983 295.638 98.0827 296.051 98.1995C296.755 98.305 297.592 99.3279 298.436 99.3649C299.142 99.3478 299.61 98.7381 300.254 98.5044C301.59 98.1568 303.545 97.1025 304.841 97.4701C306.998 98.0599 309.494 98.2081 311.668 98.1084C313.591 97.889 316.025 97.2934 317.797 97.7009C318.865 97.8462 320.213 98.8207 321.228 98.1169C322.601 97.0114 321.276 95.3701 321.005 94.0423C320.78 92.3584 321.051 89.6259 323.043 89.2042C324.248 89.3295 324.966 90.663 325.946 91.2386C327.274 92.2216 329.442 93.1505 329.895 94.9855C330.314 96.242 331.291 97.6525 332.605 98.0143C333.514 98.2394 334.297 97.6553 335.158 97.4673C338.475 96.8062 342.92 97.282 346.53 97.208C349.772 97.1538 352.958 96.6181 356.203 97.0085C357.75 97.2934 360.557 97.5841 360.232 95.2391C360.112 94.4498 359.471 93.8913 359.238 93.1562C359.075 86.4774 356.645 80.0464 354.528 73.7294C352.109 65.8197 350.559 57.5024 348.08 49.5984C346.798 42.6802 345.592 35.7306 343.663 28.9321C342.937 25.55 341.615 21.9313 342.082 18.4608C342.384 17.4721 342.709 16.2155 341.891 15.3208L341.797 15.2325C341.552 15.0046 341.236 14.8051 340.971 14.5886C340.301 14.05 339.842 13.0157 339.241 12.5399C338.195 11.7791 336.896 11.4087 335.899 10.514C332.799 8.33141 327.442 1.5158 323.427 3.03164C322.413 3.78957 321.51 5.02333 320.168 5.12021C317.999 5.3624 311.907 5.34246 308.041 5.21424C307.001 5.16295 306.152 5.17719 305.189 5.04043C304.505 4.9578 303.089 4.33094 302.109 4.14004V4.13434ZM312.848 94.2304C312.691 94.3757 311.999 94.729 311.602 94.9712C311.369 95.1023 311.298 95.1678 311.209 95.0966C311.03 94.9342 310.055 93.9398 309.739 93.6292C309.446 93.3927 310.087 92.7573 310.021 92.5151C309.927 92.2473 309.79 91.9452 309.614 91.723C308.893 91.0135 308.004 90.74 307.354 89.7911C306.898 89.2754 306.468 88.7454 305.821 88.5403C305.593 88.4719 305.391 88.489 305.34 88.3323C305.311 88.11 305.254 87.1811 305.391 87.0558C305.892 86.8449 306.286 86.8677 306.747 86.9275C307.887 87.1014 308.331 88.6599 309.534 88.4804L309.588 88.5346C309.611 88.7141 309.551 89.2099 309.748 89.3837C310.571 90.4237 311.87 91.6973 312.719 92.7089C312.865 92.8912 312.93 92.9539 312.95 93.1818C312.945 93.4953 312.982 94.0737 312.848 94.2333V94.2304ZM342.449 72.5726C342.253 71.9201 342.102 70.6806 341.948 69.9825C344.293 69.3728 345.994 72.0967 345.76 74.154L345.698 74.2167C344.455 74.3477 343.207 73.5072 342.449 72.5754V72.5726ZM350.727 85.5314C348.992 84.007 347.02 82.645 345.407 80.7844C345.045 80.2686 344.968 78.7841 344.8 78.0832C344.797 77.9778 344.943 77.9977 345.256 77.9949C345.655 78.0034 346.097 77.9749 346.168 78.012L346.205 78.0661C346.205 78.2314 346.171 78.7471 346.37 78.9637C347.595 80.7616 349.755 82.172 350.938 84.0212C351.24 84.5683 352.074 86.0984 350.724 85.5314H350.727ZM348.379 67.0876C349.578 68.0592 350.849 69.6549 350.479 71.2562L350.399 71.3388C347.399 71.9828 345.652 67.2586 343.318 65.9222C342.794 65.5062 342.127 65.3552 341.572 65.0161C340.31 63.9904 339.261 61.8619 340.612 60.5626C341.304 60.0725 341.848 61.0755 342.321 61.4573C344.387 63.3692 346.302 65.3695 348.379 67.0876ZM346.014 56.6533C346.684 57.7275 347.63 60.027 347.644 61.3861L347.607 61.4317C347.527 61.4773 347.245 61.3804 346.835 61.2949C346.003 61.0784 345.601 61.1524 345.131 60.5655C343.467 58.6935 341.62 57.246 339.822 55.7159C338.663 54.5762 338.506 53.1202 338.58 51.4049C338.594 51.0116 338.74 50.8521 339.076 51.0971C341.153 52.6415 342.358 55.4395 344.985 55.9752C345.458 56.1063 345.738 56.1946 346.014 56.6533ZM344.789 50.8207L344.7 50.9062C343.965 51.1028 343.128 50.872 342.526 50.3421C340.147 48.1538 336.306 46.749 336.204 43.1931C336.207 42.6973 336.397 42.8369 336.813 42.9224C337.38 43.0905 338.033 43.099 338.552 43.3954C339.352 43.9367 339.905 45.2132 340.446 45.8429C341.418 46.6294 342.561 47.6067 343.524 48.5327C344.245 49.0883 345.125 49.832 344.792 50.8207H344.789ZM343.028 41.0219C343.318 41.606 343.452 41.8938 343.088 42.5349C342.333 45.0736 339.278 40.4833 338.335 39.8308C337.879 39.4348 337.17 39.1812 336.546 39.1498C335.933 39.1242 335.363 39.0729 335.024 38.5031C334.232 37.52 334.26 37.1781 334.258 36.0726C334.158 35.7449 333.901 35.5112 333.793 35.1836C333.608 34.571 333.918 33.5794 334.466 33.3372L334.594 33.3201C335.973 33.87 336.888 35.2263 337.965 36.2122C338.603 36.7479 339.033 36.5911 339.566 37.2379C340.609 38.3463 342.407 39.5659 343.031 41.019L343.028 41.0219ZM340.529 33.7418L340.458 33.7988C338.839 32.9981 337.982 30.9893 336.46 29.9921C335.129 28.9492 333.021 29.6758 332.141 28.1258C331.551 27.1655 331.249 25.6212 332.294 24.8604C332.514 24.7094 332.747 24.7351 332.93 24.906C333.559 25.5215 334.132 26.2139 334.768 26.8179C336.614 28.4506 338.346 30.1516 340.073 32.2317C340.486 32.6249 340.691 33.2232 340.526 33.739L340.529 33.7418ZM331.049 10.7192C332.548 11.9615 333.77 12.443 334.916 14.0529C335.631 14.9105 337.608 15.4263 337.13 16.8538L337.047 16.9336C336.953 16.9991 336.822 17.0105 336.671 16.9792C335.101 16.5518 333.542 14.466 331.998 15.5488C331.425 15.9163 331.596 16.5859 332.024 16.9849C333.557 18.4751 334.58 20.1904 336.224 21.5865C337.46 22.7605 339.412 23.6722 339.549 24.8148C339.523 25.265 338.928 25.8149 338.497 25.7124C337.839 25.5927 337.153 24.2364 336.329 23.9201C334.796 23.1679 333.3 21.7489 332.035 20.4696C331.685 20.102 331.548 19.7088 331.328 19.3299C331.098 18.8911 330.642 18.5719 330.479 18.1075C330.16 17.076 330.194 15.7824 329.784 14.7567C329.052 13.238 328.026 8.59925 331.046 10.7192H331.049ZM306.308 8.09777C308.101 8.10347 320.002 8.08352 321.524 8.10916C322.558 8.59925 323.575 9.81022 323.772 11.0212C325 14.6683 326.04 18.3839 326.903 22.1906C331.511 37.5913 334.269 53.767 338.258 69.3272C338.95 71.8745 339.725 74.456 340.435 77.0261C341.07 78.4166 341.56 80.1974 340.572 81.491C339.788 82.2632 338.552 82.1578 337.534 82.3145C335.243 82.6507 332.602 83.0866 330.157 82.8302C329.146 82.5253 328.134 82.3487 327.154 82.0324C326.012 81.3856 325.655 80.1689 325.228 78.9323C324.487 77.5019 325.254 75.6613 324.652 74.2993C324.214 73.6667 323.034 72.4615 322.373 72.0483C322.176 71.9685 322.211 71.9315 321.766 71.8859C319.005 72.6837 315.079 72.5213 310.99 72.4672C310.226 72.4216 309.745 72.4558 309.161 72.3218C308.577 72.0569 307.972 71.9315 307.152 72.2136C305.177 72.7521 304.237 74.9318 304.317 77.0233C304.485 78.5277 304.234 79.7216 303.402 80.9838C303.057 81.4939 302.687 81.7702 302.456 81.8101C301.034 81.7446 291.036 82.0096 289.694 81.7247L289.623 81.6705C288.717 80.8243 289.52 79.6589 289.523 78.6303C289.486 77.8154 290.093 77.3053 290.429 76.6471C290.822 75.5273 290.708 74.1027 290.922 72.906C292.794 62.0129 294.669 51.2595 298.102 40.8424C300.727 31.5706 302.086 21.9769 303.379 12.4316C303.716 11.5626 303.77 10.6479 304.345 9.81022C304.613 9.44835 305.063 9.04375 305.388 8.71322C305.898 8.26873 305.915 8.08637 306.308 8.10347V8.09777Z" fill="var(--fill-0, white)"/>
<path id="Vector_7" d="M308.243 59.8388L308.32 59.8987C311.286 60.1209 320.74 59.9357 321.669 59.9728C322.185 59.8161 322.829 59.3915 323.247 58.8558C323.757 57.9098 322.98 57.0066 322.797 56.072C322.632 55.6617 322.364 55.2457 322.321 54.8183C322.25 54.3425 322.395 53.8296 322.216 53.3595C319.988 47.5611 318.62 40.6571 317.338 34.5168C317.116 33.6734 316.247 33.2574 316.201 32.4054C316.173 32.1775 316.161 31.9182 316.153 31.639C316.124 30.6417 316.178 29.1344 316.269 28.3423C316.366 27.3222 316.688 24.8775 315.343 24.3617C314.762 24.1395 314.047 24.3817 313.548 24.8176C313.058 25.2906 312.374 25.5243 312.095 25.8377C311.739 26.2138 312.104 27.5872 311.936 28.3708C311.773 29.16 310.973 29.5703 310.864 30.3482C310.522 31.9638 310.431 34.2347 310.212 36.0925C309.192 42.2499 308.354 48.5469 307.357 54.7585C307.117 56.3798 306.693 58.7703 308.24 59.8417L308.243 59.8388ZM313.463 44.7772C315.651 44.3669 316.537 47.2163 316.269 48.9515L316.195 49.0057C313.967 49.1567 312.876 46.6464 313.463 44.7772Z" fill="var(--fill-0, white)"/>
</g>
<g id="Group_2">
<path id="Vector_8" d="M621.671 8.04069C622.372 8.67324 622.893 9.10349 622.89 9.97539C624.392 15.8935 622.791 22.7319 623.474 28.6272C623.811 32.0976 624.506 35.8474 624.833 39.1811C625.688 47.7263 625.175 56.7245 624.791 65.207C624.668 69.0821 624.549 72.6238 623.964 76.3621C623.674 77.5987 622.585 78.4706 621.836 79.3397C621.266 80.3056 620.366 81.6476 620.705 82.7218C620.893 83.2832 621.286 83.7447 621.676 84.2149C625.096 87.6028 628.899 91.2072 632.589 94.2987C634.054 95.3871 635.47 97.0341 637.416 97.017C642.813 95.1649 649.315 96.7491 654.991 96.2106C655.957 96.1451 657.242 95.4527 658.245 95.7205C659.154 95.9314 660.601 97.0711 661.636 97.4501C661.858 97.5697 662.459 97.5526 662.755 97.356C663.414 96.9799 663.3 95.8345 664.049 95.4897C665.021 94.9882 666.653 95.3814 667.705 95.1193C668.739 94.9284 669.799 94.236 670.768 93.857C672.218 93.3413 675.452 93.5579 677.321 93.3043C678.276 93.1732 679.319 92.6375 680.242 92.4609C681.085 92.3042 681.783 92.4181 682.444 92.0278C689.317 87.996 695.332 81.1348 699.572 74.3077C700.23 73.4131 700.164 72.5611 700.216 71.541C700.267 70.8315 700.763 70.2104 701.375 69.5095C701.991 68.8085 702.484 68.1902 702.532 67.4693C702.601 66.8852 702.487 66.2783 702.783 65.7398C703.304 64.8109 704.404 64.0216 704.564 62.9218C704.803 61.6025 704.501 60.2035 704.832 58.8843C705.057 57.8129 705.758 57.1804 705.872 56.1005C705.94 54.9522 705.182 53.9692 705.134 52.8123C704.9 49.3931 704.304 45.6462 703.145 42.5034C700.369 36.4856 696.571 31.2371 692.522 26.0741C688.582 21.4867 683.764 17.8567 678.988 14.5799C676.099 12.48 673.363 9.88421 670.004 8.50228C667.491 7.48791 664.827 7.13745 662.225 6.55333C660.316 6.13448 656.202 5.14291 653.555 4.82093C650.837 4.57874 648.403 5.56176 645.639 5.36516C641.895 5.3965 638.488 4.94915 635.276 4.70981C630.84 4.5303 625.879 4.79814 621.414 4.91496L621.289 4.9805C620.106 5.78116 620.628 7.24287 621.674 8.03784L621.671 8.04069ZM642.311 92.1845C642.118 92.1019 641.79 91.8255 641.562 91.6146C639.864 89.5745 637.029 88.5858 635.399 86.3804C635.302 86.1895 635.251 85.8789 635.311 85.7507L635.387 85.6737C635.977 85.6282 636.598 85.5683 637.185 85.6823C639.029 86.3319 640.066 88.4319 641.323 89.8794C641.801 90.492 642.311 91.0077 642.876 91.5149C642.913 91.8169 642.559 92.307 642.317 92.1873L642.311 92.1845ZM655.076 92.2899C654.532 92.4694 653.68 92.401 653.159 92.1446C652.783 91.9651 652.341 91.5719 652.102 91.1445C652.011 90.9194 652.025 90.7085 651.882 90.5034C651.176 89.6315 650.255 88.9847 649.383 88.3664C648.623 87.7851 644.733 85.3033 647.161 84.799C647.902 84.8731 648.765 85.5227 649.514 85.7763C651.606 87.3378 652.711 89.962 654.712 91.3097C654.866 91.4152 655.168 91.4009 655.302 91.4066L655.376 91.438C655.401 91.5576 655.27 92.2187 655.076 92.2956V92.2899ZM664.764 90.7199C664.576 90.8994 663.778 91.1559 663.533 91.0732C662.325 90.2555 661.459 88.7795 660.18 88.0444C659.102 87.3435 657.852 86.5969 656.877 85.802C656.666 85.6681 656.467 85.5968 656.236 85.6453C655.826 85.725 655.376 86.2208 655.034 86.5115C654.524 86.6226 652.845 86.218 652.367 86.1097L652.307 86.047C652.224 85.839 651.783 85.0811 651.991 84.8133C652.122 84.6081 652.378 84.3659 652.674 84.3032C653.013 84.2405 653.538 84.2605 653.891 84.061C654.387 83.8046 654.552 83.6707 655.187 83.6621C655.897 83.6251 656.948 83.6108 657.629 83.6878C658 83.722 658.231 84.081 658.59 84.1693C659.037 84.2377 659.41 84.1351 659.593 84.3374C660.752 85.3233 662.462 87.0414 663.619 88.2752C663.889 88.5801 664.001 88.6713 664.069 88.9904C664.12 89.2126 664.152 89.5261 664.234 89.7825C664.288 90.1558 664.887 90.5347 664.758 90.7171L664.764 90.7199ZM675.247 89.4463C675.11 89.4035 674.78 89.2041 674.577 88.9847C672.759 86.8648 669.842 86.1239 667.81 84.1693C667.272 83.6251 666.958 82.6392 667.289 81.9525C667.613 81.7588 668.614 81.8214 669.047 81.7958C669.964 81.9012 670.503 82.9156 671.745 84.1665C672.757 85.3119 673.885 86.5029 674.344 86.8477C674.643 87.446 675.287 89.3693 675.301 89.4491H675.247V89.4463ZM682.33 87.5828C682.176 87.8506 681.968 88.2211 681.832 88.3835C681.581 88.6684 680.296 88.4803 680.011 88.5259C679.564 88.4433 677.586 86.1781 675.441 84.1294C674.27 82.9213 673.232 82.0038 672.457 81.1091C672.432 80.6076 673.161 79.7329 673.609 79.4878L673.714 79.4508C674.287 79.3568 674.574 79.4422 675.045 79.6559C675.56 80.1289 676.438 79.7015 676.86 80.2173C678.102 81.3627 679.811 83.0865 680.911 84.3203C681.034 84.5597 681.088 84.8474 681.219 85.0839C681.857 85.8305 682.94 86.5115 682.33 87.5828ZM692.029 78.3481L691.992 78.425C691.921 78.5276 691.784 78.4051 691.528 78.237C690.593 77.6415 689.177 76.5844 688.3 76.1114C688.029 76.0116 686.804 75.6412 686.003 75.3905C685.348 75.1226 685.214 75.3364 685.41 76.1228C685.835 77.8352 687.331 78.9607 688.553 80.1403C688.904 80.5051 689.38 80.8612 689.442 81.2174C689.491 81.5622 689.103 82.2261 688.832 82.2403C687.035 81.7303 685.644 80.5734 684.447 78.9379C683.681 77.9606 682.883 76.9149 682.185 76.1598C681.963 75.8863 681.971 75.6441 682.043 75.2737C682.251 74.4758 682.185 73.6467 682.789 73.1167C683.652 72.3274 685.02 70.2645 686.291 70.3158C687.203 70.578 689.2 73.0426 690.254 74.0712C690.428 74.2479 690.494 74.4331 690.571 74.6468C690.682 75.1568 691.2 75.7239 691.539 76.2225C691.955 76.7553 692.169 77.7754 692.024 78.351L692.029 78.3481ZM697.628 69.2701C695.574 70.1363 694.679 66.8995 693.406 65.9335C693.089 65.697 692.719 65.6799 692.383 65.452C691.497 64.6827 690.371 63.9048 689.645 63.0215C689.456 62.1496 689.311 60.4941 690.229 59.987L690.365 59.9442C691.243 59.7533 691.824 60.5426 692.408 61.121C692.719 61.3888 693.101 61.3717 693.426 61.6225C695.095 63.0785 696.303 65.3523 698.016 66.757C698.281 67.022 698.381 67.4437 698.509 67.8141C698.771 68.4467 698.121 68.9795 697.631 69.2644L697.628 69.2701ZM700.03 63.1469L699.928 63.258C699.429 63.5258 698.822 63.1754 698.406 62.8449C696.309 61.2378 694.523 59.6137 692.497 58.2745C692.092 58.0124 691.773 57.7445 691.514 57.3086C690.012 54.767 691.821 52.3165 694.243 54.7299C695.349 55.7529 696.851 57.3171 697.905 58.4939C698.144 58.7304 698.116 59.041 698.341 59.4171C699.423 60.6252 700.649 61.5142 700.033 63.144L700.03 63.1469ZM701.774 56.6903C701.256 57.1462 701.008 57.2658 700.486 57.1205C699.597 56.6789 699.512 55.3368 698.543 55.126C696.064 54.0945 693.938 52.0288 692.217 49.9886C692.027 49.735 691.864 49.4872 691.764 49.2763C691.574 48.9572 691.802 47.8972 691.91 47.6436L691.987 47.5781C693.078 47.2333 693.736 47.8687 694.528 48.5155C696.796 50.1112 699.543 52.3393 701.421 54.3709C701.683 54.6872 701.683 55.428 701.848 55.9096C701.939 56.1689 701.868 56.4424 701.771 56.6903H701.774ZM701.469 48.279C701.657 48.7321 701.455 49.5014 701.053 49.8433C700.842 50.02 700.56 50.0513 700.304 49.9231C699.988 49.7835 699.757 49.4131 699.48 49.2364C696.859 47.94 694.588 45.6349 692.212 43.8939C691.36 43.2898 691.702 42.1644 691.274 41.321C691.166 41.1101 691.026 40.8052 691.106 40.5288C691.195 40.2752 691.428 40.1157 691.648 39.9818L691.793 39.9447C692.673 39.7709 693.252 40.5488 693.83 41.13C694.138 41.3893 694.414 41.3637 694.696 41.5033C695.828 42.4664 700.939 47.4556 701.469 48.2733V48.279ZM689.365 27.1284L689.425 27.1512C690.639 28.3935 692.206 29.3309 692.015 31.1859C691.867 31.8583 692.426 32.109 692.913 32.81C694.349 34.588 696.705 37.5028 698.25 39.409C698.366 39.5743 698.432 39.5487 698.361 39.7966C698.278 40.016 698.113 40.6969 697.953 40.8651C697.836 40.9876 697.683 40.8993 697.486 40.7539C696.338 39.9105 695.417 38.6996 694.306 37.9929C693.668 37.6054 692.653 37.2322 692.018 36.8817C691.431 36.5626 690.61 35.6565 690.197 35.1949C689.676 34.2717 690.234 32.79 690.061 31.8384C689.961 31.1317 689.417 30.3596 689.152 29.727C689.086 29.3765 689.251 27.3905 689.368 27.1313L689.365 27.1284ZM694.936 72.3189C695.395 73.0255 696.207 73.9259 695.261 74.6269C695.184 74.6383 695.027 74.6582 694.947 74.6696C693.768 74.0741 692.856 73.2164 691.918 72.0739C691.169 71.276 690.494 70.2617 689.516 69.8428C688.835 69.632 688.317 69.5436 687.915 68.988C687.761 68.8199 687.676 68.7259 687.673 68.5435C687.678 67.9965 687.661 66.1358 687.681 66.0874L687.721 66.0475C687.943 65.9706 688.69 65.5774 688.898 65.6458C691.519 67.1132 693.32 69.8656 694.933 72.3161L694.936 72.3189ZM628.256 10.8387C628.273 10.4113 628.341 10.0124 628.552 9.71895C629.355 8.72453 631.259 8.99521 632.464 9.09494C637.029 9.54514 641.753 9.32004 646.357 9.58218C653.598 9.58503 660.883 9.2773 667.745 11.7562C671.799 13.1495 674.982 16.0103 678.091 19.0049C679.099 19.9737 680.111 20.9482 681.136 21.8856C682.091 22.8971 682.726 24.2449 683.57 25.3476C685.368 28.5588 686.214 32.6191 686.596 36.4229C686.658 36.9928 686.647 37.5513 686.906 37.8277L686.989 37.9217C687.345 38.2152 687.738 38.6312 687.758 39.201C688.003 42.9793 688.445 46.9455 688.189 50.8748C688.083 51.6014 687.773 52.1627 687.713 52.8722C687.656 53.7754 687.869 54.8781 687.667 55.6047C687.354 56.4253 686.539 57.0892 686.542 58.1036C685.439 64.8052 680.307 71.1051 674.213 73.8462C673.589 74.114 673.027 74.4901 672.503 74.9203C670.443 76.63 667.303 76.8123 664.682 77.5047C663.844 77.744 663.374 78.5134 662.542 78.5874C661.997 78.6501 661.311 78.5988 660.635 78.5704C657.817 78.3453 655.41 79.5078 652.652 79.8526C648.945 80.4709 645.064 80.884 641.419 80.9552C638.026 81.0265 634.612 80.8527 631.216 80.8926C629.843 81.0949 628.589 79.9751 628.723 78.5846C628.281 65.982 629.843 53.4335 629.022 40.6599C627.444 30.804 628.492 20.7687 628.261 10.8387H628.256Z" fill="var(--fill-0, white)"/>
<path id="Vector_9" d="M642.961 43.4752C643.101 49.3163 642.864 55.2287 642.936 61.0841C642.987 62.1213 642.728 62.7396 642.186 63.7767C641.813 64.4976 641.619 64.982 641.901 65.4037C642.215 65.8624 642.776 66.475 643.286 66.6574C643.921 66.8084 644.702 67.0022 645.306 67.0449C645.816 67.0706 646.301 66.7372 646.913 66.6745C649.563 66.5748 652.056 65.9166 654.592 65.2413C656.698 64.6885 658.764 64.2754 660.832 63.5032C661.294 63.3265 661.718 63.1356 662.06 62.939C662.701 62.637 662.833 62.0728 663.126 61.7366L663.209 61.654C667.218 59.9415 669.084 55.3484 670.36 51.5303C670.557 50.9319 670.953 50.4447 671.241 50.0002C671.677 49.3876 671.463 48.4986 671.74 47.7862C672.463 45.7632 672.05 43.0478 671.722 41.0333C671.6 40.3495 671.15 39.8822 670.782 39.3123C670.121 38.1384 670.232 36.329 669.483 35.2178C667.711 32.5993 664.323 29.3767 661.955 27.7126C661.245 27.1428 660.476 27.0886 659.624 26.8407C657.786 26.0429 656.353 25.3277 654.461 24.6582C651.66 22.316 647.537 23.8917 644.645 21.9114C642.699 21.1706 640.853 22.3331 640.967 24.5385C641.169 26.3478 642.001 27.5103 642.089 29.3026C642.756 33.8359 642.836 38.8308 642.958 43.4723L642.961 43.4752ZM661.074 39.6599C661.109 39.0986 661.567 38.6313 662.123 38.5857C663.097 38.6484 664.565 38.2808 665.528 38.5971C665.839 38.7225 666.069 39.1185 666.428 39.3237C666.682 39.4747 666.953 39.4776 667.089 39.5716L667.161 39.64C667.269 39.7995 667.249 40.15 667.423 40.4691C667.719 41.0048 668.195 41.4778 668.181 41.965C668.141 42.5748 668.637 42.9623 668.705 43.5521C668.748 44.0507 668.742 44.7403 668.716 45.2845C668.733 45.8487 668.383 46.145 668.241 46.6294C668.178 46.9571 668.206 47.3189 668.175 47.6523C668.104 48.2364 667.409 48.8604 667.166 49.4958C666.457 51.2083 665.767 52.8011 664.511 54.3711C663.872 55.1489 662.889 56.4197 661.801 56.1348C661.636 56.0522 661.547 55.8698 661.522 55.639C661.468 54.2143 661.607 52.7241 661.545 51.2909C661.522 50.7296 661.143 50.3763 661.052 49.852C660.866 46.5183 661.154 42.9936 661.077 39.6599H661.074ZM651.458 61.5713C651.264 61.9873 650.649 62.731 650.233 62.8364C649.743 62.7709 648.777 61.8905 648.315 61.3405C648.042 61.0898 648.312 60.5256 648.181 60.2179C648.127 60.0783 647.948 59.9786 647.831 59.856C647.406 59.3659 647.968 58.212 648.398 58.078L648.509 58.0438C649.213 57.8301 649.629 58.3088 650.122 58.7875C651.048 59.6423 651.937 60.386 651.458 61.5685V61.5713ZM656.302 38.6142L656.365 38.5886C657.008 38.8222 657.544 39.3151 657.584 40.0047C657.667 40.4007 657.567 40.9678 657.826 41.3154C658.157 41.5148 658.345 41.9565 658.276 42.3525C658.148 43.4552 656.655 43.4182 656.094 42.6859C655.108 41.3809 656.661 39.979 656.299 38.6171L656.302 38.6142ZM656.704 59.5113L656.652 59.5939C656.06 59.9387 655.193 59.1095 654.869 58.7818C652.928 58.0439 651.284 56.6391 649.523 55.5051C648.896 54.9523 648.007 54.8583 647.665 54.5249C647.363 53.861 647.224 52.9008 647.124 52.1229C647.047 51.3849 647.153 49.342 648.221 49.6155C649.731 50.5757 651.184 51.8066 651.902 53.4878C653.455 55.4766 655.476 57.3543 656.701 59.5141L656.704 59.5113ZM647.386 44.7346C648.574 44.632 650.786 47.9116 650.595 48.0826L650.577 48.0911C650.002 47.9401 648.919 47.7691 648.406 47.5782C647.697 47.0739 647.13 46.2932 647.195 45.3842C647.204 45.142 647.204 44.7545 647.386 44.7346ZM647.289 39.5687C648.469 39.3835 649.384 40.6344 650.207 41.3097C650.338 41.4322 650.506 41.4379 650.669 41.4237C651.925 41.9479 652.35 43.6233 652.982 44.7118V44.7773C652.643 45.0651 651.495 44.3414 650.435 43.4068C649.178 42.2186 647.759 41.1786 647.289 39.5659V39.5687ZM647.204 29.6787C647.338 29.5704 647.475 29.5476 647.6 29.6302C648.552 30.6617 649.674 31.753 650.76 32.7189C652.125 33.947 653.336 35.1437 654.339 36.4801C654.427 36.6339 654.473 36.9331 654.396 37.0727L654.307 37.161C653.173 37.2038 652.586 38.9362 651.378 38.6427C650.424 38.2438 649.734 36.9958 648.751 36.7052C648.295 36.6995 647.97 36.8277 647.609 36.3832C647.338 36.1096 646.984 35.7734 646.859 35.5882C646.688 35.366 646.816 35.0098 646.771 34.6964C646.728 34.3801 646.332 34.2063 646.275 33.8644C646.036 32.4368 646.13 30.6161 647.207 29.6844L647.204 29.6787Z" fill="var(--fill-0, white)"/>
</g>
<g id="Group_3">
<path id="Vector_10" d="M175.464 98.0344C177.159 97.8549 179.025 98.2937 180.621 97.7324C181.607 97.1027 181.296 95.7151 180.601 94.903C179.678 93.9114 179.644 92.8942 179.444 91.6035C178.917 88.1558 178.86 84.1012 178.467 80.5537C178.421 79.4197 178.205 78.1318 178.772 77.1032C179.527 75.9236 180.746 75.1343 182.134 75.026C183.49 74.8579 184.918 74.8921 186.271 74.6898C188.95 74.194 191.568 72.6183 194.284 72.4274C200.566 69.2618 205.1 63.0018 207.251 56.6136C208.037 54.5934 208.029 52.5448 208.422 50.4505C208.624 49.4532 209.18 48.9574 209.351 47.832C209.391 47.2307 209.459 47.2022 209.377 46.4301C208.932 43.1078 208.901 39.5917 208.505 36.2266C207.707 34.3631 207.946 32.2461 207.573 30.3313C207.371 29.5962 206.781 29.1033 206.467 28.428C205.627 26.0117 204.801 23.3647 203.456 21.5069C202.188 19.6549 200.894 17.4694 198.997 16.2641C196.369 14.7511 193.808 13.6969 191.238 11.8534C190.092 11.4573 187.668 10.6794 185.701 9.77904C184.34 9.15219 183.12 8.61936 182.524 7.35996L182.433 7.27448C182.268 7.11206 181.98 7.04368 181.755 6.9696C178.678 6.29715 175.715 5.0121 172.632 4.35675C167.551 3.63872 162.354 3.69286 157.1 3.83532C154.721 3.90656 151.746 3.65867 149.079 3.61308C147.176 3.61308 145.457 3.47061 143.973 4.73002C143.303 5.30558 142.993 6.41682 143.124 7.31152C143.261 8.31448 144.557 8.98693 144.739 9.9671C145.768 14.1898 145.343 20.162 145.546 24.701C145.665 29.941 145.665 35.349 146.207 40.1387C146.512 45.8574 145.665 52.5676 146.036 58.1836C146.244 62.0046 146.589 65.9509 146.016 69.7377C145.549 72.473 146.281 75.7099 145.648 78.6447C145.153 80.4255 143.58 81.5567 144.201 83.5883C144.318 84.0527 144.58 84.4488 144.922 84.785C146.802 86.6171 148.925 88.0959 150.703 90.0819C151.119 90.6062 151.364 91.1333 151.786 91.6348C152.535 92.5124 153.883 93.484 154.085 94.6608C154.376 95.7977 153.607 97.4959 154.789 98.2424C159.399 99.2454 163.588 97.6355 168.38 97.5187C169.42 97.4247 170.364 97.8606 171.321 98.0202C172.669 98.1114 174.082 98.0487 175.461 98.0344H175.464ZM184.132 70.3731L184.066 70.4272C181.447 70.0967 180.547 67.4411 178.741 65.7657C178.356 65.381 177.664 64.9052 177.98 64.2926C178.592 63.9763 179.068 64.6687 179.453 65.0534C180.786 66.2957 182.071 67.1733 183.282 68.3044C183.829 68.8259 184.283 69.6123 184.129 70.3731H184.132ZM192.187 69.3445L192.098 69.447C191.412 69.6807 190.426 70.1879 189.656 69.92C189.4 69.7975 189.181 69.598 188.953 69.5325C188.619 69.4727 188.482 69.41 188.195 69.1251C186.593 67.6605 183.223 64.3239 182.735 63.6087C182.59 63.2241 182.619 62.5117 182.75 62.1014C182.858 61.8877 183.166 61.8422 183.456 61.6854C183.898 61.3635 184.189 60.862 184.761 60.8392C185.949 60.7224 186.582 61.731 187.405 62.5203C187.713 62.7967 188.132 62.791 188.511 63.1642C188.762 63.4121 188.924 63.6999 189.089 63.9934C190.166 65.8398 192.982 66.9539 192.189 69.3445H192.187ZM197.464 62.9249C196.224 61.7937 193.606 59.292 192.001 57.8103C191.64 57.3915 191.309 57.212 191.218 56.6877C191.075 55.944 191.665 54.5137 192.383 54.2715L192.491 54.2373C194.497 53.9409 195.6 55.8443 197.105 57.4029C198.085 58.6366 199.213 59.651 200.247 60.7679C200.743 62.7881 199.621 63.9792 197.464 62.9249ZM204.607 49.3279C204.362 49.5558 203.849 49.6071 203.484 49.4532C202.726 49.137 202.498 48.3334 201.894 48.077C200.378 47.6382 199.43 46.5526 198.165 45.7063C196.691 44.7661 196.891 42.1789 196.976 40.5348L197.045 40.4693C198.962 40.1729 199.609 41.3127 201.518 42.6262C202.242 43.2502 203.273 43.8742 203.615 44.5524C203.647 44.6891 203.624 44.9285 203.615 45.1393C203.587 45.5724 203.823 45.6893 204.091 46.0226C205.131 47.037 205.493 48.228 204.61 49.325L204.607 49.3279ZM204.519 40.7713C204.097 41.0933 203.618 40.7855 203.253 40.6117C202.213 40.039 201.569 38.9534 200.658 38.2325C199.826 38.0302 199.407 37.6285 198.754 37.0899C198.105 36.56 197.823 36.5486 197.729 35.6111C197.629 35.1068 197.503 34.4857 197.452 34.2178C197.384 33.9671 197.478 33.9443 197.786 33.4941C198.016 33.1949 198.427 32.5367 198.623 32.36L198.726 32.323C199.202 32.2062 199.658 32.4512 200.019 32.796C200.894 33.5026 202.082 34.6794 203.008 35.6909C203.555 36.2351 203.536 36.3691 203.749 37.0501C204.604 38.1926 205.875 39.5432 204.519 40.7741V40.7713ZM195.677 22.4216L195.737 22.3817C197.515 23.832 200.991 26.9691 202.957 28.6531C203.228 28.844 203.216 29.0634 203.367 29.3939C203.763 30.0521 203.516 30.7701 202.775 30.9553C202.233 30.9924 201.692 30.2173 201.259 29.7899C201.028 29.5278 200.755 29.5705 200.478 29.4851C200.039 29.1488 198.848 27.9778 197.66 26.8152C196.748 25.9063 195.985 25.1541 195.275 24.3534C194.663 23.8177 195.139 22.7834 195.68 22.4216H195.677ZM195.233 48.077L195.349 48.0371C195.996 48.0086 197.059 47.8519 197.512 48.4474C198.934 50.1912 201.786 51.6045 202.957 53.2827C203.1 53.5021 203.119 53.7643 203.236 54.0008C203.456 54.394 203.715 54.6305 203.692 55.1291C203.675 55.944 203.84 58.2149 202.567 58.0041C199.415 56.8672 197.475 53.0064 194.854 50.8893C194.284 50.2596 194.486 48.4503 195.233 48.077ZM163.041 63.3608C163.306 64.2242 163.197 65.344 163.195 66.3669C163.206 67.1419 163.562 67.7802 163.659 68.5324C163.776 71.3817 163.172 75.4648 164.075 77.8127C164.933 79.585 164.753 80.7902 162.551 80.9299C161.684 81.0666 161.568 81.4342 160.724 81.3658C157.963 81.2889 153.513 81.5168 150.492 81.2803L150.412 81.2347C149.891 80.984 149.264 79.6277 149.432 78.7473C150.21 74.5844 149.717 70.1907 149.888 65.9537C150.695 47.9317 149.962 27.9008 148.934 10.0583C148.934 9.03537 150.162 8.19196 151.145 8.12643C151.809 8.07514 152.524 8.18911 153.199 8.14922C154.028 8.12073 154.433 7.48533 154.951 7.22604C155.533 7.03513 156.145 7.14056 157.296 7.07787C160.582 7.03513 166.181 7.02658 167.429 7.1662C168.078 7.36565 168.537 8.15207 169.332 8.14637C173.315 7.5936 176.626 10.5598 180.333 11.8961C181.08 12.2038 181.898 12.1639 182.448 12.6312C182.829 13.0016 183.111 13.5202 183.659 13.6769C184.858 13.9334 185.616 15.133 186.471 16.0191C188.121 17.6432 188.519 18.8342 189.517 20.7518C190.654 22.6609 192.246 24.3135 192.813 26.5047C193.124 27.7042 192.933 28.9978 193.455 30.1376C193.965 31.6933 193.717 33.7078 193.708 35.3974C192.415 41.0363 191.132 46.8147 188.001 51.8039C187.445 52.653 186.536 53.0177 185.844 53.7329C184.528 55.0123 184.012 56.2546 182.279 57.1806C180.145 58.3774 177.934 58.1608 175.866 58.5654C174.751 58.8275 173.689 59.5769 172.577 59.8847C170.144 60.6198 166.36 58.9102 163.95 60.5599C163.018 61.1811 162.67 62.3294 163.044 63.3637L163.041 63.3608ZM171.765 71.3133L171.748 71.3789C170.893 71.0199 169.036 70.3303 168.113 69.9058C166.751 69.1365 166.694 67.1163 168.603 67.5608C169.392 68.0907 170.212 69.1393 170.936 69.8516C171.375 70.2448 171.894 70.695 171.765 71.3162V71.3133ZM171.292 66.4239C171.124 65.8654 171.287 64.8397 171.301 64.3068C171.347 64.2983 171.435 64.2812 171.48 64.2726C171.945 64.4493 172.694 64.512 173.085 64.8397C175.096 66.6205 176.672 68.7176 178.316 70.6438C178.421 70.8318 178.481 71.1481 178.404 71.2906L178.313 71.3789C177.615 71.5641 176.809 71.3789 176.21 70.8746C175.293 70.1537 171.674 67.2217 171.29 66.4239H171.292Z" fill="var(--fill-0, white)"/>
<path id="Vector_11" d="M171.005 46.2335C171.734 46.1195 172.299 45.6551 172.871 45.2049C173.273 44.9114 173.701 44.8316 173.917 44.6293L173.997 44.5495C174.333 43.7859 174.994 42.8855 175.612 42.2045C176.342 41.25 176.45 39.9707 176.994 38.9136C177.157 37.7425 177.14 34.8646 177.046 33.2462C176.915 31.8785 175.749 30.7018 175.094 29.4965C173.014 26.1998 170.595 24.5187 167.449 22.4928C166.68 22.0056 166.036 21.1793 165.121 20.977C163.463 20.7262 162.449 21.0311 162.158 22.7379C161.805 25.8978 162.241 31.2631 162.691 34.3916C162.978 36.4574 163.796 38.5916 163.668 40.5947C163.497 42.5094 162.03 43.8144 162.916 45.5611C164.842 47.8035 168.526 46.4358 171.002 46.2363L171.005 46.2335ZM167.03 33.3716C167.7 33.477 168.045 34.2178 168.52 34.6139C169.264 35.2379 170.005 35.6454 170.498 36.4631C170.834 37.1954 171.957 37.6142 171.769 38.5232L171.695 38.6001C170.749 38.7654 170.247 37.5943 169.617 37.1612C169.19 36.9418 168.475 36.8364 168.156 36.6426C166.999 35.9844 166.742 34.5113 167.03 33.3716Z" fill="var(--fill-0, white)"/>
</g>
<g id="Group_4">
<path id="Vector_12" d="M858.844 94.6378C860.742 94.2019 862.528 93.0365 864.298 92.0136C868.136 89.3779 873.644 86.0756 875.727 81.6163C876.1 81.1092 877.402 80.8356 877.784 80.3085C878.035 79.9523 878.009 79.4508 878.077 79.0206C878.191 77.5788 878.978 76.573 879.724 75.3079C881.454 72.3759 882.511 68.7943 883.668 65.4748C884.098 64.2753 884.206 63.2039 884.352 62.0927C884.52 61.3433 884.87 60.688 884.916 59.9186C885.112 56.4538 885.001 52.4106 884.223 48.943C883.796 46.957 882.699 44.7943 882.069 42.6431C880.841 37.5485 878.243 33.9441 874.761 29.5789C873.305 27.6413 871.686 26.5415 869.891 24.9345C867.067 22.2846 864.959 18.9024 862.016 16.7141C856.858 13.728 851.607 9.98114 845.831 8.17466C844.857 7.78145 843.54 7.51646 842.774 6.82122L842.663 6.75568C836.067 4.76115 827.459 4.43632 820.461 6.2656C819.466 6.43086 818.857 7.26857 817.922 7.57344C815.551 8.07208 813.127 7.85553 811.027 9.36568C809.83 10.098 808.87 10.645 807.761 11.5996C804.114 14.8222 800.188 18.5035 797.749 22.0595C795.387 25.379 793.703 29.7185 792.346 33.1206C791.831 33.8529 791.098 34.702 790.925 35.6394C789.822 40.0787 788.993 46.3928 789.218 51.2367C789.454 52.2824 789.867 53.4478 789.791 54.5961C790.07 58.2803 790.001 62.5885 791.779 66.0447C793.338 68.8826 795.276 72.621 797.877 74.4674C798.433 75.1227 798.453 76.3023 799.057 77.0432C800.595 78.8924 802.558 80.2686 804.046 82.209C807.784 86.6682 813.015 88.9106 817.874 91.6147C822.182 93.5665 827 94.3614 831.462 96.0226C832.995 96.6637 834.16 97.1025 835.867 97.0882C840.948 97.2279 846.267 96.8375 850.875 96.0511C853.636 95.4527 856.123 95.0738 858.844 94.6407V94.6378ZM863.899 88.3123L863.839 88.3351C863.423 88.2952 862.42 88.4405 861.947 88.3721C861.221 88.1784 859.636 86.1468 858.767 85.3433C858.337 84.9444 858.14 84.574 857.781 84.5426C857.645 84.5227 857.494 84.5056 857.365 84.4229C856.813 84.0012 855.673 82.8615 855.83 82.437C856.154 82.1834 857.514 81.8357 857.927 81.6847C858.588 82.1321 859.898 83.3202 860.819 84.0525C861.85 84.9102 862.697 85.614 863.511 86.295C863.674 86.446 863.68 86.369 863.714 86.654C863.754 87.0985 863.945 88.2695 863.896 88.3123H863.899ZM867.122 85.0185C866.58 84.8133 865.013 83.4114 863.224 82.0808C862.195 81.283 861.477 80.7245 860.725 80.1404C860.238 79.8868 860.941 78.9836 861.238 78.8439L861.346 78.804C863.731 78.2712 865.973 81.055 867.84 82.531C868.167 82.7846 868.572 83.2006 868.663 83.5966C868.959 84.5341 867.902 85.1239 867.124 85.0185H867.122ZM877.721 71.2903C877.681 71.6608 876.844 71.9884 876.61 72.1394C876.359 72.205 875.031 71.769 874.875 71.732L874.826 71.6835C874.755 71.5924 874.738 71.3929 874.744 71.2419C874.675 70.6749 873.769 70.5153 873.256 70.2959C872.57 70.0224 872.305 68.9653 871.541 68.8456C871.29 68.8228 871.071 68.8656 871.054 68.6775C871.031 68.4951 871.054 68.1874 870.897 68.0079C870.022 67.1958 870.923 66.039 871.025 65.0987C871.059 64.8309 871.025 64.5915 871.133 64.5574C871.353 64.5403 872.561 64.8679 872.977 64.942C873.755 65.4093 874.313 66.3382 875.071 66.834C876.465 67.7999 877.727 68.6291 877.733 70.5524C877.75 70.806 877.752 71.0909 877.724 71.2903H877.721ZM875.074 63.0785C874.966 62.862 874.661 62.4944 874.328 62.3178C873.923 62.067 873.461 61.9046 873.179 61.8077C872.823 61.7052 872.917 61.7223 872.792 61.235C872.729 60.9928 872.632 60.6937 872.458 60.4515C872.307 60.1979 871.897 60.0753 872.077 59.8844C872.532 59.2604 872.954 59.2262 873.515 59.6394C874.895 60.5968 876.507 62.7708 877.727 64.0559L877.75 64.0872C877.071 63.8023 875.775 63.4689 875.071 63.0814L875.074 63.0785ZM880.781 61.2265C880.083 61.3718 879.738 60.5113 879.223 60.2036C876.935 58.3401 870.712 55.8469 873.587 52.2568L873.689 52.1912C874.276 52.1998 875.068 52.7041 875.507 53.0346C877.137 54.4963 879.337 56.6846 880.927 58.3828C881.234 58.7789 881.457 58.8273 881.545 59.2889C881.636 59.9015 881.434 61.0698 880.784 61.2265H880.781ZM879.545 48.6011C880.063 49.1937 880.639 50.1739 881.075 50.9062C881.485 51.6157 881.784 52.3251 881.371 53.0517C881.132 53.3908 880.978 53.6957 880.699 53.6387C879.981 53.1173 876.2 50.379 874.498 49.1453C874.114 48.849 873.934 48.8119 873.507 48.2648C873.219 47.8631 873.108 47.4585 872.889 47.1707C872.675 46.9086 872.407 46.6635 872.213 46.3843C871.561 45.4183 872.168 44.1817 873.094 43.6717H873.208C873.527 43.8256 873.986 44.0792 874.339 44.2758C874.989 44.7374 875.427 45.4867 876.066 45.9683C877.482 47.0567 878.482 47.3588 879.545 48.6011ZM870.558 36.4828C870.598 36.1779 870.512 35.7876 870.652 35.6366C872.985 34.967 874.179 37.6852 875.903 39.2324C876.077 39.4034 876.239 39.5858 876.405 39.7083C876.655 39.8764 877.009 39.7938 877.274 40.0673C878.114 40.791 879.083 41.9507 879.106 43.0705L879.043 43.1417C877.468 43.4723 875.92 42.5434 874.632 41.757C874.179 41.5803 873.35 41.5518 872.88 41.3324C872.33 41.0703 871.678 40.2724 871.262 39.8678C870.891 39.5601 871.071 39.1954 871.025 38.7965C870.934 38.4802 870.598 38.2979 870.541 37.9816C870.47 37.5114 870.538 36.9729 870.558 36.4828ZM871.094 77.3395C871.612 77.8353 871.775 77.8096 872.441 78.1117C874.057 79.2058 872.376 81.2944 870.621 80.7815C869.703 80.3085 868.837 79.3996 867.412 78.5106C866.07 77.5446 863.577 76.0801 865.515 74.5585L865.623 74.5243C866.087 74.4246 866.871 74.5386 867.404 74.55C867.862 74.5015 868.184 74.6611 868.512 74.9802C869.361 75.6983 870.264 76.6272 871.096 77.3366L871.094 77.3395ZM817.78 87.8592C816.942 87.3464 815.719 86.597 814.873 86.0812C814.685 85.9815 814.745 85.9559 814.534 85.9587C814.286 85.9217 813.79 86.0528 813.614 85.8675C813.357 85.5826 811.594 84.1921 811.634 84.0525C814.098 83.836 818.039 84.6195 817.791 87.7966L817.782 87.8592H817.78ZM830.137 91.6517C829.849 91.6831 829.502 91.666 829.214 91.6717C828.621 91.6717 828.177 91.1331 827.735 90.8282C827.125 90.2071 826.305 89.9478 825.895 89.5745C825.738 89.2896 825.561 88.6143 825.402 88.3807C825.715 88.3151 827.333 88.7311 827.835 88.7796C828.499 88.8708 829.146 90.5433 830.097 90.2498L830.157 90.2584C830.146 90.2926 830.183 91.6175 830.137 91.6517ZM844.421 92.5607L844.378 92.6461C843.592 92.9539 842.401 91.5862 841.939 91.2927C841.808 91.0704 841.187 91.2557 840.868 91.1901C840.569 91.1246 838.913 89.395 838.417 88.5915C837.682 87.6284 838.859 87.7481 839.426 87.8478C840.5 88.0986 841.295 88.8879 842.258 89.3039C843.139 90.2441 844.686 91.0932 844.427 92.5578L844.421 92.5607ZM842.882 82.6507C842.082 82.9099 840.967 82.9983 840.11 83.1493C837.816 83.5055 833.383 83.836 829.938 83.8075C826.137 84.0725 822.806 81.5337 819.287 80.5136C817.221 79.8241 814.808 79.6788 812.417 79.203C808.724 77.878 802.011 73.6866 800.054 71.8431C799.595 71.2448 799.199 70.5695 798.569 70.1193L798.47 70.0224C798.005 69.4981 797.407 69.0992 796.902 68.5778C795.902 66.9309 795.039 64.9933 794.261 63.1982C793.076 60.4686 793.791 56.8157 793.401 53.6472C792.503 50.701 793.17 47.6152 793.549 44.2615C794.361 39.4547 795.501 35.289 797.857 31.8014C800.376 27.023 802.427 22.504 805.869 18.7144C808.861 15.3037 813.184 12.8077 817.443 11.2719C818.543 10.9385 819.692 11.0097 820.843 10.6536C822.094 10.2632 823.202 9.79593 824.493 9.67341C828.824 9.19757 833.32 8.4254 837.548 9.19472C841.247 10.1606 844.76 10.2119 847.877 11.8133C851.433 13.6653 855.14 17.2555 857.921 19.8C859.485 21.501 861.571 23.3987 862.486 25.4445C862.622 25.8804 862.728 26.3734 862.825 26.8093C863.038 27.8864 863.839 28.9207 864.358 29.9066C865.834 32.5536 865.916 34.5909 866.537 37.2009C866.854 38.4973 867.993 39.1982 867.996 40.5716C868.31 43.3953 868.563 46.6635 867.743 49.3533C867.669 50.6127 868.005 52.2853 867.652 53.2113C867.446 53.6928 867.022 54.0547 866.862 54.5647C866.686 55.1175 866.808 55.7358 866.743 56.3085C866.7 57.2317 865.68 58.2375 865.409 59.1693C865.116 60.1836 865.352 61.2151 865.033 62.2522C864.204 65.1016 862.081 67.2528 860.745 69.5351C860.095 70.4811 859.847 71.7291 859.18 72.564C857.647 74.3106 855.901 76.4676 854.112 77.7754C851.43 79.9039 847.9 80.394 844.76 81.5451C843.993 81.8243 843.538 82.4056 842.885 82.6563L842.882 82.6507ZM849.761 84.5654L849.855 84.5369C850.499 84.5113 851.786 84.5369 852.391 84.5255C852.618 84.517 852.721 84.5369 852.883 84.6537C854.673 86.0841 856.841 87.7168 858.223 89.7199C858.554 90.7827 857.445 91.3155 856.531 91.1787C855.191 91.0619 854.553 89.925 853.69 89.301C853.137 88.9021 852.08 88.4035 851.407 87.939C850.9 87.5145 848.079 85.3376 849.761 84.5597V84.5654Z" fill="var(--fill-0, white)"/>
<path id="Vector_13" d="M847.108 39.6599C846.652 38.5771 845.466 37.1154 844.791 35.9244C843.218 32.149 840.964 28.1457 837.374 25.9631C836.249 25.3647 834.813 24.4615 833.636 24.5869C832.644 24.5356 831.943 23.9913 830.855 24.0654C830.077 24.0227 829.479 24.2592 828.86 24.4501C827.458 24.698 826.339 24.4558 825.105 25.3163C823.244 26.4418 820.956 26.6555 819.21 27.9662C817.976 28.9948 817.306 30.9437 815.882 31.9467C814.938 32.6647 813.508 32.4026 812.898 33.5566C812.149 34.7903 812.867 36.4942 812.608 37.8021C812.346 39.7339 811.197 41.4635 810.633 43.3583C810.174 44.6861 810.627 45.4867 810.667 46.7718C810.707 48.0825 810.468 49.6724 810.662 50.8264C811.095 52.8751 811.781 55.2229 812.172 56.9411C812.539 57.9555 812.827 59.1066 813.195 60.1067C813.289 60.2834 813.423 60.4771 813.537 60.6424C814.092 61.3091 814.309 62.3121 814.87 62.9931C816.62 65.0532 819.643 66.3297 821.985 67.6888C823.316 68.4353 824.917 68.0393 826.302 68.6091C827.137 68.9738 828.1 68.934 829.142 68.9197C830.222 68.9254 830.901 68.3612 831.892 68.3783C833.573 68.5009 835.135 67.0192 836.847 66.5918C837.582 66.3639 837.762 65.8367 838.352 65.5204C838.773 65.3238 839.295 65.2213 839.731 65.0104C841.702 64.1214 842.933 62.6768 844.09 60.9131C844.916 59.7676 844.988 58.4427 846.062 57.7275L846.142 57.6306C846.432 57.2517 846.489 56.4852 846.74 55.9923C847.173 55.0149 847.846 54.0974 847.774 53.0033C847.774 51.9377 848.364 51.2424 848.338 50.2195C848.324 47.997 848.723 45.3243 847.942 43.4609C847.441 42.3154 847.609 40.7939 847.102 39.6627L847.108 39.6599ZM833.445 29.9009L833.522 29.8296C834.283 29.71 835.152 29.8467 835.727 30.4109C836.83 31.3369 838.004 32.716 839.013 33.7133C839.158 33.8871 839.229 34.1806 839.175 34.3145C839.041 34.4598 837.787 34.531 837.599 34.5909C836.206 33.3685 834.758 31.9524 833.545 30.5819C833.428 30.4166 833.416 30.0661 833.442 29.898L833.445 29.9009ZM825.943 29.3766C827.421 28.858 828.225 30.1402 829.268 31.109C831.231 31.8356 832.875 34.323 832.995 36.4173L832.972 36.4828C832.562 36.46 831.083 36.0868 830.838 36.0184C829.655 34.8502 827.746 32.9269 826.501 31.6874C826.091 31.223 825.575 30.8725 825.384 30.5021C825.484 30.2798 825.695 29.4706 825.94 29.3766H825.943ZM820.563 51.7382C819.78 51.875 819.395 51.1598 818.879 50.701C817.947 49.869 814.671 46.7234 815.32 45.6207C815.964 45.1648 816.608 46.0338 817.05 46.4698C818.449 47.9286 820.395 49.7209 820.646 51.7012L820.566 51.7353L820.563 51.7382ZM818.238 36.7877C818.087 36.1096 818.198 34.9243 818.893 34.6108L819.004 34.5709C820.384 34.2775 821.58 35.591 822.407 36.5997C822.563 36.8333 822.506 37.1097 822.683 37.349C823.732 38.5287 825.059 39.4205 825.786 40.8708C826.005 42.3582 824.609 42.4323 823.478 41.8253C822.412 40.7454 818.796 37.6967 818.238 36.7877ZM844.52 50.1141C844.583 51.3849 843.765 52.291 843.566 53.5219C843.19 55.0263 843.161 56.4624 841.913 57.6107C841.278 58.3344 840.999 58.8302 840.568 59.4884C839.976 60.3859 838.77 61.0897 837.787 61.8363C836.952 62.5001 836.237 62.825 835.2 62.9845C833.496 63.2752 831.94 63.6997 830.331 64.4092C829.088 64.8081 826.963 64.677 826.048 63.4832C825.624 62.6483 825.037 61.8875 824.461 61.1125C823.96 60.3631 823.771 59.6052 824.319 58.8046C824.504 58.4854 824.754 58.115 824.706 57.7645C824.005 56.5194 823.478 54.0091 823.979 52.6101C824.262 52.0117 824.857 51.59 824.994 50.9033C825.25 49.889 825.131 48.715 825.552 47.7662C826.344 46.1991 829.955 42.3354 831.222 41.341C832.918 40.2639 835.129 39.1042 837.066 38.409L837.186 38.389C838.021 38.315 840.007 38.3292 840.802 38.5173C841.625 39.0529 842.762 40.7056 843.534 41.5005C845.045 43.9567 844.517 47.2847 844.523 50.1255L844.52 50.1141Z" fill="var(--fill-0, white)"/>
</g>
<path id="Vector_14" d="M94.241 52.9207C93.4317 51.6983 92.3632 50.1454 91.2435 48.9487C90.7619 48.4358 90.249 47.9685 89.7561 47.5155C89.1036 46.9171 88.4881 46.353 87.9496 45.7147C86.4993 43.9481 85.2 41.9906 83.9434 40.0958C83.2311 39.0216 82.4931 37.9075 81.7181 36.8162C80.8605 35.6708 79.8005 34.816 78.6665 34.3516C78.4471 34.2575 78.2277 34.1692 78.0054 34.0809C77.4441 33.8586 76.9141 33.6449 76.4896 33.3486C75.9254 32.9297 75.3869 32.3599 74.817 31.7558C73.9793 30.8697 73.1131 29.9522 72.0275 29.3481C70.4803 28.4192 68.8249 27.61 67.2264 26.8236C66.2747 26.3563 65.2917 25.8748 64.3742 25.3904C61.1573 23.621 57.9632 21.8344 54.6295 19.9368C53.7633 19.4125 52.917 18.8027 52.0992 18.2129C51.3613 17.6801 50.5948 17.1273 49.7998 16.6258C48.2498 15.6542 46.5744 14.6911 44.52 13.5941C40.3087 11.3944 35.8096 9.10073 31.1281 7.35979C30.128 7.01502 29.1193 6.77282 28.1449 6.53633C27.4154 6.35967 26.6604 6.17731 25.8939 5.94936C24.8425 5.65873 23.774 5.30826 22.7425 4.96919C21.7339 4.63867 20.6881 4.29675 19.6595 4.00611C19.1096 3.84655 18.5711 3.73828 18.0497 3.6357C17.3202 3.49038 16.6335 3.35077 16.0865 3.10002C15.5337 2.84358 15.0009 2.51591 14.4395 2.16829C14.0406 1.92325 13.6275 1.66966 13.2001 1.43886C10.1484 -0.230852 7.1025 -0.458799 4.82873 0.814856C3.24165 1.75799 2.12471 3.838 1.42092 7.17458L1.41522 7.20307C1.24426 8.18039 1.29555 9.001 1.34684 9.79312C1.37248 10.1863 1.39813 10.5909 1.39813 11.0269V11.0725C1.3098 13.4602 1.21862 15.9306 1.52065 18.3725C1.85117 21.1135 1.83408 23.8147 1.46936 26.8692V26.9091C1.38103 28.0859 1.22147 29.3424 1.0676 30.5562C0.82826 32.4568 0.577518 34.4199 0.594614 36.2179V36.2521C0.631656 36.9929 0.70004 37.6796 0.768424 38.3463C0.848206 39.1442 0.930836 39.9705 0.953631 40.8879C1.02202 42.683 0.816863 44.9169 0.332475 47.695C-0.442545 51.5815 0.252694 54.9352 1.23572 58.91C1.83693 61.4345 1.98794 63.8451 1.68591 66.0932C1.63747 66.512 1.57479 66.9993 1.44657 67.4694C1.34114 67.8854 1.17873 68.2701 1.00492 68.6747C0.677245 69.4383 0.341023 70.2247 0.435052 71.1992L0.44075 71.2476C0.586066 72.1822 1.12174 72.9145 1.59188 73.5613C1.77709 73.8121 1.9509 74.0514 2.09337 74.2879L2.11331 74.3221C2.32986 74.6469 2.52932 74.9974 2.74017 75.3706C3.10203 76.0089 3.47814 76.6699 3.98533 77.2655C4.65777 78.0462 5.47838 78.6018 6.27335 79.1375C6.50984 79.297 6.74918 79.4594 6.99708 79.6361C9.07994 81.0551 10.6613 82.9698 12.3367 84.9986C13.3653 86.2437 14.4282 87.5345 15.6334 88.7055C16.2631 89.284 16.9441 89.8396 17.6052 90.381C18.6423 91.2272 19.7165 92.102 20.5941 93.0764C21.1668 93.689 21.7282 94.3501 22.2695 94.9883C23.5147 96.45 24.8026 97.963 26.4068 99.1769C27.3641 99.949 28.4554 100.354 29.655 100.376H29.675H29.6949C30.9002 100.348 32.4189 99.8151 32.7408 98.3961C32.9261 97.5214 32.5186 96.6694 32.1596 95.9201C32.0599 95.7092 31.9658 95.5126 31.8946 95.3359L31.8718 95.2818C31.6353 94.7917 31.8376 94.484 33.4931 93.6349C33.9091 93.4212 34.2994 93.2189 34.6271 92.9881C35.7839 92.3014 37.0262 91.8028 38.3369 91.2756C39.6391 90.7514 40.9868 90.2128 42.2776 89.4606C43.9245 88.583 45.4973 88.1442 47.3209 87.637L47.3551 87.6256C48.6686 87.1982 49.9138 86.6084 51.1191 86.0357C51.8314 85.6995 52.5665 85.349 53.3017 85.0441L53.3672 85.0156C54.6722 84.4372 55.9487 83.6708 57.1853 82.9328C58.3735 82.2204 59.4961 81.548 60.6131 81.0437C61.7614 80.5479 62.9182 79.9524 64.0351 79.3768C64.5623 79.1061 65.0865 78.8354 65.588 78.5875C65.8445 78.465 66.1009 78.3539 66.3573 78.2399C66.6679 78.106 66.987 77.9664 67.2948 77.8154C67.9558 77.5076 68.6568 77.0745 69.4004 76.6186C70.4689 75.9633 71.5716 75.2823 72.6059 74.9375C73.4721 74.6839 74.4238 74.6839 75.233 74.7153C76.2588 74.7609 77.3216 74.7324 78.1393 74.1939C78.8602 73.7152 79.1708 72.9772 79.4272 72.2649L79.45 72.1879C79.849 70.6436 80.5841 70.0338 82.3792 69.7717C82.6328 69.7289 82.8892 69.6919 83.1456 69.652C83.7269 69.5637 84.3281 69.4725 84.9322 69.3414C86.6902 68.934 88.2944 68.0849 89.9328 67.1645C92.6681 65.549 93.8107 63.4946 93.7566 60.2948C93.7452 59.2206 94.1498 58.6108 94.58 57.9669C95.4719 56.6277 96.0132 55.4053 94.2381 52.9179L94.241 52.9207ZM9.26515 63.3806C9.22241 62.3862 9.09134 61.4003 8.96312 60.4458C8.8235 59.4029 8.69243 58.4199 8.66394 57.3999C8.58131 55.7957 8.68389 54.1174 8.78361 52.4933C8.83205 51.7154 8.88049 50.9119 8.90898 50.117C9.02011 46.3644 8.92608 42.5349 8.8349 38.8279L8.8235 38.3919C8.77791 36.5456 8.8178 34.514 8.85485 32.5536C8.87194 31.7131 8.88619 30.8782 8.89759 30.0519C8.87764 27.9149 9.05145 25.7922 9.46745 23.1394C9.94899 19.498 9.62132 15.7881 9.30504 12.2008C9.22526 11.2947 9.14263 10.3573 9.07424 9.4455C9.09989 8.91837 9.15688 8.62489 9.20246 8.47103C9.30504 8.52232 9.45891 8.61634 9.67546 8.7873L9.70395 8.80725C10.3963 9.30588 11.3452 9.55377 12.0347 9.6763C12.8867 9.81306 13.7814 9.84156 14.6475 9.8672C15.4767 9.89285 16.3315 9.92134 17.1236 10.0439C18.0098 10.1749 18.8589 10.4599 19.7564 10.7619C20.332 10.9556 20.9303 11.158 21.5401 11.3175C23.2127 11.782 24.9992 12.3974 27.0194 13.2095C30.1109 14.3777 33.4247 15.6742 36.7242 17.2356L36.7784 17.2584C38.2315 17.8283 39.5508 18.6346 40.9498 19.4894C41.6878 19.9396 42.4485 20.4041 43.2236 20.8258L43.2492 20.84C43.4971 20.9654 43.7478 21.085 43.9957 21.2076C44.9845 21.692 45.9219 22.1479 46.7938 22.7348C48.1985 23.7691 49.6716 24.5612 51.0991 25.3277C51.7972 25.7038 52.521 26.0913 53.2133 26.4988C53.4128 26.6185 53.6094 26.7381 53.8089 26.8578C54.7691 27.4419 55.7606 28.0431 56.8064 28.519C57.2195 28.7099 57.6355 28.8808 58.0772 29.0632C58.7638 29.3453 59.4762 29.6388 60.2455 30.032C60.9977 30.4166 61.8297 30.8868 62.6361 31.3427C63.4937 31.8271 64.377 32.3285 65.1663 32.7246C65.3088 32.8015 65.4484 32.8728 65.5823 32.944C66.4542 33.3999 67.1438 33.7618 67.6538 34.3459C68.2037 34.9955 68.5314 36.0241 68.7907 36.8419C69.1411 37.9759 69.409 39.2553 68.7565 40.1614L68.7194 40.2155C68.2607 40.962 67.3204 41.1073 65.9356 41.2384C65.2176 41.3068 64.4739 41.378 63.8357 41.6259L63.7701 41.6544C62.5592 42.2471 62.5421 43.3298 62.5307 44.045C62.5193 44.7858 62.4879 45.1591 61.9152 45.5495L61.8326 45.6121C60.9778 46.2817 59.915 46.7376 58.6755 46.9684C57.1996 47.1707 55.8917 47.487 54.8802 49.2023C54.5269 49.7152 54.1593 50.2395 53.6863 50.57C52.954 51.0344 52.1448 51.3308 51.29 51.6442C50.5578 51.912 49.8027 52.1884 49.0761 52.5759C48.1159 53.0461 47.2041 53.6416 46.3208 54.2171C45.7338 54.599 45.1782 54.9608 44.6112 55.2885C44.1126 55.5791 43.5826 55.8584 43.0697 56.1262C42.2747 56.5422 41.4541 56.9753 40.6933 57.4739L40.5936 57.5366C39.8784 57.984 39.1405 58.4456 38.4082 58.8445C37.73 59.2063 37.0263 59.5027 36.2797 59.8132C35.5816 60.1067 34.8579 60.4088 34.1741 60.7649C33.4988 61.104 32.8605 61.463 32.2394 61.8135C31.1595 62.4204 30.1423 62.996 28.9683 63.449C28.4725 63.6485 27.954 63.8451 27.4525 64.0331C26.9083 64.2383 26.3441 64.452 25.8027 64.6714C24.7798 65.0874 23.7711 65.606 22.7938 66.1074C21.9447 66.5434 21.0671 66.9936 20.1952 67.3668C19.765 67.535 19.2549 67.7515 18.7164 67.9823C16.1235 69.085 11.7982 70.9228 10.0145 69.9028C9.08564 69.1249 9.17682 67.2671 9.2566 65.6259C9.29649 64.8167 9.33353 64.0502 9.26515 63.3692V63.3806ZM15.0379 75.7297C15.3342 75.4675 15.585 75.3507 15.7873 75.382C16.3828 75.4732 17.0752 76.6614 17.5339 77.445C17.5995 77.5561 17.6621 77.6644 17.7334 77.784C18.4343 78.9095 19.1581 79.8356 19.953 80.6191C20.8477 81.4996 21.882 82.2034 22.8821 82.8815C23.3608 83.2063 23.8566 83.5425 24.3296 83.8959C25.1559 84.4971 25.9965 85.1724 26.8085 85.8249C27.6291 86.4859 28.4782 87.1697 29.2875 87.751C29.8915 88.1984 30.1252 88.4633 30.2135 88.6058C30.1764 88.6115 30.128 88.6172 30.0739 88.6172C29.0937 88.5773 28.2873 88.0245 27.3527 87.3834C26.9225 87.09 26.478 86.7851 25.9879 86.5115C23.9905 85.2835 21.8849 83.95 20.0186 82.3743L19.9901 82.3515C18.7648 81.4055 17.9528 80.2288 17.0951 78.9836C16.8985 78.6958 16.6991 78.408 16.4797 78.1031C16.2802 77.8382 16.0409 77.5789 15.8072 77.3281C14.8014 76.2482 14.7815 76.0203 15.0436 75.724L15.0379 75.7297ZM29.4556 80.887C28.8885 80.4567 28.3443 80.0692 27.8172 79.6931C25.8056 78.2627 24.2156 77.1315 23.0018 74.7096L22.9705 74.6555C22.2439 73.4359 22.2296 72.6467 22.5374 72.4045C22.6656 72.3047 22.8679 72.2478 23.1243 72.2478C23.7455 72.2478 24.6687 72.5868 25.5491 73.4502L25.589 73.4872C26.2102 74.0201 26.8285 74.6127 27.4297 75.1854C27.9938 75.7211 28.5751 76.2767 29.1763 76.8039C30.903 78.2741 32.1396 79.5193 33.1882 80.8471L33.627 81.3742C34.251 82.1236 34.8978 82.8986 35.4962 83.5055C35.6899 83.705 35.8979 83.8987 36.0974 84.0839C36.482 84.4401 36.8809 84.8105 37.1003 85.1581C37.106 85.1667 37.2343 85.3832 37.1887 85.443C37.0405 85.6425 36.3795 85.8391 35.8067 85.6881L35.7668 85.6795C35.0374 85.5285 34.5074 85.0755 33.8378 84.4999C33.6042 84.2976 33.3592 84.0896 33.1113 83.8959C32.7437 83.5938 32.3676 83.2804 31.9915 82.967C31.1509 82.2689 30.2847 81.548 29.4527 80.8898L29.4556 80.887ZM35.9748 75.0373C35.4648 74.6754 34.9405 74.2993 34.4391 73.8947C33.6469 73.2365 32.8662 72.5298 32.1111 71.8432C31.282 71.0909 30.4243 70.3159 29.5467 69.5979C29.2618 69.3414 29.1507 69.1762 29.1108 69.0964C29.202 69.0138 29.4755 68.8343 30.2363 68.6092C31.9088 68.0735 33.1825 68.1989 34.1171 68.9853C35.5845 70.2561 36.8239 71.732 38.1346 73.2963C39.1633 74.5215 40.2289 75.7895 41.4057 76.9378C42.534 78.1202 43.7193 79.3711 44.822 80.545C44.9104 80.6419 45.0044 80.7445 45.1013 80.8471C45.4375 81.2032 45.996 81.7987 45.9618 82.0979C45.9276 82.2461 45.8677 82.286 45.7965 82.3173C45.3805 82.5082 44.3889 82.3116 43.6282 81.8928L43.594 81.8728C42.8588 81.4568 42.2576 81.0494 41.7562 80.6305C41.172 80.1319 40.6136 79.468 40.0238 78.7642C39.4225 78.0462 38.7985 77.3025 38.1118 76.7013C37.428 76.0716 36.69 75.5473 35.9748 75.0373ZM39.8642 66.4408C39.508 66.0875 38.941 65.5233 38.8527 65.2469C39.0835 64.9933 39.8585 64.6372 40.2489 64.4577C40.5537 64.3152 40.8444 64.1841 41.1037 64.0388C41.2718 63.9562 41.4342 63.8764 41.5937 63.7995C42.5027 63.3493 43.158 63.0245 43.7649 63.0643C45.0699 63.184 47.6571 66.5491 49.0448 68.3584C49.5719 69.0451 50.0306 69.6406 50.4067 70.0794C51.0535 70.9257 51.7488 71.7263 52.4212 72.5013C53.1222 73.3077 53.8487 74.1426 54.4813 74.9888C55.413 76.3109 55.5355 76.6927 55.1566 77.1458C54.9315 77.4193 54.373 77.898 52.9996 78.616L52.9711 78.6303C52.6235 78.8297 51.4325 79.4167 50.6945 78.616L50.629 78.5505C48.4749 76.3337 46.3521 73.889 44.2978 71.524L43.8789 71.0425C43.6424 70.7604 43.3917 70.4584 43.1324 70.1449C42.6907 69.6121 42.2263 69.0508 41.7675 68.518C41.3971 68.0877 41.0638 67.7116 40.7418 67.3725C40.4512 67.0363 40.1463 66.7371 39.8528 66.4437L39.8642 66.4408ZM55.7635 67.2358C54.3673 65.3923 52.2389 62.6968 49.8825 60.5826C48.7855 59.6138 48.9707 59.3887 49.0704 59.269L49.0903 59.2434C49.3012 58.967 49.8426 58.8559 50.2614 59.0012C50.8826 59.2861 51.3898 59.9386 51.9311 60.6253C52.1619 60.9188 52.3984 61.2208 52.6492 61.5029C53.1364 62.1041 53.635 62.7395 54.1137 63.3578C55.2221 64.7825 56.3704 66.2556 57.6156 67.5407C58.2253 68.1789 58.855 68.7858 59.4648 69.3728C60.0062 69.8942 60.5675 70.4356 61.1032 70.9884C61.2257 71.1251 61.3596 71.2647 61.4964 71.4072C62.0634 72.0027 62.7672 72.7407 62.7387 73.3362C62.7244 73.4074 62.6845 73.4929 62.5592 73.5727C62.3341 73.7152 61.9694 73.7494 61.6417 73.6582C61.0832 73.5015 60.6131 72.9601 60.103 72.3218C59.2938 71.2049 58.4105 70.2333 57.5557 69.293C56.9517 68.6263 56.3248 67.9367 55.7606 67.2358H55.7635ZM60.3595 61.6311C59.9919 61.161 59.613 60.6766 59.1998 60.1723C58.4903 59.3004 57.7153 58.3686 56.832 57.3372L56.6895 57.1691C56.3676 56.7844 55.8832 56.2117 55.8604 55.998C55.9117 55.5962 56.5414 55.2885 57.077 55.2885C57.0856 55.2885 57.097 55.2885 57.1055 55.2885C58.0544 55.2885 58.6527 56.0065 59.5275 57.1862C59.8722 57.6534 60.2313 58.135 60.6416 58.5424C61.522 59.5283 62.6532 60.5997 63.7502 61.6368C64.3429 62.1981 64.9583 62.7794 65.5253 63.3407C65.6906 63.5174 65.8986 63.7311 66.1322 63.9704C67.1124 64.9791 70.0985 68.045 69.7965 69.2161C69.7167 69.5665 69.3206 69.9483 68.8932 69.9398H68.8591H68.8249C68.3661 69.9654 67.7336 69.5494 67.0839 68.8001L67.0497 68.763C66.2149 67.7914 65.2717 66.8939 64.3599 66.0248C63.4653 65.1729 62.5392 64.2953 61.75 63.3692C61.2684 62.8051 60.8239 62.2352 60.3509 61.6311H60.3595ZM64.4711 54.1944C64.1349 53.7584 63.7587 53.1458 63.8642 52.707C63.9639 52.2853 64.5423 51.8266 65.6251 51.3051L65.6564 51.2909C66.534 50.8236 67.2805 50.5102 67.876 50.5102C68.2094 50.5102 68.4972 50.6099 68.7308 50.8378C69.8848 51.9633 71.0559 53.3937 72.1871 54.7756C72.5546 55.223 72.9165 55.6646 73.2584 56.0749C73.7485 56.6847 74.2728 57.3315 74.8056 57.9897C75.7801 59.1921 76.7916 60.4344 77.6835 61.577C78.5269 62.6141 78.7691 63.2866 78.4898 63.8166C78.051 64.4748 76.7945 65.3809 75.8485 65.5518H75.8371C75.0735 65.6287 74.458 64.8908 73.6716 63.8394C73.5092 63.62 73.3496 63.4091 73.2014 63.2296C71.7483 61.369 70.2495 60.0298 68.8021 58.7334C67.2634 57.3571 65.8131 56.0578 64.4768 54.1972L64.4711 54.1944ZM73.2071 47.1137C73.0333 46.7604 73.0333 46.4071 73.2071 46.1963C73.3126 46.068 73.4835 46.0025 73.683 46.0025C73.777 46.0025 73.8767 46.0168 73.9793 46.0452C74.5606 46.2219 75.1418 46.8516 75.6519 47.4101L75.8371 47.6095C76.7489 48.621 77.7347 49.5813 78.6864 50.5073C80.0684 51.855 81.4987 53.2484 82.7068 54.8098C83.3451 55.582 83.9776 56.2744 84.7783 57.0722C85.6217 57.8728 85.6559 58.323 85.4251 58.8701L85.3909 58.967C85.2997 59.232 85.1972 59.5084 85.1003 59.7819L85.0262 59.9871C84.9778 60.1181 84.9322 60.2463 84.8866 60.3717C84.8381 60.5085 84.7755 60.6823 84.7156 60.8333C84.7071 60.8248 84.6985 60.8134 84.6871 60.8048C84.3908 60.4743 84.0631 60.0412 83.7468 59.6252C83.63 59.4713 83.5132 59.3175 83.3935 59.1636C81.191 56.3912 78.9429 53.841 76.5608 51.1427L75.5237 49.9659C75.2615 49.6468 74.9709 49.3334 74.6916 49.0314C74.1218 48.413 73.5291 47.7748 73.2071 47.1194V47.1137Z" fill="var(--fill-0, white)"/>
</g>
</svg>
